<svg width="88" height="66" viewBox="0 0 88 66" fill="none" xmlns="http://www.w3.org/2000/svg">
  <rect width="88" height="66" rx="8" fill="#F6F8FA"/>
  <path d="M30.7415 46.4981C30.4073 47.8038 29.3806 47.5596 27.9868 47.104C29.9202 47.2172 30.7415 46.4981 30.7415 46.4981Z" fill="#231C1D"/>
  <path d="M27.9017 38.92L27.5256 38.4822C26.2681 37.7378 25.159 38.5641 23.47 38.6698C21.8049 38.7741 20.6928 38.4316 19.5433 39.2803L19.1506 39.4679C19.1506 39.4679 14.1238 42.0496 14.2677 44.3067C14.3291 45.2834 15.3573 45.3355 15.8264 45.2134C16.2625 45.1003 16.6717 44.6685 16.9684 44.2739C16.9083 44.688 16.8892 45.1069 16.9115 45.5246C17.2951 51.5962 20.1053 46.5385 23.9556 46.2988C27.8058 46.0591 31.1825 49.9912 30.8498 44.6611C30.8172 44.219 30.7389 43.7814 30.616 43.3553C30.4598 42.866 30.2772 42.3854 30.0689 41.9156C29.8033 41.2946 29.4802 40.6994 29.1037 40.1379C28.7943 39.652 28.3846 39.2369 27.9017 38.92Z" fill="#07BEFF"/>
  <mask id="mask0_1723_30319" style="mask-type:alpha" maskUnits="userSpaceOnUse" x="14" y="38" width="17" height="11">
  <path d="M27.9017 38.92L27.5256 38.4822C26.2681 37.7378 25.159 38.5641 23.47 38.6698C21.8049 38.7741 20.6928 38.4316 19.5433 39.2803L19.1506 39.4679C19.1506 39.4679 14.1238 42.0496 14.2677 44.3067C14.3291 45.2834 15.3573 45.3355 15.8264 45.2134C16.2625 45.1003 16.6717 44.6685 16.9684 44.2739C16.9083 44.688 16.8892 45.1069 16.9115 45.5246C17.2951 51.5962 20.1053 46.5385 23.9556 46.2988C27.8058 46.0591 31.1825 49.9912 30.8498 44.6611C30.8172 44.219 30.7389 43.7814 30.616 43.3553C30.4598 42.866 30.2772 42.3854 30.0689 41.9156C29.8033 41.2946 29.4802 40.6994 29.1037 40.1379C28.7943 39.652 28.3846 39.2369 27.9017 38.92Z" fill="#0CA1DD"/>
  <path d="M27.9017 38.92L27.5256 38.4822C26.2681 37.7378 25.159 38.5641 23.47 38.6698C21.8049 38.7741 20.6928 38.4316 19.5433 39.2803L19.1506 39.4679C19.1506 39.4679 14.1238 42.0496 14.2677 44.3067C14.3291 45.2834 15.3573 45.3355 15.8264 45.2134C16.2625 45.1003 16.6717 44.6685 16.9684 44.2739C16.9083 44.688 16.8892 45.1069 16.9115 45.5246C17.2951 51.5962 20.1053 46.5385 23.9556 46.2988C27.8058 46.0591 31.1825 49.9912 30.8498 44.6611C30.8172 44.219 30.7389 43.7814 30.616 43.3553C30.4598 42.866 30.2772 42.3854 30.0689 41.9156C29.8033 41.2946 29.4802 40.6994 29.1037 40.1379C28.7943 39.652 28.3846 39.2369 27.9017 38.92Z" fill="#07BEFF"/>
  </mask>
  <g mask="url(#mask0_1723_30319)">
  <g filter="url(#filter0_f_1723_30319)">
  <path d="M28.5341 40.357C29.3928 41.6881 29.6836 42.5442 29.7645 43.8231C30.1017 49.1592 27.3186 45.7899 23.4698 46.0296C21.0928 46.1785 19.5581 48.1617 17.325 47.7165C18.2332 50.0049 20.6926 46.5031 23.9509 46.2991C27.7982 46.0579 31.1988 49.9915 30.8451 44.6613C30.6892 42.4146 28.4142 40.1709 28.5341 40.357Z" fill="url(#paint0_linear_1723_30319)"/>
  </g>
  <g filter="url(#filter1_f_1723_30319)">
  <path d="M17.1799 42.9135C16.7572 43.6878 16.1847 44.194 15.3319 44.4143C14.9761 44.5031 14.6003 44.4673 14.2678 44.3131C14.3338 45.2838 15.3574 45.3359 15.8265 45.2064C16.6778 44.986 17.4497 43.454 17.4497 43.454L18.3324 40.9884C18.3324 40.9884 17.601 42.1378 17.1799 42.9135Z" fill="url(#paint1_linear_1723_30319)"/>
  </g>
  <g filter="url(#filter2_f_1723_30319)">
  <path d="M16.9089 45.6041C16.9089 45.6041 22.3179 46.0508 28.0446 44.4577C28.0446 44.4577 21.3437 46.4587 16.9764 46.2339L16.9089 45.6041Z" fill="url(#paint2_linear_1723_30319)"/>
  </g>
  </g>
  <path d="M14.371 43.6066C14.2874 43.8301 14.2507 44.0682 14.2631 44.3063C14.3245 45.283 15.3527 45.3351 15.8218 45.2131C16.0457 45.143 16.2507 45.0234 16.4213 44.8632C14.9705 44.7098 14.5074 43.9341 14.371 43.6066Z" fill="#020333"/>
  <path d="M10.383 26.3175C10.383 26.3175 7.35856 30.8645 5.47314 30.9598C5.47314 30.9598 5.48513 33.3033 8.08545 33.5087C10.6858 33.7142 11.4261 27.0709 10.383 26.3175Z" fill="white"/>
  <path d="M9.90444 27.6759C9.90444 27.6759 8.10595 31.1003 6.75708 31.343C6.75708 31.343 6.95641 32.9629 8.84183 32.8646C10.7272 32.7664 10.7153 28.1003 9.90444 27.6759Z" fill="#0CA1DD"/>
  <path d="M31.7924 22.9734C31.7924 22.9734 36.0788 26.3814 37.9012 25.8931C37.9012 25.8931 38.6147 28.1264 36.2047 29.115C33.7947 30.1036 31.0325 24.0037 31.7924 22.9734Z" fill="white"/>
  <path d="M32.6674 24.1137C32.6674 24.1137 35.4461 26.8264 36.8009 26.6448C36.8009 26.6448 37.1127 28.2483 35.2887 28.7292C33.4647 29.2101 32.0274 24.7598 32.6674 24.1137Z" fill="#0CA1DD"/>
  <path d="M4.68944 19.9775C4.68944 19.9775 8.4273 24.1761 16.7049 21.2743L10.6964 26.3364C10.6964 26.3364 4.3777 25.9463 4.2518 20.372C4.24581 20.3794 4.22932 19.635 4.68944 19.9775Z" fill="#07BEFF"/>
  <path d="M35.4901 15.158C35.4901 15.158 33.233 20.2931 24.4579 20.0609L31.7448 23.0505C31.7448 23.0505 37.6378 20.7487 36.0357 15.4052C36.0357 15.4052 35.8229 14.692 35.4901 15.158Z" fill="#07BEFF"/>
  <path d="M35.4541 27.3401C38.1203 31.7755 36.6531 36.6858 23.3143 38.7746C9.86454 40.8784 7.06789 36.6441 8.20843 31.6087C9.46737 26.0478 12.832 21.3504 20.3482 20.1742C27.8644 18.998 32.506 22.4358 35.4541 27.3401Z" fill="#07BEFF"/>
  <mask id="mask1_1723_30319" style="mask-type:alpha" maskUnits="userSpaceOnUse" x="4" y="15" width="33" height="25">
  <path d="M4.68944 19.9775C4.68944 19.9775 8.4273 24.1761 16.7049 21.2743L10.6964 26.3364C10.6964 26.3364 4.3777 25.9463 4.2518 20.372C4.24581 20.3794 4.22932 19.635 4.68944 19.9775Z" fill="url(#paint3_linear_1723_30319)"/>
  <path d="M35.4901 15.158C35.4901 15.158 33.233 20.2931 24.4579 20.0609L31.7448 23.0505C31.7448 23.0505 37.6378 20.7487 36.0357 15.4052C36.0357 15.4052 35.8229 14.692 35.4901 15.158Z" fill="url(#paint4_linear_1723_30319)"/>
  <path d="M35.4541 27.3401C38.1203 31.7755 36.6531 36.6858 23.3143 38.7746C9.86454 40.8784 7.06789 36.6441 8.20843 31.6087C9.46737 26.0478 12.832 21.3504 20.3482 20.1742C27.8644 18.998 32.506 22.4358 35.4541 27.3401Z" fill="url(#paint5_linear_1723_30319)"/>
  </mask>
  <g mask="url(#mask1_1723_30319)">
  <g filter="url(#filter3_f_1723_30319)">
  <path d="M15.5014 22.0791L11.6227 24.7471C11.6227 24.7471 5.26503 24.4255 4.37478 19.9292C4.23989 20.0453 4.24589 20.3758 4.24589 20.3758C4.37778 25.9501 10.6905 26.3402 10.6905 26.3402L16.6989 21.2781C15.7203 21.6175 16.3572 21.9138 15.5014 22.0791Z" fill="url(#paint6_linear_1723_30319)" fill-opacity="0.5"/>
  </g>
  <g filter="url(#filter4_f_1723_30319)">
  <path fill-rule="evenodd" clip-rule="evenodd" d="M35.8289 15.0475C35.9257 15.1484 35.9966 15.271 36.0357 15.4049C37.5077 20.3142 32.653 22.651 31.8543 22.9984C33.2763 24.1988 34.4609 25.6863 35.4547 27.3396C38.121 31.7749 36.6582 36.6852 23.3149 38.7741C9.87266 40.8779 7.076 36.6435 8.21654 31.6022C9.46799 26.0413 12.8327 21.3454 20.3564 20.1677C22.3385 19.8575 24.1196 19.8681 25.7218 20.1417C25.8722 20.1422 26.0539 20.1292 26.3358 20.0918L31.2922 21.4839C31.2922 21.4839 36.2965 19.535 35.8289 15.0475ZM24.9777 20.2679C23.5396 20.0634 21.9515 20.0699 20.3099 20.3268C14.7151 21.2022 9.77672 25.6554 10.3133 29.0426C10.8498 32.4298 16.6574 33.4541 22.2523 32.5787C27.8486 31.7032 31.9476 28.252 31.4126 24.8678C31.2565 23.8806 30.7227 23.0084 29.9061 22.2899L24.9777 20.2679Z" fill="url(#paint7_linear_1723_30319)"/>
  </g>
  </g>
  <path d="M36.1963 28.882C35.5638 27.4824 34.7395 24.0893 21.3108 26.1901C8.62992 28.1748 8.32567 31.4532 7.99595 33.0195C7.6962 37.3953 11.1433 40.6783 23.3071 38.7755C35.1247 36.9278 37.6276 32.8662 36.1963 28.882Z" fill="white"/>
  <mask id="mask2_1723_30319" style="mask-type:alpha" maskUnits="userSpaceOnUse" x="7" y="25" width="30" height="15">
  <path d="M36.1963 28.882C35.5638 27.4824 34.7395 24.0893 21.3108 26.1901C8.62992 28.1748 8.32567 31.4532 7.99595 33.0195C7.6962 37.3953 11.1433 40.6783 23.3071 38.7755C35.1247 36.9278 37.6276 32.8662 36.1963 28.882Z" fill="white"/>
  </mask>
  <g mask="url(#mask2_1723_30319)">
  <g filter="url(#filter5_f_1723_30319)">
  <path d="M36.1963 28.8828C35.7946 27.9895 35.3135 26.2982 31.5727 25.7205C32.8541 26.5334 33.1539 27.6039 33.4086 28.2516C34.7051 32.3206 32.7837 36.3465 23.1602 37.8518C13.2685 39.4017 9.28037 36.9585 9.38678 32.541C9.48121 31.8695 9.6026 30.4655 10.4674 29.4293C7.90902 31.3931 8.19978 32.0497 7.99595 33.0159C7.6962 37.3917 11.1433 40.6747 23.3071 38.7719C35.1247 36.9287 37.6276 32.8671 36.1963 28.8828Z" fill="url(#paint8_linear_1723_30319)"/>
  </g>
  </g>
  <g filter="url(#filter6_i_1723_30319)">
  <path d="M19.3274 31.0129C19.212 31.7931 18.1914 32.2904 17.0493 32.1236C15.9073 31.9569 15.0725 31.1886 15.1894 30.4085C15.3063 29.6283 16.3239 29.131 17.4675 29.2978C18.611 29.4645 19.4428 30.2358 19.3274 31.0129Z" fill="#F1F6FF"/>
  </g>
  <g filter="url(#filter7_i_1723_30319)">
  <path d="M25.9114 29.9879C26.2621 30.6951 27.3861 30.8574 28.4218 30.3497C29.4574 29.842 30.0134 28.8608 29.6612 28.1491C29.309 27.4374 28.1865 27.2796 27.1493 27.7873C26.1122 28.295 25.5577 29.2807 25.9114 29.9879Z" fill="#F1F6FF"/>
  </g>
  <path d="M29.9179 41.5224C29.9179 41.5224 32.815 36.5094 31.7838 35.0012C31.0015 33.8533 29.191 36.1625 29.191 36.1625C29.191 36.1625 27.7837 37.8375 26.9639 38.3764" fill="#07BEFF"/>
  <path d="M19.3168 39.2343C18.5003 39.5929 17.7131 40.0141 16.9622 40.4939C16.154 41.0495 15.3779 41.6499 14.6377 42.2924C15.0136 43.3138 15.8999 44.0655 16.9742 44.2741C16.9742 44.2741 16.8408 45.2597 16.7809 45.5307C16.7209 45.8017 25.3237 45.8285 30.8136 43.552L30.1077 41.1534L31.3831 40.8557C31.3831 40.8557 31.6334 40.138 30.8586 38.8427C30.3094 37.9808 29.6415 37.1995 28.8743 36.5216C28.8743 36.5216 27.4999 37.7737 26.794 38.0402C26.5797 38.1206 26.3728 38.1593 25.8288 38.338C25.2848 38.5167 25.7838 39.4457 23.4443 39.8075C21.6938 40.077 20.9699 39.3876 20.5472 39.212C20.2715 39.0869 19.6375 39.2894 19.3168 39.2343Z" fill="white"/>
  <path d="M19.1953 39.7195C19.1953 39.7195 24.0153 41.0134 27.6887 38.5418L28.0964 38.8128C28.0964 38.8128 24.6493 41.7474 18.9031 40.0486L19.1953 39.7195Z" fill="#006EB7"/>
  <path d="M18.2679 40.8074C18.2679 40.8074 24.2434 41.9985 28.7246 39.5255L29.1068 39.9126C29.1068 39.9126 24.9897 42.6297 17.8662 41.3255L18.2679 40.8074Z" fill="#006EB7"/>
  <path d="M17.3685 41.955C17.3685 41.955 24.4755 43.17 29.6357 40.5838L29.9355 41.0528C29.9355 41.0528 25.1605 43.8816 17.1482 42.5417L17.3685 41.955Z" fill="#006EB7"/>
  <path d="M17.0467 43.1915C17.0467 43.1915 24.9316 44.1339 30.2206 41.6624L30.3331 42.0897C30.3331 42.0897 25.3992 44.6982 16.9792 43.8168L17.0467 43.1915Z" fill="#006EB7"/>
  <path d="M16.9398 44.5483C16.9398 44.5483 25.1229 44.9146 30.5259 42.6366L30.6622 43.0997C30.6622 43.0997 25.4346 45.4744 16.8618 45.0888L16.9398 44.5483Z" fill="#006EB7"/>
  <path d="M18.7175 39.4986C18.7186 39.6947 18.7821 39.8854 18.8988 40.0436L18.4492 40.5111C18.4492 40.5111 18.2004 39.8813 18.2229 39.7473L18.7175 39.4986Z" fill="#006EB7"/>
  <path d="M17.7253 40.0452C17.7253 40.0452 17.9681 40.7614 18.148 40.9594L17.7418 41.5281C17.7418 41.5281 17.2053 40.4279 17.2277 40.2924L17.7253 40.0452Z" fill="#006EB7"/>
  <path d="M16.7152 40.6911C16.7152 40.6911 17.1648 41.842 17.3491 42.04L17.0689 42.7755C17.0689 42.7755 16.2011 41.1646 16.2236 41.0291C16.3812 40.9077 16.5453 40.7949 16.7152 40.6911Z" fill="#006EB7"/>
  <path d="M15.6885 41.4232C15.6885 41.4232 15.8848 42.3374 17.0463 43.3126L16.9714 43.8813C16.9714 43.8813 15.3423 43.0729 15.2358 41.7761C15.3772 41.6469 15.5285 41.5289 15.6885 41.4232Z" fill="#006EB7"/>
  <path d="M28.6201 36.7463C28.6201 36.7463 31.2309 38.8903 31.111 40.9285L30.6884 41.0328C30.6884 41.0328 30.552 38.6655 28.199 37.0902L28.6201 36.7463Z" fill="#006EB7"/>
  <path d="M27.9109 37.3008C27.9109 37.3008 30.2954 39.549 30.4918 41.0944L30.1141 41.1838C30.1141 41.1838 29.6465 39.2482 27.4883 37.6462L27.9109 37.3008Z" fill="#006EB7"/>
  <path d="M27.021 37.9156C27.021 37.9156 28.761 39.1067 29.1642 40.0446C29.1642 40.0446 27.7613 38.4069 26.6448 38.0957L27.021 37.9156Z" fill="#006EB7"/>
  <path d="M20.5479 39.2016C20.3366 39.1123 19.9169 39.2016 19.5842 39.2344L19.4448 39.3833C20.1408 39.5701 20.8568 39.673 21.5775 39.69C21.0785 39.5366 20.7712 39.2999 20.5479 39.2016Z" fill="#006EB7"/>
  <path d="M27.0596 37.9097C26.974 37.9575 26.8854 37.9997 26.7944 38.0363C26.58 38.1167 26.3732 38.1554 25.8292 38.3341C25.5579 38.4234 25.5489 38.7033 25.3076 39.0055C25.6793 38.876 26.7269 38.4949 27.0641 38.2149C27.238 38.0735 27.181 37.9752 27.0596 37.9097Z" fill="#006EB7"/>
  <g filter="url(#filter8_f_1723_30319)">
  <path d="M25.4526 43.9847C24.8921 42.8532 24.0633 41.4834 23.6646 41.3152C23.2659 41.1469 23.1415 41.0933 23.1415 41.0933L22.8553 40.9355C23.0195 40.7532 23.1453 40.54 23.2255 40.3087C25.4736 39.6328 27.0697 37.934 27.0697 37.934C26.1105 38.2645 24.5114 38.7588 24.5114 38.7588C24.0138 39.0923 23.3963 39.5732 23.0936 39.8129C22.8418 39.7578 22.2933 39.8218 21.8661 39.8888C21.2291 39.5911 20.4183 39.128 20.4183 39.128L19.4262 39.2069L19.0425 39.4109C19.3752 39.9841 20.6746 40.3042 21.3086 40.4174C21.49 40.6695 21.7123 40.8899 21.9665 41.0695H21.9755C21.7582 41.3018 21.2681 41.8378 21.0928 42.1534C20.8635 42.5643 20.9279 42.7073 20.772 43.075C20.6162 43.4428 20.258 43.544 20.3314 44.0607C20.3314 44.0607 20.5217 43.4368 21.1377 43.3162C21.5664 43.2358 22.3037 42.5718 22.5675 41.8527C22.6643 42.2793 22.7146 42.7151 22.7174 43.1524C22.7803 44.6666 25.0869 44.6622 25.4706 45.1818C25.6055 45.3634 26.5857 45.8071 26.5857 45.8071C26.121 45.5733 26.0146 45.1163 25.4526 43.9847Z" fill="#A3070F" fill-opacity="0.5"/>
  </g>
  <path d="M20.4654 39.1002C20.4654 39.1002 21.543 39.6496 22.204 39.9057L21.7633 40.3926C21.7633 40.3926 19.5797 40.1826 19.1016 39.4352L19.4777 39.2164L20.4654 39.1002Z" fill="#E50A15"/>
  <path d="M21.3677 39.9246C21.3677 39.9246 22.8889 39.5509 23.2396 39.6908C23.5903 39.8308 23.0792 40.8343 22.8454 40.9042C22.6116 40.9742 22.2879 41.0918 22.0961 40.9742C21.9042 40.8566 21.0559 40.2045 21.3677 39.9246Z" fill="#E50A15"/>
  <path d="M24.5389 38.5593C24.5389 38.5593 26.0826 38.2764 27.0283 37.9071C25.91 38.9458 24.5816 39.7356 23.1316 40.2238L22.9817 39.8263C22.9817 39.8263 23.872 39.0521 24.5389 38.5593Z" fill="#E50A15"/>
  <path d="M22.207 40.8626C22.207 40.8626 21.4771 41.6785 21.2672 42.0998C21.0574 42.5212 21.1174 42.6596 20.984 43.0333C20.8506 43.407 20.4909 43.5232 20.5853 44.0368C20.5853 44.0368 20.7502 43.407 21.3602 43.2671C21.9702 43.1271 23.1691 41.7499 22.7 40.8149L22.207 40.8626Z" fill="#E50A15"/>
  <path d="M22.8125 40.7227L23.2621 40.949C23.2621 40.949 23.367 41.0786 23.7942 41.15C24.5975 41.2855 25.0861 42.6389 25.6931 43.7422C26.3001 44.8454 26.429 45.3025 26.9101 45.5288C26.9101 45.5288 25.9119 45.1268 25.7695 44.9496C25.3649 44.4464 23.0598 44.5476 22.9324 43.0379C22.805 41.5282 22.5592 41.4344 22.5592 41.4344C22.5592 41.4344 22.6596 40.7972 22.8125 40.7227Z" fill="#E50A15"/>
  <mask id="mask3_1723_30319" style="mask-type:alpha" maskUnits="userSpaceOnUse" x="19" y="37" width="9" height="9">
  <path d="M20.4654 39.1002C20.4654 39.1002 21.543 39.6496 22.204 39.9057L21.7633 40.3926C21.7633 40.3926 19.5797 40.1826 19.1016 39.4352L19.4777 39.2164L20.4654 39.1002Z" fill="#E50A15"/>
  <path d="M21.3677 39.9246C21.3677 39.9246 22.8889 39.5509 23.2396 39.6908C23.5903 39.8308 23.0792 40.8343 22.8454 40.9042C22.6116 40.9742 22.2879 41.0918 22.0961 40.9742C21.9042 40.8566 21.0559 40.2045 21.3677 39.9246Z" fill="#E50A15"/>
  <path d="M24.5389 38.5593C24.5389 38.5593 26.0826 38.2764 27.0283 37.9071C25.91 38.9458 24.5816 39.7356 23.1316 40.2238L22.9817 39.8263C22.9817 39.8263 23.872 39.0521 24.5389 38.5593Z" fill="#E50A15"/>
  <path d="M22.207 40.8626C22.207 40.8626 21.4771 41.6785 21.2672 42.0998C21.0574 42.5212 21.1174 42.6596 20.984 43.0333C20.8506 43.407 20.4909 43.5232 20.5853 44.0368C20.5853 44.0368 20.7502 43.407 21.3602 43.2671C21.9702 43.1271 23.1691 41.7499 22.7 40.8149L22.207 40.8626Z" fill="#E50A15"/>
  <path d="M22.8125 40.7227L23.2621 40.949C23.2621 40.949 23.367 41.0786 23.7942 41.15C24.5975 41.2855 25.0861 42.6389 25.6931 43.7422C26.3001 44.8454 26.429 45.3025 26.9101 45.5288C26.9101 45.5288 25.9119 45.1268 25.7695 44.9496C25.3649 44.4464 23.0598 44.5476 22.9324 43.0379C22.805 41.5282 22.5592 41.4344 22.5592 41.4344C22.5592 41.4344 22.6596 40.7972 22.8125 40.7227Z" fill="#E50A15"/>
  </mask>
  <g mask="url(#mask3_1723_30319)">
  <g filter="url(#filter9_f_1723_30319)">
  <path d="M21.4142 40.3501C21.6025 40.619 21.9745 40.9024 22.0957 40.9741C22.1092 40.9821 22.1235 40.9888 22.1385 40.9945C22.1145 41.0033 22.0906 41.0127 22.067 41.0227C21.7674 41.3568 21.4995 41.7176 21.2667 42.1006C21.1402 42.3503 21.1111 42.5009 21.0803 42.6606C21.0593 42.7695 21.0375 42.8826 20.9834 43.0342C20.9369 43.1475 20.8738 43.2533 20.7961 43.3483C20.8261 43.4198 21.3431 43.0729 21.3072 42.455C21.2906 42.1923 21.4366 42.0667 21.5836 41.9403C21.7156 41.8268 21.8484 41.7126 21.8647 41.4977C21.8833 41.2485 22.1777 41.0953 22.439 41.0076C22.571 40.9874 22.7098 40.9452 22.8251 40.9102L22.8451 40.9041C22.8885 40.8874 22.9267 40.8597 22.956 40.8237C22.9021 40.8208 22.8376 40.8193 22.7642 40.8223C21.6821 40.855 22.2066 39.7622 22.2066 39.7622L22.1797 39.7547C21.876 39.809 21.5939 39.8731 21.4573 39.9042C21.4254 39.9114 21.4013 39.9169 21.3868 39.92C21.3846 39.9221 21.3824 39.9243 21.3802 39.9264C20.384 39.8008 19.5189 39.494 20.2691 39.122L19.4777 39.2188L19.1016 39.4377C19.4601 39.9959 20.7775 40.2552 21.4142 40.3501Z" fill="url(#paint9_linear_1723_30319)"/>
  <path d="M25.3273 44.6731C25.1395 44.335 24.7114 44.1877 24.297 44.0451C23.8117 43.8781 23.3451 43.7176 23.3055 43.2646C23.2399 42.716 23.0436 42.1908 22.733 41.7326V41.7475C22.8475 42.1683 22.9174 42.6 22.9413 43.0353C23.0253 44.033 24.0613 44.3277 24.8711 44.5581C25.0437 44.6072 25.2061 44.6534 25.3468 44.7029C25.3411 44.6924 25.3346 44.6825 25.3273 44.6731Z" fill="url(#paint10_linear_1723_30319)"/>
  </g>
  <g filter="url(#filter10_f_1723_30319)">
  <path d="M23.2676 39.8682C23.2979 39.9646 23.314 40.0649 23.3155 40.166C23.8327 39.9855 24.334 39.7629 24.8143 39.5004C24.2627 39.7163 23.6348 39.9173 23.2676 39.8682Z" fill="url(#paint11_linear_1723_30319)"/>
  </g>
  </g>
  <g filter="url(#filter11_f_1723_30319)">
  <path d="M25.3614 38.397C25.3614 38.397 24.6255 38.9703 24.4337 39.2636C24.2418 39.5569 25.4978 38.476 25.6791 38.3077L25.3614 38.397Z" fill="url(#paint12_linear_1723_30319)"/>
  </g>
  <path fill-rule="evenodd" clip-rule="evenodd" d="M28.6345 47.3033C29.7465 47.613 30.5349 47.5936 30.7822 46.343C30.1257 47.0696 29.2085 47.2601 28.6345 47.3033ZM17.2791 47.6536C17.7152 48.7791 18.478 48.6213 19.4987 48.1002C18.3012 48.1568 17.6328 47.8918 17.2791 47.6536Z" fill="#020333"/>
  <path d="M31.7837 35.0012C31.433 34.4876 30.8845 34.6677 30.3689 35.0221C30.4199 35.5328 30.6986 36.0926 31.5679 36.3725C31.6939 36.4131 31.8241 36.4396 31.9561 36.4514C32.0475 35.8558 32.016 35.3392 31.7837 35.0012Z" fill="#020333"/>
  <path d="M16.8846 39.7567L18.2335 40.8987L15.8984 43.0799L14.1719 41.527C14.1719 41.527 15.6361 39.9771 16.8846 39.7567Z" fill="white"/>
  <path d="M16.2388 40.268L17.2909 41.3534L17.5996 41.1003L16.6045 40.067L16.2388 40.268Z" fill="#E50012"/>
  <path d="M15.6082 40.6867L16.6902 41.7884L17.0185 41.5457L15.9394 40.4678L15.6082 40.6867Z" fill="#E50012"/>
  <path d="M15.0249 41.154L16.11 42.2528L16.4187 41.9937L15.3007 40.889L15.0249 41.154Z" fill="#E50012"/>
  <g filter="url(#filter12_di_1723_30319)">
  <path d="M23.2691 23.9806C23.4864 23.9384 23.697 24.0792 23.7395 24.2951C23.786 24.5315 24.0166 24.6856 24.2545 24.6394C24.4925 24.5932 24.6477 24.3642 24.6012 24.1278C24.4657 23.4391 23.7939 22.99 23.1007 23.1246C22.4075 23.2592 21.9553 23.9265 22.0908 24.6152C22.1374 24.8516 22.368 25.0058 22.6059 24.9596C22.8439 24.9133 22.9991 24.6843 22.9526 24.4479C22.9101 24.232 23.0518 24.0228 23.2691 23.9806Z" fill="#020333"/>
  <path d="M18.529 24.9539C18.3935 24.9077 18.2435 24.9368 18.1355 25.0303C18.0275 25.1237 17.9779 25.2673 18.0054 25.4069C18.0519 25.6433 17.8967 25.8724 17.6587 25.9186C17.4208 25.9648 17.1902 25.8107 17.1437 25.5743C17.056 25.1288 17.2143 24.6707 17.5588 24.3726C17.9033 24.0744 18.3818 23.9815 18.814 24.1288C19.2461 24.2762 19.5664 24.6414 19.654 25.0868C19.7005 25.3232 19.5453 25.5523 19.3074 25.5985C19.0694 25.6447 18.8388 25.4906 18.7923 25.2542C18.7648 25.1145 18.6644 25.0001 18.529 24.9539Z" fill="#020333"/>
  <path fill-rule="evenodd" clip-rule="evenodd" d="M29.4315 22.0419C28.5969 20.1195 26.5182 18.9435 24.3517 19.3199C22.5678 19.6299 21.1333 20.9366 20.6601 22.6597C19.6542 21.2407 17.8825 20.4454 16.0475 20.7642C14.192 21.0865 12.7146 22.4874 12.3043 24.3138C12.2448 24.5783 12.2095 24.8443 12.1972 25.1089L9.40588 26.6366C9.15663 26.773 9.0659 27.0843 9.20321 27.3319C9.34053 27.5795 9.65391 27.6697 9.90315 27.5332L12.2831 26.2307C12.5137 27.3724 13.1748 28.4112 14.173 29.1076C15.7145 30.1831 17.7564 30.2302 19.3465 29.227C20.3458 28.5965 21.043 27.6292 21.3426 26.5398C21.6471 26.9704 22.0285 27.3535 22.4782 27.667C24.0208 28.7424 26.0637 28.7887 27.654 27.7842C29.2298 26.7888 30.0537 24.956 29.7515 23.1287L32.6324 23.5821C32.9135 23.6264 33.1774 23.4359 33.2219 23.1567C33.2665 22.8775 33.0747 22.6153 32.7937 22.571L29.4315 22.0419ZM24.5249 20.3038C26.5115 19.9586 28.4039 21.2779 28.7526 23.2511C29.0082 24.6971 28.3616 26.1537 27.1145 26.9414C25.8674 27.7291 24.2654 27.6928 23.0557 26.8495C21.8461 26.0061 21.267 24.5219 21.5886 23.0889C21.9102 21.656 23.0692 20.5567 24.5249 20.3038ZM16.2207 21.748C18.2073 21.4029 20.0994 22.723 20.4469 24.6965C20.7013 26.1419 20.0543 27.5972 18.8075 28.3839C17.5606 29.1705 15.9596 29.1336 14.7508 28.2903C13.5421 27.447 12.9638 25.9634 13.2855 24.5313C13.6072 23.0993 14.7657 22.0007 16.2207 21.748Z" fill="#020333"/>
  </g>
  <path fill-rule="evenodd" clip-rule="evenodd" d="M14.5137 21.8454C14.5412 21.9074 14.5129 21.9799 14.4504 22.0072C14.3888 22.0342 14.2611 22.1297 14.1153 22.2765C13.9732 22.4197 13.8272 22.5983 13.7257 22.7777C13.6922 22.8368 13.6169 22.8578 13.5574 22.8245C13.4979 22.7913 13.4768 22.7164 13.5102 22.6573C13.6254 22.4539 13.7865 22.2581 13.9393 22.1041C14.0886 21.9537 14.2438 21.8293 14.3508 21.7825C14.4132 21.7552 14.4862 21.7833 14.5137 21.8454Z" fill="white"/>
  <path fill-rule="evenodd" clip-rule="evenodd" d="M23.2826 20.2431C23.3026 20.3079 23.2659 20.3766 23.2006 20.3964C23.1363 20.416 22.9981 20.4959 22.8359 20.6246C22.6778 20.7502 22.5117 20.9105 22.3896 21.0768C22.3494 21.1315 22.2721 21.1436 22.2169 21.1036C22.1618 21.0636 22.1497 20.9868 22.1899 20.9321C22.3284 20.7435 22.5115 20.5679 22.6816 20.4328C22.8476 20.301 23.0165 20.1956 23.1283 20.1616C23.1936 20.1418 23.2627 20.1782 23.2826 20.2431Z" fill="white"/>
  <path d="M7.72011 21.7566C6.98723 22.2032 6.64102 22.6201 6.44019 23.3943C6.44019 23.3943 6.83435 22.2553 8.27914 21.9263C8.08431 21.8712 7.89846 21.8161 7.72011 21.7566Z" fill="#020333"/>
  <path d="M10.2063 22.2538C9.49587 22.5918 8.67156 23.8306 8.8574 24.8817C8.8574 24.8817 9.15715 22.8732 11.092 22.2955C10.7878 22.2926 10.491 22.2777 10.2063 22.2538Z" fill="#020333"/>
  <path d="M5.83581 20.8795C5.62544 21.0028 5.44928 21.1763 5.32324 21.3842C5.49915 21.1681 5.75292 21.0287 6.03065 20.9956C5.96321 20.9569 5.89876 20.9182 5.83581 20.8795Z" fill="#020333"/>
  <path d="M33.1568 17.7777C33.9946 17.9817 34.4518 18.269 34.8804 18.942C34.8804 18.942 34.1535 17.9787 32.6772 18.1082C32.8451 17.9981 33.0055 17.8879 33.1568 17.7777Z" fill="#020333"/>
  <path d="M30.9457 19.01C31.7251 19.1142 32.8941 20.0418 33.044 21.0944C33.044 21.0944 32.1298 19.2765 30.1169 19.3078C30.4077 19.2229 30.6805 19.1187 30.9457 19.01Z" fill="#020333"/>
  <path d="M34.6779 16.3664C34.9164 16.4201 35.1378 16.5316 35.3224 16.691C35.0878 16.5405 34.8033 16.487 34.5295 16.5421C34.582 16.4795 34.6315 16.4215 34.6779 16.3664Z" fill="#020333"/>
  <path d="M44 2V64" stroke="#CBD2D8" stroke-dasharray="2 2"/>
  <path d="M76.4915 46.4981C76.1573 47.8038 75.1306 47.5596 73.7368 47.104C75.6702 47.2172 76.4915 46.4981 76.4915 46.4981Z" fill="#231C1D"/>
  <path d="M73.6517 38.92L73.2756 38.4822C72.0181 37.7378 70.909 38.5641 69.22 38.6698C67.5549 38.7741 66.4428 38.4316 65.2933 39.2803L64.9006 39.4679C64.9006 39.4679 59.8738 42.0496 60.0177 44.3067C60.0791 45.2834 61.1073 45.3355 61.5764 45.2134C62.0125 45.1003 62.4217 44.6685 62.7184 44.2739C62.6583 44.688 62.6392 45.1069 62.6615 45.5246C63.0451 51.5962 65.8553 46.5385 69.7056 46.2988C73.5558 46.0591 76.9325 49.9912 76.5998 44.6611C76.5672 44.219 76.4889 43.7814 76.366 43.3553C76.2098 42.866 76.0272 42.3854 75.8189 41.9156C75.5533 41.2946 75.2302 40.6994 74.8537 40.1379C74.5443 39.652 74.1346 39.2369 73.6517 38.92Z" fill="#07BEFF"/>
  <mask id="mask4_1723_30319" style="mask-type:alpha" maskUnits="userSpaceOnUse" x="60" y="38" width="17" height="11">
  <path d="M73.6517 38.92L73.2756 38.4822C72.0181 37.7378 70.909 38.5641 69.22 38.6698C67.5549 38.7741 66.4428 38.4316 65.2933 39.2803L64.9006 39.4679C64.9006 39.4679 59.8738 42.0496 60.0177 44.3067C60.0791 45.2834 61.1073 45.3355 61.5764 45.2134C62.0125 45.1003 62.4217 44.6685 62.7184 44.2739C62.6583 44.688 62.6392 45.1069 62.6615 45.5246C63.0451 51.5962 65.8553 46.5385 69.7056 46.2988C73.5558 46.0591 76.9325 49.9912 76.5998 44.6611C76.5672 44.219 76.4889 43.7814 76.366 43.3553C76.2098 42.866 76.0272 42.3854 75.8189 41.9156C75.5533 41.2946 75.2302 40.6994 74.8537 40.1379C74.5443 39.652 74.1346 39.2369 73.6517 38.92Z" fill="#0CA1DD"/>
  <path d="M73.6517 38.92L73.2756 38.4822C72.0181 37.7378 70.909 38.5641 69.22 38.6698C67.5549 38.7741 66.4428 38.4316 65.2933 39.2803L64.9006 39.4679C64.9006 39.4679 59.8738 42.0496 60.0177 44.3067C60.0791 45.2834 61.1073 45.3355 61.5764 45.2134C62.0125 45.1003 62.4217 44.6685 62.7184 44.2739C62.6583 44.688 62.6392 45.1069 62.6615 45.5246C63.0451 51.5962 65.8553 46.5385 69.7056 46.2988C73.5558 46.0591 76.9325 49.9912 76.5998 44.6611C76.5672 44.219 76.4889 43.7814 76.366 43.3553C76.2098 42.866 76.0272 42.3854 75.8189 41.9156C75.5533 41.2946 75.2302 40.6994 74.8537 40.1379C74.5443 39.652 74.1346 39.2369 73.6517 38.92Z" fill="#07BEFF"/>
  </mask>
  <g mask="url(#mask4_1723_30319)">
  <g filter="url(#filter13_f_1723_30319)">
  <path d="M74.2841 40.357C75.1428 41.6881 75.4336 42.5442 75.5145 43.8231C75.8517 49.1592 73.0686 45.7899 69.2198 46.0296C66.8428 46.1785 65.3081 48.1617 63.075 47.7165C63.9832 50.0049 66.4426 46.5031 69.7009 46.2991C73.5482 46.0579 76.9488 49.9915 76.5951 44.6613C76.4392 42.4146 74.1642 40.1709 74.2841 40.357Z" fill="url(#paint13_linear_1723_30319)"/>
  </g>
  <g filter="url(#filter14_f_1723_30319)">
  <path d="M62.9299 42.9135C62.5072 43.6878 61.9347 44.194 61.0819 44.4143C60.7261 44.5031 60.3503 44.4673 60.0178 44.3131C60.0838 45.2838 61.1074 45.3359 61.5765 45.2064C62.4278 44.986 63.1997 43.454 63.1997 43.454L64.0824 40.9884C64.0824 40.9884 63.351 42.1378 62.9299 42.9135Z" fill="url(#paint14_linear_1723_30319)"/>
  </g>
  <g filter="url(#filter15_f_1723_30319)">
  <path d="M62.6589 45.6041C62.6589 45.6041 68.0679 46.0508 73.7946 44.4577C73.7946 44.4577 67.0937 46.4587 62.7264 46.2339L62.6589 45.6041Z" fill="url(#paint15_linear_1723_30319)"/>
  </g>
  </g>
  <path d="M60.121 43.6066C60.0374 43.8301 60.0007 44.0682 60.0131 44.3063C60.0745 45.283 61.1027 45.3351 61.5718 45.2131C61.7957 45.143 62.0007 45.0234 62.1713 44.8632C60.7205 44.7098 60.2574 43.9341 60.121 43.6066Z" fill="#020333"/>
  <path d="M56.133 26.3175C56.133 26.3175 53.1086 30.8645 51.2231 30.9598C51.2231 30.9598 51.2351 33.3033 53.8355 33.5087C56.4358 33.7142 57.1761 27.0709 56.133 26.3175Z" fill="white"/>
  <path d="M55.6544 27.6759C55.6544 27.6759 53.8559 31.1003 52.5071 31.343C52.5071 31.343 52.7064 32.9629 54.5918 32.8646C56.4772 32.7664 56.4653 28.1003 55.6544 27.6759Z" fill="#0CA1DD"/>
  <path d="M77.5424 22.9734C77.5424 22.9734 81.8288 26.3814 83.6512 25.8931C83.6512 25.8931 84.3647 28.1264 81.9547 29.115C79.5447 30.1036 76.7825 24.0037 77.5424 22.9734Z" fill="white"/>
  <path d="M78.4174 24.1137C78.4174 24.1137 81.1961 26.8264 82.5509 26.6448C82.5509 26.6448 82.8627 28.2483 81.0387 28.7292C79.2147 29.2101 77.7774 24.7598 78.4174 24.1137Z" fill="#0CA1DD"/>
  <path d="M50.4394 19.9775C50.4394 19.9775 54.1773 24.1761 62.4549 21.2743L56.4464 26.3364C56.4464 26.3364 50.1277 25.9463 50.0018 20.372C49.9958 20.3794 49.9793 19.635 50.4394 19.9775Z" fill="#07BEFF"/>
  <path d="M81.2401 15.158C81.2401 15.158 78.983 20.2931 70.2079 20.0609L77.4948 23.0505C77.4948 23.0505 83.3878 20.7487 81.7857 15.4052C81.7857 15.4052 81.5729 14.692 81.2401 15.158Z" fill="#07BEFF"/>
  <path d="M81.2041 27.3401C83.8703 31.7755 82.4031 36.6858 69.0643 38.7746C55.6145 40.8784 52.8179 36.6441 53.9584 31.6087C55.2174 26.0478 58.582 21.3504 66.0982 20.1742C73.6144 18.998 78.256 22.4358 81.2041 27.3401Z" fill="#07BEFF"/>
  <mask id="mask5_1723_30319" style="mask-type:alpha" maskUnits="userSpaceOnUse" x="50" y="15" width="33" height="25">
  <path d="M50.4394 19.9775C50.4394 19.9775 54.1773 24.1761 62.4549 21.2743L56.4464 26.3364C56.4464 26.3364 50.1277 25.9463 50.0018 20.372C49.9958 20.3794 49.9793 19.635 50.4394 19.9775Z" fill="url(#paint16_linear_1723_30319)"/>
  <path d="M81.2401 15.158C81.2401 15.158 78.983 20.2931 70.2079 20.0609L77.4948 23.0505C77.4948 23.0505 83.3878 20.7487 81.7857 15.4052C81.7857 15.4052 81.5729 14.692 81.2401 15.158Z" fill="url(#paint17_linear_1723_30319)"/>
  <path d="M81.2041 27.3401C83.8703 31.7755 82.4031 36.6858 69.0643 38.7746C55.6145 40.8784 52.8179 36.6441 53.9584 31.6087C55.2174 26.0478 58.582 21.3504 66.0982 20.1742C73.6144 18.998 78.256 22.4358 81.2041 27.3401Z" fill="url(#paint18_linear_1723_30319)"/>
  </mask>
  <g mask="url(#mask5_1723_30319)">
  <g filter="url(#filter16_f_1723_30319)">
  <path d="M61.2514 22.0791L57.3727 24.7471C57.3727 24.7471 51.015 24.4255 50.1248 19.9292C49.9899 20.0453 49.9959 20.3758 49.9959 20.3758C50.1278 25.9501 56.4405 26.3402 56.4405 26.3402L62.4489 21.2781C61.4703 21.6175 62.1072 21.9138 61.2514 22.0791Z" fill="url(#paint19_linear_1723_30319)" fill-opacity="0.5"/>
  </g>
  <g filter="url(#filter17_f_1723_30319)">
  <path fill-rule="evenodd" clip-rule="evenodd" d="M81.5789 15.0475C81.6757 15.1484 81.7466 15.271 81.7857 15.4049C83.2577 20.3142 78.403 22.651 77.6043 22.9984C79.0263 24.1988 80.2109 25.6863 81.2047 27.3396C83.871 31.7749 82.4082 36.6852 69.0649 38.7741C55.6227 40.8779 52.826 36.6435 53.9665 31.6022C55.218 26.0413 58.5827 21.3454 66.1064 20.1677C68.0885 19.8575 69.8696 19.8681 71.4718 20.1417C71.6222 20.1422 71.8039 20.1292 72.0858 20.0918L77.0422 21.4839C77.0422 21.4839 82.0465 19.535 81.5789 15.0475ZM70.7277 20.2679C69.2896 20.0634 67.7015 20.0699 66.0599 20.3268C60.4651 21.2022 55.5267 25.6554 56.0633 29.0426C56.5998 32.4298 62.4074 33.4541 68.0023 32.5787C73.5986 31.7032 77.6976 28.252 77.1626 24.8678C77.0065 23.8806 76.4727 23.0084 75.6561 22.2899L70.7277 20.2679Z" fill="url(#paint20_linear_1723_30319)"/>
  </g>
  </g>
  <path d="M81.9463 28.882C81.3138 27.4824 80.4895 24.0893 67.0608 26.1901C54.3799 28.1748 54.0757 31.4532 53.746 33.0195C53.4462 37.3953 56.8933 40.6783 69.0571 38.7755C80.8747 36.9278 83.3776 32.8662 81.9463 28.882Z" fill="white"/>
  <mask id="mask6_1723_30319" style="mask-type:alpha" maskUnits="userSpaceOnUse" x="53" y="25" width="30" height="15">
  <path d="M81.9463 28.882C81.3138 27.4824 80.4895 24.0893 67.0608 26.1901C54.3799 28.1748 54.0757 31.4532 53.746 33.0195C53.4462 37.3953 56.8933 40.6783 69.0571 38.7755C80.8747 36.9278 83.3776 32.8662 81.9463 28.882Z" fill="white"/>
  </mask>
  <g mask="url(#mask6_1723_30319)">
  <g filter="url(#filter18_f_1723_30319)">
  <path d="M81.9463 28.8828C81.5446 27.9895 81.0635 26.2982 77.3227 25.7205C78.6041 26.5334 78.9039 27.6039 79.1586 28.2516C80.4551 32.3206 78.5337 36.3465 68.9102 37.8518C59.0185 39.4017 55.0304 36.9585 55.1368 32.541C55.2312 31.8695 55.3526 30.4655 56.2174 29.4293C53.659 31.3931 53.9498 32.0497 53.746 33.0159C53.4462 37.3917 56.8933 40.6747 69.0571 38.7719C80.8747 36.9287 83.3776 32.8671 81.9463 28.8828Z" fill="url(#paint21_linear_1723_30319)"/>
  </g>
  </g>
  <g filter="url(#filter19_i_1723_30319)">
  <path d="M65.0774 31.0129C64.962 31.7931 63.9414 32.2904 62.7993 32.1236C61.6573 31.9569 60.8225 31.1886 60.9394 30.4085C61.0563 29.6283 62.0739 29.131 63.2175 29.2978C64.361 29.4645 65.1928 30.2358 65.0774 31.0129Z" fill="#F1F6FF"/>
  </g>
  <g filter="url(#filter20_i_1723_30319)">
  <path d="M71.6614 29.9879C72.0121 30.6951 73.1361 30.8574 74.1718 30.3497C75.2074 29.842 75.7634 28.8608 75.4112 28.1491C75.059 27.4374 73.9365 27.2796 72.8993 27.7873C71.8622 28.295 71.3077 29.2807 71.6614 29.9879Z" fill="#F1F6FF"/>
  </g>
  <path d="M75.6679 41.5224C75.6679 41.5224 78.565 36.5094 77.5338 35.0012C76.7515 33.8533 74.941 36.1625 74.941 36.1625C74.941 36.1625 73.5337 37.8375 72.7139 38.3764" fill="#07BEFF"/>
  <path d="M65.0668 39.2343C64.2503 39.5929 63.4631 40.0141 62.7122 40.4939C61.904 41.0495 61.1279 41.6499 60.3877 42.2924C60.7636 43.3138 61.6499 44.0655 62.7242 44.2741C62.7242 44.2741 62.5908 45.2597 62.5309 45.5307C62.4709 45.8017 71.0737 45.8285 76.5636 43.552L75.8577 41.1534L77.1331 40.8557C77.1331 40.8557 77.3834 40.138 76.6086 38.8427C76.0594 37.9808 75.3915 37.1995 74.6243 36.5216C74.6243 36.5216 73.2499 37.7737 72.544 38.0402C72.3297 38.1206 72.1228 38.1593 71.5788 38.338C71.0348 38.5167 71.5338 39.4457 69.1943 39.8075C67.4438 40.077 66.7199 39.3876 66.2972 39.212C66.0215 39.0869 65.3875 39.2894 65.0668 39.2343Z" fill="white"/>
  <path d="M64.9453 39.7195C64.9453 39.7195 69.7653 41.0134 73.4387 38.5418L73.8464 38.8128C73.8464 38.8128 70.3993 41.7474 64.6531 40.0486L64.9453 39.7195Z" fill="#006EB7"/>
  <path d="M64.0179 40.8074C64.0179 40.8074 69.9934 41.9985 74.4746 39.5255L74.8568 39.9126C74.8568 39.9126 70.7397 42.6297 63.6162 41.3255L64.0179 40.8074Z" fill="#006EB7"/>
  <path d="M63.1185 41.955C63.1185 41.955 70.2255 43.17 75.3857 40.5838L75.6855 41.0528C75.6855 41.0528 70.9105 43.8816 62.8982 42.5417L63.1185 41.955Z" fill="#006EB7"/>
  <path d="M62.7967 43.1915C62.7967 43.1915 70.6816 44.1339 75.9706 41.6624L76.0831 42.0897C76.0831 42.0897 71.1492 44.6982 62.7292 43.8168L62.7967 43.1915Z" fill="#006EB7"/>
  <path d="M62.6898 44.5483C62.6898 44.5483 70.8729 44.9146 76.2759 42.6366L76.4122 43.0997C76.4122 43.0997 71.1846 45.4744 62.6118 45.0888L62.6898 44.5483Z" fill="#006EB7"/>
  <path d="M64.4675 39.4986C64.4686 39.6947 64.5321 39.8854 64.6488 40.0436L64.1992 40.5111C64.1992 40.5111 63.9504 39.8813 63.9729 39.7473L64.4675 39.4986Z" fill="#006EB7"/>
  <path d="M63.4753 40.0452C63.4753 40.0452 63.7181 40.7614 63.898 40.9594L63.4918 41.5281C63.4918 41.5281 62.9553 40.4279 62.9777 40.2924L63.4753 40.0452Z" fill="#006EB7"/>
  <path d="M62.4652 40.6911C62.4652 40.6911 62.9148 41.842 63.0991 42.04L62.8189 42.7755C62.8189 42.7755 61.9511 41.1646 61.9736 41.0291C62.1312 40.9077 62.2953 40.7949 62.4652 40.6911Z" fill="#006EB7"/>
  <path d="M61.4385 41.4232C61.4385 41.4232 61.6348 42.3374 62.7963 43.3126L62.7214 43.8813C62.7214 43.8813 61.0923 43.0729 60.9858 41.7761C61.1272 41.6469 61.2785 41.5289 61.4385 41.4232Z" fill="#006EB7"/>
  <path d="M74.3701 36.7463C74.3701 36.7463 76.9809 38.8903 76.861 40.9285L76.4384 41.0328C76.4384 41.0328 76.302 38.6655 73.949 37.0902L74.3701 36.7463Z" fill="#006EB7"/>
  <path d="M73.6609 37.3008C73.6609 37.3008 76.0454 39.549 76.2418 41.0944L75.8641 41.1838C75.8641 41.1838 75.3965 39.2482 73.2383 37.6462L73.6609 37.3008Z" fill="#006EB7"/>
  <path d="M72.771 37.9156C72.771 37.9156 74.511 39.1067 74.9142 40.0446C74.9142 40.0446 73.5113 38.4069 72.3948 38.0957L72.771 37.9156Z" fill="#006EB7"/>
  <path d="M66.2979 39.2016C66.0866 39.1123 65.6669 39.2016 65.3342 39.2344L65.1948 39.3833C65.8908 39.5701 66.6068 39.673 67.3275 39.69C66.8285 39.5366 66.5212 39.2999 66.2979 39.2016Z" fill="#006EB7"/>
  <path d="M72.8096 37.9097C72.724 37.9575 72.6354 37.9997 72.5444 38.0363C72.33 38.1167 72.1232 38.1554 71.5792 38.3341C71.3079 38.4234 71.2989 38.7033 71.0576 39.0055C71.4293 38.876 72.4769 38.4949 72.8141 38.2149C72.988 38.0735 72.931 37.9752 72.8096 37.9097Z" fill="#006EB7"/>
  <g filter="url(#filter21_f_1723_30319)">
  <path d="M71.2026 43.9847C70.6421 42.8532 69.8133 41.4834 69.4146 41.3152C69.0159 41.1469 68.8915 41.0933 68.8915 41.0933L68.6053 40.9355C68.7695 40.7532 68.8953 40.54 68.9755 40.3087C71.2236 39.6328 72.8197 37.934 72.8197 37.934C71.8605 38.2645 70.2614 38.7588 70.2614 38.7588C69.7638 39.0923 69.1463 39.5732 68.8436 39.8129C68.5918 39.7578 68.0433 39.8218 67.6161 39.8888C66.9791 39.5911 66.1683 39.128 66.1683 39.128L65.1762 39.2069L64.7925 39.4109C65.1252 39.9841 66.4246 40.3042 67.0586 40.4174C67.24 40.6695 67.4623 40.8899 67.7165 41.0695H67.7255C67.5082 41.3018 67.0181 41.8378 66.8428 42.1534C66.6135 42.5643 66.6779 42.7073 66.522 43.075C66.3662 43.4428 66.008 43.544 66.0814 44.0607C66.0814 44.0607 66.2717 43.4368 66.8877 43.3162C67.3164 43.2358 68.0537 42.5718 68.3175 41.8527C68.4143 42.2793 68.4646 42.7151 68.4674 43.1524C68.5303 44.6666 70.8369 44.6622 71.2206 45.1818C71.3555 45.3634 72.3357 45.8071 72.3357 45.8071C71.871 45.5733 71.7646 45.1163 71.2026 43.9847Z" fill="#A3070F" fill-opacity="0.5"/>
  </g>
  <path d="M66.2154 39.1002C66.2154 39.1002 67.293 39.6496 67.954 39.9057L67.5133 40.3926C67.5133 40.3926 65.3297 40.1826 64.8516 39.4352L65.2277 39.2164L66.2154 39.1002Z" fill="#E50A15"/>
  <path d="M67.1177 39.9246C67.1177 39.9246 68.6389 39.5509 68.9896 39.6908C69.3403 39.8308 68.8292 40.8343 68.5954 40.9042C68.3616 40.9742 68.0379 41.0918 67.8461 40.9742C67.6542 40.8566 66.8059 40.2045 67.1177 39.9246Z" fill="#E50A15"/>
  <path d="M70.2889 38.5593C70.2889 38.5593 71.8326 38.2764 72.7783 37.9071C71.66 38.9458 70.3316 39.7356 68.8816 40.2238L68.7317 39.8263C68.7317 39.8263 69.622 39.0521 70.2889 38.5593Z" fill="#E50A15"/>
  <path d="M67.957 40.8626C67.957 40.8626 67.2271 41.6785 67.0172 42.0998C66.8074 42.5212 66.8674 42.6596 66.734 43.0333C66.6006 43.407 66.2409 43.5232 66.3353 44.0368C66.3353 44.0368 66.5002 43.407 67.1102 43.2671C67.7202 43.1271 68.9191 41.7499 68.45 40.8149L67.957 40.8626Z" fill="#E50A15"/>
  <path d="M68.5625 40.7227L69.0121 40.949C69.0121 40.949 69.117 41.0786 69.5442 41.15C70.3475 41.2855 70.8361 42.6389 71.4431 43.7422C72.0501 44.8454 72.179 45.3025 72.6601 45.5288C72.6601 45.5288 71.6619 45.1268 71.5195 44.9496C71.1149 44.4464 68.8098 44.5476 68.6824 43.0379C68.555 41.5282 68.3092 41.4344 68.3092 41.4344C68.3092 41.4344 68.4096 40.7972 68.5625 40.7227Z" fill="#E50A15"/>
  <mask id="mask7_1723_30319" style="mask-type:alpha" maskUnits="userSpaceOnUse" x="64" y="37" width="9" height="9">
  <path d="M66.2154 39.1002C66.2154 39.1002 67.293 39.6496 67.954 39.9057L67.5133 40.3926C67.5133 40.3926 65.3297 40.1826 64.8516 39.4352L65.2277 39.2164L66.2154 39.1002Z" fill="#E50A15"/>
  <path d="M67.1177 39.9246C67.1177 39.9246 68.6389 39.5509 68.9896 39.6908C69.3403 39.8308 68.8292 40.8343 68.5954 40.9042C68.3616 40.9742 68.0379 41.0918 67.8461 40.9742C67.6542 40.8566 66.8059 40.2045 67.1177 39.9246Z" fill="#E50A15"/>
  <path d="M70.2889 38.5593C70.2889 38.5593 71.8326 38.2764 72.7783 37.9071C71.66 38.9458 70.3316 39.7356 68.8816 40.2238L68.7317 39.8263C68.7317 39.8263 69.622 39.0521 70.2889 38.5593Z" fill="#E50A15"/>
  <path d="M67.957 40.8626C67.957 40.8626 67.2271 41.6785 67.0172 42.0998C66.8074 42.5212 66.8674 42.6596 66.734 43.0333C66.6006 43.407 66.2409 43.5232 66.3353 44.0368C66.3353 44.0368 66.5002 43.407 67.1102 43.2671C67.7202 43.1271 68.9191 41.7499 68.45 40.8149L67.957 40.8626Z" fill="#E50A15"/>
  <path d="M68.5625 40.7227L69.0121 40.949C69.0121 40.949 69.117 41.0786 69.5442 41.15C70.3475 41.2855 70.8361 42.6389 71.4431 43.7422C72.0501 44.8454 72.179 45.3025 72.6601 45.5288C72.6601 45.5288 71.6619 45.1268 71.5195 44.9496C71.1149 44.4464 68.8098 44.5476 68.6824 43.0379C68.555 41.5282 68.3092 41.4344 68.3092 41.4344C68.3092 41.4344 68.4096 40.7972 68.5625 40.7227Z" fill="#E50A15"/>
  </mask>
  <g mask="url(#mask7_1723_30319)">
  <g filter="url(#filter22_f_1723_30319)">
  <path d="M67.1642 40.3501C67.3525 40.619 67.7245 40.9024 67.8457 40.9741C67.8592 40.9821 67.8735 40.9888 67.8885 40.9945C67.8645 41.0033 67.8406 41.0127 67.817 41.0227C67.5174 41.3568 67.2495 41.7176 67.0167 42.1006C66.8902 42.3503 66.8611 42.5009 66.8303 42.6606C66.8093 42.7695 66.7875 42.8826 66.7334 43.0342C66.6869 43.1475 66.6238 43.2533 66.5461 43.3483C66.5761 43.4198 67.0931 43.0729 67.0572 42.455C67.0406 42.1923 67.1866 42.0667 67.3336 41.9403C67.4656 41.8268 67.5984 41.7126 67.6147 41.4977C67.6333 41.2485 67.9277 41.0953 68.189 41.0076C68.321 40.9874 68.4598 40.9452 68.5751 40.9102L68.5951 40.9041C68.6385 40.8874 68.6767 40.8597 68.706 40.8237C68.6521 40.8208 68.5876 40.8193 68.5142 40.8223C67.4321 40.855 67.9566 39.7622 67.9566 39.7622L67.9297 39.7547C67.626 39.809 67.3439 39.8731 67.2073 39.9042C67.1754 39.9114 67.1513 39.9169 67.1368 39.92C67.1346 39.9221 67.1324 39.9243 67.1302 39.9264C66.134 39.8008 65.2689 39.494 66.0191 39.122L65.2277 39.2188L64.8516 39.4377C65.2101 39.9959 66.5275 40.2552 67.1642 40.3501Z" fill="url(#paint22_linear_1723_30319)"/>
  <path d="M71.0773 44.6731C70.8895 44.335 70.4614 44.1877 70.047 44.0451C69.5617 43.8781 69.0951 43.7176 69.0555 43.2646C68.9899 42.716 68.7936 42.1908 68.483 41.7326V41.7475C68.5975 42.1683 68.6674 42.6 68.6913 43.0353C68.7753 44.033 69.8113 44.3277 70.6211 44.5581C70.7937 44.6072 70.9561 44.6534 71.0968 44.7029C71.0911 44.6924 71.0846 44.6825 71.0773 44.6731Z" fill="url(#paint23_linear_1723_30319)"/>
  </g>
  <g filter="url(#filter23_f_1723_30319)">
  <path d="M69.0176 39.8682C69.0479 39.9646 69.064 40.0649 69.0655 40.166C69.5827 39.9855 70.084 39.7629 70.5643 39.5004C70.0127 39.7163 69.3848 39.9173 69.0176 39.8682Z" fill="url(#paint24_linear_1723_30319)"/>
  </g>
  </g>
  <g filter="url(#filter24_f_1723_30319)">
  <path d="M71.1114 38.397C71.1114 38.397 70.3755 38.9703 70.1837 39.2636C69.9918 39.5569 71.2478 38.476 71.4291 38.3077L71.1114 38.397Z" fill="url(#paint25_linear_1723_30319)"/>
  </g>
  <path fill-rule="evenodd" clip-rule="evenodd" d="M74.3845 47.3033C75.4965 47.613 76.2849 47.5936 76.5322 46.343C75.8757 47.0696 74.9585 47.2601 74.3845 47.3033ZM63.0291 47.6536C63.4652 48.7791 64.228 48.6213 65.2487 48.1002C64.0512 48.1568 63.3828 47.8918 63.0291 47.6536Z" fill="#020333"/>
  <path d="M77.5337 35.0012C77.183 34.4876 76.6345 34.6677 76.1189 35.0221C76.1699 35.5328 76.4486 36.0926 77.3179 36.3725C77.4439 36.4131 77.5741 36.4396 77.7061 36.4514C77.7975 35.8558 77.766 35.3392 77.5337 35.0012Z" fill="#020333"/>
  <path d="M62.6346 39.7567L63.9835 40.8987L61.6484 43.0799L59.9219 41.527C59.9219 41.527 61.3861 39.9771 62.6346 39.7567Z" fill="white"/>
  <path d="M61.9888 40.268L63.0409 41.3534L63.3496 41.1003L62.3545 40.067L61.9888 40.268Z" fill="#E50012"/>
  <path d="M61.3582 40.6867L62.4402 41.7884L62.7685 41.5457L61.6894 40.4678L61.3582 40.6867Z" fill="#E50012"/>
  <path d="M60.7749 41.154L61.86 42.2528L62.1687 41.9937L61.0507 40.889L60.7749 41.154Z" fill="#E50012"/>
  <g filter="url(#filter25_di_1723_30319)">
  <path d="M69.0191 23.9806C69.2364 23.9384 69.447 24.0792 69.4895 24.2951C69.536 24.5315 69.7666 24.6856 70.0045 24.6394C70.2425 24.5932 70.3977 24.3642 70.3512 24.1278C70.2157 23.4391 69.5439 22.99 68.8507 23.1246C68.1575 23.2592 67.7053 23.9265 67.8408 24.6152C67.8874 24.8516 68.118 25.0058 68.3559 24.9596C68.5939 24.9133 68.7491 24.6843 68.7026 24.4479C68.6601 24.232 68.8018 24.0228 69.0191 23.9806Z" fill="#020333"/>
  <path d="M64.279 24.9539C64.1435 24.9077 63.9935 24.9368 63.8855 25.0303C63.7775 25.1237 63.7279 25.2673 63.7554 25.4069C63.8019 25.6433 63.6467 25.8724 63.4087 25.9186C63.1708 25.9648 62.9402 25.8107 62.8937 25.5743C62.806 25.1288 62.9643 24.6707 63.3088 24.3726C63.6533 24.0744 64.1318 23.9815 64.564 24.1288C64.9961 24.2762 65.3164 24.6414 65.404 25.0868C65.4505 25.3232 65.2953 25.5523 65.0574 25.5985C64.8194 25.6447 64.5888 25.4906 64.5423 25.2542C64.5148 25.1145 64.4144 25.0001 64.279 24.9539Z" fill="#020333"/>
  <path fill-rule="evenodd" clip-rule="evenodd" d="M75.1815 22.0419C74.3469 20.1195 72.2682 18.9435 70.1017 19.3199C68.3178 19.6299 66.8833 20.9366 66.4101 22.6597C65.4042 21.2407 63.6325 20.4454 61.7975 20.7642C59.942 21.0865 58.4646 22.4874 58.0543 24.3138C57.9948 24.5783 57.9595 24.8443 57.9472 25.1089L55.1559 26.6366C54.9066 26.773 54.8159 27.0843 54.9532 27.3319C55.0905 27.5795 55.4039 27.6697 55.6532 27.5332L58.0331 26.2307C58.2637 27.3724 58.9248 28.4112 59.923 29.1076C61.4645 30.1831 63.5064 30.2302 65.0965 29.227C66.0958 28.5965 66.793 27.6292 67.0926 26.5398C67.3971 26.9704 67.7785 27.3535 68.2282 27.667C69.7708 28.7424 71.8137 28.7887 73.404 27.7842C74.9798 26.7888 75.8037 24.956 75.5015 23.1287L78.3824 23.5821C78.6635 23.6264 78.9274 23.4359 78.9719 23.1567C79.0165 22.8775 78.8247 22.6153 78.5437 22.571L75.1815 22.0419ZM70.2749 20.3038C72.2615 19.9586 74.1539 21.2779 74.5026 23.2511C74.7582 24.6971 74.1116 26.1537 72.8645 26.9414C71.6174 27.7291 70.0154 27.6928 68.8057 26.8495C67.5961 26.0061 67.017 24.5219 67.3386 23.0889C67.6602 21.656 68.8192 20.5567 70.2749 20.3038ZM61.9707 21.748C63.9573 21.4029 65.8494 22.723 66.1969 24.6965C66.4513 26.1419 65.8043 27.5972 64.5575 28.3839C63.3106 29.1705 61.7096 29.1336 60.5008 28.2903C59.2921 27.447 58.7138 25.9634 59.0355 24.5313C59.3572 23.0993 60.5157 22.0007 61.9707 21.748Z" fill="#020333"/>
  </g>
  <path fill-rule="evenodd" clip-rule="evenodd" d="M60.2637 21.8454C60.2912 21.9074 60.2629 21.9799 60.2004 22.0072C60.1388 22.0342 60.0111 22.1297 59.8653 22.2765C59.7232 22.4197 59.5772 22.5983 59.4757 22.7777C59.4422 22.8368 59.3669 22.8578 59.3074 22.8245C59.2479 22.7913 59.2268 22.7164 59.2602 22.6573C59.3754 22.4539 59.5365 22.2581 59.6893 22.1041C59.8386 21.9537 59.9938 21.8293 60.1008 21.7825C60.1632 21.7552 60.2362 21.7833 60.2637 21.8454Z" fill="white"/>
  <path fill-rule="evenodd" clip-rule="evenodd" d="M69.0326 20.2431C69.0526 20.3079 69.0159 20.3766 68.9506 20.3964C68.8863 20.416 68.7481 20.4959 68.5859 20.6246C68.4278 20.7502 68.2617 20.9105 68.1396 21.0768C68.0994 21.1315 68.0221 21.1436 67.9669 21.1036C67.9118 21.0636 67.8997 20.9868 67.9399 20.9321C68.0784 20.7435 68.2615 20.5679 68.4316 20.4328C68.5976 20.301 68.7665 20.1956 68.8783 20.1616C68.9436 20.1418 69.0127 20.1782 69.0326 20.2431Z" fill="white"/>
  <path d="M53.4701 21.7566C52.7372 22.2032 52.391 22.6201 52.1902 23.3943C52.1902 23.3943 52.5844 22.2553 54.0291 21.9263C53.8343 21.8712 53.6485 21.8161 53.4701 21.7566Z" fill="#020333"/>
  <path d="M55.9563 22.2538C55.2459 22.5918 54.4216 23.8306 54.6074 24.8817C54.6074 24.8817 54.9072 22.8732 56.842 22.2955C56.5378 22.2926 56.241 22.2777 55.9563 22.2538Z" fill="#020333"/>
  <path d="M51.5858 20.8795C51.3754 21.0028 51.1993 21.1763 51.0732 21.3842C51.2491 21.1681 51.5029 21.0287 51.7806 20.9956C51.7132 20.9569 51.6488 20.9182 51.5858 20.8795Z" fill="#020333"/>
  <path d="M78.9068 17.7777C79.7446 17.9817 80.2018 18.269 80.6304 18.942C80.6304 18.942 79.9035 17.9787 78.4272 18.1082C78.5951 17.9981 78.7555 17.8879 78.9068 17.7777Z" fill="#020333"/>
  <path d="M76.6957 19.01C77.4751 19.1142 78.6441 20.0418 78.794 21.0944C78.794 21.0944 77.8798 19.2765 75.8669 19.3078C76.1577 19.2229 76.4305 19.1187 76.6957 19.01Z" fill="#020333"/>
  <path d="M80.4279 16.3664C80.6664 16.4201 80.8878 16.5316 81.0724 16.691C80.8378 16.5405 80.5533 16.487 80.2795 16.5421C80.332 16.4795 80.3815 16.4215 80.4279 16.3664Z" fill="#020333"/>
  <defs>
  <filter id="filter0_f_1723_30319" x="12.3384" y="35.3597" width="23.5185" height="18.1163" filterUnits="userSpaceOnUse" color-interpolation-filters="sRGB">
  <feFlood flood-opacity="0" result="BackgroundImageFix"/>
  <feBlend mode="normal" in="SourceGraphic" in2="BackgroundImageFix" result="shape"/>
  <feGaussianBlur stdDeviation="2.49327" result="effect1_foregroundBlur_1723_30319"/>
  </filter>
  <filter id="filter1_f_1723_30319" x="8.8108" y="35.5314" width="14.9787" height="15.1837" filterUnits="userSpaceOnUse" color-interpolation-filters="sRGB">
  <feFlood flood-opacity="0" result="BackgroundImageFix"/>
  <feBlend mode="normal" in="SourceGraphic" in2="BackgroundImageFix" result="shape"/>
  <feGaussianBlur stdDeviation="2.72851" result="effect1_foregroundBlur_1723_30319"/>
  </filter>
  <filter id="filter2_f_1723_30319" x="11.9224" y="39.4711" width="21.1088" height="11.7669" filterUnits="userSpaceOnUse" color-interpolation-filters="sRGB">
  <feFlood flood-opacity="0" result="BackgroundImageFix"/>
  <feBlend mode="normal" in="SourceGraphic" in2="BackgroundImageFix" result="shape"/>
  <feGaussianBlur stdDeviation="2.49327" result="effect1_foregroundBlur_1723_30319"/>
  </filter>
  <filter id="filter3_f_1723_30319" x="-1.21117" y="14.4721" width="23.3672" height="17.3251" filterUnits="userSpaceOnUse" color-interpolation-filters="sRGB">
  <feFlood flood-opacity="0" result="BackgroundImageFix"/>
  <feBlend mode="normal" in="SourceGraphic" in2="BackgroundImageFix" result="shape"/>
  <feGaussianBlur stdDeviation="2.72851" result="effect1_foregroundBlur_1723_30319"/>
  </filter>
  <filter id="filter4_f_1723_30319" x="2.52906" y="9.59052" width="39.4888" height="35.1928" filterUnits="userSpaceOnUse" color-interpolation-filters="sRGB">
  <feFlood flood-opacity="0" result="BackgroundImageFix"/>
  <feBlend mode="normal" in="SourceGraphic" in2="BackgroundImageFix" result="shape"/>
  <feGaussianBlur stdDeviation="2.72851" result="effect1_foregroundBlur_1723_30319"/>
  </filter>
  <filter id="filter5_f_1723_30319" x="2.52125" y="20.2635" width="39.4951" height="24.5176" filterUnits="userSpaceOnUse" color-interpolation-filters="sRGB">
  <feFlood flood-opacity="0" result="BackgroundImageFix"/>
  <feBlend mode="normal" in="SourceGraphic" in2="BackgroundImageFix" result="shape"/>
  <feGaussianBlur stdDeviation="2.72851" result="effect1_foregroundBlur_1723_30319"/>
  </filter>
  <filter id="filter6_i_1723_30319" x="15.1785" y="29.2656" width="4.15967" height="8.34731" filterUnits="userSpaceOnUse" color-interpolation-filters="sRGB">
  <feFlood flood-opacity="0" result="BackgroundImageFix"/>
  <feBlend mode="normal" in="SourceGraphic" in2="BackgroundImageFix" result="shape"/>
  <feColorMatrix in="SourceAlpha" type="matrix" values="0 0 0 0 0 0 0 0 0 0 0 0 0 0 0 0 0 0 127 0" result="hardAlpha"/>
  <feOffset dy="5.45702"/>
  <feGaussianBlur stdDeviation="2.72851"/>
  <feComposite in2="hardAlpha" operator="arithmetic" k2="-1" k3="1"/>
  <feColorMatrix type="matrix" values="0 0 0 0 0.803922 0 0 0 0 0.85098 0 0 0 0 0.945098 0 0 0 0.4 0"/>
  <feBlend mode="normal" in2="shape" result="effect1_innerShadow_1723_30319"/>
  </filter>
  <filter id="filter7_i_1723_30319" x="25.8047" y="27.4903" width="3.9624" height="8.61208" filterUnits="userSpaceOnUse" color-interpolation-filters="sRGB">
  <feFlood flood-opacity="0" result="BackgroundImageFix"/>
  <feBlend mode="normal" in="SourceGraphic" in2="BackgroundImageFix" result="shape"/>
  <feColorMatrix in="SourceAlpha" type="matrix" values="0 0 0 0 0 0 0 0 0 0 0 0 0 0 0 0 0 0 127 0" result="hardAlpha"/>
  <feOffset dy="5.45702"/>
  <feGaussianBlur stdDeviation="2.72851"/>
  <feComposite in2="hardAlpha" operator="arithmetic" k2="-1" k3="1"/>
  <feColorMatrix type="matrix" values="0 0 0 0 0.803922 0 0 0 0 0.85098 0 0 0 0 0.945098 0 0 0 0.4 0"/>
  <feBlend mode="normal" in2="shape" result="effect1_innerShadow_1723_30319"/>
  </filter>
  <filter id="filter8_f_1723_30319" x="13.5855" y="32.4769" width="18.9414" height="18.7872" filterUnits="userSpaceOnUse" color-interpolation-filters="sRGB">
  <feFlood flood-opacity="0" result="BackgroundImageFix"/>
  <feBlend mode="normal" in="SourceGraphic" in2="BackgroundImageFix" result="shape"/>
  <feGaussianBlur stdDeviation="2.72851" result="effect1_foregroundBlur_1723_30319"/>
  </filter>
  <filter id="filter9_f_1723_30319" x="16.3731" y="36.3935" width="11.7021" height="11.0379" filterUnits="userSpaceOnUse" color-interpolation-filters="sRGB">
  <feFlood flood-opacity="0" result="BackgroundImageFix"/>
  <feBlend mode="normal" in="SourceGraphic" in2="BackgroundImageFix" result="shape"/>
  <feGaussianBlur stdDeviation="1.36426" result="effect1_foregroundBlur_1723_30319"/>
  </filter>
  <filter id="filter10_f_1723_30319" x="20.5391" y="36.7719" width="7.00365" height="6.12255" filterUnits="userSpaceOnUse" color-interpolation-filters="sRGB">
  <feFlood flood-opacity="0" result="BackgroundImageFix"/>
  <feBlend mode="normal" in="SourceGraphic" in2="BackgroundImageFix" result="shape"/>
  <feGaussianBlur stdDeviation="1.36426" result="effect1_foregroundBlur_1723_30319"/>
  </filter>
  <filter id="filter11_f_1723_30319" x="21.6853" y="35.5792" width="6.7224" height="6.46307" filterUnits="userSpaceOnUse" color-interpolation-filters="sRGB">
  <feFlood flood-opacity="0" result="BackgroundImageFix"/>
  <feBlend mode="normal" in="SourceGraphic" in2="BackgroundImageFix" result="shape"/>
  <feGaussianBlur stdDeviation="1.36426" result="effect1_foregroundBlur_1723_30319"/>
  </filter>
  <filter id="filter12_di_1723_30319" x="4.15263" y="19.25" width="34.0622" height="20.6712" filterUnits="userSpaceOnUse" color-interpolation-filters="sRGB">
  <feFlood flood-opacity="0" result="BackgroundImageFix"/>
  <feColorMatrix in="SourceAlpha" type="matrix" values="0 0 0 0 0 0 0 0 0 0 0 0 0 0 0 0 0 0 127 0" result="hardAlpha"/>
  <feOffset dy="4.98653"/>
  <feGaussianBlur stdDeviation="2.49327"/>
  <feComposite in2="hardAlpha" operator="out"/>
  <feColorMatrix type="matrix" values="0 0 0 0 0 0 0 0 0 0 0 0 0 0 0 0 0 0 0.1 0"/>
  <feBlend mode="normal" in2="BackgroundImageFix" result="effect1_dropShadow_1723_30319"/>
  <feBlend mode="normal" in="SourceGraphic" in2="effect1_dropShadow_1723_30319" result="shape"/>
  <feColorMatrix in="SourceAlpha" type="matrix" values="0 0 0 0 0 0 0 0 0 0 0 0 0 0 0 0 0 0 127 0" result="hardAlpha"/>
  <feOffset dy="4.98653"/>
  <feComposite in2="hardAlpha" operator="arithmetic" k2="-1" k3="1"/>
  <feColorMatrix type="matrix" values="0 0 0 0 0.642205 0 0 0 0 0.642205 0 0 0 0 0.642205 0 0 0 0.09 0"/>
  <feBlend mode="normal" in2="shape" result="effect2_innerShadow_1723_30319"/>
  </filter>
  <filter id="filter13_f_1723_30319" x="58.0884" y="35.3597" width="23.5185" height="18.1163" filterUnits="userSpaceOnUse" color-interpolation-filters="sRGB">
  <feFlood flood-opacity="0" result="BackgroundImageFix"/>
  <feBlend mode="normal" in="SourceGraphic" in2="BackgroundImageFix" result="shape"/>
  <feGaussianBlur stdDeviation="2.49327" result="effect1_foregroundBlur_1723_30319"/>
  </filter>
  <filter id="filter14_f_1723_30319" x="54.5608" y="35.5314" width="14.9787" height="15.1837" filterUnits="userSpaceOnUse" color-interpolation-filters="sRGB">
  <feFlood flood-opacity="0" result="BackgroundImageFix"/>
  <feBlend mode="normal" in="SourceGraphic" in2="BackgroundImageFix" result="shape"/>
  <feGaussianBlur stdDeviation="2.72851" result="effect1_foregroundBlur_1723_30319"/>
  </filter>
  <filter id="filter15_f_1723_30319" x="57.6724" y="39.4711" width="21.1088" height="11.7669" filterUnits="userSpaceOnUse" color-interpolation-filters="sRGB">
  <feFlood flood-opacity="0" result="BackgroundImageFix"/>
  <feBlend mode="normal" in="SourceGraphic" in2="BackgroundImageFix" result="shape"/>
  <feGaussianBlur stdDeviation="2.49327" result="effect1_foregroundBlur_1723_30319"/>
  </filter>
  <filter id="filter16_f_1723_30319" x="44.5388" y="14.4721" width="23.3672" height="17.3251" filterUnits="userSpaceOnUse" color-interpolation-filters="sRGB">
  <feFlood flood-opacity="0" result="BackgroundImageFix"/>
  <feBlend mode="normal" in="SourceGraphic" in2="BackgroundImageFix" result="shape"/>
  <feGaussianBlur stdDeviation="2.72851" result="effect1_foregroundBlur_1723_30319"/>
  </filter>
  <filter id="filter17_f_1723_30319" x="48.2791" y="9.59052" width="39.4888" height="35.1928" filterUnits="userSpaceOnUse" color-interpolation-filters="sRGB">
  <feFlood flood-opacity="0" result="BackgroundImageFix"/>
  <feBlend mode="normal" in="SourceGraphic" in2="BackgroundImageFix" result="shape"/>
  <feGaussianBlur stdDeviation="2.72851" result="effect1_foregroundBlur_1723_30319"/>
  </filter>
  <filter id="filter18_f_1723_30319" x="48.2712" y="20.2635" width="39.4951" height="24.5176" filterUnits="userSpaceOnUse" color-interpolation-filters="sRGB">
  <feFlood flood-opacity="0" result="BackgroundImageFix"/>
  <feBlend mode="normal" in="SourceGraphic" in2="BackgroundImageFix" result="shape"/>
  <feGaussianBlur stdDeviation="2.72851" result="effect1_foregroundBlur_1723_30319"/>
  </filter>
  <filter id="filter19_i_1723_30319" x="60.9285" y="29.2656" width="4.15967" height="8.34731" filterUnits="userSpaceOnUse" color-interpolation-filters="sRGB">
  <feFlood flood-opacity="0" result="BackgroundImageFix"/>
  <feBlend mode="normal" in="SourceGraphic" in2="BackgroundImageFix" result="shape"/>
  <feColorMatrix in="SourceAlpha" type="matrix" values="0 0 0 0 0 0 0 0 0 0 0 0 0 0 0 0 0 0 127 0" result="hardAlpha"/>
  <feOffset dy="5.45702"/>
  <feGaussianBlur stdDeviation="2.72851"/>
  <feComposite in2="hardAlpha" operator="arithmetic" k2="-1" k3="1"/>
  <feColorMatrix type="matrix" values="0 0 0 0 0.803922 0 0 0 0 0.85098 0 0 0 0 0.945098 0 0 0 0.4 0"/>
  <feBlend mode="normal" in2="shape" result="effect1_innerShadow_1723_30319"/>
  </filter>
  <filter id="filter20_i_1723_30319" x="71.5547" y="27.4903" width="3.9624" height="8.61208" filterUnits="userSpaceOnUse" color-interpolation-filters="sRGB">
  <feFlood flood-opacity="0" result="BackgroundImageFix"/>
  <feBlend mode="normal" in="SourceGraphic" in2="BackgroundImageFix" result="shape"/>
  <feColorMatrix in="SourceAlpha" type="matrix" values="0 0 0 0 0 0 0 0 0 0 0 0 0 0 0 0 0 0 127 0" result="hardAlpha"/>
  <feOffset dy="5.45702"/>
  <feGaussianBlur stdDeviation="2.72851"/>
  <feComposite in2="hardAlpha" operator="arithmetic" k2="-1" k3="1"/>
  <feColorMatrix type="matrix" values="0 0 0 0 0.803922 0 0 0 0 0.85098 0 0 0 0 0.945098 0 0 0 0.4 0"/>
  <feBlend mode="normal" in2="shape" result="effect1_innerShadow_1723_30319"/>
  </filter>
  <filter id="filter21_f_1723_30319" x="59.3355" y="32.4769" width="18.9414" height="18.7872" filterUnits="userSpaceOnUse" color-interpolation-filters="sRGB">
  <feFlood flood-opacity="0" result="BackgroundImageFix"/>
  <feBlend mode="normal" in="SourceGraphic" in2="BackgroundImageFix" result="shape"/>
  <feGaussianBlur stdDeviation="2.72851" result="effect1_foregroundBlur_1723_30319"/>
  </filter>
  <filter id="filter22_f_1723_30319" x="62.1231" y="36.3935" width="11.7021" height="11.0379" filterUnits="userSpaceOnUse" color-interpolation-filters="sRGB">
  <feFlood flood-opacity="0" result="BackgroundImageFix"/>
  <feBlend mode="normal" in="SourceGraphic" in2="BackgroundImageFix" result="shape"/>
  <feGaussianBlur stdDeviation="1.36426" result="effect1_foregroundBlur_1723_30319"/>
  </filter>
  <filter id="filter23_f_1723_30319" x="66.2891" y="36.7719" width="7.00365" height="6.12255" filterUnits="userSpaceOnUse" color-interpolation-filters="sRGB">
  <feFlood flood-opacity="0" result="BackgroundImageFix"/>
  <feBlend mode="normal" in="SourceGraphic" in2="BackgroundImageFix" result="shape"/>
  <feGaussianBlur stdDeviation="1.36426" result="effect1_foregroundBlur_1723_30319"/>
  </filter>
  <filter id="filter24_f_1723_30319" x="67.4353" y="35.5792" width="6.7224" height="6.46307" filterUnits="userSpaceOnUse" color-interpolation-filters="sRGB">
  <feFlood flood-opacity="0" result="BackgroundImageFix"/>
  <feBlend mode="normal" in="SourceGraphic" in2="BackgroundImageFix" result="shape"/>
  <feGaussianBlur stdDeviation="1.36426" result="effect1_foregroundBlur_1723_30319"/>
  </filter>
  <filter id="filter25_di_1723_30319" x="49.9026" y="19.25" width="34.0622" height="20.6712" filterUnits="userSpaceOnUse" color-interpolation-filters="sRGB">
  <feFlood flood-opacity="0" result="BackgroundImageFix"/>
  <feColorMatrix in="SourceAlpha" type="matrix" values="0 0 0 0 0 0 0 0 0 0 0 0 0 0 0 0 0 0 127 0" result="hardAlpha"/>
  <feOffset dy="4.98653"/>
  <feGaussianBlur stdDeviation="2.49327"/>
  <feComposite in2="hardAlpha" operator="out"/>
  <feColorMatrix type="matrix" values="0 0 0 0 0 0 0 0 0 0 0 0 0 0 0 0 0 0 0.1 0"/>
  <feBlend mode="normal" in2="BackgroundImageFix" result="effect1_dropShadow_1723_30319"/>
  <feBlend mode="normal" in="SourceGraphic" in2="effect1_dropShadow_1723_30319" result="shape"/>
  <feColorMatrix in="SourceAlpha" type="matrix" values="0 0 0 0 0 0 0 0 0 0 0 0 0 0 0 0 0 0 127 0" result="hardAlpha"/>
  <feOffset dy="4.98653"/>
  <feComposite in2="hardAlpha" operator="arithmetic" k2="-1" k3="1"/>
  <feColorMatrix type="matrix" values="0 0 0 0 0.642205 0 0 0 0 0.642205 0 0 0 0 0.642205 0 0 0 0.09 0"/>
  <feBlend mode="normal" in2="shape" result="effect2_innerShadow_1723_30319"/>
  </filter>
  <linearGradient id="paint0_linear_1723_30319" x1="30.9133" y1="43.0291" x2="17.322" y2="47.0794" gradientUnits="userSpaceOnUse">
  <stop stop-color="#0B77C5" stop-opacity="0.81"/>
  <stop offset="0.940905" stop-color="#0B77C5"/>
  </linearGradient>
  <linearGradient id="paint1_linear_1723_30319" x1="18.3453" y1="42.3951" x2="14.0303" y2="43.1311" gradientUnits="userSpaceOnUse">
  <stop stop-color="#0B77C5"/>
  <stop offset="0.526332" stop-color="#0B84CC"/>
  <stop offset="0.988259" stop-color="#0B63CB"/>
  </linearGradient>
  <linearGradient id="paint2_linear_1723_30319" x1="28.0798" y1="45.0487" x2="22.6412" y2="51.0973" gradientUnits="userSpaceOnUse">
  <stop stop-color="#0B77C5"/>
  <stop offset="0.940905" stop-color="#0B77C5"/>
  </linearGradient>
  <linearGradient id="paint3_linear_1723_30319" x1="18.5401" y1="22.7259" x2="22.3255" y2="38.8767" gradientUnits="userSpaceOnUse">
  <stop stop-color="#36C1F9"/>
  <stop offset="1" stop-color="#0CA1DD"/>
  </linearGradient>
  <linearGradient id="paint4_linear_1723_30319" x1="21.9626" y1="24.6349" x2="25.8245" y2="37.6591" gradientUnits="userSpaceOnUse">
  <stop stop-color="#1FB3EF"/>
  <stop offset="1" stop-color="#0CA1DD"/>
  </linearGradient>
  <linearGradient id="paint5_linear_1723_30319" x1="20.7377" y1="19.9423" x2="24.0738" y2="39.3346" gradientUnits="userSpaceOnUse">
  <stop stop-color="#15B0EF"/>
  <stop offset="1" stop-color="#0CA1DD"/>
  </linearGradient>
  <linearGradient id="paint6_linear_1723_30319" x1="16.7384" y1="22.0414" x2="4.26496" y2="23.3668" gradientUnits="userSpaceOnUse">
  <stop stop-color="#0B77C5"/>
  <stop offset="0.11208" stop-color="#1D9FDC"/>
  <stop offset="0.246758" stop-color="#0889DD"/>
  <stop offset="1" stop-color="#088ADD"/>
  </linearGradient>
  <linearGradient id="paint7_linear_1723_30319" x1="36.6512" y1="23.0466" x2="7.82627" y2="24.9024" gradientUnits="userSpaceOnUse">
  <stop offset="0.0162613" stop-color="#0B77C5"/>
  <stop offset="0.11208" stop-color="#1D9FDC"/>
  <stop offset="0.246758" stop-color="#0889DD"/>
  <stop offset="0.758052" stop-color="#0B90C5"/>
  <stop offset="1" stop-color="#088ADD"/>
  </linearGradient>
  <linearGradient id="paint8_linear_1723_30319" x1="36.6498" y1="30.2024" x2="8.07634" y2="33.4863" gradientUnits="userSpaceOnUse">
  <stop stop-color="#F4F6FE"/>
  <stop offset="0.11208" stop-color="#D2DFFD"/>
  <stop offset="0.246758" stop-color="white"/>
  <stop offset="0.758052" stop-color="#CBD8F1"/>
  <stop offset="1" stop-color="#E5ECFF"/>
  </linearGradient>
  <linearGradient id="paint9_linear_1723_30319" x1="20.1895" y1="39.5903" x2="21.5625" y2="44.8748" gradientUnits="userSpaceOnUse">
  <stop stop-color="#C71019"/>
  <stop offset="0.277822" stop-color="#BA0D15"/>
  <stop offset="1" stop-color="#99040B"/>
  </linearGradient>
  <linearGradient id="paint10_linear_1723_30319" x1="20.1895" y1="39.5903" x2="21.5625" y2="44.8748" gradientUnits="userSpaceOnUse">
  <stop stop-color="#C71019"/>
  <stop offset="0.277822" stop-color="#BA0D15"/>
  <stop offset="1" stop-color="#99040B"/>
  </linearGradient>
  <linearGradient id="paint11_linear_1723_30319" x1="23.537" y1="39.5563" x2="23.6199" y2="40.2186" gradientUnits="userSpaceOnUse">
  <stop stop-color="#C71019"/>
  <stop offset="0.277822" stop-color="#BA0D15"/>
  <stop offset="1" stop-color="#99040B"/>
  </linearGradient>
  <linearGradient id="paint12_linear_1723_30319" x1="24.6342" y1="38.3921" x2="24.8574" y2="39.3575" gradientUnits="userSpaceOnUse">
  <stop stop-color="#C71019"/>
  <stop offset="0.277822" stop-color="#BA0D15"/>
  <stop offset="1" stop-color="#99040B"/>
  </linearGradient>
  <linearGradient id="paint13_linear_1723_30319" x1="76.6633" y1="43.0291" x2="63.072" y2="47.0794" gradientUnits="userSpaceOnUse">
  <stop stop-color="#0B77C5" stop-opacity="0.81"/>
  <stop offset="0.940905" stop-color="#0B77C5"/>
  </linearGradient>
  <linearGradient id="paint14_linear_1723_30319" x1="64.0953" y1="42.3951" x2="59.7803" y2="43.1311" gradientUnits="userSpaceOnUse">
  <stop stop-color="#0B77C5"/>
  <stop offset="0.526332" stop-color="#0B84CC"/>
  <stop offset="0.988259" stop-color="#0B63CB"/>
  </linearGradient>
  <linearGradient id="paint15_linear_1723_30319" x1="73.8298" y1="45.0487" x2="68.3912" y2="51.0973" gradientUnits="userSpaceOnUse">
  <stop stop-color="#0B77C5"/>
  <stop offset="0.940905" stop-color="#0B77C5"/>
  </linearGradient>
  <linearGradient id="paint16_linear_1723_30319" x1="64.2901" y1="22.7259" x2="68.0755" y2="38.8767" gradientUnits="userSpaceOnUse">
  <stop stop-color="#36C1F9"/>
  <stop offset="1" stop-color="#0CA1DD"/>
  </linearGradient>
  <linearGradient id="paint17_linear_1723_30319" x1="67.7126" y1="24.6349" x2="71.5745" y2="37.6591" gradientUnits="userSpaceOnUse">
  <stop stop-color="#1FB3EF"/>
  <stop offset="1" stop-color="#0CA1DD"/>
  </linearGradient>
  <linearGradient id="paint18_linear_1723_30319" x1="66.4877" y1="19.9423" x2="69.8238" y2="39.3346" gradientUnits="userSpaceOnUse">
  <stop stop-color="#15B0EF"/>
  <stop offset="1" stop-color="#0CA1DD"/>
  </linearGradient>
  <linearGradient id="paint19_linear_1723_30319" x1="62.4884" y1="22.0414" x2="50.015" y2="23.3668" gradientUnits="userSpaceOnUse">
  <stop stop-color="#0B77C5"/>
  <stop offset="0.11208" stop-color="#1D9FDC"/>
  <stop offset="0.246758" stop-color="#0889DD"/>
  <stop offset="1" stop-color="#088ADD"/>
  </linearGradient>
  <linearGradient id="paint20_linear_1723_30319" x1="82.4012" y1="23.0466" x2="53.5763" y2="24.9024" gradientUnits="userSpaceOnUse">
  <stop offset="0.0162613" stop-color="#0B77C5"/>
  <stop offset="0.11208" stop-color="#1D9FDC"/>
  <stop offset="0.246758" stop-color="#0889DD"/>
  <stop offset="0.758052" stop-color="#0B90C5"/>
  <stop offset="1" stop-color="#088ADD"/>
  </linearGradient>
  <linearGradient id="paint21_linear_1723_30319" x1="82.3998" y1="30.2024" x2="53.8263" y2="33.4863" gradientUnits="userSpaceOnUse">
  <stop stop-color="#F4F6FE"/>
  <stop offset="0.11208" stop-color="#D2DFFD"/>
  <stop offset="0.246758" stop-color="white"/>
  <stop offset="0.758052" stop-color="#CBD8F1"/>
  <stop offset="1" stop-color="#E5ECFF"/>
  </linearGradient>
  <linearGradient id="paint22_linear_1723_30319" x1="65.9395" y1="39.5903" x2="67.3125" y2="44.8748" gradientUnits="userSpaceOnUse">
  <stop stop-color="#C71019"/>
  <stop offset="0.277822" stop-color="#BA0D15"/>
  <stop offset="1" stop-color="#99040B"/>
  </linearGradient>
  <linearGradient id="paint23_linear_1723_30319" x1="65.9395" y1="39.5903" x2="67.3125" y2="44.8748" gradientUnits="userSpaceOnUse">
  <stop stop-color="#C71019"/>
  <stop offset="0.277822" stop-color="#BA0D15"/>
  <stop offset="1" stop-color="#99040B"/>
  </linearGradient>
  <linearGradient id="paint24_linear_1723_30319" x1="69.287" y1="39.5563" x2="69.3699" y2="40.2186" gradientUnits="userSpaceOnUse">
  <stop stop-color="#C71019"/>
  <stop offset="0.277822" stop-color="#BA0D15"/>
  <stop offset="1" stop-color="#99040B"/>
  </linearGradient>
  <linearGradient id="paint25_linear_1723_30319" x1="70.3842" y1="38.3921" x2="70.6074" y2="39.3575" gradientUnits="userSpaceOnUse">
  <stop stop-color="#C71019"/>
  <stop offset="0.277822" stop-color="#BA0D15"/>
  <stop offset="1" stop-color="#99040B"/>
  </linearGradient>
  </defs>
</svg>
