<svg width="14" height="14" viewBox="0 0 14 14" fill="none" xmlns="http://www.w3.org/2000/svg">
  <path d="M9.93831 7.00113L4.66667 12.25H1.75V9.33332L6.99886 4.06175C7.06711 3.99291 7.17797 3.99291 7.24681 4.06175L9.93888 6.75383C10.0071 6.82207 10.0071 6.93288 9.93831 7.00113ZM10.5629 6.1413C10.6312 6.20955 10.7421 6.20955 10.8103 6.1413L11.9058 5.04584C12.3631 4.5885 12.3631 3.84652 11.9058 3.38919L10.6108 2.09414C10.1535 1.6368 9.41156 1.6368 8.95422 2.09414L7.85862 3.18967C7.79037 3.25792 7.79037 3.36872 7.85862 3.43697L10.5629 6.1413ZM12.25 11.8125H8.16667C7.92517 11.8125 7.72917 12.0085 7.72917 12.25C7.72917 12.4915 7.92517 12.6875 8.16667 12.6875H12.25C12.4915 12.6875 12.6875 12.4915 12.6875 12.25C12.6875 12.0085 12.4915 11.8125 12.25 11.8125Z" fill="currentColor"/>
</svg>
