<svg width="16" height="16" viewBox="0 0 16 16" fill="none" xmlns="http://www.w3.org/2000/svg">
<path fill-rule="evenodd" clip-rule="evenodd" d="M7.99857 3.12598C9.41914 3.12598 10.8082 3.54776 11.9888 4.33789C13.0953 5.07851 13.9724 6.11131 14.524 7.31934L14.6304 7.56348L14.6372 7.58301C14.7369 7.85158 14.7369 8.14744 14.6372 8.41602C14.6349 8.4224 14.633 8.42926 14.6304 8.43555C14.0888 9.74859 13.1691 10.8711 11.9888 11.6611C10.8083 12.4512 9.41909 12.874 7.99857 12.874C6.57819 12.8739 5.18972 12.4512 4.00931 11.6611C2.82898 10.8711 1.90931 9.74857 1.36771 8.43555C1.3651 8.42922 1.36228 8.42243 1.3599 8.41602C1.26024 8.14748 1.26024 7.85154 1.3599 7.58301L1.36771 7.56348C1.9093 6.25041 2.82895 5.12796 4.00931 4.33789C5.18972 3.54786 6.57818 3.12608 7.99857 3.12598ZM7.99857 4.29199C6.80926 4.2921 5.64711 4.64613 4.65872 5.30762C3.67574 5.96553 2.90814 6.89852 2.45365 7.99023C2.45178 7.99594 2.45195 8.00206 2.45365 8.00781C2.9081 9.09994 3.67544 10.0343 4.65872 10.6924C5.64701 11.3537 6.80943 11.7069 7.99857 11.707C9.18807 11.707 10.3518 11.354 11.3404 10.6924C12.3235 10.0343 13.089 9.09976 13.5435 8.00781C13.5452 8.00195 13.5454 7.99605 13.5435 7.99023C13.0891 6.8988 12.323 5.96547 11.3404 5.30762C10.3518 4.646 9.18809 4.29199 7.99857 4.29199ZM7.99857 5.57715C9.33629 5.57725 10.4204 6.66225 10.4204 8C10.4202 9.33751 9.33612 10.4218 7.99857 10.4219C6.66125 10.4215 5.57698 9.33734 5.57669 8C5.57669 6.66242 6.66108 5.57753 7.99857 5.57715ZM7.99857 6.74414C7.30541 6.74452 6.74271 7.30675 6.74271 8C6.74299 8.69301 7.30558 9.2545 7.99857 9.25488C8.69179 9.25478 9.25415 8.69318 9.25443 8C9.25443 7.30658 8.69196 6.74425 7.99857 6.74414Z" fill="currentColor"/>
</svg>
