<svg xmlns="http://www.w3.org/2000/svg" xmlns:xlink="http://www.w3.org/1999/xlink" fill="none" version="1.1" width="24" height="24" viewBox="0 0 24 24"><defs><clipPath id="master_svg0_105_849"><rect x="0" y="0" width="24" height="24" rx="0"/></clipPath></defs><g clip-path="url(#master_svg0_105_849)"><g><path d="M2.87868,2.87868C3.44129,2.31607,4.20435,2,5,2C5,2,8,2,8,2C8.55228,2,9,2.447715,9,3C9,3.55228,8.55228,4,8,4C8,4,5,4,5,4C4.734780000000001,4,4.48043,4.10536,4.29289,4.29289C4.10536,4.48043,4,4.734780000000001,4,5C4,5,4,8,4,8C4,8.55228,3.55228,9,3,9C2.447715,9,2,8.55228,2,8C2,8,2,5,2,5C2,4.20435,2.31607,3.44129,2.87868,2.87868C2.87868,2.87868,2.87868,2.87868,2.87868,2.87868ZM15,3C15,2.447715,15.4477,2,16,2C16,2,19,2,19,2C19.7957,2,20.5587,2.31607,21.1213,2.87868C21.6839,3.44129,22,4.20435,22,5C22,5,22,8,22,8C22,8.55228,21.5523,9,21,9C20.4477,9,20,8.55228,20,8C20,8,20,5,20,5C20,4.734780000000001,19.8946,4.48043,19.7071,4.29289C19.5196,4.10536,19.2652,4,19,4C19,4,16,4,16,4C15.4477,4,15,3.55228,15,3C15,3,15,3,15,3ZM3,15C3.55228,15,4,15.4477,4,16C4,16,4,19,4,19C4,19.2652,4.10536,19.5196,4.29289,19.7071C4.48043,19.8946,4.734780000000001,20,5,20C5,20,8,20,8,20C8.55228,20,9,20.4477,9,21C9,21.5523,8.55228,22,8,22C8,22,5,22,5,22C4.20435,22,3.44129,21.6839,2.87868,21.1213C2.31607,20.5587,2,19.7957,2,19C2,19,2,16,2,16C2,15.4477,2.447715,15,3,15C3,15,3,15,3,15ZM21,15C21.5523,15,22,15.4477,22,16C22,16,22,19,22,19C22,19.7957,21.6839,20.5587,21.1213,21.1213C20.5587,21.6839,19.7957,22,19,22C19,22,16,22,16,22C15.4477,22,15,21.5523,15,21C15,20.4477,15.4477,20,16,20C16,20,19,20,19,20C19.2652,20,19.5196,19.8946,19.7071,19.7071C19.8946,19.5196,20,19.2652,20,19C20,19,20,16,20,16C20,15.4477,20.4477,15,21,15C21,15,21,15,21,15Z" fill-rule="evenodd" fill="#FFFFFF" fill-opacity="1"/></g></g></svg>