<svg width="16" height="16" viewBox="0 0 16 16" fill="none" xmlns="http://www.w3.org/2000/svg">
<path d="M4.40397 2.07601H5.35197V3.12001H4.64397C4.21197 3.12001 3.99597 3.36001 3.99597 3.86401V6.16801C3.99597 6.92401 3.64797 7.42801 2.95197 7.68001C3.64797 7.96801 3.99597 8.47201 3.99597 9.19201V11.508C3.99597 11.988 4.21197 12.24 4.64397 12.24H5.35197V13.284H4.40397C3.85197 13.284 3.43197 13.104 3.14397 12.756C2.87997 12.432 2.74797 12 2.74797 11.46V9.26401C2.74797 8.91601 2.67597 8.66401 2.53197 8.52001C2.36397 8.32801 2.06397 8.22001 1.64397 8.19601V7.16401C2.06397 7.12801 2.36397 7.02001 2.53197 6.85201C2.67597 6.68401 2.74797 6.43201 2.74797 6.09601V3.91201C2.74797 3.36001 2.87997 2.92801 3.14397 2.60401C3.43197 2.24401 3.85197 2.07601 4.40397 2.07601Z" fill="#6E7781"/>
<path fill-rule="evenodd" clip-rule="evenodd" d="M5.55197 1.87601V3.32001H4.64397C4.46469 3.32001 4.36642 3.36873 4.30826 3.43497C4.24555 3.50638 4.19597 3.63579 4.19597 3.86401V6.16801C4.19597 6.577 4.10153 6.93412 3.89955 7.22665C3.77108 7.4127 3.60377 7.56587 3.4017 7.68802C3.60395 7.8176 3.77119 7.97446 3.89955 8.16037C4.10045 8.45132 4.19597 8.79872 4.19597 9.19201V11.508C4.19597 11.722 4.24457 11.8495 4.30826 11.922C4.36776 11.9898 4.46738 12.04 4.64397 12.04H5.55197V13.484H4.40397C3.80495 13.484 3.32323 13.2863 2.98989 12.8835L2.98892 12.8823C2.68826 12.5134 2.54797 12.0324 2.54797 11.46V9.26401C2.54797 8.93271 2.47743 8.74831 2.39055 8.66143L2.38112 8.652C2.26605 8.52049 2.03327 8.41858 1.63256 8.39568L1.44397 8.38491V6.98042L1.62689 6.96474C2.02436 6.93067 2.26517 6.83166 2.38511 6.71593C2.48267 6.59822 2.54797 6.40288 2.54797 6.09601V3.91201C2.54797 3.3286 2.68779 2.84763 2.98836 2.47837C3.32391 2.05939 3.80883 1.87601 4.40397 1.87601H5.55197ZM3.14397 2.60401C2.87997 2.92801 2.74797 3.36001 2.74797 3.91201V6.09601C2.74797 6.43201 2.67597 6.68401 2.53197 6.85201C2.36397 7.02001 2.06397 7.12801 1.64397 7.16401V8.19601C2.06397 8.22001 2.36397 8.32801 2.53197 8.52001C2.67597 8.66401 2.74797 8.91601 2.74797 9.26401V11.46C2.74797 12 2.87997 12.432 3.14397 12.756C3.43197 13.104 3.85197 13.284 4.40397 13.284H5.35197V12.24H4.64397C4.21197 12.24 3.99597 11.988 3.99597 11.508V9.19201C3.99597 8.56119 3.72884 8.09619 3.19459 7.79698C3.11906 7.75467 3.03818 7.71568 2.95197 7.68001C3.03967 7.64826 3.12184 7.6125 3.19848 7.57275C3.73014 7.29699 3.99597 6.82875 3.99597 6.16801V3.86401C3.99597 3.36001 4.21197 3.12001 4.64397 3.12001H5.35197V2.07601H4.40397C3.85197 2.07601 3.43197 2.24401 3.14397 2.60401Z" fill="#6E7781"/>
<path d="M10.644 2.07601H11.592C12.132 2.07601 12.552 2.24401 12.852 2.60401C13.116 2.92801 13.248 3.36001 13.248 3.91201V6.09601C13.248 6.43201 13.32 6.69601 13.476 6.86401C13.632 7.03201 13.92 7.12801 14.352 7.16401V8.19601C13.92 8.22001 13.632 8.32801 13.464 8.52001C13.32 8.66401 13.248 8.91601 13.248 9.26401V11.46C13.248 12 13.116 12.432 12.852 12.756C12.552 13.104 12.132 13.284 11.592 13.284H10.644V12.24H11.352C11.784 12.24 12 11.988 12 11.508V9.19201C12 8.47201 12.348 7.96801 13.044 7.68001C12.348 7.42801 12 6.92401 12 6.16801V3.86401C12 3.36001 11.784 3.12001 11.352 3.12001H10.644V2.07601Z" fill="#6E7781"/>
<path fill-rule="evenodd" clip-rule="evenodd" d="M10.444 1.87601H11.592C12.1774 1.87601 12.6595 2.06063 13.0056 2.47597L13.007 2.47766C13.308 2.84702 13.448 3.32823 13.448 3.91201V6.09601C13.448 6.41068 13.5166 6.61382 13.6225 6.72792C13.7243 6.8375 13.945 6.9294 14.3686 6.9647L14.552 6.97998V8.38521L14.3631 8.3957C13.9519 8.41854 13.7301 8.51963 13.6145 8.65171L13.6057 8.66174C13.5188 8.74863 13.448 8.93271 13.448 9.26401V11.46C13.448 12.0324 13.3077 12.5134 13.007 12.8823L13.0035 12.8866C12.6598 13.2853 12.1808 13.484 11.592 13.484H10.444V12.04H11.352C11.5286 12.04 11.6282 11.9898 11.6877 11.922C11.7514 11.8495 11.8 11.722 11.8 11.508V9.19201C11.8 8.79872 11.8955 8.45132 12.0964 8.16037C12.2248 7.97446 12.392 7.81759 12.5942 7.68801C12.3922 7.56587 12.2249 7.4127 12.0964 7.22665C11.8944 6.93412 11.8 6.577 11.8 6.16801V3.86401C11.8 3.63579 11.7504 3.50638 11.6877 3.43497C11.6295 3.36873 11.5312 3.32001 11.352 3.32001H10.444V1.87601ZM12.7975 7.57275C12.8741 7.6125 12.9563 7.64826 13.044 7.68001C12.9578 7.71568 12.8769 7.75467 12.8013 7.79698C12.2671 8.09619 12 8.56119 12 9.19201V11.508C12 11.988 11.784 12.24 11.352 12.24H10.644V13.284H11.592C12.132 13.284 12.552 13.104 12.852 12.756C13.116 12.432 13.248 12 13.248 11.46V9.26401C13.248 8.91601 13.32 8.66401 13.464 8.52001C13.632 8.32801 13.92 8.22001 14.352 8.19601V7.16401C13.92 7.12801 13.632 7.03201 13.476 6.86401C13.32 6.69601 13.248 6.43201 13.248 6.09601V3.91201C13.248 3.36001 13.116 2.92801 12.852 2.60401C12.552 2.24401 12.132 2.07601 11.592 2.07601H10.644V3.12001H11.352C11.784 3.12001 12 3.36001 12 3.86401V6.16801C12 6.82875 12.2658 7.29699 12.7975 7.57275Z" fill="#6E7781"/>
</svg>
