<svg width="16" height="16" viewBox="0 0 16 16" fill="none" xmlns="http://www.w3.org/2000/svg">
<path d="M4.76787 13.6525C4.95988 13.6525 5.14852 13.6121 5.28327 13.5515C5.75824 13.2988 6.10184 12.9552 6.43533 11.9447C6.7823 10.897 7.42571 10.4018 8.0489 9.92012C8.58115 9.50914 9.1336 9.0847 9.60858 8.21896C9.96228 7.57218 10.1577 6.86814 10.1577 6.24158C10.1577 4.35178 8.67884 2.87295 6.78904 2.87295C4.89924 2.87295 3.42042 4.35178 3.42042 6.24158H2.07297C2.07297 3.59721 4.14467 1.52551 6.78904 1.52551C9.43341 1.52551 11.5051 3.59721 11.5051 6.24158C11.5051 7.09384 11.2491 8.02695 10.7876 8.8691C10.1745 9.98412 9.45025 10.5399 8.86748 10.9913C8.32176 11.4124 7.92763 11.7156 7.71204 12.3691C7.30781 13.5919 6.78567 14.2825 5.87614 14.7608C5.52581 14.9192 5.15526 15 4.76787 15C3.2823 15 2.07297 13.7907 2.07297 12.3051H3.42042C3.42042 13.0496 4.0234 13.6525 4.76787 13.6525ZM11.0773 1.95332L12.0306 1C13.3713 2.34071 14.2 4.19345 14.2 6.24158C14.2 8.2897 13.3713 10.1424 12.0306 11.4832L11.0773 10.5298C12.1755 9.43166 12.8526 7.91578 12.8526 6.24158C12.8526 4.56737 12.1755 3.05149 11.0773 1.95332ZM8.47335 6.24158C8.47335 7.17132 7.71878 7.92589 6.78904 7.92589C5.8593 7.92589 5.10473 7.17132 5.10473 6.24158C5.10473 5.31184 5.8593 4.55727 6.78904 4.55727C7.71878 4.55727 8.47335 5.31184 8.47335 6.24158Z" fill="#6E7781"/>
</svg>
