<svg xmlns="http://www.w3.org/2000/svg" width="1440" height="1016" viewBox="0 0 1440 1016" fill="none">
  <g opacity=".7">
    <mask id="m" style="mask-type:alpha" maskUnits="userSpaceOnUse" x="-16" y="-65" width="1456" height="1081">
      <rect x="-16" y="-65" width="1456" height="1081" fill="#fff"/>
    </mask>
    <g mask="url(#m)">
      <g filter="url(#f0)">
        <path d="M-50.3 365.04L204.06 365.04C204.06 365.04 712.78 961.64 -50.3 1096.64L-50.3 365.04Z" fill="#EEF3FF"/>
      </g>
      <g filter="url(#f1)">
        <path d="M1461.27 1041.13L-15.53 1041.13C-15.53 1041.13 1067.73 192.24 1311.07 553.35C1541.3 895.02 1461.27 1041.13 1461.27 1041.13Z" fill="#5280FF" fill-opacity=".06"/>
      </g>
      <g filter="url(#f2)">
        <path d="M660.51 671.11L1172.88 1181.55C1172.88 1181.55 799.42 870.67 464.72 1161.2L660.51 671.11Z" fill="#0FF" fill-opacity=".04"/>
      </g>
      <g filter="url(#f3)">
        <path d="M219.09 477.35L-410.43 114.46C-410.43 114.46 32.28 319.87 278.97 -45.78L219.09 477.35Z" fill="#0FF" fill-opacity=".04"/>
      </g>
      <g filter="url(#f4)">
        <path d="M-26.17 337.65L-26.17 -67.41C-26.17 -67.41 232.72 229.71 122.59 296.45C18.39 359.6 -26.17 337.65 -26.17 337.65Z" fill="#5280FF" fill-opacity=".08"/>
      </g>
    </g>
    <g opacity=".6" stroke="#fff" stroke-width=".99">
      <path d="M-224.41 1089.67C-182.58 1044.19 -13.08 804.26 291.49 804.26C672.2 804.26 884.98 1363.31 1459.08 901.49"/>
      <path d="M-224.41 588.17C-182.58 542.7 -13.08 302.77 291.49 302.77C672.2 302.77 884.98 861.82 1459.08 400"/>
      <path d="M-224.41 1073.49C-182.58 1028.01 -13.08 788.09 291.49 788.09C672.2 788.09 884.98 1347.13 1459.08 885.31"/>
      <path d="M-224.41 1057.31C-182.58 1011.84 -13.08 771.91 291.49 771.91C672.2 771.91 884.98 1330.95 1459.08 869.13"/>
      <path d="M-224.41 1041.13C-182.58 995.66 -13.08 755.73 291.49 755.73C672.2 755.73 884.98 1314.77 1459.08 852.96"/>
      <path d="M-224.41 1024.96C-182.58 979.48 -13.08 739.55 291.49 739.55C672.2 739.55 884.98 1298.6 1459.08 836.78"/>
      <path d="M-224.41 1008.78C-182.58 963.3 -13.08 723.38 291.49 723.38C672.2 723.38 884.98 1282.42 1459.08 820.6"/>
      <path d="M-224.41 992.6C-182.58 947.13 -13.08 707.2 291.49 707.2C672.2 707.2 884.98 1266.24 1459.08 804.43"/>
      <path d="M-224.41 976.43C-182.58 930.95 -13.08 691.02 291.49 691.02C672.2 691.02 884.98 1250.07 1459.08 788.25"/>
      <path d="M-224.41 960.25C-182.58 914.77 -13.08 674.85 291.49 674.85C672.2 674.85 884.98 1233.89 1459.08 772.07"/>
      <path d="M-224.41 944.07C-182.58 898.6 -13.08 658.67 291.49 658.67C672.2 658.67 884.98 1217.71 1459.08 755.89"/>
      <path d="M-224.41 927.89C-182.58 882.42 -13.08 642.49 291.49 642.49C672.2 642.49 884.98 1201.53 1459.08 739.72"/>
      <path d="M-224.41 911.72C-182.58 866.24 -13.08 626.32 291.49 626.32C672.2 626.32 884.98 1185.36 1459.08 723.54"/>
      <path d="M-224.41 895.54C-182.58 850.06 -13.08 610.14 291.49 610.14C672.2 610.14 884.98 1169.18 1459.08 707.36"/>
      <path d="M-224.41 879.36C-182.58 833.89 -13.08 593.96 291.49 593.96C672.2 593.96 884.98 1153 1459.08 691.19"/>
      <path d="M-224.41 863.19C-182.58 817.71 -13.08 577.78 291.49 577.78C672.2 577.78 884.98 1136.83 1459.08 675.01"/>
      <path d="M-224.41 847.01C-182.58 801.53 -13.08 561.61 291.49 561.61C672.2 561.61 884.98 1120.65 1459.08 658.83"/>
      <path d="M-224.41 830.83C-182.58 785.36 -13.08 545.43 291.49 545.43C672.2 545.43 884.98 1104.47 1459.08 642.65"/>
      <path d="M-224.41 814.65C-182.58 769.18 -13.08 529.25 291.49 529.25C672.2 529.25 884.98 1088.29 1459.08 626.48"/>
      <path d="M-224.41 798.48C-182.58 753 -13.08 513.08 291.49 513.08C672.2 513.08 884.98 1072.12 1459.08 610.3"/>
      <path d="M-224.41 782.3C-182.58 736.82 -13.08 496.9 291.49 496.9C672.2 496.9 884.98 1055.94 1459.08 594.12"/>
      <path d="M-224.41 766.12C-182.58 720.65 -13.08 480.72 291.49 480.72C672.2 480.72 884.98 1039.76 1459.08 577.95"/>
      <path d="M-224.41 749.95C-182.58 704.47 -13.08 464.54 291.49 464.54C672.2 464.54 884.98 1023.59 1459.08 561.77"/>
      <path d="M-224.41 733.77C-182.58 688.29 -13.08 448.37 291.49 448.37C672.2 448.37 884.98 1007.41 1459.08 545.59"/>
      <path d="M-224.41 717.59C-182.58 672.12 -13.08 432.19 291.49 432.19C672.2 432.19 884.98 991.23 1459.08 529.41"/>
      <path d="M-224.41 701.41C-182.58 655.94 -13.08 416.01 291.49 416.01C672.2 416.01 884.98 975.05 1459.08 513.24"/>
      <path d="M-224.41 685.24C-182.58 639.76 -13.08 399.84 291.49 399.84C672.2 399.84 884.98 958.88 1459.08 497.06"/>
      <path d="M-224.41 669.06C-182.58 623.59 -13.08 383.66 291.49 383.66C672.2 383.66 884.98 942.7 1459.08 480.88"/>
      <path d="M-224.41 652.88C-182.58 607.41 -13.08 367.48 291.49 367.48C672.2 367.48 884.98 926.52 1459.08 464.71"/>
      <path d="M-224.41 636.71C-182.58 591.23 -13.08 351.31 291.49 351.31C672.2 351.31 884.98 910.35 1459.08 448.53"/>
      <path d="M-224.41 620.53C-182.58 575.05 -13.08 335.13 291.49 335.13C672.2 335.13 884.98 894.17 1459.08 432.35"/>
      <path d="M-224.41 604.35C-182.58 558.88 -13.08 318.95 291.49 318.95C672.2 318.95 884.98 877.99 1459.08 416.18"/>
    </g>
    <g opacity=".8" stroke="#fff" stroke-width=".99">
      <path d="M-137.9 399.07C-96.07 372.17 73.43 230.22 378 230.22C758.71 230.22 971.49 560.97 1545.59 287.74"/>
      <path d="M-137.9 102.37C-96.07 75.47 73.43 -66.48 378 -66.48C758.71 -66.48 971.49 264.27 1545.59 -8.96"/>
      <path d="M-137.9 389.5C-96.07 362.6 73.43 220.65 378 220.65C758.71 220.65 971.49 551.4 1545.59 278.17"/>
      <path d="M-137.9 379.93C-96.07 353.02 73.43 211.08 378 211.08C758.71 211.08 971.49 541.83 1545.59 268.6"/>
      <path d="M-137.9 370.36C-96.07 343.45 73.43 201.5 378 201.5C758.71 201.5 971.49 532.25 1545.59 259.03"/>
      <path d="M-137.9 360.79C-96.07 333.88 73.43 191.93 378 191.93C758.71 191.93 971.49 522.68 1545.59 249.46"/>
      <path d="M-137.9 351.22C-96.07 324.31 73.43 182.36 378 182.36C758.71 182.36 971.49 513.11 1545.59 239.88"/>
      <path d="M-137.9 341.65C-96.07 314.74 73.43 172.79 378 172.79C758.71 172.79 971.49 503.54 1545.59 230.31"/>
      <path d="M-137.9 332.07C-96.07 305.17 73.43 163.22 378 163.22C758.71 163.22 971.49 493.97 1545.59 220.74"/>
      <path d="M-137.9 322.5C-96.07 295.6 73.43 153.65 378 153.65C758.71 153.65 971.49 484.4 1545.59 211.17"/>
      <path d="M-137.9 312.93C-96.07 286.03 73.43 144.08 378 144.08C758.71 144.08 971.49 474.83 1545.59 201.6"/>
      <path d="M-137.9 303.36C-96.07 276.46 73.43 134.51 378 134.51C758.71 134.51 971.49 465.26 1545.59 192.03"/>
      <path d="M-137.9 293.79C-96.07 266.89 73.43 124.94 378 124.94C758.71 124.94 971.49 455.69 1545.59 182.46"/>
      <path d="M-137.9 284.22C-96.07 257.31 73.43 115.37 378 115.37C758.71 115.37 971.49 446.12 1545.59 172.89"/>
      <path d="M-137.9 274.65C-96.07 247.74 73.43 105.8 378 105.8C758.71 105.8 971.49 436.55 1545.59 163.32"/>
      <path d="M-137.9 265.08C-96.07 238.17 73.43 96.22 378 96.22C758.71 96.22 971.49 426.97 1545.59 153.75"/>
      <path d="M-137.9 255.51C-96.07 228.6 73.43 86.65 378 86.65C758.71 86.65 971.49 417.4 1545.59 144.18"/>
      <path d="M-137.9 245.94C-96.07 219.03 73.43 77.08 378 77.08C758.71 77.08 971.49 407.83 1545.59 134.6"/>
      <path d="M-137.9 236.37C-96.07 209.46 73.43 67.51 378 67.51C758.71 67.51 971.49 398.26 1545.59 125.03"/>
      <path d="M-137.9 226.79C-96.07 199.89 73.43 57.94 378 57.94C758.71 57.94 971.49 388.69 1545.59 115.46"/>
      <path d="M-137.9 217.22C-96.07 190.32 73.43 48.37 378 48.37C758.71 48.37 971.49 379.12 1545.59 105.89"/>
      <path d="M-137.9 207.65C-96.07 180.75 73.43 38.8 378 38.8C758.71 38.8 971.49 369.55 1545.59 96.32"/>
      <path d="M-137.9 198.08C-96.07 171.18 73.43 29.23 378 29.23C758.71 29.23 971.49 359.98 1545.59 86.75"/>
      <path d="M-137.9 188.51C-96.07 161.6 73.43 19.66 378 19.66C758.71 19.66 971.49 350.41 1545.59 77.18"/>
      <path d="M-137.9 178.94C-96.07 152.03 73.43 10.09 378 10.09C758.71 10.09 971.49 340.83 1545.59 67.61"/>
      <path d="M-137.9 169.37C-96.07 142.46 73.43 .51 378 .51C758.71 .51 971.49 331.26 1545.59 58.04"/>
      <path d="M-137.9 159.8C-96.07 132.89 73.43 -9.06 378 -9.06C758.71 -9.06 971.49 321.69 1545.59 48.46"/>
      <path d="M-137.9 150.23C-96.07 123.32 73.43 -18.63 378 -18.63C758.71 -18.63 971.49 312.12 1545.59 38.89"/>
      <path d="M-137.9 140.66C-96.07 113.75 73.43 -28.2 378 -28.2C758.71 -28.2 971.49 302.55 1545.59 29.32"/>
      <path d="M-137.9 131.08C-96.07 104.18 73.43 -37.77 378 -37.77C758.71 -37.77 971.49 292.98 1545.59 19.75"/>
      <path d="M-137.9 121.51C-96.07 94.61 73.43 -47.34 378 -47.34C758.71 -47.34 971.49 283.41 1545.59 10.18"/>
      <path d="M-137.9 111.94C-96.07 85.04 73.43 -56.91 378 -56.91C758.71 -56.91 971.49 273.84 1545.59 .61"/>
    </g>
    <g opacity=".6" filter="url(#f5)">
      <circle cx="1208.5" cy="193.5" r="376.5" fill="#DDF8F4"/>
    </g>
    <g opacity=".6" filter="url(#f6)">
      <circle cx="618.5" cy="952.5" r="407.5" fill="#D2EEF9"/>
    </g>
  </g>
  <defs>
    <filter id="f0" x="-218.15" y="197.19" width="756.16" height="1067.29" filterUnits="userSpaceOnUse" color-interpolation-filters="sRGB">
      <feGaussianBlur stdDeviation="83.92"/>
    </filter>
    <filter id="f1" x="-183.37" y="296.06" width="1825.95" height="912.92" filterUnits="userSpaceOnUse" color-interpolation-filters="sRGB">
      <feGaussianBlur stdDeviation="83.92"/>
    </filter>
    <filter id="f2" x="296.87" y="503.26" width="1043.85" height="846.13" filterUnits="userSpaceOnUse" color-interpolation-filters="sRGB">
      <feGaussianBlur stdDeviation="83.92"/>
    </filter>
    <filter id="f3" x="-578.27" y="-213.62" width="1025.09" height="858.82" filterUnits="userSpaceOnUse" color-interpolation-filters="sRGB">
      <feGaussianBlur stdDeviation="83.92"/>
    </filter>
    <filter id="f4" x="-194.01" y="-235.25" width="511.72" height="744.44" filterUnits="userSpaceOnUse" color-interpolation-filters="sRGB">
      <feGaussianBlur stdDeviation="83.92"/>
    </filter>
    <filter id="f5" x="532" y="-483" width="1353" height="1353" filterUnits="userSpaceOnUse" color-interpolation-filters="sRGB">
      <feGaussianBlur stdDeviation="150"/>
    </filter>
    <filter id="f6" x="-89" y="245" width="1415" height="1415" filterUnits="userSpaceOnUse" color-interpolation-filters="sRGB">
      <feGaussianBlur stdDeviation="150"/>
    </filter>
  </defs>
</svg>
