<svg xmlns="http://www.w3.org/2000/svg" width="16" height="16" viewBox="0 0 16 16" fill="none">
<path d="M5.13174 2.7735C5.15452 2.83492 5.19029 2.89071 5.23661 2.93703C5.28294 2.98336 5.33872 3.01913 5.40015 3.0419L6.3755 3.40311C6.46272 3.43534 6.53796 3.49352 6.5911 3.56981C6.64424 3.64611 6.67273 3.73685 6.67273 3.82983C6.67273 3.92281 6.64424 4.01355 6.5911 4.08985C6.53796 4.16614 6.46272 4.22432 6.3755 4.25655L5.40015 4.61776C5.33872 4.64053 5.28294 4.6763 5.23661 4.72263C5.19029 4.76895 5.15452 4.82474 5.13174 4.88616L4.77053 5.86152C4.7383 5.94873 4.68012 6.02398 4.60383 6.07712C4.52754 6.13026 4.43679 6.15875 4.34381 6.15875C4.25084 6.15875 4.16009 6.13026 4.0838 6.07712C4.0075 6.02398 3.94932 5.94873 3.91709 5.86152L3.55589 4.88525C3.53311 4.82383 3.49734 4.76804 3.45101 4.72172C3.40469 4.6754 3.34891 4.63962 3.28748 4.61685L2.31212 4.25564C2.22491 4.22341 2.14967 4.16523 2.09652 4.08894C2.04338 4.01264 2.01489 3.9219 2.01489 3.82892C2.01489 3.73594 2.04338 3.6452 2.09652 3.5689C2.14967 3.49261 2.22491 3.43443 2.31212 3.4022L3.28748 3.04099C3.34891 3.01822 3.40469 2.98245 3.45101 2.93612C3.49734 2.8898 3.53311 2.83401 3.55589 2.77259L3.91709 1.79723C3.94932 1.71002 4.0075 1.63477 4.0838 1.58163C4.16009 1.52849 4.25084 1.5 4.34381 1.5C4.43679 1.5 4.52754 1.52849 4.60383 1.58163C4.68012 1.63477 4.7383 1.71002 4.77053 1.79723L5.13174 2.77259L5.13174 2.7735Z"   fill="currentColor" fill-opacity="0.7">
</path>
<path d="M7.46854 4.56344L9.39741 2.63365C9.43971 2.59128 9.48991 2.55767 9.54511 2.53474C9.60041 2.5118 9.65971 2.5 9.71951 2.5C9.77931 2.5 9.83861 2.5118 9.89391 2.53474C9.94911 2.55767 9.99931 2.59128 10.0416 2.63365L11.9714 4.56253C12.0137 4.60478 12.0473 4.65499 12.0703 4.71025C12.0932 4.76552 12.105 4.82477 12.105 4.88461C12.105 4.94445 12.0932 5.0037 12.0703 5.05897C12.0473 5.11424 12.0137 5.16444 11.9714 5.2067L10.0425 7.13648L4.25132 12.9268L2.9648 14.2133C2.87949 14.2986 2.7638 14.3465 2.64317 14.3465C2.52254 14.3465 2.40685 14.2986 2.32154 14.2133L0.391745 12.2835C0.306465 12.1982 0.258545 12.0825 0.258545 11.9619C0.258545 11.8412 0.306465 11.7255 0.391745 11.6402L7.46854 4.56344ZM11.0069 4.88461L9.71951 3.59809L8.43301 4.88461L9.72041 6.17114L11.0069 4.88461Z"   fill="currentColor" >
</path>
<g >
<path     fill="currentColor"  d="M10.27 6.57L12.57 12.98Q12.62 13.11 12.62 13.25Q12.62 13.51 12.44 13.69Q12.26 13.87 11.98 13.87Q11.54 13.84 11.38 13.41L10.8 11.66L7.86 11.66L7.28 13.41Q7.12 13.84 6.68 13.87Q6.41 13.87 6.225 13.685Q6.04 13.5 6.04 13.25Q6.04 13.11 6.09 12.98L8.36 6.58Q8.47 6.27 8.735 6.085Q9 5.9 9.315 5.9Q9.63 5.9 9.895 6.085Q10.16 6.27 10.27 6.57ZM9.33 7.19L8.24 10.49L10.42 10.49L9.33 7.19ZM14.57 6.52L14.57 13.25Q14.57 13.51 14.39 13.69Q14.21 13.87 13.95 13.87Q13.69 13.87 13.51 13.69Q13.33 13.51 13.33 13.25L13.33 6.52Q13.33 6.26 13.51 6.08Q13.69 5.9 13.95 5.9Q14.21 5.9 14.39 6.08Q14.57 6.26 14.57 6.52Z">
</path>
<path fill-rule="evenodd"  fill="rgba(255, 255, 255, 1)"  d="M12.92,13.25c0,0.2562 -0.0893,0.47357 -0.2679,0.6521c-0.17853,0.1786 -0.40257,0.2679 -0.6721,0.2679h-0.0102l-0.0102,-0.0007c-0.42213,-0.0288 -0.70907,-0.24703 -0.8608,-0.6547l-0.0019,-0.0051l-0.5135,-1.5495h-2.50678l-0.51356,1.5495l-0.00189,0.0051c-0.15169,0.40767 -0.43861,0.6259 -0.86076,0.6547l-0.01019,0.0007h-0.01022c-0.26284,0 -0.48522,-0.09097 -0.66713,-0.2729c-0.18191,-0.18187 -0.27287,-0.39757 -0.27287,-0.6471c0,-0.12907 0.02282,-0.25363 0.06847,-0.3737l2.26879,-6.39658c0.09478,-0.26711 0.25678,-0.48068 0.48601,-0.64071c0.22825,-0.15934 0.47882,-0.23901 0.75173,-0.23901c0.27291,0 0.52347,0.07967 0.7517,0.23901c0.22833,0.15937 0.39,0.36861 0.485,0.62771l0.0007,0.00196l2.2989,6.40702c0.0458,0.12027 0.0687,0.24503 0.0687,0.3743zM12.57,12.98l-2.3,-6.41c-0.07333,-0.2 -0.19833,-0.36167 -0.375,-0.485c-0.17667,-0.12333 -0.37,-0.185 -0.58,-0.185c-0.21,0 -0.40333,0.06167 -0.58,0.185c-0.17667,0.12333 -0.30167,0.28833 -0.375,0.495l-2.27,6.4c-0.03333,0.08667 -0.05,0.17667 -0.05,0.27c0,0.16667 0.06167,0.31167 0.185,0.435c0.12333,0.12333 0.275,0.185 0.455,0.185c0.29333,-0.02 0.49333,-0.17333 0.6,-0.46l0.58,-1.75h2.94l0.58,1.75c0.10667,0.28667 0.30667,0.44 0.6,0.46c0.18667,0 0.34,-0.06 0.46,-0.18c0.12,-0.12 0.18,-0.26667 0.18,-0.44c0,-0.09333 -0.01667,-0.18333 -0.05,-0.27zM14.6021,13.9021c-0.17853,0.1786 -0.3959,0.2679 -0.6521,0.2679c-0.2562,0 -0.47357,-0.0893 -0.6521,-0.2679c-0.1786,-0.17853 -0.2679,-0.3959 -0.2679,-0.6521v-6.73c0,-0.25617 0.0893,-0.47355 0.2679,-0.65213c0.17853,-0.17858 0.3959,-0.26787 0.6521,-0.26787c0.2562,0 0.47357,0.08929 0.6521,0.26787c0.1786,0.17858 0.2679,0.39596 0.2679,0.65213v6.73c0,0.2562 -0.0893,0.47357 -0.2679,0.6521zM14.57,13.25v-6.73c0,-0.17333 -0.06,-0.32 -0.18,-0.44c-0.12,-0.12 -0.26667,-0.18 -0.44,-0.18c-0.17333,0 -0.32,0.06 -0.44,0.18c-0.12,0.12 -0.18,0.26667 -0.18,0.44v6.73c0,0.17333 0.06,0.32 0.18,0.44c0.12,0.12 0.26667,0.18 0.44,0.18c0.17333,0 0.32,-0.06 0.44,-0.18c0.12,-0.12 0.18,-0.26667 0.18,-0.44zM9.48797,7.66826l0.83293,2.52174l0.0991,0.3h-2.18l0.09909,-0.3l0.83294,-2.52174l0.15797,-0.47826zM8.65503,10.19h1.34997l-0.675,-2.04348z">
</path>
</g>
<path d="M2.7481 6.95594C2.75721 6.98052 2.77152 7.00283 2.79005 7.02136C2.80858 7.03989 2.83089 7.0542 2.85546 7.06331L3.24669 7.20706C3.28182 7.21981 3.31217 7.24307 3.33362 7.27367C3.35507 7.30428 3.36658 7.34074 3.36658 7.37811C3.36658 7.41549 3.35507 7.45195 3.33362 7.48255C3.31217 7.51316 3.28182 7.53642 3.24669 7.54917L2.85546 7.69292C2.83089 7.70203 2.80858 7.71634 2.79005 7.73487C2.77152 7.7534 2.75721 7.77571 2.7481 7.80028L2.60434 8.19152C2.59159 8.22665 2.56833 8.257 2.53773 8.27845C2.50713 8.2999 2.47066 8.3114 2.43329 8.3114C2.39592 8.3114 2.35945 8.2999 2.32885 8.27845C2.29825 8.257 2.27499 8.22665 2.26224 8.19152L2.11848 7.80028C2.10937 7.77571 2.09506 7.7534 2.07653 7.73487C2.058 7.71634 2.03569 7.70203 2.01112 7.69292L1.61989 7.54917C1.58476 7.53642 1.55441 7.51316 1.53296 7.48255C1.51151 7.45195 1.5 7.41549 1.5 7.37811C1.5 7.34074 1.51151 7.30428 1.53296 7.27367C1.55441 7.24307 1.58476 7.21981 1.61989 7.20706L2.01112 7.06331C2.03569 7.0542 2.058 7.03989 2.07653 7.02136C2.09506 7.00283 2.10937 6.98052 2.11848 6.95594L2.26224 6.56471C2.27499 6.52958 2.29825 6.49923 2.32885 6.47778C2.35945 6.45633 2.39592 6.44482 2.43329 6.44482C2.47066 6.44482 2.50713 6.45633 2.53773 6.47778C2.56833 6.49923 2.59159 6.52958 2.60434 6.56471L2.7481 6.95594ZM12.3552 10.8674C12.3797 10.9329 12.4316 10.9857 12.4971 11.0093L13.0121 11.2004C13.2214 11.2768 13.2214 11.5734 13.0121 11.6508L12.4971 11.8409C12.4646 11.8529 12.4351 11.8718 12.4106 11.8963C12.3861 11.9208 12.3672 11.9504 12.3552 11.9829L12.1641 12.4978C12.147 12.5438 12.1163 12.5834 12.0761 12.6114C12.0358 12.6394 11.988 12.6544 11.9389 12.6544C11.8899 12.6544 11.842 12.6394 11.8018 12.6114C11.7615 12.5834 11.7308 12.5438 11.7137 12.4978L11.5236 11.9829C11.5116 11.9504 11.4926 11.9208 11.4681 11.8963C11.4436 11.8718 11.4141 11.8529 11.3816 11.8409L10.8667 11.6498C10.8207 11.6328 10.7811 11.6021 10.7531 11.5618C10.7251 11.5216 10.7101 11.4737 10.7101 11.4247C10.7101 11.3756 10.7251 11.3278 10.7531 11.2875C10.7811 11.2473 10.8207 11.2165 10.8667 11.1995L11.3816 11.0093C11.4141 10.9973 11.4436 10.9784 11.4681 10.9539C11.4926 10.9294 11.5116 10.8999 11.5236 10.8674L11.7146 10.3524C11.7911 10.1431 12.0877 10.1431 12.165 10.3524L12.3552 10.8674Z"   fill="currentColor" fill-opacity="0.4">
</path>
</svg>
