<svg xmlns="http://www.w3.org/2000/svg" width="10" height="13" viewBox="0 0 10 13" fill="none">
    <path d="M6.25009 13L3.7501 13C3.0598 13 2.5002 12.4457 2.5002 11.7619L2.5002 10.2141C2.5002 9.2855 1.4845 8.52656 1.0964 8.04738C-0.540099 6.02211 -0.3215 3.08906 1.5974 1.32366C3.5163 -0.44161 6.48539 -0.441219 8.40379 1.32483C10.3221 3.09075 10.5397 6.0238 8.90259 8.04855C8.51509 8.52656 7.50009 9.2855 7.50009 10.2141L7.50009 11.7619C7.50009 12.4457 6.94049 13 6.25009 13Z"   fill="#383838" >
    </path>
    <path d="M7.92754 7.27347C9.15484 5.7548 8.99127 3.55545 7.55269 2.23126C6.11405 0.907071 3.88767 0.906551 2.4485 2.23013C1.00933 3.55371 0.84485 5.75298 2.0714 7.27217C2.12517 7.33847 2.57577 7.80023 2.64515 7.8752C3.26765 8.54627 3.65075 9.16039 3.73325 9.90451L3.73325 9.90451L4.3751 9.90451L4.3751 6.80911L5.62512 6.80911L5.62512 9.90451L6.26697 9.90451C6.34947 9.16039 6.73257 8.54627 7.35447 7.87581C7.42512 7.80023 7.87444 7.33908 7.92754 7.27347Z"   fill="#FFAF0F" >
    </path>
    <path d="M3.75 11.1428L3.75 11.7619L6.24996 11.7619L6.24996 11.1428L3.75 11.1428Z"   fill="#FFFFFF" >
    </path>
</svg>
