<svg t="1724809680525" class="icon" viewBox="0 0 1024 1024" version="1.1" xmlns="http://www.w3.org/2000/svg" p-id="6165" width="256" height="256"><path d="M1024 512A512 512 0 1 1 0 512a512 512 0 0 1 1024 0z m-128 0q0-73.216-26.989714-141.385143-29.257143-73.874286-85.504-130.194286-56.246857-56.173714-130.194286-85.430857Q585.289143 128 512 128q-73.216 0-141.385143 26.989714-73.874286 29.257143-130.194286 85.504-56.173714 56.246857-85.430857 130.194286Q128 438.637714 128 512q0 73.216 26.989714 141.312 29.257143 73.947429 85.504 130.194286 56.246857 56.32 130.194286 85.577143 68.022857 26.916571 141.312 26.916571 73.216 0 141.312-26.989714 73.947429-29.257143 130.194286-85.504 56.32-56.246857 85.577143-130.194286 26.916571-68.022857 26.916571-141.312z" p-id="6166" fill="#219ffc"></path><path d="M292.571429 365.714286m73.142857 0l0 0q73.142857 0 73.142857 73.142857l0 146.285714q0 73.142857-73.142857 73.142857l0 0q-73.142857 0-73.142857-73.142857l0-146.285714q0-73.142857 73.142857-73.142857Z" p-id="6167" fill="#219ffc"></path><path d="M585.142857 365.714286m73.142857 0l0 0q73.142857 0 73.142857 73.142857l0 146.285714q0 73.142857-73.142857 73.142857l0 0q-73.142857 0-73.142857-73.142857l0-146.285714q0-73.142857 73.142857-73.142857Z" p-id="6168" fill="#219ffc"></path></svg>