<svg xmlns="http://www.w3.org/2000/svg" width="12.004638671875" height="14.0126953125" viewBox="0 0 12.004638671875 14.0126953125" fill="none">
<path d="M11.0094 12.0005C11.4848 12.0005 12.0046 11.6628 12.0046 11.0771L11.9998 4.70408C11.9998 4.44204 11.8978 4.19122 11.7141 4.00485L8.0791 0.299873C7.89183 0.107898 7.63493 0 7.36603 0L2.99515 0C2.51977 0 1.99997 0.337707 1.99997 0.922039L2.00477 11.0785C2.00477 11.6628 2.52457 12.0005 2.99995 12.0005L11.0094 12.0005ZM11.0046 11L10.9998 5.01236L6.99989 5.01236L6.99989 1.00051L2.99995 1.00051L3.00475 11L11.0046 11ZM7.99987 1.6465L7.99987 4.01325L10.3216 4.01325L7.99987 1.6465ZM0.999984 14.0128L8.99986 14.0128L8.99986 13.0122L0.999984 13.0122L0.999984 4.00064L0 4.00064L0 13.0122C0 13.5643 0.447772 14.0128 0.999984 14.0128Z" fill-rule="evenodd"  fill="currentColor" fill-opacity="0.9">
</path>
</svg>
