<svg xmlns="http://www.w3.org/2000/svg"  width="14.4000244140625" height="16" viewBox="0 0 14.4000244140625 16" fill="none">
    <path d="M10.283 1.1648C12.2472 1.1648 13.2365 2.176 13.2365 4.168L13.2365 11.832C13.2365 13.824 12.2472 14.8352 10.283 14.8352L8.00496 14.8352C7.7112 14.8672 7.48944 15.1184 7.48944 15.4176C7.48944 15.7168 7.7112 15.968 8.00496 16L10.2902 16C12.8678 16 14.4 14.4384 14.4 11.832L14.4 4.168C14.3928 1.5616 12.8534 0 10.283 0L4.10976 0C1.53936 0 0 1.5536 0 4.168L0 11.832C0 14.4384 1.53936 16 4.10976 16C4.40352 15.968 4.62528 15.7168 4.62528 15.4176C4.62528 15.1184 4.40352 14.8672 4.10976 14.8352C2.1456 14.8352 1.14912 13.824 1.14912 11.832L1.14912 4.168C1.14912 2.176 2.1456 1.1648 4.10976 1.1648L10.283 1.1648ZM6.50913 5.2002C6.80219 5.16738 7.024 4.91579 7.024 4.6162C7.024 4.31661 6.80219 4.06502 6.50913 4.0322L4.31487 4.0322C4.02181 4.06502 3.8 4.31661 3.8 4.6162C3.8 4.91579 4.02181 5.16738 4.31487 5.2002L6.50913 5.2002ZM4.30675 8.58847L10.0778 8.58847C10.2988 8.61317 10.5135 8.50745 10.6313 8.31646C10.7498 8.12536 10.7498 7.88264 10.6313 7.69154C10.5135 7.50055 10.2988 7.39483 10.0778 7.41953L4.30675 7.41953C4.0137 7.45246 3.792 7.70424 3.792 8.004C3.792 8.30376 4.0137 8.55554 4.30675 8.58847ZM10.0765 11.9676C10.3924 11.9676 10.6481 11.7079 10.6481 11.3876C10.6481 11.0673 10.3924 10.8076 10.0765 10.8076L4.30772 10.8076C3.99184 10.8076 3.7361 11.0673 3.7361 11.3876C3.7361 11.7079 3.99184 11.9676 4.31463 11.9676L10.0765 11.9676Z" fill-rule="evenodd"  fill="currentColor">
    </path>
</svg>
