<svg width="16" height="16" viewBox="0 0 16 16" fill="none" xmlns="http://www.w3.org/2000/svg">
  <path d="M5.13174 2.7735C5.15452 2.83492 5.19029 2.89071 5.23661 2.93703C5.28294 2.98336 5.33872 3.01913 5.40015 3.0419L6.3755 3.40311C6.46272 3.43534 6.53796 3.49352 6.5911 3.56981C6.64424 3.64611 6.67273 3.73685 6.67273 3.82983C6.67273 3.92281 6.64424 4.01355 6.5911 4.08985C6.53796 4.16614 6.46272 4.22432 6.3755 4.25655L5.40015 4.61776C5.33872 4.64053 5.28294 4.6763 5.23661 4.72263C5.19029 4.76895 5.15452 4.82474 5.13174 4.88616L4.77053 5.86152C4.7383 5.94873 4.68012 6.02398 4.60383 6.07712C4.52754 6.13026 4.43679 6.15875 4.34381 6.15875C4.25084 6.15875 4.16009 6.13026 4.0838 6.07712C4.0075 6.02398 3.94932 5.94873 3.91709 5.86152L3.55589 4.88525C3.53311 4.82383 3.49734 4.76804 3.45101 4.72172C3.40469 4.6754 3.34891 4.63962 3.28748 4.61685L2.31212 4.25564C2.22491 4.22341 2.14967 4.16523 2.09652 4.08894C2.04338 4.01264 2.01489 3.9219 2.01489 3.82892C2.01489 3.73594 2.04338 3.6452 2.09652 3.5689C2.14967 3.49261 2.22491 3.43443 2.31212 3.4022L3.28748 3.04099C3.34891 3.01822 3.40469 2.98245 3.45101 2.93612C3.49734 2.8898 3.53311 2.83401 3.55589 2.77259L3.91709 1.79723C3.94932 1.71002 4.0075 1.63477 4.0838 1.58163C4.16009 1.52849 4.25084 1.5 4.34381 1.5C4.43679 1.5 4.52754 1.52849 4.60383 1.58163C4.68012 1.63477 4.7383 1.71002 4.77053 1.79723L5.13174 2.77259V2.7735Z" fill="currentColor" fill-opacity="0.7"/>
  <path d="M2.7481 6.95594C2.75721 6.98052 2.77152 7.00283 2.79005 7.02136C2.80858 7.03989 2.83089 7.0542 2.85546 7.06331L3.24669 7.20706C3.28182 7.21981 3.31217 7.24307 3.33362 7.27367C3.35507 7.30428 3.36658 7.34074 3.36658 7.37811C3.36658 7.41549 3.35507 7.45195 3.33362 7.48255C3.31217 7.51316 3.28182 7.53642 3.24669 7.54917L2.85546 7.69292C2.83089 7.70203 2.80858 7.71634 2.79005 7.73487C2.77152 7.7534 2.75721 7.77571 2.7481 7.80028L2.60434 8.19152C2.59159 8.22665 2.56833 8.257 2.53773 8.27845C2.50713 8.2999 2.47066 8.3114 2.43329 8.3114C2.39592 8.3114 2.35945 8.2999 2.32885 8.27845C2.29825 8.257 2.27499 8.22665 2.26224 8.19152L2.11848 7.80028C2.10937 7.77571 2.09506 7.7534 2.07653 7.73487C2.058 7.71634 2.03569 7.70203 2.01112 7.69292L1.61989 7.54917C1.58476 7.53642 1.55441 7.51316 1.53296 7.48255C1.51151 7.45195 1.5 7.41549 1.5 7.37811C1.5 7.34074 1.51151 7.30428 1.53296 7.27367C1.55441 7.24307 1.58476 7.21981 1.61989 7.20706L2.01112 7.06331C2.03569 7.0542 2.058 7.03989 2.07653 7.02136C2.09506 7.00283 2.10937 6.98052 2.11848 6.95594L2.26224 6.56471C2.27499 6.52958 2.29825 6.49923 2.32885 6.47778C2.35945 6.45633 2.39592 6.44482 2.43329 6.44482C2.47066 6.44482 2.50713 6.45633 2.53773 6.47778C2.56833 6.49923 2.59159 6.52958 2.60434 6.56471L2.7481 6.95594ZM12.3552 10.8674C12.3797 10.9329 12.4316 10.9857 12.4971 11.0093L13.0121 11.2004C13.2214 11.2768 13.2214 11.5734 13.0121 11.6508L12.4971 11.8409C12.4646 11.8529 12.4351 11.8718 12.4106 11.8963C12.3861 11.9208 12.3672 11.9504 12.3552 11.9829L12.1641 12.4978C12.147 12.5438 12.1163 12.5834 12.0761 12.6114C12.0358 12.6394 11.988 12.6544 11.9389 12.6544C11.8899 12.6544 11.842 12.6394 11.8018 12.6114C11.7615 12.5834 11.7308 12.5438 11.7137 12.4978L11.5236 11.9829C11.5116 11.9504 11.4926 11.9208 11.4681 11.8963C11.4436 11.8718 11.4141 11.8529 11.3816 11.8409L10.8667 11.6498C10.8207 11.6328 10.7811 11.6021 10.7531 11.5618C10.7251 11.5216 10.7101 11.4737 10.7101 11.4247C10.7101 11.3756 10.7251 11.3278 10.7531 11.2875C10.7811 11.2473 10.8207 11.2165 10.8667 11.1995L11.3816 11.0093C11.4141 10.9973 11.4436 10.9784 11.4681 10.9539C11.4926 10.9294 11.5116 10.8999 11.5236 10.8674L11.7146 10.3524C11.7911 10.1431 12.0877 10.1431 12.165 10.3524L12.3552 10.8674Z" fill="currentColor" fill-opacity="0.4"/>
  <path d="M9.46853 4.71725L11.3974 2.78746C11.4397 2.74509 11.4899 2.71148 11.5451 2.68855C11.6004 2.66561 11.6597 2.65381 11.7195 2.65381C11.7793 2.65381 11.8386 2.66561 11.8939 2.68855C11.9491 2.71148 11.9993 2.74509 12.0416 2.78746L13.9714 4.71634C14.0137 4.75859 14.0473 4.8088 14.0703 4.86406C14.0932 4.91933 14.105 4.97858 14.105 5.03842C14.105 5.09826 14.0932 5.15751 14.0703 5.21278C14.0473 5.26805 14.0137 5.31825 13.9714 5.36051L12.0425 7.29029L6.25131 13.0806L4.96479 14.3671C4.87948 14.4524 4.76379 14.5003 4.64316 14.5003C4.52253 14.5003 4.40684 14.4524 4.32153 14.3671L2.39174 12.4373C2.30646 12.352 2.25854 12.2363 2.25854 12.1157C2.25854 11.995 2.30646 11.8793 2.39174 11.794L9.46853 4.71725ZM13.0069 5.03842L11.7195 3.7519L10.433 5.03842L11.7204 6.32495L13.0069 5.03842Z" fill="currentColor"/>
</svg>
