<svg width="24" height="24" viewBox="0 0 24 24" fill="none" xmlns="http://www.w3.org/2000/svg">
  <path fill-rule="evenodd" clip-rule="evenodd" d="M17.1442 3C21.0014 3 23.5728 5.57143 23.5728 10.7143V15.8571C23.5728 18.4286 22.2871 21 19.7156 21H19.3813C17.9838 21 16.6774 20.3019 15.9021 19.1383C15.9021 19.1383 14.6088 17.1429 12.0014 17.1429C9.39393 17.1429 8.09933 19.1267 8.09933 19.1267C7.32533 20.2967 6.01498 21 4.61227 21H4.28707C1.71565 21 0.429932 18.4286 0.429932 15.8571V10.7143C0.429932 5.57143 3.00136 3 6.8585 3H17.1442ZM7.82263 11.6785H9.42977C9.96206 11.6785 10.3941 11.2465 10.3941 10.7142C10.3941 10.1819 9.96206 9.74992 9.42977 9.74992H7.82263V8.14278C7.82263 7.61049 7.39063 7.17849 6.85835 7.17849C6.32606 7.17849 5.89406 7.61049 5.89406 8.14278V9.74992H4.28692C3.75463 9.74992 3.32263 10.1819 3.32263 10.7142C3.32263 11.2465 3.75463 11.6785 4.28692 11.6785H5.89406V13.2856C5.89406 13.8179 6.32606 14.2499 6.85835 14.2499C7.39063 14.2499 7.82263 13.8179 7.82263 13.2856V11.6785ZM14.2512 12.3213C14.2512 13.0311 14.8272 13.6071 15.5369 13.6071C16.2466 13.6071 16.8226 13.0311 16.8226 12.3213C16.8226 11.6116 16.2466 11.0356 15.5369 11.0356C14.8272 11.0356 14.2512 11.6116 14.2512 12.3213ZM17.4655 9.10832C17.4655 9.81803 18.0415 10.394 18.7512 10.394C19.4609 10.394 20.0369 9.81803 20.0369 9.10832C20.0369 8.39861 19.4609 7.82261 18.7512 7.82261C18.0415 7.82261 17.4655 8.39861 17.4655 9.10832Z" fill="currentColor"/>
</svg>
