<svg xmlns="http://www.w3.org/2000/svg" width="28.00048828125" height="28" viewBox="0 0 28.00048828125 28" fill="none">
    <path d="M27.9335 5.7938C27.9665 5.87372 27.9875 5.95674 27.9961 6.04284C28.0047 6.12896 28.0005 6.21444 27.9837 6.29934C27.9669 6.38423 27.938 6.46483 27.8972 6.54119C27.8565 6.61754 27.8055 6.68631 27.7445 6.74755L24.2445 10.2475C24.1622 10.3295 24.0674 10.3927 23.9601 10.4369C23.8528 10.4812 23.741 10.5033 23.625 10.503L18.7372 10.503L16.3695 12.8708C16.4136 12.9631 16.4521 13.0576 16.4852 13.1544C16.5182 13.2512 16.5455 13.3495 16.5671 13.4495C16.5885 13.5495 16.6042 13.6504 16.614 13.7522C16.6236 13.854 16.6274 13.956 16.6252 14.0582C16.6231 14.1605 16.6149 14.2623 16.6008 14.3635C16.5867 14.4648 16.5668 14.565 16.541 14.664C16.5152 14.7629 16.4838 14.86 16.4467 14.9552C16.4095 15.0505 16.367 15.1433 16.3191 15.2336C16.271 15.3239 16.2179 15.4111 16.1598 15.4953C16.1016 15.5794 16.0387 15.6598 15.9712 15.7366C15.9036 15.8134 15.8318 15.8859 15.7557 15.9543C15.6797 16.0227 15.5999 16.0864 15.5164 16.1454C15.4329 16.2045 15.3463 16.2586 15.2565 16.3074C15.1666 16.3563 15.0743 16.3998 14.9795 16.438C14.8845 16.4761 14.7877 16.5086 14.6891 16.5353C14.5904 16.5621 14.4905 16.5831 14.3894 16.5983C14.2882 16.6135 14.1865 16.6227 14.0843 16.6259C13.9821 16.6291 13.88 16.6263 13.7781 16.6177C13.6762 16.6091 13.5752 16.5945 13.475 16.574C13.3748 16.5535 13.2761 16.5273 13.179 16.4952C13.0819 16.4632 12.9869 16.4257 12.8942 16.3825C12.8015 16.3395 12.7115 16.2911 12.6245 16.2374C12.5374 16.1838 12.4537 16.1253 12.3735 16.0619C12.2932 15.9986 12.217 15.9307 12.1447 15.8584C12.0724 15.7861 12.0045 15.7098 11.9411 15.6295C11.8777 15.5492 11.8192 15.4656 11.7656 15.3785C11.712 15.2915 11.6636 15.2016 11.6205 15.1089C11.5774 15.0161 11.5398 14.9211 11.5078 14.824C11.4758 14.7269 11.4495 14.6283 11.429 14.528C11.4086 14.4278 11.394 14.3268 11.3853 14.2249C11.3766 14.123 11.3739 14.0209 11.3772 13.9187C11.3804 13.8165 11.3896 13.7149 11.4047 13.6137C11.4199 13.5126 11.4408 13.4127 11.4677 13.314C11.4944 13.2153 11.5269 13.1185 11.5651 13.0236C11.6032 12.9287 11.6467 12.8364 11.6956 12.7466C11.7445 12.6568 11.7985 12.5701 11.8576 12.4866C11.9166 12.4031 11.9803 12.3233 12.0487 12.2473C12.117 12.1712 12.1896 12.0994 12.2664 12.0318C12.3431 11.9643 12.4236 11.9014 12.5077 11.8432C12.5918 11.7851 12.679 11.732 12.7693 11.684C12.8596 11.636 12.9524 11.5935 13.0477 11.5564C13.143 11.5192 13.2401 11.4878 13.3391 11.462C13.438 11.4362 13.5382 11.4163 13.6395 11.4022C13.7408 11.3881 13.8425 11.38 13.9448 11.3778C14.047 11.3756 14.149 11.3794 14.2508 11.3891C14.3526 11.3989 14.4535 11.4145 14.5535 11.436C14.6535 11.4576 14.7518 11.4849 14.8486 11.5179C14.9454 11.5509 15.0399 11.5895 15.1322 11.6335L17.5 9.2658L17.5 4.37805C17.4997 4.26193 17.5219 4.15021 17.5661 4.04287C17.6104 3.93552 17.6734 3.84074 17.7555 3.75855L21.2555 0.258545C21.3166 0.197202 21.3853 0.146073 21.4618 0.105158C21.5383 0.0642551 21.619 0.0353274 21.7038 0.0183757C21.7887 0.0014357 21.8743 -0.00279337 21.9606 0.00568813C22.0468 0.01417 22.1301 0.0350009 22.2101 0.0681809C22.2901 0.101349 22.3636 0.145438 22.4304 0.200445C22.4975 0.255455 22.5549 0.319009 22.603 0.391108C22.6511 0.463197 22.6877 0.540715 22.7127 0.623665C22.7377 0.706605 22.7502 0.791397 22.75 0.878045L22.75 5.25305L27.125 5.25305C27.2116 5.25306 27.2963 5.26565 27.3791 5.29079C27.4618 5.31596 27.5394 5.3526 27.6113 5.40073C27.6832 5.44885 27.7467 5.50639 27.8015 5.57335C27.8565 5.6403 27.9004 5.71379 27.9335 5.7938ZM25.0127 7.00305L21.875 7.00305C21.8176 7.00305 21.7607 6.99745 21.7044 6.98623C21.648 6.97501 21.5932 6.95842 21.5402 6.93644C21.4872 6.91444 21.4366 6.88749 21.3888 6.85557C21.3411 6.82365 21.297 6.78738 21.2562 6.74676C21.2156 6.70614 21.1794 6.66194 21.1475 6.61416C21.1155 6.5664 21.0885 6.51597 21.0667 6.46289C21.0446 6.40981 21.028 6.35509 21.0168 6.29874C21.0056 6.24241 21 6.1855 21 6.12805L21 2.9903L19.25 4.7403L19.25 8.75305L23.2627 8.75305L25.0127 7.00305ZM27.3122 9.6543C27.7585 11.0228 28 12.4858 28 14.003C28 14.2475 27.9935 14.4918 27.9805 14.7359C27.9678 14.9801 27.9485 15.2238 27.923 15.4669C27.8972 15.71 27.8654 15.9523 27.8271 16.1937C27.7887 16.4352 27.7441 16.6755 27.6932 16.9145C27.6423 17.1537 27.5852 17.3913 27.5219 17.6274C27.4585 17.8637 27.389 18.0978 27.3134 18.3302C27.2378 18.5628 27.1561 18.7931 27.0684 19.0213C26.9808 19.2495 26.8871 19.4752 26.7877 19.6985C26.6882 19.9218 26.583 20.1425 26.4719 20.3602C26.3607 20.5781 26.244 20.7928 26.1217 21.0044C25.9994 21.2161 25.8716 21.4246 25.7384 21.6295C25.6053 21.8346 25.4667 22.0358 25.3228 22.2334C25.1791 22.4312 25.0302 22.6251 24.8764 22.8149C24.7224 23.005 24.5635 23.1907 24.3999 23.3723C24.2362 23.554 24.0681 23.7311 23.895 23.9038C23.7221 24.0767 23.5448 24.2449 23.363 24.4083C23.1812 24.5718 22.9953 24.7305 22.8053 24.8841C22.6152 25.038 22.4213 25.1867 22.2234 25.3302C22.0255 25.4739 21.8241 25.6121 21.619 25.7451C21.4139 25.8783 21.2054 26.0059 20.9937 26.128C20.7818 26.2502 20.567 26.3666 20.3492 26.4775C20.1313 26.5885 19.9106 26.6935 19.6871 26.7927C19.4638 26.8921 19.2381 26.9855 19.0097 27.0729C18.7813 27.1604 18.551 27.2419 18.3185 27.3173C18.0859 27.3928 17.8514 27.4621 17.6153 27.5251C17.3792 27.5882 17.1415 27.6451 16.9023 27.6959C16.6632 27.7466 16.4228 27.7909 16.1814 27.829C15.9398 27.8672 15.6975 27.8989 15.4544 27.9242C15.2113 27.9496 14.9676 27.9687 14.7234 27.9813C14.4792 27.9939 14.2349 28.0002 13.9905 28C13.746 27.9998 13.5017 27.9932 13.2576 27.9802C13.0134 27.9673 12.7698 27.948 12.5267 27.9221C12.2836 27.8966 12.0413 27.8646 11.7999 27.8261C11.5585 27.7876 11.3182 27.7429 11.0791 27.6918C10.84 27.6409 10.6024 27.5837 10.3663 27.5202C10.1302 27.4568 9.89594 27.3872 9.66351 27.3114C9.43104 27.2358 9.20074 27.1539 8.97257 27.066C8.74441 26.9784 8.51869 26.8847 8.29543 26.785C8.07216 26.6854 7.85168 26.5801 7.63395 26.4688C7.41621 26.3578 7.20152 26.2409 6.98991 26.1184C6.77829 25.9961 6.57002 25.8682 6.36511 25.7348C6.16019 25.6016 5.95888 25.463 5.76124 25.319C5.56358 25.1752 5.36982 25.0262 5.17996 24.8722C4.9901 24.7182 4.80441 24.5593 4.62288 24.3955C4.44134 24.2319 4.26422 24.0636 4.09151 23.8905C3.91879 23.7176 3.75074 23.5401 3.58732 23.3581C3.42391 23.1765 3.26536 22.9905 3.11169 22.8002C2.958 22.6102 2.80941 22.4161 2.66591 22.2182C2.52239 22.0203 2.38416 21.8187 2.25122 21.6136C2.11825 21.4085 1.99076 21.1999 1.86875 20.9879C1.74671 20.7762 1.63031 20.5613 1.51955 20.3432C1.40877 20.1254 1.30378 19.9047 1.20457 19.6812C1.10537 19.4579 1.01207 19.232 0.92469 19.0036C0.83732 18.7754 0.755978 18.5449 0.680671 18.3122C0.605375 18.0798 0.536215 17.8453 0.473191 17.609C0.410168 17.3728 0.353368 17.1351 0.302793 16.896C0.252218 16.6568 0.207944 16.4165 0.169969 16.175C0.131994 15.9335 0.10036 15.6911 0.0750667 15.448C0.049785 15.2048 0.0308848 14.9611 0.0183666 14.717C0.00584834 14.4729 -0.000270784 14.2285 9.17911e-06 13.9841C0.000277459 13.7396 0.00695068 13.4953 0.0200293 13.2512C0.0331073 13.007 0.0525675 12.7634 0.0784092 12.5203C0.104251 12.2772 0.136433 12.0349 0.174957 11.7935C0.213491 11.5521 0.258315 11.3119 0.309426 11.0728C0.360538 10.8337 0.41788 10.5962 0.481451 10.3601C0.545011 10.124 0.614708 9.88979 0.690541 9.65738C0.766375 9.42496 0.848233 9.19469 0.936118 8.96656C1.02401 8.73843 1.11783 8.51277 1.21755 8.28956C1.31727 8.06635 1.42276 7.8459 1.53402 7.62822C1.64529 7.41053 1.76218 7.1959 1.8847 6.98434C2.0072 6.77278 2.13517 6.56457 2.26859 6.35971C2.40201 6.15486 2.5407 5.95362 2.68465 5.75603C2.82861 5.55844 2.97764 5.36475 3.13174 5.17496C3.28585 4.98517 3.44482 4.79955 3.60865 4.61809C3.77249 4.43664 3.94094 4.25961 4.11405 4.08697C4.28716 3.91433 4.46467 3.74635 4.64658 3.58302C4.82847 3.41969 5.01453 3.26123 5.20474 3.10763C5.39495 2.95405 5.58904 2.80555 5.78703 2.66214C5.98501 2.51872 6.18661 2.38058 6.39185 2.24772C6.59706 2.11486 6.80562 1.98746 7.01753 1.86554C7.22942 1.74361 7.44437 1.62731 7.66235 1.51664C7.88033 1.40597 8.10107 1.30108 8.32457 1.20197C8.54804 1.10286 8.77397 1.00967 9.00234 0.922409C9.2307 0.83513 9.46119 0.753895 9.69382 0.678703C9.92643 0.603512 10.1609 0.534457 10.3971 0.471538C10.6334 0.40862 10.8711 0.351932 11.1103 0.301474C11.3495 0.251015 11.5899 0.206852 11.8314 0.168981C12.0729 0.131111 12.3152 0.0995876 12.5584 0.0744109C12.8016 0.0492459 13.0453 0.0304567 13.2894 0.0180432C13.5336 0.00563014 13.7779 -0.000378431 14.0224 1.83582e-05C14.2668 0.000403256 14.5111 0.0071935 14.7553 0.0203886C14.9993 0.0335718 15.2429 0.0531424 15.4861 0.0791005C15.7292 0.105047 15.9715 0.137341 16.2128 0.17598C16.4542 0.21462 16.6944 0.259555 16.9335 0.310783C17.1725 0.362012 17.4101 0.419459 17.6461 0.483123C17.8822 0.5468 18.1163 0.616607 18.3487 0.692547L16.9347 2.10655C16.7201 2.05363 16.5042 2.00655 16.2871 1.96532C16.0698 1.92409 15.8517 1.88876 15.6327 1.85934C15.4136 1.82992 15.1939 1.80644 14.9735 1.7889C14.7531 1.77139 14.5324 1.75984 14.3115 1.75425C14.0905 1.74866 13.8695 1.74906 13.6486 1.75544C13.4276 1.76183 13.207 1.77417 12.9867 1.79249C12.7664 1.81081 12.5468 1.83509 12.3278 1.86529C12.1088 1.89551 11.8908 1.93162 11.6738 1.97363C11.4568 2.01565 11.2411 2.0635 11.0267 2.1172C10.8122 2.17089 10.5994 2.23034 10.3882 2.29556C10.177 2.36077 9.96767 2.43164 9.7603 2.50819C9.55293 2.58473 9.34777 2.66683 9.14484 2.75448C8.94191 2.84214 8.7415 2.93521 8.54361 3.0337C8.34571 3.1322 8.15062 3.23598 7.95836 3.34504C7.76607 3.4541 7.5769 3.56829 7.3908 3.68758C7.20471 3.80688 7.02197 3.93113 6.84262 4.06033C6.66324 4.18952 6.48751 4.32346 6.31539 4.46217C6.14326 4.60089 5.97504 4.74415 5.81068 4.89195C5.64632 5.03977 5.48607 5.19192 5.32995 5.34842C5.17382 5.50491 5.02204 5.6655 4.87462 5.83021C4.72718 5.99491 4.58431 6.16348 4.44603 6.33593C4.30771 6.50836 4.17417 6.68442 4.0454 6.8641C3.91664 7.04377 3.79281 7.22678 3.67395 7.41314C3.55509 7.59952 3.44134 7.78897 3.33273 7.98151C3.22413 8.17402 3.12081 8.36936 3.02277 8.56748C2.92474 8.76559 2.83213 8.96623 2.74496 9.16937C2.65777 9.37249 2.57615 9.57784 2.5001 9.78541C2.42405 9.99296 2.35364 10.2024 2.28893 10.4138C2.22421 10.6251 2.16526 10.8381 2.11207 11.0527C2.05887 11.2672 2.01154 11.483 1.97003 11.7002C1.92852 11.9173 1.8929 12.1354 1.86322 12.3544C1.83351 12.5735 1.80976 12.7931 1.79195 13.0135C1.77413 13.2338 1.7623 13.4545 1.75644 13.6754C1.75058 13.8964 1.7507 14.1174 1.75681 14.3383C1.7629 14.5593 1.77497 14.7799 1.79301 15.0002C1.81106 15.2206 1.83505 15.4403 1.86499 15.6592C1.89492 15.8782 1.93076 16.0963 1.97249 16.3134C2.01423 16.5305 2.06181 16.7463 2.11524 16.9607C2.16865 17.1753 2.22784 17.3882 2.29278 17.5994C2.35772 17.8108 2.42833 18.0201 2.50463 18.2275C2.5809 18.435 2.66274 18.6403 2.75014 18.8433C2.83753 19.0463 2.93035 19.2469 3.0286 19.445C3.12684 19.6431 3.23037 19.8382 3.33919 20.0305C3.448 20.223 3.56195 20.4124 3.68102 20.5986C3.80007 20.7848 3.92409 20.9676 4.05307 21.1472C4.18202 21.3267 4.31574 21.5028 4.45424 21.675C4.59273 21.8472 4.73577 22.0157 4.88339 22.1802C5.03098 22.3447 5.18293 22.5052 5.33923 22.6615C5.49552 22.8179 5.65592 22.9698 5.82044 23.1175C5.98496 23.2652 6.15334 23.4082 6.32561 23.5466C6.49788 23.6852 6.67376 23.8191 6.85327 23.9479C7.03277 24.077 7.21563 24.2011 7.40186 24.3201C7.58808 24.4393 7.77738 24.5532 7.96977 24.6621C8.16217 24.7709 8.35736 24.8745 8.55537 24.9727C8.75337 25.071 8.95387 25.164 9.1569 25.2513C9.35992 25.3388 9.56516 25.4207 9.77262 25.497C9.98006 25.5733 10.1894 25.644 10.4007 25.7089C10.612 25.774 10.8249 25.8332 11.0394 25.8865C11.2539 25.9401 11.4696 25.9879 11.6867 26.0295C11.9038 26.0713 12.1218 26.1072 12.3408 26.1371C12.5598 26.1672 12.7795 26.1912 12.9998 26.2092C13.2201 26.2274 13.4408 26.2395 13.6617 26.2456C13.8827 26.2518 14.1036 26.2519 14.3246 26.246C14.5456 26.2402 14.7662 26.2285 14.9866 26.2106C15.2069 26.193 15.4266 26.1693 15.6457 26.1396C15.8648 26.1098 16.0829 26.0743 16.3 26.0328C16.5171 25.9915 16.733 25.9441 16.9475 25.8909C17.1621 25.8377 17.375 25.7789 17.5864 25.7142C17.7978 25.6496 18.0073 25.5792 18.2149 25.5031C18.4224 25.4272 18.6277 25.3456 18.8309 25.2585C19.034 25.1713 19.2348 25.0787 19.4329 24.9807C19.631 24.8827 19.8263 24.7795 20.0189 24.6708C20.2114 24.5623 20.401 24.4487 20.5873 24.3297C20.7737 24.2111 20.9568 24.0872 21.1365 23.9584C21.3162 23.8298 21.4923 23.6962 21.6646 23.5578C21.837 23.4196 22.0057 23.2768 22.1704 23.1294C22.3351 22.9821 22.4957 22.8302 22.6523 22.6741C22.809 22.5181 22.961 22.358 23.1089 22.1935C23.2568 22.0292 23.3999 21.861 23.5387 21.6888C23.6775 21.5168 23.8115 21.3411 23.9407 21.1617C24.07 20.9825 24.1943 20.7998 24.3136 20.6136C24.4329 20.4276 24.5472 20.2384 24.6562 20.0461C24.7653 19.8539 24.8692 19.6588 24.9677 19.4609C25.0663 19.2631 25.1594 19.0628 25.247 18.8598C25.3347 18.6569 25.4168 18.4518 25.4934 18.2443C25.5699 18.0371 25.641 17.8278 25.7062 17.6166C25.7715 17.4053 25.831 17.1925 25.8847 16.9782C25.9385 16.7638 25.9862 16.5481 26.0284 16.3311C26.0704 16.1139 26.1065 15.896 26.1367 15.6771C26.167 15.4581 26.1913 15.2384 26.2097 15.018C26.2281 14.7978 26.2405 14.5772 26.247 14.3562C26.2535 14.1352 26.2538 13.9143 26.2482 13.6933C26.2428 13.4724 26.2312 13.2517 26.2137 13.0313C26.1962 12.811 26.1728 12.5913 26.1434 12.3722C26.114 12.1531 26.0786 11.9349 26.0375 11.7178C25.9964 11.5006 25.9493 11.2847 25.8965 11.07L27.3122 9.6543ZM22.575 12.253C22.606 12.4053 22.6331 12.5584 22.656 12.7121C22.6789 12.8658 22.6977 13.0201 22.7124 13.1748C22.7271 13.3296 22.7376 13.4846 22.744 13.6399C22.7505 13.7952 22.7528 13.9505 22.7509 14.1059C22.7489 14.2613 22.743 14.4166 22.7328 14.5718C22.7227 14.7268 22.7085 14.8815 22.6901 15.0359C22.6718 15.1902 22.6492 15.344 22.6228 15.4972C22.5962 15.6503 22.5655 15.8026 22.5309 15.9541C22.4961 16.1057 22.4574 16.2562 22.4147 16.4056C22.372 16.5551 22.3254 16.7032 22.2749 16.8501C22.2243 16.9971 22.1697 17.1427 22.1114 17.2867C22.053 17.4308 21.9908 17.5732 21.9249 17.7139C21.8589 17.8547 21.7892 17.9937 21.7159 18.1305C21.6426 18.2677 21.5658 18.4027 21.4851 18.5355C21.4046 18.6685 21.3206 18.7992 21.2331 18.9277C21.1456 19.0561 21.0548 19.1823 20.9604 19.3058C20.8661 19.4294 20.7688 19.5505 20.6682 19.6688C20.5676 19.7873 20.4638 19.9029 20.3569 20.0158C20.2499 20.1289 20.1402 20.2388 20.0275 20.3457C19.9148 20.4528 19.7993 20.5569 19.6812 20.6577C19.5629 20.7585 19.442 20.8562 19.3186 20.9507C19.1952 21.0452 19.0692 21.1362 18.9409 21.224C18.8127 21.3119 18.6821 21.396 18.5493 21.4767C18.4165 21.5576 18.2817 21.6347 18.1449 21.7082C18.0078 21.7819 17.8691 21.8519 17.7285 21.9181C17.588 21.9842 17.4457 22.0467 17.3017 22.1053C17.1577 22.1639 17.0123 22.2187 16.8654 22.2695C16.7185 22.3204 16.5704 22.3673 16.4211 22.4103C16.2717 22.4534 16.1212 22.4922 15.9698 22.5272C15.8183 22.5622 15.6661 22.5932 15.513 22.62C15.36 22.6469 15.2062 22.6697 15.0519 22.6882C14.8976 22.707 14.7429 22.7215 14.5878 22.7318C14.4328 22.7423 14.2775 22.7486 14.1221 22.7507C13.9667 22.7528 13.8113 22.7509 13.656 22.7448C13.5007 22.7386 13.3456 22.7283 13.1908 22.714C13.0361 22.6996 12.8818 22.6811 12.728 22.6583C12.5743 22.6357 12.4212 22.609 12.2688 22.5782C12.1165 22.5475 11.9651 22.5127 11.8145 22.4739C11.6641 22.435 11.5147 22.3923 11.3665 22.3454C11.2183 22.2985 11.0714 22.2478 10.9259 22.1932C10.7804 22.1386 10.6364 22.0801 10.494 22.0178C10.3516 21.9555 10.211 21.8895 10.0721 21.8195C9.93322 21.7499 9.7963 21.6764 9.66134 21.5992C9.52636 21.5222 9.39354 21.4415 9.26288 21.3574C9.13221 21.2732 9.00388 21.1855 8.87788 21.0945C8.75188 21.0035 8.62838 20.9094 8.50742 20.8117C8.38645 20.7141 8.26816 20.6133 8.15256 20.5093C8.03695 20.4055 7.92418 20.2986 7.81428 20.1887C7.70438 20.0788 7.59748 19.9661 7.49358 19.8504C7.38966 19.7349 7.28892 19.6166 7.19134 19.4955C7.09374 19.3746 6.99943 19.2511 6.90843 19.1251C6.8174 18.9991 6.72981 18.8708 6.64564 18.7401C6.56146 18.6095 6.48082 18.4767 6.40373 18.3416C6.32663 18.2067 6.25318 18.0698 6.18339 17.9309C6.11358 17.7921 6.04752 17.6514 5.98522 17.5089C5.92292 17.3667 5.86445 17.2227 5.80982 17.0771C5.75518 16.9316 5.70445 16.7848 5.65766 16.6366C5.61084 16.4883 5.56802 16.3389 5.52917 16.1884C5.49032 16.0379 5.4555 15.8865 5.42473 15.7341C5.39395 15.5818 5.36724 15.4287 5.34463 15.2749C5.32201 15.1212 5.30349 14.9669 5.28911 14.8122C5.2747 14.6574 5.26443 14.5024 5.25831 14.3471C5.25216 14.1918 5.25017 14.0364 5.2523 13.881C5.25444 13.7255 5.26072 13.5703 5.27115 13.4152C5.28155 13.2601 5.29609 13.1054 5.31476 12.9511C5.33342 12.7968 5.35617 12.6431 5.38301 12.49C5.40987 12.3369 5.44078 12.1847 5.47574 12.0332C5.51071 11.8817 5.54968 11.7313 5.59268 11.582C5.63566 11.4326 5.68258 11.2845 5.73345 11.1376C5.78432 10.9907 5.83908 10.8453 5.8977 10.7014C5.95631 10.5574 6.01873 10.4151 6.08495 10.2745C6.15116 10.1339 6.22105 9.99509 6.29466 9.85819C6.36826 9.72129 6.44545 9.58645 6.52625 9.45366C6.60703 9.32087 6.69129 9.19032 6.77904 9.06203C6.86678 8.93373 6.95787 8.80786 7.05234 8.68441C7.14678 8.56098 7.24445 8.44015 7.34536 8.3219C7.44624 8.20365 7.55021 8.08819 7.65726 7.9755C7.7643 7.8628 7.87427 7.75303 7.98718 7.64619C8.10006 7.53935 8.21572 7.43561 8.33416 7.33493C8.45258 7.23426 8.57359 7.13682 8.69721 7.04258C8.82083 6.94836 8.94687 6.8575 9.07533 6.76998C9.20378 6.68248 9.33449 6.59846 9.46744 6.51791C9.60037 6.43738 9.73534 6.36043 9.87239 6.28709C10.0094 6.21374 10.1483 6.14409 10.2891 6.07814C10.4298 6.0122 10.5722 5.95005 10.7163 5.89169C10.8603 5.83333 11.0059 5.77885 11.1528 5.72824C11.2998 5.67765 11.448 5.63099 11.5974 5.58829C11.7469 5.54558 11.8974 5.50688 12.0489 5.4722C12.2004 5.43751 12.3527 5.40689 12.5059 5.38032C12.659 5.35376 12.8128 5.33129 12.9671 5.31291C13.1215 5.29454 13.2762 5.28029 13.4313 5.27016C13.5864 5.26003 13.7417 5.25404 13.8971 5.25219C14.0525 5.25033 14.2078 5.25263 14.3631 5.25905C14.5184 5.26547 14.6734 5.27602 14.8283 5.29071C14.983 5.30539 15.1372 5.32418 15.291 5.34709C15.4447 5.37 15.5977 5.39698 15.75 5.42805L15.75 7.22355C15.6271 7.19185 15.5035 7.16354 15.3792 7.13857C15.2548 7.11359 15.1298 7.09203 15.0043 7.07385C14.8788 7.05569 14.7529 7.04093 14.6267 7.02961C14.5003 7.01829 14.3737 7.0104 14.2469 7.00593C14.1202 7.00149 13.9934 7.00049 13.8666 7.00292C13.7397 7.00537 13.6131 7.01125 13.4866 7.02058C13.3601 7.02991 13.2339 7.04267 13.1081 7.05885C12.9823 7.07504 12.8571 7.09464 12.7323 7.11764C12.6076 7.14063 12.4835 7.167 12.3603 7.19674C12.2369 7.22647 12.1145 7.25954 11.993 7.29593C11.8715 7.33233 11.7511 7.372 11.6317 7.41493C11.5124 7.45787 11.3943 7.50402 11.2774 7.55337C11.1606 7.60274 11.0452 7.65524 10.9312 7.71087C10.8172 7.7665 10.7048 7.82518 10.594 7.88692C10.4832 7.94866 10.3742 8.01337 10.2669 8.08105C10.1596 8.14872 10.0542 8.21924 9.95079 8.29264C9.84733 8.36605 9.74595 8.44219 9.64666 8.5211C9.54734 8.60001 9.45025 8.68156 9.35539 8.76575C9.2605 8.84994 9.16798 8.93664 9.07782 9.02585C8.98766 9.11507 8.89998 9.20666 8.81481 9.30066C8.72962 9.39463 8.64704 9.49086 8.5671 9.58934C8.48714 9.68781 8.40993 9.78836 8.33545 9.89104C8.26097 9.99371 8.18933 10.0983 8.12053 10.2049C8.05172 10.3114 7.98587 10.4198 7.92298 10.5299C7.86006 10.6401 7.8002 10.7519 7.74336 10.8652C7.68652 10.9786 7.63281 11.0935 7.58223 11.2098C7.53164 11.3261 7.48425 11.4437 7.44006 11.5626C7.39586 11.6815 7.35491 11.8015 7.31725 11.9226C7.27957 12.0438 7.24522 12.1658 7.21419 12.2888C7.18315 12.4118 7.15548 12.5355 7.13117 12.66C7.10685 12.7845 7.08594 12.9096 7.06844 13.0352C7.05092 13.1608 7.03683 13.2868 7.02617 13.4132C7.01552 13.5396 7.00829 13.6662 7.00451 13.793C7.00073 13.9198 7.0004 14.0466 7.00351 14.1733C7.00663 14.3001 7.01317 14.4268 7.02318 14.5532C7.03317 14.6797 7.0466 14.8058 7.06345 14.9314C7.08028 15.0572 7.10053 15.1824 7.12419 15.307C7.14785 15.4316 7.17487 15.5555 7.20527 15.6787C7.23563 15.8017 7.26935 15.924 7.30638 16.0453C7.34341 16.1666 7.38371 16.2868 7.42729 16.406C7.47085 16.5251 7.51762 16.6429 7.5676 16.7595C7.61757 16.8761 7.67066 16.9913 7.72691 17.1049C7.78313 17.2187 7.84241 17.3308 7.90474 17.4413C7.96708 17.5518 8.03235 17.6605 8.10058 17.7672C8.16882 17.8743 8.2399 17.9793 8.31386 18.0822C8.38779 18.1853 8.46448 18.2863 8.54391 18.3852C8.62334 18.4842 8.7054 18.5808 8.7901 18.6751C8.87477 18.7696 8.96195 18.8617 9.05166 18.9513C9.14134 19.0411 9.23341 19.1282 9.32784 19.2129C9.42227 19.2976 9.51892 19.3797 9.61782 19.4591C9.71671 19.5386 9.81768 19.6152 9.92074 19.6891C10.0238 19.7631 10.1288 19.8342 10.2357 19.9024C10.3426 19.9707 10.4513 20.0359 10.5618 20.0982C10.6723 20.1605 10.7844 20.2199 10.8981 20.276C11.0118 20.3324 11.1269 20.3854 11.2435 20.4355C11.3601 20.4855 11.4779 20.5322 11.597 20.5756C11.7162 20.6194 11.8364 20.6596 11.9577 20.6966C12.079 20.7337 12.2012 20.7674 12.3244 20.7977C12.4475 20.8282 12.5714 20.8553 12.696 20.8787C12.8206 20.9025 12.9458 20.9227 13.0715 20.9395C13.1973 20.9564 13.3233 20.9699 13.4498 20.9799C13.5762 20.9899 13.7028 20.9963 13.8297 20.9995C13.9565 21.0026 14.0833 21.0023 14.21 20.9984C14.3368 20.9948 14.4634 20.9876 14.5897 20.9767C14.7162 20.9662 14.8423 20.9521 14.9679 20.9346C15.0934 20.9171 15.2184 20.8962 15.3429 20.8717C15.4674 20.8476 15.5912 20.8199 15.7143 20.7888C15.8372 20.7578 15.9593 20.7235 16.0804 20.6857C16.2015 20.6481 16.3215 20.6071 16.4404 20.5629C16.5592 20.5188 16.6768 20.4715 16.7932 20.4208C16.9095 20.3702 17.0243 20.3165 17.1377 20.2596C17.2511 20.2029 17.3629 20.143 17.473 20.08C17.5831 20.0172 17.6916 19.9514 17.7982 19.8825C17.9048 19.8137 18.0092 19.7421 18.112 19.6676C18.2147 19.593 18.3151 19.5158 18.4137 19.4359C18.5122 19.3561 18.6084 19.2735 18.7024 19.1882C18.7964 19.103 18.8879 19.0153 18.9772 18.9252C19.0664 18.8351 19.153 18.7425 19.2372 18.6477C19.3214 18.5528 19.4029 18.4557 19.4819 18.3563C19.5608 18.2571 19.6371 18.1557 19.7104 18.0521C19.7837 17.9489 19.8543 17.8435 19.922 17.7361C19.9897 17.6288 20.0543 17.5198 20.1161 17.4091C20.1778 17.2982 20.2365 17.1858 20.2921 17.0718C20.3478 16.9579 20.4003 16.8424 20.4496 16.7255C20.499 16.6087 20.5452 16.4907 20.588 16.3713C20.6309 16.252 20.6706 16.1315 20.707 16.0099C20.7434 15.8885 20.7765 15.7661 20.8063 15.6428C20.836 15.5195 20.8624 15.3955 20.8854 15.2707C20.9083 15.146 20.9279 15.0207 20.9442 14.8948C20.9604 14.7691 20.9732 14.643 20.9825 14.5165C20.9918 14.3899 20.9977 14.2632 21.0002 14.1364C21.0026 14.0096 21.0016 13.8829 20.997 13.7561C20.9926 13.6294 20.9848 13.5028 20.9734 13.3765C20.962 13.2501 20.9473 13.1242 20.9291 12.9987C20.9111 12.8731 20.8896 12.7482 20.8645 12.6238C20.8395 12.4994 20.8112 12.3759 20.7795 12.253L22.575 12.253Z"   fill="currentColor" >
    </path>
</svg>
