<svg xmlns="http://www.w3.org/2000/svg"  width="14" height="13.221923828125" viewBox="0 0 14 13.221923828125" fill="none">
    <path fill-rule="evenodd"  fill="currentColor"  d="M2.33333 2.33333L0 2.33333L0 0L2.33333 0L2.33333 2.33333ZM14 1.94426L3.8889 1.94426L3.8889 0.3887L14 0.3887L14 1.94426ZM2.33333 7.77763L0 7.77763L0 5.4443L2.33333 5.4443L2.33333 7.77763ZM3.8889 7.38906L14 7.38906L14 5.8335L3.8889 5.8335L3.8889 7.38906ZM2.33333 13.222L0 13.222L0 10.8887L2.33333 10.8887L2.33333 13.222ZM3.8889 12.8334L14 12.8334L14 11.2778L3.8889 11.2778L3.8889 12.8334Z">
    </path>
</svg>
