<svg xmlns="http://www.w3.org/2000/svg" width="12" height="12" viewBox="0 0 12 12" fill="none">
    <path d="M4.5 0C4.46717 0 4.43465 0.00320339 4.40245 0.00960994C4.37025 0.01601 4.33899 0.0254934 4.30866 0.0380599C4.27833 0.0506268 4.24951 0.0660267 4.22221 0.08426C4.19492 0.1025 4.16966 0.12323 4.14645 0.14645C4.12323 0.169663 4.1025 0.194917 4.08426 0.22221C4.06602 0.24951 4.05062 0.278327 4.03806 0.30866C4.02549 0.338993 4.01601 0.370257 4.00961 0.40245C4.0032 0.43465 4 0.467167 4 0.5C4 0.532833 4.0032 0.565347 4.00961 0.59754C4.01601 0.62974 4.02549 0.661007 4.03806 0.69134C4.05062 0.721673 4.06602 0.750487 4.08426 0.77778C4.1025 0.80508 4.12323 0.830337 4.14645 0.85355C4.16966 0.87677 4.19492 0.897497 4.22221 0.91573C4.24951 0.93397 4.27833 0.949373 4.30866 0.96194C4.33899 0.9745 4.37025 0.983983 4.40245 0.99039C4.43465 0.996797 4.46717 1 4.5 1L5.5 1L5.5 11L4.5 11C4.46717 11 4.43465 11.0032 4.40245 11.0096C4.37025 11.016 4.33899 11.0255 4.30866 11.0381C4.27833 11.0506 4.24951 11.066 4.22221 11.0843C4.19492 11.1025 4.16966 11.1232 4.14645 11.1464C4.12323 11.1697 4.1025 11.1949 4.08426 11.2222C4.06602 11.2495 4.05062 11.2784 4.03806 11.3087C4.02549 11.339 4.01601 11.3703 4.00961 11.4025C4.0032 11.4347 4 11.4672 4 11.5C4 11.5328 4.0032 11.5653 4.00961 11.5975C4.01601 11.6297 4.02549 11.661 4.03806 11.6913C4.05062 11.7216 4.06602 11.7505 4.08426 11.7778C4.1025 11.8051 4.12323 11.8303 4.14645 11.8536C4.16966 11.8768 4.19492 11.8975 4.22221 11.9157C4.24951 11.934 4.27833 11.9494 4.30866 11.9619C4.33899 11.9745 4.37025 11.984 4.40245 11.9904C4.43465 11.9968 4.46717 12 4.5 12L7.5 12C7.53283 12 7.56535 11.9968 7.59754 11.9904C7.62974 11.984 7.66101 11.9745 7.69134 11.9619C7.72167 11.9494 7.75049 11.934 7.77778 11.9157C7.80508 11.8975 7.83034 11.8768 7.85355 11.8536C7.87676 11.8303 7.89749 11.8051 7.91573 11.7778C7.93397 11.7505 7.94937 11.7216 7.96194 11.6913C7.9745 11.661 7.98398 11.6297 7.99039 11.5975C7.9968 11.5653 8 11.5328 8 11.5C8 11.4672 7.9968 11.4347 7.99039 11.4025C7.98398 11.3703 7.9745 11.339 7.96194 11.3087C7.94937 11.2784 7.93397 11.2495 7.91574 11.2222C7.8975 11.1949 7.87677 11.1697 7.85355 11.1464C7.83034 11.1232 7.80508 11.1025 7.77778 11.0843C7.75049 11.066 7.72167 11.0506 7.69134 11.0381C7.66101 11.0255 7.62974 11.016 7.59754 11.0096C7.56535 11.0032 7.53283 11 7.5 11L6.5 11L6.5 1L7.5 1C7.53283 1 7.56535 0.996797 7.59754 0.99039C7.62974 0.983983 7.66101 0.9745 7.69134 0.96194C7.72167 0.949373 7.75049 0.93397 7.77778 0.91573C7.80508 0.897497 7.83034 0.87677 7.85355 0.85355C7.87676 0.830337 7.89749 0.805083 7.91573 0.77779C7.93397 0.75049 7.94937 0.721673 7.96194 0.69134C7.9745 0.661007 7.98398 0.629743 7.99039 0.59755C7.9968 0.56535 8 0.532833 8 0.5C8 0.467167 7.9968 0.43465 7.99039 0.40245C7.98398 0.370257 7.9745 0.338993 7.96194 0.30866C7.94937 0.278327 7.93397 0.24951 7.91574 0.22221C7.8975 0.194917 7.87677 0.169663 7.85355 0.14645C7.83034 0.12323 7.80508 0.102503 7.77778 0.08427C7.75049 0.06603 7.72167 0.0506268 7.69134 0.0380599C7.66101 0.0254934 7.62974 0.01601 7.59754 0.00960994C7.56535 0.00320339 7.53283 0 7.5 0L4.5 0ZM2 2L4.5 2L4.5 3L2 3C1.93434 3 1.86931 3.0064 1.80491 3.01921C1.74051 3.03202 1.67798 3.05099 1.61732 3.07612C1.55665 3.10125 1.49902 3.13205 1.44443 3.16853C1.38984 3.20501 1.33932 3.24646 1.29289 3.29289C1.24646 3.33932 1.20501 3.38984 1.16853 3.44443C1.13205 3.49902 1.10125 3.55665 1.07612 3.61732C1.05099 3.67798 1.03202 3.74051 1.01921 3.80491C1.0064 3.86931 1 3.93434 1 4L1 7.997C1 8.06267 1.0064 8.1277 1.01921 8.1921C1.03202 8.2565 1.05099 8.31903 1.07612 8.3797C1.10125 8.44037 1.13205 8.498 1.16853 8.5526C1.20501 8.6072 1.24646 8.6577 1.29289 8.7041C1.33932 8.7505 1.38984 8.79197 1.44443 8.8285C1.49902 8.86497 1.55665 8.89577 1.61732 8.9209C1.67798 8.94603 1.74051 8.965 1.80491 8.9778C1.86931 8.9906 1.93434 8.997 2 8.997L4.5 8.997L4.5 9.997L2 9.997C1.9345 9.997 1.86916 9.9938 1.80397 9.9874C1.73878 9.98093 1.67407 9.97133 1.60982 9.9586C1.54557 9.9458 1.48211 9.9299 1.41943 9.9109C1.35675 9.8919 1.29515 9.86987 1.23463 9.8448C1.17412 9.81973 1.11498 9.79173 1.05721 9.7608C0.999437 9.72993 0.94332 9.6963 0.88886 9.6599C0.834393 9.62357 0.781843 9.5846 0.73121 9.543C0.680577 9.50147 0.632103 9.45753 0.58579 9.4112C0.53947 9.36487 0.495533 9.3164 0.45398 9.2658C0.412427 9.21513 0.373453 9.16257 0.33706 9.1081C0.300667 9.05363 0.267033 8.99753 0.23616 8.9398C0.20528 8.882 0.177307 8.82287 0.15224 8.7624C0.127173 8.70187 0.105133 8.64027 0.0861199 8.5776C0.0671067 8.51487 0.0512099 8.4514 0.03843 8.3872C0.02565 8.32293 0.0160501 8.2582 0.00962996 8.193C0.00321007 8.12787 0 8.06253 0 7.997L0 4C0 3.9345 0.00321007 3.86916 0.00962996 3.80397C0.0160501 3.73878 0.02565 3.67406 0.03843 3.60982C0.0512099 3.54557 0.0671067 3.48211 0.0861199 3.41943C0.105133 3.35675 0.127173 3.29515 0.15224 3.23463C0.177307 3.17412 0.20528 3.11498 0.23616 3.05721C0.267033 2.99944 0.300667 2.94332 0.33706 2.88886C0.373453 2.8344 0.412427 2.78185 0.45398 2.73121C0.495533 2.68058 0.53947 2.6321 0.58579 2.58579C0.632103 2.53947 0.680577 2.49553 0.73121 2.45398C0.781843 2.41243 0.834393 2.37345 0.88886 2.33706C0.94332 2.30067 0.999437 2.26703 1.05721 2.23616C1.11498 2.20528 1.17412 2.17731 1.23463 2.15224C1.29515 2.12717 1.35675 2.10513 1.41943 2.08612C1.48211 2.06711 1.54557 2.05121 1.60982 2.03843C1.67407 2.02565 1.73878 2.01605 1.80397 2.00963C1.86916 2.00321 1.9345 2 2 2ZM10 8.997L7.5 8.997L7.5 9.997L10 9.997C10.0655 9.997 10.1309 9.9938 10.196 9.9874C10.2612 9.98093 10.3259 9.97133 10.3902 9.9586C10.4544 9.9458 10.5179 9.9299 10.5806 9.9109C10.6433 9.8919 10.7049 9.86987 10.7654 9.8448C10.8259 9.81973 10.885 9.79173 10.9428 9.7608C11.0005 9.72993 11.0566 9.6963 11.1111 9.6599C11.1656 9.62357 11.2181 9.5846 11.2688 9.543C11.3194 9.50147 11.3679 9.45753 11.4142 9.4112C11.4605 9.36487 11.5045 9.3164 11.546 9.2658C11.5876 9.21513 11.6266 9.16257 11.6629 9.1081C11.6993 9.05363 11.7329 8.99753 11.7638 8.9398C11.7947 8.882 11.8227 8.82287 11.8478 8.7624C11.8729 8.70187 11.8949 8.64027 11.9139 8.5776C11.9329 8.51487 11.9488 8.4514 11.9616 8.3872C11.9743 8.32293 11.9839 8.2582 11.9904 8.193C11.9968 8.12787 12 8.06253 12 7.997L12 4C12 3.9345 11.9968 3.86916 11.9904 3.80397C11.9839 3.73878 11.9743 3.67406 11.9616 3.60982C11.9488 3.54557 11.9329 3.48211 11.9139 3.41943C11.8949 3.35675 11.8729 3.29515 11.8478 3.23463C11.8227 3.17412 11.7947 3.11498 11.7638 3.05721C11.7329 2.99944 11.6993 2.94332 11.6629 2.88886C11.6266 2.83439 11.5876 2.78184 11.546 2.73121C11.5045 2.68058 11.4605 2.6321 11.4142 2.58579C11.3679 2.53947 11.3194 2.49553 11.2688 2.45398C11.2181 2.41243 11.1656 2.37345 11.1111 2.33706C11.0566 2.30067 11.0005 2.26703 10.9428 2.23616C10.885 2.20528 10.8259 2.17731 10.7654 2.15224C10.7049 2.12717 10.6433 2.10513 10.5806 2.08612C10.5179 2.06711 10.4544 2.05121 10.3902 2.03843C10.3259 2.02565 10.2612 2.01605 10.196 2.00963C10.1309 2.00321 10.0655 2 10 2L7.5 2L7.5 3L10 3C10.0657 3 10.1307 3.0064 10.1951 3.01921C10.2595 3.03202 10.322 3.05099 10.3827 3.07612C10.4434 3.10125 10.501 3.13205 10.5556 3.16853C10.6102 3.20501 10.6607 3.24646 10.7071 3.29289C10.7535 3.33932 10.795 3.38984 10.8315 3.44443C10.868 3.49902 10.8988 3.55665 10.9239 3.61732C10.949 3.67798 10.968 3.74051 10.9808 3.80491C10.9936 3.86931 11 3.93434 11 4L11 7.997C11 8.06267 10.9936 8.1277 10.9808 8.1921C10.968 8.2565 10.949 8.31903 10.9239 8.3797C10.8988 8.44037 10.868 8.498 10.8315 8.5526C10.795 8.6072 10.7535 8.6577 10.7071 8.7041C10.6607 8.7505 10.6102 8.79197 10.5556 8.8285C10.501 8.86497 10.4434 8.89577 10.3827 8.9209C10.322 8.94603 10.2595 8.965 10.1951 8.9778C10.1307 8.9906 10.0657 8.997 10 8.997Z"   fill="currentColor" >
    </path>
</svg>
