<svg xmlns="http://www.w3.org/2000/svg" width="13.1136474609375" height="12.727294921875"
    viewBox="0 0 13.1136474609375 12.727294921875" fill="currentColor">
    <path
        d="M6.8054 8.66547C7.2654 8.66547 7.57207 8.20547 7.4054 7.78547L4.57204 0.578773C4.55552 0.536387 4.53593 0.495471 4.51327 0.456027C4.49061 0.416582 4.46513 0.379051 4.43683 0.343433C4.40854 0.307815 4.37774 0.274511 4.34444 0.24352C4.31115 0.212525 4.27572 0.184191 4.23816 0.15852C4.20061 0.132849 4.16135 0.110127 4.12037 0.0903533C4.07941 0.0705753 4.0372 0.0539687 3.99373 0.0405332C3.95027 0.0270977 3.90605 0.0169843 3.86107 0.0101932C3.81609 0.00339763 3.77086 0 3.72537 0C3.67988 0 3.63465 0.00339763 3.58966 0.0101932C3.54469 0.0169843 3.50047 0.0270977 3.457 0.0405332C3.41354 0.0539687 3.37133 0.0705753 3.33036 0.0903533C3.28939 0.110127 3.25013 0.132849 3.21257 0.15852C3.17503 0.184191 3.1396 0.212525 3.10629 0.24352C3.073 0.274511 3.0422 0.307815 3.0139 0.343433C2.98561 0.379051 2.96013 0.416582 2.93747 0.456027C2.91481 0.495471 2.89522 0.536387 2.8787 0.578773L0.0453696 7.78547C-0.121297 8.20547 0.192036 8.66547 0.64537 8.66547C0.912033 8.66547 1.15203 8.4988 1.25203 8.24547L1.8387 6.66544L5.59871 6.66544L6.1987 8.25213C6.2987 8.4988 6.5387 8.66547 6.8054 8.66547ZM2.34537 5.33211L3.72537 1.65211L5.10537 5.33211L2.34537 5.33211ZM11.9854 6.19211L7.05873 11.1188L5.0787 9.1388C5.04786 9.10793 5.01428 9.0804 4.97797 9.05613C4.9417 9.03187 4.90339 9.0114 4.86303 8.99473C4.82273 8.978 4.78117 8.9654 4.73837 8.95687C4.69557 8.94833 4.65235 8.94413 4.6087 8.94413C4.56506 8.94413 4.52183 8.94833 4.47903 8.95687C4.43623 8.9654 4.39466 8.978 4.35435 8.99473C4.31402 9.0114 4.27571 9.03187 4.23942 9.05613C4.20314 9.0804 4.16957 9.10793 4.1387 9.1388C4.10784 9.1696 4.08029 9.2032 4.05604 9.23953C4.03179 9.2758 4.01132 9.31407 3.99461 9.35447C3.97791 9.39473 3.96531 9.43633 3.95679 9.47913C3.94828 9.52193 3.94402 9.56513 3.94402 9.6088C3.94402 9.6524 3.94828 9.69567 3.95679 9.73847C3.96531 9.78127 3.97791 9.8228 3.99461 9.86313C4.01132 9.90347 4.03179 9.9418 4.05604 9.97807C4.08029 10.0143 4.10784 10.0479 4.1387 10.0788L6.59203 12.5321C6.85207 12.7921 7.27207 12.7921 7.53207 12.5321L12.9187 7.1388C12.9496 7.10793 12.9772 7.0744 13.0015 7.03813C13.0258 7.00187 13.0463 6.96353 13.063 6.9232C13.0797 6.88287 13.0924 6.84133 13.1009 6.79853C13.1094 6.75567 13.1137 6.7124 13.1137 6.6688C13.1137 6.62513 13.1094 6.58189 13.1009 6.53904C13.0924 6.49624 13.0797 6.45469 13.063 6.41437C13.0463 6.37402 13.0258 6.33571 13.0015 6.29944C12.9772 6.26317 12.9496 6.22962 12.9187 6.19877C12.8882 6.16802 12.8551 6.14053 12.8192 6.11631C12.7833 6.09209 12.7453 6.07157 12.7055 6.05477C12.6655 6.03797 12.6244 6.02522 12.582 6.01651C12.5396 6.00779 12.4967 6.00329 12.4535 6.00297C12.4101 6.00266 12.3672 6.00657 12.3247 6.01471C12.2821 6.02279 12.2408 6.03495 12.2007 6.05117C12.1605 6.06739 12.1223 6.08737 12.0861 6.11111C12.0499 6.13479 12.0163 6.16179 11.9854 6.19211Z">
    </path>
</svg>