<svg width="24" height="24" viewBox="0 0 24 24" fill="none" xmlns="http://www.w3.org/2000/svg">
  <path
    d="M10.75 3.66899C10.1875 3.67661 9.84977 3.70918 9.5767 3.84831C9.2631 4.0081 9.00813 4.26307 8.84834 4.57667C8.70921 4.84974 8.67664 5.18745 8.66902 5.74999M18.25 3.66899C18.8126 3.67661 19.1503 3.70918 19.4233 3.84831C19.7369 4.0081 19.9919 4.26307 20.1517 4.57667C20.2908 4.84974 20.3234 5.18744 20.331 5.74998M20.331 13.25C20.3234 13.8125 20.2908 14.1502 20.1517 14.4233C19.9919 14.7369 19.7369 14.9919 19.4233 15.1517C19.1503 15.2908 18.8126 15.3234 18.25 15.331M20.3334 8.66665V10.3333M13.6667 3.66666H15.3333M6.33335 20.3333H12.6667C13.6001 20.3333 14.0668 20.3333 14.4233 20.1517C14.7369 19.9919 14.9919 19.7369 15.1517 19.4233C15.3334 19.0668 15.3334 18.6001 15.3334 17.6667V11.3333C15.3334 10.3999 15.3334 9.93319 15.1517 9.57667C14.9919 9.26307 14.7369 9.0081 14.4233 8.84831C14.0668 8.66666 13.6001 8.66666 12.6667 8.66666H6.33335C5.39993 8.66666 4.93322 8.66666 4.5767 8.84831C4.2631 9.0081 4.00813 9.26307 3.84834 9.57667C3.66669 9.93319 3.66669 10.3999 3.66669 11.3333V17.6667C3.66669 18.6001 3.66669 19.0668 3.84834 19.4233C4.00813 19.7369 4.2631 19.9919 4.5767 20.1517C4.93322 20.3333 5.39993 20.3333 6.33335 20.3333Z"
    stroke="currentColor" stroke-width="2" stroke-linecap="round" stroke-linejoin="round" />
</svg>