<svg width="24" height="24" viewBox="0 0 24 24" fill="none" xmlns="http://www.w3.org/2000/svg">
  <path
    d="M11.8091 4.96036C11.2733 5.09431 10.9476 5.63724 11.0815 6.17304C11.2155 6.70883 11.7584 7.03459 12.2942 6.90064L11.8091 4.96036ZM10.4966 20.0172L10.7026 19.0386H10.7026L10.4966 20.0172ZM6.75917 19.2303L6.96518 18.2518L6.75917 19.2303ZM18.7481 12.1305C18.7481 12.6827 19.1959 13.1305 19.7481 13.1305C20.3004 13.1305 20.7481 12.6827 20.7481 12.1305H18.7481ZM13.8611 20.8055C14.4015 20.6917 14.7474 20.1614 14.6336 19.6209C14.5199 19.0805 13.9895 18.7346 13.4491 18.8484L13.8611 20.8055ZM12.7516 20.0172L12.5456 19.0386L12.5456 19.0386L12.7516 20.0172ZM11.3405 20.1678L11.4234 19.1712L11.4234 19.1712L11.3405 20.1678ZM11.9077 20.1678L11.8248 19.1712L11.8248 19.1712L11.9077 20.1678ZM3.71159 17.4828L2.79407 17.8805L2.79407 17.8805L3.71159 17.4828ZM4.5822 18.5558L4.00403 19.3717H4.00403L4.5822 18.5558ZM17.9402 4.84111L17.6449 5.79652V5.79652L17.9402 4.84111ZM19.3768 5.96279L20.2321 5.4446V5.4446L19.3768 5.96279ZM3.50135 7.51261L4.50082 7.54504L3.50135 7.51261ZM6.50086 6.08764C7.0413 6.20142 7.57165 5.85554 7.68542 5.3151C7.7992 4.77466 7.45332 4.24432 6.91288 4.13054L6.50086 6.08764ZM6.51233 5.06952L6.33816 6.05423V6.05423L6.51233 5.06952ZM11.0517 8.78706C11.0517 9.33935 11.4994 9.78706 12.0517 9.78706C12.6039 9.78706 13.0517 9.33935 13.0517 8.78706H11.0517ZM10.921 4.9951L11.4803 4.16614V4.16614L10.921 4.9951ZM9.58759 4.09542L9.02828 4.92438L9.58759 4.09542ZM7.72012 17.2038L7.95684 16.2322L7.95683 16.2322L7.72012 17.2038ZM7.96964 17.2646L7.73292 18.2362L7.73293 18.2362L7.96964 17.2646ZM10.5359 20.6375C10.7474 21.1477 11.3324 21.3898 11.8426 21.1783C12.3528 20.9668 12.5949 20.3817 12.3834 19.8716L10.5359 20.6375ZM4.5 15.2136V7.71113H2.5V15.2136H4.5ZM12.2942 6.90064L14.8903 6.25161L14.4053 4.31132L11.8091 4.96036L12.2942 6.90064ZM10.7026 19.0386L6.96518 18.2518L6.55315 20.2089L10.2906 20.9957L10.7026 19.0386ZM18.7481 9.2637V12.1305H20.7481V9.2637H18.7481ZM13.4491 18.8484L12.5456 19.0386L12.9576 20.9957L13.8611 20.8055L13.4491 18.8484ZM10.2906 20.9957C10.6883 21.0794 10.9688 21.1403 11.2576 21.1643L11.4234 19.1712C11.2872 19.1599 11.1468 19.1321 10.7026 19.0386L10.2906 20.9957ZM12.5456 19.0386C12.1014 19.1321 11.9609 19.1599 11.8248 19.1712L11.9906 21.1643C12.2793 21.1403 12.5599 21.0794 12.9576 20.9957L12.5456 19.0386ZM11.2576 21.1643C11.5015 21.1846 11.7467 21.1846 11.9906 21.1643L11.8248 19.1712C11.6912 19.1823 11.557 19.1823 11.4234 19.1712L11.2576 21.1643ZM2.5 15.2136C2.5 15.7926 2.49937 16.2809 2.52917 16.6841C2.5599 17.0999 2.62642 17.4937 2.79407 17.8805L4.62912 17.0851C4.58517 16.9837 4.5459 16.8366 4.52373 16.5367C4.50063 16.2242 4.5 15.8219 4.5 15.2136H2.5ZM6.96518 18.2518C6.3699 18.1265 5.97639 18.043 5.67534 17.956C5.38641 17.8725 5.25053 17.8038 5.16037 17.7399L4.00403 19.3717C4.34799 19.6154 4.71964 19.7617 5.12019 19.8774C5.50862 19.9896 5.98653 20.0896 6.55315 20.2089L6.96518 18.2518ZM2.79407 17.8805C3.05342 18.4789 3.47192 18.9946 4.00403 19.3717L5.16037 17.7399C4.92674 17.5743 4.74299 17.3479 4.62912 17.0851L2.79407 17.8805ZM14.8903 6.25161C15.7774 6.02984 16.379 5.88038 16.8453 5.8067C17.3042 5.73418 17.5158 5.75662 17.6449 5.79652L18.2355 3.8857C17.68 3.71401 17.1147 3.73931 16.5331 3.83121C15.959 3.92194 15.2567 4.09846 14.4053 4.31132L14.8903 6.25161ZM20.7481 9.2637C20.7481 8.38604 20.7491 7.66193 20.6978 7.08292C20.646 6.49647 20.5334 5.94189 20.2321 5.4446L18.5216 6.48098C18.5916 6.59655 18.6647 6.79641 18.7056 7.25918C18.7472 7.72941 18.7481 8.34933 18.7481 9.2637H20.7481ZM17.6449 5.79652C18.0111 5.90968 18.323 6.15322 18.5216 6.48098L20.2321 5.4446C19.7798 4.6981 19.0694 4.14343 18.2355 3.8857L17.6449 5.79652ZM4.5 7.71113C4.5 7.59804 4.50014 7.5662 4.50082 7.54504L2.50187 7.48019C2.49986 7.54219 2.5 7.61498 2.5 7.71113H4.5ZM6.91288 4.13054C6.81879 4.11073 6.7476 4.09561 6.68651 4.0848L6.33816 6.05423C6.35901 6.05792 6.3902 6.06434 6.50086 6.08764L6.91288 4.13054ZM4.50082 7.54504C4.53173 6.59239 5.39959 5.88822 6.33816 6.05423L6.68651 4.0848C4.54885 3.7067 2.57227 5.31049 2.50187 7.48019L4.50082 7.54504ZM13.0517 8.78706V7.12181H11.0517V8.78706H13.0517ZM11.4803 4.16614L10.1469 3.26645L9.02828 4.92438L10.3617 5.82407L11.4803 4.16614ZM5.92066 5.51322V16.1862H7.92066V5.51322H5.92066ZM7.4834 18.1754L7.73292 18.2362L8.20636 16.293L7.95684 16.2322L7.4834 18.1754ZM7.73293 18.2362C8.9966 18.5441 10.0377 19.436 10.5359 20.6375L12.3834 19.8716C11.6411 18.0811 10.0895 16.7518 8.20636 16.293L7.73293 18.2362ZM5.92066 16.1862C5.92066 17.1302 6.56617 17.9519 7.4834 18.1754L7.95683 16.2322C7.9356 16.227 7.92066 16.208 7.92066 16.1862H5.92066ZM10.1469 3.26645C8.34676 2.05191 5.92066 3.34168 5.92066 5.51322H7.92066C7.92066 4.9441 8.5565 4.60607 9.02828 4.92438L10.1469 3.26645ZM13.0517 7.12181C13.0517 5.93667 12.4628 4.82899 11.4803 4.16614L10.3617 5.82407C10.7931 6.1151 11.0517 6.60145 11.0517 7.12181H13.0517Z"
    fill="currentColor" />
  <path
    d="M17.0503 13.4746C17.1796 12.8418 18.0838 12.8418 18.2132 13.4746C18.4989 14.8723 19.5911 15.9646 20.9888 16.2503C21.6217 16.3796 21.6217 17.2838 20.9888 17.4132C19.5911 17.6989 18.4988 18.7911 18.2132 20.1888C18.0838 20.8217 17.1796 20.8217 17.0503 20.1888C16.7646 18.7911 15.6723 17.6989 14.2746 17.4132C13.6418 17.2838 13.6418 16.3796 14.2746 16.2503C15.6723 15.9646 16.7646 14.8723 17.0503 13.4746Z"
    fill="currentColor" stroke="currentColor" stroke-width="0.270628" />
</svg>
