<svg width="24" height="24" viewBox="0 0 24 24" fill="none" xmlns="http://www.w3.org/2000/svg">
  <path
    d="M11.0892 22.2537C9.62431 21.9341 8.14781 21.2995 6.78069 20.3422C3.01057 17.7023 1.26204 13.4415 2.25061 10M18.4105 9.50002C20.9764 12.6303 21.0892 16 20.0892 17.5C18.0892 20.5 14.0892 18.5 14.0892 18.5M8.58918 5.11718C10.712 4.92764 13.0633 5.46267 15.2095 6.75002M9.38295 16.4077C8.89475 16.4225 8.49505 16.0228 8.50985 15.5346C8.5491 14.2394 9.08116 13.008 9.99743 12.0917L17.675 4.41422C18.456 3.63317 19.7223 3.63317 20.5034 4.41422C21.2844 5.19527 21.2844 6.4616 20.5034 7.24264L12.8259 14.9202C11.9096 15.8364 10.6782 16.3685 9.38295 16.4077Z"
    stroke="currentColor" stroke-width="2" stroke-linecap="round" />
</svg>
