<svg width="24" height="24" viewBox="0 0 24 24" fill="none" xmlns="http://www.w3.org/2000/svg">
  <path d="M22.0591 7.30078L18.1698 3.4115C17.8794 3.12112 17.48 2.97331 17.0686 3.005C17.0298 3.00165 16.9923 3 16.9555 3H14.8834L14.7381 3.08084C13.9705 3.50782 12.991 3.74294 11.9802 3.74294C10.9693 3.74294 9.98986 3.50782 9.22224 3.08084L9.07688 3H7.00475C6.47641 3 6.00151 3.28822 5.75599 3.746L1.91155 7.59047C1.64616 7.85583 1.5 8.20865 1.5 8.58394C1.5 8.95924 1.64616 9.31205 1.91152 9.57743L4.72042 12.3864C4.95547 12.6214 5.25915 12.7628 5.58628 12.7918V19.5803C5.58628 20.3624 6.2226 20.9988 7.00472 20.9988H16.9555C17.7377 20.9988 18.374 20.3624 18.374 19.5803L18.374 12.5031C18.705 12.4761 19.0126 12.3341 19.2501 12.0967L22.0591 9.28774C22.607 8.73993 22.607 7.84858 22.0591 7.30078Z" fill="currentColor"/>
</svg>
