<svg width="24" height="24" viewBox="0 0 24 24" fill="none" xmlns="http://www.w3.org/2000/svg">
  <path d="M13.9378 4.05856C14.2976 4.40827 14.4976 4.8904 14.4976 5.3935V18.8289C14.4976 19.8755 13.6488 20.7236 12.6029 20.7236C12.0985 20.7236 11.616 20.5238 11.2679 20.1638L7.82425 16.7201C7.72828 16.6241 7.61435 16.548 7.48896 16.4961C7.36357 16.4441 7.22918 16.4174 7.09346 16.4174H5.75597C4.23466 16.4238 3 15.1901 3 13.6614V10.561C3 9.04649 4.23466 7.81282 5.75599 7.80496H7.07365C7.34673 7.80497 7.6087 7.6969 7.80235 7.50436L11.2679 4.05856C12.0005 3.31412 13.2009 3.31351 13.9378 4.05856ZM18.6564 6.92195C20.1308 8.22078 21 10.1565 21 12.2404C21 14.3242 20.1308 16.26 18.6564 17.5588C18.3709 17.8103 17.9355 17.7828 17.6839 17.4972C17.4324 17.2117 17.46 16.7763 17.7455 16.5248C18.9221 15.4883 19.622 13.9296 19.622 12.2404C19.622 10.5512 18.9221 8.99241 17.7455 7.95595C17.46 7.70442 17.4324 7.26904 17.684 6.98352C17.9355 6.69798 18.3709 6.6704 18.6564 6.92195ZM16.6 8.93274C17.4876 9.74379 18.0072 10.9376 18.0072 12.2183C18.0072 13.4996 17.487 14.6941 16.5985 15.5052C16.3175 15.7617 15.8817 15.7419 15.6251 15.4609C15.3711 15.1826 15.388 14.7528 15.6611 14.4952L15.6694 14.4875L15.6874 14.4709C16.2773 13.9226 16.6292 13.1058 16.6292 12.2183C16.6292 11.3223 16.2706 10.4984 15.6704 9.94994C15.3895 9.69325 15.3699 9.25744 15.6266 8.97654C15.8833 8.69564 16.3191 8.67602 16.6 8.93274Z" fill="currentColor"/>
</svg>
