<svg width="24" height="24" viewBox="0 0 24 24" fill="none" xmlns="http://www.w3.org/2000/svg">
<path d="M20.1133 7.53809C20.3684 7.04844 20.9721 6.85833 21.4619 7.11328C21.9514 7.36845 22.1416 7.97222 21.8867 8.46191C21.4958 9.2128 20.9197 9.87987 20.2227 10.4512C20.1572 10.5049 20.0874 10.5542 20.0195 10.6064L22.2109 12.7979C22.6012 13.1884 22.6013 13.8214 22.2109 14.2119C21.8205 14.6024 21.1874 14.6022 20.7969 14.2119L18.2607 11.6758C17.4741 12.0514 16.6054 12.3553 15.6777 12.5762L16.4893 15.6045C16.6321 16.1378 16.3155 16.687 15.7822 16.8301C15.2489 16.9729 14.7006 16.6554 14.5576 16.1221L13.6973 12.9111C13.1429 12.9684 12.5758 13 12 13C11.4202 13 10.849 12.9682 10.291 12.9102L9.43066 16.123C9.28756 16.6561 8.73922 16.9727 8.20605 16.8301C7.67259 16.6871 7.35609 16.138 7.49902 15.6045L8.31055 12.5732C7.38809 12.3528 6.52399 12.0504 5.74121 11.6768L3.20703 14.2119C2.81658 14.6024 2.18351 14.6022 1.79297 14.2119C1.40261 13.8214 1.4025 13.1883 1.79297 12.7979L3.98145 10.6084C3.913 10.5558 3.84336 10.5053 3.77734 10.4512C3.08027 9.87988 2.50423 9.21275 2.11328 8.46191C1.85831 7.97211 2.04839 7.36837 2.53809 7.11328C3.02785 6.85847 3.63166 7.04846 3.88672 7.53809C4.13045 8.00621 4.51604 8.47083 5.04492 8.9043C6.54375 10.1326 9.06065 11 12 11C14.9394 10.9999 17.4564 10.1326 18.9551 8.9043C19.484 8.47078 19.8696 8.00621 20.1133 7.53809Z" fill="currentColor"/>
</svg>
