<svg width="24" height="24" viewBox="0 0 24 24" fill="none" xmlns="http://www.w3.org/2000/svg">
<path d="M19 2C20.6569 2 22 3.34315 22 5V19C22 20.6051 20.7394 21.9158 19.1543 21.9961L19 22H5L4.8457 21.9961C3.31166 21.9184 2.08163 20.6883 2.00391 19.1543L2 19V5C2 3.34315 3.34315 2 5 2H19ZM5 3.75C4.30964 3.75 3.75 4.30964 3.75 5V19C3.75 19.6904 4.30964 20.25 5 20.25H19C19.6904 20.25 20.25 19.6904 20.25 19V5C20.25 4.30964 19.6904 3.75 19 3.75H5ZM8.5 6.125C8.98325 6.125 9.375 6.51675 9.375 7V11.293C10.2534 11.6415 10.875 12.4975 10.875 13.5C10.875 14.5023 10.2532 15.3574 9.375 15.7061V17C9.375 17.4832 8.98325 17.875 8.5 17.875C8.01675 17.875 7.625 17.4832 7.625 17V15.7061C6.74681 15.3574 6.125 14.5023 6.125 13.5C6.125 12.4975 6.74663 11.6415 7.625 11.293V7C7.625 6.51675 8.01675 6.125 8.5 6.125ZM15.5 6.125C15.9832 6.125 16.375 6.51675 16.375 7V8.29297C17.2534 8.6415 17.875 9.49753 17.875 10.5C17.875 11.5023 17.2532 12.3574 16.375 12.7061V17C16.375 17.4832 15.9832 17.875 15.5 17.875C15.0168 17.875 14.625 17.4832 14.625 17V12.7061C13.7468 12.3574 13.125 11.5023 13.125 10.5C13.125 9.49753 13.7466 8.6415 14.625 8.29297V7C14.625 6.51675 15.0168 6.125 15.5 6.125ZM8.5 12.875C8.15482 12.875 7.875 13.1548 7.875 13.5C7.875 13.8452 8.15482 14.125 8.5 14.125C8.84518 14.125 9.125 13.8452 9.125 13.5C9.125 13.1548 8.84518 12.875 8.5 12.875ZM15.5 9.875C15.1548 9.875 14.875 10.1548 14.875 10.5C14.875 10.8452 15.1548 11.125 15.5 11.125C15.8452 11.125 16.125 10.8452 16.125 10.5C16.125 10.1548 15.8452 9.875 15.5 9.875Z" fill="currentColor"/>
</svg>
