<svg width="24" height="24" viewBox="0 0 24 24" fill="none" xmlns="http://www.w3.org/2000/svg">
<path d="M20 4.625C21.6524 4.625 22.875 6.05439 22.875 7.66699V16.333C22.875 17.9456 21.6524 19.375 20 19.375H4C2.34756 19.375 1.125 17.9456 1.125 16.333V7.66699C1.125 6.05439 2.34756 4.625 4 4.625H20ZM4 6.375C3.44331 6.375 2.875 6.88636 2.875 7.66699V16.333C2.875 17.1136 3.44331 17.625 4 17.625H20C20.5567 17.625 21.125 17.1136 21.125 16.333V7.66699C21.125 6.88636 20.5567 6.375 20 6.375H4ZM8 9.125C8.48325 9.125 8.875 9.51675 8.875 10V11.125H10C10.4832 11.125 10.875 11.5168 10.875 12C10.875 12.4832 10.4832 12.875 10 12.875H8.875V14C8.875 14.4832 8.48325 14.875 8 14.875C7.51675 14.875 7.125 14.4832 7.125 14V12.875H6C5.51675 12.875 5.125 12.4832 5.125 12C5.125 11.5168 5.51675 11.125 6 11.125H7.125V10C7.125 9.51675 7.51675 9.125 8 9.125ZM15.0098 12C15.5621 12 16.0098 12.4477 16.0098 13C16.0098 13.5523 15.5621 14 15.0098 14H15C14.4477 14 14 13.5523 14 13C14 12.4477 14.4477 12 15 12H15.0098ZM18.0098 10C18.562 10 19.0098 10.4477 19.0098 11C19.0098 11.5523 18.562 12 18.0098 12H18C17.4477 12 17 11.5523 17 11C17 10.4477 17.4477 10 18 10H18.0098Z" fill="currentColor"/>
</svg>
