<svg width="24" height="24" viewBox="0 0 24 24" fill="none" xmlns="http://www.w3.org/2000/svg">
<path fill-rule="evenodd" clip-rule="evenodd" d="M9.93935 2.69824C10.1295 3.21636 10.4387 3.63825 10.8095 3.92383C11.1781 4.20759 11.5936 4.34668 12.0038 4.34668C12.414 4.3466 12.8296 4.20766 13.1981 3.92383C13.5689 3.63824 13.8772 3.21632 14.0673 2.69824L14.2782 2.125H16.1239L16.3739 2.13281C16.9538 2.16871 17.5201 2.32845 18.0429 2.60059C18.6396 2.91133 19.1633 3.35974 19.5849 3.90723L22.5468 7.75293C22.6402 7.87016 22.7132 7.99878 22.7665 8.13379L22.8163 8.28223L22.8515 8.43262C22.8783 8.58455 22.8824 8.73993 22.8641 8.89258C22.8398 9.09614 22.7748 9.29754 22.6688 9.48047C22.5691 9.65246 22.4309 9.80689 22.2597 9.92871L22.2606 9.93066L20.2313 11.4238L20.2157 11.4355C19.8825 11.6693 19.4667 11.7682 19.0526 11.6865C18.9116 11.6586 18.7797 11.6095 18.6571 11.5469V20.2676C18.6564 20.6534 18.526 21.0457 18.2626 21.3535C17.9955 21.6655 17.6015 21.8738 17.1561 21.875H6.85145C6.40608 21.8739 6.01213 21.6654 5.74501 21.3535C5.48143 21.0457 5.35117 20.6535 5.35048 20.2676V11.542C5.22558 11.6069 5.09052 11.6569 4.94618 11.6855C4.53291 11.7673 4.1181 11.6694 3.78505 11.4365L3.76747 11.4248L1.73817 9.93066L1.74013 9.92871C1.56792 9.80623 1.42879 9.65163 1.32899 9.47852C1.22347 9.29542 1.15949 9.09416 1.13563 8.89062C1.11181 8.68708 1.128 8.47895 1.18446 8.28027L1.23427 8.13281C1.28767 7.99848 1.36172 7.87052 1.45497 7.75391L4.42274 3.90527L4.58485 3.70508C4.97554 3.24847 5.44165 2.87129 5.96376 2.59961C6.5611 2.28883 7.21528 2.12504 7.88173 2.125H9.72938L9.93935 2.69824ZM7.88173 3.875C7.505 3.87504 7.12695 3.96735 6.77138 4.15234C6.45956 4.31463 6.16804 4.54698 5.91493 4.84277L5.80849 4.97363L2.96474 8.66016L4.60438 9.86719L5.13661 9.08887C5.73274 8.21529 7.10048 8.63769 7.10048 9.69531V20.125H16.9071V9.70801C16.9071 8.6831 18.1905 8.25517 18.8124 9.02441L18.871 9.10254L19.3925 9.86816L21.035 8.6582L18.1981 4.97461C17.9218 4.61577 17.5917 4.33901 17.2352 4.15332C16.9239 3.99123 16.5953 3.89928 16.2655 3.87891L16.1239 3.875H15.4559C15.1615 4.43708 14.7587 4.92973 14.2655 5.30957C13.6085 5.81556 12.822 6.0966 12.0038 6.09668C11.1856 6.09668 10.3991 5.81552 9.74208 5.30957C9.2489 4.92975 8.84616 4.43708 8.55165 3.875H7.88173Z" fill="currentColor"/>
</svg>
