<svg width="24" height="24" viewBox="0 0 24 24" fill="none" xmlns="http://www.w3.org/2000/svg">
<path d="M12.4697 2.01562C14.8079 2.12549 17.0389 3.05458 18.7676 4.64746C20.6116 6.34663 21.7963 8.67763 22.001 11.1768H21.9951V20.1846C21.9951 20.2691 21.9272 20.3376 21.8428 20.3379C21.6732 20.8248 21.3558 21.2473 20.9355 21.5459L20.7744 21.6514C20.3896 21.8822 19.9482 22.0048 19.4971 22.0049L19.3047 21.9971C18.8573 21.9624 18.4264 21.8072 18.0586 21.5459C17.6383 21.2473 17.321 20.8248 17.1514 20.3379H16.8447C16.6751 20.8247 16.3586 21.2473 15.9385 21.5459C15.5182 21.8445 15.0146 22.0049 14.499 22.0049C13.9836 22.0048 13.4807 21.8445 13.0605 21.5459C12.6403 21.2473 12.3239 20.8247 12.1543 20.3379H11.8477C11.678 20.8248 11.3607 21.2473 10.9404 21.5459C10.5202 21.8444 10.0175 22.0049 9.50195 22.0049C8.98645 22.0049 8.48372 21.8445 8.06348 21.5459C7.6432 21.2473 7.32587 20.8248 7.15625 20.3379H7.00293C6.7984 20.8319 6.45173 21.2542 6.00684 21.5508C5.56206 21.8473 5.03942 22.0051 4.50488 22.0039L4.3125 21.9961C3.9293 21.9656 3.55819 21.8471 3.22852 21.6494L3.06738 21.5439C2.64735 21.2456 2.32999 20.8239 2.15918 20.3379C2.07454 20.3379 2.00586 20.2692 2.00586 20.1846V11.1768H2.01074L2.06055 10.71C2.34462 8.54333 3.35641 6.52788 4.89551 4.97363L5.2334 4.64746C7.0774 2.94829 9.49348 2.00488 12.001 2.00488L12.4697 2.01562ZM12.001 3.75488C9.93288 3.75488 7.93981 4.53315 6.41895 5.93457C4.88819 7.34525 3.92551 9.26876 3.75586 11.3096V19.6016L3.81055 19.7578C3.86138 19.9024 3.95512 20.0284 4.08008 20.1172C4.20515 20.206 4.35538 20.2536 4.50879 20.2539C4.6965 20.2543 4.87993 20.1988 5.03613 20.0947C5.19243 19.9905 5.31487 19.8425 5.38672 19.6689L5.83398 18.5879H8.40039L8.80957 19.7627C8.8597 19.9064 8.95307 20.031 9.07715 20.1191C9.20128 20.2073 9.34968 20.2549 9.50195 20.2549C9.65422 20.2549 9.80262 20.2073 9.92676 20.1191C10.0509 20.0309 10.1452 19.9065 10.1953 19.7627L10.6035 18.5879H13.3975L13.8066 19.7627C13.8567 19.9064 13.9502 20.031 14.0742 20.1191C14.1983 20.2073 14.3469 20.2548 14.499 20.2549C14.6513 20.2549 14.8006 20.2074 14.9248 20.1191C15.0488 20.031 15.1423 19.9064 15.1924 19.7627L15.6016 18.5879H18.3945L18.8037 19.7627C18.8538 19.9065 18.9481 20.0309 19.0723 20.1191C19.1964 20.2073 19.3449 20.2549 19.4971 20.2549C19.6493 20.2548 19.7978 20.2073 19.9219 20.1191C20.0459 20.031 20.1393 19.9064 20.1895 19.7627L20.2451 19.6025V11.2168C20.0544 9.21456 19.0928 7.32674 17.582 5.93457C16.0612 4.53322 14.069 3.75495 12.001 3.75488ZM11.2227 12C12.1427 12 12.8887 12.373 12.8887 12.833C12.8883 13.2928 12.1424 13.666 11.2227 13.666C10.303 13.6659 9.55799 13.2928 9.55762 12.833C9.55762 12.3731 10.3028 12.0001 11.2227 12ZM7.8916 7.7793C8.8114 7.77948 9.55656 8.5255 9.55664 9.44531C9.55664 10.3652 8.81145 11.1111 7.8916 11.1113C6.9716 11.1113 6.22559 10.3653 6.22559 9.44531C6.22567 8.52538 6.97165 7.7793 7.8916 7.7793ZM14.5547 7.7793C15.4745 7.77941 16.2206 8.52545 16.2207 9.44531C16.2207 10.3652 15.4746 11.1112 14.5547 11.1113C13.6347 11.1113 12.8887 10.3653 12.8887 9.44531C12.8888 8.52538 13.6347 7.7793 14.5547 7.7793Z" fill="currentColor"/>
</svg>
