<svg width="24" height="24" viewBox="0 0 24 24" fill="none" xmlns="http://www.w3.org/2000/svg">
<path d="M12.4688 2.01538C14.8069 2.12524 17.0379 3.05433 18.7666 4.64722C20.6106 6.34639 21.7953 8.67738 22 11.1765H21.9941V20.1843C21.9941 20.2688 21.9262 20.3374 21.8418 20.3376C21.6722 20.8245 21.3548 21.247 20.9346 21.5457L20.7734 21.6511C20.3886 21.8819 19.9472 22.0046 19.4961 22.0046L19.3037 21.9968C18.8563 21.9621 18.4254 21.8069 18.0576 21.5457C17.6373 21.247 17.32 20.8245 17.1504 20.3376H16.8438C16.6742 20.8244 16.3577 21.247 15.9375 21.5457C15.5172 21.8443 15.0136 22.0046 14.498 22.0046C13.9826 22.0046 13.4797 21.8442 13.0596 21.5457C12.6394 21.247 12.3229 20.8245 12.1533 20.3376H11.8467C11.6771 20.8245 11.3597 21.247 10.9395 21.5457C10.5192 21.8442 10.0165 22.0046 9.50098 22.0046C8.98547 22.0046 8.48274 21.8442 8.0625 21.5457C7.64222 21.247 7.32489 20.8245 7.15527 20.3376H7.00195C6.79742 20.8317 6.45075 21.2539 6.00586 21.5505C5.56108 21.847 5.03844 22.0048 4.50391 22.0037L4.31152 21.9958C3.92832 21.9654 3.55721 21.8469 3.22754 21.6492L3.06641 21.5437C2.64638 21.2454 2.32901 20.8237 2.1582 20.3376C2.07356 20.3376 2.00488 20.269 2.00488 20.1843V11.1765H2.00977L2.05957 10.7097C2.34365 8.54308 3.35543 6.52763 4.89453 4.97339L5.23242 4.64722C7.07643 2.94804 9.4925 2.00464 12 2.00464L12.4688 2.01538ZM12 3.75464C9.93191 3.75464 7.93884 4.53291 6.41797 5.93433C4.88721 7.34501 3.92453 9.26852 3.75488 11.3093V19.6013L3.80957 19.7576C3.8604 19.9022 3.95414 20.0281 4.0791 20.1169C4.20417 20.2058 4.35441 20.2533 4.50781 20.2537C4.69553 20.254 4.87895 20.1986 5.03516 20.0945C5.19146 19.9903 5.31389 19.8423 5.38574 19.6687L5.83301 18.5876H8.39941L8.80859 19.7625C8.85872 19.9062 8.9521 20.0307 9.07617 20.1189C9.20031 20.2071 9.3487 20.2546 9.50098 20.2546C9.65325 20.2546 9.80165 20.2071 9.92578 20.1189C10.0499 20.0307 10.1442 19.9063 10.1943 19.7625L10.6025 18.5876H13.3965L13.8057 19.7625C13.8558 19.9061 13.9492 20.0307 14.0732 20.1189C14.1973 20.207 14.3459 20.2546 14.498 20.2546C14.6504 20.2546 14.7997 20.2071 14.9238 20.1189C15.0478 20.0307 15.1413 19.9061 15.1914 19.7625L15.6006 18.5876H18.3936L18.8027 19.7625C18.8528 19.9063 18.9472 20.0307 19.0713 20.1189C19.1954 20.207 19.3439 20.2546 19.4961 20.2546C19.6483 20.2546 19.7968 20.2071 19.9209 20.1189C20.0449 20.0307 20.1384 19.9062 20.1885 19.7625L20.2441 19.6023V11.2166C20.0534 9.21432 19.0918 7.32649 17.5811 5.93433C16.0603 4.53297 14.068 3.75471 12 3.75464ZM11.2217 11.9998C12.1417 11.9998 12.8877 12.3728 12.8877 12.8328C12.8873 13.2926 12.1414 13.6658 11.2217 13.6658C10.302 13.6657 9.55702 13.2926 9.55664 12.8328C9.55664 12.3728 10.3018 11.9998 11.2217 11.9998ZM7.89062 7.77905C8.81042 7.77923 9.55558 8.52525 9.55566 9.44507C9.55566 10.365 8.81047 11.1109 7.89062 11.1111C6.97062 11.1111 6.22461 10.3651 6.22461 9.44507C6.22469 8.52514 6.97068 7.77905 7.89062 7.77905ZM14.5537 7.77905C15.4736 7.77917 16.2196 8.52521 16.2197 9.44507C16.2197 10.365 15.4736 11.111 14.5537 11.1111C13.6337 11.1111 12.8877 10.3651 12.8877 9.44507C12.8878 8.52514 13.6338 7.77905 14.5537 7.77905Z" fill="currentColor"/>
</svg>
