<svg width="24" height="24" viewBox="0 0 24 24" fill="none" xmlns="http://www.w3.org/2000/svg">
  <path d="M20.862 19.5086C20.7093 19.947 20.4239 20.327 20.0454 20.5959C19.667 20.8648 19.2143 21.0093 18.75 21.0093C18.2857 21.0093 17.833 20.8648 17.4546 20.5959C17.0761 20.327 16.7907 19.947 16.638 19.5086H16.362C16.2093 19.947 15.9239 20.327 15.5454 20.5959C15.167 20.8648 14.7143 21.0093 14.25 21.0093C13.7857 21.0093 13.333 20.8648 12.9546 20.5959C12.5761 20.327 12.2907 19.947 12.138 19.5086H11.862C11.7093 19.947 11.4239 20.327 11.0454 20.5959C10.667 20.8648 10.2143 21.0093 9.75 21.0093C9.28575 21.0093 8.833 20.8648 8.45456 20.5959C8.07612 20.327 7.79074 19.947 7.638 19.5086H7.5C7.31583 19.9534 7.00362 20.3335 6.60301 20.6006C6.2024 20.8677 5.73147 21.0097 5.25 21.0086C4.7861 21.0075 4.33392 20.8627 3.9557 20.5941C3.57748 20.3255 3.29181 19.9462 3.138 19.5086H3V11.2586H3.0375C3.22178 9.0082 4.24589 6.90949 5.90635 5.37945C7.56681 3.8494 9.74209 3 12 3C14.2579 3 16.4332 3.8494 18.0937 5.37945C19.7541 6.90949 20.7782 9.0082 20.9625 11.2586H21V19.5086H20.862ZM8.25 8.25857C7.95333 8.25857 7.66332 8.34655 7.41664 8.51137C7.16997 8.67619 6.97771 8.91046 6.86418 9.18455C6.75065 9.45864 6.72094 9.76024 6.77882 10.0512C6.8367 10.3422 6.97956 10.6095 7.18934 10.8192C7.39912 11.029 7.66639 11.1719 7.95736 11.2298C8.24834 11.2876 8.54994 11.2579 8.82403 11.1444C9.09811 11.0309 9.33238 10.8386 9.4972 10.5919C9.66203 10.3453 9.75 10.0552 9.75 9.75857C9.75 9.56159 9.7112 9.36654 9.63582 9.18455C9.56044 9.00256 9.44995 8.8372 9.31066 8.69791C9.17137 8.55862 9.00601 8.44814 8.82403 8.37275C8.64204 8.29737 8.44698 8.25857 8.25 8.25857ZM11.25 12.0086C10.4212 12.0086 9.75 12.3446 9.75 12.7586C9.75 13.1726 10.4212 13.5086 11.25 13.5086C12.0787 13.5086 12.75 13.1726 12.75 12.7586C12.75 12.3446 12.075 12.0086 11.25 12.0086ZM14.25 8.25857C13.9533 8.25857 13.6633 8.34655 13.4166 8.51137C13.17 8.67619 12.9777 8.91046 12.8642 9.18455C12.7507 9.45864 12.7209 9.76024 12.7788 10.0512C12.8367 10.3422 12.9796 10.6095 13.1893 10.8192C13.3991 11.029 13.6664 11.1719 13.9574 11.2298C14.2483 11.2876 14.5499 11.2579 14.824 11.1444C15.0981 11.0309 15.3324 10.8386 15.4972 10.5919C15.662 10.3453 15.75 10.0552 15.75 9.75857C15.75 9.56159 15.7112 9.36654 15.6358 9.18455C15.5604 9.00256 15.4499 8.8372 15.3107 8.69791C15.1714 8.55862 15.006 8.44814 14.824 8.37275C14.642 8.29737 14.447 8.25857 14.25 8.25857Z" fill="currentColor"/>
</svg>
