<svg width="24" height="24" viewBox="0 0 24 24" fill="none" xmlns="http://www.w3.org/2000/svg">
  <path d="M15.54 16.5398C15.286 16.5398 15.031 16.4438 14.837 16.2508C14.444 15.8618 14.441 15.2297 14.829 14.8367C15.584 14.0737 16 13.0658 16 11.9998C16 10.9338 15.584 9.92588 14.829 9.16288C14.44 8.76988 14.444 8.13782 14.837 7.74882C15.229 7.35982 15.863 7.36488 16.251 7.75688C17.379 8.89688 18 10.4038 18 11.9998C18 13.5958 17.379 15.1027 16.251 16.2427C16.056 16.4407 15.798 16.5398 15.54 16.5398ZM9.16296 16.2508C9.55596 15.8618 9.55902 15.2297 9.17102 14.8367C8.41602 14.0737 8 13.0658 8 11.9998C8 10.9338 8.41602 9.92588 9.17102 9.16288C9.56002 8.76988 9.55596 8.13782 9.16296 7.74882C8.77096 7.35982 8.13702 7.36488 7.74902 7.75688C6.62102 8.89688 6 10.4038 6 11.9998C6 13.5958 6.62102 15.1027 7.74902 16.2427C7.94402 16.4407 8.20196 16.5398 8.45996 16.5398C8.71396 16.5398 8.96896 16.4438 9.16296 16.2508ZM19.432 18.6707C21.088 16.8407 22 14.4718 22 11.9998C22 9.5278 21.088 7.1579 19.432 5.3289C19.062 4.9199 18.429 4.88783 18.02 5.25883C17.61 5.62983 17.579 6.26191 17.95 6.67191C19.272 8.13191 20.001 10.0248 20.001 12.0008C20.001 13.9768 19.272 15.8689 17.95 17.3299C17.579 17.7399 17.61 18.3717 18.02 18.7427C18.211 18.9157 18.452 19.0017 18.691 19.0017C18.963 18.9997 19.234 18.8887 19.432 18.6707ZM5.97998 18.7408C6.38998 18.3698 6.42105 17.7377 6.05005 17.3277C4.72805 15.8677 3.99902 13.9748 3.99902 11.9988C3.99902 10.0228 4.72805 8.13072 6.05005 6.66972C6.42105 6.25972 6.38998 5.62788 5.97998 5.25688C5.57098 4.88588 4.93799 4.9177 4.56799 5.3267C2.91199 7.1567 2 9.52584 2 11.9978C2 14.4698 2.91199 16.8397 4.56799 18.6687C4.76499 18.8867 5.03696 18.9978 5.30896 18.9978C5.54896 18.9998 5.78898 18.9148 5.97998 18.7408ZM12 10.4998C11.173 10.4998 10.5 11.1728 10.5 11.9998C10.5 12.8268 11.173 13.4998 12 13.4998C12.827 13.4998 13.5 12.8268 13.5 11.9998C13.5 11.1728 12.827 10.4998 12 10.4998Z" fill="currentColor"/>
</svg>
