<svg width="24" height="24" viewBox="0 0 24 24" fill="none" xmlns="http://www.w3.org/2000/svg">
<path fill-rule="evenodd" clip-rule="evenodd" d="M4.0166 5.01427C4.35831 4.67311 4.91333 4.67285 5.25488 5.01427C5.59642 5.35581 5.59609 5.9108 5.25488 6.25255C4.50055 7.00687 3.90149 7.90276 3.49316 8.88829C3.08495 9.87385 2.87508 10.9309 2.875 11.9977C2.87502 13.0645 3.08496 14.1214 3.49316 15.107C3.90147 16.0927 4.50048 16.9884 5.25488 17.7428C5.59615 18.0842 5.59571 18.6384 5.25488 18.9801C4.91318 19.3218 4.35831 19.3218 4.0166 18.9801C3.09986 18.0632 2.37217 16.9748 1.87598 15.777C1.37983 14.579 1.12502 13.2943 1.125 11.9977C1.12508 10.7011 1.3798 9.41627 1.87598 8.21837C2.37225 7.02052 3.09977 5.93109 4.0166 5.01427ZM18.7441 5.01427C19.0857 4.67294 19.6408 4.67302 19.9824 5.01427C20.8993 5.93111 21.6268 7.02048 22.123 8.21837C22.6192 9.41627 22.8739 10.7011 22.874 11.9977C22.874 13.2943 22.6192 14.579 22.123 15.777C21.6269 16.9747 20.8991 18.0633 19.9824 18.9801C19.6407 19.3218 19.0858 19.3218 18.7441 18.9801C18.4032 18.6384 18.4028 18.0843 18.7441 17.7428C19.4985 16.9884 20.0976 16.0927 20.5059 15.107C20.914 14.1214 21.124 13.0644 21.124 11.9977C21.1239 10.9309 20.9141 9.87385 20.5059 8.88829C20.0975 7.90273 19.4985 7.00689 18.7441 6.25255C18.4028 5.91081 18.4026 5.35585 18.7441 5.01427ZM7.29883 8.47227C7.58879 8.08607 8.13795 8.00782 8.52441 8.29747C8.91081 8.5874 8.98895 9.13652 8.69922 9.52306C8.16385 10.2369 7.87412 11.1053 7.87402 11.9977C7.87402 12.89 8.16393 13.7583 8.69922 14.4723C8.98909 14.8588 8.91073 15.4078 8.52441 15.6979C8.13785 15.9878 7.5888 15.9096 7.29883 15.5231C6.53625 14.5062 6.12402 13.2687 6.12402 11.9977C6.12412 10.7266 6.5362 9.48911 7.29883 8.47227ZM15.4746 8.29747C15.8611 8.00794 16.4103 8.08606 16.7002 8.47227C17.4628 9.4891 17.8749 10.7266 17.875 11.9977C17.875 13.2687 17.4627 14.5062 16.7002 15.5231C16.4103 15.9095 15.8612 15.9877 15.4746 15.6979C15.0883 15.4079 15.0099 14.8588 15.2998 14.4723C15.835 13.7584 16.125 12.8899 16.125 11.9977C16.1249 11.1054 15.8351 10.2369 15.2998 9.52306C15.01 9.13652 15.0882 8.58742 15.4746 8.29747ZM11.999 10.8004C12.8273 10.8004 13.4988 11.4721 13.499 12.3004V12.3111C13.499 13.1396 12.8275 13.8111 11.999 13.8111C11.1708 13.8109 10.499 13.1394 10.499 12.3111V12.3004C10.4992 11.4722 11.1709 10.8006 11.999 10.8004Z" fill="currentColor"/>
</svg>
