<svg width="24" height="24" viewBox="0 0 24 24" fill="none" xmlns="http://www.w3.org/2000/svg">
<path fill-rule="evenodd" clip-rule="evenodd" d="M10.2822 3.93341C10.503 3.90641 10.7273 3.92917 10.9385 3.99884L11.043 4.0379L11.1445 4.0838C11.3763 4.20049 11.5746 4.37597 11.7197 4.59259C11.8854 4.84013 11.974 5.13163 11.9746 5.4295V18.5662C11.975 18.8648 11.8872 19.1576 11.7217 19.4061C11.556 19.6545 11.3197 19.8482 11.0439 19.9627C10.768 20.0771 10.4639 20.107 10.1709 20.0486C9.87785 19.9902 9.60855 19.8461 9.39746 19.6346L6.35254 16.5897L6.35156 16.5877C6.31572 16.5517 6.2725 16.5232 6.22559 16.5037C6.17862 16.4843 6.12796 16.4743 6.07715 16.4744H3.90039C3.42963 16.4744 2.97741 16.2878 2.64453 15.9549C2.31198 15.6222 2.12513 15.1704 2.125 14.7V9.29962C2.12515 8.82923 2.31201 8.37745 2.64453 8.04473C2.97738 7.71203 3.42976 7.52423 3.90039 7.52423H6.07715C6.12804 7.52435 6.17857 7.51441 6.22559 7.49493C6.2725 7.47544 6.31575 7.44697 6.35156 7.41094L9.39844 4.36407C9.60949 4.15356 9.87948 4.01 10.1719 3.95196L10.2822 3.93341ZM18.0088 5.65313C18.3505 5.31175 18.9054 5.31164 19.2471 5.65313C20.0803 6.48642 20.7414 7.47656 21.1924 8.56524C21.6433 9.65395 21.875 10.8214 21.875 11.9998C21.875 13.1782 21.6433 14.3456 21.1924 15.4344C20.7414 16.5231 20.0803 17.5132 19.2471 18.3465C18.9055 18.6881 18.3505 18.6879 18.0088 18.3465C17.6674 18.0049 17.6675 17.4509 18.0088 17.1092C18.6796 16.4383 19.2121 15.6409 19.5752 14.7645C19.9381 13.8881 20.125 12.9484 20.125 11.9998C20.125 11.0513 19.9381 10.1115 19.5752 9.23516C19.2122 8.3588 18.6795 7.5622 18.0088 6.89141C17.6672 6.5497 17.6671 5.9948 18.0088 5.65313ZM7.59082 8.6463C7.39209 8.84581 7.15566 9.00429 6.89551 9.11212C6.63524 9.21993 6.35592 9.27376 6.07422 9.27325L3.90039 9.27423C3.89395 9.27423 3.88746 9.27757 3.88281 9.28204C3.87826 9.2866 3.87517 9.29319 3.875 9.29962V14.7C3.87512 14.7063 3.87839 14.713 3.88281 14.7176C3.88746 14.722 3.89396 14.7244 3.90039 14.7244H6.07422C6.35584 14.7239 6.6353 14.7797 6.89551 14.8875C7.15545 14.9953 7.39218 15.1531 7.59082 15.3524L10.2246 17.9861V6.01251L7.59082 8.6463ZM15.0752 8.59942C15.4617 8.30996 16.0109 8.38805 16.3008 8.77423C16.9984 9.7045 17.3759 10.837 17.376 11.9998C17.3759 13.1625 16.9982 14.2942 16.3008 15.2244C16.0109 15.6109 15.4618 15.6889 15.0752 15.3992C14.6891 15.1092 14.6106 14.561 14.9004 14.1746C15.3708 13.5473 15.6259 12.7839 15.626 11.9998C15.6259 11.2157 15.3708 10.4523 14.9004 9.82501C14.6106 9.43847 14.6888 8.88936 15.0752 8.59942Z" fill="currentColor"/>
</svg>
