<svg width="24" height="24" viewBox="0 0 24 24" fill="none" xmlns="http://www.w3.org/2000/svg">
<path d="M19 2.12451C20.5877 2.12451 21.8748 3.41188 21.875 4.99951V18.9995C21.875 20.5873 20.5878 21.8745 19 21.8745H5C3.41236 21.8743 2.125 20.5872 2.125 18.9995V4.99951C2.12522 3.41201 3.4125 2.12473 5 2.12451H19ZM5 3.87451C4.379 3.87473 3.87522 4.37851 3.875 4.99951V18.9995C3.875 19.6207 4.37886 20.1243 5 20.1245H5.63672L14.4668 11.2944C15.0058 10.7557 15.7379 10.4527 16.5 10.4526C17.262 10.4526 17.9932 10.7559 18.5322 11.2944L20.125 12.8862V4.99951C20.1248 4.37837 19.6212 3.87451 19 3.87451H5ZM16.5 12.2026C16.2021 12.2027 15.9159 12.3212 15.7051 12.5317L8.1123 20.1245H19C19.6213 20.1245 20.125 19.6208 20.125 18.9995V15.3618L17.2949 12.5317C17.084 12.3214 16.7979 12.2026 16.5 12.2026ZM9.00098 6.12451C10.5886 6.12464 11.8758 7.41196 11.876 8.99951C11.8759 10.5872 10.5886 11.8744 9.00098 11.8745C7.41338 11.8743 6.12604 10.5871 6.12598 8.99951C6.12619 7.41201 7.41347 6.12473 9.00098 6.12451ZM9.00098 7.87451C8.37997 7.87473 7.87619 8.37851 7.87598 8.99951C7.87604 9.62064 8.37988 10.1243 9.00098 10.1245C9.62214 10.1244 10.1259 9.62069 10.126 8.99951C10.1258 8.37846 9.62205 7.87464 9.00098 7.87451Z" fill="#6E7781"/>
</svg>
