<svg width="24" height="24" viewBox="0 0 24 24" fill="none" xmlns="http://www.w3.org/2000/svg">
    <path d="M18 20.75H6C3.582 20.75 2.25 19.418 2.25 17V7C2.25 4.582 3.582 3.25 6 3.25H18C20.418 3.25 21.75 4.582 21.75 7V17C21.75 19.418 20.418 20.75 18 20.75Z" fill="#6E7781"/>
    <path d="M19.9147 14.068L15.5975 9.75068C15.2194 9.37152 14.5998 9.37152 14.2206 9.75068L9.43028 14.541C9.24313 14.7272 8.93772 14.7272 8.75154 14.541L7.83996 13.6295C7.46178 13.2504 6.84222 13.2504 6.46307 13.6295L4.08535 16.0074C4.03104 16.0617 4 16.1363 4 16.2129V16.82C4 18.3521 4.6497 19.0018 6.18182 19.0018H17.8182C19.3503 19.0018 20 18.3521 20 16.82V14.2735C20 14.1969 19.969 14.1223 19.9147 14.068Z" fill="white"/>
    <path d="M8.12222 10.2744C7.45507 10.2744 6.9082 9.73135 6.9082 9.06224C6.9082 8.39314 7.44546 7.8501 8.11358 7.8501H8.12328C8.7914 7.8501 9.33339 8.39314 9.33339 9.06224C9.33339 9.73135 8.79131 10.2744 8.12222 10.2744Z" fill="white"/>
</svg>
