<svg width="24" height="24" viewBox="0 0 24 24" fill="none" xmlns="http://www.w3.org/2000/svg">
<path fill-rule="evenodd" clip-rule="evenodd" d="M17.7002 12.6255C20.3238 12.6256 22.375 14.851 22.375 17.5005C22.375 20.15 20.3238 22.3754 17.7002 22.3755H6.2998C3.67622 22.3754 1.625 20.15 1.625 17.5005C1.625 14.851 3.67622 12.6256 6.2998 12.6255H17.7002ZM6.2998 14.3755C4.7262 14.3756 3.375 15.7318 3.375 17.5005C3.375 19.2691 4.7262 20.6254 6.2998 20.6255H17.7002C19.2738 20.6254 20.625 19.2691 20.625 17.5005C20.625 15.7318 19.2738 14.3756 17.7002 14.3755H6.2998ZM6.5 15.1255C7.8117 15.1255 8.875 16.1888 8.875 17.5005C8.875 18.8122 7.8117 19.8755 6.5 19.8755C5.1883 19.8755 4.125 18.8122 4.125 17.5005C4.125 16.1888 5.1883 15.1255 6.5 15.1255ZM6.5 16.8755C6.1548 16.8755 5.875 17.1553 5.875 17.5005C5.875 17.8457 6.1548 18.1255 6.5 18.1255C6.8452 18.1255 7.125 17.8457 7.125 17.5005C7.125 17.1553 6.8452 16.8755 6.5 16.8755ZM17.7002 1.62549C20.3238 1.6256 22.375 3.851 22.375 6.50049C22.375 9.14999 20.3238 11.3754 17.7002 11.3755H6.2998C3.67622 11.3754 1.625 9.14999 1.625 6.50049C1.625 3.851 3.67622 1.6256 6.2998 1.62549H17.7002ZM6.2998 3.37549C4.7262 3.3756 3.375 4.73184 3.375 6.50049C3.375 8.26915 4.7262 9.62538 6.2998 9.62549H17.7002C19.2738 9.62538 20.625 8.26915 20.625 6.50049C20.625 4.73184 19.2738 3.3756 17.7002 3.37549H6.2998ZM17.5 4.12549C18.8117 4.12549 19.875 5.18879 19.875 6.50049C19.875 7.81219 18.8117 8.87549 17.5 8.87549C16.1883 8.87549 15.125 7.81219 15.125 6.50049C15.125 5.18879 16.1883 4.12549 17.5 4.12549ZM17.5 5.87549C17.1548 5.87549 16.875 6.15529 16.875 6.50049C16.875 6.84569 17.1548 7.12549 17.5 7.12549C17.8452 7.12549 18.125 6.84569 18.125 6.50049C18.125 6.15529 17.8452 5.87549 17.5 5.87549Z" fill="#6E7781"/>
</svg>
