<svg width="24" height="24" viewBox="0 0 24 24" fill="none" xmlns="http://www.w3.org/2000/svg">
    <path d="M12 2C6.48 2 2 6.48 2 12C2 17.52 6.48 22 12 22C17.52 22 22 17.52 22 12C22 6.48 17.52 2 12 2ZM15.53 14.47C15.82 14.76 15.82 15.24 15.53 15.53C15.38 15.68 15.19 15.75 15 15.75C14.81 15.75 14.62 15.68 14.47 15.53L12 13.06L9.53 15.53C9.38 15.68 9.19 15.75 9 15.75C8.81 15.75 8.62 15.68 8.47 15.53C8.18 15.24 8.18 14.76 8.47 14.47L10.94 12L8.47 9.53003C8.18 9.24003 8.18 8.75997 8.47 8.46997C8.76 8.17997 9.24 8.17997 9.53 8.46997L12 10.94L14.47 8.46997C14.76 8.17997 15.24 8.17997 15.53 8.46997C15.82 8.75997 15.82 9.24003 15.53 9.53003L13.06 12L15.53 14.47Z" fill="#EF4149"/>
    </svg>
    