<?xml version="1.0" encoding="UTF-8"?>
<svg id="_图层_1" data-name="图层 1" xmlns="http://www.w3.org/2000/svg" viewBox="0 0 256 256">
  <defs>
    <style>
      .cls-1 {
        fill: #eceff1;
      }

      .cls-2 {
        fill: #cfd8dc;
      }
    </style>
  </defs>
  <g id="Tornado">
    <path class="cls-1" d="m104.62,20.67c-22.1,8.45-42.19,21.45-54.98,40.73-2.49,3.75-4.69,7.63-6.38,11.81-3.25,8.04-4.59,17.38-1.05,25.3,3.39,7.58,10.8,12.77,18.69,15.38,7.89,2.61,16.31,2.99,24.61,3.34-3.46.75-5.7,5.73-7.29,8.89-1.3,2.59-2.35,5.47-1.96,8.35.46,3.39,2.89,6.27,5.78,8.09,2.9,1.83,6.25,2.77,9.55,3.68-4.99,1.78-10.06,7.58-10.04,12.88.02,5.3,3.66,10.4,8.67,12.15-4.27,1.2-7.09,5.87-7.18,10.31-.09,4.43,1.97,8.66,4.64,12.2-2.07-.62-4.12,1.54-4.48,3.67-.35,2.13.57,4.26,1.59,6.16s2.21,3.81,2.46,5.96c-4.68.33-6.11,5.85-5.32,10.47.79,4.63,3.23,9.03,2.88,13.71-.33,4.31-3.05,8.15-6.45,10.81-3.4,2.66-7.46,4.33-11.46,5.96,7.89-2.89,15.31-2.84,23.2-5.72,6.07-2.22,12.31-4.55,17.03-8.96,4.72-4.41,7.57-11.49,5.16-17.48,5.79-1.77,11.9-3.76,15.83-8.36,3.92-4.61,4.34-12.73-.75-16.01,2.45-3.49,6.43-5.48,10.06-7.71,3.63-2.23,7.28-5.16,8.23-9.32.95-4.15-2.47-9.3-6.65-8.44,7.61-5.24,14.81-11.07,21.52-17.42,2.28-2.16,2.35-5.78.17-8.04,6.82-4.8,13.78-9.74,18.52-16.6,4.74-6.86,6.88-16.14,3.24-23.63.38.78,19.02-14.27,20.55-15.78,16.05-15.89,37.42-54.12,14.23-73.24-15.47-12.75-39.43-7.52-57.58-5.67-17.77,1.8-37.07,5.67-55.04,12.55Z"/>
    <path class="cls-2" d="m43.32,93.99c-.45-6.69.33-13.45,2.29-19.86.8,7.98,6.93,14.68,14.16,18.16,7.23,3.48,15.44,4.25,23.46,4.48,23.08.68,46.41-2.66,67.9-11.11,21.49-8.44,41.1-22.1,55.42-40.21,2.77-3.5,5.38-7.26,6.52-11.57,1.14-4.31.55-9.31-2.49-12.58,4.52,2.34,7.2,7.34,7.95,12.37.75,5.03-.15,10.16-1.23,15.13-2.3,10.59-5.53,21.27-12.08,29.9-9.42,12.4-24.48,19.06-39.29,23.88-26.24,8.53-53.84,12.84-81.42,12.72-8.54-.04-17.7-.72-25.47-4.59-7.1-3.54-15.14-8.18-15.71-16.71Z"/>
    <path class="cls-2" d="m162.54,126.98c2.53-1.34,5.08-2.83,6.84-5.08,1.77-2.25,2.61-5.45,1.39-8.04,2.73.95,4.05,4.26,3.65,7.12-.4,2.86-2.1,5.36-3.81,7.69-5.18,7.05-11.3,13.94-19.49,17.04-4.79,1.82-9.99,2.21-15.11,2.59-14.74,1.09-29.86,2.13-44.03-2.09-4.88-1.45-12.66-5.6-10.41-12.07,2.25-6.46,9.85-1.94,13.86-.4,13.6,5.23,29.3,5.15,43.36,2.01,8.26-1.85,16.26-4.83,23.75-8.77Z"/>
    <path class="cls-2" d="m109.25,172.72c6.01.02,12.02-.51,17.93-1.58,4.67-.84,9.37-2.06,13.42-4.53,4.06-2.47,7.45-6.35,8.43-11-7.16,6.58-16.51,10.59-26.14,11.89-9.64,1.3-19.53-.03-28.73-3.21-1.48-.51-5.7-1.95-6.97-.31-1.62,2.08,3,4.39,4.75,5.31,5.26,2.76,11.46,3.4,17.31,3.42Z"/>
    <path class="cls-2" d="m118.71,180.18c1.15-.21,2.3-.45,3.45-.69,3.24-.69,14.87-5.91,16.57-1.08.7,1.99-1.44,4.46-2.64,5.82-3.19,3.61-7.69,5.97-12.37,6.98-3.47.75-28.82,2.45-26.23-5.96,1.29-4.2,7.23-4.14,10.74-4.07,3.55.07,7.03-.36,10.48-1Z"/>
    <path class="cls-2" d="m106.69,207.69c5.88-.98,11.3-3.86,16.14-7.34.41-.3.88-.61,1.38-.53.47.07.81.47,1.07.87,2.02,3.08,1.45,7.39-.75,10.34s-5.74,4.66-9.35,5.39c-6.03,1.22-12.53-.14-17.56-3.67-1.76-1.23-3.45-2.72-4.84-4.37-1.62-1.91-2.46-2.91.13-2.58,2.19.28,4.39,1.74,6.71,2.04,2.35.31,4.74.25,7.08-.14Z"/>
    <path class="cls-2" d="m95.14,235.86c-4.14,4.5-10.13,6.46-14.76,10.34,1.72-.63,3.64-.29,5.41-.69,1.91-.43,3.79-1.02,5.61-1.75,3.46-1.39,6.65-3.33,9.6-5.61,2.9-2.24,8.47-6.44,6.43-10.76-1.21-2.57-5.36-4.02-6.87-.94-1.67,3.42-2.75,6.52-5.42,9.42Z"/>
    <path class="cls-2" d="m180.99,16.7c-38.48.43-76.69,13.98-106.84,37.88-3.65,2.9-7.25,6-9.74,9.95-2.49,3.94-3.77,8.87-2.45,13.35,3.17-10.36,12.57-17.09,21.66-22.99,30.11-19.55,61.75-33.7,97.37-38.19Z"/>
    <path class="cls-2" d="m83.2,79.3c18.25.83,36.68-2.43,53.53-9.47-17.54,9.38-37.52,14.15-57.4,13.72-3.85-.08-8.91-.7-10.7-4.68-1.54-3.42.46-8.99,4.33-9.6-2.36,7.16,4.34,9.77,10.24,10.03Z"/>
    <path class="cls-2" d="m198.34,29.71c-.27,2.72-1.98,5.06-3.71,7.17-11.39,13.87-26.7,24.49-43.69,30.3,7.25-6.28,14.49-12.56,21.74-18.84,3.36-2.91,7.03-6.56,6.57-10.98-.49-4.77-6.89-7.72-10.84-5.01,5.06-3.51,12.01-8.64,17.81-10.73,5.42-1.96,12.77,1.6,12.13,8.1Z"/>
    <path class="cls-2" d="m106.32,49.06c9.19-5.42,18.88-9.99,28.9-13.65,8.91-3.25,19.79-4.08,28.17-8-5.81-5.68-20.73,1.44-26.79,3.84-11.36,4.5-19.98,11.73-30.28,17.81Z"/>
    <path class="cls-2" d="m88.32,66.95c-1.17,1.54-1.84,3.6-1.26,5.45.57,1.84,2.28,3.16,4.12,3.74,1.84.59,3.81.55,5.73.46,13.44-.64,26.76-3.9,38.98-9.52-8.57,1.29-17.14,2.58-25.72,3.87-2.44.37-5.83.82-8.03-.65-3.69-2.47-1.24-4.43-1.73-7.59-1.05-6.79-9.35.63-12.09,4.24Z"/>
    <path class="cls-2" d="m156.45,36.25c3.34-.8,7.6-1.27,9.49,1.6,1.17,1.77.81,4.23-.33,6.01-1.14,1.79-2.93,3.05-4.71,4.22-12.52,8.19-26.74,13.77-41.49,16.27,9.56-3.63,18.84-7.98,27.76-12.98,2.52-1.41,6.03-3.89,5.1-7.26-.86-3.09-4.51-2.98-6.42-4.93,2.67-1.74,7.31-2.15,10.6-2.94Z"/>
    <path class="cls-2" d="m106.54,62.88c7.53-8.99,17.76-15.62,29.03-18.86-5.29,1.46-11.85,1.8-16.84,3.98-5.85,2.55-10.42,8.92-12.19,14.88Z"/>
    <path class="cls-2" d="m166.97,107.37c-4.69,2.12-8.8,6.54-13.57,8.91-5.14,2.55-10.59,4.47-16.19,5.71-9.41,2.09-23.78,3.82-32.66-.83,21.82-1.84,42.19-4.65,62.43-13.79Z"/>
    <path class="cls-2" d="m124.75,151.79c-4.83,3.92-11.15,5.94-17.36,5.57-4.03-.24-9.96-1.52-12.7-4.62,3-1.92,10.15.83,13.74.95,5.49.18,11.01-.45,16.31-1.91Z"/>
  </g>
</svg>