<svg xmlns="http://www.w3.org/2000/svg" width="24" height="24" viewBox="0 0 24 24" fill="none">
  <path d="M8.33203 6.71387C8.58841 6.68143 8.96092 6.70911 9.22656 6.72168L10.3428 6.77148L11.6182 6.82617C11.9965 6.84119 12.4493 6.84839 12.8135 6.93457C13.2592 7.0378 13.6775 7.23786 14.0381 7.51953C14.2418 7.67852 14.4509 7.8688 14.6465 8.04004L15.6357 8.90723C15.7729 9.02732 16.0907 9.32047 16.2178 9.4082C16.437 9.34407 16.6821 9.25382 16.9014 9.17871L18.0723 8.77734C18.2541 8.71505 18.4388 8.65324 18.6201 8.58984C18.8798 8.4992 19.1262 8.49359 19.373 8.63086C19.5711 8.73991 19.7175 8.92458 19.7773 9.14258C19.8379 9.36141 19.8077 9.59622 19.6943 9.79297C19.6263 9.90967 19.5305 10.0084 19.416 10.0801C19.3034 10.1513 19.078 10.2479 18.9492 10.3066L18.1875 10.6543L17.1836 11.1152C16.9507 11.2223 16.658 11.3693 16.416 11.4326C15.9652 11.5504 15.4483 11.47 15.0498 11.2305C14.9028 11.142 14.7609 11.0304 14.623 10.9268L14.0537 10.498C13.9563 10.4245 13.801 10.3007 13.6992 10.2441C13.6187 10.6082 13.5178 10.994 13.4287 11.3584L12.9766 13.207L15.3809 15.7793C15.8167 16.2444 16.133 16.5497 16.1094 17.2441C16.1044 17.4357 16.0617 17.6249 15.9834 17.7998C15.9053 17.9785 15.7544 18.2313 15.6553 18.4092L14.3096 20.8262C14.1788 21.0612 14.049 21.2999 13.9141 21.5312C13.8118 21.7065 13.6568 21.8445 13.4756 21.9316C13.4352 21.951 13.3755 21.9756 13.3398 22H12.6787L12.6709 21.9951C12.5954 21.9522 12.5174 21.9216 12.4404 21.876C12.0454 21.6416 11.8649 21.1595 11.9756 20.7188C12.0255 20.5202 12.1377 20.3258 12.2148 20.1357C12.2585 20.0318 12.3083 19.9257 12.3545 19.8223L13.1084 18.1279C13.215 17.8885 13.4104 17.4848 13.4961 17.2471L11.8545 15.6768L11.3965 15.2373C11.3308 15.1742 11.2133 15.0551 11.1465 15.002C10.9941 15.1689 10.8004 15.4247 10.6553 15.6064L6.27539 21.0928C6.16291 21.2336 5.93342 21.5374 5.81152 21.6475C5.64359 21.7993 5.42816 21.8898 5.20215 21.9023C4.94867 21.9151 4.67972 21.8085 4.49316 21.6377C4.30022 21.4637 4.18722 21.2178 4.18066 20.958C4.16681 20.5173 4.44129 20.2317 4.68262 19.8906L8.03125 15.1562L8.6377 14.3008C8.70958 14.1995 8.8679 13.9849 8.92383 13.8857C8.96924 13.8048 9.03691 13.4847 9.06348 13.373L9.28027 12.4639L10.1699 8.75098C9.58157 8.75047 8.96255 8.74077 8.37695 8.75684C8.26343 8.90772 8.14721 9.09117 8.04102 9.25098L7.49414 10.0732C7.38002 10.2448 7.20404 10.5356 7.05957 10.6689C6.92422 10.7936 6.75423 10.8749 6.57227 10.9023C6.31959 10.9404 6.06171 10.8745 5.8584 10.7197C5.65491 10.5656 5.52147 10.3474 5.4873 10.0938C5.46508 9.92969 5.48569 9.76222 5.54688 9.6084C5.59956 9.4796 5.71409 9.3196 5.79395 9.2002L6.62305 7.96387C6.72569 7.81077 6.83948 7.63246 6.95117 7.48828C7.29089 7.05782 7.78755 6.77909 8.33203 6.71387ZM13.8252 2C13.898 2.02971 13.9963 2.03605 14.0742 2.05469C14.7456 2.21529 15.2522 2.72834 15.4639 3.37695C15.6475 3.95451 15.5948 4.58174 15.3184 5.12109C15.0649 5.62489 14.6215 6.00778 14.0859 6.18457C13.6235 6.32762 13.1225 6.2834 12.6924 6.06152C12.2192 5.80875 11.8665 5.37654 11.7139 4.8623C11.541 4.28226 11.603 3.65723 11.8857 3.12207C12.1647 2.59849 12.6321 2.19884 13.2139 2.06152C13.2983 2.04165 13.3904 2.02833 13.4727 2.00293L13.4814 2H13.8252Z" fill="currentColor"/>
</svg>