<svg xmlns="http://www.w3.org/2000/svg" width="24" height="24" viewBox="0 0 24 24" fill="none">
  <path d="M16.0916 4.15317C16.0916 5.07661 16.5838 5.92974 17.383 6.39146C18.1823 6.85317 19.169 6.85317 19.9682 6.39146C20.7674 5.92974 21.2596 5.07661 21.2596 4.15317C21.2596 3.22974 20.7674 2.37661 19.9682 1.91489C19.169 1.45317 18.1823 1.45317 17.383 1.91489C16.5838 2.37661 16.0916 3.22974 16.0916 4.15317ZM10.5815 7.99224L15.0463 16.9219C15.5479 17.9227 15.494 19.1133 14.9057 20.0649C14.3174 21.0165 13.2768 21.5977 12.1588 21.5977H3.22913C2.10882 21.5977 1.07054 21.0188 0.482257 20.0649C-0.106024 19.1133 -0.15993 17.9227 0.341632 16.9219L4.80179 7.99224C5.35023 6.89771 6.46819 6.2063 7.69163 6.2063C8.91507 6.20864 10.033 6.89771 10.5815 7.99224Z" fill="currentColor"/>
  <path d="M20.4112 13.0265L23.7369 19.6758C24.0369 20.2758 24.0065 20.9906 23.6526 21.5625C23.4787 21.8436 23.2358 22.0756 22.947 22.2364C22.6582 22.3972 22.3331 22.4815 22.0026 22.4812H15.3534C14.6807 22.4812 14.0573 22.1344 13.7034 21.5625C13.3494 20.9906 13.319 20.2781 13.619 19.6758L16.9448 13.0265C17.2729 12.3703 17.9432 11.9554 18.6791 11.9554C19.4127 11.9554 20.083 12.3703 20.4112 13.0265Z" fill="currentColor"/>
</svg>