<svg width="24" height="24" viewBox="0 0 24 24" fill="none" xmlns="http://www.w3.org/2000/svg">
<path d="M21.7415 9.62334L19.7131 10.9021C19.5659 10.9905 19.392 11.0233 19.2227 10.9947C19.0534 10.9661 18.9 10.8779 18.7901 10.746L17.7824 9.48053V19.0755C17.7821 19.2419 17.7158 19.4015 17.5981 19.5192C17.4804 19.6369 17.3208 19.7032 17.1543 19.7036H6.85324C6.68676 19.7032 6.5272 19.6369 6.40948 19.5192C6.29176 19.4015 6.22548 19.2419 6.22513 19.0755V9.46995L5.20824 10.746C5.09838 10.8775 4.94518 10.9655 4.7762 10.9941C4.60723 11.0228 4.4336 10.9901 4.28657 10.9021L2.25677 9.62334C2.18893 9.58436 2.13094 9.53034 2.08724 9.46544C2.04355 9.40054 2.01532 9.32649 2.00472 9.24897C1.99412 9.17146 2.00143 9.09254 2.0261 9.01829C2.05077 8.94405 2.09213 8.87644 2.14701 8.82068L5.11568 5.52539C5.46462 5.13751 5.89122 4.82734 6.3678 4.61502C6.84438 4.4027 7.36029 4.29298 7.88203 4.29297H9.11842C9.36045 4.85762 9.76284 5.33885 10.2757 5.67702C10.7886 6.0152 11.3894 6.19545 12.0038 6.19545C12.6181 6.19545 13.219 6.0152 13.7318 5.67702C14.2447 5.33885 14.6471 4.85762 14.8891 4.29297H16.1242C16.6462 4.29312 17.1624 4.40304 17.6392 4.61559C18.116 4.82813 18.5428 5.13856 18.8919 5.52672L21.8539 8.81936C21.9087 8.87542 21.9499 8.9433 21.9744 9.01776C21.9988 9.09223 22.0059 9.17131 21.9951 9.24894C21.9842 9.32656 21.9557 9.40067 21.9118 9.46558C21.8678 9.53048 21.8096 9.58445 21.7415 9.62334Z" fill="currentColor"/>
</svg>
