<svg width="24" height="24" viewBox="0 0 24 24" fill="none" xmlns="http://www.w3.org/2000/svg">
<path d="M23.6898 9.07191L21.2557 10.6484C21.0791 10.7574 20.8704 10.798 20.6672 10.7627C20.4641 10.7274 20.28 10.6186 20.1481 10.4561L18.9389 8.89583V20.7256C18.9385 20.9308 18.8589 21.1276 18.7177 21.2727C18.5764 21.4178 18.3849 21.4996 18.1852 21.5H5.82389C5.62411 21.4996 5.43264 21.4178 5.29138 21.2727C5.15012 21.1276 5.07057 20.9308 5.07015 20.7256V8.88279L3.84989 10.4561C3.71806 10.6182 3.53421 10.7267 3.33145 10.762C3.12868 10.7973 2.92032 10.757 2.74388 10.6484L0.308121 9.07191C0.226719 9.02385 0.157127 8.95725 0.104693 8.87723C0.0522598 8.79721 0.0183812 8.70591 0.00566178 8.61034C-0.00705763 8.51477 0.00172076 8.41747 0.0313221 8.32593C0.0609235 8.23439 0.11056 8.15104 0.176415 8.08229L3.73881 4.01948C4.15754 3.54125 4.66947 3.15884 5.24136 2.89707C5.81326 2.63529 6.43235 2.50001 7.05843 2.5H8.5421C8.83254 3.19617 9.3154 3.78948 9.93086 4.20642C10.5463 4.62336 11.2673 4.8456 12.0045 4.8456C12.7417 4.8456 13.4627 4.62336 14.0782 4.20642C14.6937 3.78948 15.1765 3.19617 15.467 2.5H16.949C17.5755 2.50019 18.1949 2.63571 18.767 2.89776C19.3392 3.15981 19.8514 3.54254 20.2702 4.02111L23.8247 8.08066C23.8904 8.14979 23.9399 8.23346 23.9692 8.32528C23.9986 8.41709 24.0071 8.51459 23.9941 8.6103C23.981 8.706 23.9469 8.79737 23.8941 8.87739C23.8414 8.95741 23.7715 9.02395 23.6898 9.07191Z" fill="currentColor"/>
</svg>
