<svg width="14" height="14" viewBox="0 0 14 14" fill="none" xmlns="http://www.w3.org/2000/svg">
<g clip-path="url(#clip0_5751_15045)">
<path d="M9.16653 1.85039C9.5741 2.08962 9.86994 2.48095 9.98899 2.9383C10.108 3.39565 10.0405 3.88156 9.80132 4.28914L9.11721 5.45517C9.11198 5.46845 9.10569 5.48128 9.0984 5.49355L8.73752 6.10841C8.73051 6.12057 8.72256 6.13216 8.71373 6.14306L4.98404 12.4963C4.94413 12.5641 4.87892 12.6134 4.80273 12.6332L3.05786 13.0874C2.98238 13.107 2.90378 13.1116 2.82653 13.1009C2.74928 13.0901 2.67491 13.0643 2.60765 13.0248C2.54039 12.9853 2.48156 12.933 2.43453 12.8708C2.38749 12.8086 2.35318 12.7377 2.33353 12.6622L1.87935 10.9174C1.85952 10.8412 1.8706 10.7603 1.91041 10.692L6.72809 2.4851C6.96733 2.07763 7.35861 1.78186 7.81589 1.66284C8.27316 1.54381 8.75899 1.61127 9.16653 1.85039ZM6.43362 4.90627L2.89017 10.9422L3.17884 12.0512L4.28753 11.7626L7.83051 5.72615L6.43362 4.90627ZM7.59742 2.9284L7.56662 2.97726L6.92555 4.06814L8.32243 4.88802L8.96288 3.7973C9.0665 3.62065 9.09939 3.41131 9.05493 3.21139C9.01048 3.01147 8.89196 2.8358 8.72323 2.71972L8.675 2.68875C8.49837 2.58505 8.28901 2.55211 8.08906 2.59658C7.88912 2.64104 7.71345 2.75961 7.59742 2.9284Z" fill="#0BC0CF"/>
</g>
<path opacity="0.6" d="M9.05484 9.87667C9.10458 9.89455 9.14377 9.93374 9.16165 9.98347L9.48252 10.8757C9.5004 10.9257 9.53982 10.9648 9.58955 10.9827L10.4818 11.3036C10.5161 11.316 10.5458 11.3386 10.5667 11.3685C10.5877 11.3984 10.599 11.434 10.599 11.4704C10.599 11.5069 10.5877 11.5425 10.5667 11.5724C10.5458 11.6022 10.5161 11.6249 10.4818 11.6373L9.58955 11.9581C9.54992 11.9723 9.51662 12.0001 9.49558 12.0365L9.48252 12.0652L9.16165 12.9574C9.14926 12.9917 9.12659 13.0214 9.09673 13.0423C9.06687 13.0633 9.03127 13.0745 8.99479 13.0745C8.95831 13.0745 8.92271 13.0633 8.89285 13.0423C8.863 13.0214 8.84033 12.9917 8.82794 12.9574L8.50707 12.0652C8.49822 12.0405 8.48404 12.0182 8.46554 11.9997C8.44703 11.9812 8.42466 11.967 8.40003 11.9581L7.50778 11.6373C7.47346 11.6249 7.4438 11.6022 7.42284 11.5724C7.40187 11.5425 7.39062 11.5069 7.39062 11.4704C7.39062 11.434 7.40187 11.3984 7.42284 11.3685C7.4438 11.3386 7.47346 11.316 7.50778 11.3036L8.40003 10.9827C8.42466 10.9739 8.44703 10.9597 8.46554 10.9412C8.48404 10.9227 8.49822 10.9003 8.50707 10.8757L8.82794 9.98347C8.84388 9.93923 8.87673 9.90313 8.91928 9.8831C8.96183 9.86308 9.01059 9.86076 9.05484 9.87667Z" fill="#0BC0CF"/>
<path d="M11.6741 9.29078C11.7148 9.30541 11.7469 9.33747 11.7615 9.37817L12.024 10.1082C12.0387 10.149 12.0709 10.1811 12.1116 10.1957L12.8416 10.4583C12.8697 10.4684 12.894 10.4869 12.9111 10.5114C12.9283 10.5358 12.9375 10.5649 12.9375 10.5948C12.9375 10.6246 12.9283 10.6537 12.9111 10.6782C12.894 10.7026 12.8697 10.7211 12.8416 10.7313L12.1116 10.9938C12.0792 11.0054 12.0519 11.0281 12.0347 11.0579L12.024 11.0814L11.7615 11.8114C11.7514 11.8395 11.7328 11.8637 11.7084 11.8809C11.684 11.898 11.6548 11.9072 11.625 11.9072C11.5952 11.9072 11.566 11.898 11.5416 11.8809C11.5172 11.8637 11.4986 11.8395 11.4885 11.8114L11.226 11.0814C11.2187 11.0612 11.2071 11.0429 11.192 11.0278C11.1768 11.0126 11.1585 11.001 11.1384 10.9938L10.4084 10.7313C10.3803 10.7211 10.356 10.7026 10.3389 10.6782C10.3217 10.6537 10.3125 10.6246 10.3125 10.5948C10.3125 10.5649 10.3217 10.5358 10.3389 10.5114C10.356 10.4869 10.3803 10.4684 10.4084 10.4583L11.1384 10.1957C11.1585 10.1885 11.1768 10.1769 11.192 10.1618C11.2071 10.1466 11.2187 10.1283 11.226 10.1082L11.4885 9.37817C11.5015 9.34197 11.5284 9.31243 11.5632 9.29605C11.598 9.27966 11.6379 9.27777 11.6741 9.29078Z" fill="#0BC0CF"/>
<path opacity="0.8" d="M10.1997 7.53888C10.2313 7.55026 10.2563 7.5752 10.2676 7.60685L10.4718 8.17462C10.4832 8.20642 10.5083 8.23136 10.5399 8.24273L11.1077 8.44692C11.1296 8.4548 11.1485 8.46923 11.1618 8.48823C11.1751 8.50723 11.1823 8.52988 11.1823 8.5531C11.1823 8.57631 11.1751 8.59896 11.1618 8.61796C11.1485 8.63696 11.1296 8.65139 11.1077 8.65927L10.5399 8.86346C10.5147 8.87246 10.4935 8.89014 10.4801 8.91334L10.4718 8.93157L10.2676 9.49934C10.2598 9.52118 10.2453 9.54005 10.2263 9.5534C10.2073 9.56674 10.1847 9.57389 10.1615 9.57389C10.1382 9.57389 10.1156 9.56674 10.0966 9.5534C10.0776 9.54005 10.0632 9.52118 10.0553 9.49934L9.85109 8.93157C9.84546 8.91589 9.83644 8.90166 9.82466 8.88988C9.81288 8.87811 9.79865 8.86908 9.78297 8.86346L9.21518 8.65927C9.19334 8.65139 9.17446 8.63696 9.16112 8.61796C9.14778 8.59896 9.14062 8.57631 9.14062 8.5531C9.14062 8.52988 9.14778 8.50723 9.16112 8.48823C9.17446 8.46923 9.19334 8.4548 9.21518 8.44692L9.78297 8.24273C9.79865 8.23711 9.81288 8.22808 9.82466 8.21631C9.83644 8.20453 9.84546 8.1903 9.85109 8.17462L10.0553 7.60685C10.0654 7.57869 10.0863 7.55572 10.1134 7.54298C10.1405 7.53023 10.1715 7.52876 10.1997 7.53888Z" fill="#0BC0CF"/>
<defs>
<clipPath id="clip0_5751_15045">
<rect width="10.0438" height="10.0438" fill="white" transform="translate(0 3.69727) rotate(-14.59)"/>
</clipPath>
</defs>
</svg>
