<svg xmlns="http://www.w3.org/2000/svg" width="24" height="24" viewBox="0 0 24 24" fill="none">
  <path d="M6.5459 2.49609C6.89342 2.36044 7.38848 2.48966 7.53906 2.60449C7.68947 2.71933 7.80362 2.88702 7.84277 3.11719C7.97543 3.89367 8.20107 4.85048 8.75098 5.40039C9.19789 5.84602 10.6199 5.50216 10.6328 5.49902C10.6379 5.49804 10.7907 5.46833 10.8623 5.46777C11.6756 5.35193 13.5079 5.35268 14.165 5.37988C14.8218 5.40722 15.2119 5.60547 15.2119 5.60547C15.2149 5.60655 15.2386 5.6144 15.25 5.61914C18.2132 6.72923 17.9858 9.87688 17.5986 12.7236C17.4312 13.9573 15.5648 13.4292 15.7305 12.208C15.7462 12.0925 15.7627 11.9758 15.7793 11.8584C15.982 10.4207 16.2011 8.8684 15.3154 7.95215L15.333 14.9424V21.9561C15.3329 22.5317 14.9113 23 14.3184 23C13.7255 22.9998 13.2452 22.5316 13.2451 21.9561V14.6484C13.2451 14.6484 13.2109 14.2785 12.834 14.2744C12.4559 14.2698 12.4648 14.6309 12.4648 14.6309V21.9375C12.4646 22.5134 11.9852 22.9811 11.3926 22.9814C10.7996 22.9814 10.3196 22.5136 10.3193 21.9375L10.2832 14.3984L10.2812 13.042C10.2789 11.4355 10.2745 8.86423 10.2734 7.96289L10.3096 7.31348C9.36895 7.41359 8.3508 7.58023 7.50684 6.8623C7.14505 6.55437 6.93251 6.26938 6.77832 5.88672C6.75439 5.82733 6.73064 5.76934 6.70703 5.71387C6.3894 4.97035 6.15038 4.18505 6.01367 3.38867C5.93687 2.93957 6.19879 2.63185 6.5459 2.49609ZM13.0166 1C13.5004 1.00015 13.9645 1.19304 14.3066 1.53516C14.6487 1.87737 14.8418 2.34136 14.8418 2.8252C14.8417 3.30906 14.6487 3.77304 14.3066 4.11523C13.9645 4.45735 13.5004 4.65024 13.0166 4.65039C12.5327 4.65039 12.0678 4.45734 11.7256 4.11523C11.3836 3.77306 11.1915 3.30899 11.1914 2.8252C11.1914 2.34138 11.3836 1.87737 11.7256 1.53516C12.0678 1.19299 12.5326 1 13.0166 1Z" fill="currentColor"/>
</svg>