<svg xmlns="http://www.w3.org/2000/svg" width="24" height="24" viewBox="0 0 24 24" fill="none">
  <path d="M10 21.9998C9.71667 21.9998 9.47933 21.9038 9.288 21.7118C9.096 21.5204 9 21.2831 9 20.9998V2.99976C9 2.71642 9.096 2.47876 9.288 2.28676C9.47933 2.09542 9.71667 1.99976 10 1.99976C10.2833 1.99976 10.521 2.09542 10.713 2.28676C10.9043 2.47876 11 2.71642 11 2.99976V20.9998C11 21.2831 10.9043 21.5204 10.713 21.7118C10.521 21.9038 10.2833 21.9998 10 21.9998ZM6 15.9998C5.71667 15.9998 5.479 15.9038 5.287 15.7118C5.09567 15.5204 5 15.2831 5 14.9998V8.99975C5 8.71642 5.09567 8.47875 5.287 8.28675C5.479 8.09542 5.71667 7.99975 6 7.99975C6.28333 7.99975 6.521 8.09542 6.713 8.28675C6.90433 8.47875 7 8.71642 7 8.99975V14.9998C7 15.2831 6.90433 15.5204 6.713 15.7118C6.521 15.9038 6.28333 15.9998 6 15.9998ZM14 17.9998C13.7167 17.9998 13.4793 17.9038 13.288 17.7118C13.096 17.5204 13 17.2831 13 16.9998V6.99975C13 6.71642 13.096 6.47876 13.288 6.28676C13.4793 6.09542 13.7167 5.99976 14 5.99976C14.2833 5.99976 14.521 6.09542 14.713 6.28676C14.9043 6.47876 15 6.71642 15 6.99975V16.9998C15 17.2831 14.9043 17.5204 14.713 17.7118C14.521 17.9038 14.2833 17.9998 14 17.9998ZM18 14.9998C17.7167 14.9998 17.4793 14.9038 17.288 14.7118C17.096 14.5204 17 14.2831 17 13.9998V9.99975C17 9.71642 17.096 9.47875 17.288 9.28675C17.4793 9.09542 17.7167 8.99975 18 8.99975C18.2833 8.99975 18.5207 9.09542 18.712 9.28675C18.904 9.47875 19 9.71642 19 9.99975V13.9998C19 14.2831 18.904 14.5204 18.712 14.7118C18.5207 14.9038 18.2833 14.9998 18 14.9998Z" fill="currentColor"/>
</svg>