<svg width="24" height="24" viewBox="0 0 24 24" fill="none" xmlns="http://www.w3.org/2000/svg">
<path d="M12 2C16.5484 2 20.2353 5.64934 20.2354 10.1387V20.3691C20.2348 20.5844 20.1915 20.7975 20.1084 20.9961C20.0253 21.1946 19.9038 21.3749 19.751 21.5264C19.598 21.6779 19.4162 21.7977 19.2168 21.8789C19.0174 21.9601 18.8041 22.0015 18.5889 22C17.6792 22 17.2318 21.5481 16.9795 20.6816C16.7271 19.817 16.0936 19.2207 15.3604 19.2207C14.6263 19.2207 13.9272 19.7766 13.6846 20.6836C13.4437 21.5879 12.9176 22 12 22C11.0915 21.9999 10.6341 21.6344 10.3906 20.6816C10.148 19.7308 9.55305 19.2209 8.77246 19.2207C7.99071 19.2207 7.35883 19.766 7.09766 20.6836C6.83825 21.5994 6.32971 22 5.41211 22C5.19668 22.002 4.98282 21.9609 4.7832 21.8799C4.58367 21.7988 4.40204 21.6789 4.24902 21.5273C4.0961 21.3758 3.97454 21.1957 3.8916 20.9971C3.80863 20.7983 3.76573 20.5846 3.76562 20.3691V10.1387C3.76563 5.64509 7.46148 2.00025 12 2ZM8.70703 7.42383C8.3132 7.42263 7.92333 7.50576 7.56445 7.66797C7.20553 7.83023 6.88529 8.06776 6.62598 8.36426C6.50611 8.50368 6.70906 8.76463 6.84668 8.69141C7.07431 8.57407 7.3341 8.50781 7.60938 8.50781C8.51792 8.50797 9.25565 9.2377 9.25586 10.1348C9.25459 10.3497 9.21038 10.5627 9.12695 10.7607C9.04352 10.9588 8.9224 11.139 8.76953 11.29C8.61666 11.4411 8.43536 11.5605 8.23633 11.6416C8.03735 11.7226 7.82422 11.763 7.60938 11.7617C7.32526 11.7617 7.05813 11.6918 6.8252 11.5674C6.67878 11.4901 6.46374 11.7103 6.57812 11.8496C6.83729 12.1626 7.16329 12.4145 7.53125 12.5869C7.89908 12.7592 8.30086 12.8479 8.70703 12.8467C10.2227 12.8465 11.4512 11.632 11.4512 10.1348C11.451 8.63772 10.2244 7.424 8.70703 7.42383ZM15.2939 7.42383C14.8912 7.42292 14.4931 7.51004 14.1279 7.67969C13.7627 7.84945 13.4387 8.0978 13.1797 8.40625C13.0694 8.5386 13.2785 8.77674 13.4082 8.70703C13.65 8.57633 13.9204 8.50734 14.1953 8.50781C15.1058 8.50781 15.8426 9.2376 15.8428 10.1348C15.8415 10.3497 15.7983 10.5627 15.7148 10.7607C15.6314 10.9589 15.5094 11.1389 15.3564 11.29C15.2035 11.4411 15.0223 11.5606 14.8232 11.6416C14.6241 11.7226 14.4103 11.7631 14.1953 11.7617C13.9043 11.7616 13.6307 11.687 13.3926 11.5547C13.2673 11.4845 13.0691 11.7304 13.1748 11.8574C13.4337 12.1677 13.7579 12.4169 14.124 12.5879C14.4902 12.7588 14.8898 12.8475 15.2939 12.8467C16.8107 12.8467 18.0391 11.6321 18.0391 10.1348C18.0389 8.63761 16.8097 7.42383 15.2939 7.42383Z" fill="currentColor"/>
</svg>
