<?xml version="1.0" standalone="no"?><!DOCTYPE svg PUBLIC "-//W3C//DTD SVG 1.1//EN" "http://www.w3.org/Graphics/SVG/1.1/DTD/svg11.dtd"><svg height="600" node-id="1" sillyvg="true" template-height="600" template-width="600" version="1.1" viewBox="0 0 600 600" width="600" xmlns="http://www.w3.org/2000/svg" xmlns:xlink="http://www.w3.org/1999/xlink"><defs node-id="80"></defs><g node-id="82"><path d="M 483.00 499.70 C 483.00 504.56 406.13 508.50 311.30 508.50 C 216.47 508.50 139.60 504.56 139.60 499.70 C 139.60 494.84 216.47 490.90 311.30 490.90 C 406.13 490.90 483.00 494.84 483.00 499.70 Z" fill="#e3f0ff" fill-rule="nonzero" group-id="1" id="XMLID_83_" node-id="3" stroke="none" target-height="17.600006" target-width="343.4" target-x="139.6" target-y="490.9"></path></g><g node-id="83"><path d="M 386.50 497.90 C 386.50 497.90 383.20 492.30 390.30 489.60 C 397.40 486.90 413.50 485.20 411.90 479.70 C 410.30 474.20 404.80 464.30 418.60 454.90 C 432.30 445.60 429.60 441.60 431.50 442.50 C 433.40 443.40 438.00 448.90 437.20 454.10 C 436.40 459.30 432.60 460.60 434.40 462.30 C 436.20 463.90 442.30 458.00 442.30 452.50 C 442.30 447.00 442.60 443.00 446.60 445.30 C 450.50 447.60 450.00 450.90 452.80 448.40 C 455.60 445.90 457.40 440.90 456.20 433.50 C 455.10 426.10 458.70 420.60 463.90 420.40 C 469.10 420.20 479.90 429.90 480.80 444.60 C 481.60 459.30 472.50 471.30 473.80 475.00 C 475.10 478.80 480.80 477.00 483.80 471.60 C 486.70 466.20 493.90 474.70 492.00 482.10 C 490.00 489.50 488.20 497.60 483.80 499.10 C 479.40 500.60 401.30 499.40 395.40 499.40 C 389.40 499.40 387.60 499.50 386.50 497.90 Z" fill="#ff8d76" fill-rule="nonzero" group-id="2" id="XMLID_62_" node-id="5" stroke="none" target-height="80.399994" target-width="110.69998" target-x="383.2" target-y="420.2"></path></g><g node-id="84"><path d="M 405.00 495.40 C 409.10 495.30 421.40 495.40 419.90 488.50 C 418.40 481.60 415.80 478.70 420.10 472.80 C 424.40 466.90 429.10 470.50 429.30 473.50 C 429.50 476.40 428.30 482.30 433.40 481.50 C 438.50 480.70 438.60 466.90 442.90 465.80 C 447.20 464.70 448.50 468.90 449.10 473.00 C 449.80 477.10 454.80 472.70 456.80 467.80 C 458.80 462.90 458.60 456.20 463.20 454.20 C 467.80 452.20 470.10 463.70 468.10 474.20 C 466.10 484.70 464.50 489.90 467.00 490.90 C 469.50 491.90 474.40 489.40 476.70 493.20 C 479.00 497.00 475.60 499.60 466.20 499.60 C 456.90 499.60 409.20 499.60 401.70 499.60 C 394.00 499.50 395.60 495.60 405.00 495.40 Z" fill="#fec272" fill-rule="nonzero" group-id="3" id="XMLID_82_" node-id="7" stroke="none" target-height="47.399994" target-width="85" target-x="394" target-y="452.2"></path></g><g node-id="85"><path d="M 132.80 336.40 C 129.80 341.70 121.70 339.00 117.90 333.00 C 114.10 326.90 108.40 330.50 109.70 342.50 C 111.00 354.40 115.80 362.30 124.40 368.00 C 133.00 373.70 142.70 376.00 140.40 379.90 C 138.10 383.80 134.50 392.70 147.40 397.20 C 160.30 401.80 179.00 399.70 188.60 388.90 C 198.30 378.10 198.30 354.30 193.80 341.50 C 189.40 328.70 180.50 320.60 177.60 314.70 C 174.70 308.80 169.30 312.90 170.20 318.40 C 171.20 323.90 173.00 327.10 169.10 327.20 C 165.20 327.30 162.60 313.90 150.90 311.40 C 139.20 308.80 137.30 315.80 129.90 311.80 C 122.50 307.70 119.80 308.10 119.30 314.50 C 118.80 321.00 123.70 328.10 127.90 329.20 C 134.20 330.80 134.80 332.80 132.80 336.40 Z" fill="#fec272" fill-rule="nonzero" group-id="4" id="XMLID_74_" node-id="9" stroke="none" target-height="94.099976" target-width="89.9" target-x="108.4" target-y="307.7"></path></g><g node-id="86"><path d="M 150.00 342.60 C 151.10 348.30 146.40 354.50 138.20 350.90 C 130.00 347.30 127.10 350.20 131.30 357.80 C 135.50 365.40 144.90 372.40 150.00 375.00 C 155.10 377.60 151.60 381.40 152.30 385.30 C 153.00 389.20 164.40 395.10 175.90 382.50 C 187.40 369.90 187.50 353.90 184.20 342.20 C 180.90 330.60 176.50 332.40 176.50 336.30 C 176.50 340.20 177.00 347.90 174.00 347.10 C 171.10 346.30 167.00 340.60 163.20 334.00 C 156.70 322.70 140.80 313.50 138.70 322.20 C 137.20 328.30 148.40 333.90 150.00 342.60 Z" fill="#ff8d76" fill-rule="nonzero" group-id="5" id="XMLID_75_" node-id="11" stroke="none" target-height="81.600006" target-width="60.4" target-x="127.1" target-y="313.5"></path></g><g node-id="87"><path d="M 381.90 305.30 C 367.50 293.60 354.40 272.60 351.50 234.90 C 349.40 207.60 358.50 195.50 367.90 191.00 C 377.20 186.60 377.20 182.20 381.40 183.40 C 385.60 184.60 384.60 194.20 380.70 198.90 C 376.80 203.60 376.30 210.90 382.20 211.40 C 388.10 211.90 388.80 201.30 389.80 191.50 C 390.80 181.70 393.20 177.80 404.80 172.40 C 416.40 167.00 422.50 163.10 424.90 155.20 C 427.40 147.30 429.80 147.80 434.20 150.00 C 438.60 152.20 440.10 162.50 436.40 166.40 C 432.70 170.30 429.80 173.30 430.30 176.70 C 430.80 180.10 432.50 174.70 442.60 169.80 C 452.70 164.90 456.80 150.20 458.10 142.60 C 459.40 135.00 462.00 133.00 469.10 136.50 C 476.20 139.90 485.30 153.40 482.80 171.80 C 480.30 190.20 467.80 202.70 465.90 212.60 C 463.90 222.40 470.10 224.60 476.50 220.90 C 482.90 217.20 479.40 206.20 482.90 201.00 C 486.30 195.80 496.90 206.90 500.10 225.50 C 503.30 244.10 508.20 273.70 480.50 301.40 C 451.90 329.80 410.00 328.20 381.90 305.30 Z" fill="#fec272" fill-rule="nonzero" group-id="6" id="XMLID_66_" node-id="13" stroke="none" target-height="196.79999" target-width="158.80002" target-x="349.4" target-y="133"></path></g><g node-id="88"><path d="M 392.60 218.00 C 399.60 206.60 406.80 207.00 407.10 211.10 C 407.30 215.30 401.50 221.20 404.40 224.10 C 407.30 227.00 411.30 221.90 412.50 214.50 C 413.70 207.10 420.80 203.00 428.20 199.50 C 435.60 196.10 438.80 188.70 442.40 188.50 C 446.00 188.30 447.30 196.10 444.90 200.80 C 442.40 205.50 433.60 207.90 433.60 214.50 C 433.60 221.10 440.10 221.50 442.90 216.00 C 445.70 210.50 445.00 207.50 450.90 207.00 C 456.80 206.50 456.30 220.60 452.40 225.80 C 448.50 231.00 441.80 235.10 444.90 240.20 C 448.00 245.30 453.70 240.20 456.80 236.80 C 459.90 233.40 466.10 237.10 467.10 243.70 C 468.10 250.20 455.30 261.40 456.10 267.10 C 456.90 272.80 462.00 271.40 464.90 267.40 C 467.80 263.50 471.60 268.50 470.60 275.10 C 469.60 281.70 451.80 303.60 420.00 295.20 C 373.80 283.10 380.10 238.50 392.60 218.00 Z" fill="#ff8d76" fill-rule="nonzero" group-id="7" id="XMLID_67_" node-id="15" stroke="none" target-height="115.3" target-width="97.80002" target-x="373.8" target-y="188.3"></path></g><g node-id="89"><path d="M 226.40 204.40 L 330.00 114.10 C 331.00 113.20 332.50 113.30 333.40 114.30 L 333.40 114.30 C 334.30 115.30 334.20 116.90 333.20 117.80 L 231.30 211.00 L 226.40 204.40 Z" fill="#e1ecff" fill-rule="nonzero" group-id="8" id="XMLID_61_" node-id="17" stroke="none" target-height="97.8" target-width="107.899994" target-x="226.4" target-y="113.2"></path></g><g node-id="90"><path d="M 216.70 222.80 L 159.90 97.60 C 159.30 96.40 159.90 94.90 161.10 94.40 L 161.10 94.40 C 162.30 93.80 163.80 94.30 164.40 95.60 L 224.40 220.10 L 216.70 222.80 Z" fill="#e1ecff" fill-rule="nonzero" group-id="9" id="XMLID_65_" node-id="19" stroke="none" target-height="129" target-width="65.09999" target-x="159.3" target-y="93.8"></path></g><g node-id="91"><g node-id="96"><g node-id="101"><path d="M 236.00 214.00 C 236.00 224.33 227.63 232.70 217.30 232.70 C 206.97 232.70 198.60 224.33 198.60 214.00 C 198.60 203.67 206.97 195.30 217.30 195.30 C 227.63 195.30 236.00 203.67 236.00 214.00 Z" fill="#0d2560" fill-rule="nonzero" group-id="10,15,20" id="XMLID_59_" node-id="23" stroke="none" target-height="37.399994" target-width="37.399994" target-x="198.6" target-y="195.3"></path><path d="M 225.50 202.30 C 225.50 205.39 221.47 207.90 216.50 207.90 C 211.53 207.90 207.50 205.39 207.50 202.30 C 207.50 199.21 211.53 196.70 216.50 196.70 C 221.47 196.70 225.50 199.21 225.50 202.30 Z" fill="#273d7a" fill-rule="nonzero" group-id="10,15,20" id="XMLID_190_" node-id="24" stroke="none" target-height="11.199997" target-width="18" target-x="207.5" target-y="196.7"></path></g><g node-id="102"><path d="M 364.50 444.40 C 364.20 452.90 354.30 453.20 349.40 443.40 C 347.10 438.70 343.30 430.70 340.00 423.70 C 336.40 416.00 333.40 409.40 333.40 409.40 L 361.90 412.30 C 361.90 412.30 362.50 417.30 363.20 423.60 C 364.00 430.80 364.70 439.80 364.50 444.40 Z" fill="#1c3177" fill-rule="nonzero" group-id="10,15,21" id="XMLID_94_" node-id="26" stroke="none" target-height="43.80002" target-width="31.300018" target-x="333.4" target-y="409.4"></path><path d="M 363.20 423.60 C 361.80 423.90 360.20 424.20 358.50 424.50 C 352.60 425.50 345.80 424.80 340.10 423.70 C 336.50 416.00 333.50 409.40 333.50 409.40 L 362.00 412.30 C 361.90 412.30 362.60 417.30 363.20 423.60 Z" fill="#072359" fill-rule="nonzero" group-id="10,15,21" id="XMLID_92_" node-id="27" stroke="none" target-height="16.100006" target-width="29.700012" target-x="333.5" target-y="409.4"></path></g><g node-id="103"><path d="M 171.20 411.80 C 168.20 419.80 177.10 423.90 185.40 416.80 C 189.40 413.40 196.00 407.50 201.80 402.30 C 208.10 396.60 213.50 391.70 213.50 391.70 L 186.10 383.20 C 186.10 383.20 183.60 387.60 180.50 393.10 C 177.10 399.60 172.80 407.50 171.20 411.80 Z" fill="#1c3177" fill-rule="nonzero" group-id="10,15,22" id="XMLID_88_" node-id="29" stroke="none" target-height="40.69998" target-width="45.300003" target-x="168.2" target-y="383.2"></path><path d="M 180.60 393.20 C 181.80 394.10 183.10 395.00 184.60 395.90 C 189.60 399.10 196.10 401.10 201.90 402.40 C 208.20 396.70 213.60 391.80 213.60 391.80 L 186.20 383.30 C 186.20 383.30 183.70 387.70 180.60 393.20 Z" fill="#072359" fill-rule="nonzero" group-id="10,15,22" id="XMLID_87_" node-id="30" stroke="none" target-height="19.100006" target-width="33" target-x="180.6" target-y="383.3"></path></g><path d="M 437.20 304.00 C 433.40 333.90 430.00 365.60 423.50 387.50 C 422.70 390.30 421.80 392.90 420.80 395.30 C 412.50 416.90 397.40 412.50 377.90 414.30 C 358.40 416.10 352.50 415.90 352.50 415.90 L 357.50 385.50 L 381.30 241.90 L 428.00 246.00 C 428.00 246.00 430.50 247.80 432.60 251.20 C 434.80 254.70 441.50 270.20 437.20 304.00 Z" fill="#0d2560" fill-rule="nonzero" group-id="10,15" id="XMLID_71_" node-id="31" stroke="none" target-height="175" target-width="89" target-x="352.5" target-y="241.9"></path><path d="M 423.50 387.50 C 422.70 390.30 421.80 392.90 420.80 395.30 C 412.50 416.90 397.40 412.50 377.90 414.30 C 358.40 416.10 352.50 415.90 352.50 415.90 L 357.50 385.50 L 423.50 387.50 Z" fill="#072359" fill-rule="nonzero" group-id="10,15" id="XMLID_69_" node-id="32" stroke="none" target-height="31.399994" target-width="71" target-x="352.5" target-y="385.5"></path><path d="M 179.50 220.60 C 179.50 220.60 191.70 214.20 205.50 213.70 C 219.30 213.20 328.50 224.10 364.20 228.00 C 399.90 231.90 415.30 236.80 422.50 240.60 C 429.70 244.40 432.60 251.20 432.60 251.20 L 375.30 246.00 L 179.50 220.60 Z" fill="#142966" fill-rule="nonzero" group-id="10,15" id="XMLID_57_" node-id="33" stroke="none" target-height="38" target-width="253.1" target-x="179.5" target-y="213.2"></path><path d="M 157.70 353.10 L 165.00 240.50 C 165.80 227.50 177.40 217.80 190.30 219.30 L 375.90 240.30 C 387.50 241.60 395.80 252.00 394.70 263.50 L 382.50 386.40 C 380.60 405.30 363.10 418.60 344.40 415.50 L 185.70 388.60 C 168.70 385.70 156.60 370.30 157.70 353.10 Z" fill="#273d7a" fill-rule="nonzero" group-id="10,15" id="XMLID_26_" node-id="34" stroke="none" target-height="200.8" target-width="239.19998" target-x="156.6" target-y="217.8"></path><path d="M 331.50 390.20 L 344.90 260.30 C 345.50 254.80 350.40 250.80 355.90 251.40 L 379.20 254.00 C 384.70 254.60 388.60 259.60 388.00 265.00 L 373.00 395.00 C 372.40 400.50 367.30 404.40 361.80 403.70 L 340.20 401.00 C 334.80 400.40 330.90 395.60 331.50 390.20 Z" fill="#fec272" fill-rule="nonzero" group-id="10,15" id="XMLID_31_" node-id="35" stroke="none" target-height="153.59999" target-width="57.700012" target-x="330.9" target-y="250.8"></path><path d="M 382.10 279.70 C 382.10 283.90 380.60 287.70 378.20 290.70 C 376.50 292.70 374.50 294.40 372.10 295.50 C 369.90 296.60 367.40 297.10 364.70 297.10 C 355.10 297.10 347.30 289.30 347.30 279.70 C 347.30 275.70 348.70 272.00 350.90 269.10 C 352.50 267.00 354.50 265.30 356.90 264.10 C 359.20 262.90 361.90 262.30 364.70 262.30 C 374.20 262.30 382.10 270.10 382.10 279.70 Z" fill="#f9a95a" fill-rule="nonzero" group-id="10,15,23" id="XMLID_188_" node-id="37" stroke="none" target-height="34.80002" target-width="34.80002" target-x="347.3" target-y="262.3"></path><path d="M 381.20 276.80 C 381.20 280.60 379.90 284.10 377.60 286.90 C 376.10 288.80 374.20 290.30 372.00 291.30 C 369.90 292.30 367.70 292.80 365.20 292.80 C 356.40 292.80 349.20 285.70 349.20 276.80 C 349.20 273.10 350.40 269.80 352.50 267.10 C 354.00 265.20 355.80 263.60 358.00 262.60 C 360.20 261.50 362.60 260.90 365.10 260.90 C 374.10 260.80 381.20 268.00 381.20 276.80 Z" fill="#99adf9" fill-rule="nonzero" group-id="10,15,23" id="XMLID_63_" node-id="38" stroke="none" target-height="32" target-width="32" target-x="349.2" target-y="260.8"></path><path d="M 377.70 286.90 C 376.20 288.80 374.30 290.30 372.10 291.30 L 352.70 267.10 C 354.20 265.20 356.00 263.60 358.20 262.60 L 377.70 286.90 Z" fill="#c5dfff" fill-rule="nonzero" group-id="10,15,23" id="XMLID_58_" node-id="39" stroke="none" target-height="28.699982" target-width="25" target-x="352.7" target-y="262.6"></path><path d="M 366.40 337.50 C 362.60 339.00 358.70 339.10 355.10 338.00 C 352.70 337.30 350.40 336.00 348.50 334.20 C 346.70 332.60 345.30 330.50 344.30 328.20 C 340.80 319.50 344.90 309.60 353.60 306.10 C 357.20 304.60 361.00 304.50 364.50 305.50 C 366.90 306.20 369.20 307.40 371.20 309.10 C 373.10 310.80 374.70 312.90 375.70 315.40 C 379.30 324.10 375.10 334.00 366.40 337.50 Z" fill="#f9a95a" fill-rule="nonzero" group-id="10,15,24" id="XMLID_173_" node-id="41" stroke="none" target-height="34.600006" target-width="38.5" target-x="340.8" target-y="304.5"></path><path d="M 366.40 333.40 C 362.90 334.80 359.10 334.90 355.70 333.90 C 353.40 333.20 351.30 332.00 349.50 330.40 C 347.80 328.90 346.50 327.00 345.60 324.70 C 342.30 316.50 346.20 307.20 354.30 303.90 C 357.70 302.50 361.30 302.40 364.60 303.30 C 366.90 303.90 369.00 305.10 370.90 306.70 C 372.70 308.30 374.20 310.30 375.20 312.70 C 378.50 320.80 374.60 330.10 366.40 333.40 Z" fill="#99adf9" fill-rule="nonzero" group-id="10,15,24" id="XMLID_64_" node-id="42" stroke="none" target-height="32.5" target-width="36.200012" target-x="342.3" target-y="302.4"></path><path d="M 370.90 306.60 L 355.70 333.90 C 353.40 333.20 351.30 332.00 349.50 330.40 L 364.60 303.30 C 367.00 303.90 369.10 305.00 370.90 306.60 Z" fill="#c5dfff" fill-rule="nonzero" group-id="10,15,24" id="XMLID_60_" node-id="43" stroke="none" target-height="30.600006" target-width="21.399994" target-x="349.5" target-y="303.3"></path><path d="M 367.00 356.20 L 346.00 353.00 C 344.60 352.80 343.60 351.50 343.80 350.10 L 343.80 350.10 C 344.00 348.70 345.20 347.70 346.60 347.90 L 367.60 351.10 C 369.00 351.30 370.00 352.60 369.80 354.00 L 369.80 354.00 C 369.60 355.40 368.30 356.40 367.00 356.20 Z" fill="#0d2560" fill-rule="nonzero" group-id="10,15,25" id="XMLID_32_" node-id="45" stroke="none" target-height="8.699982" target-width="26.399994" target-x="343.6" target-y="347.7"></path><path d="M 365.60 367.80 L 344.60 364.60 C 343.20 364.40 342.20 363.10 342.40 361.70 L 342.40 361.70 C 342.60 360.30 343.80 359.30 345.20 359.50 L 366.20 362.70 C 367.60 362.90 368.60 364.20 368.40 365.60 L 368.40 365.60 C 368.30 367.10 367.00 368.00 365.60 367.80 Z" fill="#0d2560" fill-rule="nonzero" group-id="10,15,25" id="XMLID_34_" node-id="46" stroke="none" target-height="8.700012" target-width="26.399994" target-x="342.2" target-y="359.3"></path><path d="M 364.30 379.50 L 343.30 376.30 C 341.90 376.10 340.90 374.80 341.10 373.40 L 341.10 373.40 C 341.30 372.00 342.50 371.00 343.90 371.20 L 364.90 374.40 C 366.30 374.60 367.30 375.90 367.10 377.30 L 367.10 377.30 C 367.00 378.70 365.70 379.70 364.30 379.50 Z" fill="#0d2560" fill-rule="nonzero" group-id="10,15,25" id="XMLID_36_" node-id="47" stroke="none" target-height="8.700012" target-width="26.399994" target-x="340.9" target-y="371"></path><path d="M 363.00 391.10 L 342.00 387.90 C 340.60 387.70 339.60 386.40 339.80 385.00 L 339.80 385.00 C 340.00 383.60 341.20 382.60 342.60 382.80 L 363.60 386.00 C 365.00 386.20 366.00 387.50 365.80 388.90 L 365.80 388.90 C 365.70 390.30 364.40 391.30 363.00 391.10 Z" fill="#0d2560" fill-rule="nonzero" group-id="10,15,25" id="XMLID_56_" node-id="48" stroke="none" target-height="8.699982" target-width="26.399994" target-x="339.6" target-y="382.6"></path><path d="M 336.40 264.10 L 335.80 270.40 L 325.20 382.20 C 324.80 386.00 323.20 389.40 320.70 391.90 C 317.20 395.50 312.10 397.40 306.70 396.50 L 187.20 377.60 C 174.70 375.60 165.70 364.40 166.50 351.70 L 172.90 251.50 L 173.10 248.20 L 173.50 242.70 C 174.00 235.10 180.80 229.40 188.40 230.30 L 322.40 246.40 C 331.00 247.60 337.20 255.40 336.40 264.10 Z" fill="#f8fbff" fill-rule="nonzero" group-id="10,15,26" id="XMLID_249_" node-id="50" stroke="none" target-height="168" target-width="171.50002" target-x="165.7" target-y="229.4"></path><path d="M 336.40 264.10 L 335.80 270.40 L 173.10 248.30 L 173.50 242.80 C 174.00 235.20 180.80 229.50 188.40 230.40 L 322.40 246.50 C 331.00 247.60 337.20 255.40 336.40 264.10 Z" fill="#c5dfff" fill-rule="nonzero" group-id="10,15,26" id="XMLID_35_" node-id="51" stroke="none" target-height="40.899994" target-width="164.1" target-x="173.1" target-y="229.5"></path><path d="M 189.40 241.80 C 189.10 243.80 187.20 245.30 185.10 245.00 C 183.00 244.70 181.40 242.90 181.70 240.90 C 182.00 238.90 183.90 237.40 186.00 237.70 C 188.10 238.00 189.60 239.80 189.40 241.80 Z" fill="#ffffff" fill-rule="nonzero" group-id="10,15,26,28" id="XMLID_27_" node-id="53" stroke="none" target-height="7.900009" target-width="8.200012" target-x="181.4" target-y="237.4"></path><path d="M 205.20 243.70 C 204.90 245.70 203.00 247.20 200.90 246.90 C 198.80 246.60 197.20 244.80 197.50 242.80 C 197.80 240.80 199.70 239.30 201.80 239.60 C 203.90 239.90 205.40 241.70 205.20 243.70 Z" fill="#ffffff" fill-rule="nonzero" group-id="10,15,26,28" id="XMLID_29_" node-id="54" stroke="none" target-height="7.899994" target-width="8.199997" target-x="197.2" target-y="239.3"></path><path d="M 220.90 245.60 C 220.60 247.60 218.70 249.10 216.60 248.80 C 214.50 248.50 212.90 246.70 213.20 244.70 C 213.50 242.70 215.40 241.20 217.50 241.50 C 219.70 241.70 221.20 243.60 220.90 245.60 Z" fill="#ffffff" fill-rule="nonzero" group-id="10,15,26,28" id="XMLID_30_" node-id="55" stroke="none" target-height="7.900009" target-width="8.300003" target-x="212.9" target-y="241.2"></path><path d="M 320.70 391.90 C 317.20 395.50 312.10 397.40 306.70 396.50 L 187.20 377.60 C 174.70 375.60 165.70 364.40 166.50 351.70 L 172.90 251.50 C 175.00 286.20 169.70 324.90 189.00 346.90 C 217.30 379.20 243.00 379.00 320.70 391.90 Z" fill="#e1ecff" fill-rule="nonzero" group-id="10,15,26" id="XMLID_199_" node-id="56" stroke="none" target-height="145.9" target-width="155.00002" target-x="165.7" target-y="251.5"></path></g></g><g node-id="92"><g node-id="97"><path d="M 224.30 289.40 L 219.30 288.60 C 218.00 288.40 216.90 289.20 216.80 290.50 L 215.30 304.20 L 209.00 303.50 C 207.90 303.30 207.20 302.20 207.60 301.20 L 212.10 290.20 C 212.70 288.80 211.70 287.20 210.20 287.00 L 206.10 286.30 C 205.10 286.10 204.10 286.70 203.70 287.60 L 196.60 305.20 C 195.80 307.20 197.10 309.50 199.30 309.90 L 214.40 312.50 L 211.70 336.90 C 211.60 338.20 212.50 339.40 213.80 339.60 L 218.50 340.30 C 219.70 340.50 220.80 339.70 221.00 338.40 L 226.40 292.20 C 226.50 290.90 225.60 289.60 224.30 289.40 Z" fill="#99adf9" fill-rule="nonzero" group-id="11,16" id="XMLID_175_" node-id="59" stroke="none" target-height="54.399994" target-width="30.699997" target-x="195.8" target-y="286.1"></path><path d="M 295.60 301.30 L 290.50 300.40 C 289.20 300.20 288.00 301.10 287.90 302.30 L 286.30 316.50 L 279.70 315.80 C 278.60 315.60 277.90 314.40 278.30 313.40 L 282.90 302.00 C 283.50 300.60 282.50 298.90 280.90 298.60 L 276.70 297.90 C 275.60 297.70 274.60 298.30 274.20 299.20 L 266.80 317.40 C 266.00 319.50 267.40 321.90 269.60 322.30 L 285.20 324.90 L 282.40 350.20 C 282.30 351.50 283.20 352.80 284.60 353.00 L 289.50 353.70 C 290.80 353.90 291.90 353.00 292.10 351.80 L 297.70 303.90 C 297.90 302.70 296.90 301.50 295.60 301.30 Z" fill="#99adf9" fill-rule="nonzero" group-id="11,16" id="XMLID_169_" node-id="60" stroke="none" target-height="56.19998" target-width="31.899994" target-x="266" target-y="297.7"></path><g node-id="108"><path d="M 248.70 292.60 C 238.80 291.70 233.00 297.30 230.60 313.80 C 227.60 334.30 233.00 342.60 243.00 344.90 C 256.60 348.10 259.00 336.40 261.70 319.10 C 264.40 301.80 258.60 293.50 248.70 292.60 Z M 253.60 318.70 C 252.30 330.80 248.60 337.70 244.10 336.60 C 239.30 335.40 237.50 329.80 238.90 315.50 C 240.00 304.00 242.80 300.10 247.50 300.50 C 252.20 301.00 254.90 306.60 253.60 318.70 Z" fill="#99adf9" fill-rule="nonzero" group-id="11,16,27" id="XMLID_254_" node-id="62" stroke="none" target-height="56.399994" target-width="36.799988" target-x="227.6" target-y="291.7"></path></g></g></g><g node-id="93"><g node-id="98"><path d="M 379.20 163.00 C 374.40 162.90 372.30 151.40 376.80 148.50 C 381.30 145.60 384.50 151.50 384.60 155.80 C 384.70 160.10 383.50 163.20 379.20 163.00 Z" fill="#ff8d76" fill-rule="nonzero" group-id="12,17" id="XMLID_68_" node-id="65" stroke="none" target-height="17.59999" target-width="12.400024" target-x="372.3" target-y="145.6"></path><path d="M 434.70 129.70 C 430.30 129.60 428.40 119.20 432.60 116.60 C 436.70 114.00 439.50 119.30 439.60 123.20 C 439.70 127.10 438.60 129.80 434.70 129.70 Z" fill="#fec272" fill-rule="nonzero" group-id="12,17" id="XMLID_70_" node-id="66" stroke="none" target-height="15.800003" target-width="11.300018" target-x="428.4" target-y="114"></path><path d="M 478.60 108.50 C 474.10 108.40 472.10 97.70 476.40 95.00 C 480.70 92.30 483.50 97.80 483.70 101.80 C 483.90 105.80 482.60 108.70 478.60 108.50 Z" fill="#ff8d76" fill-rule="nonzero" group-id="12,17" id="XMLID_72_" node-id="67" stroke="none" target-height="16.399994" target-width="11.799988" target-x="472.1" target-y="92.3"></path><path d="M 515.10 191.00 C 511.30 190.00 511.80 180.30 516.00 178.90 C 520.20 177.50 521.60 182.70 520.90 186.20 C 520.20 189.70 518.60 191.90 515.10 191.00 Z" fill="#fec272" fill-rule="nonzero" group-id="12,17" id="XMLID_73_" node-id="68" stroke="none" target-height="14.399994" target-width="10.299988" target-x="511.3" target-y="177.5"></path></g></g><g node-id="94"><g node-id="99"><path d="M 131.90 292.40 C 127.20 291.70 126.30 280.20 131.20 277.90 C 136.10 275.60 138.40 281.70 138.10 285.90 C 137.70 290.20 136.20 292.90 131.90 292.40 Z" fill="#fec272" fill-rule="nonzero" group-id="13,18" id="XMLID_76_" node-id="71" stroke="none" target-height="17.299988" target-width="12.099991" target-x="126.3" target-y="275.6"></path><path d="M 118.40 255.40 C 114.70 254.90 114.10 245.90 117.80 244.10 C 121.50 242.30 123.40 247.00 123.10 250.30 C 122.90 253.70 121.70 255.90 118.40 255.40 Z" fill="#ff8d76" fill-rule="nonzero" group-id="13,18" id="XMLID_77_" node-id="72" stroke="none" target-height="13.599991" target-width="9.300003" target-x="114.1" target-y="242.3"></path><path d="M 91.30 314.80 C 85.30 314.00 84.20 299.20 90.40 296.30 C 96.50 293.40 99.60 301.10 99.20 306.60 C 98.70 312.00 96.80 315.50 91.30 314.80 Z" fill="#fec272" fill-rule="nonzero" group-id="13,18" id="XMLID_78_" node-id="73" stroke="none" target-height="22.100006" target-width="15.400002" target-x="84.2" target-y="293.4"></path></g></g><g node-id="95"><g node-id="100"><path d="M 154.20 215.60 L 106.60 177.70 L 98.00 193.40 Z" fill="#fec272" fill-rule="nonzero" group-id="14,19" id="XMLID_79_" node-id="76" stroke="none" target-height="37.90001" target-width="56.199997" target-x="98" target-y="177.7"></path><path d="M 156.50 204.90 L 110.30 159.80 L 127.60 148.60 Z" fill="#fec272" fill-rule="nonzero" group-id="14,19" id="XMLID_80_" node-id="77" stroke="none" target-height="56.299988" target-width="46.199997" target-x="110.3" target-y="148.6"></path><path d="M 149.70 150.20 L 165.90 200.60 L 164.30 148.70 Z" fill="#fec272" fill-rule="nonzero" group-id="14,19" id="XMLID_81_" node-id="78" stroke="none" target-height="51.90001" target-width="16.199997" target-x="149.7" target-y="148.7"></path></g></g></svg>