<svg width="16" height="16" viewBox="0 0 16 16" fill="none" xmlns="http://www.w3.org/2000/svg">
  <path d="M7.87273 3.30703C7.51553 3.39633 7.29836 3.75828 7.38766 4.11548C7.47696 4.47268 7.83891 4.68985 8.19611 4.60055L7.87273 3.30703ZM6.99769 13.3449L7.13503 12.6925L7.13503 12.6925L6.99769 13.3449ZM4.50609 12.8203L4.64343 12.168L4.50609 12.8203ZM12.4987 8.08709C12.4987 8.45528 12.7972 8.75376 13.1654 8.75376C13.5336 8.75376 13.8321 8.45528 13.8321 8.08709H12.4987ZM9.24072 13.8705C9.60101 13.7946 9.83159 13.441 9.75574 13.0807C9.67989 12.7205 9.32633 12.4899 8.96604 12.5657L9.24072 13.8705ZM8.50103 13.3449L8.36369 12.6925L8.36369 12.6925L8.50103 13.3449ZM7.56031 13.4453L7.61558 12.7809H7.61557L7.56031 13.4453ZM7.93842 13.4453L7.88315 12.7809H7.88315L7.93842 13.4453ZM2.47438 11.6553L1.86269 11.9205H1.86269L2.47438 11.6553ZM3.05478 12.3707L2.66933 12.9146H2.66933L3.05478 12.3707ZM11.9601 3.22753L11.7633 3.86447L11.7633 3.86447L11.9601 3.22753ZM12.9179 3.97532L13.488 3.62986V3.62986L12.9179 3.97532ZM2.33421 5.00853L3.00053 5.03015L2.33421 5.00853ZM4.33389 4.05855C4.69418 4.1344 5.04774 3.90382 5.12359 3.54352C5.19944 3.18323 4.96886 2.82967 4.60857 2.75382L4.33389 4.05855ZM4.34154 3.3798L4.22542 4.03628H4.22542L4.34154 3.3798ZM7.36775 5.85816C7.36775 6.22635 7.66623 6.52483 8.03442 6.52483C8.40261 6.52483 8.70108 6.22635 8.70108 5.85816H7.36775ZM7.28068 3.33019L7.65354 2.77755L7.28068 3.33019ZM6.3917 2.7304L6.01884 3.28304L6.3917 2.7304ZM5.14672 11.4693L5.30454 10.8216L5.30453 10.8216L5.14672 11.4693ZM5.31307 11.5099L5.15526 12.1576L5.15526 12.1576L5.31307 11.5099ZM7.02389 13.7585C7.1649 14.0986 7.55493 14.26 7.89504 14.119C8.23516 13.978 8.39657 13.5879 8.25557 13.2478L7.02389 13.7585ZM2.99998 10.1425V5.14087H1.66665V10.1425H2.99998ZM8.19611 4.60055L9.92687 4.16786L9.60349 2.87434L7.87273 3.30703L8.19611 4.60055ZM7.13503 12.6925L4.64343 12.168L4.36875 13.4727L6.86035 13.9973L7.13503 12.6925ZM12.4987 6.17593V8.08709H13.8321V6.17593H12.4987ZM8.96604 12.5657L8.36369 12.6925L8.63837 13.9973L9.24072 13.8705L8.96604 12.5657ZM6.86035 13.9973C7.12549 14.0531 7.31253 14.0937 7.50504 14.1097L7.61557 12.7809C7.52479 12.7734 7.43118 12.7549 7.13503 12.6925L6.86035 13.9973ZM8.36369 12.6925C8.06755 12.7549 7.97394 12.7734 7.88315 12.7809L7.99368 14.1097C8.1862 14.0937 8.37323 14.0531 8.63838 13.9973L8.36369 12.6925ZM7.50504 14.1097C7.66764 14.1232 7.83109 14.1232 7.99369 14.1097L7.88315 12.7809C7.79411 12.7883 7.70461 12.7883 7.61558 12.7809L7.50504 14.1097ZM1.66665 10.1425C1.66665 10.5285 1.66623 10.854 1.68609 11.1229C1.70658 11.4001 1.75093 11.6626 1.86269 11.9205L3.08606 11.3902C3.05676 11.3226 3.03058 11.2245 3.0158 11.0246C3.0004 10.8162 2.99998 10.5481 2.99998 10.1425H1.66665ZM4.64343 12.168C4.24658 12.0844 3.98424 12.0288 3.78354 11.9708C3.59092 11.9151 3.50033 11.8693 3.44023 11.8267L2.66933 12.9146C2.89864 13.0771 3.14641 13.1746 3.41344 13.2517C3.67239 13.3265 3.991 13.3932 4.36875 13.4727L4.64343 12.168ZM1.86269 11.9205C2.0356 12.3194 2.31459 12.6632 2.66933 12.9146L3.44023 11.8267C3.28447 11.7163 3.16197 11.5654 3.08606 11.3902L1.86269 11.9205ZM9.92687 4.16786C10.5182 4.02002 10.9193 3.92038 11.2302 3.87125C11.5361 3.82291 11.6772 3.83787 11.7633 3.86447L12.157 2.59059C11.7866 2.47613 11.4098 2.493 11.0221 2.55426C10.6393 2.61475 10.1711 2.73243 9.60349 2.87434L9.92687 4.16786ZM13.8321 6.17593C13.8321 5.59081 13.8327 5.10808 13.7985 4.72207C13.764 4.3311 13.6889 3.96138 13.488 3.62986L12.3477 4.32078C12.3944 4.39782 12.4431 4.53106 12.4704 4.83958C12.4981 5.15306 12.4987 5.56634 12.4987 6.17593H13.8321ZM11.7633 3.86447C12.0074 3.93991 12.2153 4.10227 12.3477 4.32078L13.488 3.62986C13.1865 3.13219 12.7129 2.76241 12.157 2.59059L11.7633 3.86447ZM2.99998 5.14087C2.99998 5.06548 3.00007 5.04425 3.00053 5.03015L1.6679 4.98691C1.66656 5.02825 1.66665 5.07677 1.66665 5.14087H2.99998ZM4.60857 2.75382C4.54584 2.74061 4.49838 2.73053 4.45765 2.72332L4.22542 4.03628C4.23932 4.03873 4.26011 4.04302 4.33389 4.05855L4.60857 2.75382ZM3.00053 5.03015C3.02113 4.39505 3.5997 3.9256 4.22542 4.03628L4.45765 2.72332C3.03255 2.47126 1.71482 3.54045 1.6679 4.98691L3.00053 5.03015ZM8.70108 5.85816V4.74799H7.36775V5.85816H8.70108ZM7.65354 2.77755L6.76457 2.17776L6.01884 3.28304L6.90781 3.88283L7.65354 2.77755ZM3.94709 3.6756V10.7909H5.28042V3.6756H3.94709ZM4.98891 12.117L5.15526 12.1576L5.47089 10.8621L5.30454 10.8216L4.98891 12.117ZM5.15526 12.1576C5.99771 12.3628 6.69181 12.9575 7.02389 13.7585L8.25557 13.2478C7.76069 12.0542 6.72633 11.168 5.47089 10.8621L5.15526 12.1576ZM3.94709 10.7909C3.94709 11.4203 4.37743 11.9681 4.98891 12.117L5.30453 10.8216C5.29038 10.8182 5.28042 10.8055 5.28042 10.7909H3.94709ZM6.76457 2.17776C5.56449 1.36806 3.94709 2.22791 3.94709 3.6756H5.28042C5.28042 3.29619 5.70431 3.07084 6.01884 3.28304L6.76457 2.17776ZM8.70108 4.74799C8.70108 3.9579 8.3085 3.21945 7.65354 2.77755L6.90781 3.88283C7.19538 4.07686 7.36775 4.40109 7.36775 4.74799H8.70108Z" fill="#57606A"/>
  <path d="M11.3669 8.98317C11.4531 8.56127 12.0559 8.56128 12.1421 8.98317C12.3326 9.91496 13.0608 10.6432 13.9926 10.8336C14.4145 10.9198 14.4145 11.5226 13.9926 11.6089C13.0608 11.7993 12.3326 12.5275 12.1421 13.4593C12.0559 13.8812 11.4531 13.8812 11.3669 13.4593C11.1764 12.5275 10.4482 11.7993 9.51643 11.6089C9.09454 11.5226 9.09454 10.9198 9.51643 10.8336C10.4482 10.6431 11.1764 9.91496 11.3669 8.98317Z" fill="currentColor" stroke="currentColor" stroke-width="0.180419"/>
</svg>
