<svg width="24" height="24" viewBox="0 0 24 24" fill="none" xmlns="http://www.w3.org/2000/svg">
  <path
    d="M13.5 4H7.66025C7.52683 4 7.46013 4 7.4003 4.01928C7.34736 4.03633 7.29857 4.06424 7.25702 4.10122C7.21008 4.14301 7.17625 4.20051 7.10861 4.3155L2.77911 11.6755C2.70964 11.7936 2.6749 11.8527 2.66131 11.9156C2.6493 11.9712 2.6493 12.0288 2.66131 12.0844C2.6749 12.1473 2.70964 12.2064 2.77911 12.3245L7.10861 19.6845C7.17625 19.7995 7.21008 19.857 7.25702 19.8988C7.29857 19.9358 7.34736 19.9637 7.4003 19.9807C7.46013 20 7.52683 20 7.66025 20H16.34C16.4734 20 16.5401 20 16.5999 19.9807C16.6529 19.9637 16.7017 19.9358 16.7432 19.8988C16.7901 19.857 16.824 19.7995 16.8916 19.6845L21.2209 12.3245C21.2904 12.2064 21.3251 12.1473 21.3387 12.0844C21.3507 12.0288 21.3507 11.9712 21.3387 11.9156C21.3251 11.8527 21.2904 11.7936 21.2209 11.6755L20.8235 11"
    stroke="currentColor" stroke-width="2" stroke-linecap="round" />
  <path
    d="M18.3495 4.0242C18.3561 3.99193 18.4022 3.99193 18.4088 4.0242C18.7511 5.69868 20.0597 7.00727 21.7341 7.34953C21.7664 7.35612 21.7664 7.40222 21.7341 7.40881C20.0597 7.75106 18.7511 9.05966 18.4088 10.7341C18.4022 10.7664 18.3561 10.7664 18.3495 10.7341C18.0073 9.05966 16.6987 7.75106 15.0242 7.40881C14.9919 7.40222 14.9919 7.35612 15.0242 7.34953C16.6987 7.00727 18.0073 5.69868 18.3495 4.0242Z"
    stroke="currentColor" stroke-width="2" stroke-linecap="round" />
  <path
    d="M12 14C13.1046 14 14 13.1046 14 12C14 10.8954 13.1046 10 12 10C10.8954 10 10 10.8954 10 12C10 13.1046 10.8954 14 12 14Z"
    stroke="currentColor" stroke-width="2" stroke-linecap="round" />
</svg>
