<svg width="16" height="16" viewBox="0 0 16 16" fill="none" xmlns="http://www.w3.org/2000/svg">
  <path d="M8.99992 2.66675H5.10675C5.01781 2.66675 4.97334 2.66675 4.93345 2.6796C4.89816 2.69097 4.86563 2.70958 4.83793 2.73423C4.80664 2.76209 4.78409 2.80042 4.73899 2.87708L1.85266 7.78375C1.80634 7.86249 1.78319 7.90185 1.77413 7.94379C1.76612 7.98089 1.76612 8.01927 1.77413 8.05637C1.78319 8.09831 1.80634 8.13768 1.85266 8.21641L4.73899 13.1231C4.78409 13.1997 4.80664 13.2381 4.83793 13.2659C4.86563 13.2906 4.89816 13.3092 4.93345 13.3206C4.97334 13.3334 5.01781 13.3334 5.10675 13.3334H10.8932C10.9822 13.3334 11.0266 13.3334 11.0665 13.3206C11.1018 13.3092 11.1344 13.2906 11.162 13.2659C11.1933 13.2381 11.2159 13.1997 11.261 13.1231L14.1472 8.21641C14.1935 8.13767 14.2166 8.09831 14.2257 8.05637C14.2337 8.01927 14.2337 7.98089 14.2257 7.94379C14.2166 7.90186 14.1935 7.86249 14.1472 7.78376L13.8823 7.33341" stroke="currentColor" stroke-width="1.33333" stroke-linecap="round"/>
  <path d="M12.233 2.68288C12.2374 2.66137 12.2681 2.66137 12.2725 2.68288C12.5007 3.7992 13.3731 4.6716 14.4894 4.89977C14.5109 4.90416 14.5109 4.93489 14.4894 4.93929C13.3731 5.16746 12.5007 6.03985 12.2725 7.15618C12.2681 7.17768 12.2374 7.17768 12.233 7.15618C12.0048 6.03985 11.1325 5.16746 10.0161 4.93929C9.99462 4.93489 9.99462 4.90416 10.0161 4.89977C11.1325 4.6716 12.0048 3.7992 12.233 2.68288Z" stroke="currentColor" stroke-width="1.33333" stroke-linecap="round"/>
  <path d="M8.00002 9.33341C8.73639 9.33341 9.33335 8.73645 9.33335 8.00008C9.33335 7.26371 8.73639 6.66675 8.00002 6.66675C7.26365 6.66675 6.66669 7.26371 6.66669 8.00008C6.66669 8.73645 7.26365 9.33341 8.00002 9.33341Z" stroke="currentColor" stroke-width="1.33333" stroke-linecap="round"/>
</svg>
