<svg width="24" height="24" viewBox="0 0 24 24" fill="none" xmlns="http://www.w3.org/2000/svg">
  <path
    d="M16.9704 2.64508C16.977 2.61281 17.0231 2.61281 17.0297 2.64508C17.3719 4.31956 18.6805 5.62815 20.355 5.97041C20.3873 5.977 20.3873 6.0231 20.355 6.02969C18.6805 6.37194 17.3719 7.68054 17.0297 9.35502C17.0231 9.38728 16.977 9.38728 16.9704 9.35502C16.6281 7.68054 15.3195 6.37194 13.645 6.02969C13.6128 6.0231 13.6128 5.977 13.645 5.97041C15.3195 5.62815 16.6281 4.31956 16.9704 2.64508Z"
    stroke="currentColor" stroke-width="2" stroke-linecap="round" />
  <path
    d="M13.2187 9.8761C13.2813 9.56999 13.7187 9.56999 13.7812 9.8761C13.9194 10.5522 14.4478 11.0806 15.1239 11.2188C15.43 11.2813 15.43 11.7187 15.1239 11.7813C14.4478 11.9195 13.9194 12.4478 13.7812 13.1239C13.7187 13.43 13.2813 13.43 13.2187 13.1239C13.0805 12.4478 12.5522 11.9195 11.8761 11.7813C11.57 11.7187 11.57 11.2813 11.8761 11.2188C12.5522 11.0806 13.0805 10.5522 13.2187 9.8761Z"
    fill="currentColor" />
  <path fill-rule="evenodd" clip-rule="evenodd"
    d="M12.9996 3.2067C13.0155 3.75876 12.5809 4.2192 12.0288 4.23513C10.3045 4.2849 8.59796 4.96697 7.28248 6.28245C4.54881 9.01612 4.54881 13.4483 7.28248 16.1819C10.0161 18.9156 14.4483 18.9156 17.182 16.1819C18.6006 14.7634 19.283 12.8892 19.2293 11.0288C19.2134 10.4768 19.648 10.0163 20.2 10.0004C20.7521 9.98444 21.2125 10.4191 21.2285 10.9711C21.2883 13.0459 20.6337 15.1403 19.2644 16.8502L22.1317 19.7175C22.5222 20.108 22.5222 20.7412 22.1317 21.1317C21.7412 21.5222 21.108 21.5222 20.7175 21.1317L17.8502 18.2644C14.3165 21.0946 9.14397 20.8719 5.86826 17.5962C2.35354 14.0814 2.35354 8.38296 5.86826 4.86824C7.55884 3.17766 9.7569 2.29987 11.9711 2.23597C12.5232 2.22003 12.9836 2.65465 12.9996 3.2067Z"
    fill="currentColor" />
</svg>
