<svg width="16" height="16" viewBox="0 0 16 16" fill="none" xmlns="http://www.w3.org/2000/svg">
  <path d="M11.3136 1.76345C11.318 1.74194 11.3487 1.74194 11.3531 1.76345C11.5813 2.87977 12.4537 3.75216 13.57 3.98033C13.5915 3.98473 13.5915 4.01546 13.57 4.01986C12.4537 4.24802 11.5813 5.12042 11.3531 6.23674C11.3487 6.25825 11.318 6.25825 11.3136 6.23674C11.0854 5.12042 10.213 4.24802 9.0967 4.01986C9.07519 4.01546 9.07519 3.98473 9.0967 3.98033C10.213 3.75216 11.0854 2.87977 11.3136 1.76345Z" stroke="#0BC0CF" stroke-width="1.33333" stroke-linecap="round"/>
  <path d="M8.8125 6.58397C8.85421 6.37989 9.1458 6.37989 9.18752 6.58397C9.27964 7.0347 9.63188 7.38694 10.0826 7.47907C10.2867 7.52078 10.2867 7.81237 10.0826 7.85408C9.63188 7.94621 9.27964 8.29845 9.18752 8.74918C9.1458 8.95326 8.85421 8.95326 8.8125 8.74918C8.72037 8.29845 8.36813 7.94621 7.9174 7.85408C7.71332 7.81237 7.71332 7.52078 7.9174 7.47907C8.36813 7.38694 8.72037 7.0347 8.8125 6.58397Z" fill="#0BC0CF"/>
  <path fill-rule="evenodd" clip-rule="evenodd" d="M8.66641 2.13795C8.67703 2.50599 8.38729 2.81295 8.01925 2.82357C6.86969 2.85675 5.73199 3.31146 4.855 4.18845C3.03256 6.0109 3.03256 8.96567 4.855 10.7881C6.67745 12.6106 9.63222 12.6106 11.4547 10.7881C12.4004 9.84239 12.8553 8.59298 12.8195 7.35269C12.8089 6.98465 13.0987 6.67769 13.4667 6.66707C13.8347 6.65644 14.1417 6.94619 14.1523 7.31422C14.1922 8.69744 13.7558 10.0937 12.843 11.2336L14.7545 13.1451C15.0149 13.4055 15.0148 13.8276 14.7545 14.0879C14.4942 14.3483 14.072 14.3483 13.8117 14.0879L11.9002 12.1764C9.54439 14.0632 6.096 13.9147 3.9122 11.7309C1.56905 9.38778 1.56905 5.58879 3.9122 3.24564C5.03925 2.11859 6.50462 1.53339 7.98079 1.49079C8.34882 1.48017 8.65579 1.76991 8.66641 2.13795Z" fill="currentColor"/>
</svg>
