<svg width="16" height="16" viewBox="0 0 16 16" fill="none" xmlns="http://www.w3.org/2000/svg">
  <path d="M6.18576 1.51265C6.24949 1.20086 6.69498 1.20086 6.7587 1.51265C6.89945 2.20127 7.4376 2.73941 8.12621 2.88016C8.438 2.94389 8.438 3.38937 8.12621 3.4531C7.4376 3.59385 6.89945 4.132 6.7587 4.82061C6.69498 5.1324 6.24949 5.1324 6.18576 4.82061C6.04502 4.132 5.50687 3.59385 4.81825 3.4531C4.50646 3.38937 4.50646 2.94389 4.81825 2.88016C5.50687 2.73941 6.04502 2.20127 6.18576 1.51265Z" fill="#0BC0CF" stroke="#0BC0CF" stroke-width="0.133333"/>
  <path d="M5.93641 9.42517L8.91582 13.6802C9.303 14.2331 10.0651 14.3675 10.618 13.9804C11.171 13.5932 11.3054 12.8311 10.9182 12.2781L7.93878 8.02309M5.93641 9.42517L5.06011 8.17369C4.67294 7.62075 4.80732 6.85863 5.36026 6.47146C5.9132 6.08429 6.67531 6.21867 7.06249 6.77161L7.93878 8.02309M5.93641 9.42517L7.93878 8.02309M9.58063 1.59985C11.3613 1.92127 12.8973 3.01127 13.6177 4.67765C14.45 6.60277 13.9762 8.79382 12.5833 10.4067M3.23186 4.04424C2.25197 5.30164 1.80504 6.86354 2.05675 8.36861" stroke="currentColor" stroke-width="1.33333" stroke-linecap="round"/>
</svg>
