<svg width="24" height="24" viewBox="0 0 24 24" fill="none" xmlns="http://www.w3.org/2000/svg">
  <path
    d="M9.27861 2.26897C9.3742 1.80129 10.0424 1.80129 10.138 2.26897C10.3491 3.3019 11.1564 4.10912 12.1893 4.32024C12.657 4.41583 12.657 5.08406 12.1893 5.17965C11.1564 5.39077 10.3491 6.19799 10.138 7.23092C10.0424 7.6986 9.3742 7.6986 9.27861 7.23092C9.06749 6.19799 8.26027 5.39077 7.22735 5.17965C6.75967 5.08406 6.75967 4.41583 7.22735 4.32024C8.26027 4.10912 9.06749 3.3019 9.27861 2.26897Z"
    fill="currentColor" stroke="currentColor" stroke-width="0.2" />
  <path
    d="M8.90459 14.1379L13.3737 20.5204C13.9545 21.3498 15.0976 21.5514 15.927 20.9707C16.7564 20.3899 16.958 19.2467 16.3773 18.4173L11.9081 12.0348M8.90459 14.1379L7.59014 12.2606C7.00938 11.4312 7.21095 10.2881 8.04036 9.70731C8.86977 9.12656 10.0129 9.32813 10.5937 10.1575L11.9081 12.0348M8.90459 14.1379L11.9081 12.0348M14.3709 2.3999C17.042 2.88203 19.3459 4.51702 20.4265 7.0166C21.6749 9.90428 20.9642 13.1909 18.875 15.6101M4.84776 6.06648C3.37793 7.95258 2.70753 10.2954 3.08509 12.553"
    stroke="currentColor" stroke-width="2" stroke-linecap="round" />
</svg>
