<svg width="16" height="16" viewBox="0 0 16 16" fill="none" xmlns="http://www.w3.org/2000/svg">
  <path d="M7.39284 14.8355C6.41627 14.6224 5.43193 14.1994 4.52052 13.5612C2.00711 11.8013 0.841421 8.96069 1.50047 6.6664M12.2737 6.33306C13.9843 8.41992 14.0595 10.6664 13.3929 11.6664C12.0595 13.6664 9.39285 12.3331 9.39285 12.3331M5.72618 3.41117C7.14138 3.28481 8.70891 3.6415 10.1397 4.49973M6.25536 10.9382C5.9299 10.9481 5.66343 10.6816 5.67329 10.3561C5.69946 9.49267 6.05416 8.67172 6.66502 8.06087L11.7834 2.94253C12.3041 2.42183 13.1483 2.42183 13.669 2.94253C14.1897 3.46323 14.1897 4.30745 13.669 4.82814L8.55063 9.94649C7.93978 10.5573 7.11884 10.912 6.25536 10.9382Z" stroke="currentColor" stroke-width="1.33333" stroke-linecap="round"/>
</svg>
