<svg width="16" height="16" viewBox="0 0 16 16" fill="none" xmlns="http://www.w3.org/2000/svg">
<path d="M5.13186 2.7735C5.15464 2.83492 5.19041 2.89071 5.23673 2.93703C5.28306 2.98336 5.33884 3.01913 5.40027 3.0419L6.37562 3.40311C6.46284 3.43534 6.53808 3.49352 6.59122 3.56981C6.64437 3.64611 6.67286 3.73685 6.67286 3.82983C6.67286 3.92281 6.64437 4.01355 6.59122 4.08985C6.53808 4.16614 6.46284 4.22432 6.37562 4.25655L5.40027 4.61776C5.33884 4.64053 5.28306 4.6763 5.23673 4.72263C5.19041 4.76895 5.15464 4.82474 5.13186 4.88616L4.77065 5.86152C4.73842 5.94873 4.68025 6.02398 4.60395 6.07712C4.52766 6.13026 4.43691 6.15875 4.34394 6.15875C4.25096 6.15875 4.16021 6.13026 4.08392 6.07712C4.00762 6.02398 3.94945 5.94873 3.91722 5.86152L3.55601 4.88525C3.53323 4.82383 3.49746 4.76804 3.45114 4.72172C3.40481 4.67539 3.34903 4.63962 3.2876 4.61685L2.31225 4.25564C2.22503 4.22341 2.14979 4.16523 2.09665 4.08894C2.0435 4.01264 2.01501 3.9219 2.01501 3.82892C2.01501 3.73594 2.0435 3.6452 2.09665 3.5689C2.14979 3.49261 2.22503 3.43443 2.31225 3.4022L3.2876 3.04099C3.34903 3.01822 3.40481 2.98245 3.45114 2.93612C3.49746 2.8898 3.53323 2.83401 3.55601 2.77259L3.91722 1.79723C3.94945 1.71002 4.00762 1.63477 4.08392 1.58163C4.16021 1.52849 4.25096 1.5 4.34394 1.5C4.43691 1.5 4.52766 1.52849 4.60395 1.58163C4.68025 1.63477 4.73842 1.71002 4.77065 1.79723L5.13186 2.77259V2.7735Z" fill="#A7B1BB" fill-opacity="0.7"/>
<path d="M2.7481 6.95619C2.75721 6.98076 2.77152 7.00307 2.79005 7.0216C2.80858 7.04013 2.83089 7.05444 2.85546 7.06355L3.24669 7.20731C3.28182 7.22006 3.31217 7.24331 3.33362 7.27392C3.35507 7.30452 3.36658 7.34099 3.36658 7.37836C3.36658 7.41573 3.35507 7.4522 3.33362 7.4828C3.31217 7.5134 3.28182 7.53666 3.24669 7.54941L2.85546 7.69317C2.83089 7.70228 2.80858 7.71658 2.79005 7.73511C2.77152 7.75364 2.75721 7.77596 2.7481 7.80053L2.60434 8.19176C2.59159 8.22689 2.56833 8.25724 2.53773 8.27869C2.50713 8.30014 2.47066 8.31165 2.43329 8.31165C2.39592 8.31165 2.35945 8.30014 2.32885 8.27869C2.29825 8.25724 2.27499 8.22689 2.26224 8.19176L2.11848 7.80053C2.10937 7.77596 2.09506 7.75364 2.07653 7.73511C2.058 7.71658 2.03569 7.70228 2.01112 7.69317L1.61989 7.54941C1.58476 7.53666 1.55441 7.5134 1.53296 7.4828C1.51151 7.4522 1.5 7.41573 1.5 7.37836C1.5 7.34099 1.51151 7.30452 1.53296 7.27392C1.55441 7.24331 1.58476 7.22006 1.61989 7.20731L2.01112 7.06355C2.03569 7.05444 2.058 7.04013 2.07653 7.0216C2.09506 7.00307 2.10937 6.98076 2.11848 6.95619L2.26224 6.56495C2.27499 6.52983 2.29825 6.49947 2.32885 6.47802C2.35945 6.45657 2.39592 6.44507 2.43329 6.44507C2.47066 6.44507 2.50713 6.45657 2.53773 6.47802C2.56833 6.49947 2.59159 6.52983 2.60434 6.56495L2.7481 6.95619ZM12.3552 10.8676C12.3797 10.9331 12.4316 10.9859 12.4971 11.0096L13.0121 11.2006C13.2213 11.2771 13.2213 11.5737 13.0121 11.651L12.4971 11.8412C12.4646 11.8532 12.4351 11.8721 12.4106 11.8966C12.3861 11.9211 12.3672 11.9506 12.3552 11.9831L12.1641 12.4981C12.147 12.544 12.1163 12.5837 12.0761 12.6117C12.0358 12.6397 11.988 12.6547 11.9389 12.6547C11.8899 12.6547 11.842 12.6397 11.8018 12.6117C11.7615 12.5837 11.7308 12.544 11.7137 12.4981L11.5236 11.9831C11.5116 11.9506 11.4926 11.9211 11.4681 11.8966C11.4436 11.8721 11.4141 11.8532 11.3816 11.8412L10.8667 11.6501C10.8207 11.633 10.7811 11.6023 10.7531 11.5621C10.7251 11.5218 10.7101 11.4739 10.7101 11.4249C10.7101 11.3759 10.7251 11.328 10.7531 11.2878C10.7811 11.2475 10.8207 11.2168 10.8667 11.1997L11.3816 11.0096C11.4141 10.9975 11.4436 10.9786 11.4681 10.9541C11.4926 10.9296 11.5116 10.9001 11.5236 10.8676L11.7146 10.3526C11.7911 10.1434 12.0877 10.1434 12.165 10.3526L12.3552 10.8676Z" fill="#A7B1BB" fill-opacity="0.4"/>
<path d="M9.46841 4.717L11.3973 2.78722C11.4395 2.74485 11.4897 2.71124 11.545 2.6883C11.6003 2.66537 11.6595 2.65356 11.7194 2.65356C11.7792 2.65356 11.8385 2.66537 11.8937 2.6883C11.949 2.71124 11.9992 2.74485 12.0415 2.78722L13.9712 4.71609C14.0136 4.75835 14.0472 4.80855 14.0702 4.86382C14.0931 4.91909 14.1049 4.97834 14.1049 5.03818C14.1049 5.09802 14.0931 5.15727 14.0702 5.21254C14.0472 5.2678 14.0136 5.31801 13.9712 5.36026L12.0424 7.29005L6.25119 13.0803L4.96467 14.3668C4.87936 14.4521 4.76367 14.5 4.64304 14.5C4.52241 14.5 4.40672 14.4521 4.3214 14.3668L2.39162 12.4371C2.30633 12.3517 2.25842 12.2361 2.25842 12.1154C2.25842 11.9948 2.30633 11.8791 2.39162 11.7938L9.46841 4.717ZM13.0068 5.03818L11.7194 3.75165L10.4329 5.03818L11.7203 6.3247L13.0068 5.03818Z" fill="#6E7781"/>
</svg>
