<svg width="16" height="16" viewBox="0 0 16 16" fill="none" xmlns="http://www.w3.org/2000/svg">
<path d="M14.4282 7.80262C13.6022 4.9656 10.9807 2.99046 8 2.99046C5.05525 2.95455 2.39779 4.9656 1.57182 7.80262L1.5 8.01809L1.57182 8.23356C2.39779 11.0347 5.05525 13.0098 8 13.0098C10.9448 13.0098 13.6022 11.0347 14.4282 8.19765L14.5 7.98218L14.4282 7.80262ZM8 11.5733C5.73757 11.5733 3.72652 10.101 3.00829 7.98218C3.72652 5.86339 5.73757 4.39102 8 4.39102C10.2624 4.39102 12.2735 5.86339 12.9917 7.98218C12.2735 10.1369 10.2624 11.5733 8 11.5733Z" fill="#6E7781"/>
<path d="M7.99991 5.4683C6.59936 5.4683 5.4861 6.58156 5.4861 7.98211C5.4861 9.38266 6.59936 10.4959 7.99991 10.4959C9.40047 10.4959 10.5137 9.38266 10.5137 7.98211C10.5137 6.58156 9.40047 5.4683 7.99991 5.4683ZM7.99991 9.05946C7.38942 9.05946 6.92257 8.59261 6.92257 7.98211C6.92257 7.37161 7.38942 6.90476 7.99991 6.90476C8.61041 6.90476 9.07726 7.37161 9.07726 7.98211C9.07726 8.59261 8.61041 9.05946 7.99991 9.05946Z" fill="#6E7781"/>
</svg>
