<svg width="16" height="16" viewBox="0 0 16 16" fill="none" xmlns="http://www.w3.org/2000/svg">
<path d="M7.99902 1.41699C8.32108 1.41699 8.58283 1.67798 8.58301 2C8.58301 2.32217 8.32119 2.58398 7.99902 2.58398H3.33301C3.1341 2.58398 2.94241 2.66208 2.80176 2.80273C2.66111 2.94339 2.58301 3.13507 2.58301 3.33398V12.667C2.58301 12.8658 2.66131 13.0566 2.80176 13.1973C2.94241 13.3379 3.1341 13.417 3.33301 13.417H12.666C12.8649 13.417 13.0556 13.3379 13.1963 13.1973C13.3369 13.0566 13.416 12.8659 13.416 12.667V8C13.4162 7.67809 13.6771 7.41717 13.999 7.41699C14.3211 7.41699 14.5828 7.67798 14.583 8V12.667C14.583 13.1753 14.3809 13.663 14.0215 14.0225C13.662 14.3819 13.1743 14.584 12.666 14.584H3.33301C2.82475 14.584 2.33697 14.3818 1.97754 14.0225C1.61809 13.663 1.41602 13.1753 1.41602 12.667V3.33398C1.41602 2.82565 1.61809 2.33796 1.97754 1.97852C2.33698 1.61907 2.82468 1.41699 3.33301 1.41699H7.99902ZM14.1104 1.42773L14.1172 1.42871C14.1211 1.42952 14.125 1.43076 14.1289 1.43164C14.1607 1.43885 14.1922 1.44834 14.2227 1.46094C14.2288 1.46347 14.2352 1.46601 14.2412 1.46875C14.3032 1.49691 14.3612 1.53695 14.4121 1.58789C14.4628 1.63858 14.5022 1.69619 14.5303 1.75781C14.533 1.76382 14.5355 1.77025 14.5381 1.77637C14.5649 1.84098 14.5785 1.90967 14.5811 1.97852C14.5813 1.98566 14.583 1.99279 14.583 2V5.33398C14.5828 5.656 14.3211 5.91699 13.999 5.91699C13.6771 5.91682 13.4162 5.65589 13.416 5.33398V3.40918L7.4082 9.41699H9.33301C9.65492 9.41717 9.91584 9.67809 9.91602 10C9.91602 10.3221 9.65502 10.5838 9.33301 10.584H5.99902C5.96048 10.584 5.92172 10.5799 5.88379 10.5723C5.87885 10.5713 5.87403 10.5695 5.86914 10.5684C5.8373 10.5611 5.80588 10.5517 5.77539 10.5391C5.76928 10.5365 5.76284 10.534 5.75684 10.5312C5.69522 10.5031 5.6376 10.4637 5.58691 10.4131C5.53597 10.3621 5.49593 10.3042 5.46777 10.2422C5.46504 10.2362 5.4625 10.2297 5.45996 10.2236C5.4305 10.1523 5.41602 10.076 5.41602 10V6.66699C5.41602 6.34493 5.67701 6.08416 5.99902 6.08398C6.32119 6.08398 6.58301 6.34483 6.58301 6.66699V8.5918L12.5908 2.58398H10.666C10.3438 2.58398 10.083 2.32217 10.083 2C10.0832 1.67798 10.344 1.41699 10.666 1.41699H13.999C14.0362 1.41699 14.0737 1.42067 14.1104 1.42773Z" fill="currentColor"/>
</svg>
