<svg width="16" height="16" viewBox="0 0 16 16" fill="none" xmlns="http://www.w3.org/2000/svg">
<path d="M14.0645 8.08789C14.3842 8.12358 14.6153 8.41157 14.5801 8.73145C14.525 9.22943 14.4139 9.71136 14.2539 10.1699C13.3576 12.739 10.9135 14.5837 8.03711 14.584C5.79071 14.5839 3.80793 13.4586 2.62012 11.7422V13.334C2.62009 13.656 2.35907 13.9177 2.03711 13.918C1.71496 13.918 1.45315 13.6561 1.45312 13.334V10.0674C1.45327 9.70861 1.74474 9.41811 2.10352 9.41797H5.37012C5.69224 9.41802 5.95312 9.67884 5.95312 10.001C5.9531 10.3231 5.69223 10.5839 5.37012 10.584H3.27441C4.19226 12.2721 5.98187 13.4179 8.03711 13.418C10.402 13.4177 12.4143 11.9012 13.1523 9.78613C13.2837 9.40958 13.3746 9.01323 13.4199 8.60352C13.4555 8.28357 13.7445 8.05269 14.0645 8.08789ZM8 1.41797C10.2462 1.41805 12.2292 2.54255 13.417 4.25879V2.66797C13.417 2.3459 13.678 2.08411 14 2.08398C14.322 2.08413 14.584 2.34591 14.584 2.66797V5.93457C14.5838 6.29326 14.2922 6.5837 13.9336 6.58398H10.667C10.3448 6.58398 10.084 6.32314 10.084 6.00098C10.084 5.67883 10.3448 5.41797 10.667 5.41797H12.7617C11.8439 3.72999 10.0551 2.58408 8 2.58398C5.63498 2.58409 3.62284 4.10072 2.88477 6.21582C2.7534 6.59239 2.66251 6.98871 2.61719 7.39844C2.58167 7.71837 2.29261 7.94921 1.97266 7.91406C1.65269 7.87854 1.42183 7.59051 1.45703 7.27051C1.51209 6.7725 1.62324 6.29062 1.7832 5.83203C2.67956 3.26284 5.12342 1.41807 8 1.41797Z" fill="currentColor"/>
</svg>
