<svg width="24" height="24" viewBox="0 0 24 24" fill="none" xmlns="http://www.w3.org/2000/svg">
  <path fill-rule="evenodd" clip-rule="evenodd" d="M12.0074 0.899902C5.76021 0.899902 0.709961 5.98738 0.709961 12.2813C0.709961 17.3123 3.94583 21.571 8.43484 23.0783C8.99608 23.1916 9.20166 22.8334 9.20166 22.5321C9.20166 22.2682 9.18316 21.3638 9.18316 20.4215C6.04048 21.1 5.38605 19.0647 5.38605 19.0647C4.881 17.7457 4.13268 17.4067 4.13268 17.4067C3.10408 16.7095 4.2076 16.7095 4.2076 16.7095C5.34859 16.7849 5.94729 17.8777 5.94729 17.8777C6.95715 19.6112 8.58445 19.1214 9.23912 18.8199C9.33254 18.0849 9.63201 17.5762 9.94998 17.2936C7.44347 17.0298 4.80631 16.05 4.80631 11.6782C4.80631 10.4345 5.25493 9.41704 5.96579 8.6257C5.85363 8.34312 5.46074 7.17461 6.07818 5.61068C6.07818 5.61068 7.03208 5.30913 9.18293 6.77895C10.1038 6.52981 11.0534 6.40308 12.0074 6.40201C12.9613 6.40201 13.9337 6.53405 14.8316 6.77895C16.9827 5.30913 17.9366 5.61068 17.9366 5.61068C18.5541 7.17461 18.1609 8.34312 18.0488 8.6257C18.7784 9.41704 19.2085 10.4345 19.2085 11.6782C19.2085 16.05 16.5713 17.0108 14.0461 17.2936C14.4577 17.6516 14.8129 18.3298 14.8129 19.404C14.8129 20.9302 14.7944 22.1552 14.7944 22.5319C14.7944 22.8334 15.0002 23.1916 15.5612 23.0785C20.0502 21.5708 23.2861 17.3123 23.2861 12.2813C23.3046 5.98738 18.2359 0.899902 12.0074 0.899902Z" fill="white"/>
</svg>
