<svg width="24" height="24" viewBox="0 0 24 24" fill="none" xmlns="http://www.w3.org/2000/svg">
  <path fill-rule="evenodd" clip-rule="evenodd" d="M11.9982 0.800049C16.9922 0.800203 19.0235 5.12316 19.0235 9.42505C19.0235 9.67971 19.0107 10.1723 19.0099 10.2043L20.0177 12.72L20.421 13.8049C20.5486 14.1626 20.6659 14.5109 20.7657 14.8323C21.7182 17.8974 21.4097 19.1661 21.1749 19.1946C20.6705 19.2548 19.212 16.887 19.212 16.887C19.212 18.259 18.505 20.0486 16.9757 21.3411C17.5476 21.5173 18.2512 21.7872 18.7023 22.1204C19.1063 22.4189 19.0555 22.7232 18.9825 22.8459C18.6616 23.386 13.4919 23.1908 11.9991 23.0227C10.5066 23.1908 5.33691 23.3859 5.01574 22.8459C4.94288 22.7231 4.89219 22.419 5.29699 22.1204C5.74734 21.7877 6.44884 21.5173 7.02062 21.3411C5.4915 20.0486 4.78429 18.259 4.78429 16.887C4.78429 16.887 3.32562 19.2556 2.8214 19.1946C2.58654 19.1649 2.27854 17.8959 3.23058 14.8323C3.33046 14.5109 3.44862 14.1627 3.57628 13.8049L3.9796 12.72L4.98742 10.2053C4.98643 10.175 4.97374 9.67941 4.97374 9.42407C4.97388 5.12273 7.00455 0.800365 11.9982 0.800049Z" fill="white"/>
</svg>
