<?xml version="1.0" standalone="no"?><!DOCTYPE svg PUBLIC "-//W3C//DTD SVG 1.1//EN" "http://www.w3.org/Graphics/SVG/1.1/DTD/svg11.dtd"><svg t="1708949281874" class="icon" viewBox="0 0 1024 1024" version="1.1" xmlns="http://www.w3.org/2000/svg" p-id="1452" xmlns:xlink="http://www.w3.org/1999/xlink" width="200" height="200"><path d="M512 512m-512 0a512 512 0 1 0 1024 0 512 512 0 1 0-1024 0Z" fill="#FFC0D5" p-id="1453"></path><path d="M513.163636 272.756364L314.181818 372.363636h-93.090909a46.545455 46.545455 0 0 0-46.545454 46.545455v186.181818a46.545455 46.545455 0 0 0 46.545454 46.545455h93.090909l198.981818 99.607272a23.272727 23.272727 0 0 0 33.745455-20.712727V293.701818a23.272727 23.272727 0 0 0-33.745455-20.945454zM778.007273 316.974545a23.272727 23.272727 0 0 0-34.443637-1.62909 23.272727 23.272727 0 0 0-1.629091 30.72 256 256 0 0 1 0 331.636363 23.272727 23.272727 0 0 0 1.629091 30.72 23.272727 23.272727 0 0 0 34.443637-1.629091 302.545455 302.545455 0 0 0 0-390.283636z" fill="#FF4A8B" p-id="1454"></path><path d="M712.145455 383.534545a23.272727 23.272727 0 0 0-37.236364 28.625455 162.909091 162.909091 0 0 1 0 199.68 23.272727 23.272727 0 0 0 36.538182 28.625455 209.454545 209.454545 0 0 0 0-256zM611.84 447.069091l-1.861818 1.861818a23.272727 23.272727 0 0 0-2.56 27.694546 69.818182 69.818182 0 0 1 0 69.818181 23.272727 23.272727 0 0 0 2.56 27.694546l1.861818 1.861818a23.272727 23.272727 0 0 0 34.210909-3.956364 116.363636 116.363636 0 0 0 0-121.716363 23.272727 23.272727 0 0 0-34.210909-3.258182z" fill="#FF4A8B" p-id="1455"></path></svg>