<svg width="24" height="24" viewBox="0 0 24 24" fill="none" xmlns="http://www.w3.org/2000/svg">
  <path fill-rule="evenodd" clip-rule="evenodd" d="M6 3C4.34315 3 3 4.34315 3 6V18C3 19.6569 4.34315 21 6 21H18C19.6569 21 21 19.6569 21 18V6C21 4.34315 19.6569 3 18 3H6ZM7.86201 11.392L7.86195 11.3824V6.768C7.86195 6.34385 8.2058 6 8.62995 6C9.05411 6 9.39795 6.34385 9.39795 6.768V11.3824L9.39789 11.392C10.3468 11.7172 11.03 12.6285 11.03 13.7018C11.03 14.7752 10.3468 15.6865 9.39795 16.0117V17.2321C9.39795 17.6562 9.05411 18.0001 8.62995 18.0001C8.2058 18.0001 7.86195 17.6562 7.86195 17.2321V16.0117C6.91313 15.6864 6.22998 14.7752 6.22998 13.7018C6.22998 12.6285 6.91316 11.7172 7.86201 11.392ZM8.62998 14.5793C9.10715 14.5793 9.49398 14.1864 9.49398 13.7018C9.49398 13.2172 9.10715 12.8244 8.62998 12.8244C8.15281 12.8244 7.76598 13.2172 7.76598 13.7018C7.76598 14.1864 8.15281 14.5793 8.62998 14.5793ZM16.1374 12.5899C17.0866 12.2648 17.77 11.3534 17.77 10.2798C17.77 9.20649 17.0868 8.2952 16.1379 7.96996V6.768C16.1379 6.34385 15.7941 6 15.3699 6C14.9458 6 14.6019 6.34385 14.6019 6.768V7.96998C13.6531 8.29523 12.97 9.20651 12.97 10.2798C12.97 11.3533 13.6534 12.2647 14.6024 12.5899C14.6021 12.5991 14.6019 12.6083 14.6019 12.6176V17.232C14.6019 17.6562 14.9458 18 15.3699 18C15.7941 18 16.1379 17.6562 16.1379 17.232V12.6176C16.1379 12.6083 16.1378 12.5991 16.1374 12.5899ZM15.37 11.1573C15.8471 11.1573 16.234 10.7644 16.234 10.2798C16.234 9.79524 15.8471 9.4024 15.37 9.4024C14.8928 9.4024 14.506 9.79524 14.506 10.2798C14.506 10.7644 14.8928 11.1573 15.37 11.1573Z" fill="currentColor"/>
</svg>
