<svg width="24" height="24" viewBox="0 0 24 24" fill="none" xmlns="http://www.w3.org/2000/svg">
  <path fill-rule="evenodd" clip-rule="evenodd" d="M2 6a3 3 0 0 1 3-3h14a3 3 0 0 1 3 3v12a3 3 0 0 1-3 3H5a3 3 0 0 1-3-3V6 M9.2 10.178c-.011-.028-.016-.035-.016-.04.015-.465.303-.656.708-.73.383-.07.764-.178 1.15-.203.762-.048 1.255.436 1.414 1.14.047.207.1.413.164.67.158-.249.281-.467.427-.668.221-.303.439-.613.693-.886.276-.296.644-.388 1.036-.299.474.11.621.61.566.964-.127.825-.901 1.042-1.55.838-.454-.143-.444-.108-.77.257-.237.267-.258.498-.152.813.174.518.29 1.058.482 1.568.136.364.46.526.907.44.178-.034.353-.091.545-.143-.044.303-.076.575-.441.68-.436.125-.858.298-1.32.294-.92-.007-1.286-.36-1.507-1.183-.058-.213-.104-.428-.164-.68-.14.21-.265.393-.386.58-.27.418-.532.851-.96 1.116-.443.274-1.16.18-1.324-.374-.213-.721.257-1.392.986-1.373.258.007.517.067.767.136.134.037.227.037.313-.071.14-.174.282-.346.417-.523.026-.034.048-.095.037-.132-.178-.612-.337-1.231-.55-1.83-.208-.587-.648-.595-1.157-.467-.105.026-.206.069-.315.106zM16.213 15.998c.67-1.273 1.147-2.547 1.163-3.983.016-1.413-.25-2.733-.923-4.014.38 0 .72-.003 1.06.004.037 0 .085.046.11.084.513.798.881 1.665 1.002 2.606.16 1.26.097 2.513-.452 3.688-.239.511-.53 1-.808 1.49-.036.064-.143.116-.22.12-.29.013-.581.005-.932.005zM7.527 8c-1.309 2.703-1.217 5.344.262 7.98-.386 0-.703.005-1.02-.004-.045-.001-.105-.058-.13-.104-.399-.706-.84-1.388-1.067-2.183a7.263 7.263 0 0 1-.253-2.506 6.49 6.49 0 0 1 .654-2.38c.123-.253.282-.49.428-.731.019-.031.06-.068.091-.069C6.827 8 7.161 8 7.527 8z" fill="currentColor"/>
</svg>