<svg width="128" height="128" viewBox="0 0 128 128" fill="none" xmlns="http://www.w3.org/2000/svg">
  <rect width="128" height="128" fill="#0BC0CF" />
  <path fill-rule="evenodd" clip-rule="evenodd"
    d="M25.7306 48.8889C17.4242 48.8889 10.6667 55.6464 10.6667 63.9512C10.6667 72.2572 17.4242 79.0151 25.7306 79.0155H37.5481V72.0635H25.7306C21.2579 72.0635 17.6188 68.4244 17.6188 63.9516C17.6188 59.4801 21.2579 55.841 25.7306 55.841H48.9037V48.8889H25.7306ZM42.1826 67.5438V78.9771H49.1346V66.3855C49.1346 63.1908 46.5355 60.5921 43.3412 60.5921H25.7306V67.5438H42.1826ZM68.8356 48.8889C60.5296 48.8889 53.7732 55.6464 53.7732 63.9512C53.7732 72.2572 60.5296 79.0151 68.8356 79.0151H80.4221C88.728 79.0151 95.4845 72.2576 95.4845 63.9512C95.4845 55.6464 88.7286 48.8889 80.4221 48.8889H68.8356ZM68.8359 72.0631C64.3634 72.0631 60.7254 68.4238 60.7254 63.9512C60.7254 59.4797 64.363 55.8406 68.8359 55.8406H80.4224C84.8951 55.8406 88.5332 59.4801 88.5332 63.9512C88.5332 68.4238 84.8951 72.0631 80.4224 72.0631H68.8359ZM111.223 55.059L111.199 48.9702L105.98 48.9909L106.004 55.0797L99.9168 55.1038L99.938 60.3226L106.027 60.2974L106.051 66.3863L111.27 66.3652L111.244 60.2764L117.333 60.2511L117.312 55.0338L111.223 55.059Z"
    fill="white" />
</svg>
