<svg width="20" height="20" viewBox="0 0 20 20" fill="none" xmlns="http://www.w3.org/2000/svg">
  <path d="M9.99999 3.25002C14.044 3.25002 17.4085 6.16002 18.1142 10C17.4092 13.84 14.044 16.75 9.99999 16.75C5.95599 16.75 2.59149 13.84 1.88574 10C2.59074 6.16002 5.95599 3.25002 9.99999 3.25002ZM9.99999 15.25C11.5296 15.2497 13.0138 14.7301 14.2096 13.7764C15.4055 12.8227 16.2422 11.4912 16.5827 10C16.2409 8.50999 15.4037 7.18002 14.208 6.22753C13.0122 5.27505 11.5287 4.75641 9.99999 4.75641C8.47126 4.75641 6.98776 5.27505 5.79202 6.22753C4.59629 7.18002 3.75907 8.50999 3.41724 10C3.75781 11.4912 4.5945 12.8227 5.79035 13.7764C6.9862 14.7301 8.47039 15.2497 9.99999 15.25ZM9.99999 13.375C9.10489 13.375 8.24644 13.0194 7.61351 12.3865C6.98057 11.7536 6.62499 10.8951 6.62499 10C6.62499 9.10491 6.98057 8.24647 7.61351 7.61353C8.24644 6.98059 9.10489 6.62502 9.99999 6.62502C10.8951 6.62502 11.7535 6.98059 12.3865 7.61353C13.0194 8.24647 13.375 9.10491 13.375 10C13.375 10.8951 13.0194 11.7536 12.3865 12.3865C11.7535 13.0194 10.8951 13.375 9.99999 13.375ZM9.99999 11.875C10.4973 11.875 10.9742 11.6775 11.3258 11.3258C11.6774 10.9742 11.875 10.4973 11.875 10C11.875 9.50273 11.6774 9.02582 11.3258 8.67419C10.9742 8.32256 10.4973 8.12502 9.99999 8.12502C9.50271 8.12502 9.0258 8.32256 8.67417 8.67419C8.32254 9.02582 8.12499 9.50273 8.12499 10C8.12499 10.4973 8.32254 10.9742 8.67417 11.3258C9.0258 11.6775 9.50271 11.875 9.99999 11.875Z" fill="#57606A" />
</svg>
