<svg width="20" height="20" viewBox="0 0 20 20" fill="none" xmlns="http://www.w3.org/2000/svg">
  <path d="M10.0076 8.95833C8.05428 8.95833 6.46594 7.36917 6.46594 5.41667C6.46594 3.46417 8.05428 1.875 10.0076 1.875C11.9609 1.875 13.5493 3.46417 13.5493 5.41667C13.5493 7.36917 11.9609 8.95833 10.0076 8.95833ZM10.0076 3.125C8.74344 3.125 7.71594 4.1525 7.71594 5.41667C7.71594 6.68083 8.74344 7.70833 10.0076 7.70833C11.2718 7.70833 12.2993 6.68083 12.2993 5.41667C12.2993 4.1525 11.2709 3.125 10.0076 3.125ZM13.3309 18.125H6.66929C4.65262 18.125 3.54175 17.0209 3.54175 15.0159C3.54175 12.7984 4.79675 10.2083 8.33342 10.2083H11.6667C15.2034 10.2083 16.4584 12.7975 16.4584 15.0159C16.4584 17.0209 15.3475 18.125 13.3309 18.125ZM8.33342 11.4583C5.04758 11.4583 4.79175 14.1809 4.79175 15.0159C4.79175 16.3192 5.35346 16.875 6.66929 16.875H13.3309C14.6467 16.875 15.2084 16.3192 15.2084 15.0159C15.2084 14.1817 14.9526 11.4583 11.6667 11.4583H8.33342Z" fill="#57606A" />
</svg>
