<svg width="102" height="30" viewBox="0 0 102 30" fill="none" xmlns="http://www.w3.org/2000/svg">
  <path d="M96.2342 13.9078V23.4001C96.2342 23.9524 95.7865 24.4001 95.2342 24.4001H93.6624C93.1101 24.4001 92.6624 23.9524 92.6624 23.4001V11.9808C92.6624 11.4285 93.1101 10.9808 93.6624 10.9808H95.0928C95.6172 10.9808 96.0526 11.3859 96.0902 11.909L96.2342 13.9078ZM100.005 10.8193C100.171 10.8523 100.275 11.0073 100.272 11.1767L100.224 13.7529C100.219 13.9933 100.005 14.1764 99.7655 14.1569C99.707 14.1521 99.6462 14.1476 99.5829 14.1434C99.3431 14.1186 99.124 14.1062 98.9255 14.1062C98.4212 14.1062 97.983 14.1723 97.6109 14.3046C97.2471 14.4287 96.9412 14.6147 96.6931 14.8627C96.4533 15.1108 96.2714 15.4126 96.1474 15.7681C96.0317 16.1236 95.9655 16.5288 95.949 16.9835L95.2296 16.7603C95.2296 15.8921 95.3165 15.0942 95.4901 14.3666C95.6637 13.6308 95.9159 12.99 96.2466 12.4443C96.5856 11.8986 96.999 11.4769 97.4869 11.1792C97.9747 10.8816 98.5328 10.7328 99.1612 10.7328C99.3596 10.7328 99.5622 10.7493 99.7689 10.7824C99.8539 10.7926 99.9326 10.8049 100.005 10.8193Z" fill="white"/>
  <path d="M85.6297 24.6482C84.5879 24.6482 83.6536 24.4828 82.8268 24.1521C82 23.8131 81.2972 23.3459 80.7184 22.7506C80.1479 22.1553 79.7097 21.4649 79.4038 20.6794C79.0978 19.8857 78.9449 19.0423 78.9449 18.1494V17.6533C78.9449 16.6363 79.0896 15.7061 79.3789 14.8627C79.6683 14.0194 80.0817 13.2876 80.6192 12.6675C81.1649 12.0474 81.8263 11.572 82.6036 11.2413C83.3808 10.9023 84.2572 10.7328 85.2329 10.7328C86.1837 10.7328 87.0271 10.8899 87.7629 11.204C88.4988 11.5182 89.1148 11.9647 89.6109 12.5435C90.1152 13.1223 90.4956 13.8168 90.7519 14.6271C91.0082 15.4291 91.1364 16.3221 91.1364 17.306V18.7943H80.4704V16.413H87.6265V16.1402C87.6265 15.6441 87.5356 15.2017 87.3537 14.8131C87.18 14.4163 86.9154 14.1021 86.5599 13.8706C86.2044 13.639 85.7496 13.5233 85.1956 13.5233C84.7244 13.5233 84.3192 13.6266 83.9802 13.8333C83.6412 14.04 83.3642 14.3294 83.1493 14.7015C82.9426 15.0736 82.7855 15.5118 82.678 16.0162C82.5787 16.5122 82.5291 17.058 82.5291 17.6533V18.1494C82.5291 18.6868 82.6036 19.1829 82.7524 19.6376C82.9095 20.0924 83.1286 20.4851 83.4097 20.8159C83.6991 21.1466 84.0464 21.4029 84.4515 21.5848C84.8649 21.7667 85.3321 21.8577 85.853 21.8577C86.4979 21.8577 87.0973 21.7336 87.6513 21.4856C88.0767 21.2916 88.4572 21.0243 88.7927 20.6836C88.9653 20.5083 89.2532 20.4959 89.4199 20.6769L90.6216 21.9816C90.7485 22.1194 90.7642 22.328 90.6457 22.4731C90.3897 22.7867 90.0696 23.09 89.6853 23.3831C89.2057 23.7552 88.627 24.0611 87.949 24.3009C87.271 24.5324 86.4979 24.6482 85.6297 24.6482Z" fill="white"/>
  <path d="M73.5741 21.4732V6.35014C73.5741 5.79786 74.0219 5.35014 74.5741 5.35014H76.1708C76.7231 5.35014 77.1708 5.79786 77.1708 6.35014V23.4001C77.1708 23.9524 76.7231 24.4001 76.1708 24.4001H74.8185C74.3133 24.4001 73.8875 24.0235 73.8259 23.5221L73.5741 21.4732ZM65.0909 17.8517V17.5913C65.0909 16.566 65.2067 15.6358 65.4382 14.8007C65.6697 13.9574 66.0087 13.2339 66.4552 12.6303C66.9017 12.0267 67.4515 11.5596 68.1047 11.2289C68.7579 10.8981 69.502 10.7328 70.3371 10.7328C71.1226 10.7328 71.8089 10.8981 72.3959 11.2289C72.9912 11.5596 73.4956 12.0309 73.909 12.6427C74.3307 13.2463 74.6697 13.9615 74.926 14.7883C75.1823 15.6069 75.3684 16.504 75.4841 17.4796V18.0501C75.3684 18.9845 75.1823 19.8526 74.926 20.6546C74.6697 21.4567 74.3307 22.1595 73.909 22.763C73.4956 23.3583 72.9912 23.8214 72.3959 24.1521C71.8006 24.4828 71.1061 24.6482 70.3123 24.6482C69.4772 24.6482 68.7331 24.4787 68.0799 24.1397C67.435 23.8007 66.8893 23.3253 66.4428 22.7134C66.0046 22.1016 65.6697 21.3822 65.4382 20.5554C65.2067 19.7286 65.0909 18.8274 65.0909 17.8517ZM68.6628 17.5913V17.8517C68.6628 18.4057 68.7042 18.9224 68.7868 19.402C68.8778 19.8816 69.0225 20.3074 69.2209 20.6794C69.4276 21.0432 69.6922 21.3285 70.0147 21.5352C70.3454 21.7336 70.7464 21.8329 71.2177 21.8329C71.8295 21.8329 72.3339 21.6964 72.7308 21.4236C73.1277 21.1425 73.4295 20.758 73.6362 20.2702C73.8511 19.7823 73.9752 19.2201 74.0082 18.5834V16.9587C73.9834 16.4378 73.909 15.9707 73.785 15.5573C73.6692 15.1356 73.4956 14.7759 73.2641 14.4783C73.0408 14.1806 72.7597 13.9491 72.4207 13.7837C72.09 13.6184 71.6973 13.5357 71.2425 13.5357C70.7795 13.5357 70.3826 13.6432 70.0519 13.8582C69.7212 14.0649 69.4524 14.3501 69.2457 14.7139C69.0473 15.0777 68.8985 15.5077 68.7992 16.0038C68.7083 16.4916 68.6628 17.0207 68.6628 17.5913Z" fill="white"/>
  <path d="M62.2053 5.35014C62.7576 5.35014 63.2053 5.79786 63.2053 6.35014V23.4001C63.2053 23.9524 62.7576 24.4001 62.2053 24.4001H60.621C60.0687 24.4001 59.621 23.9524 59.621 23.4001V6.35014C59.621 5.79786 60.0687 5.35014 60.621 5.35014H62.2053Z" fill="white"/>
  <path d="M55.9912 10.9808C56.5435 10.9808 56.9912 11.4285 56.9912 11.9808V23.4002C56.9912 23.9524 56.5435 24.4002 55.9912 24.4002H54.407C53.8547 24.4002 53.4069 23.9524 53.4069 23.4002V11.9808C53.4069 11.4285 53.8547 10.9808 54.4069 10.9808H55.9912ZM53.1837 7.48335C53.1837 6.96245 53.3656 6.53251 53.7294 6.19351C54.0932 5.85451 54.581 5.68501 55.1929 5.68501C55.7965 5.68501 56.2802 5.85451 56.644 6.19351C57.016 6.53251 57.2021 6.96245 57.2021 7.48335C57.2021 8.00425 57.016 8.4342 56.644 8.7732C56.2802 9.11219 55.7965 9.28169 55.1929 9.28169C54.581 9.28169 54.0932 9.11219 53.7294 8.7732C53.3656 8.4342 53.1837 8.00425 53.1837 7.48335Z" fill="white"/>
  <path d="M47.4285 21.1879V11.9808C47.4285 11.4285 47.8762 10.9808 48.4285 10.9808H50.0004C50.5527 10.9808 51.0004 11.4285 51.0004 11.9808V23.4001C51.0004 23.9524 50.5527 24.4001 50.0004 24.4001H48.5759C48.049 24.4001 47.6125 23.9914 47.578 23.4656L47.4285 21.1879ZM47.8254 18.4346L48.8796 18.4098C48.8796 19.3028 48.7762 20.1337 48.5695 20.9027C48.3628 21.6634 48.0528 22.3248 47.6394 22.8871C47.2259 23.441 46.705 23.8751 46.0767 24.1893C45.4483 24.4952 44.7083 24.6482 43.8566 24.6482C43.2035 24.6482 42.5999 24.5572 42.0459 24.3753C41.5002 24.1852 41.0289 23.8916 40.632 23.4948C40.2434 23.0896 39.9375 22.5729 39.7143 21.9445C39.4993 21.3078 39.3918 20.543 39.3918 19.65V11.9808C39.3918 11.4285 39.8395 10.9808 40.3918 10.9808H41.9637C42.516 10.9808 42.9637 11.4285 42.9637 11.9808V19.6748C42.9637 20.0717 43.0092 20.4066 43.1001 20.6794C43.1993 20.9523 43.3357 21.1755 43.5094 21.3492C43.683 21.5228 43.8856 21.6468 44.1171 21.7212C44.3569 21.7956 44.6215 21.8329 44.9108 21.8329C45.6467 21.8329 46.2255 21.684 46.6472 21.3864C47.0771 21.0887 47.3789 20.6836 47.5525 20.1709C47.7344 19.65 47.8254 19.0713 47.8254 18.4346Z" fill="white"/>
  <path d="M31.0693 16.475H26.4309L26.4061 13.9202H30.3004C30.9867 13.9202 31.5489 13.8333 31.9871 13.6597C32.4253 13.4778 32.7519 13.2174 32.9669 12.8784C33.1901 12.5311 33.3018 12.1094 33.3018 11.6133C33.3018 11.0511 33.1943 10.5963 32.9793 10.2491C32.7726 9.9018 32.446 9.64962 31.9995 9.49253C31.5613 9.33543 30.9949 9.25688 30.3004 9.25688H27.7207V24.4001H25.6C24.7163 24.4001 24 23.6838 24 22.8001V7.94233C24 7.05868 24.7163 6.34233 25.6 6.34233H30.3004C31.3505 6.34233 32.2889 6.44155 33.1157 6.63999C33.9508 6.83842 34.6577 7.14021 35.2365 7.54536C35.8153 7.9505 36.2576 8.46313 36.5636 9.08325C36.8695 9.6951 37.0225 10.4227 37.0225 11.2661C37.0225 12.0102 36.853 12.6965 36.514 13.3249C36.1832 13.9532 35.6582 14.4659 34.9389 14.8627C34.2278 15.2596 33.2976 15.4787 32.1483 15.5201L31.0693 16.475ZM30.9081 24.4001H25.4139L26.8649 21.498H30.9081C31.5613 21.498 32.0946 21.3946 32.508 21.1879C32.9214 20.973 33.2273 20.6836 33.4258 20.3198C33.6242 19.956 33.7234 19.5384 33.7234 19.0671C33.7234 18.538 33.6325 18.0791 33.4506 17.6905C33.277 17.3019 32.9958 17.0042 32.6072 16.7975C32.2186 16.5825 31.706 16.475 31.0693 16.475H27.4851L27.5099 13.9202H31.9747L32.8305 14.9248C33.9301 14.9082 34.8148 15.1025 35.4846 15.5077C36.1626 15.9045 36.6545 16.4213 36.9604 17.058C37.2746 17.6946 37.4317 18.3767 37.4317 19.1043C37.4317 20.2619 37.1796 21.2375 36.6752 22.0313C36.1708 22.8168 35.4308 23.408 34.4552 23.8048C33.4878 24.2017 32.3054 24.4001 30.9081 24.4001Z" fill="white"/>
  <path d="M19.6347 6.68961C18.7176 5.86504 17.8901 5.96828 17.2246 6.68961L16.7772 7.17436L19.2579 9.649L19.6338 9.30177C20.2994 8.58044 20.6994 7.70725 19.6338 6.68961H19.6347Z" fill="white"/>
  <path d="M4.20431 20.0879L3.06538 22.05L2.20955 23.8797C2.09955 24.1149 2.34368 24.3594 2.57898 24.2492L4.4076 23.3931L6.3643 22.2491L6.36245 22.2473L6.36755 22.2459L4.20431 20.0879Z" fill="white"/>
  <path d="M6.6502 21.4986L7.01731 21.8667L7.14309 21.7931C7.14634 21.7912 7.14959 21.7884 7.15237 21.7857L18.778 10.1601L18.3969 9.78049L6.6502 21.4986Z" fill="white"/>
  <path d="M4.66564 19.2967C4.66286 19.2994 4.66054 19.3027 4.65822 19.3059L4.58442 19.4332L6.15638 21.006L17.9036 9.28741L16.2889 7.67206L4.66518 19.2967H4.66564Z" fill="white"/>
  <path d="M6.38396 12.4271L17.7056 23.7684C18.3906 24.4545 19.5012 24.4545 20.1863 23.7684C20.8713 23.0823 20.8713 21.9697 20.1863 21.2836L8.86605 9.9437L6.38396 12.4271Z" fill="white"/>
  <path d="M9.46336 5.46387C8.87765 5.98102 8.10861 6.29492 7.26671 6.29492C6.91537 6.29492 6.57657 6.24029 6.25865 6.1389C6.22523 6.12825 6.18857 6.13658 6.16351 6.16158L1.43511 10.8979C1.25503 11.0785 1.25503 11.3711 1.43511 11.5516L3.52409 13.6443C3.70416 13.8249 3.99656 13.8249 4.1771 13.6443L8.37037 9.44692L8.36852 9.44507L10.6399 7.16996C10.82 6.9894 10.82 6.69679 10.6399 6.51623L9.59192 5.46711C9.55665 5.43192 9.50049 5.431 9.4629 5.46387H9.46336Z" fill="white"/>
</svg>
