<?xml version="1.0" standalone="no"?><!DOCTYPE svg PUBLIC "-//W3C//DTD SVG 1.1//EN" "http://www.w3.org/Graphics/SVG/1.1/DTD/svg11.dtd"><svg t="1755048131394" class="icon" viewBox="0 0 1024 1024" version="1.1" xmlns="http://www.w3.org/2000/svg" p-id="10857" xmlns:xlink="http://www.w3.org/1999/xlink" width="200" height="200"><path d="M512 2.27555555a509.72444445 509.72444445 0 1 0 0 1019.4488889A509.72444445 509.72444445 0 0 0 512 2.27555555z" fill="#FF0035" p-id="10858"></path><path d="M651.37322667 388.93795555c3.64088889 0 5.53415111 0 5.53415111 5.6069689v46.38492444c0 3.64088889-1.82044445 5.53415111-5.53415111 5.53415111h-25.99594667c-5.53415111 0-7.42741333 1.82044445-7.42741333 7.42741333v161.29137778c0 3.71370667 1.89326222 5.60696889 5.60696888 5.60696889h46.38492445c5.53415111 0 7.35459555 1.82044445 7.35459555 7.42741333v44.41884445c0 5.60696889-1.82044445 7.50023111-7.35459555 7.50023111-29.70965333-1.89326222-61.16693333-1.89326222-92.76984889-1.89326222H482.58161778c-5.53415111 0-7.35459555 0-3.64088889-5.53415112 7.35459555-14.85482667 14.78200889-31.53009778 24.02986666-46.38492444 1.89326222-3.64088889 3.71370667-5.53415111 9.32067556-5.53415111h46.38492444c4.36906667 0 5.31569778-1.16508445 5.46133334-4.51470222V451.99815111c0-5.53415111-1.82044445-7.35459555-7.28177778-5.53415111h-25.99594666c-5.60696889 0-7.42741333-1.82044445-7.42741334-5.53415111v-44.56448c0-5.53415111 1.82044445-7.35459555 7.42741334-7.35459556h120.51342222zM391.77784889 617.14887111c12.96156445 5.53415111 27.81639111 3.64088889 42.5984 3.64088889h37.13706666c3.64088889 0 5.53415111 1.89326222 3.6408889 5.60696889-9.24785778 16.74808889-16.67527111 33.42336-25.9231289 50.09863111-1.82044445 3.64088889-3.64088889 3.64088889-7.42741333 3.64088889-9.24785778-1.82044445-20.38897778-1.82044445-35.24380444-1.82044444-11.06830222 0-27.81639111 1.89326222-40.77795556-1.82044445-5.53415111-1.89326222-7.42741333-3.71370667-3.64088889-7.42741333 9.17504-16.74808889 16.60245333-31.53009778 24.02986667-48.20536889 1.89326222-1.89326222 1.89326222-5.60696889 5.60696889-3.71370667z m393.07036444-244.81336889c3.71370667 0 5.60696889 1.89326222 5.60696889 5.60696889 0 12.96156445 0 12.96156445 12.96156445 12.96156444 16.74808889 0 31.53009778 3.71370667 44.49166222 11.14112 18.56853333 11.14112 25.99594667 29.63683555 25.99594666 50.02581334v37.13706666c0 5.53415111 1.82044445 7.42741333 7.42741334 7.42741334 20.38897778 0 37.06424889 5.53415111 50.02581333 22.20942222a55.55996445 55.55996445 0 0 1 11.14112 33.42336V626.32391111c0 27.81639111-16.74808889 48.20536889-44.49166222 51.91907556a75.73048889 75.73048889 0 0 1-35.24380445-1.82044445 48.05973333 48.05973333 0 0 1-33.35054222-42.67121777c0-5.53415111 1.82044445-3.64088889 5.53415112-3.6408889h46.38492444c5.53415111 0 7.42741333-1.89326222 7.42741333-7.5002311v-48.2053689c0-12.96156445-7.42741333-20.38897778-20.38897777-20.38897777h-70.4876089c-3.71370667 0-5.60696889 1.89326222-5.60696888 5.53415111 1.89326222 18.56853333 1.89326222 37.13706667 1.89326222 57.52604444v55.63278222c0 5.53415111-1.89326222 7.42741333-7.42741334 7.42741334h-44.49166222c-5.60696889 0-7.42741333-1.89326222-7.42741333-7.42741334V561.44327111c0-5.53415111-1.89326222-7.42741333-7.42741333-7.42741333h-42.67121778c-5.53415111 0-7.42741333 0-7.42741334-5.53415111v-46.38492445c0-5.53415111 1.89326222-5.53415111 7.42741334-5.53415111h44.49166222c5.60696889 0 7.42741333-1.89326222 5.60696889-7.42741333v-35.24380445c0-5.60696889-1.89326222-5.60696889-7.42741333-5.60696888h-25.99594667c-3.64088889 0-5.53415111 0-5.53415111-5.53415112v-46.38492444c0-3.64088889 1.89326222-5.53415111 5.53415111-5.53415111h25.99594667c3.64088889 0 5.53415111-1.82044445 5.53415111-5.53415111 0-11.35957333 0-12.81592889 9.97603555-12.96156445h41.94304z m-543.29344-5.53415111c5.53415111 0 7.42741333 1.82044445 7.42741334 7.42741334-1.45635555 34.73408-1.74762667 67.42926222-1.82044445 98.81372444V626.32391111a52.35598222 52.35598222 0 0 1-7.50023111 27.81639111c-9.24785778 18.56853333-25.92312889 24.10268445-46.31210666 22.28224a41.72458667 41.72458667 0 0 1-38.95751112-31.53009777c-5.60696889-18.56853333-5.60696889-16.74808889 12.96156445-18.56853334 7.42741333 0 16.74808889 3.71370667 22.28224-1.82044444 3.64088889-3.71370667 1.82044445-12.96156445 1.82044444-20.38897778V374.15594667c0-5.60696889 1.89326222-7.42741333 7.42741333-7.42741334h42.67121778zM148.78492445 451.99815111c-3.64088889 40.77795555-5.53415111 81.55591111-11.06830223 122.40668444a160.92728889 160.92728889 0 0 1-29.70965333 74.20131556c1.89326222 0 0 1.82044445 0 3.64088889-11.14112-20.38897778-20.38897778-40.77795555-31.53009778-61.16693333-1.82044445-1.82044445-1.82044445-3.64088889 0-5.53415112 7.42741333-16.74808889 7.42741333-33.35054222 7.42741334-51.91907555l5.60696888-81.55591111c0-3.78652445 1.82044445-5.60696889 5.53415112-5.60696889h48.20536888c3.71370667 0 5.53415111 0 5.53415112 5.53415111zM337.96551111 446.464c5.53415111 0 5.53415111 1.82044445 7.42741334 7.42741333 1.82044445 37.13706667 5.53415111 74.20131555 9.24785777 111.26556445 0 3.64088889 0 9.24785778 1.89326223 12.96156444 3.64088889 7.42741333 1.82044445 14.85482667-1.89326223 22.28224-7.42741333 14.78200889-14.78200889 31.53009778-22.20942222 46.31210667-1.89326222 5.60696889-3.71370667 5.60696889-7.42741333 0-12.96156445-20.38897778-20.38897778-40.77795555-25.99594667-64.80782222C293.54666667 559.47719111 293.54666667 535.37450667 291.58058667 513.16508445c-1.82044445-20.38897778-3.64088889-38.95751111-5.53415112-59.3464889 0-5.60696889 0-7.42741333 7.42741334-7.42741333 7.42741333 1.82044445 14.85482667 0 22.20942222 0h22.28224z m144.61610667-74.20131555c5.60696889 0 5.60696889 1.89326222 3.71370667 5.60696888l-33.35054223 66.77390222c-1.82044445 1.82044445-1.82044445 3.64088889-3.71370667 7.35459556-1.82044445 3.71370667 0 5.60696889 3.71370667 7.42741334 3.64088889 1.89326222 3.64088889-1.82044445 5.53415111-3.6408889 1.89326222-3.78652445 3.71370667-5.60696889 9.32067556-5.60696888h44.41884444c5.60696889 0 5.60696889 1.82044445 3.78652445 5.53415111-14.85482667 27.81639111-27.81639111 57.52604445-42.67121778 85.34243555-5.53415111 11.14112-3.64088889 14.85482667 9.24785778 14.85482667 3.71370667-1.89326222 11.14112-1.89326222 18.56853333-1.89326222-7.42741333 12.96156445-12.96156445 25.99594667-18.56853333 38.95751111-3.64088889 9.24785778-9.24785778 11.14112-16.67527111 11.14112h-42.5984c-3.71370667 0-7.42741333 0-11.14112-1.89326222-13.03438222-3.64088889-16.74808889-12.96156445-13.03438222-25.92312889 7.42741333-20.38897778 18.56853333-38.95751111 27.8163911-59.34648889 1.89326222-3.71370667 3.71370667-5.60696889 5.6069689-11.14112h-37.13706667c-14.78200889-3.71370667-20.38897778-12.96156445-14.78200889-27.81639111 5.53415111-16.74808889 14.85482667-33.35054222 22.20942222-48.20536889 9.32067555-16.74808889 16.74808889-35.24380445 25.99594667-51.91907556 1.82044445-3.71370667 3.64088889-5.60696889 9.24785777-5.60696888h44.49166223z m315.30097777 74.20131555c-3.71370667 0-5.60696889 1.82044445-5.60696888 5.53415111v38.95751111c0 3.71370667 1.89326222 5.60696889 5.60696888 5.60696889h20.38897778c3.64088889 0 5.53415111-1.89326222 5.53415112-5.60696889v-30.58346667c-0.21845333-13.90819555-2.76707555-13.90819555-25.9231289-13.90819555z m126.04757334-57.52604445c13.03438222 1.89326222 24.10268445 14.85482667 24.10268444 29.70965334s-11.06830222 25.99594667-25.92312888 27.81639111h-14.85482667c-18.49571555 0-18.49571555 0-18.49571556-18.56853333 0-5.53415111 0-12.96156445 1.82044445-18.49571556 3.71370667-14.85482667 16.74808889-22.28224 33.35054222-20.38897778z" fill="#FFFFFF" p-id="10859"></path></svg>