<?xml version="1.0" standalone="no"?><!DOCTYPE svg PUBLIC "-//W3C//DTD SVG 1.1//EN" "http://www.w3.org/Graphics/SVG/1.1/DTD/svg11.dtd"><svg t="1756719438551" class="icon" viewBox="0 0 1024 1024" version="1.1" xmlns="http://www.w3.org/2000/svg" p-id="7263" xmlns:xlink="http://www.w3.org/1999/xlink" width="200" height="200"><path d="M512 0.9088C230.2336 0.9088 0.9088 230.2336 0.9088 512S230.2336 1023.0912 512 1023.0912 1023.0912 793.7664 1023.0912 512 793.7664 0.9088 512 0.9088z m0 1012.032C235.8144 1012.9408 11.0592 788.1728 11.0592 512 11.0592 235.8144 235.8272 11.0592 512 11.0592 788.1856 11.0592 1012.9408 235.8272 1012.9408 512c0 276.1856-224.768 500.9408-500.9408 500.9408z" fill="#C2C2C2" p-id="7264"></path><path d="M728.768 759.8976h-158.72a7.5648 7.5648 0 0 0-6.9632 8.2176 7.5776 7.5776 0 0 0 6.9632 6.9504h158.72a7.5648 7.5648 0 0 0 6.9632-8.2048 7.5776 7.5776 0 0 0-6.9632-6.9632z m14.592-60.6592H686.592a7.488 7.488 0 0 0-8.0896 7.0656 7.488 7.488 0 0 0 7.0656 8.1024h56.7936a7.488 7.488 0 0 0 8.0896-7.0656 7.6288 7.6288 0 0 0-7.0656-8.1024z m-157.9264 30.4512H383.0272a7.6544 7.6544 0 0 0-8.2048 6.9504 7.6544 7.6544 0 0 0 6.9504 8.2176H585.216a7.6544 7.6544 0 0 0 8.2176-6.9632 7.7184 7.7184 0 0 0-6.9632-8.2048 1.5872 1.5872 0 0 0-1.024 0z m222.7072 30.208h-34.7776a7.5648 7.5648 0 0 0-6.9632 8.2176 7.5776 7.5776 0 0 0 6.9632 6.9504h34.7776a7.5648 7.5648 0 0 0 6.9504-8.2048 7.5776 7.5776 0 0 0-6.9504-6.9632z m-527.744-53.7088a7.488 7.488 0 0 0 7.0784 8.1024h71.9488c4.224 0 7.6416-3.4176 7.6416-7.6416 0-4.224-6.7328-8.6656-10.8288-8.6656l3.3024 1.152h-71.04a7.6416 7.6416 0 0 0-8.1024 7.0528z m-45.376 8.2176h23.936a7.488 7.488 0 0 0 8.1024-7.0656 7.488 7.488 0 0 0-7.0656-8.1024H236.032a7.488 7.488 0 0 0-8.1024 7.0656 7.7184 7.7184 0 0 0 7.0784 8.1024z m197.376 76.0576H215.872a7.5136 7.5136 0 1 0 0 15.0528h216.5504c4.096 0 7.5264-3.3024 7.5264-7.5264a7.68 7.68 0 0 0-7.5264-7.5264z m79.6032 0h-34.8928a7.5136 7.5136 0 1 0 0 15.0528H512a7.5136 7.5136 0 1 0 0-15.0528z m-5.0176-114.0352c129.7664 0 235.2512-105.6 235.2512-235.2384 0-129.664-105.6-235.2512-235.2512-235.2512-129.664 0-235.2512 105.6-235.2512 235.2512 0 129.6512 105.472 235.2384 235.2512 235.2384z m-103.8848-42.9824a218.0096 218.0096 0 0 1-36.2624-26.112V440.96h36.2624v192.4864z m245.8496-26.112a208.96 208.96 0 0 1-36.2624 26.112V440.96H648.96v166.3744zM506.9824 220.992c121.3312 0 220.0832 98.752 220.0832 220.0832 0 59.8656-24.064 114.1376-62.9504 153.8304V440.96h11.6352a4.992 4.992 0 0 0 5.0176-5.0176v-16.64a4.992 4.992 0 0 0-5.0176-5.0304h-89.856a4.992 4.992 0 0 0-5.0176 5.0176v16.64a4.992 4.992 0 0 0 5.0176 5.0304h11.6352v200.704a219.2768 219.2768 0 0 1-90.6624 19.5968c-31.5904 0-61.568-6.72-88.704-18.688V440.96h10.24a4.992 4.992 0 0 0 5.0304-5.0176v-16.64a4.992 4.992 0 0 0-5.0176-5.0304h-89.7408a4.992 4.992 0 0 0-5.0176 5.0176v16.64a4.992 4.992 0 0 0 5.0176 5.0304h12.992v156.1088c-40.0256-39.9104-64.8832-94.9888-64.8832-155.8784 0-121.4464 98.752-220.1984 220.1984-220.1984z" fill="#C2C2C2" p-id="7265"></path><path d="M471.6288 563.776h73.088a4.992 4.992 0 0 0 5.0304-5.0176v-13.568a4.992 4.992 0 0 0-5.0176-5.0304h-73.088a4.992 4.992 0 0 0-5.0304 5.0176v13.568c0 2.7392 2.2912 5.0304 5.0176 5.0304z" fill="#C2C2C2" p-id="7266"></path></svg>