<svg xmlns="http://www.w3.org/2000/svg" width="100" height="100" viewBox="0 0 100 100" fill="none">
  <path d="M16.25 11.25H83.75C83.75 11.25 88.75 11.25 88.75 16.25V66.25C88.75 66.25 88.75 71.25 83.75 71.25H16.25C16.25 71.25 11.25 71.25 11.25 66.25V16.25C11.25 16.25 11.25 11.25 16.25 11.25Z" fill="#4B9BD8" stroke="black" stroke-width="1.2" stroke-linecap="round" stroke-linejoin="round"/>
  <path d="M21.8585 57.467C21.7187 57.467 21.579 57.4764 21.4404 57.4951C21.3754 56.5249 20.9718 55.6082 20.3001 54.9051C19.6284 54.202 18.7311 53.757 17.7649 53.6478C16.7986 53.5385 15.8247 53.7719 15.0129 54.3073C14.2011 54.8427 13.6031 55.6461 13.3231 56.5773C13.0206 56.4976 12.7091 56.4574 12.3963 56.4577C12.0057 56.4625 11.6186 56.5309 11.25 56.6602V63.75H21.6727C22.4732 63.7677 23.2524 63.4911 23.8626 62.9726C24.4728 62.4541 24.8715 61.7297 24.9832 60.9368C25.0287 60.4991 24.9817 60.0566 24.8455 59.6382C24.7092 59.2197 24.4866 58.8345 24.1921 58.5074C23.8976 58.1804 23.5377 57.9188 23.1357 57.7396C22.7337 57.5604 22.2986 57.4675 21.8585 57.467Z" fill="#199A4A" stroke="black" stroke-width="1.2" stroke-linecap="round" stroke-linejoin="round"/>
  <path d="M11.25 66.25V63.75L88.75 63.75V66.25C88.75 67.5761 88.2232 68.8479 87.2855 69.7855C86.3479 70.7232 85.0761 71.25 83.75 71.25H16.25C14.9239 71.25 13.6521 70.7232 12.7145 69.7855C11.7768 68.8479 11.25 67.5761 11.25 66.25Z" fill="#AA532C" stroke="black" stroke-width="1.2" stroke-linecap="round" stroke-linejoin="round"/>
  <path d="M21.25 11.25H83.75C83.75 11.25 88.75 11.25 88.75 16.25V66.25C88.75 66.25 88.75 71.25 83.75 71.25H21.25C21.25 71.25 16.25 71.25 16.25 66.25V16.25C16.25 16.25 16.25 11.25 21.25 11.25Z" fill="#ECF8FF" stroke="black" stroke-width="1.2" stroke-linecap="round" stroke-linejoin="round"/>
  <path d="M30 63.75L41.6161 52.1339C41.8963 51.8537 42.229 51.6314 42.5951 51.4797C42.9613 51.3281 43.3537 51.25 43.75 51.25C44.1463 51.25 44.5387 51.3281 44.9049 51.4797C45.271 51.6314 45.6037 51.8537 45.8839 52.1339L57.5 63.75H30Z" fill="#6FDAFB" stroke="#6FDAFB" stroke-width="1.2" stroke-miterlimit="10"/>
  <path d="M16.25 66.25V63.75L88.75 63.75V66.25C88.75 67.5761 88.2232 68.8479 87.2855 69.7855C86.3479 70.7232 85.0761 71.25 83.75 71.25H21.25C19.9239 71.25 18.6521 70.7232 17.7145 69.7855C16.7768 68.8479 16.25 67.5761 16.25 66.25Z" fill="#F87D30" stroke="black" stroke-width="1.2" stroke-linecap="round" stroke-linejoin="round"/>
  <path d="M21.8585 57.4672C21.7187 57.4672 21.579 57.4766 21.4404 57.4953C21.3689 56.4452 20.9016 55.4613 20.1329 54.7423C19.3642 54.0233 18.3513 53.6228 17.2988 53.6215C16.9442 53.6254 16.5917 53.6752 16.25 53.7697V63.7502H21.8585C22.6906 63.7486 23.4881 63.4168 24.0758 62.8279C24.6636 62.2389 24.9937 61.4408 24.9937 60.6087C24.9937 59.7766 24.6636 58.9785 24.0758 58.3896C23.4881 57.8006 22.6906 57.4689 21.8585 57.4672Z" fill="#82CBAA" stroke="black" stroke-width="1.2" stroke-linecap="round" stroke-linejoin="round"/>
  <path d="M63.75 53.75H78.75V63.75H63.75V53.75Z" fill="#199A4A" stroke="black" stroke-width="1.2" stroke-linecap="round" stroke-linejoin="round"/>
  <path d="M67.5 53.75H78.75V63.75H67.5V53.75Z" fill="#82CBAA" stroke="black" stroke-width="1.2" stroke-linecap="round" stroke-linejoin="round"/>
  <path d="M63.75 47.5H78.75C78.75 47.5 80 47.5 80 48.75V52.5C80 52.5 80 53.75 78.75 53.75H63.75C63.75 53.75 62.5 53.75 62.5 52.5V48.75C62.5 48.75 62.5 47.5 63.75 47.5Z" fill="#1E4BDE" stroke="black" stroke-width="1.2" stroke-linecap="round" stroke-linejoin="round"/>
  <path d="M63.75 47.5H78.75C78.75 47.5 80 47.5 80 48.75V52.5C80 52.5 80 53.75 78.75 53.75H63.75C63.75 53.75 62.5 53.75 62.5 52.5V48.75C62.5 48.75 62.5 47.5 63.75 47.5Z" fill="#199A4A" stroke="black" stroke-width="1.2" stroke-linecap="round" stroke-linejoin="round"/>
  <path d="M67.5 47.5H78.75C78.75 47.5 80 47.5 80 48.75V52.5C80 52.5 80 53.75 78.75 53.75H67.5C67.5 53.75 66.25 53.75 66.25 52.5V48.75C66.25 48.75 66.25 47.5 67.5 47.5Z" fill="#82CBAA" stroke="black" stroke-width="1.2" stroke-linecap="round" stroke-linejoin="round"/>
  <path d="M71.25 61.25H33.75C30.1033 61.25 26.6059 62.6987 24.0273 65.2773C21.4487 67.8559 20 71.3533 20 75C20 78.6467 21.4487 82.1441 24.0273 84.7227C26.6059 87.3013 30.1033 88.75 33.75 88.75H38.75C41.2828 88.7494 43.7662 88.0486 45.9257 86.725C48.0852 85.4014 49.8368 83.5067 50.9869 81.25H54.0131C55.1632 83.5067 56.9148 85.4014 59.0743 86.725C61.2338 88.0486 63.7172 88.7494 66.25 88.75H71.25C74.8967 88.75 78.3941 87.3013 80.9727 84.7227C83.5513 82.1441 85 78.6467 85 75C85 71.3533 83.5513 67.8559 80.9727 65.2773C78.3941 62.6987 74.8967 61.25 71.25 61.25Z" fill="#E4E4E4" stroke="black" stroke-width="1.2" stroke-linecap="round" stroke-linejoin="round"/>
  <path d="M71.25 61.25H38.75C36.3058 61.2481 33.9052 61.8978 31.7956 63.1322C29.6859 64.3666 27.9434 66.141 26.7476 68.2727C25.5517 70.4044 24.9457 72.8164 24.992 75.2602C25.0382 77.704 25.7351 80.0913 27.0107 82.1762C28.2864 84.2612 30.0948 85.9684 32.2496 87.122C34.4044 88.2757 36.8279 88.8341 39.2703 88.7398C41.7127 88.6454 44.0858 87.9017 46.1452 86.5852C48.2047 85.2688 49.8759 83.4271 50.9869 81.25H59.0131C60.1245 83.4255 61.7957 85.2655 63.8545 86.5805C65.9134 87.8956 68.2855 88.6382 70.7266 88.7319C73.1678 88.8256 75.5899 88.2671 77.7435 87.1138C79.8971 85.9604 81.7044 84.254 82.9794 82.1702C84.2544 80.0863 84.951 77.7003 84.9975 75.2577C85.044 72.8152 84.4388 70.4044 83.244 68.2735C82.0493 66.1426 80.3083 64.3686 78.2001 63.1341C76.092 61.8997 73.693 61.2493 71.25 61.25Z" fill="#E4E4E4" stroke="black" stroke-width="1.2" stroke-linecap="round" stroke-linejoin="round"/>
  <path d="M71.875 66.25H70.625C69.962 66.25 69.3261 66.5134 68.8572 66.9822C68.3884 67.4511 68.125 68.087 68.125 68.75C68.125 69.413 68.3884 70.0489 68.8572 70.5178C69.3261 70.9866 69.962 71.25 70.625 71.25H71.875C72.538 71.25 73.1739 70.9866 73.6428 70.5178C74.1116 70.0489 74.375 69.413 74.375 68.75C74.375 68.087 74.1116 67.4511 73.6428 66.9822C73.1739 66.5134 72.538 66.25 71.875 66.25Z" fill="#1E4BDE" stroke="black" stroke-width="1.2" stroke-linecap="round" stroke-linejoin="round"/>
  <path d="M71.875 78.75H70.625C69.962 78.75 69.3261 79.0134 68.8572 79.4822C68.3884 79.9511 68.125 80.587 68.125 81.25C68.125 81.913 68.3884 82.5489 68.8572 83.0178C69.3261 83.4866 69.962 83.75 70.625 83.75H71.875C72.538 83.75 73.1739 83.4866 73.6428 83.0178C74.1116 82.5489 74.375 81.913 74.375 81.25C74.375 80.587 74.1116 79.9511 73.6428 79.4822C73.1739 79.0134 72.538 78.75 71.875 78.75Z" fill="#1E4BDE" stroke="black" stroke-width="1.2" stroke-linecap="round" stroke-linejoin="round"/>
  <path d="M78.125 72.5H76.875C76.212 72.5 75.5761 72.7634 75.1072 73.2322C74.6384 73.7011 74.375 74.337 74.375 75C74.375 75.663 74.6384 76.2989 75.1072 76.7678C75.5761 77.2366 76.212 77.5 76.875 77.5H78.125C78.788 77.5 79.4239 77.2366 79.8928 76.7678C80.3616 76.2989 80.625 75.663 80.625 75C80.625 74.337 80.3616 73.7011 79.8928 73.2322C79.4239 72.7634 78.788 72.5 78.125 72.5Z" fill="#1E4BDE" stroke="black" stroke-width="1.2" stroke-linecap="round" stroke-linejoin="round"/>
  <path d="M65.625 72.5H64.375C63.712 72.5 63.0761 72.7634 62.6072 73.2322C62.1384 73.7011 61.875 74.337 61.875 75C61.875 75.663 62.1384 76.2989 62.6072 76.7678C63.0761 77.2366 63.712 77.5 64.375 77.5H65.625C66.288 77.5 66.9239 77.2366 67.3928 76.7678C67.8616 76.2989 68.125 75.663 68.125 75C68.125 74.337 67.8616 73.7011 67.3928 73.2322C66.9239 72.7634 66.288 72.5 65.625 72.5Z" fill="#1E4BDE" stroke="black" stroke-width="1.2" stroke-linecap="round" stroke-linejoin="round"/>
  <path d="M69.375 68.75C69.375 69.413 69.6384 70.0489 70.1072 70.5178C70.5761 70.9866 71.212 71.25 71.875 71.25C72.538 71.25 73.1739 70.9866 73.6428 70.5178C74.1116 70.0489 74.375 69.413 74.375 68.75C74.375 68.087 74.1116 67.4511 73.6428 66.9822C73.1739 66.5134 72.538 66.25 71.875 66.25C71.212 66.25 70.5761 66.5134 70.1072 66.9822C69.6384 67.4511 69.375 68.087 69.375 68.75Z" fill="#F6C944" stroke="black" stroke-width="1.2" stroke-linecap="round" stroke-linejoin="round"/>
  <path d="M69.375 81.25C69.375 81.913 69.6384 82.5489 70.1072 83.0178C70.5761 83.4866 71.212 83.75 71.875 83.75C72.538 83.75 73.1739 83.4866 73.6428 83.0178C74.1116 82.5489 74.375 81.913 74.375 81.25C74.375 80.587 74.1116 79.9511 73.6428 79.4822C73.1739 79.0134 72.538 78.75 71.875 78.75C71.212 78.75 70.5761 79.0134 70.1072 79.4822C69.6384 79.9511 69.375 80.587 69.375 81.25Z" fill="#82CBAA" stroke="black" stroke-width="1.2" stroke-linecap="round" stroke-linejoin="round"/>
  <path d="M75.625 75C75.625 75.663 75.8884 76.2989 76.3572 76.7678C76.8261 77.2366 77.462 77.5 78.125 77.5C78.788 77.5 79.4239 77.2366 79.8928 76.7678C80.3616 76.2989 80.625 75.663 80.625 75C80.625 74.337 80.3616 73.7011 79.8928 73.2322C79.4239 72.7634 78.788 72.5 78.125 72.5C77.462 72.5 76.8261 72.7634 76.3572 73.2322C75.8884 73.7011 75.625 74.337 75.625 75Z" fill="#E62234" stroke="black" stroke-width="1.2" stroke-linecap="round" stroke-linejoin="round"/>
  <path d="M63.125 75C63.125 75.663 63.3884 76.2989 63.8572 76.7678C64.3261 77.2366 64.962 77.5 65.625 77.5C66.288 77.5 66.9239 77.2366 67.3928 76.7678C67.8616 76.2989 68.125 75.663 68.125 75C68.125 74.337 67.8616 73.7011 67.3928 73.2322C66.9239 72.7634 66.288 72.5 65.625 72.5C64.962 72.5 64.3261 72.7634 63.8572 73.2322C63.3884 73.7011 63.125 74.337 63.125 75Z" fill="#6FDAFB" stroke="black" stroke-width="1.2" stroke-linecap="round" stroke-linejoin="round"/>
  <path d="M44.375 72.5H40.625V68.75C40.625 68.4185 40.4933 68.1005 40.2589 67.8661C40.0245 67.6317 39.7065 67.5 39.375 67.5H36.875C36.5435 67.5 36.2255 67.6317 35.9911 67.8661C35.7567 68.1005 35.625 68.4185 35.625 68.75V72.5H31.875C31.5435 72.5 31.2255 72.6317 30.9911 72.8661C30.7567 73.1005 30.625 73.4185 30.625 73.75V76.25C30.625 76.5815 30.7567 76.8995 30.9911 77.1339C31.2255 77.3683 31.5435 77.5 31.875 77.5H35.625V81.25C35.625 81.5815 35.7567 81.8995 35.9911 82.1339C36.2255 82.3683 36.5435 82.5 36.875 82.5H39.375C39.7065 82.5 40.0245 82.3683 40.2589 82.1339C40.4933 81.8995 40.625 81.5815 40.625 81.25V77.5H44.375C44.7065 77.5 45.0245 77.3683 45.2589 77.1339C45.4933 76.8995 45.625 76.5815 45.625 76.25V73.75C45.625 73.4185 45.4933 73.1005 45.2589 72.8661C45.0245 72.6317 44.7065 72.5 44.375 72.5Z" fill="#1E4BDE" stroke="black" stroke-width="1.2" stroke-linecap="round" stroke-linejoin="round"/>
  <path d="M45.625 72.5H41.875V68.75C41.875 68.4185 41.7433 68.1005 41.5089 67.8661C41.2745 67.6317 40.9565 67.5 40.625 67.5H38.125C37.7935 67.5 37.4755 67.6317 37.2411 67.8661C37.0067 68.1005 36.875 68.4185 36.875 68.75V72.5H33.125C32.7935 72.5 32.4755 72.6317 32.2411 72.8661C32.0067 73.1005 31.875 73.4185 31.875 73.75V76.25C31.875 76.5815 32.0067 76.8995 32.2411 77.1339C32.4755 77.3683 32.7935 77.5 33.125 77.5H36.875V81.25C36.875 81.5815 37.0067 81.8995 37.2411 82.1339C37.4755 82.3683 37.7935 82.5 38.125 82.5H40.625C40.9565 82.5 41.2745 82.3683 41.5089 82.1339C41.7433 81.8995 41.875 81.5815 41.875 81.25V77.5H45.625C45.9565 77.5 46.2745 77.3683 46.5089 77.1339C46.7433 76.8995 46.875 76.5815 46.875 76.25V73.75C46.875 73.4185 46.7433 73.1005 46.5089 72.8661C46.2745 72.6317 45.9565 72.5 45.625 72.5Z" fill="#808080" stroke="black" stroke-width="1.2" stroke-linecap="round" stroke-linejoin="round"/>
  <path d="M58.75 68.75H56.875" stroke="black" stroke-width="1.2" stroke-linecap="round" stroke-linejoin="round"/>
  <path d="M53.125 68.75H51.25" stroke="black" stroke-width="1.2" stroke-linecap="round" stroke-linejoin="round"/>
  <path d="M30.7287 26.2838C31.8266 26.2852 32.895 26.6396 33.7761 27.2947C34.6572 27.9498 35.3042 28.8709 35.6217 29.922C36.2386 29.7598 36.883 29.731 37.512 29.8376C38.1409 29.9441 38.7399 30.1835 39.269 30.5398C39.7982 30.896 40.2452 31.361 40.5805 31.9037C40.9157 32.4464 41.1314 33.0544 41.2132 33.687C41.2949 34.3196 41.2409 34.9624 41.0546 35.5725C40.8684 36.1826 40.5542 36.746 40.133 37.2251C39.7119 37.7042 39.1934 38.088 38.6123 38.351C38.0311 38.6139 37.4005 38.7499 36.7626 38.7499H25.1167C24.587 38.7501 24.063 38.6416 23.5771 38.4309C23.0912 38.2202 22.6537 37.912 22.2919 37.5253C21.93 37.1386 21.6514 36.6817 21.4734 36.1829C21.2954 35.6841 21.2218 35.154 21.2571 34.6256C21.2925 34.0971 21.436 33.5816 21.6788 33.1109C21.9216 32.6402 22.2585 32.2244 22.6686 31.8893C23.0787 31.5542 23.5533 31.307 24.063 31.1629C24.5726 31.0188 25.1064 30.9809 25.6313 31.0516C25.7193 29.7592 26.2944 28.5482 27.2405 27.6633C28.1866 26.7784 29.4332 26.2854 30.7287 26.2838Z" fill="white" stroke="white" stroke-width="1.2" stroke-linecap="round" stroke-linejoin="round"/>
  <path d="M26.25 36.25H50C50 36.25 51.25 36.25 51.25 37.5V42.5C51.25 42.5 51.25 43.75 50 43.75H26.25C26.25 43.75 25 43.75 25 42.5V37.5C25 37.5 25 36.25 26.25 36.25Z" fill="#C8D4FA" stroke="black" stroke-width="1.2" stroke-linecap="round" stroke-linejoin="round"/>
  <path d="M30 36.25H35C35 36.25 36.25 36.25 36.25 37.5V42.5C36.25 42.5 36.25 43.75 35 43.75H30C30 43.75 28.75 43.75 28.75 42.5V37.5C28.75 37.5 28.75 36.25 30 36.25Z" fill="#DBAE5D" stroke="black" stroke-width="1.2" stroke-linecap="round" stroke-linejoin="round"/>
  <path d="M45 36.25H50C50 36.25 51.25 36.25 51.25 37.5V42.5C51.25 42.5 51.25 43.75 50 43.75H45C45 43.75 43.75 43.75 43.75 42.5V37.5C43.75 37.5 43.75 36.25 45 36.25Z" fill="#DBAE5D" stroke="black" stroke-width="1.2" stroke-linecap="round" stroke-linejoin="round"/>
  <path d="M37.5 36.25H42.5C42.5 36.25 43.75 36.25 43.75 37.5V42.5C43.75 42.5 43.75 43.75 42.5 43.75H37.5C37.5 43.75 36.25 43.75 36.25 42.5V37.5C36.25 37.5 36.25 36.25 37.5 36.25Z" fill="#9B6C33" stroke="black" stroke-width="1.2" stroke-linecap="round" stroke-linejoin="round"/>
  <path d="M26.25 36.25H27.5C27.5 36.25 28.75 36.25 28.75 37.5V42.5C28.75 42.5 28.75 43.75 27.5 43.75H26.25C26.25 43.75 25 43.75 25 42.5V37.5C25 37.5 25 36.25 26.25 36.25Z" fill="#9B6C33" stroke="black" stroke-width="1.2" stroke-linecap="round" stroke-linejoin="round"/>
  <path d="M87.6337 55.1135C86.848 55.1145 86.0886 55.3968 85.4929 55.9093C84.8973 56.4217 84.5048 57.1305 84.3866 57.9073L84.3272 57.9067C83.5523 57.9067 82.8092 58.2145 82.2613 58.7624C81.7133 59.3103 81.4055 60.0535 81.4055 60.8283C81.4055 61.6032 81.7133 62.3464 82.2613 62.8943C82.8092 63.4422 83.5523 63.75 84.3272 63.75H88.7499V55.3153C88.3925 55.1835 88.0147 55.1152 87.6337 55.1135Z" fill="#82CBAA" stroke="black" stroke-width="1.2" stroke-linecap="round" stroke-linejoin="round"/>
  <path d="M77.1745 35.0171C77.8607 35.0179 78.5284 35.2394 79.0791 35.6489C79.6298 36.0583 80.0342 36.634 80.2326 37.2909C80.6182 37.1896 81.0209 37.1716 81.414 37.2382C81.8071 37.3048 82.1814 37.4545 82.5121 37.6771C82.8428 37.8998 83.1222 38.1904 83.3317 38.5296C83.5412 38.8688 83.676 39.2487 83.7271 39.6441C83.7782 40.0395 83.7444 40.4412 83.628 40.8225C83.5116 41.2038 83.3153 41.5559 83.0521 41.8554C82.7889 42.1548 82.4649 42.3947 82.1016 42.559C81.7384 42.7234 81.3443 42.8084 80.9457 42.8084H73.6669C73.3359 42.8086 73.0084 42.7407 72.7047 42.6091C72.401 42.4774 72.1275 42.2848 71.9014 42.0431C71.6752 41.8014 71.5011 41.5158 71.3898 41.204C71.2786 40.8923 71.2326 40.561 71.2546 40.2307C71.2767 39.9004 71.3664 39.5782 71.5182 39.284C71.6699 38.9898 71.8805 38.73 72.1368 38.5205C72.3932 38.3111 72.6898 38.1566 73.0083 38.0665C73.3269 37.9764 73.6605 37.9528 73.9886 37.997C74.0435 37.1892 74.403 36.4323 74.9943 35.8793C75.5856 35.3262 76.3648 35.018 77.1745 35.0171Z" fill="white" stroke="white" stroke-width="1.2" stroke-linecap="round" stroke-linejoin="round"/>
  <path d="M24.375 16.6249C24.497 16.5012 24.6433 16.404 24.8046 16.3395C24.9659 16.2749 25.1388 16.2444 25.3125 16.2499C25.4289 16.2412 25.5459 16.2559 25.6566 16.2931C25.7672 16.3304 25.8692 16.3895 25.9567 16.4669C26.0441 16.5443 26.1151 16.6384 26.1654 16.7438C26.2158 16.8491 26.2446 16.9634 26.25 17.0801C26.25 17.6033 25.7159 18.2021 24.375 18.7499C23.0341 18.2021 22.5 17.6033 22.5 17.0801C22.5054 16.9634 22.5342 16.8491 22.5846 16.7438C22.6349 16.6384 22.7059 16.5443 22.7933 16.4669C22.8808 16.3895 22.9828 16.3304 23.0934 16.2931C23.2041 16.2559 23.3211 16.2412 23.4375 16.2499C23.6112 16.2444 23.7841 16.2749 23.9454 16.3395C24.1067 16.404 24.253 16.5012 24.375 16.6249Z" fill="#E62234" stroke="#E62234" stroke-width="1.2" stroke-linecap="round" stroke-linejoin="round"/>
  <path d="M36.875 16.6249C36.997 16.5012 37.1433 16.404 37.3046 16.3395C37.4659 16.2749 37.6388 16.2444 37.8125 16.2499C37.9289 16.2412 38.0459 16.2559 38.1566 16.2931C38.2672 16.3304 38.3692 16.3895 38.4567 16.4669C38.5441 16.5443 38.6151 16.6384 38.6654 16.7438C38.7158 16.8491 38.7446 16.9634 38.75 17.0801C38.75 17.6033 38.2159 18.2021 36.875 18.7499C35.5341 18.2021 35 17.6033 35 17.0801C35.0054 16.9634 35.0342 16.8491 35.0846 16.7438C35.1349 16.6384 35.2059 16.5443 35.2933 16.4669C35.3808 16.3895 35.4828 16.3304 35.5934 16.2931C35.7041 16.2559 35.8211 16.2412 35.9375 16.2499C36.1112 16.2444 36.2841 16.2749 36.4454 16.3395C36.6067 16.404 36.753 16.5012 36.875 16.6249Z" fill="#E62234" stroke="#E62234" stroke-width="1.2" stroke-linecap="round" stroke-linejoin="round"/>
  <path d="M30.625 16.6249C30.747 16.5012 30.8933 16.404 31.0546 16.3395C31.2159 16.2749 31.3888 16.2444 31.5625 16.2499C31.6789 16.2412 31.7959 16.2559 31.9066 16.2931C32.0172 16.3304 32.1192 16.3895 32.2067 16.4669C32.2941 16.5443 32.3651 16.6384 32.4154 16.7438C32.4658 16.8491 32.4946 16.9634 32.5 17.0801C32.5 17.6033 31.9659 18.2021 30.625 18.7499C29.2841 18.2021 28.75 17.6033 28.75 17.0801C28.7554 16.9634 28.7842 16.8491 28.8346 16.7438C28.8849 16.6384 28.9559 16.5443 29.0433 16.4669C29.1308 16.3895 29.2328 16.3304 29.3434 16.2931C29.4541 16.2559 29.5711 16.2412 29.6875 16.2499C29.8612 16.2444 30.0341 16.2749 30.1954 16.3395C30.3567 16.404 30.503 16.5012 30.625 16.6249Z" fill="#E62234" stroke="#E62234" stroke-width="1.2" stroke-linecap="round" stroke-linejoin="round"/>
  <path d="M76.25 16.25H83.75" stroke="black" stroke-width="1.2" stroke-linecap="round" stroke-linejoin="round"/>
  <path d="M83.75 18.75H78.75" stroke="black" stroke-width="1.2" stroke-linecap="round" stroke-linejoin="round"/>
  <path d="M72.5 26.25H73.75C74.0815 26.25 74.3995 26.3817 74.6339 26.6161C74.8683 26.8505 75 27.1685 75 27.5V30H71.25V27.5C71.25 27.1685 71.3817 26.8505 71.6161 26.6161C71.8505 26.3817 72.1685 26.25 72.5 26.25Z" fill="#FBE8C2" stroke="black" stroke-width="1.2" stroke-linecap="round" stroke-linejoin="round"/>
  <path d="M71.25 35V30H75V31.25C75 32.2446 74.6049 33.1984 73.9016 33.9017C73.1984 34.6049 72.2446 35 71.25 35Z" fill="#F6C944" stroke="black" stroke-width="1.2" stroke-linecap="round" stroke-linejoin="round"/>
  <path d="M61.25 31.25H71.25V35H61.25V31.25Z" fill="#F6C944" stroke="black" stroke-width="1.2" stroke-linecap="round" stroke-linejoin="round"/>
  <path d="M76.25 38.75H75V35L76.25 33.75V38.75Z" fill="#1E4BDE" stroke="black" stroke-width="1.2" stroke-linecap="round" stroke-linejoin="round"/>
  <path d="M60 38.75H61.25V42.5L60 43.75V38.75Z" fill="#1E4BDE" stroke="black" stroke-width="1.2" stroke-linecap="round" stroke-linejoin="round"/>
  <path d="M68.75 35H75V38.75H68.75V35Z" fill="#E62234" stroke="black" stroke-width="1.2" stroke-linecap="round" stroke-linejoin="round"/>
  <path d="M68.75 35H61.25V42.5H65C65.9946 42.5 66.9484 42.1049 67.6516 41.4017C68.3549 40.6984 68.75 39.7446 68.75 38.75V35Z" fill="#E62234" stroke="black" stroke-width="1.2" stroke-linecap="round" stroke-linejoin="round"/>
  <path d="M71.25 31.25H61.25V22.5C61.25 21.837 61.5134 21.2011 61.9822 20.7322C62.4511 20.2634 63.087 20 63.75 20H68.75C69.413 20 70.0489 20.2634 70.5178 20.7322C70.9866 21.2011 71.25 21.837 71.25 22.5V25L72.5 26.875L71.25 28.125V31.25Z" fill="#FBE8C2" stroke="black" stroke-width="1.2" stroke-linecap="round" stroke-linejoin="round"/>
  <path d="M65.7812 27.6562C65.7812 27.8635 65.8636 28.0622 66.0101 28.2087C66.1566 28.3552 66.3553 28.4375 66.5625 28.4375C66.7697 28.4375 66.9684 28.3552 67.1149 28.2087C67.2614 28.0622 67.3438 27.8635 67.3438 27.6562C67.3438 27.449 67.2614 27.2503 67.1149 27.1038C66.9684 26.9573 66.7697 26.875 66.5625 26.875C66.3553 26.875 66.1566 26.9573 66.0101 27.1038C65.8636 27.2503 65.7812 27.449 65.7812 27.6562Z" fill="#F89C70"/>
  <path d="M61.25 23.75H73.75" stroke="black" stroke-width="1.2" stroke-linecap="round" stroke-linejoin="round"/>
  <path d="M68.4375 25.9375V26.5625V25.9375Z" fill="white"/>
  <path d="M68.4375 25.9375V26.5625" stroke="black" stroke-width="1.2" stroke-linecap="round" stroke-linejoin="round"/>
  <path d="M67.5 29.375C68.3004 28.5746 69.3859 28.125 70.5178 28.125H71.25" fill="white"/>
  <path d="M67.5 29.375C68.3004 28.5746 69.3859 28.125 70.5178 28.125H71.25" stroke="black" stroke-width="1.2" stroke-linecap="round" stroke-linejoin="round"/>
  <path d="M61.25 35V31.25C60.2554 31.25 59.3016 31.6451 58.5984 32.3483C57.8951 33.0516 57.5 34.0054 57.5 35C57.5 35.9946 57.8951 36.9484 58.5984 37.6517C59.3016 38.3549 60.2554 38.75 61.25 38.75V35Z" fill="#F6C944" stroke="black" stroke-width="1.2" stroke-linecap="round" stroke-linejoin="round"/>
  <path d="M61.25 35H63.75C64.0815 35 64.3995 35.1317 64.6339 35.3661C64.8683 35.6005 65 35.9185 65 36.25V37.5C65 37.8315 64.8683 38.1495 64.6339 38.3839C64.3995 38.6183 64.0815 38.75 63.75 38.75H61.25V35Z" fill="#FBE8C2" stroke="black" stroke-width="1.2" stroke-linecap="round" stroke-linejoin="round"/>
  <path d="M61.25 23.75H65V26.25C65 26.913 64.7366 27.5489 64.2678 28.0178C63.7989 28.4866 63.163 28.75 62.5 28.75H61.25V23.75Z" fill="black" stroke="black" stroke-width="1.2" stroke-linecap="round" stroke-linejoin="round"/>
  <path d="M63.75 20H68.75C69.413 20 70.0489 20.2634 70.5178 20.7322C70.9866 21.2011 71.25 21.837 71.25 22.5V23.75H61.25V22.5C61.25 21.837 61.5134 21.2011 61.9822 20.7322C62.4511 20.2634 63.087 20 63.75 20Z" fill="#E62234" stroke="black" stroke-width="1.2" stroke-linecap="round" stroke-linejoin="round"/>
</svg>