<svg width="468" height="351" viewBox="0 0 468 351" fill="none" xmlns="http://www.w3.org/2000/svg">
  <g clip-path="url(#clip0_1447_8176)">
    <rect x="-4" y="-27" width="484" height="409" rx="8" fill="#EAEFF3"/>
    <path d="M-6 31H478" stroke="white"/>
    <path d="M-6 63H478" stroke="white"/>
    <path d="M-6 95H478" stroke="white"/>
    <path d="M-6 127H478" stroke="white"/>
    <path d="M-6 159H478" stroke="white"/>
    <path d="M-6 191H478" stroke="white"/>
    <path d="M-6 223H478" stroke="white"/>
    <path d="M-6 255H478" stroke="white"/>
    <path d="M-6 287H478" stroke="white"/>
    <path d="M-6 319H478" stroke="white"/>
    <path d="M-6 351H478" stroke="white"/>
    <path d="M28 -28V382" stroke="white"/>
    <path d="M58 -28V382" stroke="white"/>
    <path d="M88 -28V382" stroke="white"/>
    <path d="M118 -28V382" stroke="white"/>
    <path d="M148 -28V382" stroke="white"/>
    <path d="M178 -28V382" stroke="white"/>
    <path d="M208 -28V382" stroke="white"/>
    <path d="M238 -28V382" stroke="white"/>
    <path d="M268 -28V382" stroke="white"/>
    <path d="M298 -28V382" stroke="white"/>
    <path d="M328 -28V382" stroke="white"/>
    <path d="M358 -28V382" stroke="white"/>
    <path d="M388 -28V382" stroke="white"/>
    <path d="M418 -28V382" stroke="white"/>
    <path d="M448 -28V382" stroke="white"/>
    <path d="M208 191L238 159L268.5 191L238 223L208 191Z" stroke="white"/>
    <path d="M208 159L148 223" stroke="white"/>
    <path d="M148 223L178 255" stroke="white"/>
    <path d="M178 223L148 255" stroke="white"/>
    <path d="M178 255L118 319" stroke="white"/>
    <path d="M148 159L88 223" stroke="white"/>
    <path d="M58 159L-2 223" stroke="white"/>
    <path d="M58 95L-2 159" stroke="white"/>
    <path d="M118 255L178 319" stroke="white"/>
    <path d="M118 255L88 287" stroke="white"/>
    <path d="M88 255L118 287" stroke="white"/>
    <path d="M28 287L-2 319" stroke="white"/>
    <path d="M-2 287L28 319" stroke="white"/>
    <path d="M28 319L-2 351" stroke="white"/>
    <path d="M88 255L58 287" stroke="white"/>
    <path d="M88 287L58 255L28 223" stroke="white"/>
    <path d="M88 351L58 319L28 287" stroke="white"/>
    <path d="M-2 223L28 255" stroke="white"/>
    <path d="M28 191L58 223" stroke="white"/>
    <path d="M88 191L58 223" stroke="white"/>
    <path d="M28 159L-2 191" stroke="white"/>
    <path d="M88 127L148 191" stroke="white"/>
    <path d="M28 95L88 159" stroke="white"/>
    <path d="M58 159L88 191" stroke="white"/>
    <path d="M118 319L148 351" stroke="white"/>
    <path d="M148 319L118 351" stroke="white"/>
    <path d="M88 319L118 351" stroke="white"/>
    <path d="M418 -33L358 31" stroke="white"/>
    <path d="M358 -33L418 31" stroke="white"/>
    <path d="M268 -1L238 31" stroke="white"/>
    <path d="M238 -1L268 31" stroke="white"/>
    <path d="M268 31L238 63" stroke="white"/>
    <path d="M328 63L298 31L268 -1" stroke="white"/>
    <path d="M358 31L388 63" stroke="white"/>
    <path d="M388 31L358 63" stroke="white"/>
    <path d="M328 31L358 63" stroke="white"/>
    <path d="M508 191L448 255" stroke="white"/>
    <path d="M448 255L478 287" stroke="white"/>
    <path d="M478 255L448 287" stroke="white"/>
    <path d="M478 287L418 351" stroke="white"/>
    <path d="M448 191L388 255" stroke="white"/>
    <path d="M358 191L298 255" stroke="white"/>
    <path d="M358 127L298 191" stroke="white"/>
    <path d="M418 287L478 351" stroke="white"/>
    <path d="M418 287L388 319" stroke="white"/>
    <path d="M388 287L418 319" stroke="white"/>
    <path d="M328 319L298 351" stroke="white"/>
    <path d="M298 319L328 351" stroke="white"/>
    <path d="M328 351L298 383" stroke="white"/>
    <path d="M388 287L358 319" stroke="white"/>
    <path d="M388 319L358 287L328 255" stroke="white"/>
    <path d="M388 383L358 351L328 319" stroke="white"/>
    <path d="M298 255L328 287" stroke="white"/>
    <path d="M328 223L358 255" stroke="white"/>
    <path d="M388 223L358 255" stroke="white"/>
    <path d="M328 191L298 223" stroke="white"/>
    <path d="M388 159L448 223" stroke="white"/>
    <path d="M328 127L388 191" stroke="white"/>
    <path d="M358 191L388 223" stroke="white"/>
    <path d="M418 351L448 383" stroke="white"/>
    <path d="M448 351L418 383" stroke="white"/>
    <path d="M388 351L418 383" stroke="white"/>
    <path d="M238 -1L178 63" stroke="white"/>
    <path d="M178 -1L238 63" stroke="white"/>
    <path d="M178 -1L148 31" stroke="white"/>
    <path d="M148 -1L178 31" stroke="white"/>
    <path d="M88 31L58 63" stroke="white"/>
    <path d="M58 31L88 63" stroke="white"/>
    <path d="M88 63L58 95" stroke="white"/>
    <path d="M148 -1L118 31" stroke="white"/>
    <path d="M148 31L118 -1L88 -33" stroke="white"/>
    <path d="M148 95L118 63L88 31" stroke="white"/>
    <path d="M178 63L208 95" stroke="white"/>
    <path d="M208 63L178 95" stroke="white"/>
    <path d="M148 63L178 95" stroke="white"/>
    <path d="M262.514 72.4017C263.452 73.7504 264.112 75.308 264.411 76.9908H268V81.0932H264.411C264.112 82.776 263.452 84.3335 262.514 85.6823L265.053 88.2279L262.16 91.1287L259.622 88.5831C258.277 89.5236 256.724 90.1853 255.045 90.485V94.084H250.955V90.485C249.276 90.1853 247.723 89.5236 246.378 88.5831L243.84 91.1287L240.947 88.2279L243.486 85.6823C242.548 84.3335 241.888 82.776 241.589 81.0932H238V76.9908H241.589C241.888 75.308 242.548 73.7504 243.486 72.4017L240.947 69.8561L243.84 66.9553L246.378 69.5009C247.723 68.5604 249.276 67.8987 250.955 67.599V64H255.045V67.599C256.724 67.8987 258.277 68.5604 259.622 69.5009L262.16 66.9553L265.053 69.8561L262.514 72.4017Z" fill="#EAEFF3" stroke="white" stroke-linejoin="round"/>
    <path d="M253 82.8022C255.071 82.8022 256.75 81.1186 256.75 79.0417C256.75 76.9649 255.071 75.2812 253 75.2812C250.929 75.2812 249.25 76.9649 249.25 79.0417C249.25 81.1186 250.929 82.8022 253 82.8022Z" fill="#EAEFF3" stroke="white" stroke-linejoin="round"/>
    <path d="M352.514 105.402C353.452 106.75 354.112 108.308 354.411 109.991H358V114.093H354.411C354.112 115.776 353.452 117.334 352.514 118.682L355.053 121.228L352.16 124.129L349.622 121.583C348.277 122.524 346.724 123.185 345.045 123.485V127.084H340.955V123.485C339.276 123.185 337.723 122.524 336.378 121.583L333.84 124.129L330.947 121.228L333.486 118.682C332.548 117.334 331.888 115.776 331.589 114.093H328V109.991H331.589C331.888 108.308 332.548 106.75 333.486 105.402L330.947 102.856L333.84 99.9553L336.378 102.501C337.723 101.56 339.276 100.899 340.955 100.599V97H345.045V100.599C346.724 100.899 348.277 101.56 349.622 102.501L352.16 99.9553L355.053 102.856L352.514 105.402Z" fill="#EAEFF3" stroke="white" stroke-linejoin="round"/>
    <path d="M343 115.802C345.071 115.802 346.75 114.119 346.75 112.042C346.75 109.965 345.071 108.281 343 108.281C340.929 108.281 339.25 109.965 339.25 112.042C339.25 114.119 340.929 115.802 343 115.802Z" fill="#EAEFF3" stroke="white" stroke-linejoin="round"/>
    <path d="M407.029 81.8034C408.905 84.5009 410.224 87.6159 410.822 90.9816H418V99.1864H410.822C410.224 102.552 408.905 105.667 407.029 108.365L412.106 113.456L406.321 119.257L401.243 114.166C398.554 116.047 395.447 117.371 392.091 117.97V125.168H383.909V117.97C380.553 117.371 377.446 116.047 374.757 114.166L369.679 119.257L363.894 113.456L368.971 108.365C367.095 105.667 365.776 102.552 365.178 99.1864H358V90.9816H365.178C365.776 87.6159 367.095 84.5009 368.971 81.8034L363.894 76.7121L369.679 70.9106L374.757 76.0017C377.446 74.1209 380.553 72.7973 383.909 72.1981V65H392.091V72.1981C395.447 72.7973 398.554 74.1209 401.243 76.0017L406.321 70.9106L412.106 76.7121L407.029 81.8034Z" fill="#EAEFF3" stroke="white" stroke-linejoin="round"/>
    <path d="M388 102.604C392.142 102.604 395.5 99.2372 395.5 95.0835C395.5 90.9298 392.142 87.5625 388 87.5625C383.858 87.5625 380.5 90.9298 380.5 95.0835C380.5 99.2372 383.858 102.604 388 102.604Z" fill="#EAEFF3" stroke="white" stroke-linejoin="round"/>
    <path d="M202.514 297.402C203.452 298.75 204.112 300.308 204.411 301.991H208V306.093H204.411C204.112 307.776 203.452 309.334 202.514 310.682L205.053 313.228L202.16 316.129L199.622 313.583C198.277 314.524 196.724 315.185 195.045 315.485V319.084H190.955V315.485C189.276 315.185 187.723 314.524 186.378 313.583L183.84 316.129L180.947 313.228L183.486 310.682C182.548 309.334 181.888 307.776 181.589 306.093H178V301.991H181.589C181.888 300.308 182.548 298.75 183.486 297.402L180.947 294.856L183.84 291.955L186.378 294.501C187.723 293.56 189.276 292.899 190.955 292.599V289H195.045V292.599C196.724 292.899 198.277 293.56 199.622 294.501L202.16 291.955L205.053 294.856L202.514 297.402Z" fill="#EAEFF3" stroke="white" stroke-linejoin="round"/>
    <path d="M193 307.802C195.071 307.802 196.75 306.119 196.75 304.042C196.75 301.965 195.071 300.281 193 300.281C190.929 300.281 189.25 301.965 189.25 304.042C189.25 306.119 190.929 307.802 193 307.802Z" fill="#EAEFF3" stroke="white" stroke-linejoin="round"/>
    <path d="M292.514 328.402C293.452 329.75 294.112 331.308 294.411 332.991H298V337.093H294.411C294.112 338.776 293.452 340.334 292.514 341.682L295.053 344.228L292.16 347.129L289.622 344.583C288.277 345.524 286.724 346.185 285.045 346.485V350.084H280.955V346.485C279.276 346.185 277.723 345.524 276.378 344.583L273.84 347.129L270.947 344.228L273.486 341.682C272.548 340.334 271.888 338.776 271.589 337.093H268V332.991H271.589C271.888 331.308 272.548 329.75 273.486 328.402L270.947 325.856L273.84 322.955L276.378 325.501C277.723 324.56 279.276 323.899 280.955 323.599V320H285.045V323.599C286.724 323.899 288.277 324.56 289.622 325.501L292.16 322.955L295.053 325.856L292.514 328.402Z" fill="#EAEFF3" stroke="white" stroke-linejoin="round"/>
    <path d="M283 338.802C285.071 338.802 286.75 337.119 286.75 335.042C286.75 332.965 285.071 331.281 283 331.281C280.929 331.281 279.25 332.965 279.25 335.042C279.25 337.119 280.929 338.802 283 338.802Z" fill="#EAEFF3" stroke="white" stroke-linejoin="round"/>
    <path d="M257.029 273.803C258.905 276.501 260.224 279.616 260.822 282.982H268V291.186H260.822C260.224 294.552 258.905 297.667 257.029 300.365L262.106 305.456L256.321 311.257L251.243 306.166C248.554 308.047 245.447 309.371 242.091 309.97V317.168H233.909V309.97C230.553 309.371 227.446 308.047 224.757 306.166L219.679 311.257L213.894 305.456L218.971 300.365C217.095 297.667 215.776 294.552 215.178 291.186H208V282.982H215.178C215.776 279.616 217.095 276.501 218.971 273.803L213.894 268.712L219.679 262.911L224.757 268.002C227.446 266.121 230.553 264.797 233.909 264.198V257H242.091V264.198C245.447 264.797 248.554 266.121 251.243 268.002L256.321 262.911L262.106 268.712L257.029 273.803Z" fill="#EAEFF3" stroke="white" stroke-linejoin="round"/>
    <path d="M238 294.604C242.142 294.604 245.5 291.237 245.5 287.083C245.5 282.93 242.142 279.562 238 279.562C233.858 279.562 230.5 282.93 230.5 287.083C230.5 291.237 233.858 294.604 238 294.604Z" fill="#EAEFF3" stroke="white" stroke-linejoin="round"/>
    <path d="M100 63H110.362C114.524 63 117.898 66.2747 117.898 70.3143V95C117.898 91.9703 115.367 89.5143 112.246 89.5143H100V63Z" fill="#EAEFF3" stroke="white" stroke-linejoin="round"/>
    <path d="M135.796 63H125.434C121.272 63 117.898 66.2747 117.898 70.3143V95C117.898 91.9703 120.428 89.5143 123.55 89.5143H135.796V63Z" fill="#EAEFF3" stroke="white" stroke-linejoin="round"/>
    <path d="M10 -1H20.3619C24.5239 -1 27.8978 2.2747 27.8978 6.31429V31C27.8978 27.9703 25.3674 25.5143 22.2459 25.5143H10V-1Z" fill="#EAEFF3" stroke="white" stroke-linejoin="round"/>
    <path d="M45.7957 -1H35.4338C31.2718 -1 27.8978 2.2747 27.8978 6.31429V31C27.8978 27.9703 30.4283 25.5143 33.5498 25.5143H45.7957V-1Z" fill="#EAEFF3" stroke="white" stroke-linejoin="round"/>
    <path d="M252.25 374.999H240.25C239.007 374.999 238 373.992 238 372.749V353.25C238 352.007 239.007 351 240.25 351H265.749C266.992 351 267.999 352.007 267.999 353.25V364.411" fill="#EAEFF3"/>
    <path d="M252.25 374.999H240.25C239.007 374.999 238 373.992 238 372.749V353.25C238 352.007 239.007 351 240.25 351H265.749C266.992 351 267.999 352.007 267.999 353.25V364.411" stroke="white" stroke-linecap="round" stroke-linejoin="round"/>
    <path d="M238 353.25C238 352.007 239.007 351 240.25 351H265.749C266.992 351 267.999 352.007 267.999 353.25V360H238V353.25Z" fill="#EAEFF3" stroke="white"/>
    <path d="M93.5088 191.056L102.074 168.216" stroke="white" stroke-linecap="round" stroke-linejoin="round"/>
    <path d="M112.743 191.056L104.178 168.216" stroke="white" stroke-linecap="round" stroke-linejoin="round"/>
    <path d="M103.126 168.616C104.896 168.616 106.331 167.181 106.331 165.411C106.331 163.64 104.896 162.205 103.126 162.205C101.355 162.205 99.9199 163.64 99.9199 165.411C99.9199 167.181 101.355 168.616 103.126 168.616Z" fill="#EAEFF3" stroke="white" stroke-linecap="round" stroke-linejoin="round"/>
    <path d="M114.001 182.241C110.869 184.269 107.135 185.447 103.125 185.447C99.1163 185.447 95.3821 184.269 92.25 182.241" stroke="white" stroke-linecap="round" stroke-linejoin="round"/>
    <path d="M103.125 162.206V159" stroke="white" stroke-linecap="round" stroke-linejoin="round"/>
    <path d="M393.259 351.056L401.824 328.216" stroke="white" stroke-linecap="round" stroke-linejoin="round"/>
    <path d="M412.493 351.056L403.928 328.216" stroke="white" stroke-linecap="round" stroke-linejoin="round"/>
    <path d="M402.876 328.616C404.646 328.616 406.081 327.181 406.081 325.411C406.081 323.64 404.646 322.205 402.876 322.205C401.105 322.205 399.67 323.64 399.67 325.411C399.67 327.181 401.105 328.616 402.876 328.616Z" fill="#EAEFF3" stroke="white" stroke-linecap="round" stroke-linejoin="round"/>
    <path d="M413.751 342.241C410.619 344.269 406.885 345.447 402.875 345.447C398.866 345.447 395.132 344.269 392 342.241" stroke="white" stroke-linecap="round" stroke-linejoin="round"/>
    <path d="M402.875 322.206V319" stroke="white" stroke-linecap="round" stroke-linejoin="round"/>
    <path d="M433 143C437.142 143 440.5 139.642 440.5 135.5C440.5 131.358 437.142 128 433 128V143Z" stroke="white" stroke-linejoin="round"/>
    <path d="M433 143C433 147.142 436.358 150.5 440.5 150.5C444.642 150.5 448 147.142 448 143H433Z" stroke="white" stroke-linejoin="round"/>
    <path d="M433 143C433 138.858 429.642 135.5 425.5 135.5C421.358 135.5 418 138.858 418 143H433Z" stroke="white" stroke-linejoin="round"/>
    <path d="M433 143C428.858 143 425.5 146.358 425.5 150.5C425.5 154.642 428.858 158 433 158V143Z" stroke="white" stroke-linejoin="round"/>
    <path d="M358 168.5L350.5 161L347.688 163.812L344.875 166.625L339.25 172.25L333.625 177.875L330.812 180.688L328 183.5L335.5 191L358 168.5Z" stroke="white" stroke-linecap="round" stroke-linejoin="round"/>
    <path d="M347.688 163.812L330.812 180.688" stroke="white" stroke-linecap="round" stroke-linejoin="round"/>
    <path d="M331.75 179.75L334.75 182.75" stroke="white" stroke-linecap="round" stroke-linejoin="round"/>
    <path d="M335.5 176L340 180.5" stroke="white" stroke-linecap="round" stroke-linejoin="round"/>
    <path d="M339.25 172.25L342.25 175.25" stroke="white" stroke-linecap="round" stroke-linejoin="round"/>
    <path d="M343 168.5L347.5 173" stroke="white" stroke-linecap="round" stroke-linejoin="round"/>
    <path d="M346.75 164.75L349.75 167.75" stroke="white" stroke-linecap="round" stroke-linejoin="round"/>
  </g>
  <defs>
    <clipPath id="clip0_1447_8176">
      <rect x="-4" y="-27" width="484" height="409" rx="8" fill="white"/>
    </clipPath>
  </defs>
</svg>
