<svg xmlns="http://www.w3.org/2000/svg" width="472" height="348" viewBox="0 0 472 348" fill="none">
  <path d="M315.77 186.17C310.17 183.5 302.56 184.2 296.47 184.29C295.57 185.44 294.66 186.49 293.59 187.5C300.18 186.05 308.78 185.85 315.31 187.5C316.22 187.87 317.59 188.32 318.36 188.87C319.59 189.75 320.31 192.02 319.77 193.91C319.48 194.95 318.67 195.68 317.74 196.13C313.12 198.4 304.96 195.25 299.7 197.59C295.37 199.51 289.56 210.89 286.98 214.95C284.32 219.12 281.48 223.71 277.95 227.2C277.9 232.65 277.35 238.05 277.51 243.52C277.59 246.16 277.79 249 278.12 251.62C278.28 252.93 278.68 254.19 278.77 255.5C278.81 256.12 278.76 256.62 278.57 257.21L278.19 257.53C277.63 257.41 277.4 257.28 277.05 256.81C274.33 253.15 275.16 233.09 275.84 228.19C275.88 227.9 275.92 228.04 275.67 227.8C273.81 227.92 271.95 228.02 270.08 228.06C270.2 231.03 269.95 234 269.91 236.98C269.83 241.88 270.05 247.01 270.74 251.87C270.94 253.27 271.07 254.78 271.46 256.14C271.59 256.62 271.51 257.1 271.24 257.52C270.97 257.94 270.83 257.98 270.39 258.15C269.7 257.83 269.45 257.55 269.18 256.81C267.16 251.28 267.41 233.65 267.97 227.62C264.57 224.39 262.43 216.6 261.51 212C256 213.28 252.2 213.7 246.51 213.17L246.21 212.94C246.15 212.93 246.09 212.93 246.03 212.92C244.61 212.72 243.29 212.15 241.88 211.87C240.16 213.36 239.97 217.91 239.8 220.14C239.57 223.31 239.45 226.97 240.23 230.06C236.23 234.22 232.06 238.19 228.24 242.53C225.02 246.17 222.12 250.13 219.07 253.91C218.07 255.15 216.43 256.35 215.77 257.77C215.81 259 216.09 260.24 216.49 261.41C217.92 268.57 219.09 275.87 220.72 282.98C225.88 278.47 229.48 276.11 236.44 275.31C236.3 269.72 236.9 264.15 237.24 258.57C237.43 255.56 237.29 252.22 237.89 249.27C238.33 248.83 238.39 248.79 239.01 248.66C239.5 248.96 239.77 249.12 239.87 249.72C240.16 251.33 239.8 253.5 239.71 255.16C239.35 261.71 238.37 268.43 238.54 274.98C247.14 275.21 255.58 274.75 263.96 277.16C265.29 275.51 267.05 274.45 268.83 273.36C274.86 269.68 281.31 267.34 288.34 266.55C294.95 265.81 300.71 267.23 307.16 268.33C311.13 269.02 315.14 269.52 319.13 270.1C318.85 268.22 318.6 266.32 318.14 264.47C317.61 262.31 315.88 259.62 316.35 257.39L316.69 257.13C317.7 257.48 318.25 258.41 318.7 259.33C319.73 261.41 320.19 263.85 320.53 266.13C322.82 261.78 324.39 257.64 325.56 252.85C326.02 250.98 326.39 249.09 326.67 247.18C327.06 244.47 328.36 230.25 330.47 229.39C330.96 229.71 331.04 229.91 331.14 230.5C331.24 231.11 331.19 231.79 331.12 232.4C330.76 235.31 329.93 238.17 329.5 241.08C328.97 244.67 328.8 248.33 328.06 251.89C327.51 254.47 326.76 257.11 325.9 259.61C324.62 263.34 322.38 266.69 321.08 270.43C323.83 270.94 338.11 275.87 339.49 277.66C339.63 277.84 339.69 278.02 339.77 278.23C339.61 278.79 339.57 278.85 339.13 279.24C337.94 279.21 328 274.65 325.68 273.9C320.4 272.17 314.68 271.56 309.2 270.71C304.55 270 299.83 268.77 295.14 268.52C286.88 268.09 273.05 271.47 266.99 277.31C266.83 277.46 266.69 277.61 266.54 277.77C271.26 279.29 276.06 281.18 278.46 285.84C280.72 290.21 279.93 294.88 280.02 299.56C283.15 299.38 286.93 298.69 289.47 301.01C290.77 302.2 291.28 303.89 291.3 305.6C291.32 307.89 290.41 310.53 288.77 312.17C288.32 312.62 287.83 313.03 287.35 313.45C286.56 313.62 285.78 313.77 285.01 314.01L186.29 314.12C162.81 314.22 139.29 314.5 115.82 314.2C111.85 314.15 107.97 313.63 104.04 313.51C98.53 313.33 92.99 313.57 87.47 313.41C86.05 313.37 113.09 300.27 112.42 300.27C111.42 300.27 110.59 300.27 109.53 300.27C107.75 300.27 104.83 300.41 103.09 300.41C99.69 300.42 96.96 300.08 93.57 299.95C92.88 299.92 92.22 299.72 91.59 299.41C91.24 298.93 91.19 298.75 91.19 298.16C91.96 297.39 93.51 297.51 94.53 297.52C98.18 297.54 106.46 298.28 109.53 297.78C107.74 297.24 100.05 310.96 99.05 309.2C97.32 306.13 96.37 302.82 95.57 299.41C93.89 292.19 96.88 294.74 95.57 287.43C94.15 279.5 116.16 315.41 114.59 307.5C168.53 277.1 174.23 268.52 214.93 255.41C218.22 251.76 221.09 247.74 224.25 243.98C228.47 238.96 233.13 234.03 237.91 229.54C237.54 223.15 237.04 216.6 240.1 210.72C232.91 207.5 227.31 201.53 224.55 194.17C223.56 191.57 222.86 188.88 222.45 186.14C221.85 181.84 222.05 177.52 222 173.19C221.92 166.6 221.25 160.18 222.66 153.65C219 155.38 214.51 157.41 210.43 155.9C209.14 155.43 208.11 154.57 207.53 153.31C206.59 151.28 207.14 148.74 207.95 146.77C209.29 143.47 211.91 140.54 214.54 138.17C212.52 138 210.84 137.48 209.49 135.86C208.75 134.97 208.18 133.89 207.66 132.85C208.12 129.21 209.17 127 212.14 124.71C214.36 123.01 216.99 121.78 219.68 121.06C228.21 118.75 235.28 122.57 243.33 121.26C241.13 120.32 236.83 120.38 235.76 117.88C235.39 117.01 235.51 116.08 235.88 115.24C236.68 113.47 238.75 112.14 240.54 111.51C242.09 110.96 243.79 110.73 245.41 110.49C251.25 109.61 256.48 109.74 261.86 112.41C266.12 114.54 269.28 118.26 273 121.16C278.21 117.78 284.23 115.69 290.47 116.99C292.64 117.44 295.33 118.69 296.55 120.64C296.95 121.27 297.19 122.02 297.48 122.7C296.83 125.91 296.2 126.35 293.74 128.31C298.27 129.25 302.67 131.89 305.27 135.8C306.75 138.05 307.66 141.01 307.05 143.7C306.5 146.15 304.66 147.67 302.61 148.93C301.97 149.33 301.32 149.64 300.62 149.91C301.78 154.52 301.3 158.24 298.84 162.31C297.65 164.29 296.38 166.22 295.2 168.21C297.64 172.35 298.13 177.68 297.17 182.35C306.3 181.67 316.39 182.31 323.66 188.5C327.27 191.58 329.85 195.54 330.16 200.35C330.28 202.29 329.94 204.28 329.43 206.15C330.56 207.02 336.63 207.34 338.43 207.65C345.87 208.92 354.78 211.75 360.33 217.02C362.75 219.32 364.73 222.27 366.46 225.11C368.79 228.95 370.67 233.67 371.28 238.11C371.71 241.25 372.24 244.02 372.45 247.18C372.68 250.83 372.59 254.84 372.45 258.51C371.93 271.24 367.41 294.59 359.73 304.7C357.77 307.29 354.25 310.86 351.07 311.91C356.73 312.26 362.4 312.29 368.06 312.4C373.05 312.49 378.02 312.68 383.01 312.63C382.95 312.55 381.06 311.58 381 311.5C378.5 309.5 378.46 309.42 376.54 306.67C372 300.2 373.13 283.76 373.13 275.43C373.19 274.75 373.24 274.08 373.61 273.49C376.17 272.52 407.22 272.76 411.46 273.05C412.64 273.13 413.92 273.28 415.01 273.79C416.42 274.44 417.73 275.96 418.25 277.44C418.27 277.51 418.3 277.59 418.32 277.67C421.98 277.68 426.03 277.98 428.78 280.68C430.48 282.34 431.56 284.62 431.53 287C431.5 289.39 430.41 291.54 428.69 293.17C426.33 295.42 422.23 297.26 418.92 297.05C418.66 297.03 418.48 296.95 418.23 296.88C418.08 296.84 417.92 296.81 417.76 296.77C416.66 297.99 416.24 299.71 415.67 301.22C413.82 306.12 410.71 310.42 405.77 312.56L414.39 312.64C415.94 312.64 417.59 312.48 419.12 312.65C419.75 312.72 420.03 312.82 420.5 313.21C420.38 313.72 420.36 313.79 419.91 314.08C419.35 314.44 418.58 314.58 417.92 314.61C416.4 314.69 414.83 314.49 413.31 314.48C409.7 314.45 406.09 314.53 402.49 314.56C384 314.69 365.55 314.22 347.06 314.01C346.53 313.69 346.46 313.73 346.28 313.11C346.67 312.18 347.99 311.47 348.75 310.82C350.31 310.2 352.14 308.94 353.48 307.92C365.02 299.18 368.19 275.66 370.01 262.24C370.59 257.91 370.67 253.47 370.44 249.15C370.22 245.06 369.79 241.11 369.05 237.09C368.06 231.77 365.02 226.05 361.73 221.78C354.56 212.48 343.45 210.26 332.51 208.78C330.55 208.2 328.49 208.36 326.47 208.12C325.54 208.01 324.04 207.75 323.44 206.97C323.51 206.59 323.43 206.58 323.78 206.33C324.74 205.63 326.02 206.07 327.08 206.27C327.89 203.81 328.3 201.43 327.85 198.85C327.12 194.69 324.49 191.39 321.09 189.02C319.38 187.73 317.74 186.97 315.77 186.17ZM225.38 121.81C220.75 122.34 214.26 124.49 211.28 128.22C210.41 129.32 209.85 130.66 209.99 132.09C210.12 133.34 210.86 134.43 211.86 135.18C212.9 135.96 214.29 136.39 215.59 136.19C216.79 136.01 218.26 135.26 219.02 134.29C217.14 134.45 215.65 134.91 213.77 134.35C213.09 133.25 212.51 132.43 212.82 131.08C213.38 128.68 215.78 126.94 217.81 125.78C220.04 124.5 222.63 123.44 225.09 122.71C226.24 122.37 228.45 122.47 229.37 121.89C228.08 121.67 226.67 121.54 225.38 121.81ZM290.71 130.02L289.83 131.01L289.99 131.26L290.28 131.29C294.04 131.7 298.24 133.06 300.65 136.12C302.09 137.95 303.2 140.6 302.93 142.96C302.79 144.27 301.6 145.64 301.84 146.88C302.01 146.88 302.25 146.93 302.4 146.86C303.93 145.5 304.89 143.99 304.99 141.9C305.1 139.35 303.81 137.05 302.11 135.24C299.52 132.49 295.05 130.11 291.21 130.05C291.03 130.05 290.89 130.07 290.71 130.02ZM222.41 134.51C222.36 134.56 222.31 134.61 222.27 134.66C221.05 135.91 219.55 136.93 218.18 138.01C213.35 141.82 210.16 145.48 209.11 151.65C210.01 153 210.78 153.93 212.48 154.25C214.64 154.65 217.08 153.7 219.12 153.05C219.73 152.68 220.35 152.32 220.94 151.92C218.74 152.68 215.28 153.83 213.04 152.73C212.42 152.43 212.02 151.94 211.85 151.28C211.35 149.34 212.25 146.93 213.28 145.32C214.42 143.54 215.9 141.79 217.33 140.24C218.47 139.02 222.43 136 222.92 134.74C222.74 134.64 222.61 134.54 222.41 134.51ZM256.32 143.05C253.27 144.68 251.18 147.15 248.53 149.31C244.57 152.56 237.08 156.82 231.99 157.12C230.73 156.58 229.69 156.06 229.16 154.69C228.7 153.51 229.07 152.2 229.62 151.12C230.91 148.56 233.24 146.74 234.75 144.34C232.37 146.18 226.62 149.39 225.39 151.63C224.66 152.96 224.42 154.6 224.23 156.08C223.57 161.12 223.89 166.2 223.99 171.26C224.22 182.37 223.54 191.48 230.87 200.9C235.46 206.69 242.16 210.44 249.5 211.32C254.74 211.93 261.03 210.51 265.53 207.67C266.81 206.87 267.99 205.56 269.41 205.04C269.92 204.86 270.46 205.12 270.85 205.43C270.97 205.88 271.02 205.99 270.75 206.41C269.87 207.8 265.11 210.42 263.54 211.25C264.3 213.93 265.07 216.6 265.95 219.24C266.7 221.34 267.63 224.54 269.81 225.6C271.97 226.65 274.5 225.48 276.7 225.12C282.2 219.76 288.34 209.31 291.99 202.43C288.6 200.89 286.41 199.07 285.08 195.51C284.59 194.19 284.2 192.83 283.83 191.48C282.85 191.24 281.92 191.07 281.09 190.47L280.81 189.99L280.98 189.46C282.16 188.87 284.11 189.12 285.44 189C289.76 188.62 293.54 185.93 294.89 181.77C296.11 178 295.63 173.16 293.75 169.68C292.97 168.22 291.78 166.95 290.71 165.69C287.38 164.46 283.25 163.99 279.94 165.56C279.13 165.94 278.44 166.53 277.82 167.18C276.69 166.96 275.52 166.78 274.44 166.38C271.71 161.99 272.21 153.91 270.06 148.87C270.01 148.76 269.96 148.63 269.92 148.52L269.83 148.3C265.97 151.24 260.94 155.57 255.71 154.82C254.17 154.6 252.62 153.82 251.7 152.55C251.52 152.31 251.35 152.06 251.18 151.8C251.44 148.24 253.27 146.61 255.87 144.36C256.25 144.04 256.63 143.72 257.02 143.41L257 143.09L256.32 143.05ZM296.93 148.05C297.49 153.65 297.96 158.06 294.14 162.71C293.64 163.32 293.14 163.86 292.83 164.61L293.02 164.92C293.39 164.87 293.72 164.82 294.07 164.7C296.71 162.87 298.24 159.37 298.79 156.28C299.24 153.71 299.2 150.83 297.89 148.5C297.55 148.25 297.36 148.11 296.93 148.05ZM100.63 299.01C100.15 297.11 101.05 300.93 100.63 299.01C101.21 301.31 102.25 303.73 104.04 305.35C105.38 306.57 81.31 306.72 83.09 306.95C87.68 307.56 82.89 306.89 87.51 306.95C96.59 307.5 110.79 307.6 122.44 307.52C135.13 307.81 147.83 307.67 160.51 307.92C163.17 307.97 165.88 307.94 168.53 308.15C170.43 308.3 172.32 308.65 174.23 308.67C180.1 308.7 186 308.37 191.88 308.35L204.35 308.38C206.85 308.39 209.65 308.62 212.11 308.18C213.06 308.01 213.8 307.39 214.48 306.74C215.98 305.28 216.74 303.42 216.74 301.33C216.75 297.86 219.1 275.23 218.46 271.82C216.85 263.35 212.76 279.74 211.05 271.28C122.44 290.32 157.98 287.45 100.63 299.01ZM388.69 275.02C384.21 275.09 379.79 274.97 375.31 275.28C375.36 275.37 375.31 275.48 375.31 275.58C375.31 277.11 375.31 280.14 375.32 281.68C375.31 292 373.93 306.28 385.26 310.9C389.1 312.46 398.39 313.77 402.2 311.72C402.27 311.69 402.33 311.64 402.4 311.59C406.44 310.5 410.02 307.45 412.1 303.87C413.36 301.65 414.34 299.29 415.01 296.83C416.16 292.63 417.45 282.67 416.27 278.55C415.97 277.49 415.43 276.33 414.44 275.75C412.19 274.44 392.49 275.01 388.69 275.02ZM243.19 277.1C235.58 277.27 229.2 277.65 223.56 283.52C222.81 284.29 222.15 285.15 221.42 285.93L221.82 289.3C227.24 284.89 235.26 278.41 242.7 279.08C243.39 279.14 243.6 279.28 244.11 279.74L244.3 280.31C243.93 280.8 243.63 280.92 243.02 281.02C241.88 281.19 240.65 281.08 239.53 281.36C233.49 282.89 226.71 287.78 222.5 292.24C222.52 293.2 222.61 293.93 223.04 294.79C225.28 293.9 226.85 288.4 233.22 287.06C235.85 286.51 238.4 287.33 241.01 286.99C242.97 286.73 246.56 285.73 248.38 286.61C249.3 287.05 251.41 288.28 251 289.85C250.97 289.99 251.13 289.8 250.89 290.2C250.68 290.56 250.38 290.81 249.97 290.93C249.65 291.01 249.2 290.93 249.09 290.82C248.48 290.36 248.47 289.69 248 289.15C247.57 288.66 247.12 288.38 246.45 288.38C245.51 288.37 244.51 288.8 243.63 289.11C239.12 290.69 235.68 293.13 232.42 296.62C231.83 297.25 231.27 297.84 231.3 298.76C231.6 299.04 231.64 299.12 232.08 299.1C234.27 298.96 236.77 295.94 238.52 294.73C240.57 293.32 244.2 291.89 246.71 291.83C249.75 291.77 253 294.07 255.88 295.05C256.56 295.27 257.23 295.29 257.92 295.44C259.3 295.77 260.64 296.28 262.06 296.57C262.81 296.73 263.55 296.7 264.3 296.83C266.32 297.2 268.08 297.86 270.17 297.91C272.74 297.98 275.16 297.58 277.7 297.42C277.82 292.7 278.03 288.19 274.57 284.51C268.52 278.06 253.38 277.33 245.09 277.14C244.46 277.13 243.81 277.17 243.19 277.1ZM418.38 279.85L418.62 281.14C419.3 281.44 420.11 281.43 420.83 281.62C422.74 282.11 424.35 283.46 425.09 285.32C425.62 286.64 425.38 288.41 424.78 289.63C424.63 289.95 424.49 290.2 424.25 290.45C423.87 291.28 422.77 291.91 421.94 292.22C420.53 292.74 418.61 292.64 417.76 294.01C418.07 294.51 418.28 294.63 418.87 294.77C419.47 294.92 420.76 294.68 421.35 294.48C423.94 294 426.69 292.8 428.23 290.57C429.22 289.16 429.62 287.46 429.27 285.76C428.89 283.85 427.7 282.25 426.07 281.2C423.68 279.65 421.13 279.55 418.38 279.85ZM418.58 283.76C418.59 283.81 418.61 283.87 418.62 283.92C418.62 285.76 418.59 288.32 418.86 291.06C419.25 291.25 419.37 291.34 419.81 291.17C420.21 291.01 420.72 290.81 421 290.5C421.89 290.15 422.77 289.36 423.18 288.48C423.55 287.68 423.53 286.82 423.17 286.02C422.71 284.99 421.83 284.21 420.76 283.86C420.02 283.62 419.33 283.67 418.58 283.76ZM234.71 288.99C230.84 290.2 226.16 293.67 224.27 297.37C224.03 297.86 224.03 298.02 224.08 298.56C224.71 298.96 225.05 298.94 225.76 298.78C226.09 298.7 226.43 298.62 226.76 298.53C226.95 298.5 227.17 298.53 227.34 298.44C228.09 298.07 229.35 296.3 230.02 295.65C232.25 293.49 234.74 291.04 237.37 289.41C237.61 289.26 237.85 289.12 238.09 288.98L234.71 288.99ZM246.31 294.54C242.34 295.08 239.81 297.13 236.6 299.33C243.01 299.31 249.47 299.5 255.89 299.58L265.25 299.71C262.1 298.97 258.9 298.29 255.83 297.26C253.33 296.43 250.8 295.23 248.25 294.61C247.65 294.46 246.91 294.39 246.31 294.54ZM284.92 301.72C279.15 302.05 273.26 301.8 267.48 301.82L230.89 301.77C232.33 303.31 233.55 304.72 233.44 306.98C233.34 308.82 232.43 310.32 231.53 311.88C232.44 311.86 233.36 311.8 234.26 311.87C245.86 311.36 257.61 311.71 269.23 311.7C274.38 311.69 279.71 312 284.82 311.37C285.89 311.24 286.64 310.95 287.59 310.46C288.77 308.94 289.35 307.29 289.12 305.35C288.99 304.27 288.51 303.22 287.65 302.53C286.83 301.89 285.93 301.77 284.92 301.72ZM223.85 301.89C223.58 306.68 222.14 308.76 218.63 311.94L226.62 311.95C227.23 311.86 227.87 311.8 228.48 311.67C230.35 309.39 232.29 307.02 230.16 304.04C229.42 303.01 227.97 302.14 226.71 301.93C225.82 301.78 224.76 301.88 223.85 301.89Z" fill="#2D2B38"/>
  <path d="M218.93 134.47C218.17 135.44 216.7 136.19 215.5 136.37C214.2 136.57 212.81 136.14 211.76 135.36C210.77 134.61 210.03 133.53 209.9 132.27C209.75 130.84 210.31 129.5 211.19 128.4C214.16 124.67 220.66 122.52 225.29 121.99C226.57 121.72 227.99 121.85 229.27 122.08C228.35 122.65 226.14 122.56 225 122.89C222.53 123.63 219.95 124.68 217.72 125.96C215.69 127.12 213.28 128.86 212.73 131.27C212.42 132.61 213 133.44 213.68 134.53C215.56 135.09 217.04 134.63 218.93 134.47Z" fill="#FEFEFE"/>
  <path d="M302.31 147.04C302.15 147.11 301.92 147.07 301.75 147.06C301.51 145.82 302.7 144.46 302.84 143.14C303.1 140.78 302 138.13 300.56 136.31C298.15 133.24 293.94 131.89 290.19 131.47L289.89 131.44L289.74 131.19L290.62 130.21C290.8 130.25 290.93 130.23 291.12 130.24C294.95 130.29 299.43 132.68 302.02 135.43C303.72 137.23 305.01 139.54 304.89 142.09C304.8 144.17 303.83 145.68 302.31 147.04Z" fill="#FEFEFE"/>
  <path d="M209.01 151.84C210.07 145.66 213.25 142 218.08 138.19C219.45 137.11 220.96 136.09 222.17 134.84C222.22 134.79 222.27 134.74 222.31 134.69C222.51 134.73 222.65 134.82 222.82 134.93C222.33 136.19 218.38 139.2 217.24 140.42C215.81 141.97 214.32 143.73 213.19 145.5C212.16 147.12 211.25 149.52 211.75 151.46C211.93 152.13 212.33 152.61 212.95 152.92C215.18 154.02 218.65 152.86 220.85 152.1C220.25 152.5 219.63 152.86 219.03 153.23C216.99 153.89 214.55 154.83 212.39 154.43C210.69 154.11 209.91 153.18 209.01 151.84Z" fill="#FEFEFE"/>
  <path d="M231.89 157.3C236.98 157 244.47 152.74 248.44 149.5C251.08 147.33 253.17 144.87 256.23 143.24L256.91 143.27L256.92 143.6C256.54 143.91 256.15 144.22 255.78 144.55C253.18 146.79 251.34 148.42 251.09 151.99C251.25 152.24 251.43 152.49 251.6 152.74C252.52 154.01 254.07 154.78 255.61 155C260.84 155.75 265.88 151.42 269.74 148.49L269.82 148.7C269.87 148.82 269.91 148.94 269.96 149.06C272.11 154.09 271.62 162.17 274.35 166.56C275.43 166.96 276.6 167.14 277.73 167.37C278.35 166.71 279.03 166.13 279.85 165.74C283.16 164.18 287.29 164.64 290.61 165.87C291.69 167.13 292.87 168.4 293.66 169.86C295.54 173.34 296.01 178.18 294.79 181.95C293.44 186.11 289.67 188.8 285.35 189.18C284.01 189.3 282.06 189.05 280.89 189.64L280.71 190.17L281 190.66C281.83 191.25 282.76 191.42 283.74 191.66C284.11 193.02 284.5 194.37 284.99 195.69C286.31 199.25 288.5 201.07 291.9 202.61C288.25 209.5 282.1 219.95 276.6 225.3C274.41 225.66 271.88 226.83 269.72 225.78C267.54 224.72 266.61 221.53 265.85 219.42C264.98 216.78 264.21 214.11 263.45 211.44C265.01 210.61 269.77 207.99 270.66 206.6C270.93 206.18 270.87 206.06 270.76 205.61C270.37 205.3 269.83 205.04 269.31 205.22C267.89 205.74 266.71 207.05 265.44 207.86C260.94 210.69 254.64 212.11 249.41 211.5C242.06 210.62 235.36 206.88 230.78 201.08C223.45 191.66 224.13 182.55 223.9 171.44C223.79 166.38 223.48 161.3 224.13 156.26C224.32 154.78 224.56 153.14 225.29 151.81C226.53 149.57 232.28 146.36 234.66 144.52C233.15 146.92 230.81 148.74 229.53 151.3C228.98 152.38 228.61 153.69 229.06 154.87C229.59 156.24 230.63 156.77 231.89 157.3ZM286.77 177.06C286.69 176.12 286.54 175.42 285.92 174.67C285.4 174.03 284.58 173.48 283.73 173.49C282.97 173.5 282.49 173.93 281.99 174.47C281.59 174.92 281.45 175.14 281.52 175.72C282.49 176.38 283.62 175.79 284.58 176.38C284.27 177.85 282.64 177.97 282.66 179.53C283.09 180.01 283.59 180.33 284.27 180.32C284.92 180.31 285.64 179.63 286 179.15C286.45 178.56 286.63 177.78 286.77 177.06ZM255.79 158.56C254.31 158.78 252.69 158.88 251.49 159.85C251.31 160.47 251.37 160.52 251.58 161.1L251.99 161.43C255.7 160.86 258.55 160.26 262.14 161.65C262.96 162.15 263.7 162.73 264.69 162.65L265.24 162.35C265.35 161.79 265.33 161.56 265.01 161.06C264.01 159.51 261.87 159 260.16 158.76C258.71 158.55 257.15 158.78 255.79 158.56ZM231.21 160.12C229.49 160.56 226.94 160.89 225.95 162.54C225.92 162.6 225.89 162.67 225.86 162.73C226 162.91 226.02 163.04 226.25 163.08C228.41 163.39 230.33 161.82 232.36 161.99L232.65 162.03C234.08 162.24 235.87 163.32 237.21 162.69C237.48 162.18 237.48 162.13 237.42 161.55C236.32 160.37 233.89 160.13 232.34 160.08C231.95 160.06 231.59 160.08 231.21 160.12ZM255.37 170.06C254.49 170.14 253.6 170.12 253 170.87C252.44 171.58 252.22 172.54 252.35 173.43C252.52 174.56 253.21 175.9 254.16 176.58C254.85 177.07 255.73 177.14 256.55 177.24C257.56 176.72 258.11 176.22 258.46 175.11C258.81 174.01 258.78 172.61 258.21 171.59C257.77 170.81 257.02 170.32 256.16 170.13C255.9 170.08 255.64 170.03 255.37 170.06ZM231.52 170.43C230.73 170.97 230.28 171.31 230.08 172.28C229.86 173.36 230.17 174.71 230.51 175.73C231.51 176.68 232.49 177.54 233.95 177.57C234.33 177.57 234.71 177.52 235.09 177.47C236.01 176.77 236.7 176.17 236.89 174.96C237.05 173.91 236.7 172.92 236.03 172.12C235.19 171.09 233.95 170.41 232.62 170.36C232.24 170.34 231.89 170.38 231.52 170.43ZM241.8 171.68C240.48 174.07 241.88 179.2 241.73 181.99C241.63 183.82 238.93 185.91 239.62 187.69C239.84 188.27 240.31 188.53 240.86 188.74C242.12 189.22 243.54 189.3 244.87 189.44C245.15 188.82 245.28 188.68 245.17 188C244.41 187.09 243.06 186.86 241.96 186.5C242.49 185.72 242.95 184.98 243.22 184.07C243.99 181.4 244.13 175.76 243.53 173.06C243.39 172.43 243.28 172.23 242.82 171.8C242.48 171.76 242.14 171.7 241.8 171.68ZM259.84 178.52C258.92 178.94 257.73 179.37 257.3 180.37C257.12 180.81 257.13 181.31 257.32 181.75C257.72 182.67 258.76 183.27 259.68 183.56C260.7 183.88 261.7 183.89 262.75 183.65C263.8 183.24 265.2 182.82 265.77 181.75C265.97 181.36 266 180.9 265.84 180.5C265.49 179.59 264.44 179.07 263.59 178.73C262.47 178.29 261.03 178.43 259.84 178.52ZM229.85 179.41C228.72 179.81 226.98 180.28 226.49 181.51C226.27 182.04 226.28 182.59 226.58 183.09C227.08 183.96 228.29 184.42 229.22 184.59C230.04 184.74 231.02 184.65 231.85 184.55C232.91 184.21 234.23 183.82 234.81 182.76C235.03 182.36 235.06 181.87 234.91 181.44C234.64 180.66 233.95 180.14 233.21 179.8C232.1 179.29 231.03 179.32 229.85 179.41ZM254.88 194.13C252.37 195.69 250.01 197.02 247 197.3C245.43 197.44 242.56 196.65 241.41 197.63C241.41 198.24 241.53 198.37 241.83 198.88C242.17 199.06 242.49 199.24 242.86 199.35C246.82 199.81 251.64 199.43 254.85 196.8C255.4 196.34 255.69 195.98 255.89 195.3C255.65 194.63 255.59 194.53 254.95 194.16C254.93 194.15 254.9 194.14 254.88 194.13Z" fill="#FBEBDF"/>
  <path d="M293.97 164.88C293.62 165.01 293.3 165.05 292.93 165.1L292.74 164.79C293.04 164.04 293.54 163.51 294.05 162.89C297.86 158.24 297.39 153.83 296.84 148.23C297.26 148.29 297.45 148.43 297.79 148.69C299.1 151.01 299.15 153.89 298.69 156.47C298.15 159.55 296.62 163.06 293.97 164.88Z" fill="#FEFEFE"/>
  <path d="M262.14 161.66C258.55 160.26 255.7 160.86 251.99 161.43L251.58 161.1C251.37 160.53 251.31 160.47 251.49 159.85C252.69 158.88 254.31 158.78 255.79 158.56C257.15 158.78 258.71 158.55 260.16 158.76C261.87 159 264.01 159.51 265.01 161.06C265.33 161.56 265.35 161.79 265.24 162.35L264.69 162.65C263.7 162.73 262.96 162.15 262.14 161.66Z" fill="#2D2B38"/>
  <path d="M232.36 161.99C230.33 161.82 228.41 163.39 226.25 163.08C226.02 163.04 226 162.91 225.86 162.73C225.89 162.67 225.92 162.6 225.95 162.54C226.94 160.89 229.49 160.56 231.21 160.12C231.59 160.08 231.95 160.07 232.34 160.08C233.89 160.13 236.32 160.37 237.42 161.55C237.48 162.13 237.48 162.18 237.21 162.69C235.87 163.32 234.08 162.24 232.65 162.03L232.36 161.99Z" fill="#2D2B38"/>
  <path d="M256.55 177.24C255.73 177.14 254.85 177.07 254.16 176.58C253.21 175.9 252.52 174.56 252.35 173.43C252.22 172.54 252.44 171.58 253 170.87C253.6 170.12 254.49 170.14 255.37 170.06C255.64 170.03 255.9 170.08 256.16 170.13C257.02 170.32 257.77 170.81 258.21 171.59C258.78 172.61 258.81 174.01 258.46 175.11C258.11 176.22 257.56 176.72 256.55 177.24Z" fill="#2D2B38"/>
  <path d="M230.51 175.73C230 174.5 229.86 173.36 230.08 172.28C230.28 171.31 230.73 170.97 231.52 170.43C231.89 170.38 232.24 170.34 232.62 170.36C233.95 170.42 235.19 171.09 236.03 172.12C236.7 172.92 237.05 173.91 236.89 174.96C236.7 176.17 236.01 176.77 235.09 177.47C234.71 177.52 234.33 177.58 233.95 177.57C232.49 177.55 231.5 177 230.51 175.73Z" fill="#2D2B38"/>
  <path d="M244.87 189.44C243.54 189.3 242.12 189.22 240.86 188.74C240.31 188.53 239.84 188.27 239.62 187.69C238.93 185.91 241.63 183.82 241.73 181.99C241.88 179.2 240.48 174.07 241.8 171.68C242.14 171.7 242.48 171.76 242.82 171.8C243.28 172.23 243.39 172.43 243.53 173.06C244.13 175.76 243.99 181.4 243.22 184.07C242.95 184.98 242.49 185.72 241.96 186.5C243.06 186.86 244.41 187.09 245.17 188C245.28 188.68 245.15 188.82 244.87 189.44Z" fill="#2D2B38"/>
  <path d="M284.58 176.38C283.62 175.79 282.49 176.38 281.52 175.72C281.45 175.14 281.59 174.95 282 174.5C282.5 173.96 282.97 173.5 283.73 173.49C284.58 173.48 285.4 174.03 285.92 174.67C286.54 175.42 286.69 176.12 286.77 177.06C286.47 177.05 286.18 177.03 285.88 177C285.13 176.93 285.07 176.98 284.58 176.38Z" fill="#2D2B38"/>
  <path d="M284.58 176.38C285.07 176.98 285.13 176.93 285.88 177C286.18 177.03 286.47 177.05 286.77 177.06C286.63 177.78 286.45 178.56 286 179.16C285.64 179.63 284.92 180.31 284.27 180.32C283.59 180.33 283.09 180.01 282.66 179.53C282.64 177.97 284.27 177.85 284.58 176.38Z" fill="#2D2B38"/>
  <path d="M262.75 183.65C261.7 183.89 260.7 183.88 259.68 183.56C258.76 183.28 257.72 182.67 257.32 181.75C257.13 181.31 257.12 180.81 257.3 180.37C257.73 179.37 258.92 178.94 259.84 178.52C261.03 178.44 262.47 178.29 263.59 178.73C264.44 179.07 265.49 179.59 265.84 180.5C266 180.91 265.97 181.36 265.77 181.75C265.2 182.82 263.8 183.24 262.75 183.65Z" fill="#FBEBDF"/>
  <path d="M231.85 184.55C231.02 184.65 230.04 184.74 229.22 184.59C228.29 184.42 227.08 183.96 226.58 183.09C226.28 182.59 226.27 182.04 226.49 181.51C226.98 180.28 228.72 179.81 229.85 179.41C231.03 179.32 232.1 179.29 233.21 179.8C233.95 180.14 234.64 180.66 234.91 181.44C235.06 181.87 235.03 182.36 234.81 182.76C234.23 183.82 232.91 184.21 231.85 184.55Z" fill="#FBEBDF"/>
  <path d="M315.67 186.35L315.22 187.68C308.69 186.03 300.08 186.24 293.5 187.68C294.56 186.67 295.48 185.62 296.38 184.47C302.47 184.38 310.08 183.69 315.67 186.35Z" fill="#FF8535"/>
  <path d="M315.22 187.68L315.67 186.35C317.64 187.15 319.29 187.92 321 189.21C320.05 189.27 319.15 188.79 318.27 189.05C317.5 188.5 316 188 315.22 187.68Z" fill="#FF8535"/>
  <path d="M321 189.21C324.39 191.57 327.03 194.87 327.76 199.03C328.21 201.61 327.79 203.99 326.99 206.45C325.92 206.25 324.65 205.82 323.69 206.51C323.33 206.76 323.41 206.77 323.35 207.16C323.95 207.93 325.44 208.2 326.38 208.31C328.4 208.54 330.46 208.38 332.42 208.96L331.9 209.16C334.76 210.61 338.25 211.36 341.25 212.58C341.25 212.58 357.5 216 366.11 237.12C367.72 242.03 368.33 247.59 368.19 252.75C367.82 266.05 361.66 288.48 355.68 300.19C354.55 302.36 353.29 304.47 351.92 306.5C351.29 307.43 348.91 310.26 348.66 311.01C347.89 311.65 346.57 312.36 346.19 313.3C346.37 313.91 346.44 313.87 346.96 314.19C345.97 314.87 289.75 314.86 284.91 314.19C285.68 313.96 286.46 313.8 287.25 313.63C287.74 313.21 288.22 312.8 288.67 312.35C290.32 310.71 291.23 308.07 291.2 305.78C291.19 304.07 290.68 302.38 289.38 301.19C286.84 298.87 283.06 299.56 279.93 299.75C279.83 295.06 280.62 290.39 278.37 286.02C275.96 281.36 271.17 279.47 266.45 277.95C266.59 277.8 266.74 277.64 266.89 277.5C272.95 271.65 286.79 268.27 295.04 268.71C299.74 268.96 304.46 270.18 309.11 270.9C314.59 271.74 320.31 272.35 325.59 274.08C327.9 274.83 337.85 279.4 339.04 279.42C339.47 279.03 339.51 278.97 339.68 278.42C339.6 278.2 339.54 278.02 339.4 277.84C338.01 276.05 323.74 271.12 320.99 270.61C322.29 266.87 324.52 263.52 325.81 259.79C326.66 257.29 327.42 254.66 327.96 252.07C328.7 248.51 328.87 244.85 329.4 241.27C329.84 238.36 330.66 235.49 331.02 232.58C331.1 231.97 331.15 231.29 331.05 230.68C330.95 230.09 330.87 229.89 330.38 229.58C328.27 230.44 326.96 244.65 326.58 247.36C326.3 249.27 325.92 251.16 325.46 253.04C324.29 257.82 322.72 261.96 320.44 266.31C320.1 264.03 319.64 261.6 318.61 259.51C318.15 258.59 317.61 257.66 316.59 257.32L316.25 257.58C315.78 259.8 317.51 262.49 318.05 264.65C318.51 266.5 318.76 268.4 319.04 270.28C315.05 269.71 311.04 269.2 307.06 268.52C300.62 267.41 294.86 266 288.25 266.73C281.22 267.52 274.76 269.86 268.74 273.54C266.95 274.63 265.19 275.69 263.87 277.34C255.48 274.94 247.05 275.39 238.45 275.16C238.27 268.61 239.25 261.9 239.61 255.34C239.7 253.69 240.07 251.51 239.78 249.91C239.67 249.3 239.41 249.14 238.91 248.85C238.3 248.98 238.24 249.01 237.79 249.45C237.2 252.4 237.33 255.74 237.15 258.76C236.8 264.33 236.2 269.9 236.35 275.49C229.39 276.29 225.79 278.65 220.62 283.16C218.99 276.05 217.83 268.75 216.4 261.59C218.3 259.36 219.96 256.76 221.82 254.45C227.74 247.09 233.81 240.13 240.72 233.66C241.26 229.08 240.54 224.29 241.53 219.78C242.17 216.88 243.63 214.72 246.11 213.12L246.42 213.35C252.11 213.89 255.91 213.46 261.41 212.18C262.34 216.78 264.47 224.58 267.87 227.8C267.31 233.83 267.06 251.46 269.09 257C269.36 257.73 269.6 258.01 270.29 258.33C270.73 258.16 270.88 258.12 271.14 257.7C271.41 257.28 271.5 256.8 271.36 256.32C270.98 254.96 270.85 253.46 270.65 252.05C269.95 247.19 269.74 242.07 269.81 237.16C269.86 234.19 270.11 231.22 269.99 228.24C271.86 228.21 273.71 228.1 275.58 227.98C275.83 228.22 275.79 228.08 275.75 228.37C275.07 233.28 274.24 253.34 276.96 256.99C277.31 257.46 277.54 257.6 278.09 257.72L278.48 257.39C278.67 256.81 278.71 256.3 278.67 255.69C278.59 254.38 278.18 253.11 278.02 251.81C277.7 249.18 277.5 246.34 277.42 243.7C277.26 238.23 277.81 232.83 277.86 227.38C281.39 223.89 284.23 219.3 286.88 215.13C289.47 211.07 295.27 199.7 299.6 197.77C304.87 195.44 313.02 198.59 317.64 196.32C318.58 195.86 319.39 195.13 319.68 194.1C320.21 192.2 319.5 190 318.27 189.05C319.16 188.79 320.05 189.27 321 189.21Z" fill="#FF8535"/>
  <path d="M242.86 199.35C242.49 199.24 242.17 199.06 241.83 198.88C241.53 198.37 241.41 198.24 241.41 197.63C242.56 196.66 245.43 197.44 247 197.3C250.01 197.02 252.37 195.69 254.88 194.13C254.9 194.14 254.93 194.15 254.95 194.16C255.59 194.53 255.65 194.63 255.89 195.3C255.69 195.98 255.4 196.34 254.85 196.8C251.64 199.43 246.82 199.81 242.86 199.35Z" fill="#2D2B38"/>
  <path d="M348.66 311.01C348.91 310.26 351.29 307.43 351.92 306.5C353.29 304.47 354.55 302.36 355.68 300.19C361.66 288.48 367.82 266.05 368.19 252.75C368.33 247.59 367.72 242.03 366.11 237.12C362.05 224.76 352.96 217.37 341.25 212.58C338.25 211.36 334.76 210.61 331.9 209.16L332.42 208.96C343.36 210.44 354.46 212.66 361.63 221.97C364.92 226.24 367.97 231.95 368.95 237.28C369.69 241.3 369.68 245.68 369.9 249.77C370.13 254.09 370.5 258.09 369.91 262.42C368.09 275.84 364.93 299.36 353.39 308.11C352.05 309.12 350.22 310.38 348.66 311.01Z" fill="#FEFEFE"/>
  <path d="M240.13 230.24C239.35 227.15 239.48 223.49 239.71 220.32C239.87 218.1 240.07 213.54 241.79 212.06C243.19 212.33 244.51 212.91 245.94 213.1C246 213.11 246.05 213.12 246.11 213.12C243.63 214.72 242.17 216.88 241.53 219.78C240.54 224.29 241.26 229.08 240.72 233.66C233.81 240.13 227.74 247.09 221.82 254.45C219.96 256.76 218.3 259.36 216.4 261.59C216 260.43 215.71 259.19 215.68 257.95C216.34 256.53 217.98 255.33 218.97 254.09C222.03 250.31 224.93 246.35 228.14 242.71C231.97 238.38 236.13 234.4 240.13 230.24Z" fill="#FEFEFE"/>
  <path d="M386.28 256.06C387.53 253.74 390.75 252.7 391.52 250.17C391.88 248.97 391.99 247.32 391.33 246.21C389.98 243.95 387.13 244.25 384.93 243.79C384.58 243.18 384.85 242.74 385.01 242.08C386.1 241.96 387.27 241.85 388.36 242.05C390.11 242.38 391.98 243.57 392.91 245.09C396.6 251.17 389.2 253.49 387.64 258.33C386.09 263.17 393.44 263.29 394.51 265.29C394.31 265.89 394.19 265.9 393.68 266.24C393.54 266.26 393.36 266.26 393.22 266.26C389.88 265.29 385.73 262.25 385.73 261.4C385 259 385.86 256.85 386.28 256.06Z" fill="#2D2B38"/>
  <path d="M401.99 265.84C401.13 265.65 400.31 264.54 399.89 263.82C398.75 261.89 398.54 259.33 399.15 257.19C400.04 254.1 403.5 252.5 404.5 252C405.5 251.5 406.4 251 407.12 251.42C407.25 251.64 407.45 251.8 407.34 252.06C406.89 253.11 404.75 253.85 403.8 254.4C402.39 255.22 401.33 256.49 400.97 258.09C400.44 260.38 401.87 262.23 403.03 264.03C403.4 264.6 403.5 265 403.32 265.54C403 266 402.52 265.96 401.99 265.84Z" fill="#2D2B38"/>
  <path d="M375.22 275.45C379.69 275.14 384.11 275.27 388.6 275.21C392.4 275.19 412.1 274.62 414.34 275.93C415.33 276.51 415.87 277.67 416.18 278.73C417.36 282.86 416.07 292.81 414.92 297.01C414.24 299.47 413.26 301.83 412 304.06C409.93 307.64 406.35 310.68 402.31 311.78C402.24 311.82 402.18 311.87 402.11 311.91C398.3 313.96 389 312.65 385.17 311.08C373.83 306.46 375.22 292.27 375.23 281.86C375.33 280.3 375.22 277.36 375.22 275.76C375.22 275.66 375.22 275.58 375.22 275.45ZM410.07 279.58C409.8 282.16 408.88 288.47 409.69 290.67L410.05 290.88L410.42 290.62C411.02 290.13 411.1 289.89 411.2 289.13C411.46 286.92 412.15 281.86 411.16 279.9C410.77 279.69 410.52 279.61 410.07 279.58Z" fill="#fff"/>
  <path d="M221.32 286.11C222.06 285.33 222.72 284.48 223.46 283.7C229.1 277.83 235.49 277.45 243.09 277.28C243.72 277.35 244.36 277.31 245 277.33C253.28 277.51 268.42 278.24 274.48 284.69C277.93 288.37 277.73 292.89 277.61 297.6C275.07 297.77 272.65 298.16 270.08 298.1C267.98 298.04 266.23 297.38 264.2 297.02C263.46 296.88 262.71 296.92 261.96 296.76C260.55 296.46 259.21 295.95 257.82 295.63C257.14 295.47 256.47 295.45 255.79 295.23C252.91 294.26 249.65 291.95 246.62 292.01C244.11 292.07 240.48 293.5 238.43 294.91C236.67 296.12 234.18 299.14 231.98 299.28C231.55 299.31 231.5 299.23 231.21 298.95C231.17 298.02 231.73 297.43 232.33 296.8C235.58 293.31 239.03 290.88 243.53 289.29C244.41 288.98 245.42 288.55 246.36 288.56C247.02 288.57 247.48 288.85 247.91 289.34C248.35 289.84 248.5 290 249 290.5C249.5 291 249.5 291 250 291C250.42 290.89 250.97 290.24 250.91 290.04C250.64 289.07 249.2 287.23 248.29 286.8C246.46 285.92 242.88 286.91 240.91 287.17C238.3 287.51 235.75 286.69 233.12 287.25C226.76 288.59 225.18 294.08 222.95 294.98C222.52 294.11 222.43 293.38 222.41 292.42C226.61 287.96 233.4 283.07 239.44 281.54C240.55 281.26 241.78 281.37 242.92 281.2C243.54 281.11 243.83 280.98 244.21 280.5L244.02 279.92C243.51 279.46 243.3 279.33 242.6 279.26C235.16 278.6 227.14 285.07 221.72 289.48L221.32 286.11Z" fill="#FBEBDF"/>
  <path d="M410.42 290.62L410.05 290.88L409.69 290.67C408.88 288.47 409.8 282.16 410.07 279.58C410.52 279.61 410.77 279.69 411.16 279.9C412.15 281.86 411.46 286.92 411.2 289.13C411.1 289.89 411.02 290.13 410.42 290.62Z" fill="#FEFEFE"/>
  <path d="M424.15 290.63C424.39 290.38 424.54 290.13 424.69 289.82C425.29 288.59 425.53 286.83 425 285.5C424.26 283.65 422.64 282.29 420.74 281.8C420.02 281.61 419.2 281.62 418.53 281.32L418.29 280.04C421.03 279.74 423.59 279.84 425.98 281.38C427.61 282.43 428.79 284.03 429.18 285.94C429.52 287.64 429.12 289.35 428.14 290.75C426.59 292.98 423.84 294.19 421.25 294.66C420.67 294.86 419.38 295.1 418.77 294.95C418.19 294.81 417.97 294.7 417.67 294.19C418.52 292.82 420.44 292.93 421.85 292.4C422.68 292.09 423.77 291.46 424.15 290.63Z" fill="#fff"/>
  <path d="M421.04 290.5C420.75 290.81 420.12 291.2 419.72 291.35C419.27 291.52 419.16 291.44 418.77 291.25C418.5 289 418.48 286.5 418.53 284.1C418.51 284.05 418.5 284 418.48 283.95C419.24 283.86 419.93 283.81 420.66 284.04C421.74 284.39 422.62 285.18 423.08 286.2C423.43 287 423.46 287.87 423.08 288.66C422.67 289.54 421.92 290.15 421.04 290.5Z" fill="#FEFEFE"/>
  <path d="M226.67 298.71C226.33 298.8 226 298.88 225.66 298.96C224.96 299.12 224.61 299.14 223.99 298.75C223.94 298.2 223.93 298.04 224.18 297.55C226.07 293.85 230.75 290.38 234.62 289.17L238 289.16C237.76 289.3 237.52 289.45 237.28 289.6C234.64 291.22 232.16 293.67 229.93 295.83C229.26 296.48 227.99 298.26 227.25 298.63C227.07 298.71 226.86 298.69 226.67 298.71Z" fill="#FBEBDF"/>
  <path d="M236.5 299.52C239.72 297.31 242.24 295.26 246.21 294.72C246.82 294.58 247.55 294.64 248.16 294.79C250.71 295.41 253.24 296.61 255.74 297.44C258.81 298.47 262.01 299.16 265.16 299.89L255.79 299.76C249.38 299.68 242.91 299.49 236.5 299.52Z" fill="#FF8535"/>
  <path d="M230.79 301.96L267.38 302C273.17 301.98 279.06 302.23 284.83 301.9C285.83 301.95 286.74 302.07 287.55 302.71C288.42 303.4 288.89 304.45 289.02 305.53C289.26 307.47 288.67 309.13 287.5 310.65C286.55 311.14 285.8 311.42 284.73 311.56C279.61 312.18 274.28 311.88 269.14 311.88C257.52 311.9 245.77 311.55 234.17 312.06C233.27 311.99 232.34 312.05 231.44 312.07C232.34 310.51 233.25 309 233.34 307.16C233.45 304.9 232.24 303.49 230.79 301.96Z" fill="#BEE8F7"/>
  <path d="M218.54 312.12C222.05 308.94 223.49 306.86 223.76 302.07C224.66 302.06 225.72 301.96 226.61 302.11C227.87 302.32 229.33 303.19 230.06 304.22C232.2 307.2 230.26 309.58 228.38 311.86C227.82 312.13 227.14 312.04 226.52 312.13L218.54 312.12Z" fill="#BEE8F7"/>
  <rect x="105" y="301" width="184" height="11" rx="5" fill="#BEE8F7" stroke="#2D2B38" stroke-width="2"/>
  <circle cx="332.28" cy="85.5" r="17.5" stroke="#2D2B38" stroke-width="2"/>
  <circle cx="331" cy="87" r="15" fill="#FFB106"/>
  <path d="M325.89 102.26L331.91 102.97C332.1 102.99 332.28 102.99 332.47 102.98L332.66 102.96L337.64 102.3C338.24 102.22 338.78 102.68 338.78 103.29V109C338.78 109.56 338.33 110 337.78 110H325.78C325.22 110 324.78 109.56 324.78 109V103.25C324.78 102.69 325.24 102.25 325.78 102.25L325.89 102.26Z" stroke="#2D2B38" stroke-width="2"/>
  <rect x="312.68" y="58.22" width="1" height="9.31" rx=".5" transform="rotate(-28.4096 312.678 58.2178)" fill="#D9D9D9" stroke="#2D2B38"/>
  <rect x="331.28" y="51.5" width="1" height="9.31" rx=".5" fill="#D9D9D9" stroke="#2D2B38"/>
  <rect x="327.4" y="85.92" width="1" height="17" rx=".5" transform="rotate(-17.0043 327.401 85.9201)" fill="#D9D9D9" stroke="#2D2B38"/>
  <rect x="349.84" y="57.7" width="1" height="9.31" rx=".5" transform="rotate(35.1911 349.839 57.6999)" fill="#D9D9D9" stroke="#2D2B38"/>
  <rect x="336.84" y="87.7" width="1" height="9.31" rx=".5" transform="rotate(35.1911 336.839 87.6999)" fill="#D9D9D9" stroke="#2D2B38"/>
  <rect x="80" y="300" width="211" height="13" rx="6.5" fill="#BDE9F8" stroke="#2D2B38" stroke-width="2"/>
  <rect x="78" y="219" width="142" height="91" rx="6" fill="#BDE9F8" stroke="#2D2B38" stroke-width="2"/>
  <path d="M154.92 259.04L157.81 264.04L156.81 269.72L152.39 273.43H146.61L142.19 269.72L141.19 264.04L144.08 259.04L149.5 257.07L154.92 259.04Z" fill="#fff" stroke="#2D2B38" stroke-width="2"/>
  <path d="M147.24 258.75L152.06 260.5L155 265L154 271L152.06 272.55H146.94L143 269.25L142.11 264.2L144.68 259.76L147.24 258.75Z" fill="#BDE9F8"/>
  <path d="M83.06 220H214.5L216.5 220.5L217.5 221.5L218.5 223L219 224H149H79.11L79.5 223L80 222L81.5 220.5L83.06 220Z" fill="#fff"/>
  <path d="M219 305.55L219 223.8L218.62 222.56L217.88 221.94L216.75 221.31L216 221L216 264.54L216 308.5L217 308L217.5 307.5L218.62 306.52L219 305.55Z" fill="#fff"/>
  <rect x="104.15" y="127.37" width="54.02" height="54.02" rx="6" transform="rotate(-14.1579 104.153 127.366)" fill="#fff" stroke="#2D2B38" stroke-width="2"/>
  <rect x="143.1" y="41.25" width="42.63" height="42.63" rx="6" transform="rotate(17.5328 143.097 41.2543)" fill="#fff" stroke="#2D2B38" stroke-width="2"/>
  <path d="M168.12 60.31C168.95 60.59 170.39 61.06 171.08 62.87L171.11 62.96C171.17 63.17 171.17 63.39 171.1 63.6L166.46 77.85L166.39 78.03C165.67 79.9 163.54 80.86 161.57 80.21L147.3 75.52C146.99 75.41 146.74 75.17 146.62 74.86L146.58 74.73C146.5 74.36 146.61 73.97 146.88 73.7L147.35 73.25L148.18 72.45C148.44 72.19 148.69 71.93 148.92 71.69C149.14 71.45 149.34 71.22 149.49 71.01C149.64 70.8 149.74 70.63 149.79 70.48C149.81 70.42 149.82 70.38 149.83 70.35C149.83 70.33 149.83 70.32 149.83 70.32C149.83 70.31 149.83 70.31 149.83 70.31C149.83 70.31 149.83 70.31 149.82 70.3C149.82 70.29 149.81 70.29 149.79 70.27C149.75 70.25 149.69 70.22 149.59 70.19C149.42 70.14 149.24 70.11 149.08 70.11C148.91 70.1 148.79 70.12 148.75 70.14L148.75 70.14C148.12 70.33 147.34 70.29 146.59 70.04C145.93 69.83 145.37 69.47 145 69.02L144.85 68.82C144.19 67.83 144.25 66.3 144.94 64.18C145.37 62.9 146.03 62.12 146.77 61.73C147.51 61.35 148.32 61.35 149.02 61.58C149.51 61.74 150 62.03 150.43 62.42L150.76 62.7C151.29 63.15 151.62 63.31 151.79 63.37C152.06 62.52 152.37 61.13 152.62 59.92C152.74 59.3 152.85 58.72 152.93 58.3C152.97 58.1 153 57.92 153.02 57.8C153.03 57.74 153.04 57.7 153.04 57.66C153.04 57.65 153.05 57.63 153.05 57.63C153.05 57.62 153.05 57.62 153.05 57.61C153.05 57.61 153.05 57.61 153.05 57.61L153.05 57.61C153.11 57.26 153.34 56.96 153.66 56.81L153.82 56.74C154.33 56.56 155.76 56.24 158.31 57.08C159.72 57.55 160.25 58.36 160.44 58.98L160.47 59.11C160.63 59.74 160.5 60.41 160.14 60.95L160.06 61.07C159.55 61.72 159.2 62.33 158.99 62.85C158.79 63.37 158.75 63.79 158.85 64.11L158.88 64.2C159.06 64.64 159.59 65.03 160.53 65.34C160.64 65.38 160.86 65.39 161.15 65.33C161.42 65.28 161.75 65.15 162.06 64.94L162.28 64.77C162.77 64.37 163.29 63.65 163.43 62.4L163.46 62.1C163.5 61.44 163.83 60.87 164.39 60.49L164.56 60.38C165.46 59.88 166.75 59.86 168.12 60.31ZM167.44 62.38C166.82 62.18 166.36 62.15 166.04 62.18C165.89 62.19 165.77 62.22 165.69 62.25C165.66 62.26 165.64 62.27 165.62 62.28C165.5 64.1 164.77 65.6 163.54 66.56L163.28 66.74C162.21 67.47 160.86 67.75 159.85 67.41C158.3 66.91 157.28 66.09 156.84 64.98L156.76 64.75C156.32 63.33 156.88 61.63 158.33 59.74C158.33 59.74 158.35 59.72 158.35 59.7C158.36 59.68 158.36 59.67 158.36 59.66L158.36 59.62C158.35 59.6 158.27 59.36 157.63 59.15C156.39 58.74 155.55 58.69 155.06 58.72C154.84 59.94 154.36 62.41 153.91 63.87L153.82 64.15C153.63 64.74 153.26 65.17 152.79 65.39C152.31 65.62 151.74 65.64 151.14 65.45C150.56 65.26 149.95 64.87 149.26 64.29L148.96 64.03C148.76 63.85 148.54 63.72 148.34 63.65L148.34 63.65C148.06 63.56 147.83 63.6 147.62 63.79C147.4 63.98 147.19 64.33 147.01 64.87C146.47 66.51 146.54 67.23 146.61 67.49L146.66 67.61L146.66 67.61L146.73 67.68C146.76 67.71 146.8 67.75 146.86 67.78C146.96 67.85 147.1 67.92 147.28 67.98C147.65 68.1 147.97 68.1 148.11 68.05L148.11 68.05L148.35 67.99C148.93 67.88 149.67 67.93 150.28 68.12C150.97 68.35 151.48 68.76 151.76 69.3C152.04 69.84 152.08 70.48 151.86 71.17C151.7 71.65 151.38 72.14 150.98 72.63C150.62 73.08 150.18 73.54 149.69 74.01L162.25 78.14C163.15 78.44 164.12 77.98 164.39 77.17L168.9 63.33C168.57 62.76 168.07 62.59 167.44 62.38Z" fill="#2D2B38" stroke="#000" stroke-width=".3"/>
  <g clip-path="url(#c0)">
    <path d="M129.94 141.66L122.59 157.17L118.64 158.19L122.35 150.42L115.54 145.34L119.45 144.34L123.68 147.52L125.96 142.68L129.94 141.66ZM125.71 152.9L129.22 155.48L133.12 154.48L127.11 149.99L125.71 152.9Z" fill="#2D2B38"/>
    <path fill-rule="evenodd" clip-rule="evenodd" d="M142.74 138.38L143.52 141.42L134.72 143.67C133.67 143.94 132.44 145.44 133.02 147.69C133.59 149.94 135.39 150.66 136.44 150.39L141.24 149.17L142.01 152.21L137.22 153.43C134.12 154.22 130.88 152 129.98 148.47C129.07 144.93 130.85 141.43 133.94 140.63L142.74 138.38ZM141.57 143.8L135.97 145.23L136.75 148.27L141.71 147L142.97 151.96L146.01 151.18L144.58 145.58C144.41 144.95 144 144.42 143.43 144.09C142.87 143.75 142.21 143.65 141.57 143.8Z" fill="#2D2B38"/>
    <path d="M152.6 137.57L148.6 138.59C147.28 139.1 146.21 140.08 145.59 141.35C144.96 142.61 144.84 144.06 145.23 145.42C145.53 146.79 146.34 148.01 147.5 148.81C148.65 149.62 150.06 149.97 151.46 149.79L155.46 148.77C156.78 148.26 157.85 147.27 158.48 146.01C159.1 144.74 159.23 143.29 158.83 141.94C158.53 140.56 157.72 139.34 156.57 138.53C155.41 137.72 154 137.38 152.6 137.57ZM154.67 145.65L150.67 146.68C150.1 146.65 149.56 146.44 149.13 146.06C148.7 145.69 148.41 145.19 148.3 144.63C148.13 144.09 148.14 143.5 148.34 142.96C148.54 142.42 148.91 141.97 149.4 141.67L153.4 140.65C153.97 140.68 154.52 140.9 154.95 141.27C155.38 141.65 155.68 142.16 155.78 142.72C155.95 143.26 155.94 143.85 155.73 144.38C155.53 144.91 155.16 145.36 154.67 145.65Z" fill="#2D2B38"/>
  </g>
  <g clip-path="url(#c1)">
    <rect x="63" y="70.25" width="41" height="41" rx="6" transform="rotate(-10.1824 63 70.2476)" fill="#fff"/>
    <g clip-path="url(#c2)">
      <path d="M90.39 76.75C92.14 76.42 93.96 76.79 95.45 77.8C96.93 78.8 97.95 80.35 98.29 82.11L99.13 86.53C99.47 88.29 99.1 90.11 98.09 91.59C97.09 93.07 95.53 94.09 93.78 94.43L82.73 96.55C80.97 96.89 79.15 96.51 77.67 95.51C76.18 94.5 75.16 92.95 74.83 91.19L73.98 86.77C73.64 85.01 74.02 83.19 75.02 81.71C76.03 80.23 77.58 79.21 79.34 78.87L90.39 76.75ZM90.81 78.96L79.76 81.08C78.63 81.3 77.62 81.94 76.95 82.88C76.28 83.82 75.99 84.98 76.15 86.12L76.19 86.35L77.04 90.77C77.25 91.9 77.9 92.91 78.84 93.58C79.78 94.25 80.94 94.54 82.08 94.38L82.3 94.34L93.35 92.22C94.49 92 95.49 91.36 96.16 90.42C96.84 89.48 97.12 88.32 96.96 87.18L96.92 86.95L96.08 82.53C95.86 81.4 95.21 80.39 94.28 79.72C93.34 79.05 92.17 78.76 91.03 78.93L90.81 78.96ZM83.71 83.76L84.13 85.97L86.34 85.55L86.77 87.76L84.56 88.18L84.98 90.39L82.77 90.81L82.35 88.6L80.14 89.03L79.71 86.82L81.92 86.39L81.5 84.18L83.71 83.76ZM93.4 86.48L93.82 88.69L91.61 89.12L91.19 86.91L93.4 86.48ZM90.34 82.49L90.76 84.7L88.55 85.12L88.13 82.91L90.34 82.49Z" fill="#2D2B38" stroke="#2D2B38" stroke-width=".3"/>
    </g>
  </g>
  <rect x="64.16" y="71.06" width="39" height="39" rx="5" transform="rotate(-10.1824 64.161 71.055)" stroke="#2D2B38" stroke-width="2"/>
  <path d="M410.07 279.58C409.8 282.16 408.88 288.47 409.69 290.67L410.05 290.88L410.42 290.62C411.02 290.13 411.1 289.89 411.2 289.13C411.46 286.92 412.15 281.86 411.16 279.9C410.77 279.69 410.52 279.61 410.07 279.58Z" fill="#2D2B38"/>
  <defs>
    <clipPath id="c0">
      <rect width="52.85" height="26.42" transform="translate(109.106 140.168) rotate(-14.3482)"/>
    </clipPath>
    <clipPath id="c1">
      <rect x="63" y="70.25" width="41" height="41" rx="6" transform="rotate(-10.1824 63 70.2476)"/>
    </clipPath>
    <clipPath id="c2">
      <rect width="30" height="30" transform="translate(69 74.7429) rotate(-10.8528)"/>
    </clipPath>
  </defs>
</svg>
