<svg width="56" height="56" viewBox="0 0 56 56" fill="none" xmlns="http://www.w3.org/2000/svg">
  <path d="M32.7373 32.625L33.9273 46.0683C33.9515 46.5287 33.8001 46.9812 33.5038 47.3344C33.2075 47.6876 32.7883 47.9153 32.3307 47.9716L32.209 47.9866C31.7297 48.045 31.2468 47.9107 30.8664 47.6131C30.4861 47.3156 30.2394 46.8793 30.1807 46.4L28.594 33.4816C28.3699 33.498 28.1448 33.498 27.9207 33.4816L26.334 46.4C26.2753 46.8793 26.0286 47.3156 25.6483 47.6131C25.2679 47.9107 24.785 48.045 24.3057 47.9866L24.184 47.97C23.7267 47.9137 23.3078 47.6862 23.0115 47.3333C22.7152 46.9805 22.5637 46.5284 22.5874 46.0683L23.7824 32.5766C24.0499 29.5529 24.0243 26.5104 23.7057 23.4917C22.734 25.29 22.0357 28.0117 21.6224 31.765C21.5513 32.2292 21.3037 32.6481 20.9311 32.9342C20.5586 33.2202 20.09 33.3513 19.6232 33.3002C19.1563 33.249 18.7272 33.0194 18.4255 32.6595C18.1238 32.2995 17.9728 31.8369 18.004 31.3683C19.0457 21.855 22.309 16.775 27.959 17.1167C28.1621 17.1032 28.3659 17.1032 28.569 17.1167C34.224 16.77 37.494 21.85 38.5357 31.37C38.5669 31.8386 38.4159 32.3012 38.1142 32.6611C37.8125 33.0211 37.3834 33.2506 36.9166 33.3018C36.4497 33.353 35.9811 33.2219 35.6086 32.9358C35.2361 32.6498 34.9884 32.2309 34.9173 31.7666C34.5007 27.98 33.794 25.2433 32.809 23.445C32.4906 26.4962 32.4666 29.5709 32.7373 32.6266V32.625ZM28.3357 8C28.8139 8 29.2875 8.09419 29.7293 8.27721C30.1711 8.46022 30.5726 8.72846 30.9107 9.06662C31.2489 9.40478 31.5171 9.80623 31.7001 10.2481C31.8832 10.6899 31.9773 11.1634 31.9773 11.6417C31.9773 12.1199 31.8832 12.5934 31.7001 13.0353C31.5171 13.4771 31.2489 13.8785 30.9107 14.2167C30.5726 14.5549 30.1711 14.8231 29.7293 15.0061C29.2875 15.1891 28.8139 15.2833 28.3357 15.2833C27.3699 15.2833 26.4436 14.8997 25.7606 14.2167C25.0777 13.5338 24.694 12.6075 24.694 11.6417C24.694 10.6758 25.0777 9.74956 25.7606 9.06662C26.4436 8.38367 27.3699 8 28.3357 8Z" fill="#57606A" stroke="currentColor" stroke-width="0.5"/>
</svg>
