<svg width="56" height="56" viewBox="0 0 56 56" fill="none" xmlns="http://www.w3.org/2000/svg">
  <path d="M41.3266 41.2123C41.3266 41.0188 41.3018 40.8398 41.255 40.6712C40.9698 39.8802 40.4477 39.4837 39.686 39.4837C39.044 39.4837 38.2966 39.7969 37.4398 40.4192L32.6989 38.6562L37.5101 36.8906C38.32 37.4193 39.0674 37.6842 39.7575 37.6842C40.5179 37.6842 41.0166 37.2871 41.2549 36.4967C41.3018 36.3281 41.3253 36.1472 41.3253 35.9551C41.3253 34.9492 40.6846 34.4076 39.4008 34.3366C39.9229 33.8086 40.186 33.291 40.186 32.7871C40.186 32.2604 39.9111 31.8145 39.3643 31.4545C39.0805 31.3118 38.7822 31.2389 38.4737 31.2389C37.4282 31.2389 36.7145 32.0904 36.3344 33.7956L27.9919 36.929L19.6508 33.8685C19.2706 32.1159 18.557 31.2389 17.5114 31.2389C17.2029 31.2389 16.906 31.3118 16.6196 31.4545C16.0987 31.8145 15.8357 32.2604 15.8357 32.7871C15.8357 33.291 16.0987 33.8087 16.6196 34.3366C15.3135 34.4076 14.6599 34.9492 14.6599 35.9551C14.6599 36.1472 14.6847 36.3287 14.7316 36.4967C14.992 37.2871 15.4919 37.6842 16.229 37.6842C16.9164 37.6842 17.6665 37.4193 18.4738 36.8906L23.3227 38.6562L18.5441 40.3828C17.7134 39.7839 16.9764 39.4837 16.3358 39.4837C15.5753 39.4837 15.0389 39.8802 14.7316 40.6712C14.6834 40.8398 14.6599 41.0188 14.6599 41.2123C14.6599 42.2194 15.3136 42.7604 16.6196 42.8314C16.0987 43.3594 15.8357 43.877 15.8357 44.3815C15.8357 44.9075 16.0987 45.3515 16.6196 45.7136C16.9529 45.9056 17.2732 46 17.5831 46C18.5571 46 19.2589 45.1602 19.6873 43.4805L27.992 40.4192L36.2993 43.4805C36.7264 45.1602 37.4399 46 38.4373 46C38.7238 46 39.031 45.9056 39.3645 45.7136C39.9112 45.3515 40.1861 44.9075 40.1861 44.3815C40.1861 43.877 39.923 43.3594 39.4009 42.8314C40.6847 42.7604 41.3266 42.2194 41.3266 41.2123ZM22.2185 30.8424V31.3847C22.2185 32.0559 22.4425 32.6204 22.8956 33.0755C23.3461 33.5325 23.9047 33.7845 24.5701 33.8327C25.2602 33.8808 25.7706 33.7604 26.104 33.4726C26.6248 33.8554 27.2081 34.0475 27.8501 34.0475C28.4438 34.0475 28.992 33.8684 29.4894 33.5085C29.8227 33.7715 30.3097 33.8808 30.9517 33.8327C31.617 33.7604 32.1756 33.5025 32.6274 33.0586C33.078 32.6126 33.3045 32.0566 33.3045 31.3847V30.9896C35.8696 30.3164 37.8553 29.1887 39.2577 27.6028C40.6131 26.0918 41.2889 24.304 41.2889 22.2395C41.2889 21.7825 41.2421 21.3027 41.147 20.7981C40.6717 17.7285 39.2694 15.1946 36.9412 13.2031C34.4919 11.0684 31.5102 10 27.992 10C24.4737 10 21.492 11.056 19.044 13.166C16.7159 15.1843 15.3253 17.7285 14.8748 20.7982C14.7784 21.3027 14.7316 21.7826 14.7316 22.2396C14.7316 24.2552 15.3839 26.0182 16.6925 27.5313C17.9985 29.0429 19.8409 30.1484 22.2185 30.8424ZM30.755 18.2617C31.4569 17.4343 32.3071 17.0202 33.3045 17.0202C34.3267 17.0202 35.1873 17.4343 35.8904 18.2617C36.5896 19.0886 36.9412 20.0905 36.9412 21.2663C36.9412 22.4421 36.5896 23.4447 35.8904 24.2728C35.1873 25.1016 34.3267 25.5143 33.3045 25.5143C32.3071 25.5143 31.4569 25.1015 30.755 24.2728C30.0545 23.4447 29.7029 22.4421 29.7029 21.2663C29.7029 20.0905 30.0545 19.0886 30.755 18.2617ZM26.9763 26.515C27.3214 26.0651 27.6586 25.8392 27.992 25.8392C28.3253 25.8392 28.6404 26.0879 28.9373 26.5885C29.2341 27.0866 29.3839 27.5606 29.3839 28.0124C29.3839 28.7005 28.932 29.0436 28.0283 29.0436C27.4347 29.0436 26.9946 28.8887 26.7081 28.5814C26.5414 28.3893 26.4607 28.1529 26.4607 27.8678C26.4607 27.4173 26.6326 26.9668 26.9763 26.515ZM19.7941 18.2617C20.5063 17.4343 21.3618 17.0202 22.3591 17.0202C23.3578 17.0202 24.2133 17.4343 24.9268 18.2617C25.6404 19.0886 25.9971 20.0905 25.9971 21.2663C25.9971 22.4421 25.6404 23.4447 24.9268 24.2728C24.2133 25.1016 23.3578 25.5143 22.3591 25.5143C21.3617 25.5143 20.5063 25.1015 19.7941 24.2728C19.0805 23.4447 18.7237 22.4421 18.7237 21.2663C18.7237 20.0905 19.0805 19.0886 19.7941 18.2617Z" fill="currentColor"/>
</svg>
