<svg width="56" height="56" viewBox="0 0 56 56" fill="none" xmlns="http://www.w3.org/2000/svg">
  <path d="M31.5833 16.124C33.5498 16.124 35.1453 14.5285 35.1453 12.562C35.1453 10.5955 33.5498 9 31.5833 9C29.6168 9 28.0213 10.5955 28.0213 12.562C28.0213 14.5285 29.6168 16.124 31.5833 16.124ZM38.5959 27.1884L36.8669 26.3127L36.1471 24.131C35.0562 20.8213 32.0137 18.506 28.563 18.4986C25.8915 18.4912 24.4148 19.2481 21.6394 20.3686C20.0365 21.0143 18.7231 22.2387 17.9513 23.7971L17.4541 24.8063C16.8753 25.9788 17.3428 27.4036 18.5079 27.9898C19.6655 28.576 21.0754 28.1011 21.6617 26.9286L22.1589 25.9194C22.4186 25.3999 22.849 24.9918 23.3833 24.7766L25.3721 23.9752L24.2441 28.4796C23.8582 30.0231 24.2738 31.6631 25.3498 32.843L29.7949 37.6962C30.3292 38.2824 30.7076 38.9874 30.9006 39.7517L32.2586 45.1912C32.5777 46.4601 33.8689 47.2393 35.1378 46.9202C36.4068 46.6011 37.186 45.3099 36.8669 44.041L35.2195 37.4365C35.0265 36.6721 34.6481 35.9597 34.1138 35.3809L30.7373 31.6928L32.0137 26.5947L32.4218 27.8191C32.8151 29.0139 33.6611 30.0008 34.7742 30.5648L36.5033 31.4405C37.6609 32.0267 39.0709 31.5518 39.6571 30.3793C40.2285 29.2142 39.761 27.7746 38.5959 27.1884ZM21.6097 37.6294C21.3723 38.2305 21.0161 38.7722 20.556 39.2249L16.8456 42.9427C15.918 43.8703 15.918 45.3767 16.8456 46.3043C17.7732 47.2319 19.2722 47.2319 20.1998 46.3043L24.6077 41.8964C25.0604 41.4437 25.4166 40.902 25.6615 40.3009L26.6633 37.7927C22.5596 33.3179 23.7915 34.6908 23.1458 33.8077L21.6097 37.6294Z" fill="currentColor"/>
</svg>