<svg width="134" height="22" viewBox="0 0 134 22" fill="none" xmlns="http://www.w3.org/2000/svg">
  <path d="M9.768 8.96008H8.304V13.1121H10.488V15.4881C10.216 15.5201 9.976 15.5521 9.768 15.5841C9.576 15.6161 9.312 15.6241 8.976 15.6081C8.416 15.6081 7.872 15.4881 7.344 15.2481C6.832 14.9921 6.384 14.6401 6 14.1921C5.632 13.7441 5.344 13.2081 5.136 12.5841C4.928 11.9441 4.832 11.2481 4.848 10.4961C4.848 9.85608 4.952 9.24008 5.16 8.64808C5.368 8.05608 5.648 7.53608 6 7.08808C6.368 6.64008 6.8 6.28008 7.296 6.00808C7.808 5.72008 8.36 5.56808 8.952 5.55208C9.736 5.50408 10.72 5.60808 11.904 5.86408C13.088 6.10408 14.048 6.62408 14.784 7.42408V2.21608C14.432 1.99208 13.976 1.80008 13.416 1.64008C12.872 1.48008 12.368 1.32808 11.904 1.18408C11.44 1.02408 10.96 0.912076 10.464 0.848075C9.984 0.784075 9.52 0.752075 9.072 0.752075C7.696 0.752075 6.456 1.00008 5.352 1.49608C4.248 1.97608 3.296 2.66408 2.496 3.56008C1.696 4.45608 1.08 5.51208 0.648 6.72808C0.216 7.92808 0 9.24008 0 10.6641C0 12.2801 0.216 13.7201 0.648 14.9841C1.08 16.2321 1.68 17.2881 2.448 18.1521C3.216 19.0161 4.128 19.6801 5.184 20.1441C6.256 20.6241 7.44 20.8641 8.736 20.8641C9.232 20.8641 9.712 20.8481 10.176 20.8161C10.64 20.8001 11.112 20.7441 11.592 20.6481C12.088 20.5681 12.592 20.4561 13.104 20.3121C13.616 20.1841 14.176 20.0161 14.784 19.8081V8.98408H11.544C10.936 8.96808 10.344 8.96008 9.768 8.96008Z" fill="#FBFCFD"/>
  <path fill-rule="evenodd" clip-rule="evenodd" d="M54.0308 1.35217H58.2788V7.44817C58.6308 7.14417 59.0228 6.93617 59.4548 6.82417C59.8868 6.69617 60.3668 6.63217 60.8948 6.63217C61.6308 6.63217 62.3268 6.81617 62.9828 7.18417C63.6548 7.53617 64.2388 8.03217 64.7348 8.67217C65.2308 9.29617 65.6228 10.0562 65.9108 10.9522C66.2148 11.8322 66.3668 12.8082 66.3668 13.8802C66.3668 15.0162 66.2148 16.0322 65.9108 16.9282C65.6228 17.8242 65.2308 18.5602 64.7348 19.1362C64.2388 19.7282 63.6548 20.1762 62.9828 20.4802C62.3268 20.7842 61.6308 20.9362 60.8948 20.9362C60.1588 20.9362 59.5268 20.8162 58.9988 20.5762C58.4708 20.3522 58.0308 20.0482 57.6788 19.6642C57.6788 19.7282 57.6708 19.9362 57.6548 20.2882V20.9122H54.0308V1.35217ZM60.1508 16.1362C60.6948 16.1362 61.1588 15.9122 61.5428 15.4642C61.9428 15.0162 62.1268 14.3842 62.0948 13.5682C62.0628 12.8642 61.8628 12.2962 61.4948 11.8642C61.1428 11.4162 60.6948 11.1922 60.1508 11.1922C59.5588 11.1922 59.0948 11.4162 58.7588 11.8642C58.4388 12.3122 58.2788 12.8962 58.2788 13.6162V13.9522C58.3108 14.6402 58.4948 15.1762 58.8308 15.5602C59.1828 15.9442 59.6228 16.1362 60.1508 16.1362Z" fill="#FBFCFD"/>
  <path fill-rule="evenodd" clip-rule="evenodd" d="M108.711 20.9122H105.087C105.087 20.8482 105.079 20.6402 105.063 20.2882V19.6642C104.695 20.0482 104.247 20.3522 103.719 20.5762C103.191 20.8162 102.559 20.9362 101.823 20.9362C101.103 20.9362 100.407 20.7842 99.7355 20.4802C99.0635 20.1762 98.4795 19.7282 97.9835 19.1362C97.5035 18.5602 97.1115 17.8242 96.8075 16.9282C96.5195 16.0322 96.3755 15.0162 96.3755 13.8802C96.3755 12.8082 96.5195 11.8322 96.8075 10.9522C97.1115 10.0562 97.5035 9.29617 97.9835 8.67217C98.4795 8.03217 99.0635 7.53617 99.7355 7.18417C100.407 6.81617 101.103 6.63217 101.823 6.63217C102.367 6.63217 102.855 6.69617 103.287 6.82417C103.719 6.93617 104.103 7.14417 104.439 7.44817V1.35217H108.711V20.9122ZM104.439 13.5442C104.439 12.9362 104.279 12.4322 103.959 12.0322C103.639 11.6162 103.183 11.4082 102.591 11.4082C102.031 11.4082 101.567 11.6082 101.199 12.0082C100.847 12.3922 100.663 12.8962 100.647 13.5202C100.631 14.2082 100.807 14.7522 101.175 15.1522C101.559 15.5522 102.031 15.7522 102.591 15.7522C103.119 15.7522 103.551 15.5922 103.887 15.2722C104.239 14.9362 104.423 14.4482 104.439 13.8082V13.5442Z" fill="#FBFCFD"/>
  <path d="M128.019 9.39217V6.82417H124.035V21.0802H128.019V13.2802C128.019 13.1042 128.059 12.9042 128.139 12.6802C128.235 12.4402 128.395 12.2082 128.619 11.9842C128.971 11.6802 129.339 11.4722 129.723 11.3602C130.107 11.2322 130.547 11.1682 131.043 11.1682C131.459 11.1682 131.875 11.2082 132.291 11.2882C132.723 11.3682 133.091 11.4802 133.395 11.6242V7.37617C133.187 7.20017 132.915 7.06417 132.579 6.96817C132.259 6.85617 131.931 6.80017 131.595 6.80017C131.403 6.80017 131.267 6.80817 131.187 6.82417C130.403 6.92017 129.771 7.16017 129.291 7.54417C128.811 7.91217 128.387 8.52817 128.019 9.39217Z" fill="#FBFCFD"/>
  <path fill-rule="evenodd" clip-rule="evenodd" d="M122.387 16.232C120.755 16.648 119.299 16.856 118.019 16.856C116.915 16.856 116.027 16.688 115.355 16.352C114.699 16.016 114.363 15.6 114.347 15.104H122.291C122.323 14.896 122.339 14.568 122.339 14.12C122.339 12.968 122.235 11.984 122.027 11.168C121.835 10.352 121.491 9.64804 120.995 9.05604C119.875 7.63204 118.419 6.92004 116.627 6.92004C114.819 6.92004 113.387 7.60004 112.331 8.96004C111.179 10.256 110.603 11.968 110.603 14.096C110.603 16.24 111.203 17.96 112.403 19.256C113.619 20.504 115.235 21.128 117.251 21.128C119.331 21.128 121.043 20.536 122.387 19.352V16.232ZM114.779 12.128C114.939 10.944 115.555 10.352 116.627 10.352C117.171 10.352 117.587 10.496 117.875 10.784C118.179 11.072 118.371 11.52 118.451 12.128H114.779Z" fill="#FBFCFD"/>
  <path d="M91.231 20.1921C92.111 20.6881 93.343 20.9361 94.927 20.9361V15.9921C93.727 15.9921 93.127 14.9121 93.127 12.7521V1.3761H88.855V12.6321C88.855 14.8081 89.031 16.4961 89.383 17.6961C89.751 18.8801 90.367 19.7121 91.231 20.1921Z" fill="#FBFCFD"/>
  <path d="M86.8022 1.42419V6.1042H82.3862V1.42419H86.8022Z" fill="#FBFCFD"/>
  <path d="M86.8022 7.4722V20.9122H82.3862V7.4722H86.8022Z" fill="#FBFCFD"/>
  <path d="M76.5626 18.9922V21.2482H80.4506V6.87219H76.4666V13.9522C76.4666 14.2402 76.2266 14.7362 75.7466 15.4402C75.4426 15.7602 75.1386 15.9922 74.8346 16.1362C74.5466 16.2802 74.2265 16.3522 73.8745 16.3522C73.2026 16.3522 72.6986 16.1362 72.3626 15.7042C72.0426 15.2722 71.8826 14.5842 71.8826 13.6402V6.87219H68.0186V16.1362C68.0186 17.7522 68.4346 18.9522 69.2666 19.7362C70.1626 20.6962 71.2346 21.1762 72.4826 21.1762C73.2665 21.1762 73.9786 20.9922 74.6186 20.6242C75.2746 20.2562 75.9226 19.7122 76.5626 18.9922Z" fill="#FBFCFD"/>
  <path d="M45.2753 9.44007H40.8113V4.54407H36.0353V9.44007H31.4033V13.1601H36.0353V18.5361H40.8113V13.1601H45.2753V9.44007Z" fill="#FBFCFD"/>
  <path fill-rule="evenodd" clip-rule="evenodd" d="M18.5841 8.93608C19.7841 7.48007 21.4001 6.75208 23.4321 6.75208C25.4161 6.75208 27.0161 7.48007 28.2321 8.93608C29.4801 10.3601 30.1041 12.0001 30.1041 13.8561C30.1041 15.8081 29.4721 17.4801 28.2081 18.8721C26.9921 20.2961 25.4001 21.0081 23.4321 21.0081C21.4481 21.0081 19.8321 20.3121 18.5841 18.9201C17.3521 17.4961 16.7361 15.8081 16.7361 13.8561C16.7361 12.0001 17.3521 10.3601 18.5841 8.93608ZM21.6081 15.3921C22.0401 15.9041 22.6481 16.1601 23.4321 16.1601C24.1521 16.1601 24.7441 15.9041 25.2081 15.3921C25.6881 14.9281 25.9281 14.2961 25.9281 13.4961C25.9281 12.6801 25.6881 12.0481 25.2081 11.6001C24.7441 11.0881 24.1521 10.8321 23.4321 10.8321C22.6481 10.8321 22.0401 11.0881 21.6081 11.6001C21.1281 12.0481 20.8881 12.6801 20.8881 13.4961C20.8881 14.2961 21.1281 14.9281 21.6081 15.3921Z" fill="#FBFCFD"/>
</svg>
