<svg width="142" height="150" viewBox="0 0 142 150" fill="none" xmlns="http://www.w3.org/2000/svg">
  <path d="M131.331 138.008C131.331 144.627 107.601 150 78.3257 150C49.0503 150 25.3264 144.627 25.3264 138.008C25.3264 131.389 49.0565 126.017 78.3257 126.017C107.595 126.017 131.331 131.383 131.331 138.008Z" fill="#020333" fill-opacity="0.1"/>
  <path d="M111.069 131.242C109.677 136.683 105.399 135.665 99.5913 133.767C107.647 134.238 111.069 131.242 111.069 131.242Z" fill="#231C1D"/>
  <path d="M99.237 99.6667L97.6696 97.8428C92.4302 94.741 87.8091 98.184 80.7712 98.6245C73.8333 99.0588 69.1997 97.6319 64.41 101.168L62.7738 101.95C62.7738 101.95 41.8289 112.707 42.4284 122.111C42.6844 126.181 46.9683 126.398 48.923 125.889C50.7402 125.418 52.445 123.619 53.6815 121.975C53.4309 123.7 53.3514 125.445 53.4442 127.186C55.0428 152.484 66.7518 131.411 82.7946 130.412C98.8373 129.413 112.907 145.797 111.52 123.588C111.385 121.746 111.058 119.923 110.546 118.147C109.896 116.108 109.135 114.106 108.267 112.148C107.16 109.561 105.814 107.081 104.245 104.741C102.956 102.717 101.249 100.987 99.237 99.6667Z" fill="#07BEFF"/>
  <mask id="mask0_511_6872" style="mask-type:alpha" maskUnits="userSpaceOnUse" x="42" y="96" width="70" height="44">
  <path d="M99.237 99.6667L97.6696 97.8428C92.4302 94.741 87.8091 98.184 80.7712 98.6245C73.8333 99.0588 69.1997 97.6319 64.41 101.168L62.7738 101.95C62.7738 101.95 41.8289 112.707 42.4284 122.111C42.6844 126.181 46.9683 126.398 48.923 125.889C50.7402 125.418 52.445 123.619 53.6815 121.975C53.4309 123.7 53.3514 125.445 53.4442 127.186C55.0428 152.484 66.7518 131.411 82.7946 130.412C98.8373 129.413 112.907 145.797 111.52 123.588C111.385 121.746 111.058 119.923 110.546 118.147C109.896 116.108 109.135 114.106 108.267 112.148C107.16 109.561 105.814 107.081 104.245 104.741C102.956 102.717 101.249 100.987 99.237 99.6667Z" fill="#0CA1DD"/>
  <path d="M99.237 99.6667L97.6696 97.8428C92.4302 94.741 87.8091 98.184 80.7712 98.6245C73.8333 99.0588 69.1997 97.6319 64.41 101.168L62.7738 101.95C62.7738 101.95 41.8289 112.707 42.4284 122.111C42.6844 126.181 46.9683 126.398 48.923 125.889C50.7402 125.418 52.445 123.619 53.6815 121.975C53.4309 123.7 53.3514 125.445 53.4442 127.186C55.0428 152.484 66.7518 131.411 82.7946 130.412C98.8373 129.413 112.907 145.797 111.52 123.588C111.385 121.746 111.058 119.923 110.546 118.147C109.896 116.108 109.135 114.106 108.267 112.148C107.16 109.561 105.814 107.081 104.245 104.741C102.956 102.717 101.249 100.987 99.237 99.6667Z" fill="#07BEFF"/>
  </mask>
  <g mask="url(#mask0_511_6872)">
  <g filter="url(#filter0_f_511_6872)">
  <path d="M101.871 105.655C105.449 111.201 106.661 114.768 106.998 120.097C108.403 142.33 96.8066 128.292 80.77 129.29C70.8658 129.911 64.4712 138.174 55.1665 136.319C58.9508 145.854 69.1985 131.263 82.7746 130.413C98.8049 129.408 112.974 145.798 111.501 123.589C110.851 114.228 101.372 104.879 101.871 105.655Z" fill="url(#paint0_linear_511_6872)"/>
  </g>
  <g filter="url(#filter1_f_511_6872)">
  <path d="M54.5625 116.307C52.8015 119.533 50.416 121.642 46.8627 122.56C45.3799 122.93 43.8141 122.781 42.429 122.138C42.7037 126.183 46.9689 126.4 48.9235 125.86C52.4705 124.942 55.6866 118.559 55.6866 118.559L59.3647 108.285C59.3647 108.285 56.3173 113.075 54.5625 116.307Z" fill="url(#paint1_linear_511_6872)"/>
  </g>
  <g filter="url(#filter2_f_511_6872)">
  <path d="M53.4338 127.517C53.4338 127.517 75.9712 129.378 99.8325 122.74C99.8325 122.74 71.9121 131.078 53.7149 130.141L53.4338 127.517Z" fill="url(#paint2_linear_511_6872)"/>
  </g>
  </g>
  <path d="M42.8586 119.194C42.5103 120.125 42.3573 121.118 42.409 122.11C42.665 126.179 46.9489 126.396 48.9035 125.888C49.8366 125.596 50.6907 125.098 51.4014 124.43C45.3565 123.791 43.4269 120.559 42.8586 119.194Z" fill="#020333"/>
  <path d="M26.242 47.1562C26.242 47.1562 13.6401 66.1021 5.78418 66.4991C5.78418 66.4991 5.83414 76.2636 16.6688 77.1197C27.5035 77.9758 30.5884 50.2953 26.242 47.1562Z" fill="white"/>
  <path d="M24.2475 52.8164C24.2475 52.8164 16.7538 67.0847 11.1335 68.0959C11.1335 68.0959 11.9641 74.8454 19.82 74.436C27.6759 74.0265 27.626 54.5844 24.2475 52.8164Z" fill="#0CA1DD"/>
  <path d="M115.448 33.2224C115.448 33.2224 133.308 47.4225 140.901 45.3877C140.901 45.3877 143.874 54.6931 133.832 58.8123C123.791 62.9315 112.282 37.5153 115.448 33.2224Z" fill="white"/>
  <path d="M119.094 37.9736C119.094 37.9736 130.672 49.2766 136.317 48.5198C136.317 48.5198 137.616 55.2011 130.016 57.2048C122.416 59.2086 116.427 40.666 119.094 37.9736Z" fill="#0CA1DD"/>
  <path d="M2.51848 20.7394C2.51848 20.7394 18.0929 38.2336 52.5827 26.1427L27.5475 47.235C27.5475 47.235 1.21957 45.6097 0.695013 22.3833C0.670034 22.4144 0.601342 19.3126 2.51848 20.7394Z" fill="#07BEFF"/>
  <path d="M130.855 0.658386C130.855 0.658386 121.45 22.0546 84.8871 21.0869L115.249 33.5437C115.249 33.5437 139.804 23.953 133.128 1.68819C133.128 1.68819 132.241 -1.28335 130.855 0.658386Z" fill="#07BEFF"/>
  <path d="M130.704 51.4173C141.814 69.8979 135.7 90.3574 80.1219 99.061C24.0814 107.827 12.4287 90.1837 17.181 69.203C22.4266 46.0326 36.446 26.4601 67.7635 21.5593C99.081 16.6584 118.421 30.9826 130.704 51.4173Z" fill="#07BEFF"/>
  <mask id="mask1_511_6872" style="mask-type:alpha" maskUnits="userSpaceOnUse" x="0" y="0" width="136" height="102">
  <path d="M2.51848 20.7394C2.51848 20.7394 18.0929 38.2336 52.5827 26.1427L27.5475 47.235C27.5475 47.235 1.21957 45.6097 0.695013 22.3833C0.670034 22.4144 0.601342 19.3126 2.51848 20.7394Z" fill="url(#paint3_linear_511_6872)"/>
  <path d="M130.855 0.658386C130.855 0.658386 121.45 22.0546 84.8871 21.0869L115.249 33.5437C115.249 33.5437 139.804 23.953 133.128 1.68819C133.128 1.68819 132.241 -1.28335 130.855 0.658386Z" fill="url(#paint4_linear_511_6872)"/>
  <path d="M130.704 51.4173C141.814 69.8979 135.7 90.3574 80.1219 99.061C24.0814 107.827 12.4287 90.1837 17.181 69.203C22.4266 46.0326 36.446 26.4601 67.7635 21.5593C99.081 16.6584 118.421 30.9826 130.704 51.4173Z" fill="url(#paint5_linear_511_6872)"/>
  </mask>
  <g mask="url(#mask1_511_6872)">
  <g filter="url(#filter3_f_511_6872)">
  <path d="M47.569 29.4963L31.4075 40.6132C31.4075 40.6132 4.91726 39.2732 1.20787 20.5383C0.645842 21.0222 0.670821 22.3994 0.670821 22.3994C1.22036 45.6257 27.5233 47.2511 27.5233 47.2511L52.5585 26.1588C48.4807 27.5732 51.1347 28.8077 47.569 29.4963Z" fill="url(#paint6_linear_511_6872)" fill-opacity="0.5"/>
  </g>
  <g filter="url(#filter4_f_511_6872)">
  <path fill-rule="evenodd" clip-rule="evenodd" d="M132.266 0.198242C132.67 0.618595 132.965 1.12928 133.128 1.68711C139.261 22.1427 119.034 31.8794 115.706 33.3267C121.631 38.3286 126.567 44.5264 130.707 51.4151C141.817 69.8957 135.722 90.3552 80.1249 99.0589C24.1156 107.825 12.4629 90.1815 17.2151 69.1761C22.4295 46.0056 36.449 26.4394 67.7977 21.5323C76.0567 20.2395 83.4778 20.2837 90.1539 21.4238C90.7805 21.4261 91.5373 21.3717 92.7121 21.2161L113.364 27.0165C113.364 27.0165 134.215 18.8959 132.266 0.198242ZM87.0534 21.9496C81.0612 21.0975 74.4442 21.1247 67.604 22.195C44.2923 25.8428 23.7158 44.3978 25.9515 58.511C28.1871 72.6242 52.3856 76.8923 75.6973 73.2446C99.0152 69.5969 116.095 55.2169 113.865 41.1161C113.215 37.0026 110.991 33.3684 107.588 30.3746L87.0534 21.9496Z" fill="url(#paint7_linear_511_6872)"/>
  </g>
  </g>
  <path d="M133.797 57.8415C131.162 52.0101 127.727 37.8721 71.7738 46.6254C18.9369 54.8948 17.6692 68.5552 16.2953 75.0814C15.0464 93.3138 29.4093 106.993 80.0919 99.0646C129.332 91.3659 139.761 74.4424 133.797 57.8415Z" fill="white"/>
  <mask id="mask2_511_6872" style="mask-type:alpha" maskUnits="userSpaceOnUse" x="16" y="43" width="120" height="59">
  <path d="M133.797 57.8415C131.162 52.0101 127.727 37.8721 71.7738 46.6254C18.9369 54.8948 17.6692 68.5552 16.2953 75.0814C15.0464 93.3138 29.4093 106.993 80.0919 99.0646C129.332 91.3659 139.761 74.4424 133.797 57.8415Z" fill="white"/>
  </mask>
  <g mask="url(#mask2_511_6872)">
  <g filter="url(#filter5_f_511_6872)">
  <path d="M133.797 57.8452C132.123 54.123 130.119 47.0757 114.532 44.6687C119.871 48.0559 121.12 52.5163 122.182 55.2148C127.583 72.1693 119.577 88.9439 79.4799 95.2158C38.2644 101.674 21.6471 91.4936 22.0905 73.0875C22.4839 70.2896 22.9897 64.4396 26.593 60.1219C15.9331 68.3045 17.1446 71.0403 16.2953 75.0664C15.0464 93.2988 29.4093 106.978 80.0919 99.0496C129.332 91.3695 139.761 74.4461 133.797 57.8452Z" fill="url(#paint8_linear_511_6872)"/>
  </g>
  </g>
  <g filter="url(#filter6_i_511_6872)">
  <path d="M63.5097 66.7207C63.0289 69.9714 58.7762 72.0434 54.0177 71.3486C49.2592 70.6538 45.7808 67.4527 46.2679 64.202C46.755 60.9513 50.9952 58.8793 55.76 59.5741C60.5247 60.2689 63.9906 63.4824 63.5097 66.7207Z" fill="#F1F6FF"/>
  </g>
  <g filter="url(#filter7_i_511_6872)">
  <path d="M90.9433 62.4494C92.4046 65.3961 97.0882 66.0723 101.403 63.9569C105.718 61.8414 108.035 57.7533 106.568 54.7879C105.1 51.8226 100.423 51.165 96.1015 53.2805C91.7801 55.3959 89.4696 59.5027 90.9433 62.4494Z" fill="#F1F6FF"/>
  </g>
  <path d="M107.637 110.51C107.637 110.51 119.708 89.6226 115.412 83.3383C112.152 78.5553 104.608 88.1772 104.608 88.1772C104.608 88.1772 98.7445 95.1562 95.3286 97.4019" fill="#07BEFF"/>
  <path d="M63.4654 100.976C60.0633 102.471 56.7833 104.225 53.6549 106.225C50.287 108.54 47.0533 111.042 43.9692 113.719C45.5354 117.974 49.2282 121.106 53.7048 121.976C53.7048 121.976 53.149 126.082 52.8992 127.211C52.6495 128.34 88.4944 128.452 111.369 118.967L108.428 108.973L113.742 107.732C113.742 107.732 114.785 104.742 111.556 99.3448C109.268 95.7536 106.485 92.4982 103.288 89.6733C103.288 89.6733 97.5618 94.8906 94.6205 96.001C93.7275 96.336 92.8657 96.4973 90.5989 97.2417C88.332 97.9862 90.4115 101.857 80.6634 103.365C73.3696 104.488 70.3533 101.615 68.5923 100.883C67.4433 100.362 64.8018 101.206 63.4654 100.976Z" fill="white"/>
  <path d="M62.9602 102.998C62.9602 102.998 83.0433 108.389 98.3492 98.0911L100.048 99.2201C100.048 99.2201 85.6849 111.447 61.7424 104.369L62.9602 102.998Z" fill="#006EB7"/>
  <path d="M59.095 107.531C59.095 107.531 83.9929 112.494 102.665 102.189L104.257 103.802C104.257 103.802 87.1028 115.124 57.4214 109.69L59.095 107.531Z" fill="#006EB7"/>
  <path d="M55.3479 112.313C55.3479 112.313 84.9606 117.375 106.461 106.599L107.71 108.553C107.71 108.553 87.8144 120.34 54.4299 114.757L55.3479 112.313Z" fill="#006EB7"/>
  <path d="M54.0066 117.464C54.0066 117.464 86.8603 121.391 108.898 111.093L109.366 112.874C109.366 112.874 88.8087 123.742 53.7256 120.07L54.0066 117.464Z" fill="#006EB7"/>
  <path d="M53.5611 123.118C53.5611 123.118 87.6575 124.644 110.17 115.153L110.738 117.082C110.738 117.082 88.9564 126.977 53.2363 125.37L53.5611 123.118Z" fill="#006EB7"/>
  <path d="M60.9691 102.078C60.9739 102.895 61.2383 103.689 61.7247 104.348L59.8513 106.296C59.8513 106.296 58.8147 103.672 58.9083 103.114L60.9691 102.078Z" fill="#006EB7"/>
  <path d="M56.8342 104.355C56.8342 104.355 57.8458 107.339 58.5952 108.164L56.9029 110.534C56.9029 110.534 54.6672 105.949 54.7609 105.385L56.8342 104.355Z" fill="#006EB7"/>
  <path d="M52.6253 107.046C52.6253 107.046 54.4987 111.842 55.2668 112.667L54.099 115.731C54.099 115.731 50.4833 109.019 50.577 108.454C51.2338 107.949 51.9176 107.479 52.6253 107.046Z" fill="#006EB7"/>
  <path d="M48.3473 110.097C48.3473 110.097 49.1654 113.906 54.0051 117.969L53.6929 120.339C53.6929 120.339 46.9048 116.97 46.4614 111.567C47.0503 111.028 47.6809 110.537 48.3473 110.097Z" fill="#006EB7"/>
  <path d="M102.229 90.6096C102.229 90.6096 113.108 99.5428 112.608 108.036L110.847 108.47C110.847 108.47 110.279 98.6061 100.474 92.0427L102.229 90.6096Z" fill="#006EB7"/>
  <path d="M99.2742 92.9199C99.2742 92.9199 109.21 102.287 110.028 108.727L108.454 109.099C108.454 109.099 106.506 101.034 97.5132 94.3592L99.2742 92.9199Z" fill="#006EB7"/>
  <path d="M95.5662 95.4814C95.5662 95.4814 102.816 100.444 104.496 104.353C104.496 104.353 98.6511 97.5286 93.9988 96.2321L95.5662 95.4814Z" fill="#006EB7"/>
  <path d="M68.5954 100.84C67.7149 100.468 65.9664 100.84 64.58 100.977L63.9993 101.597C66.8991 102.375 69.8826 102.804 72.8856 102.875C70.8061 102.236 69.5259 101.25 68.5954 100.84Z" fill="#006EB7"/>
  <path d="M95.7274 95.457C95.3706 95.6559 95.0014 95.832 94.622 95.9843C93.729 96.3193 92.8673 96.4806 90.6004 97.2251C89.4701 97.5973 89.4327 98.7636 88.4272 100.023C89.9759 99.4832 94.341 97.8951 95.7461 96.7288C96.4705 96.1394 96.2332 95.73 95.7274 95.457Z" fill="#006EB7"/>
  <g filter="url(#filter8_f_511_6872)">
  <path d="M89.0316 120.77C86.6961 116.055 83.2427 110.348 81.5816 109.647C79.9205 108.946 79.4022 108.722 79.4022 108.722L78.2094 108.065C78.8935 107.305 79.4179 106.417 79.7519 105.453C89.119 102.636 95.7697 95.5581 95.7697 95.5581C91.773 96.9353 85.1099 98.9949 85.1099 98.9949C83.0366 100.385 80.4638 102.388 79.2023 103.387C78.1532 103.158 75.8676 103.424 74.0879 103.703C71.4339 102.463 68.0554 100.533 68.0554 100.533L63.9214 100.862L62.3228 101.712C63.7091 104.1 69.1233 105.434 71.7648 105.906C72.5206 106.956 73.4471 107.875 74.5063 108.623H74.5438C73.6383 109.591 71.5962 111.824 70.8656 113.139C69.9101 114.851 70.1787 115.447 69.5292 116.979C68.8798 118.511 67.3873 118.933 67.6932 121.086C67.6932 121.086 68.4863 118.487 71.0529 117.984C72.8389 117.649 75.9114 114.882 77.0104 111.886C77.4138 113.664 77.6232 115.479 77.6349 117.302C77.8972 123.611 87.5079 123.592 89.1065 125.757C89.6686 126.514 93.7526 128.363 93.7526 128.363C91.8168 127.389 91.3734 125.484 89.0316 120.77Z" fill="#A3070F" fill-opacity="0.5"/>
  </g>
  <path d="M68.2516 100.418C68.2516 100.418 72.7416 102.707 75.4955 103.774L73.6595 105.802C73.6595 105.802 64.5609 104.928 62.5688 101.813L64.1363 100.901L68.2516 100.418Z" fill="#E50A15"/>
  <path d="M72.011 103.852C72.011 103.852 78.3494 102.295 79.8107 102.878C81.2719 103.461 79.1425 107.643 78.1683 107.934C77.1941 108.226 75.8452 108.716 75.0459 108.226C74.2466 107.736 70.7121 105.019 72.011 103.852Z" fill="#E50A15"/>
  <path d="M85.2245 98.1635C85.2245 98.1635 91.6566 96.9848 95.5971 95.4463C90.9375 99.7742 85.4022 103.065 79.3607 105.099L78.7362 103.443C78.7362 103.443 82.4456 100.217 85.2245 98.1635Z" fill="#E50A15"/>
  <path d="M75.508 107.761C75.508 107.761 72.4668 111.16 71.5925 112.916C70.7182 114.671 70.968 115.248 70.4123 116.805C69.8565 118.363 68.3577 118.846 68.7511 120.987C68.7511 120.987 69.4381 118.363 71.9797 117.779C74.5213 117.196 79.5171 111.458 77.5625 107.562L75.508 107.761Z" fill="#E50A15"/>
  <path d="M78.0311 107.178L79.9046 108.121C79.9046 108.121 80.3417 108.661 82.1214 108.958C85.4686 109.523 87.5044 115.162 90.0336 119.759C92.5627 124.356 93.0997 126.26 95.1043 127.203C95.1043 127.203 90.9453 125.528 90.352 124.79C88.666 122.693 79.0615 123.115 78.5307 116.825C77.9999 110.534 76.9758 110.143 76.9758 110.143C76.9758 110.143 77.3942 107.488 78.0311 107.178Z" fill="#E50A15"/>
  <mask id="mask3_511_6872" style="mask-type:alpha" maskUnits="userSpaceOnUse" x="62" y="95" width="34" height="33">
  <path d="M68.2516 100.418C68.2516 100.418 72.7416 102.707 75.4955 103.774L73.6595 105.802C73.6595 105.802 64.5609 104.928 62.5688 101.813L64.1363 100.901L68.2516 100.418Z" fill="#E50A15"/>
  <path d="M72.011 103.852C72.011 103.852 78.3494 102.295 79.8107 102.878C81.2719 103.461 79.1425 107.643 78.1683 107.934C77.1941 108.226 75.8452 108.716 75.0459 108.226C74.2466 107.736 70.7121 105.019 72.011 103.852Z" fill="#E50A15"/>
  <path d="M85.2245 98.1635C85.2245 98.1635 91.6566 96.9848 95.5971 95.4463C90.9375 99.7742 85.4022 103.065 79.3607 105.099L78.7362 103.443C78.7362 103.443 82.4456 100.217 85.2245 98.1635Z" fill="#E50A15"/>
  <path d="M75.508 107.761C75.508 107.761 72.4668 111.16 71.5925 112.916C70.7182 114.671 70.968 115.248 70.4123 116.805C69.8565 118.363 68.3577 118.846 68.7511 120.987C68.7511 120.987 69.4381 118.363 71.9797 117.779C74.5213 117.196 79.5171 111.458 77.5625 107.562L75.508 107.761Z" fill="#E50A15"/>
  <path d="M78.0311 107.178L79.9046 108.121C79.9046 108.121 80.3417 108.661 82.1214 108.958C85.4686 109.523 87.5044 115.162 90.0336 119.759C92.5627 124.356 93.0997 126.26 95.1043 127.203C95.1043 127.203 90.9453 125.528 90.352 124.79C88.666 122.693 79.0615 123.115 78.5307 116.825C77.9999 110.534 76.9758 110.143 76.9758 110.143C76.9758 110.143 77.3942 107.488 78.0311 107.178Z" fill="#E50A15"/>
  </mask>
  <g mask="url(#mask3_511_6872)">
  <g filter="url(#filter9_f_511_6872)">
  <path d="M72.2049 105.625C72.9895 106.746 74.5392 107.927 75.0445 108.226C75.1005 108.259 75.1601 108.287 75.2227 108.311C75.1227 108.347 75.0234 108.386 74.925 108.428C73.6765 109.82 72.5602 111.323 71.5903 112.919C71.063 113.959 70.942 114.587 70.8137 115.253C70.7262 115.706 70.6353 116.178 70.41 116.809C70.2161 117.281 69.953 117.722 69.6294 118.118C69.7543 118.416 71.9087 116.97 71.7589 114.396C71.6898 113.301 72.2982 112.778 72.9105 112.251C73.4606 111.778 74.0139 111.302 74.0819 110.407C74.1593 109.369 75.3862 108.731 76.475 108.365C77.0249 108.281 77.6032 108.105 78.0837 107.959L78.1669 107.934C78.3477 107.864 78.5071 107.749 78.629 107.599C78.4042 107.587 78.1357 107.58 77.8297 107.593C73.321 107.729 75.5067 103.176 75.5067 103.176L75.3943 103.145C74.1288 103.371 72.9537 103.638 72.3842 103.768C72.2513 103.798 72.1511 103.82 72.0908 103.833C72.0815 103.842 72.0723 103.851 72.0631 103.86C67.9124 103.337 64.3077 102.058 67.4335 100.509L64.1363 100.912L62.5688 101.824C64.0626 104.15 69.5519 105.23 72.2049 105.625Z" fill="url(#paint9_linear_511_6872)"/>
  <path d="M88.5094 123.638C87.7271 122.229 85.9433 121.616 84.2166 121.021C82.1943 120.326 80.2503 119.657 80.0852 117.769C79.8117 115.483 78.994 113.295 77.6997 111.386V111.448C78.1771 113.201 78.468 115 78.5678 116.814C78.9178 120.971 83.2345 122.199 86.6084 123.159C87.3279 123.363 88.0045 123.556 88.5906 123.762C88.5669 123.719 88.5398 123.677 88.5094 123.638Z" fill="url(#paint10_linear_511_6872)"/>
  </g>
  <g filter="url(#filter10_f_511_6872)">
  <path d="M79.927 103.617C80.0533 104.019 80.1206 104.437 80.1268 104.858C82.2818 104.106 84.3705 103.179 86.3716 102.085C84.0735 102.985 81.457 103.822 79.927 103.617Z" fill="url(#paint11_linear_511_6872)"/>
  </g>
  </g>
  <g filter="url(#filter11_f_511_6872)">
  <path d="M88.6519 97.4877C88.6519 97.4877 85.5857 99.8761 84.7864 101.098C83.9871 102.32 89.2202 97.8165 89.9758 97.1155L88.6519 97.4877Z" fill="url(#paint12_linear_511_6872)"/>
  </g>
  <path fill-rule="evenodd" clip-rule="evenodd" d="M102.29 134.597C106.923 135.887 110.208 135.807 111.239 130.596C108.503 133.623 104.682 134.417 102.29 134.597ZM54.9756 136.056C56.7928 140.746 59.9714 140.089 64.2241 137.918C59.2345 138.153 56.4493 137.049 54.9756 136.056Z" fill="#020333"/>
  <path d="M115.412 83.3384C113.95 81.1982 111.665 81.9488 109.517 83.4253C109.729 85.5531 110.89 87.8857 114.512 89.052C115.037 89.2213 115.58 89.3316 116.13 89.3808C116.511 86.8993 116.38 84.7467 115.412 83.3384Z" fill="#020333"/>
  <path d="M53.3313 103.153L58.9516 107.911L49.2223 117L42.0283 110.529C42.0283 110.529 48.1295 104.071 53.3313 103.153Z" fill="white"/>
  <path d="M50.6404 105.283L55.0242 109.806L56.3106 108.751L52.1641 104.446L50.6404 105.283Z" fill="#E50012"/>
  <path d="M48.0134 107.028L52.5221 111.619L53.8897 110.607L49.3935 106.116L48.0134 107.028Z" fill="#E50012"/>
  <path d="M45.5828 108.975L50.104 113.553L51.3904 112.474L46.7318 107.871L45.5828 108.975Z" fill="#E50012"/>
  <g filter="url(#filter12_di_511_6872)">
  <path d="M79.9339 37.4193C80.8393 37.2435 81.7167 37.8301 81.8937 38.7295C82.0875 39.7145 83.0483 40.3569 84.0398 40.1644C85.0313 39.9719 85.678 39.0173 85.4842 38.0324C84.9197 35.163 82.1205 33.2916 79.2321 33.8524C76.3437 34.4132 74.4599 37.1939 75.0244 40.0633C75.2182 41.0483 76.1791 41.6907 77.1706 41.4982C78.1621 41.3057 78.8088 40.3511 78.615 39.3661C78.438 38.4667 79.0285 37.5951 79.9339 37.4193Z" fill="#020333"/>
  <path d="M60.1832 41.4745C59.6188 41.2821 58.9939 41.4034 58.5439 41.7928C58.0939 42.1822 57.8872 42.7805 58.0017 43.3623C58.1955 44.3473 57.5488 45.3018 56.5573 45.4944C55.5658 45.6869 54.6049 45.0445 54.4112 44.0595C54.046 42.2034 54.7053 40.2946 56.1408 39.0524C57.5764 37.8101 59.57 37.423 61.3707 38.0369C63.1715 38.6508 64.5058 40.1724 64.8709 42.0286C65.0647 43.0135 64.4181 43.9681 63.4266 44.1606C62.4351 44.3531 61.4742 43.7107 61.2804 42.7257C61.1659 42.1439 60.7477 41.6669 60.1832 41.4745Z" fill="#020333"/>
  <path fill-rule="evenodd" clip-rule="evenodd" d="M105.611 29.3411C102.133 21.3311 93.4718 16.4313 84.4446 17.9998C77.0115 19.2914 71.0348 24.7358 69.0632 31.9153C64.8719 26.0028 57.4896 22.6893 49.8438 24.0174C42.1124 25.3604 35.9566 31.1977 34.247 38.8075C33.9994 39.9098 33.8521 41.0179 33.8008 42.1205L22.1704 48.4858C21.1319 49.0542 20.7538 50.3513 21.326 51.383C21.8981 52.4147 23.2039 52.7903 24.2424 52.2219L34.1589 46.7946C35.1197 51.5516 37.8743 55.8801 42.0335 58.7819C48.4564 63.263 56.9642 63.4593 63.5896 59.2792C67.7535 56.6521 70.6585 52.6215 71.9067 48.0827C73.1754 49.8769 74.7645 51.4728 76.6385 52.7792C83.0659 57.2601 91.5778 57.4529 98.2041 53.2675C104.77 49.1202 108.203 41.4836 106.944 33.8697L118.948 35.759C120.119 35.9433 121.218 35.1496 121.404 33.9862C121.59 32.8228 120.791 31.7303 119.619 31.5459L105.611 29.3411ZM85.1663 22.0991C93.4438 20.6608 101.329 26.1578 102.782 34.3798C103.847 40.4048 101.153 46.4736 95.9565 49.7557C90.7602 53.0378 84.0852 52.8867 79.0449 49.3728C74.0045 45.8589 71.5917 39.6745 72.9317 33.704C74.2718 27.7335 79.1007 23.1531 85.1663 22.0991ZM50.5653 28.1167C58.843 26.6789 66.7268 32.1792 68.1745 40.4023C69.2348 46.4247 66.5388 52.4885 61.3437 55.7663C56.1486 59.044 49.4774 58.8901 44.4411 55.3763C39.4047 51.8626 36.995 45.6809 38.3355 39.7139C39.6761 33.747 44.503 29.1698 50.5653 28.1167Z" fill="#020333"/>
  </g>
  <path fill-rule="evenodd" clip-rule="evenodd" d="M43.4528 28.5224C43.5675 28.7809 43.4495 29.0829 43.1892 29.1968C42.9325 29.3092 42.4002 29.7071 41.7928 30.3188C41.2006 30.9153 40.5924 31.6595 40.1693 32.4071C40.0299 32.6533 39.7159 32.7407 39.468 32.6023C39.2201 32.4638 39.1321 32.1519 39.2715 31.9056C39.7514 31.0579 40.4225 30.242 41.0595 29.6004C41.6814 28.974 42.3281 28.4557 42.7739 28.2605C43.0342 28.1466 43.3381 28.2638 43.4528 28.5224Z" fill="white"/>
  <path fill-rule="evenodd" clip-rule="evenodd" d="M79.9905 21.8461C80.0737 22.1163 79.9208 22.4023 79.6488 22.485C79.3806 22.5666 78.8048 22.8994 78.1292 23.4359C77.4704 23.959 76.7782 24.6269 76.2694 25.3198C76.1018 25.548 75.7797 25.5981 75.5499 25.4316C75.3201 25.2651 75.2698 24.945 75.4374 24.7168C76.0143 23.9311 76.7775 23.1993 77.4861 22.6367C78.1779 22.0874 78.8815 21.6483 79.3473 21.5067C79.6193 21.424 79.9072 21.5759 79.9905 21.8461Z" fill="white"/>
  <path d="M15.1458 28.1523C12.0921 30.0134 10.6495 31.7504 9.81274 34.9763C9.81274 34.9763 11.4551 30.2306 17.4751 28.8596C16.6632 28.63 15.8889 28.4005 15.1458 28.1523Z" fill="#020333"/>
  <path d="M25.5055 30.2244C22.5455 31.6326 19.1109 36.794 19.8852 41.1737C19.8852 41.1737 21.1342 32.8051 29.1962 30.3981C27.9285 30.3857 26.692 30.3236 25.5055 30.2244Z" fill="#020333"/>
  <path d="M7.29538 24.4978C6.41881 25.0119 5.68484 25.7346 5.15967 26.6008C5.8926 25.7006 6.95 25.1197 8.1072 24.9817C7.82618 24.8204 7.55766 24.6591 7.29538 24.4978Z" fill="#020333"/>
  <path d="M121.133 11.5737C124.624 12.4236 126.528 13.6209 128.314 16.425C128.314 16.425 125.286 12.4112 119.135 12.9509C119.834 12.4919 120.502 12.0328 121.133 11.5737Z" fill="#020333"/>
  <path d="M111.919 16.7085C115.166 17.1427 120.037 21.0076 120.662 25.3936C120.662 25.3936 116.853 17.8189 108.466 17.9492C109.677 17.5956 110.814 17.1614 111.919 16.7085Z" fill="#020333"/>
  <path d="M127.471 5.69336C128.465 5.91721 129.387 6.38181 130.156 7.04575C129.179 6.41867 127.993 6.19604 126.853 6.42539C127.071 6.16483 127.277 5.92289 127.471 5.69336Z" fill="#020333"/>
  <defs>
  <filter id="filter0_f_511_6872" x="50.18" y="100.623" width="66.4128" height="43.9032" filterUnits="userSpaceOnUse" color-interpolation-filters="sRGB">
  <feFlood flood-opacity="0" result="BackgroundImageFix"/>
  <feBlend mode="normal" in="SourceGraphic" in2="BackgroundImageFix" result="shape"/>
  <feGaussianBlur stdDeviation="2.49327" result="effect1_foregroundBlur_511_6872"/>
  </filter>
  <filter id="filter1_f_511_6872" x="36.9719" y="102.828" width="27.8498" height="28.7043" filterUnits="userSpaceOnUse" color-interpolation-filters="sRGB">
  <feFlood flood-opacity="0" result="BackgroundImageFix"/>
  <feBlend mode="normal" in="SourceGraphic" in2="BackgroundImageFix" result="shape"/>
  <feGaussianBlur stdDeviation="2.72851" result="effect1_foregroundBlur_511_6872"/>
  </filter>
  <filter id="filter2_f_511_6872" x="48.4473" y="117.754" width="56.3717" height="17.4474" filterUnits="userSpaceOnUse" color-interpolation-filters="sRGB">
  <feFlood flood-opacity="0" result="BackgroundImageFix"/>
  <feBlend mode="normal" in="SourceGraphic" in2="BackgroundImageFix" result="shape"/>
  <feGaussianBlur stdDeviation="2.49327" result="effect1_foregroundBlur_511_6872"/>
  </filter>
  <filter id="filter3_f_511_6872" x="-4.78637" y="15.0813" width="62.802" height="37.6267" filterUnits="userSpaceOnUse" color-interpolation-filters="sRGB">
  <feFlood flood-opacity="0" result="BackgroundImageFix"/>
  <feBlend mode="normal" in="SourceGraphic" in2="BackgroundImageFix" result="shape"/>
  <feGaussianBlur stdDeviation="2.72851" result="effect1_foregroundBlur_511_6872"/>
  </filter>
  <filter id="filter4_f_511_6872" x="10.7979" y="-5.25878" width="129.975" height="112.076" filterUnits="userSpaceOnUse" color-interpolation-filters="sRGB">
  <feFlood flood-opacity="0" result="BackgroundImageFix"/>
  <feBlend mode="normal" in="SourceGraphic" in2="BackgroundImageFix" result="shape"/>
  <feGaussianBlur stdDeviation="2.72851" result="effect1_foregroundBlur_511_6872"/>
  </filter>
  <filter id="filter5_f_511_6872" x="10.7647" y="39.2117" width="130.002" height="67.5954" filterUnits="userSpaceOnUse" color-interpolation-filters="sRGB">
  <feFlood flood-opacity="0" result="BackgroundImageFix"/>
  <feBlend mode="normal" in="SourceGraphic" in2="BackgroundImageFix" result="shape"/>
  <feGaussianBlur stdDeviation="2.72851" result="effect1_foregroundBlur_511_6872"/>
  </filter>
  <filter id="filter6_i_511_6872" x="46.2224" y="59.4399" width="17.3318" height="17.4997" filterUnits="userSpaceOnUse" color-interpolation-filters="sRGB">
  <feFlood flood-opacity="0" result="BackgroundImageFix"/>
  <feBlend mode="normal" in="SourceGraphic" in2="BackgroundImageFix" result="shape"/>
  <feColorMatrix in="SourceAlpha" type="matrix" values="0 0 0 0 0 0 0 0 0 0 0 0 0 0 0 0 0 0 127 0" result="hardAlpha"/>
  <feOffset dy="5.45702"/>
  <feGaussianBlur stdDeviation="2.72851"/>
  <feComposite in2="hardAlpha" operator="arithmetic" k2="-1" k3="1"/>
  <feColorMatrix type="matrix" values="0 0 0 0 0.803922 0 0 0 0 0.85098 0 0 0 0 0.945098 0 0 0 0.4 0"/>
  <feBlend mode="normal" in2="shape" result="effect1_innerShadow_511_6872"/>
  </filter>
  <filter id="filter7_i_511_6872" x="90.4988" y="52.043" width="16.5098" height="18.6033" filterUnits="userSpaceOnUse" color-interpolation-filters="sRGB">
  <feFlood flood-opacity="0" result="BackgroundImageFix"/>
  <feBlend mode="normal" in="SourceGraphic" in2="BackgroundImageFix" result="shape"/>
  <feColorMatrix in="SourceAlpha" type="matrix" values="0 0 0 0 0 0 0 0 0 0 0 0 0 0 0 0 0 0 127 0" result="hardAlpha"/>
  <feOffset dy="5.45702"/>
  <feGaussianBlur stdDeviation="2.72851"/>
  <feComposite in2="hardAlpha" operator="arithmetic" k2="-1" k3="1"/>
  <feColorMatrix type="matrix" values="0 0 0 0 0.803922 0 0 0 0 0.85098 0 0 0 0 0.945098 0 0 0 0.4 0"/>
  <feBlend mode="normal" in2="shape" result="effect1_innerShadow_511_6872"/>
  </filter>
  <filter id="filter8_f_511_6872" x="56.8657" y="90.1011" width="44.3611" height="43.7187" filterUnits="userSpaceOnUse" color-interpolation-filters="sRGB">
  <feFlood flood-opacity="0" result="BackgroundImageFix"/>
  <feBlend mode="normal" in="SourceGraphic" in2="BackgroundImageFix" result="shape"/>
  <feGaussianBlur stdDeviation="2.72851" result="effect1_foregroundBlur_511_6872"/>
  </filter>
  <filter id="filter9_f_511_6872" x="59.8403" y="97.78" width="31.4788" height="28.7104" filterUnits="userSpaceOnUse" color-interpolation-filters="sRGB">
  <feFlood flood-opacity="0" result="BackgroundImageFix"/>
  <feBlend mode="normal" in="SourceGraphic" in2="BackgroundImageFix" result="shape"/>
  <feGaussianBlur stdDeviation="1.36426" result="effect1_foregroundBlur_511_6872"/>
  </filter>
  <filter id="filter10_f_511_6872" x="77.1985" y="99.3567" width="11.9016" height="8.22997" filterUnits="userSpaceOnUse" color-interpolation-filters="sRGB">
  <feFlood flood-opacity="0" result="BackgroundImageFix"/>
  <feBlend mode="normal" in="SourceGraphic" in2="BackgroundImageFix" result="shape"/>
  <feGaussianBlur stdDeviation="1.36426" result="effect1_foregroundBlur_511_6872"/>
  </filter>
  <filter id="filter11_f_511_6872" x="81.9751" y="94.387" width="10.7292" height="9.64892" filterUnits="userSpaceOnUse" color-interpolation-filters="sRGB">
  <feFlood flood-opacity="0" result="BackgroundImageFix"/>
  <feBlend mode="normal" in="SourceGraphic" in2="BackgroundImageFix" result="shape"/>
  <feGaussianBlur stdDeviation="1.36426" result="effect1_foregroundBlur_511_6872"/>
  </filter>
  <filter id="filter12_di_511_6872" x="16.0725" y="17.7083" width="110.345" height="54.5485" filterUnits="userSpaceOnUse" color-interpolation-filters="sRGB">
  <feFlood flood-opacity="0" result="BackgroundImageFix"/>
  <feColorMatrix in="SourceAlpha" type="matrix" values="0 0 0 0 0 0 0 0 0 0 0 0 0 0 0 0 0 0 127 0" result="hardAlpha"/>
  <feOffset dy="4.98653"/>
  <feGaussianBlur stdDeviation="2.49327"/>
  <feComposite in2="hardAlpha" operator="out"/>
  <feColorMatrix type="matrix" values="0 0 0 0 0 0 0 0 0 0 0 0 0 0 0 0 0 0 0.1 0"/>
  <feBlend mode="normal" in2="BackgroundImageFix" result="effect1_dropShadow_511_6872"/>
  <feBlend mode="normal" in="SourceGraphic" in2="effect1_dropShadow_511_6872" result="shape"/>
  <feColorMatrix in="SourceAlpha" type="matrix" values="0 0 0 0 0 0 0 0 0 0 0 0 0 0 0 0 0 0 127 0" result="hardAlpha"/>
  <feOffset dy="4.98653"/>
  <feComposite in2="hardAlpha" operator="arithmetic" k2="-1" k3="1"/>
  <feColorMatrix type="matrix" values="0 0 0 0 0.642205 0 0 0 0 0.642205 0 0 0 0 0.642205 0 0 0 0.09 0"/>
  <feBlend mode="normal" in2="shape" result="effect2_innerShadow_511_6872"/>
  </filter>
  <linearGradient id="paint0_linear_511_6872" x1="111.785" y1="116.788" x2="55.1542" y2="133.665" gradientUnits="userSpaceOnUse">
  <stop stop-color="#0B77C5" stop-opacity="0.81"/>
  <stop offset="0.940905" stop-color="#0B77C5"/>
  </linearGradient>
  <linearGradient id="paint1_linear_511_6872" x1="59.4183" y1="114.147" x2="41.4391" y2="117.213" gradientUnits="userSpaceOnUse">
  <stop stop-color="#0B77C5"/>
  <stop offset="0.526332" stop-color="#0B84CC"/>
  <stop offset="0.988259" stop-color="#0B63CB"/>
  </linearGradient>
  <linearGradient id="paint2_linear_511_6872" x1="99.9793" y1="125.203" x2="77.3183" y2="150.406" gradientUnits="userSpaceOnUse">
  <stop stop-color="#0B77C5"/>
  <stop offset="0.940905" stop-color="#0B77C5"/>
  </linearGradient>
  <linearGradient id="paint3_linear_511_6872" x1="60.2296" y1="32.1912" x2="76.002" y2="99.4864" gradientUnits="userSpaceOnUse">
  <stop stop-color="#36C1F9"/>
  <stop offset="1" stop-color="#0CA1DD"/>
  </linearGradient>
  <linearGradient id="paint4_linear_511_6872" x1="74.4899" y1="40.1454" x2="90.5811" y2="94.413" gradientUnits="userSpaceOnUse">
  <stop stop-color="#1FB3EF"/>
  <stop offset="1" stop-color="#0CA1DD"/>
  </linearGradient>
  <linearGradient id="paint5_linear_511_6872" x1="69.3862" y1="20.593" x2="83.2869" y2="101.394" gradientUnits="userSpaceOnUse">
  <stop stop-color="#15B0EF"/>
  <stop offset="1" stop-color="#0CA1DD"/>
  </linearGradient>
  <linearGradient id="paint6_linear_511_6872" x1="52.7227" y1="29.3393" x2="0.750284" y2="34.8617" gradientUnits="userSpaceOnUse">
  <stop stop-color="#0B77C5"/>
  <stop offset="0.11208" stop-color="#1D9FDC"/>
  <stop offset="0.246758" stop-color="#0889DD"/>
  <stop offset="1" stop-color="#088ADD"/>
  </linearGradient>
  <linearGradient id="paint7_linear_511_6872" x1="135.693" y1="33.5275" x2="15.589" y2="41.26" gradientUnits="userSpaceOnUse">
  <stop offset="0.0162613" stop-color="#0B77C5"/>
  <stop offset="0.11208" stop-color="#1D9FDC"/>
  <stop offset="0.246758" stop-color="#0889DD"/>
  <stop offset="0.758052" stop-color="#0B90C5"/>
  <stop offset="1" stop-color="#088ADD"/>
  </linearGradient>
  <linearGradient id="paint8_linear_511_6872" x1="135.686" y1="63.3433" x2="16.6303" y2="77.0264" gradientUnits="userSpaceOnUse">
  <stop stop-color="#F4F6FE"/>
  <stop offset="0.11208" stop-color="#D2DFFD"/>
  <stop offset="0.246758" stop-color="white"/>
  <stop offset="0.758052" stop-color="#CBD8F1"/>
  <stop offset="1" stop-color="#E5ECFF"/>
  </linearGradient>
  <linearGradient id="paint9_linear_511_6872" x1="67.102" y1="102.46" x2="72.8226" y2="124.478" gradientUnits="userSpaceOnUse">
  <stop stop-color="#C71019"/>
  <stop offset="0.277822" stop-color="#BA0D15"/>
  <stop offset="1" stop-color="#99040B"/>
  </linearGradient>
  <linearGradient id="paint10_linear_511_6872" x1="67.102" y1="102.46" x2="72.8226" y2="124.478" gradientUnits="userSpaceOnUse">
  <stop stop-color="#C71019"/>
  <stop offset="0.277822" stop-color="#BA0D15"/>
  <stop offset="1" stop-color="#99040B"/>
  </linearGradient>
  <linearGradient id="paint11_linear_511_6872" x1="81.0497" y1="102.318" x2="81.3949" y2="105.078" gradientUnits="userSpaceOnUse">
  <stop stop-color="#C71019"/>
  <stop offset="0.277822" stop-color="#BA0D15"/>
  <stop offset="1" stop-color="#99040B"/>
  </linearGradient>
  <linearGradient id="paint12_linear_511_6872" x1="85.6221" y1="97.4672" x2="86.5518" y2="101.489" gradientUnits="userSpaceOnUse">
  <stop stop-color="#C71019"/>
  <stop offset="0.277822" stop-color="#BA0D15"/>
  <stop offset="1" stop-color="#99040B"/>
  </linearGradient>
  </defs>
</svg>
