<svg width="24" height="24" viewBox="0 0 24 24" fill="none" xmlns="http://www.w3.org/2000/svg">
  <path d="M6.49959 18.7317L6.49275 18.7395L7.02595 19.262L7.03279 19.2542L7.21443 19.4319L5.19685 20.5862L3.31013 21.4505C3.06777 21.5608 2.81687 21.3145 2.93025 21.0774L3.81209 19.2317L4.98689 17.2522L6.49959 18.7317ZM20.0162 7.24148L8.02693 18.9661C8.02427 18.9687 8.02133 18.971 8.01814 18.9729L7.88728 19.0471L7.56599 18.7327L19.6627 6.89578L20.0162 7.24148ZM19.1295 6.37429L7.03279 18.2102L5.37947 16.593L5.45564 16.4651C5.45764 16.4617 5.45968 16.4581 5.46248 16.4553L17.4508 4.73074L19.1295 6.37429Z" fill="#0BC0CF"/>
  <path d="M17.9106 4.27464L18.4156 3.73952C19.1021 3.01208 19.9552 2.90822 20.9011 3.73981C21.9999 4.76588 21.5872 5.64687 20.9008 6.37421L20.4664 6.76643L17.9106 4.27464Z" fill="#0BC0CF"/>
  <path d="M17.9106 4.27464L18.4156 3.73952C19.1021 3.01208 19.9552 2.90822 20.9011 3.73981C21.9999 4.76588 21.5872 5.64687 20.9008 6.37421L20.4664 6.76643L17.9106 4.27464Z" fill="#0BC0CF"/>
  <path d="M21.4706 18.4759C22.1764 19.1677 22.1764 20.289 21.4706 20.9808C20.7644 21.6727 19.6192 21.6727 18.913 20.9808L7.2626 9.56672L9.82218 7.06281L21.4706 18.4759ZM10.4159 2.52375C10.4544 2.4909 10.5126 2.49229 10.5487 2.52766L11.6288 3.58528C11.8145 3.76724 11.8143 4.06236 11.6288 4.24445L9.28702 6.5384L9.28897 6.54035L6.7294 9.04426L4.96573 10.7728C4.77989 10.9546 4.47866 10.9547 4.29288 10.7728L2.13956 8.66242C1.95373 8.48034 1.95372 8.18532 2.13956 8.00324L7.01358 3.22785C7.03906 3.20289 7.07688 3.19387 7.11124 3.20442C7.43906 3.30654 7.78893 3.36164 8.15128 3.36164C9.01929 3.36157 9.81221 3.04513 10.4159 2.52375Z" fill="#0BC0CF"/>
</svg>
