<svg width="24" height="24" viewBox="0 0 24 24" fill="none" xmlns="http://www.w3.org/2000/svg">
<path d="M21 4.5V7.70001C21 7.86601 20.866 8 20.7 8H3.30005C3.13405 8 3 7.86601 3 7.70001V4.5C3 3.5 3.5 3 4.5 3H19.5C20.5 3 21 3.5 21 4.5ZM20 9.79999V18C20 20 19 21 17 21H7C5 21 4 20 4 18V9.79999C4 9.63399 4.13405 9.5 4.30005 9.5H19.7C19.866 9.5 20 9.63399 20 9.79999ZM14.75 12C14.75 11.59 14.41 11.25 14 11.25H10C9.59 11.25 9.25 11.59 9.25 12C9.25 12.41 9.59 12.75 10 12.75H14C14.41 12.75 14.75 12.41 14.75 12Z" fill="currentColor"/>
</svg>
