<svg xmlns="http://www.w3.org/2000/svg" width="18" height="18" viewBox="0 0 18 18" fill="none">
  <path d="M16.9007 8.22612C16.0922 4.59331 14.9504 3.69707 14.2561 3.3382C13.1438 2.76218 11.8528 3.09712 11.4255 3.31428C10.9393 3.55904 10.6115 4.02649 10.1179 4.22892C9.54701 4.46264 8.76983 4.52522 8.18603 4.24365C7.72009 4.01913 7.3094 3.5388 6.74586 3.32532C6.0313 3.05479 4.83975 2.67753 3.66294 3.50383C3.38301 3.70075 1.39587 5.33128 0.801014 10.429C0.432684 13.5723 2.19146 14.5826 2.127 14.5366C2.58005 14.855 3.59296 15.3905 4.96683 14.5495C5.88397 13.9882 6.62984 12.8766 6.62984 12.8766C6.62984 12.8766 6.96133 12.2583 7.40333 11.997C7.71457 11.8111 8.18235 11.9528 8.18235 11.9528H9.83431C9.83431 11.9528 10.3592 11.8884 10.7257 12.0466C11.0829 12.1994 11.2855 12.5767 11.2855 12.5767C11.2855 12.5767 12.3739 13.9551 13.4163 14.6562C13.8602 14.9544 15.6447 15.2985 16.5674 14.1961C17.1659 13.4766 17.5766 11.259 16.9007 8.22612ZM8.07921 7.90406C8.07921 8.18011 7.85453 8.40279 7.57829 8.40279H6.32781V9.65421C6.32781 9.93026 6.10312 10.1548 5.82688 10.1548H5.45118C5.17493 10.1548 4.95025 9.9321 4.95025 9.65421V8.40279H3.69977C3.42352 8.40279 3.19884 8.18011 3.19884 7.90406V7.52863C3.19884 7.25258 3.42352 7.02806 3.69977 7.02806H4.95025V5.77848C4.95025 5.50243 5.17493 5.27791 5.45118 5.27791H5.82688C6.10312 5.27791 6.32781 5.50243 6.32781 5.77848V7.02806H7.57829C7.85453 7.02806 8.07921 7.25074 8.07921 7.52863V7.90406ZM11.6041 9.65421C11.0866 9.65421 10.6667 9.23462 10.6667 8.71565C10.6667 8.19851 11.0866 7.77892 11.6041 7.77892C12.1216 7.77892 12.5415 8.19851 12.5415 8.71565C12.5415 9.23462 12.1216 9.65421 11.6041 9.65421ZM13.3242 7.57096C12.8123 7.57096 12.396 7.15505 12.396 6.64343C12.396 6.13182 12.8123 5.71775 13.3242 5.71775C13.8362 5.71775 14.2524 6.13366 14.2524 6.64343C14.2506 7.15505 13.8362 7.57096 13.3242 7.57096Z" fill="currentColor"/>
</svg>