<svg xmlns="http://www.w3.org/2000/svg" width="16" height="12" viewBox="0 0 16 12" fill="none">
  <path
      d="M11.1992 0C11.7507 -8.72207e-05 12.2971 0.112567 12.8066 0.331055C13.3162 0.549601 13.7799 0.869547 14.1699 1.27344C14.56 1.67737 14.869 2.15776 15.0801 2.68555C15.2911 3.21317 15.4004 3.77853 15.4004 4.34961V7.25C15.4004 7.82128 15.2912 8.38725 15.0801 8.91504C14.869 9.44271 14.5599 9.92231 14.1699 10.3262C13.7799 10.7301 13.3162 11.051 12.8066 11.2695C12.2972 11.488 11.7506 11.5997 11.1992 11.5996H4.2002C3.64882 11.5997 3.10222 11.488 2.59277 11.2695C2.08327 11.051 1.62044 10.73 1.23047 10.3262C0.840481 9.92231 0.530399 9.44275 0.319336 8.91504C0.108392 8.38748 1.84337e-05 7.82199 0 7.25098V4.34961C5.7422e-05 3.19604 0.442922 2.09011 1.23047 1.27441C2.01807 0.458666 3.08637 0 4.2002 0H11.1992ZM4.79492 3.63379V5.07812H3.35059V6.52246H4.79492V7.9668H6.24023L6.23926 6.52246H7.68457V5.07812H6.24023V3.63379H4.79492ZM10.5742 6.52246V7.9668H12.0186V6.52246H10.5742ZM9.12988 3.63379V5.07812H10.5742V3.63379H9.12988Z"
      fill="currentColor"
  />
</svg>