<svg xmlns="http://www.w3.org/2000/svg" width="16" height="16" viewBox="0 0 16 16" fill="none">
  <path d="M11.5 2.19995C12.0515 2.19986 12.5979 2.31252 13.1074 2.53101C13.617 2.74955 14.0807 3.0695 14.4707 3.47339C14.8608 3.87732 15.1698 4.35771 15.3809 4.8855C15.5918 5.41312 15.7011 5.97848 15.7012 6.54956V9.44995C15.7012 10.0212 15.592 10.5872 15.3809 11.115C15.1698 11.6427 14.8607 12.1223 14.4707 12.5261C14.0807 12.9301 13.617 13.2509 13.1074 13.4695C12.5979 13.6879 12.0514 13.7996 11.5 13.7996H4.50098C3.9496 13.7996 3.403 13.6879 2.89355 13.4695C2.38405 13.251 1.92122 12.93 1.53125 12.5261C1.14126 12.1223 0.83118 11.6427 0.620117 11.115C0.409173 10.5874 0.3008 10.0219 0.300781 9.45093V6.54956C0.300839 5.39599 0.743703 4.29006 1.53125 3.47437C2.31885 2.65862 3.38715 2.19995 4.50098 2.19995H11.5ZM5.0957 5.83374V7.27808H3.65137V8.72241H5.0957V10.1667H6.54102L6.54004 8.72241H7.98535V7.27808H6.54102V5.83374H5.0957ZM10.875 8.72241V10.1667H12.3193V8.72241H10.875ZM9.43066 5.83374V7.27808H10.875V5.83374H9.43066Z" fill="currentColor"/>
</svg>