<svg xmlns="http://www.w3.org/2000/svg" width="18" height="18" viewBox="0 0 18 18" fill="none">
  <path d="M11.1363 4.13111V15.3053C11.1363 15.4621 10.9796 15.5708 10.8326 15.5161L7.00755 14.0798C6.9198 14.0468 6.8613 13.9628 6.8613 13.869V2.69483C6.8613 2.53808 7.01805 2.42932 7.16505 2.48407L10.9901 3.92035C11.0786 3.95335 11.1363 4.03736 11.1363 4.13111ZM5.41005 2.60181L3.07381 3.77625C2.56756 4.0305 2.24805 4.54887 2.24805 5.11512V14.6251C2.24805 15.1876 2.83306 15.5475 3.33556 15.3L5.61181 14.1549C5.68756 14.1166 5.73554 14.0385 5.73554 13.9538V2.80213C5.73629 2.63488 5.56005 2.52606 5.41005 2.60181ZM14.6613 2.70014L12.3851 3.84528C12.3093 3.88353 12.2613 3.96158 12.2613 4.04633V15.198C12.2613 15.3653 12.4376 15.4741 12.5876 15.3991L14.9163 14.2275C15.4271 13.971 15.7488 13.4483 15.7488 12.8768V3.37506C15.7488 2.81256 15.1638 2.45264 14.6613 2.70014Z" fill="currentColor"/>
</svg>