<svg width="18" height="18" viewBox="0 0 18 18" fill="none" xmlns="http://www.w3.org/2000/svg">
<path d="M17.83 11.6C16.9 11.06 16.33 10.07 16.33 9C16.33 7.93 16.9 6.93999 17.83 6.39999C17.99 6.29999 18.05 6.1 17.95 5.94L16.28 3.06C16.22 2.95 16.11 2.89001 16 2.89001C15.94 2.89001 15.88 2.91 15.83 2.94C15.37 3.2 14.85 3.34 14.33 3.34C13.8 3.34 13.28 3.19999 12.81 2.92999C11.88 2.38999 11.31 1.41 11.31 0.339996C11.31 0.149996 11.16 0 10.98 0H7.01999C6.83999 0 6.69 0.149996 6.69 0.339996C6.69 1.41 6.12 2.38999 5.19 2.92999C4.72 3.19999 4.20001 3.34 3.67001 3.34C3.15001 3.34 2.63001 3.2 2.17001 2.94C2.01001 2.84 1.81 2.9 1.72 3.06L0.0400085 5.94C0.0100085 5.99 0 6.05001 0 6.10001C0 6.22001 0.0600134 6.32999 0.170013 6.39999C1.10001 6.93999 1.67001 7.91999 1.67001 8.98999C1.67001 10.07 1.09999 11.06 0.179993 11.6H0.170013C0.0100134 11.7 -0.0500122 11.9 0.0499878 12.06L1.72 14.94C1.78 15.05 1.89 15.11 2 15.11C2.06 15.11 2.12001 15.09 2.17001 15.06C3.11001 14.53 4.26 14.53 5.19 15.07C6.11 15.61 6.67999 16.59 6.67999 17.66C6.67999 17.85 6.82999 18 7.01999 18H10.98C11.16 18 11.31 17.85 11.31 17.66C11.31 16.59 11.88 15.61 12.81 15.07C13.28 14.8 13.8 14.66 14.33 14.66C14.85 14.66 15.37 14.8 15.83 15.06C15.99 15.16 16.19 15.1 16.28 14.94L17.96 12.06C17.99 12.01 18 11.95 18 11.9C18 11.78 17.94 11.67 17.83 11.6ZM9 12C7.34 12 6 10.66 6 9C6 7.34 7.34 6 9 6C10.66 6 12 7.34 12 9C12 10.66 10.66 12 9 12Z" fill="#0BC0CF"/>
</svg>
