<svg xmlns="http://www.w3.org/2000/svg" width="16" height="16" viewBox="0 0 16 16" fill="none">
  <path d="M9.89872 3.6721V13.6047C9.89872 13.744 9.75939 13.8407 9.62872 13.792L6.22872 12.5154C6.15072 12.486 6.09871 12.4114 6.09871 12.328V2.3954C6.09871 2.25607 6.23805 2.1594 6.36871 2.20807L9.76872 3.48476C9.84738 3.51409 9.89872 3.58876 9.89872 3.6721ZM4.80872 2.31272L2.73206 3.35667C2.28206 3.58267 1.99805 4.04344 1.99805 4.54677V13.0001C1.99805 13.5001 2.51806 13.82 2.96472 13.6L4.98806 12.5821C5.05539 12.5481 5.09804 12.4787 5.09804 12.4034V2.49078C5.09871 2.34211 4.94205 2.24539 4.80872 2.31272ZM13.032 2.40012L11.0087 3.41803C10.9414 3.45203 10.8987 3.5214 10.8987 3.59674V13.5093C10.8987 13.658 11.0554 13.7547 11.1887 13.688L13.2587 12.6467C13.7127 12.4187 13.9987 11.954 13.9987 11.446V3.00006C13.9987 2.50006 13.4787 2.18012 13.032 2.40012Z" fill="currentColor"/>
</svg>