<svg xmlns="http://www.w3.org/2000/svg" width="12" height="12" viewBox="0 0 12 12" fill="none">
  <path
      d="M7.90068 1.47678V11.4094C7.90068 11.5487 7.76134 11.6454 7.63068 11.5967L4.23067 10.32C4.15267 10.2907 4.10067 10.216 4.10067 10.1327V0.20009C4.10067 0.0607566 4.24 -0.035914 4.37067 0.0127527L7.77067 1.28945C7.84934 1.31878 7.90068 1.39345 7.90068 1.47678ZM2.81067 0.117408L0.734009 1.16135C0.284009 1.38735 0 1.84812 0 2.35146V10.8047C0 11.3047 0.520008 11.6247 0.966675 11.4047L2.99001 10.3868C3.05734 10.3528 3.1 10.2834 3.1 10.2081V0.295467C3.10066 0.146801 2.944 0.0500743 2.81067 0.117408ZM11.034 0.20481L9.01068 1.22271C8.94335 1.25671 8.90068 1.32609 8.90068 1.40142V11.314C8.90068 11.4627 9.05734 11.5594 9.19067 11.4927L11.2607 10.4514C11.7147 10.2234 12.0007 9.75871 12.0007 9.25071V0.804745C12.0007 0.304745 11.4807 -0.0151901 11.034 0.20481Z"
      fill="currentColor"
  />
</svg>