<svg width="24" height="24" viewBox="0 0 24 24" fill="none" xmlns="http://www.w3.org/2000/svg">
<path d="M17 9C15 9 14 8 14 6V3H8C6 3 5 4 5 6V18C5 20 6 21 8 21H17C19 21 20 20 20 18V9H17Z" fill="#51DADC"/>
<path d="M17 9H20L14 3V6C14 8 15 9 17 9Z" fill="#0AA5BE"/>
<path d="M13.2746 9.20438C13.3189 9.19892 13.4206 9.19995 13.4691 9.20018C13.8961 9.20362 14.3146 9.32021 14.6818 9.53805C15.3546 9.93532 15.7966 10.6307 15.8706 11.4085C15.8918 11.6271 15.8743 11.8617 15.8664 12.0822C15.8541 12.4229 15.8399 12.7635 15.8237 13.104C15.8174 13.2379 15.8093 13.3718 15.7993 13.5055C15.7884 13.6619 15.7613 13.74 15.8371 13.8838C15.9475 14.093 16.0323 14.3245 16.0904 14.5538C16.3193 15.4239 16.1867 16.3496 15.7227 17.1204C15.2262 17.944 14.4249 18.5384 13.4927 18.7746C13.3535 18.8092 13.2141 18.8346 13.0719 18.8542C12.9775 18.8671 12.8213 18.8655 12.7353 18.8934C12.6648 18.9163 12.5397 19.0196 12.4649 19.0616C12.225 19.1967 12.0178 19.2712 11.7525 19.3383C11.6602 19.3563 11.563 19.3744 11.4695 19.3826C10.8172 19.4416 10.1684 19.2376 9.66718 18.8161C9.21443 18.4358 8.91697 17.9027 8.8312 17.3177C8.79863 17.0847 8.80206 16.8099 8.80072 16.5733C8.79906 16.2824 8.79916 15.9913 8.81707 15.7009C8.83769 15.3431 8.81925 14.9814 8.87011 14.6262C8.90848 14.3583 8.99413 14.1463 9.09122 13.9004C9.10286 13.8709 9.08979 13.7519 9.08595 13.7138C9.04976 13.3561 9.06873 12.9984 9.11475 12.6425C9.18488 11.8833 9.40843 11.1449 9.90976 10.5509C10.3628 10.0135 10.9944 9.65733 11.6887 9.54766C11.8803 9.51684 12.059 9.50776 12.2513 9.49933C12.2929 9.49752 12.4696 9.40016 12.5249 9.37766C12.7706 9.27776 13.0106 9.22701 13.2746 9.20438Z" fill="#FEFEFE"/>
<path d="M13.3787 10.32C13.4296 10.3147 13.4815 10.3181 13.5325 10.3219C14.0326 10.3589 14.4721 10.6705 14.6615 11.1366C14.7132 11.2639 14.7448 11.3984 14.7554 11.5354C14.7632 11.6427 14.756 11.7705 14.7523 11.8798L14.731 12.4277C14.7224 12.6926 14.7118 12.9574 14.6992 13.2221C14.6867 13.5091 14.6975 13.7363 14.5832 14.0068C14.6058 14.0341 14.6278 14.062 14.6492 14.0904C14.9943 14.5556 15.1413 15.1721 15.0542 15.7435C14.861 17.0127 13.5609 17.9375 12.3045 17.7456C12.2565 17.7928 12.2056 17.8573 12.1557 17.9069C12.0015 18.0602 11.8634 18.1383 11.6625 18.2094C11.5453 18.2445 11.4706 18.2577 11.3503 18.2649C10.9722 18.2875 10.6343 18.1775 10.3544 17.919C10.0751 17.6609 9.93309 17.3231 9.93016 16.9445C9.92719 16.7703 9.91518 16.5942 9.9173 16.4201C9.92239 15.9984 9.95222 15.5766 9.9564 15.1551C9.95811 14.9821 9.95783 14.8279 10.003 14.6583C10.0591 14.4481 10.1568 14.287 10.3037 14.1299C10.1478 13.6119 10.1878 13.0995 10.2645 12.5732C10.3564 11.9428 10.5405 11.3892 11.0752 10.9866C11.4955 10.6702 12.0594 10.5738 12.5736 10.6488C12.8291 10.4368 13.046 10.342 13.3787 10.32Z" fill="#51DADC"/>
<path d="M13.3853 11.3168C13.8112 11.2845 13.7393 11.673 13.7266 11.9505L13.7045 12.5009L13.6802 13.0938C13.6758 13.2164 13.6705 13.3402 13.6651 13.4641C13.6546 13.705 13.3901 13.8232 13.1979 13.7033C13.0298 13.5986 13.0684 13.3313 13.0206 13.1535C12.9424 12.8621 12.8339 12.6454 12.6015 12.4463C12.537 12.3861 12.4745 12.3271 12.3984 12.2815C12.2482 12.1913 12.025 12.1996 11.9417 12.3757C11.8629 12.5423 11.8475 12.7335 11.8203 12.9141C11.7976 13.065 11.7819 13.2198 11.7821 13.3724C11.7824 13.4778 11.7936 13.5663 11.8212 13.6669C11.9192 14.0241 12.237 14.0118 12.5358 14.0659C13.1447 14.1782 13.8459 14.4274 14.0347 15.0866C14.1276 15.4112 14.0851 15.7105 13.9203 16.0043C13.7212 16.3521 13.3915 16.606 13.0044 16.7095C12.4717 16.8545 11.9841 16.6787 11.5243 16.4181C11.5244 16.5673 11.5255 16.7189 11.5328 16.8679C11.5427 17.0704 11.4832 17.2081 11.276 17.2608C11.0531 17.2914 10.932 17.1406 10.9238 16.9315C10.9048 16.4477 10.9237 15.9666 10.9431 15.4833C10.9526 15.3116 10.9372 15.1424 10.9584 14.9709C10.9952 14.6735 11.4135 14.6015 11.5341 14.8773C11.5653 14.9488 11.5614 15.0617 11.5677 15.1407C11.5852 15.3574 11.6355 15.59 11.7996 15.7455C12.0338 15.9609 12.2563 16.12 12.5819 16.1285C13.0028 16.1395 13.4627 15.802 13.4646 15.3582C13.4666 14.8689 12.8046 14.7156 12.4267 14.6373C12.2674 14.6043 12.0931 14.5874 11.9369 14.5382C11.4012 14.3776 11.1981 13.8639 11.1974 13.3436C11.1914 13.1695 11.218 12.9966 11.2379 12.8255C11.3063 12.2368 11.4767 11.6204 12.1904 11.6183C12.6333 11.6169 12.8433 11.8093 13.1477 12.1046C13.143 11.9782 13.1467 11.8486 13.1434 11.7226C13.1381 11.5147 13.1686 11.3858 13.3853 11.3168Z" fill="#FEFEFE"/>
</svg>
