<svg xmlns="http://www.w3.org/2000/svg" width="18" height="18" viewBox="0 0 18 18" fill="none">
  <path d="M5.65796 11.4453C5.73054 11.4454 5.80267 11.4615 5.8689 11.4912C5.93497 11.5209 5.99448 11.5641 6.04272 11.6182L7.27124 12.9932C8.18637 14.0164 9.78899 14.0144 10.7019 12.9893L11.9207 11.6191C11.9689 11.5647 12.0291 11.5211 12.0955 11.4912C12.1618 11.4614 12.2337 11.4454 12.3064 11.4453H14.0496C14.1601 11.4454 14.2678 11.4802 14.3582 11.5439C14.4486 11.6078 14.5174 11.6985 14.5544 11.8027L15.407 14.1982C15.4356 14.279 15.4441 14.3663 15.4324 14.4512C15.4206 14.5358 15.3889 14.6167 15.3396 14.6865C15.2901 14.7566 15.2243 14.814 15.1482 14.8535C15.072 14.893 14.9869 14.9141 14.9011 14.9141H3.07788C2.99214 14.9141 2.90695 14.8929 2.83081 14.8535C2.75472 14.8141 2.68884 14.7565 2.6394 14.6865C2.59015 14.6167 2.55838 14.5358 2.54663 14.4512C2.53497 14.3663 2.54339 14.279 2.57202 14.1982L3.42358 11.8027C3.46066 11.6985 3.52948 11.6078 3.61987 11.5439C3.71016 11.4802 3.81797 11.4454 3.92847 11.4453H5.65796ZM8.98901 2.74219C10.0771 2.74019 11.1229 3.16624 11.9001 3.92773C12.2816 4.30099 12.5846 4.74645 12.7917 5.23828C12.9989 5.73024 13.1067 6.25918 13.1072 6.79297C13.1068 9.71193 9.96091 12.4223 9.92847 12.4502C9.38559 12.9686 8.62762 13.0142 8.02319 12.4531C8.02319 12.4531 4.87227 9.57558 4.87183 6.79297C4.87183 4.55526 6.71639 2.74246 8.98901 2.74219ZM9.69214 4.92871C9.35596 4.78947 8.98555 4.75323 8.62866 4.82422C8.27197 4.89528 7.94444 5.07094 7.68726 5.32812C7.43011 5.58539 7.25431 5.91277 7.18335 6.26953C7.11241 6.62633 7.14964 6.99593 7.28882 7.33203C7.42801 7.66808 7.6632 7.95605 7.96558 8.1582C8.268 8.36023 8.62435 8.46867 8.98804 8.46875C9.22952 8.46871 9.46903 8.42053 9.69214 8.32812C9.91516 8.23574 10.1181 8.10032 10.2888 7.92969C10.4596 7.75887 10.5948 7.5552 10.6873 7.33203C10.7796 7.109 10.8278 6.8703 10.8279 6.62891C10.8279 6.26507 10.7194 5.90898 10.5173 5.60645C10.3152 5.30401 10.0282 5.06794 9.69214 4.92871Z" fill="currentColor"/>
</svg>