<svg width="24" height="24" viewBox="0 0 24 24" fill="none" xmlns="http://www.w3.org/2000/svg">
  <path d="M22 13C22 15.76 19.76 18 17 18C17 18 10.46 18 10.299 18C10.138 18 9.99996 17.878 9.99996 17.7C9.99996 17.522 9.99996 15.57 9.99996 15.57C9.99996 14.55 9.63996 13.72 8.99996 13.19V12.75C8.99996 10.575 7.26694 8.80698 5.10494 8.75098C4.83494 8.74898 4.75306 8.47602 4.85006 8.29602C5.95706 6.32502 8.06898 5 10.499 5C12.149 5 13.649 5.61 14.789 6.62C15.269 7.05 15.689 7.54003 16.029 8.09003C16.349 8.03003 16.669 8 16.999 8C19.76 8 22 10.24 22 13Z" fill="#51DADC"/>
  <path d="M7.5 14.075V12.75C7.5 11.372 6.379 10.25 5 10.25C3.621 10.25 2.5 11.372 2.5 12.75V14.075C1.845 14.237 1.5 14.724 1.5 15.572V17.929C1.5 18.976 2 19.5 3 19.5H7C8 19.5 8.5 18.976 8.5 17.929V15.572C8.5 14.723 8.155 14.236 7.5 14.075ZM5 11.75C5.552 11.75 6 12.198 6 12.75V14H4V12.75C4 12.198 4.448 11.75 5 11.75Z" fill="#0AA5BE"/>
</svg>
