<svg width="270" height="190" viewBox="0 0 270 190" fill="none" xmlns="http://www.w3.org/2000/svg">
  <path opacity="0.1" d="M237.929 180.13L237.042 174.646C236.895 173.737 236.039 173.119 235.13 173.266L229.646 174.153C228.737 174.3 228.119 175.156 228.266 176.065L229.153 181.549C229.3 182.458 230.156 183.076 231.064 182.929L236.549 182.042C237.458 181.895 238.076 181.039 237.929 180.13Z" fill="#1CB0F6"/>
  <path opacity="0.1" d="M181.296 174.869L180.023 172.051C179.31 170.471 177.452 169.769 175.872 170.482L173.054 171.754C171.474 172.467 170.772 174.325 171.485 175.905L172.757 178.723C173.47 180.303 175.328 181.005 176.908 180.292L179.726 179.02C181.306 178.307 182.009 176.449 181.296 174.869Z" fill="#1CB0F6"/>
  <path opacity="0.1" d="M41.3077 153.28L39.4625 153.635C38.6548 153.79 38.1259 154.571 38.2812 155.379L38.636 157.224C38.7914 158.032 39.572 158.561 40.3797 158.405L42.2249 158.05C43.0326 157.895 43.5615 157.114 43.4062 156.307L43.0514 154.461C42.896 153.654 42.1154 153.125 41.3077 153.28Z" fill="#1CB0F6"/>
  <path opacity="0.1" d="M67.6947 30.1353L67.2116 27.5867C66.9409 26.1582 65.5634 25.2197 64.135 25.4904L61.5864 25.9735C60.1579 26.2442 59.2194 27.6217 59.4901 29.0501L59.9732 31.5987C60.2439 33.0271 61.6214 33.9657 63.0498 33.695L65.5984 33.2119C67.0269 32.9412 67.9654 31.5637 67.6947 30.1353Z" fill="#1CB0F6"/>
  <path opacity="0.09" d="M175.541 119.56L123.252 103.459C117.048 101.549 110.47 105.03 108.559 111.234L92.459 163.523C90.5486 169.727 94.0295 176.305 100.234 178.216L149 179.5C155.204 181.411 163.285 175.175 168 183.5L183.316 134.253C185.226 128.048 181.745 121.47 175.541 119.56Z" fill="#1CB0F6"/>
  <path opacity="0.09" d="M201.162 52.3498L181.046 57.9632C177.926 58.8337 176.103 62.0682 176.974 65.1876L182.587 85.3043C183.457 88.4238 186.692 90.247 189.811 89.3765L209.928 83.7631C213.048 82.8926 214.871 79.6581 214 76.5386L208.387 56.422C207.516 53.3025 204.282 51.4793 201.162 52.3498Z" fill="#1CB0F6"/>
  <path opacity="0.09" d="M251.766 128.333L233.28 121.231C229.617 119.824 225.507 121.652 224.099 125.315L216.997 143.801C215.59 147.464 217.418 151.574 221.081 152.982L239.568 160.084C243.23 161.491 247.341 159.663 248.748 156L255.85 137.513C257.257 133.851 255.429 129.74 251.766 128.333Z" fill="#1CB0F6"/>
  <path opacity="0.1" d="M100.727 109.231L99.2057 109.523C98.5398 109.651 98.1038 110.295 98.2318 110.961L98.5244 112.482C98.6524 113.148 99.296 113.584 99.9619 113.456L101.483 113.163C102.149 113.035 102.585 112.392 102.457 111.726L102.164 110.205C102.036 109.539 101.393 109.103 100.727 109.231Z" fill="#1CB0F6"/>
  <path opacity="0.1" d="M115.057 56.168L114.665 54.0994C114.445 52.94 113.327 52.1783 112.168 52.398L110.099 52.79C108.94 53.0098 108.178 54.1278 108.398 55.2872L108.79 57.3557C109.01 58.5151 110.128 59.2769 111.287 59.0572L113.356 58.6651C114.515 58.4454 115.277 57.3274 115.057 56.168Z" fill="#1CB0F6"/>
  <path opacity="0.1" d="M260.455 112.466L259.595 109.257C259.113 107.458 257.265 106.391 255.466 106.873L252.257 107.733C250.458 108.215 249.391 110.064 249.873 111.862L250.733 115.071C251.214 116.87 253.063 117.937 254.862 117.455L258.071 116.596C259.87 116.114 260.937 114.265 260.455 112.466Z" fill="#1CB0F6"/>
  <path opacity="0.1" d="M92.9994 83.5413L91.324 79.2784C91.0464 78.572 90.2486 78.2243 89.5421 78.502L85.2793 80.1774C84.5728 80.455 84.2252 81.2528 84.5029 81.9593L86.1783 86.2221C86.4559 86.9286 87.2537 87.2762 87.9601 86.9985L92.223 85.3232C92.9295 85.0455 93.2771 84.2477 92.9994 83.5413Z" fill="#1CB0F6"/>
  <path opacity="0.1" d="M241.278 12.0455L238.152 10.6504C237.348 10.2913 236.404 10.6525 236.045 11.457L234.65 14.583C234.291 15.3875 234.652 16.3308 235.457 16.6899L238.583 18.085C239.387 18.4441 240.33 18.0829 240.69 17.2784L242.085 14.1524C242.444 13.3478 242.083 12.4046 241.278 12.0455Z" fill="#1CB0F6"/>
  <g opacity="0.7">
  <path fill-rule="evenodd" clip-rule="evenodd" d="M148.477 17.0605C105.337 17.0605 69.2387 47.2517 60.1763 87.6617C59.6734 89.9038 57.448 91.3137 55.2059 90.8108C52.9639 90.3079 51.5539 88.083 52.0568 85.8404C61.9529 41.7133 101.36 8.73926 148.477 8.73926C195.595 8.73926 235.002 41.7133 244.898 85.8404C245.401 88.083 243.991 90.3079 241.749 90.8108C239.507 91.3137 237.281 89.9038 236.779 87.6617C227.716 47.2517 191.618 17.0605 148.477 17.0605Z" fill="#E6F7FF" fill-opacity="0.686275"/>
  <path opacity="0.14" d="M148.478 8.73926V17.0605" stroke="#1CB0F6" stroke-width="1.04016"/>
  <path d="M78.5264 37.7327L84.5073 43.7136" stroke="#1CB0F6" stroke-width="1.04016"/>
  <path d="M212.448 43.7136L218.429 37.7327" stroke="#1CB0F6" stroke-width="1.04016"/>
  <path opacity="0.2" fill-rule="evenodd" clip-rule="evenodd" d="M148.477 17.0605C105.337 17.0605 69.2387 47.2517 60.1763 87.6617C59.6734 89.9038 57.448 91.3137 55.2059 90.8108C52.9639 90.3079 51.5539 88.083 52.0568 85.8404C61.9529 41.7133 101.36 8.73926 148.477 8.73926C195.595 8.73926 235.002 41.7133 244.898 85.8404C245.401 88.083 243.991 90.3079 241.749 90.8108C239.507 91.3137 237.281 89.9038 236.779 87.6617C227.716 47.2517 191.618 17.0605 148.477 17.0605Z" stroke="#1CB0F6" stroke-width="0.78" stroke-linecap="round"/>
  <path opacity="0.2" d="M56.1162 86.7506C65.5957 44.482 103.348 12.8994 148.477 12.8994C161.878 12.8994 174.63 15.6845 186.183 20.7074" stroke="#1CB0F6" stroke-width="8.32126" stroke-linecap="round"/>
  <path opacity="0.1" d="M243.739 80.5105C231.807 39.3574 193.674 9.25977 148.478 9.25977C103.281 9.25977 65.1485 39.3574 53.2153 80.5105" stroke="#1CB0F6" stroke-width="5" stroke-linecap="round"/>
  </g>
  <g opacity="0.16">
  <path d="M262.326 47.6196L249.413 41.1631M246.869 41.6522L233.565 54.9566M230.826 55.7392L218.304 52.6087M215.8 53.3913L202.026 68.2609" stroke="#1CB0F6" stroke-linecap="round"/>
  <path d="M201.087 71.0006C201.951 71.0006 202.652 70.2998 202.652 69.4353C202.652 68.5709 201.951 67.8701 201.087 67.8701C200.222 67.8701 199.521 68.5709 199.521 69.4353C199.521 70.2998 200.222 71.0006 201.087 71.0006Z" stroke="#1CB0F6"/>
  <path d="M216.739 53.7829C217.603 53.7829 218.304 53.0821 218.304 52.2177C218.304 51.3532 217.603 50.6525 216.739 50.6525C215.874 50.6525 215.173 51.3532 215.173 52.2177C215.173 53.0821 215.874 53.7829 216.739 53.7829Z" stroke="#1CB0F6"/>
  <path d="M232.391 57.6959C233.256 57.6959 233.957 56.9951 233.957 56.1306C233.957 55.2662 233.256 54.5654 232.391 54.5654C231.527 54.5654 230.826 55.2662 230.826 56.1306C230.826 56.9951 231.527 57.6959 232.391 57.6959Z" stroke="#1CB0F6"/>
  <path d="M248.043 42.0435C248.908 42.0435 249.609 41.3427 249.609 40.4783C249.609 39.6139 248.908 38.9131 248.043 38.9131C247.179 38.9131 246.478 39.6139 246.478 40.4783C246.478 41.3427 247.179 42.0435 248.043 42.0435Z" stroke="#1CB0F6"/>
  <path d="M263.695 49.8694C264.56 49.8694 265.261 49.1687 265.261 48.3042C265.261 47.4398 264.56 46.739 263.695 46.739C262.831 46.739 262.13 47.4398 262.13 48.3042C262.13 49.1687 262.831 49.8694 263.695 49.8694Z" stroke="#1CB0F6"/>
  </g>
  <g opacity="0.16">
  <path d="M216.369 128.021V135.848" stroke="#1CB0F6" stroke-linecap="round"/>
  <path d="M221.064 120.195V143.673" stroke="#1CB0F6" stroke-linecap="round"/>
  <path d="M225.76 124.108V139.761" stroke="#1CB0F6" stroke-linecap="round"/>
  <path d="M230.456 116.282V147.586" stroke="#1CB0F6" stroke-linecap="round"/>
  <path d="M235.152 112.368V151.499" stroke="#1CB0F6" stroke-linecap="round"/>
  <path d="M239.847 108.456V155.413" stroke="#1CB0F6" stroke-linecap="round"/>
  <path d="M244.543 116.282V147.586" stroke="#1CB0F6" stroke-linecap="round"/>
  <path d="M249.238 124.108V139.761" stroke="#1CB0F6" stroke-linecap="round"/>
  <path d="M253.935 120.195V143.673" stroke="#1CB0F6" stroke-linecap="round"/>
  <path d="M258.63 128.021V135.848" stroke="#1CB0F6" stroke-linecap="round"/>
  </g>
  <path opacity="0.16" d="M4.67285 136.13C12.1076 136.13 6.62937 160 15.4337 160C24.2381 160 20.325 121.652 29.7163 121.652C39.1076 121.652 32.8468 146.891 41.0642 146.891C49.2815 146.891 45.3685 130.652 52.8033 130.652C59.0642 130.652 55.1511 150.022 62.9772 150.022C70.8033 150.022 67.8685 108.935 76.6729 108.935C85.4772 108.935 78.825 142.195 87.6294 142.195C94.6729 142.195 91.5424 113.043 97.6076 113.043" stroke="#1CB0F6" stroke-linecap="round"/>
  <path opacity="0.12" d="M190.607 130.13C183.173 130.13 188.651 154 179.847 154C171.042 154 174.955 115.652 165.564 115.652C156.173 115.652 162.434 140.891 154.216 140.891C145.999 140.891 149.912 124.652 142.477 124.652C136.216 124.652 140.129 144.022 132.303 144.022C124.477 144.022 127.412 102.935 118.607 102.935C109.803 102.935 116.455 136.195 107.651 136.195C100.607 136.195 103.738 107.043 97.6726 107.043" stroke="#1CB0F6" stroke-linecap="round"/>
  <path d="M26.3002 37.8848H122.152C125.679 37.8848 128.564 40.77 128.564 44.2963V95.5885C128.564 99.1148 125.679 102 122.152 102H26.3002C22.7739 102 19.8887 99.1148 19.8887 95.5885V44.2963C19.8887 40.77 22.7739 37.8848 26.3002 37.8848Z" fill="white"/>
  <path d="M26.3002 37.8848H122.152C125.679 37.8848 128.564 40.77 128.564 44.2963V95.5885C128.564 99.1148 125.679 102 122.152 102H26.3002C22.7739 102 19.8887 99.1148 19.8887 95.5885V44.2963C19.8887 40.77 22.7739 37.8848 26.3002 37.8848Z" fill="#1CB0F6" fill-opacity="0.14"/>
  <path opacity="0.9" d="M76.3093 62.8898L83.362 75.0717C84.0031 76.354 83.6825 77.6363 82.4002 78.2775C82.0797 78.598 81.7591 78.598 81.1179 78.598H67.3332C66.0509 78.598 64.7686 77.6363 64.7686 76.354C64.7686 76.0334 64.7686 75.3923 65.0891 75.0717L72.1418 62.8898C72.783 61.6075 74.3858 61.2869 75.3476 61.9281C75.9887 62.2487 76.3093 62.5692 76.3093 62.8898ZM96.5056 60.3252H109.329C111.252 60.3252 112.534 61.6075 112.534 63.531V76.354C112.534 78.2775 111.252 79.5598 109.329 79.5598H96.5056C94.5821 79.5598 93.2998 78.2775 93.2998 76.354V63.531C93.2998 61.6075 94.5821 60.3252 96.5056 60.3252Z" fill="white"/>
  <path opacity="0.9" d="M35.9175 69.9425C35.9175 72.4931 36.9307 74.9393 38.7343 76.7429C40.5379 78.5465 42.9841 79.5598 45.5348 79.5598C48.0854 79.5598 50.5316 78.5465 52.3352 76.7429C54.1388 74.9393 55.1521 72.4931 55.1521 69.9425C55.1521 67.3918 54.1388 64.9456 52.3352 63.142C50.5316 61.3384 48.0854 60.3252 45.5348 60.3252C42.9841 60.3252 40.5379 61.3384 38.7343 63.142C36.9307 64.9456 35.9175 67.3918 35.9175 69.9425Z" fill="white"/>
  <path d="M81.7878 120.947H113.491C123.954 120.947 132.514 129.507 132.514 139.969V178.014H62.7656V139.969C62.7656 129.507 71.3256 120.947 81.7878 120.947Z" fill="#073156" stroke="#073156" stroke-linecap="round" stroke-linejoin="round"/>
  <path d="M148.368 162.162V155.821C148.368 141.871 136.954 130.458 123.005 130.458H53.2568V139.969C53.2568 146.944 58.9635 152.651 65.9383 152.651H78.6198V178.013H164.22C167.707 178.013 170.56 175.16 170.56 171.673C170.56 166.283 166.439 162.162 161.049 162.162H148.368Z" fill="#FFCA58" stroke="#073156" stroke-linecap="round" stroke-linejoin="round"/>
  <path d="M148.368 157.821C148.368 143.871 136.954 132.458 123.005 132.458H121.5" stroke="white" stroke-linecap="round" stroke-linejoin="round"/>
  <path d="M121.418 130.458V144.725C121.418 150.748 116.346 155.821 110.322 155.821C104.298 155.821 99.2256 150.748 99.2256 144.725V130.458H121.418Z" stroke="#073156" stroke-linecap="round" stroke-linejoin="round"/>
  <path d="M103.983 130.458L110.324 143.139L116.665 130.458H103.983ZM170.561 171.673C170.561 166.283 166.44 162.162 161.05 162.162H135.687V171.673C135.687 175.16 138.54 178.013 142.028 178.013H164.22C167.708 178.013 170.561 175.16 170.561 171.673Z" fill="#EACAAC" stroke="#073156" stroke-linecap="round" stroke-linejoin="round"/>
  <path d="M135.684 152.65V178.013H148.365" stroke="#073156" stroke-linecap="round" stroke-linejoin="round"/>
  <path d="M65.9383 92.4132C64.0361 92.4132 62.7679 93.6814 62.7679 95.5836V101.924C57.3783 101.924 53.2568 106.046 53.2568 111.435V139.969C53.2568 146.943 58.9635 152.65 65.9383 152.65H69.1087V95.5836C69.1087 93.6814 67.8405 92.4132 65.9383 92.4132Z" fill="#EACAAC" stroke="#073156" stroke-linecap="round" stroke-linejoin="round"/>
  <path d="M62.767 114.602C60.8648 114.602 59.5967 113.334 59.5967 111.432C59.5967 109.53 60.8648 108.262 62.767 108.262H64.3522C66.8885 108.262 69.1078 110.481 69.1078 113.017V114.602" stroke="#073156" stroke-linecap="round" stroke-linejoin="round"/>
  <path d="M63 110C65.5363 110 67.7555 111.219 67.7555 113.756V115.341" stroke="white" stroke-linecap="round" stroke-linejoin="round"/>
  <path d="M75.446 81.3165C75.446 83.4186 76.2811 85.4346 77.7675 86.921C79.2539 88.4074 81.2699 89.2424 83.372 89.2424C85.474 89.2424 87.49 88.4074 88.9764 86.921C90.4628 85.4346 91.2979 83.4186 91.2979 81.3165C91.2979 79.2145 90.4628 77.1985 88.9764 75.7121C87.49 74.2257 85.474 73.3906 83.372 73.3906C81.2699 73.3906 79.2539 74.2257 77.7675 75.7121C76.2811 77.1985 75.446 79.2145 75.446 81.3165Z" fill="#073156" stroke="#073156" stroke-linecap="round" stroke-linejoin="round"/>
  <path d="M129.346 81.3165C129.346 83.4186 130.181 85.4346 131.667 86.921C133.154 88.4074 135.17 89.2424 137.272 89.2424C139.374 89.2424 141.39 88.4074 142.876 86.921C144.362 85.4346 145.198 83.4186 145.198 81.3165C145.198 79.2145 144.362 77.1985 142.876 75.7121C141.39 74.2257 139.374 73.3906 137.272 73.3906C135.17 73.3906 133.154 74.2257 131.667 75.7121C130.181 77.1985 129.346 79.2145 129.346 81.3165Z" fill="#073156" stroke="#073156" stroke-linecap="round" stroke-linejoin="round"/>
  <path d="M78.6201 152.65H84.9608" stroke="#073156" stroke-linecap="round" stroke-linejoin="round"/>
  <path d="M81.7881 101.924C81.7881 105.671 82.5261 109.381 83.9601 112.843C85.394 116.305 87.4957 119.45 90.1453 122.1C92.7948 124.75 95.9403 126.851 99.4022 128.285C102.864 129.719 106.574 130.457 110.321 130.457C114.068 130.457 117.779 129.719 121.241 128.285C124.702 126.851 127.848 124.75 130.497 122.1C133.147 119.45 135.249 116.305 136.683 112.843C138.117 109.381 138.855 105.671 138.855 101.924C138.855 98.1769 138.117 94.4665 136.683 91.0047C135.249 87.5429 133.147 84.3974 130.497 81.7478C127.848 79.0983 124.702 76.9965 121.241 75.5626C117.779 74.1287 114.068 73.3906 110.321 73.3906C106.574 73.3906 102.864 74.1287 99.4022 75.5626C95.9403 76.9965 92.7948 79.0983 90.1453 81.7478C87.4957 84.3974 85.394 87.5429 83.9601 91.0047C82.5261 94.4665 81.7881 98.1769 81.7881 101.924Z" fill="#EACAAC" stroke="#073156" stroke-linecap="round" stroke-linejoin="round"/>
  <path d="M97.9998 128C101.462 129.434 106.574 129.457 110.321 129.457C114.068 129.457 117.779 128.719 121.241 127.285C124.702 125.851 127.848 123.75 130.497 121.1C133.147 118.45 135.249 115.305 136.683 111.843C138.117 108.381 138.855 104.671 138.855 100.924C138.855 97.1768 138.117 93.4665 136.683 90.0047C135.249 86.5428 133.147 83.3974 130.497 80.7478" stroke="#073156" stroke-opacity="0.1" stroke-width="2" stroke-linecap="round" stroke-linejoin="round"/>
  <path d="M103.983 113.02C103.983 117.458 107.471 120.946 111.909 120.946C116.348 120.946 119.835 117.458 119.835 113.02H103.983Z" fill="#073156" stroke="#073156" stroke-linecap="round" stroke-linejoin="round"/>
  <path d="M105.566 117.774C105.566 118.615 106.234 119.421 107.424 120.016C108.613 120.61 110.225 120.944 111.907 120.944C113.589 120.944 115.202 120.61 116.391 120.016C117.58 119.421 118.248 118.615 118.248 117.774C118.248 116.933 117.58 116.127 116.391 115.532C115.202 114.938 113.589 114.604 111.907 114.604C110.225 114.604 108.613 114.938 107.424 115.532C106.234 116.127 105.566 116.933 105.566 117.774Z" fill="#FF4E5E" stroke="#073156" stroke-linecap="round" stroke-linejoin="round"/>
  <path opacity="0.1" d="M110.321 76.3906C94.4695 76.3906 81.7881 89.0721 81.7881 104.924C97.6399 104.924 110.321 92.2424 110.321 76.3906Z" fill="#073156"/>
  <path d="M110.321 73.3906C94.4695 73.3906 81.7881 86.0721 81.7881 101.924C97.6399 101.924 110.321 89.2424 110.321 73.3906ZM110.321 73.3906C126.173 73.3906 138.855 86.0721 138.855 101.924C123.003 101.924 110.321 89.2424 110.321 73.3906Z" fill="#073156"/>
  <path d="M110.321 73.3906C94.4695 73.3906 81.7881 86.0721 81.7881 101.924C97.6399 101.924 110.321 89.2424 110.321 73.3906ZM110.321 73.3906C126.173 73.3906 138.855 86.0721 138.855 101.924C123.003 101.924 110.321 89.2424 110.321 73.3906Z" stroke="#073156" stroke-linecap="round" stroke-linejoin="round"/>
  <path d="M91.2988 114.605C91.2988 115.446 91.6328 116.252 92.2274 116.847C92.822 117.441 93.6284 117.775 94.4692 117.775C95.31 117.775 96.1164 117.441 96.711 116.847C97.3055 116.252 97.6396 115.446 97.6396 114.605C97.6396 113.764 97.3055 112.958 96.711 112.363C96.1164 111.769 95.31 111.435 94.4692 111.435C93.6284 111.435 92.822 111.769 92.2274 112.363C91.6328 112.958 91.2988 113.764 91.2988 114.605Z" fill="#F89C70" fill-opacity="0.32"/>
  <path d="M126.173 114.605C126.173 115.446 126.507 116.252 127.101 116.847C127.696 117.441 128.502 117.775 129.343 117.775C130.184 117.775 130.99 117.441 131.585 116.847C132.18 116.252 132.514 115.446 132.514 114.605C132.514 113.764 132.18 112.958 131.585 112.363C130.99 111.769 130.184 111.435 129.343 111.435C128.502 111.435 127.696 111.769 127.101 112.363C126.507 112.958 126.173 113.764 126.173 114.605Z" fill="#F89C70" fill-opacity="0.32"/>
  <path d="M102.396 90.8281C106.834 90.8281 110.322 94.3155 110.322 98.754C110.322 103.193 106.834 106.68 102.396 106.68C97.9571 106.68 94.4697 103.193 94.4697 98.754C94.4697 94.3155 97.9571 90.8281 102.396 90.8281Z" fill="white" stroke="#073156" stroke-linecap="round" stroke-linejoin="round"/>
  <path d="M124.588 90.8281C129.027 90.8281 132.514 94.3155 132.514 98.754C132.514 103.193 129.027 106.68 124.588 106.68C120.15 106.68 116.662 103.193 116.662 98.754C116.662 94.3155 120.15 90.8281 124.588 90.8281Z" fill="white" stroke="#073156" stroke-linecap="round" stroke-linejoin="round"/>
  <path d="M108.5 93.6492C107.129 92.5079 105.355 91.8281 103.396 91.8281C98.9571 91.8281 95.4697 95.3155 95.4697 99.754C95.4697 100.916 95.7089 102.014 96.1417 103" stroke="#073156" stroke-opacity="0.1" stroke-width="2" stroke-linecap="round" stroke-linejoin="round"/>
  <path d="M128.5 92.3627C127.602 92.017 126.621 91.8281 125.588 91.8281C121.15 91.8281 117.662 95.3155 117.662 99.754C117.662 101.782 118.39 103.611 119.604 105" stroke="#073156" stroke-opacity="0.1" stroke-width="2" stroke-linecap="round" stroke-linejoin="round"/>
  <path d="M132.514 98.7503L138.855 101.921M124.588 98.1162V99.3844M110.321 98.7503H116.662M94.4695 98.7503L81.7881 101.921" stroke="#073156" stroke-linecap="round" stroke-linejoin="round"/>
  <path d="M103.983 98.1162V99.3844" stroke="#073156" stroke-width="4.19901" stroke-linecap="round" stroke-linejoin="round"/>
  <path d="M124.6 98.1162V99.3844" stroke="#073156" stroke-width="4.19901" stroke-linecap="round" stroke-linejoin="round"/>
  <path d="M86.3012 178.012H54.5976C51.1102 178.012 48.2568 175.158 48.2568 171.671C48.2568 168.183 51.1102 165.33 54.5976 165.33H86.3012V178.012Z" fill="#219FFC" stroke="#073156" stroke-linecap="round" stroke-linejoin="round"/>
  <path opacity="0.2" d="M84.3013 176.012H52.5977" stroke="#073156" stroke-width="2" stroke-linecap="round" stroke-linejoin="round"/>
  <path d="M105.324 178.012H79.9608C76.4734 178.012 73.6201 175.158 73.6201 171.671C73.6201 168.183 76.4734 165.33 79.9608 165.33H105.324V178.012Z" fill="white" stroke="#073156" stroke-linecap="round" stroke-linejoin="round"/>
  <path d="M150.535 95.584H232.965C236.452 95.584 239.305 98.4373 239.305 101.925V158.991C239.305 162.479 236.452 165.332 232.965 165.332H150.535C147.048 165.332 144.194 162.479 144.194 158.991V101.925C144.194 98.4373 147.048 95.584 150.535 95.584Z" fill="#A8B4C4" stroke="#073156" stroke-linecap="round" stroke-linejoin="round"/>
  <path d="M201.259 171.673C201.259 175.16 198.406 178.014 194.919 178.014H175.896C179.384 178.014 182.237 175.16 182.237 171.673V155.821C182.237 152.334 185.091 149.48 188.578 149.48H194.919C198.406 149.48 201.259 152.334 201.259 155.821V171.673Z" fill="#8B9CB0" stroke="#073156" stroke-linecap="round" stroke-linejoin="round"/>
  <rect x="28" y="177.229" width="230" height="7" rx="3.5" fill="#3C5D87" stroke="#073156" stroke-linecap="round" stroke-linejoin="round"/>
  <path d="M197.95 128.536L198.244 128.242C199.024 127.462 199.024 126.196 198.244 125.415L197.95 125.121C197.763 124.933 197.657 124.679 197.657 124.414C197.657 124.261 197.472 124.185 197.364 124.293L190.293 131.364C190.185 131.472 190.261 131.657 190.414 131.657C190.679 131.657 190.934 131.762 191.121 131.949L191.416 132.243C192.197 133.024 193.462 133.024 194.243 132.243L194.537 131.949C194.725 131.762 194.979 131.657 195.245 131.657H195.659C196.763 131.657 197.657 130.762 197.657 129.658V129.244C197.657 128.978 197.763 128.724 197.95 128.536Z" stroke="#073156" stroke-opacity="0.2" stroke-width="1.5"/>
  <path fill-rule="evenodd" clip-rule="evenodd" d="M197.415 127.413L197.121 127.707C196.933 127.895 196.828 128.15 196.828 128.415V128.829C196.828 129.933 195.933 130.828 194.829 130.828H194.415C194.15 130.828 193.896 130.933 193.708 131.12L193.413 131.414C192.633 132.195 191.367 132.195 190.587 131.414L190.292 131.12C190.105 130.933 189.85 130.828 189.585 130.828H189.171C188.067 130.828 187.172 129.933 187.172 128.829V128.415C187.172 128.15 187.067 127.895 186.879 127.707L186.585 127.413C185.805 126.633 185.805 125.367 186.585 124.587L186.879 124.293C187.067 124.105 187.172 123.85 187.172 123.585V123.171C187.172 122.067 188.067 121.172 189.171 121.172H189.585C189.85 121.172 190.104 121.067 190.292 120.88L190.587 120.586C191.367 119.805 192.633 119.805 193.413 120.586L193.708 120.88C193.895 121.067 194.15 121.172 194.415 121.172H194.829C195.933 121.172 196.828 122.067 196.828 123.171V123.585C196.828 123.85 196.933 124.105 197.121 124.293L197.415 124.587C198.195 125.367 198.195 126.633 197.415 127.413Z" fill="#F2F6FB" stroke="#073156"/>
  <path d="M225.154 75.4582H179.921L171.337 86.2473C170.353 87.2509 168.876 87.2509 167.891 86.2473C167.399 85.7455 167.153 85.2436 167.153 84.4909V75.4582H154.846C149.431 75.4582 145 70.9419 145 65.4219V43.0363C145 37.5164 149.431 33 154.846 33H225.154C230.569 33 235 37.5164 235 43.0363V65.4219C235 70.9419 230.569 75.4582 225.154 75.4582Z" fill="white" stroke="#073156" stroke-linecap="round" stroke-linejoin="round"/>
  <path d="M158.419 53.6568H157.607V56.0125H158.818V57.3605C158.667 57.3787 158.534 57.3969 158.419 57.415C158.312 57.4332 158.166 57.4377 157.979 57.4286C157.669 57.4286 157.367 57.3605 157.074 57.2244C156.79 57.0791 156.541 56.8794 156.328 56.6252C156.124 56.3711 155.965 56.067 155.849 55.7129C155.734 55.3498 155.681 54.955 155.689 54.5283C155.689 54.1652 155.747 53.8157 155.862 53.4798C155.978 53.144 156.133 52.8489 156.328 52.5948C156.533 52.3406 156.772 52.1363 157.047 51.982C157.331 51.8186 157.638 51.7324 157.966 51.7233C158.401 51.6961 158.947 51.7551 159.604 51.9003C160.261 52.0365 160.793 52.3315 161.201 52.7854V49.8306C161.006 49.7035 160.753 49.5946 160.442 49.5038C160.141 49.413 159.861 49.3268 159.604 49.2451C159.346 49.1543 159.08 49.0908 158.805 49.0545C158.539 49.0182 158.281 49 158.033 49C157.269 49 156.581 49.1407 155.969 49.4221C155.357 49.6944 154.828 50.0848 154.385 50.5931C153.941 51.1015 153.599 51.7006 153.359 52.3905C153.12 53.0713 153 53.8157 153 54.6236C153 55.5405 153.12 56.3575 153.359 57.0746C153.599 57.7827 153.932 58.3818 154.358 58.872C154.784 59.3622 155.29 59.7389 155.876 60.0021C156.47 60.2745 157.127 60.4106 157.846 60.4106C158.121 60.4106 158.388 60.4016 158.645 60.3834C158.902 60.3743 159.164 60.3426 159.431 60.2881C159.706 60.2427 159.985 60.1792 160.269 60.0975C160.553 60.0248 160.864 59.9295 161.201 59.8115V53.6705H159.404C159.067 53.6614 158.738 53.6568 158.419 53.6568Z" fill="#FBB547"/>
  <path d="M158.419 53.6568H157.607V56.0125H158.818V57.3605C158.667 57.3787 158.534 57.3969 158.419 57.415C158.312 57.4332 158.166 57.4377 157.979 57.4286C157.669 57.4286 157.367 57.3605 157.074 57.2244C156.79 57.0791 156.541 56.8794 156.328 56.6252C156.124 56.3711 155.965 56.067 155.849 55.7129C155.734 55.3498 155.681 54.955 155.689 54.5283C155.689 54.1652 155.747 53.8157 155.862 53.4798C155.978 53.144 156.133 52.8489 156.328 52.5948C156.533 52.3406 156.772 52.1363 157.047 51.982C157.331 51.8186 157.638 51.7324 157.966 51.7233C158.401 51.6961 158.947 51.7551 159.604 51.9003C160.261 52.0365 160.793 52.3315 161.201 52.7854V49.8306C161.006 49.7035 160.753 49.5946 160.442 49.5038C160.141 49.413 159.861 49.3268 159.604 49.2451C159.346 49.1543 159.08 49.0908 158.805 49.0545C158.539 49.0182 158.281 49 158.033 49C157.269 49 156.581 49.1407 155.969 49.4221C155.357 49.6944 154.828 50.0848 154.385 50.5931C153.941 51.1015 153.599 51.7006 153.359 52.3905C153.12 53.0713 153 53.8157 153 54.6236C153 55.5405 153.12 56.3575 153.359 57.0746C153.599 57.7827 153.932 58.3818 154.358 58.872C154.784 59.3622 155.29 59.7389 155.876 60.0021C156.47 60.2745 157.127 60.4106 157.846 60.4106C158.121 60.4106 158.388 60.4016 158.645 60.3834C158.902 60.3743 159.164 60.3426 159.431 60.2881C159.706 60.2427 159.985 60.1792 160.269 60.0975C160.553 60.0248 160.864 59.9295 161.201 59.8115V53.6705H159.404C159.067 53.6614 158.738 53.6568 158.419 53.6568Z" fill="#0BC0CF"/>
  <path fill-rule="evenodd" clip-rule="evenodd" d="M182.973 49.3405H185.33V52.7991C185.525 52.6266 185.743 52.5086 185.982 52.445C186.222 52.3724 186.488 52.3361 186.781 52.3361C187.189 52.3361 187.575 52.4405 187.939 52.6493C188.312 52.849 188.636 53.1304 188.911 53.4935C189.186 53.8475 189.404 54.2787 189.564 54.7871C189.732 55.2863 189.817 55.8401 189.817 56.4483C189.817 57.0928 189.732 57.6692 189.564 58.1776C189.404 58.6859 189.186 59.1035 188.911 59.4303C188.636 59.7662 188.312 60.0204 187.939 60.1928C187.575 60.3653 187.189 60.4515 186.781 60.4515C186.373 60.4515 186.022 60.3835 185.729 60.2473C185.436 60.1202 185.192 59.9477 184.997 59.7299C184.997 59.7662 184.993 59.8842 184.984 60.0839V60.4379H182.973V49.3405ZM186.368 57.7282C186.67 57.7282 186.928 57.6012 187.141 57.347C187.362 57.0928 187.465 56.7342 187.447 56.2713C187.429 55.8719 187.318 55.5496 187.114 55.3045C186.919 55.0503 186.67 54.9232 186.368 54.9232C186.04 54.9232 185.783 55.0503 185.596 55.3045C185.419 55.5587 185.33 55.89 185.33 56.2985V56.4891C185.348 56.8795 185.45 57.1836 185.636 57.4014C185.831 57.6193 186.075 57.7282 186.368 57.7282Z" fill="#FBB547"/>
  <path fill-rule="evenodd" clip-rule="evenodd" d="M182.973 49.3405H185.33V52.7991C185.525 52.6266 185.743 52.5086 185.982 52.445C186.222 52.3724 186.488 52.3361 186.781 52.3361C187.189 52.3361 187.575 52.4405 187.939 52.6493C188.312 52.849 188.636 53.1304 188.911 53.4935C189.186 53.8475 189.404 54.2787 189.564 54.7871C189.732 55.2863 189.817 55.8401 189.817 56.4483C189.817 57.0928 189.732 57.6692 189.564 58.1776C189.404 58.6859 189.186 59.1035 188.911 59.4303C188.636 59.7662 188.312 60.0204 187.939 60.1928C187.575 60.3653 187.189 60.4515 186.781 60.4515C186.373 60.4515 186.022 60.3835 185.729 60.2473C185.436 60.1202 185.192 59.9477 184.997 59.7299C184.997 59.7662 184.993 59.8842 184.984 60.0839V60.4379H182.973V49.3405ZM186.368 57.7282C186.67 57.7282 186.928 57.6012 187.141 57.347C187.362 57.0928 187.465 56.7342 187.447 56.2713C187.429 55.8719 187.318 55.5496 187.114 55.3045C186.919 55.0503 186.67 54.9232 186.368 54.9232C186.04 54.9232 185.783 55.0503 185.596 55.3045C185.419 55.5587 185.33 55.89 185.33 56.2985V56.4891C185.348 56.8795 185.45 57.1836 185.636 57.4014C185.831 57.6193 186.075 57.7282 186.368 57.7282Z" fill="#0BC0CF"/>
  <path fill-rule="evenodd" clip-rule="evenodd" d="M213.307 60.4379H211.297C211.297 60.4016 211.292 60.2836 211.283 60.0839V59.7299C211.079 59.9477 210.831 60.1202 210.538 60.2473C210.245 60.3835 209.894 60.4515 209.486 60.4515C209.087 60.4515 208.701 60.3653 208.328 60.1928C207.955 60.0204 207.631 59.7662 207.356 59.4303C207.09 59.1035 206.872 58.6859 206.703 58.1776C206.544 57.6692 206.464 57.0928 206.464 56.4483C206.464 55.8401 206.544 55.2863 206.703 54.7871C206.872 54.2787 207.09 53.8475 207.356 53.4935C207.631 53.1304 207.955 52.849 208.328 52.6493C208.701 52.4405 209.087 52.3361 209.486 52.3361C209.788 52.3361 210.059 52.3724 210.298 52.445C210.538 52.5086 210.751 52.6266 210.937 52.7991V49.3405H213.307V60.4379ZM210.937 56.2577C210.937 55.9127 210.849 55.6268 210.671 55.3998C210.493 55.1638 210.241 55.0458 209.912 55.0458C209.601 55.0458 209.344 55.1593 209.14 55.3862C208.945 55.6041 208.843 55.89 208.834 56.244C208.825 56.6344 208.922 56.943 209.127 57.17C209.34 57.3969 209.601 57.5104 209.912 57.5104C210.205 57.5104 210.445 57.4196 210.631 57.238C210.826 57.0474 210.928 56.7705 210.937 56.4074V56.2577Z" fill="#FBB547"/>
  <path fill-rule="evenodd" clip-rule="evenodd" d="M213.307 60.4379H211.297C211.297 60.4016 211.292 60.2836 211.283 60.0839V59.7299C211.079 59.9477 210.831 60.1202 210.538 60.2473C210.245 60.3835 209.894 60.4515 209.486 60.4515C209.087 60.4515 208.701 60.3653 208.328 60.1928C207.955 60.0204 207.631 59.7662 207.356 59.4303C207.09 59.1035 206.872 58.6859 206.703 58.1776C206.544 57.6692 206.464 57.0928 206.464 56.4483C206.464 55.8401 206.544 55.2863 206.703 54.7871C206.872 54.2787 207.09 53.8475 207.356 53.4935C207.631 53.1304 207.955 52.849 208.328 52.6493C208.701 52.4405 209.087 52.3361 209.486 52.3361C209.788 52.3361 210.059 52.3724 210.298 52.445C210.538 52.5086 210.751 52.6266 210.937 52.7991V49.3405H213.307V60.4379ZM210.937 56.2577C210.937 55.9127 210.849 55.6268 210.671 55.3998C210.493 55.1638 210.241 55.0458 209.912 55.0458C209.601 55.0458 209.344 55.1593 209.14 55.3862C208.945 55.6041 208.843 55.89 208.834 56.244C208.825 56.6344 208.922 56.943 209.127 57.17C209.34 57.3969 209.601 57.5104 209.912 57.5104C210.205 57.5104 210.445 57.4196 210.631 57.238C210.826 57.0474 210.928 56.7705 210.937 56.4074V56.2577Z" fill="#0BC0CF"/>
  <path d="M224.018 53.902V52.445H221.808V60.5332H224.018V56.1079C224.018 56.008 224.04 55.8945 224.084 55.7675C224.138 55.6313 224.226 55.4997 224.351 55.3726C224.546 55.2001 224.75 55.0821 224.963 55.0186C225.176 54.9459 225.42 54.9096 225.695 54.9096C225.926 54.9096 226.157 54.9323 226.388 54.9777C226.627 55.0231 226.831 55.0866 227 55.1683V52.7582C226.885 52.6584 226.734 52.5812 226.547 52.5267C226.37 52.4632 226.188 52.4314 226.001 52.4314C225.895 52.4314 225.82 52.436 225.775 52.445C225.34 52.4995 224.99 52.6357 224.723 52.8535C224.457 53.0623 224.222 53.4118 224.018 53.902Z" fill="#FBB547"/>
  <path d="M224.018 53.902V52.445H221.808V60.5332H224.018V56.1079C224.018 56.008 224.04 55.8945 224.084 55.7675C224.138 55.6313 224.226 55.4997 224.351 55.3726C224.546 55.2001 224.75 55.0821 224.963 55.0186C225.176 54.9459 225.42 54.9096 225.695 54.9096C225.926 54.9096 226.157 54.9323 226.388 54.9777C226.627 55.0231 226.831 55.0866 227 55.1683V52.7582C226.885 52.6584 226.734 52.5812 226.547 52.5267C226.37 52.4632 226.188 52.4314 226.001 52.4314C225.895 52.4314 225.82 52.436 225.775 52.445C225.34 52.4995 224.99 52.6357 224.723 52.8535C224.457 53.0623 224.222 53.4118 224.018 53.902Z" fill="#0BC0CF"/>
  <path fill-rule="evenodd" clip-rule="evenodd" d="M220.894 57.7826C219.988 58.0187 219.181 58.1367 218.471 58.1367C217.858 58.1367 217.366 58.0413 216.993 57.8507C216.629 57.6601 216.442 57.4241 216.434 57.1427H220.84C220.858 57.0246 220.867 56.8386 220.867 56.5844C220.867 55.9308 220.809 55.3725 220.694 54.9096C220.587 54.4466 220.397 54.0472 220.122 53.7113C219.5 52.9034 218.692 52.4994 217.698 52.4994C216.695 52.4994 215.901 52.8852 215.315 53.6568C214.676 54.3921 214.357 55.3634 214.357 56.5708C214.357 57.7872 214.689 58.763 215.355 59.4983C216.03 60.2064 216.926 60.5604 218.045 60.5604C219.198 60.5604 220.148 60.2245 220.894 59.5528V57.7826ZM216.673 55.4542C216.762 54.7825 217.104 54.4466 217.698 54.4466C218 54.4466 218.231 54.5283 218.391 54.6917C218.559 54.8551 218.666 55.1093 218.71 55.4542H216.673Z" fill="#FBB547"/>
  <path fill-rule="evenodd" clip-rule="evenodd" d="M220.894 57.7826C219.988 58.0187 219.181 58.1367 218.471 58.1367C217.858 58.1367 217.366 58.0413 216.993 57.8507C216.629 57.6601 216.442 57.4241 216.434 57.1427H220.84C220.858 57.0246 220.867 56.8386 220.867 56.5844C220.867 55.9308 220.809 55.3725 220.694 54.9096C220.587 54.4466 220.397 54.0472 220.122 53.7113C219.5 52.9034 218.692 52.4994 217.698 52.4994C216.695 52.4994 215.901 52.8852 215.315 53.6568C214.676 54.3921 214.357 55.3634 214.357 56.5708C214.357 57.7872 214.689 58.763 215.355 59.4983C216.03 60.2064 216.926 60.5604 218.045 60.5604C219.198 60.5604 220.148 60.2245 220.894 59.5528V57.7826ZM216.673 55.4542C216.762 54.7825 217.104 54.4466 217.698 54.4466C218 54.4466 218.231 54.5283 218.391 54.6917C218.559 54.8551 218.666 55.1093 218.71 55.4542H216.673Z" fill="#0BC0CF"/>
  <path d="M203.61 60.0294C204.098 60.3108 204.782 60.4515 205.66 60.4515V57.6465C204.995 57.6465 204.662 57.0338 204.662 55.8083V49.354H202.292V55.7402C202.292 56.9748 202.389 57.9324 202.585 58.6133C202.789 59.285 203.131 59.7571 203.61 60.0294Z" fill="#FBB547"/>
  <path d="M203.61 60.0294C204.098 60.3108 204.782 60.4515 205.66 60.4515V57.6465C204.995 57.6465 204.662 57.0338 204.662 55.8083V49.354H202.292V55.7402C202.292 56.9748 202.389 57.9324 202.585 58.6133C202.789 59.285 203.131 59.7571 203.61 60.0294Z" fill="#0BC0CF"/>
  <path d="M201.153 49.3813V52.0366H198.703V49.3813H201.153Z" fill="#FBB547"/>
  <path d="M201.153 49.3813V52.0366H198.703V49.3813H201.153Z" fill="#0BC0CF"/>
  <path d="M201.153 52.8127V60.4379H198.703V52.8127H201.153Z" fill="#FBB547"/>
  <path d="M201.153 52.8127V60.4379H198.703V52.8127H201.153Z" fill="#0BC0CF"/>
  <path d="M195.473 59.3486V60.6286H197.63V52.4723H195.419V56.4891C195.419 56.6525 195.286 56.934 195.02 57.3334C194.851 57.5149 194.683 57.6466 194.514 57.7283C194.354 57.81 194.177 57.8508 193.982 57.8508C193.609 57.8508 193.329 57.7283 193.143 57.4832C192.965 57.2381 192.876 56.8477 192.876 56.3121V52.4723H190.733V57.7283C190.733 58.6451 190.964 59.3259 191.425 59.7707C191.922 60.3154 192.517 60.5877 193.209 60.5877C193.644 60.5877 194.039 60.4833 194.394 60.2745C194.758 60.0658 195.118 59.7571 195.473 59.3486Z" fill="#FBB547"/>
  <path d="M195.473 59.3486V60.6286H197.63V52.4723H195.419V56.4891C195.419 56.6525 195.286 56.934 195.02 57.3334C194.851 57.5149 194.683 57.6466 194.514 57.7283C194.354 57.81 194.177 57.8508 193.982 57.8508C193.609 57.8508 193.329 57.7283 193.143 57.4832C192.965 57.2381 192.876 56.8477 192.876 56.3121V52.4723H190.733V57.7283C190.733 58.6451 190.964 59.3259 191.425 59.7707C191.922 60.3154 192.517 60.5877 193.209 60.5877C193.644 60.5877 194.039 60.4833 194.394 60.2745C194.758 60.0658 195.118 59.7571 195.473 59.3486Z" fill="#0BC0CF"/>
  <path d="M178.116 53.9292H175.64V51.1514H172.99V53.9292H170.421V56.0397H172.99V59.0898H175.64V56.0397H178.116V53.9292Z" fill="#FBB547"/>
  <path d="M178.116 53.9292H175.64V51.1514H172.99V53.9292H170.421V56.0397H172.99V59.0898H175.64V56.0397H178.116V53.9292Z" fill="#0BC0CF"/>
  <path fill-rule="evenodd" clip-rule="evenodd" d="M163.309 53.6432C163.975 52.8172 164.872 52.4041 165.999 52.4041C167.099 52.4041 167.987 52.8172 168.662 53.6432C169.354 54.4511 169.7 55.3816 169.7 56.4346C169.7 57.5421 169.349 58.4907 168.648 59.2805C167.974 60.0884 167.091 60.4923 165.999 60.4923C164.898 60.4923 164.002 60.0975 163.309 59.3077C162.626 58.4998 162.284 57.5421 162.284 56.4346C162.284 55.3816 162.626 54.4511 163.309 53.6432ZM164.987 57.3061C165.227 57.5966 165.564 57.7418 165.999 57.7418C166.398 57.7418 166.727 57.5966 166.984 57.3061C167.25 57.0428 167.383 56.6843 167.383 56.2304C167.383 55.7674 167.25 55.4088 166.984 55.1547C166.727 54.8642 166.398 54.7189 165.999 54.7189C165.564 54.7189 165.227 54.8642 164.987 55.1547C164.721 55.4088 164.588 55.7674 164.588 56.2304C164.588 56.6843 164.721 57.0428 164.987 57.3061Z" fill="#FBB547"/>
  <path fill-rule="evenodd" clip-rule="evenodd" d="M163.309 53.6432C163.975 52.8172 164.872 52.4041 165.999 52.4041C167.099 52.4041 167.987 52.8172 168.662 53.6432C169.354 54.4511 169.7 55.3816 169.7 56.4346C169.7 57.5421 169.349 58.4907 168.648 59.2805C167.974 60.0884 167.091 60.4923 165.999 60.4923C164.898 60.4923 164.002 60.0975 163.309 59.3077C162.626 58.4998 162.284 57.5421 162.284 56.4346C162.284 55.3816 162.626 54.4511 163.309 53.6432ZM164.987 57.3061C165.227 57.5966 165.564 57.7418 165.999 57.7418C166.398 57.7418 166.727 57.5966 166.984 57.3061C167.25 57.0428 167.383 56.6843 167.383 56.2304C167.383 55.7674 167.25 55.4088 166.984 55.1547C166.727 54.8642 166.398 54.7189 165.999 54.7189C165.564 54.7189 165.227 54.8642 164.987 55.1547C164.721 55.4088 164.588 55.7674 164.588 56.2304C164.588 56.6843 164.721 57.0428 164.987 57.3061Z" fill="#0BC0CF"/>
  <rect opacity="0.1" x="148" y="161" width="90" height="4" rx="1" fill="#073156"/>
</svg>
