<svg width="100" height="100" viewBox="0 0 100 100" fill="none" xmlns="http://www.w3.org/2000/svg">
  <circle cx="50" cy="50" r="50" fill="#eaeff3"/>
  <ellipse cx="52.905" cy="78.282" fill="#d9dfe5" rx="20.413" ry="2.5"/>
  <path fill="#fff" d="M25.052 33.917a5.39 5.39 0 0 1 5.22-4.05h39.832a5.39 5.39 0 0 1 5.219 4.05l4.292 16.738a5.4 5.4 0 0 1 .106 2.157L77.229 69.01a5.39 5.39 0 0 1-5.326 4.569H28.472a5.39 5.39 0 0 1-5.326-4.569l-2.492-16.197a5.4 5.4 0 0 1 .106-2.157z"/>
  <path fill="#f8f8f8" d="M30.086 40.687a5.39 5.39 0 0 1 5.223-4.062h31.142a5.39 5.39 0 0 1 5.322 4.547l1.655 10.471h-7.41l-5.863 7.521H41.352l-5.777-7.52h-8.27z"/>
  <path stroke="#24292f" stroke-linejoin="round" d="M21.054 51.723h14.9l4.065 5.69a5.39 5.39 0 0 0 4.385 2.256h12.902c1.74 0 3.373-.84 4.384-2.256l4.065-5.69h14.9"/>
  <path stroke="#24292f" stroke-linejoin="round" d="M25.124 33.635a5.39 5.39 0 0 1 5.22-4.05h40.454a5.39 5.39 0 0 1 5.22 4.05l4.363 17.02c.181.704.217 1.438.106 2.157l-2.535 16.48a5.39 5.39 0 0 1-5.325 4.568H28.515a5.39 5.39 0 0 1-5.326-4.569l-2.535-16.479a5.4 5.4 0 0 1 .106-2.157z"/>
  <path fill="#000" d="M78.955 28.044a.955.955 0 0 0-.029 1.91l5.226.08a.955.955 0 1 0 .03-1.91zm-5.542-8.051a.955.955 0 0 1 1.91.029l-.08 5.226a.955.955 0 1 1-1.91-.03z"/>
  <circle cx="26.048" cy="70.184" r="11.675" fill="#36c2cf"/>
  <path fill="#fff" d="M24.7 64.26a1.347 1.347 0 0 1 2.695 0v5.389a1.347 1.347 0 0 1-2.694 0zm0 11.675a1.347 1.347 0 1 0 2.695 0 1.347 1.347 0 0 0-2.694 0"/>
  <rect width="13.852" height="3.82" x="43.929" y="62.211" fill="#ffd350" rx="1.91"/>
</svg>
