<svg width="96" height="96" viewBox="0 0 96 96" fill="none" xmlns="http://www.w3.org/2000/svg">
  <path fill="#eaeff3" d="M0 48c0 36.895 40 59.955 72 41.507C86.851 80.946 96 65.123 96 48c0-36.895-40-59.955-72-41.507C9.149 15.054 0 30.877 0 48"/>
  <ellipse cx="50.905" cy="76.282" fill="#d9dfe5" rx="20.413" ry="2.5"/>
  <path fill="#fff" d="M23.052 31.917a5.39 5.39 0 0 1 5.22-4.05h39.832a5.39 5.39 0 0 1 5.219 4.05l4.292 16.738a5.4 5.4 0 0 1 .106 2.157L75.229 67.01a5.39 5.39 0 0 1-5.326 4.569H26.472a5.39 5.39 0 0 1-5.326-4.569l-2.492-16.197a5.4 5.4 0 0 1 .106-2.157z"/>
  <path fill="#f8f8f8" d="M28.086 38.687a5.39 5.39 0 0 1 5.223-4.062h31.142a5.39 5.39 0 0 1 5.322 4.547l1.655 10.471h-7.41l-5.863 7.521H39.352l-5.777-7.52h-8.27z"/>
  <path stroke="#24292f" stroke-linejoin="round" d="M19.054 49.723h14.9l4.065 5.69a5.39 5.39 0 0 0 4.385 2.256h12.902c1.74 0 3.373-.84 4.384-2.256l4.065-5.69h14.9"/>
  <path stroke="#24292f" stroke-linejoin="round" d="M23.124 31.635a5.39 5.39 0 0 1 5.22-4.05h40.454a5.39 5.39 0 0 1 5.22 4.05l4.363 17.02c.181.704.217 1.438.106 2.157l-2.535 16.48a5.39 5.39 0 0 1-5.325 4.568H26.515a5.39 5.39 0 0 1-5.326-4.569l-2.535-16.479a5.4 5.4 0 0 1 .106-2.157z"/>
  <path fill="#000" d="M76.955 26.044a.955.955 0 0 0-.029 1.91l5.226.08a.955.955 0 1 0 .03-1.91zm-5.542-8.051a.955.955 0 0 1 1.91.029l-.08 5.226a.955.955 0 1 1-1.91-.03z"/>
  <circle cx="24.048" cy="68.184" r="11.675" fill="#36c2cf"/>
  <path fill="#fff" d="M22.7 62.26a1.347 1.347 0 0 1 2.695 0v5.389a1.347 1.347 0 0 1-2.694 0zm0 11.675a1.347 1.347 0 1 0 2.695 0 1.347 1.347 0 0 0-2.694 0"/>
  <rect width="13.852" height="3.82" x="41.929" y="60.211" fill="#ffd350" rx="1.91"/>
</svg>
