<svg width="96" height="96" viewBox="0 0 96 96" fill="none" xmlns="http://www.w3.org/2000/svg">
  <path d="M0 48C0 84.8954 40.0001 107.955 72 89.5073C86.8512 80.9458 96 65.1232 96 48C96 11.1046 56 -11.955 24 6.4927C9.14876 15.0544 0 30.8768 0 48Z" fill="#EAEFF3"/>
  <mask id="path-2-inside-1_2848_3651" fill="white">
    <path d="M64.3751 25.8821H43.0388V17.7849H71.0074C71.0588 17.7849 71.1102 17.7849 71.1616 17.7849C75.5317 17.8881 79.0792 21.4983 79.0792 25.8821H69.8249"/>
  </mask>
  <path d="M64.3751 25.8821H43.0388V17.7849H71.0074C71.0588 17.7849 71.1102 17.7849 71.1616 17.7849C75.5317 17.8881 79.0792 21.4983 79.0792 25.8821H69.8249" fill="#24292F"/>
  <path d="M43.0388 25.8821H42.2019V26.719H43.0388V25.8821ZM43.0388 17.7849V16.948H42.2019V17.7849H43.0388ZM71.1616 17.7849L71.1814 16.9483L71.1715 16.948H71.1616V17.7849ZM79.0792 25.8821V26.719H79.9161V25.8821H79.0792ZM64.3751 25.8821V25.0453H43.0388V25.8821V26.719H64.3751V25.8821ZM43.0388 25.8821H43.8757V17.7849H43.0388H42.2019V25.8821H43.0388ZM43.0388 17.7849V18.6218H71.0074V17.7849V16.948H43.0388V17.7849ZM71.0074 17.7849V18.6218C71.0075 18.6218 71.0076 18.6218 71.0077 18.6218C71.0078 18.6218 71.0079 18.6218 71.008 18.6218C71.0081 18.6218 71.0082 18.6218 71.0083 18.6218C71.0084 18.6218 71.0085 18.6218 71.0086 18.6218C71.0087 18.6218 71.0088 18.6218 71.0089 18.6218C71.009 18.6218 71.0091 18.6218 71.0092 18.6218C71.0093 18.6218 71.0094 18.6218 71.0095 18.6218C71.0096 18.6218 71.0097 18.6218 71.0098 18.6218C71.0099 18.6218 71.01 18.6218 71.0101 18.6218C71.0102 18.6218 71.0103 18.6218 71.0104 18.6218C71.0105 18.6218 71.0106 18.6218 71.0107 18.6218C71.0108 18.6218 71.0109 18.6218 71.011 18.6218C71.0111 18.6218 71.0112 18.6218 71.0113 18.6218C71.0114 18.6218 71.0115 18.6218 71.0116 18.6218C71.0117 18.6218 71.0118 18.6218 71.0119 18.6218C71.012 18.6218 71.0121 18.6218 71.0122 18.6218C71.0123 18.6218 71.0124 18.6218 71.0125 18.6218C71.0126 18.6218 71.0127 18.6218 71.0128 18.6218C71.0129 18.6218 71.013 18.6218 71.0131 18.6218C71.0132 18.6218 71.0133 18.6218 71.0134 18.6218C71.0135 18.6218 71.0136 18.6218 71.0137 18.6218C71.0138 18.6218 71.0139 18.6218 71.014 18.6218C71.0141 18.6218 71.0142 18.6218 71.0143 18.6218C71.0144 18.6218 71.0145 18.6218 71.0146 18.6218C71.0147 18.6218 71.0148 18.6218 71.0149 18.6218C71.015 18.6218 71.0151 18.6218 71.0152 18.6218C71.0153 18.6218 71.0154 18.6218 71.0155 18.6218C71.0156 18.6218 71.0157 18.6218 71.0158 18.6218C71.0159 18.6218 71.016 18.6218 71.0161 18.6218C71.0162 18.6218 71.0163 18.6218 71.0164 18.6218C71.0165 18.6218 71.0166 18.6218 71.0167 18.6218C71.0168 18.6218 71.0169 18.6218 71.017 18.6218C71.0171 18.6218 71.0172 18.6218 71.0173 18.6218C71.0174 18.6218 71.0175 18.6218 71.0176 18.6218C71.0177 18.6218 71.0178 18.6218 71.0179 18.6218C71.018 18.6218 71.0181 18.6218 71.0182 18.6218C71.0183 18.6218 71.0184 18.6218 71.0185 18.6218C71.0186 18.6218 71.0187 18.6218 71.0188 18.6218C71.0189 18.6218 71.019 18.6218 71.0191 18.6218C71.0192 18.6218 71.0193 18.6218 71.0194 18.6218C71.0195 18.6218 71.0196 18.6218 71.0197 18.6218C71.0198 18.6218 71.0199 18.6218 71.02 18.6218C71.0201 18.6218 71.0202 18.6218 71.0203 18.6218C71.0204 18.6218 71.0205 18.6218 71.0206 18.6218C71.0207 18.6218 71.0208 18.6218 71.0209 18.6218C71.021 18.6218 71.0211 18.6218 71.0212 18.6218C71.0213 18.6218 71.0215 18.6218 71.0216 18.6218C71.0217 18.6218 71.0218 18.6218 71.0219 18.6218C71.022 18.6218 71.0221 18.6218 71.0222 18.6218C71.0223 18.6218 71.0224 18.6218 71.0225 18.6218C71.0226 18.6218 71.0227 18.6218 71.0228 18.6218C71.0229 18.6218 71.023 18.6218 71.0231 18.6218C71.0232 18.6218 71.0233 18.6218 71.0234 18.6218C71.0235 18.6218 71.0236 18.6218 71.0237 18.6218C71.0238 18.6218 71.0239 18.6218 71.024 18.6218C71.0241 18.6218 71.0242 18.6218 71.0243 18.6218C71.0244 18.6218 71.0245 18.6218 71.0246 18.6218C71.0247 18.6218 71.0248 18.6218 71.0249 18.6218C71.025 18.6218 71.0251 18.6218 71.0252 18.6218C71.0253 18.6218 71.0254 18.6218 71.0255 18.6218C71.0256 18.6218 71.0257 18.6218 71.0258 18.6218C71.0259 18.6218 71.026 18.6218 71.0261 18.6218C71.0262 18.6218 71.0263 18.6218 71.0264 18.6218C71.0265 18.6218 71.0266 18.6218 71.0267 18.6218C71.0268 18.6218 71.0269 18.6218 71.027 18.6218C71.0271 18.6218 71.0272 18.6218 71.0273 18.6218C71.0274 18.6218 71.0275 18.6218 71.0276 18.6218C71.0277 18.6218 71.0278 18.6218 71.0279 18.6218C71.028 18.6218 71.0281 18.6218 71.0282 18.6218C71.0283 18.6218 71.0284 18.6218 71.0285 18.6218C71.0286 18.6218 71.0287 18.6218 71.0288 18.6218C71.0289 18.6218 71.029 18.6218 71.0291 18.6218C71.0292 18.6218 71.0293 18.6218 71.0294 18.6218C71.0295 18.6218 71.0296 18.6218 71.0297 18.6218C71.0298 18.6218 71.0299 18.6218 71.03 18.6218C71.0301 18.6218 71.0302 18.6218 71.0303 18.6218C71.0304 18.6218 71.0305 18.6218 71.0306 18.6218C71.0307 18.6218 71.0308 18.6218 71.0309 18.6218C71.031 18.6218 71.0311 18.6218 71.0312 18.6218C71.0313 18.6218 71.0314 18.6218 71.0315 18.6218C71.0316 18.6218 71.0317 18.6218 71.0318 18.6218C71.0319 18.6218 71.032 18.6218 71.0321 18.6218C71.0322 18.6218 71.0323 18.6218 71.0324 18.6218C71.0325 18.6218 71.0326 18.6218 71.0327 18.6218C71.0328 18.6218 71.0329 18.6218 71.033 18.6218C71.0331 18.6218 71.0332 18.6218 71.0333 18.6218C71.0334 18.6218 71.0335 18.6218 71.0336 18.6218C71.0337 18.6218 71.0338 18.6218 71.0339 18.6218C71.034 18.6218 71.0341 18.6218 71.0342 18.6218C71.0343 18.6218 71.0344 18.6218 71.0345 18.6218C71.0346 18.6218 71.0347 18.6218 71.0348 18.6218C71.0349 18.6218 71.035 18.6218 71.0351 18.6218C71.0352 18.6218 71.0353 18.6218 71.0354 18.6218C71.0355 18.6218 71.0356 18.6218 71.0357 18.6218C71.0358 18.6218 71.0359 18.6218 71.036 18.6218C71.0361 18.6218 71.0362 18.6218 71.0363 18.6218C71.0364 18.6218 71.0365 18.6218 71.0366 18.6218C71.0367 18.6218 71.0368 18.6218 71.0369 18.6218C71.037 18.6218 71.0371 18.6218 71.0372 18.6218C71.0373 18.6218 71.0374 18.6218 71.0375 18.6218C71.0376 18.6218 71.0377 18.6218 71.0378 18.6218C71.0379 18.6218 71.038 18.6218 71.0381 18.6218C71.0382 18.6218 71.0383 18.6218 71.0384 18.6218C71.0385 18.6218 71.0386 18.6218 71.0387 18.6218C71.0388 18.6218 71.0389 18.6218 71.039 18.6218C71.0391 18.6218 71.0392 18.6218 71.0393 18.6218C71.0394 18.6218 71.0395 18.6218 71.0396 18.6218C71.0397 18.6218 71.0398 18.6218 71.0399 18.6218C71.04 18.6218 71.0401 18.6218 71.0402 18.6218C71.0403 18.6218 71.0404 18.6218 71.0405 18.6218C71.0406 18.6218 71.0407 18.6218 71.0408 18.6218C71.0409 18.6218 71.041 18.6218 71.0411 18.6218C71.0412 18.6218 71.0413 18.6218 71.0414 18.6218C71.0415 18.6218 71.0416 18.6218 71.0417 18.6218C71.0418 18.6218 71.0419 18.6218 71.042 18.6218C71.0421 18.6218 71.0422 18.6218 71.0423 18.6218C71.0424 18.6218 71.0425 18.6218 71.0426 18.6218C71.0427 18.6218 71.0428 18.6218 71.0429 18.6218C71.043 18.6218 71.0431 18.6218 71.0432 18.6218C71.0433 18.6218 71.0434 18.6218 71.0435 18.6218C71.0436 18.6218 71.0437 18.6218 71.0438 18.6218C71.0439 18.6218 71.044 18.6218 71.0441 18.6218C71.0442 18.6218 71.0443 18.6218 71.0444 18.6218C71.0445 18.6218 71.0446 18.6218 71.0447 18.6218C71.0448 18.6218 71.0449 18.6218 71.045 18.6218C71.0451 18.6218 71.0452 18.6218 71.0453 18.6218C71.0455 18.6218 71.0455 18.6218 71.0457 18.6218C71.0458 18.6218 71.0459 18.6218 71.046 18.6218C71.0461 18.6218 71.0462 18.6218 71.0463 18.6218C71.0464 18.6218 71.0465 18.6218 71.0466 18.6218C71.0467 18.6218 71.0468 18.6218 71.0469 18.6218C71.047 18.6218 71.0471 18.6218 71.0472 18.6218C71.0473 18.6218 71.0474 18.6218 71.0475 18.6218C71.0476 18.6218 71.0477 18.6218 71.0478 18.6218C71.0479 18.6218 71.048 18.6218 71.0481 18.6218C71.0482 18.6218 71.0483 18.6218 71.0484 18.6218C71.0485 18.6218 71.0486 18.6218 71.0487 18.6218C71.0488 18.6218 71.0489 18.6218 71.049 18.6218C71.0491 18.6218 71.0492 18.6218 71.0493 18.6218C71.0494 18.6218 71.0495 18.6218 71.0496 18.6218C71.0497 18.6218 71.0498 18.6218 71.0499 18.6218C71.05 18.6218 71.0501 18.6218 71.0502 18.6218C71.0503 18.6218 71.0504 18.6218 71.0505 18.6218C71.0506 18.6218 71.0507 18.6218 71.0508 18.6218C71.0509 18.6218 71.051 18.6218 71.0511 18.6218C71.0512 18.6218 71.0513 18.6218 71.0514 18.6218C71.0515 18.6218 71.0516 18.6218 71.0517 18.6218C71.0518 18.6218 71.0519 18.6218 71.052 18.6218C71.0521 18.6218 71.0522 18.6218 71.0523 18.6218C71.0524 18.6218 71.0525 18.6218 71.0526 18.6218C71.0527 18.6218 71.0528 18.6218 71.0529 18.6218C71.053 18.6218 71.0531 18.6218 71.0532 18.6218C71.0533 18.6218 71.0534 18.6218 71.0535 18.6218C71.0536 18.6218 71.0537 18.6218 71.0538 18.6218C71.0539 18.6218 71.054 18.6218 71.0541 18.6218C71.0542 18.6218 71.0543 18.6218 71.0544 18.6218C71.0545 18.6218 71.0546 18.6218 71.0547 18.6218C71.0548 18.6218 71.0549 18.6218 71.055 18.6218C71.0551 18.6218 71.0552 18.6218 71.0553 18.6218C71.0554 18.6218 71.0555 18.6218 71.0556 18.6218C71.0557 18.6218 71.0558 18.6218 71.0559 18.6218C71.056 18.6218 71.0561 18.6218 71.0562 18.6218C71.0563 18.6218 71.0564 18.6218 71.0565 18.6218C71.0566 18.6218 71.0567 18.6218 71.0568 18.6218C71.0569 18.6218 71.057 18.6218 71.0571 18.6218C71.0572 18.6218 71.0573 18.6218 71.0574 18.6218C71.0575 18.6218 71.0576 18.6218 71.0577 18.6218C71.0578 18.6218 71.0579 18.6218 71.058 18.6218C71.0581 18.6218 71.0582 18.6218 71.0583 18.6218C71.0584 18.6218 71.0585 18.6218 71.0586 18.6218C71.0587 18.6218 71.0588 18.6218 71.0589 18.6218C71.059 18.6218 71.0591 18.6218 71.0592 18.6218C71.0593 18.6218 71.0594 18.6218 71.0595 18.6218C71.0596 18.6218 71.0597 18.6218 71.0598 18.6218C71.0599 18.6218 71.06 18.6218 71.0601 18.6218C71.0602 18.6218 71.0603 18.6218 71.0604 18.6218C71.0605 18.6218 71.0606 18.6218 71.0607 18.6218C71.0608 18.6218 71.0609 18.6218 71.061 18.6218C71.0611 18.6218 71.0612 18.6218 71.0613 18.6218C71.0614 18.6218 71.0615 18.6218 71.0616 18.6218C71.0617 18.6218 71.0618 18.6218 71.0619 18.6218C71.062 18.6218 71.0621 18.6218 71.0622 18.6218C71.0623 18.6218 71.0624 18.6218 71.0625 18.6218C71.0626 18.6218 71.0627 18.6218 71.0628 18.6218C71.0629 18.6218 71.063 18.6218 71.0631 18.6218C71.0632 18.6218 71.0633 18.6218 71.0634 18.6218C71.0635 18.6218 71.0636 18.6218 71.0637 18.6218C71.0638 18.6218 71.0639 18.6218 71.064 18.6218C71.0641 18.6218 71.0642 18.6218 71.0643 18.6218C71.0644 18.6218 71.0645 18.6218 71.0646 18.6218C71.0647 18.6218 71.0648 18.6218 71.0649 18.6218C71.065 18.6218 71.0651 18.6218 71.0652 18.6218C71.0653 18.6218 71.0654 18.6218 71.0655 18.6218C71.0656 18.6218 71.0657 18.6218 71.0658 18.6218C71.0659 18.6218 71.066 18.6218 71.0661 18.6218C71.0662 18.6218 71.0663 18.6218 71.0664 18.6218C71.0665 18.6218 71.0666 18.6218 71.0667 18.6218C71.0668 18.6218 71.0669 18.6218 71.067 18.6218C71.0671 18.6218 71.0672 18.6218 71.0673 18.6218C71.0674 18.6218 71.0675 18.6218 71.0676 18.6218C71.0677 18.6218 71.0678 18.6218 71.0679 18.6218C71.068 18.6218 71.0681 18.6218 71.0682 18.6218C71.0683 18.6218 71.0684 18.6218 71.0685 18.6218C71.0686 18.6218 71.0687 18.6218 71.0688 18.6218C71.0689 18.6218 71.069 18.6218 71.0691 18.6218C71.0692 18.6218 71.0693 18.6218 71.0694 18.6218C71.0695 18.6218 71.0696 18.6218 71.0697 18.6218C71.0699 18.6218 71.07 18.6218 71.0701 18.6218C71.0702 18.6218 71.0703 18.6218 71.0704 18.6218C71.0705 18.6218 71.0706 18.6218 71.0707 18.6218C71.0708 18.6218 71.0709 18.6218 71.071 18.6218C71.0711 18.6218 71.0712 18.6218 71.0713 18.6218C71.0714 18.6218 71.0715 18.6218 71.0716 18.6218C71.0717 18.6218 71.0718 18.6218 71.0719 18.6218C71.072 18.6218 71.0721 18.6218 71.0722 18.6218C71.0723 18.6218 71.0724 18.6218 71.0725 18.6218C71.0726 18.6218 71.0727 18.6218 71.0728 18.6218C71.0729 18.6218 71.073 18.6218 71.0731 18.6218C71.0732 18.6218 71.0733 18.6218 71.0734 18.6218C71.0735 18.6218 71.0736 18.6218 71.0737 18.6218C71.0738 18.6218 71.0739 18.6218 71.074 18.6218C71.0741 18.6218 71.0742 18.6218 71.0743 18.6218C71.0744 18.6218 71.0745 18.6218 71.0746 18.6218C71.0747 18.6218 71.0748 18.6218 71.0749 18.6218C71.075 18.6218 71.0751 18.6218 71.0752 18.6218C71.0753 18.6218 71.0754 18.6218 71.0755 18.6218C71.0756 18.6218 71.0757 18.6218 71.0758 18.6218C71.0759 18.6218 71.076 18.6218 71.0761 18.6218C71.0762 18.6218 71.0763 18.6218 71.0764 18.6218C71.0765 18.6218 71.0766 18.6218 71.0767 18.6218C71.0768 18.6218 71.0769 18.6218 71.077 18.6218C71.0771 18.6218 71.0772 18.6218 71.0773 18.6218C71.0774 18.6218 71.0775 18.6218 71.0776 18.6218C71.0777 18.6218 71.0778 18.6218 71.0779 18.6218C71.078 18.6218 71.0781 18.6218 71.0782 18.6218C71.0783 18.6218 71.0784 18.6218 71.0785 18.6218C71.0786 18.6218 71.0787 18.6218 71.0788 18.6218C71.0789 18.6218 71.079 18.6218 71.0791 18.6218C71.0792 18.6218 71.0793 18.6218 71.0794 18.6218C71.0795 18.6218 71.0796 18.6218 71.0797 18.6218C71.0798 18.6218 71.0799 18.6218 71.08 18.6218C71.0801 18.6218 71.0802 18.6218 71.0803 18.6218C71.0804 18.6218 71.0805 18.6218 71.0806 18.6218C71.0807 18.6218 71.0808 18.6218 71.0809 18.6218C71.081 18.6218 71.0811 18.6218 71.0812 18.6218C71.0813 18.6218 71.0814 18.6218 71.0815 18.6218C71.0816 18.6218 71.0817 18.6218 71.0818 18.6218C71.0819 18.6218 71.082 18.6218 71.0821 18.6218C71.0822 18.6218 71.0823 18.6218 71.0824 18.6218C71.0825 18.6218 71.0826 18.6218 71.0827 18.6218C71.0828 18.6218 71.0829 18.6218 71.083 18.6218C71.0831 18.6218 71.0832 18.6218 71.0833 18.6218C71.0834 18.6218 71.0835 18.6218 71.0836 18.6218C71.0837 18.6218 71.0838 18.6218 71.0839 18.6218C71.084 18.6218 71.0841 18.6218 71.0842 18.6218C71.0843 18.6218 71.0844 18.6218 71.0845 18.6218C71.0846 18.6218 71.0847 18.6218 71.0848 18.6218C71.0849 18.6218 71.085 18.6218 71.0851 18.6218C71.0852 18.6218 71.0853 18.6218 71.0854 18.6218C71.0855 18.6218 71.0856 18.6218 71.0857 18.6218C71.0858 18.6218 71.0859 18.6218 71.086 18.6218C71.0861 18.6218 71.0862 18.6218 71.0863 18.6218C71.0864 18.6218 71.0865 18.6218 71.0866 18.6218C71.0867 18.6218 71.0868 18.6218 71.0869 18.6218C71.087 18.6218 71.0871 18.6218 71.0872 18.6218C71.0873 18.6218 71.0874 18.6218 71.0875 18.6218C71.0876 18.6218 71.0877 18.6218 71.0878 18.6218C71.0879 18.6218 71.088 18.6218 71.0881 18.6218C71.0882 18.6218 71.0883 18.6218 71.0884 18.6218C71.0885 18.6218 71.0886 18.6218 71.0887 18.6218C71.0888 18.6218 71.0889 18.6218 71.089 18.6218C71.0891 18.6218 71.0892 18.6218 71.0893 18.6218C71.0894 18.6218 71.0895 18.6218 71.0896 18.6218C71.0897 18.6218 71.0898 18.6218 71.0899 18.6218C71.09 18.6218 71.0901 18.6218 71.0902 18.6218C71.0903 18.6218 71.0904 18.6218 71.0905 18.6218C71.0906 18.6218 71.0907 18.6218 71.0908 18.6218C71.0909 18.6218 71.091 18.6218 71.0911 18.6218C71.0912 18.6218 71.0913 18.6218 71.0914 18.6218C71.0915 18.6218 71.0916 18.6218 71.0917 18.6218C71.0918 18.6218 71.0919 18.6218 71.092 18.6218C71.0921 18.6218 71.0922 18.6218 71.0923 18.6218C71.0924 18.6218 71.0925 18.6218 71.0926 18.6218C71.0927 18.6218 71.0928 18.6218 71.0929 18.6218C71.093 18.6218 71.0931 18.6218 71.0932 18.6218C71.0933 18.6218 71.0934 18.6218 71.0935 18.6218C71.0936 18.6218 71.0938 18.6218 71.0938 18.6218C71.094 18.6218 71.094 18.6218 71.0942 18.6218C71.0943 18.6218 71.0944 18.6218 71.0945 18.6218C71.0946 18.6218 71.0947 18.6218 71.0948 18.6218C71.0949 18.6218 71.095 18.6218 71.0951 18.6218C71.0952 18.6218 71.0953 18.6218 71.0954 18.6218C71.0955 18.6218 71.0956 18.6218 71.0957 18.6218C71.0958 18.6218 71.0959 18.6218 71.096 18.6218C71.0961 18.6218 71.0962 18.6218 71.0963 18.6218C71.0964 18.6218 71.0965 18.6218 71.0966 18.6218C71.0967 18.6218 71.0968 18.6218 71.0969 18.6218C71.097 18.6218 71.0971 18.6218 71.0972 18.6218C71.0973 18.6218 71.0974 18.6218 71.0975 18.6218C71.0976 18.6218 71.0977 18.6218 71.0978 18.6218C71.0979 18.6218 71.098 18.6218 71.0981 18.6218C71.0982 18.6218 71.0983 18.6218 71.0984 18.6218C71.0985 18.6218 71.0986 18.6218 71.0987 18.6218C71.0988 18.6218 71.0989 18.6218 71.099 18.6218C71.0991 18.6218 71.0992 18.6218 71.0993 18.6218C71.0994 18.6218 71.0995 18.6218 71.0996 18.6218C71.0997 18.6218 71.0998 18.6218 71.0999 18.6218C71.1 18.6218 71.1001 18.6218 71.1002 18.6218C71.1003 18.6218 71.1004 18.6218 71.1005 18.6218C71.1006 18.6218 71.1007 18.6218 71.1008 18.6218C71.1009 18.6218 71.101 18.6218 71.1011 18.6218C71.1012 18.6218 71.1013 18.6218 71.1014 18.6218C71.1015 18.6218 71.1016 18.6218 71.1017 18.6218C71.1018 18.6218 71.1019 18.6218 71.102 18.6218C71.1021 18.6218 71.1022 18.6218 71.1023 18.6218C71.1024 18.6218 71.1025 18.6218 71.1026 18.6218C71.1027 18.6218 71.1028 18.6218 71.1029 18.6218C71.103 18.6218 71.1031 18.6218 71.1032 18.6218C71.1033 18.6218 71.1034 18.6218 71.1035 18.6218C71.1036 18.6218 71.1037 18.6218 71.1038 18.6218C71.1039 18.6218 71.104 18.6218 71.1041 18.6218C71.1042 18.6218 71.1043 18.6218 71.1044 18.6218C71.1045 18.6218 71.1046 18.6218 71.1047 18.6218C71.1048 18.6218 71.1049 18.6218 71.105 18.6218C71.1051 18.6218 71.1052 18.6218 71.1053 18.6218C71.1054 18.6218 71.1055 18.6218 71.1056 18.6218C71.1057 18.6218 71.1058 18.6218 71.1059 18.6218C71.106 18.6218 71.1061 18.6218 71.1062 18.6218C71.1063 18.6218 71.1064 18.6218 71.1065 18.6218C71.1066 18.6218 71.1067 18.6218 71.1068 18.6218C71.1069 18.6218 71.107 18.6218 71.1071 18.6218C71.1072 18.6218 71.1073 18.6218 71.1074 18.6218C71.1075 18.6218 71.1076 18.6218 71.1077 18.6218C71.1078 18.6218 71.1079 18.6218 71.108 18.6218C71.1081 18.6218 71.1082 18.6218 71.1083 18.6218C71.1084 18.6218 71.1085 18.6218 71.1086 18.6218C71.1087 18.6218 71.1088 18.6218 71.1089 18.6218C71.109 18.6218 71.1091 18.6218 71.1092 18.6218C71.1093 18.6218 71.1094 18.6218 71.1095 18.6218C71.1096 18.6218 71.1097 18.6218 71.1098 18.6218C71.1099 18.6218 71.11 18.6218 71.1101 18.6218C71.1102 18.6218 71.1103 18.6218 71.1104 18.6218C71.1105 18.6218 71.1106 18.6218 71.1107 18.6218C71.1108 18.6218 71.1109 18.6218 71.111 18.6218C71.1111 18.6218 71.1112 18.6218 71.1113 18.6218C71.1114 18.6218 71.1115 18.6218 71.1116 18.6218C71.1117 18.6218 71.1118 18.6218 71.1119 18.6218C71.112 18.6218 71.1121 18.6218 71.1122 18.6218C71.1123 18.6218 71.1124 18.6218 71.1125 18.6218C71.1126 18.6218 71.1127 18.6218 71.1128 18.6218C71.1129 18.6218 71.113 18.6218 71.1131 18.6218C71.1132 18.6218 71.1133 18.6218 71.1134 18.6218C71.1135 18.6218 71.1136 18.6218 71.1137 18.6218C71.1138 18.6218 71.1139 18.6218 71.114 18.6218C71.1141 18.6218 71.1142 18.6218 71.1143 18.6218C71.1144 18.6218 71.1145 18.6218 71.1146 18.6218C71.1147 18.6218 71.1148 18.6218 71.1149 18.6218C71.115 18.6218 71.1151 18.6218 71.1152 18.6218C71.1153 18.6218 71.1154 18.6218 71.1155 18.6218C71.1156 18.6218 71.1157 18.6218 71.1158 18.6218C71.1159 18.6218 71.116 18.6218 71.1161 18.6218C71.1162 18.6218 71.1163 18.6218 71.1164 18.6218C71.1165 18.6218 71.1166 18.6218 71.1167 18.6218C71.1168 18.6218 71.1169 18.6218 71.117 18.6218C71.1171 18.6218 71.1172 18.6218 71.1173 18.6218C71.1174 18.6218 71.1175 18.6218 71.1176 18.6218C71.1177 18.6218 71.1178 18.6218 71.1179 18.6218C71.118 18.6218 71.1182 18.6218 71.1182 18.6218C71.1184 18.6218 71.1185 18.6218 71.1186 18.6218C71.1187 18.6218 71.1188 18.6218 71.1189 18.6218C71.119 18.6218 71.1191 18.6218 71.1192 18.6218C71.1193 18.6218 71.1194 18.6218 71.1195 18.6218C71.1196 18.6218 71.1197 18.6218 71.1198 18.6218C71.1199 18.6218 71.12 18.6218 71.1201 18.6218C71.1202 18.6218 71.1203 18.6218 71.1204 18.6218C71.1205 18.6218 71.1206 18.6218 71.1207 18.6218C71.1208 18.6218 71.1209 18.6218 71.121 18.6218C71.1211 18.6218 71.1212 18.6218 71.1213 18.6218C71.1214 18.6218 71.1215 18.6218 71.1216 18.6218C71.1217 18.6218 71.1218 18.6218 71.1219 18.6218C71.122 18.6218 71.1221 18.6218 71.1222 18.6218C71.1223 18.6218 71.1224 18.6218 71.1225 18.6218C71.1226 18.6218 71.1227 18.6218 71.1228 18.6218C71.1229 18.6218 71.123 18.6218 71.1231 18.6218C71.1232 18.6218 71.1233 18.6218 71.1234 18.6218C71.1235 18.6218 71.1236 18.6218 71.1237 18.6218C71.1238 18.6218 71.1239 18.6218 71.124 18.6218C71.1241 18.6218 71.1242 18.6218 71.1243 18.6218C71.1244 18.6218 71.1245 18.6218 71.1246 18.6218C71.1247 18.6218 71.1248 18.6218 71.1249 18.6218C71.125 18.6218 71.1251 18.6218 71.1252 18.6218C71.1253 18.6218 71.1254 18.6218 71.1255 18.6218C71.1256 18.6218 71.1257 18.6218 71.1258 18.6218C71.1259 18.6218 71.126 18.6218 71.1261 18.6218C71.1262 18.6218 71.1263 18.6218 71.1264 18.6218C71.1265 18.6218 71.1266 18.6218 71.1267 18.6218C71.1268 18.6218 71.1269 18.6218 71.127 18.6218C71.1271 18.6218 71.1272 18.6218 71.1273 18.6218C71.1274 18.6218 71.1275 18.6218 71.1276 18.6218C71.1277 18.6218 71.1278 18.6218 71.1279 18.6218C71.128 18.6218 71.1281 18.6218 71.1282 18.6218C71.1283 18.6218 71.1284 18.6218 71.1285 18.6218C71.1286 18.6218 71.1287 18.6218 71.1288 18.6218C71.1289 18.6218 71.129 18.6218 71.1291 18.6218C71.1292 18.6218 71.1293 18.6218 71.1294 18.6218C71.1295 18.6218 71.1296 18.6218 71.1297 18.6218C71.1298 18.6218 71.1299 18.6218 71.13 18.6218C71.1301 18.6218 71.1302 18.6218 71.1303 18.6218C71.1304 18.6218 71.1305 18.6218 71.1306 18.6218C71.1307 18.6218 71.1308 18.6218 71.1309 18.6218C71.131 18.6218 71.1311 18.6218 71.1312 18.6218C71.1313 18.6218 71.1314 18.6218 71.1315 18.6218C71.1316 18.6218 71.1317 18.6218 71.1318 18.6218C71.1319 18.6218 71.132 18.6218 71.1321 18.6218C71.1322 18.6218 71.1323 18.6218 71.1324 18.6218C71.1325 18.6218 71.1326 18.6218 71.1327 18.6218C71.1328 18.6218 71.1329 18.6218 71.133 18.6218C71.1331 18.6218 71.1332 18.6218 71.1333 18.6218C71.1334 18.6218 71.1335 18.6218 71.1336 18.6218C71.1337 18.6218 71.1338 18.6218 71.1339 18.6218C71.134 18.6218 71.1341 18.6218 71.1342 18.6218C71.1343 18.6218 71.1344 18.6218 71.1345 18.6218C71.1346 18.6218 71.1347 18.6218 71.1348 18.6218C71.1349 18.6218 71.135 18.6218 71.1351 18.6218C71.1352 18.6218 71.1353 18.6218 71.1354 18.6218C71.1355 18.6218 71.1356 18.6218 71.1357 18.6218C71.1358 18.6218 71.1359 18.6218 71.136 18.6218C71.1361 18.6218 71.1362 18.6218 71.1363 18.6218C71.1364 18.6218 71.1365 18.6218 71.1366 18.6218C71.1367 18.6218 71.1368 18.6218 71.1369 18.6218C71.137 18.6218 71.1371 18.6218 71.1372 18.6218C71.1373 18.6218 71.1374 18.6218 71.1375 18.6218C71.1376 18.6218 71.1377 18.6218 71.1378 18.6218C71.1379 18.6218 71.138 18.6218 71.1381 18.6218C71.1382 18.6218 71.1383 18.6218 71.1384 18.6218C71.1385 18.6218 71.1386 18.6218 71.1387 18.6218C71.1388 18.6218 71.1389 18.6218 71.139 18.6218C71.1391 18.6218 71.1392 18.6218 71.1393 18.6218C71.1394 18.6218 71.1395 18.6218 71.1396 18.6218C71.1397 18.6218 71.1398 18.6218 71.1399 18.6218C71.14 18.6218 71.1401 18.6218 71.1402 18.6218C71.1403 18.6218 71.1404 18.6218 71.1405 18.6218C71.1406 18.6218 71.1407 18.6218 71.1408 18.6218C71.1409 18.6218 71.141 18.6218 71.1411 18.6218C71.1412 18.6218 71.1413 18.6218 71.1414 18.6218C71.1415 18.6218 71.1416 18.6218 71.1417 18.6218C71.1418 18.6218 71.1419 18.6218 71.142 18.6218C71.1421 18.6218 71.1423 18.6218 71.1423 18.6218C71.1425 18.6218 71.1426 18.6218 71.1427 18.6218C71.1428 18.6218 71.1429 18.6218 71.143 18.6218C71.1431 18.6218 71.1432 18.6218 71.1433 18.6218C71.1434 18.6218 71.1435 18.6218 71.1436 18.6218C71.1437 18.6218 71.1438 18.6218 71.1439 18.6218C71.144 18.6218 71.1441 18.6218 71.1442 18.6218C71.1443 18.6218 71.1444 18.6218 71.1445 18.6218C71.1446 18.6218 71.1447 18.6218 71.1448 18.6218C71.1449 18.6218 71.145 18.6218 71.1451 18.6218C71.1452 18.6218 71.1453 18.6218 71.1454 18.6218C71.1455 18.6218 71.1456 18.6218 71.1457 18.6218C71.1458 18.6218 71.1459 18.6218 71.146 18.6218C71.1461 18.6218 71.1462 18.6218 71.1463 18.6218C71.1464 18.6218 71.1465 18.6218 71.1466 18.6218C71.1467 18.6218 71.1468 18.6218 71.1469 18.6218C71.147 18.6218 71.1471 18.6218 71.1472 18.6218C71.1473 18.6218 71.1474 18.6218 71.1475 18.6218C71.1476 18.6218 71.1477 18.6218 71.1478 18.6218C71.1479 18.6218 71.148 18.6218 71.1481 18.6218C71.1482 18.6218 71.1483 18.6218 71.1484 18.6218C71.1485 18.6218 71.1486 18.6218 71.1487 18.6218C71.1488 18.6218 71.1489 18.6218 71.149 18.6218C71.1491 18.6218 71.1492 18.6218 71.1493 18.6218C71.1494 18.6218 71.1495 18.6218 71.1496 18.6218C71.1497 18.6218 71.1498 18.6218 71.1499 18.6218C71.15 18.6218 71.1501 18.6218 71.1502 18.6218C71.1503 18.6218 71.1504 18.6218 71.1505 18.6218C71.1506 18.6218 71.1507 18.6218 71.1508 18.6218C71.1509 18.6218 71.151 18.6218 71.1511 18.6218C71.1512 18.6218 71.1513 18.6218 71.1514 18.6218C71.1515 18.6218 71.1516 18.6218 71.1517 18.6218C71.1518 18.6218 71.1519 18.6218 71.152 18.6218C71.1521 18.6218 71.1522 18.6218 71.1523 18.6218C71.1524 18.6218 71.1525 18.6218 71.1526 18.6218C71.1527 18.6218 71.1528 18.6218 71.1529 18.6218C71.153 18.6218 71.1531 18.6218 71.1532 18.6218C71.1533 18.6218 71.1534 18.6218 71.1535 18.6218C71.1536 18.6218 71.1537 18.6218 71.1538 18.6218C71.1539 18.6218 71.154 18.6218 71.1541 18.6218C71.1542 18.6218 71.1543 18.6218 71.1544 18.6218C71.1545 18.6218 71.1546 18.6218 71.1547 18.6218C71.1548 18.6218 71.1549 18.6218 71.155 18.6218C71.1551 18.6218 71.1552 18.6218 71.1553 18.6218C71.1554 18.6218 71.1555 18.6218 71.1556 18.6218C71.1557 18.6218 71.1558 18.6218 71.1559 18.6218C71.156 18.6218 71.1561 18.6218 71.1562 18.6218C71.1563 18.6218 71.1564 18.6218 71.1565 18.6218C71.1566 18.6218 71.1567 18.6218 71.1568 18.6218C71.1569 18.6218 71.157 18.6218 71.1571 18.6218C71.1572 18.6218 71.1573 18.6218 71.1574 18.6218C71.1575 18.6218 71.1576 18.6218 71.1577 18.6218C71.1578 18.6218 71.1579 18.6218 71.158 18.6218C71.1581 18.6218 71.1582 18.6218 71.1583 18.6218C71.1584 18.6218 71.1585 18.6218 71.1586 18.6218C71.1587 18.6218 71.1588 18.6218 71.1589 18.6218C71.159 18.6218 71.1591 18.6218 71.1592 18.6218C71.1593 18.6218 71.1594 18.6218 71.1595 18.6218C71.1596 18.6218 71.1597 18.6218 71.1598 18.6218C71.1599 18.6218 71.16 18.6218 71.1601 18.6218C71.1602 18.6218 71.1603 18.6218 71.1604 18.6218C71.1605 18.6218 71.1606 18.6218 71.1607 18.6218C71.1608 18.6218 71.1609 18.6218 71.161 18.6218C71.1611 18.6218 71.1612 18.6218 71.1613 18.6218C71.1614 18.6218 71.1615 18.6218 71.1616 18.6218V17.7849V16.948C71.1615 16.948 71.1614 16.948 71.1613 16.948C71.1612 16.948 71.1611 16.948 71.161 16.948C71.1609 16.948 71.1608 16.948 71.1607 16.948C71.1606 16.948 71.1605 16.948 71.1604 16.948C71.1603 16.948 71.1602 16.948 71.1601 16.948C71.16 16.948 71.1599 16.948 71.1598 16.948C71.1597 16.948 71.1596 16.948 71.1595 16.948C71.1594 16.948 71.1593 16.948 71.1592 16.948C71.1591 16.948 71.159 16.948 71.1589 16.948C71.1588 16.948 71.1587 16.948 71.1586 16.948C71.1585 16.948 71.1584 16.948 71.1583 16.948C71.1582 16.948 71.1581 16.948 71.158 16.948C71.1579 16.948 71.1578 16.948 71.1577 16.948C71.1576 16.948 71.1575 16.948 71.1574 16.948C71.1573 16.948 71.1572 16.948 71.1571 16.948C71.157 16.948 71.1569 16.948 71.1568 16.948C71.1567 16.948 71.1566 16.948 71.1565 16.948C71.1564 16.948 71.1563 16.948 71.1562 16.948C71.1561 16.948 71.156 16.948 71.1559 16.948C71.1558 16.948 71.1557 16.948 71.1556 16.948C71.1555 16.948 71.1554 16.948 71.1553 16.948C71.1552 16.948 71.1551 16.948 71.155 16.948C71.1549 16.948 71.1548 16.948 71.1547 16.948C71.1546 16.948 71.1545 16.948 71.1544 16.948C71.1543 16.948 71.1542 16.948 71.1541 16.948C71.154 16.948 71.1539 16.948 71.1538 16.948C71.1537 16.948 71.1536 16.948 71.1535 16.948C71.1534 16.948 71.1533 16.948 71.1532 16.948C71.1531 16.948 71.153 16.948 71.1529 16.948C71.1528 16.948 71.1527 16.948 71.1526 16.948C71.1525 16.948 71.1524 16.948 71.1523 16.948C71.1522 16.948 71.1521 16.948 71.152 16.948C71.1519 16.948 71.1518 16.948 71.1517 16.948C71.1516 16.948 71.1515 16.948 71.1514 16.948C71.1513 16.948 71.1512 16.948 71.1511 16.948C71.151 16.948 71.1509 16.948 71.1508 16.948C71.1507 16.948 71.1506 16.948 71.1505 16.948C71.1504 16.948 71.1503 16.948 71.1502 16.948C71.1501 16.948 71.15 16.948 71.1499 16.948C71.1498 16.948 71.1497 16.948 71.1496 16.948C71.1495 16.948 71.1494 16.948 71.1493 16.948C71.1492 16.948 71.1491 16.948 71.149 16.948C71.1489 16.948 71.1488 16.948 71.1487 16.948C71.1486 16.948 71.1485 16.948 71.1484 16.948C71.1483 16.948 71.1482 16.948 71.1481 16.948C71.148 16.948 71.1479 16.948 71.1478 16.948C71.1477 16.948 71.1476 16.948 71.1475 16.948C71.1474 16.948 71.1473 16.948 71.1472 16.948C71.1471 16.948 71.147 16.948 71.1469 16.948C71.1468 16.948 71.1467 16.948 71.1466 16.948C71.1465 16.948 71.1464 16.948 71.1463 16.948C71.1462 16.948 71.1461 16.948 71.146 16.948C71.1459 16.948 71.1458 16.948 71.1457 16.948C71.1456 16.948 71.1455 16.948 71.1454 16.948C71.1453 16.948 71.1452 16.948 71.1451 16.948C71.145 16.948 71.1449 16.948 71.1448 16.948C71.1447 16.948 71.1446 16.948 71.1445 16.948C71.1444 16.948 71.1443 16.948 71.1442 16.948C71.1441 16.948 71.144 16.948 71.1439 16.948C71.1438 16.948 71.1437 16.948 71.1436 16.948C71.1435 16.948 71.1434 16.948 71.1433 16.948C71.1432 16.948 71.1431 16.948 71.143 16.948C71.1429 16.948 71.1428 16.948 71.1427 16.948C71.1426 16.948 71.1425 16.948 71.1423 16.948C71.1423 16.948 71.1421 16.948 71.142 16.948C71.1419 16.948 71.1418 16.948 71.1417 16.948C71.1416 16.948 71.1415 16.948 71.1414 16.948C71.1413 16.948 71.1412 16.948 71.1411 16.948C71.141 16.948 71.1409 16.948 71.1408 16.948C71.1407 16.948 71.1406 16.948 71.1405 16.948C71.1404 16.948 71.1403 16.948 71.1402 16.948C71.1401 16.948 71.14 16.948 71.1399 16.948C71.1398 16.948 71.1397 16.948 71.1396 16.948C71.1395 16.948 71.1394 16.948 71.1393 16.948C71.1392 16.948 71.1391 16.948 71.139 16.948C71.1389 16.948 71.1388 16.948 71.1387 16.948C71.1386 16.948 71.1385 16.948 71.1384 16.948C71.1383 16.948 71.1382 16.948 71.1381 16.948C71.138 16.948 71.1379 16.948 71.1378 16.948C71.1377 16.948 71.1376 16.948 71.1375 16.948C71.1374 16.948 71.1373 16.948 71.1372 16.948C71.1371 16.948 71.137 16.948 71.1369 16.948C71.1368 16.948 71.1367 16.948 71.1366 16.948C71.1365 16.948 71.1364 16.948 71.1363 16.948C71.1362 16.948 71.1361 16.948 71.136 16.948C71.1359 16.948 71.1358 16.948 71.1357 16.948C71.1356 16.948 71.1355 16.948 71.1354 16.948C71.1353 16.948 71.1352 16.948 71.1351 16.948C71.135 16.948 71.1349 16.948 71.1348 16.948C71.1347 16.948 71.1346 16.948 71.1345 16.948C71.1344 16.948 71.1343 16.948 71.1342 16.948C71.1341 16.948 71.134 16.948 71.1339 16.948C71.1338 16.948 71.1337 16.948 71.1336 16.948C71.1335 16.948 71.1334 16.948 71.1333 16.948C71.1332 16.948 71.1331 16.948 71.133 16.948C71.1329 16.948 71.1328 16.948 71.1327 16.948C71.1326 16.948 71.1325 16.948 71.1324 16.948C71.1323 16.948 71.1322 16.948 71.1321 16.948C71.132 16.948 71.1319 16.948 71.1318 16.948C71.1317 16.948 71.1316 16.948 71.1315 16.948C71.1314 16.948 71.1313 16.948 71.1312 16.948C71.1311 16.948 71.131 16.948 71.1309 16.948C71.1308 16.948 71.1307 16.948 71.1306 16.948C71.1305 16.948 71.1304 16.948 71.1303 16.948C71.1302 16.948 71.1301 16.948 71.13 16.948C71.1299 16.948 71.1298 16.948 71.1297 16.948C71.1296 16.948 71.1295 16.948 71.1294 16.948C71.1293 16.948 71.1292 16.948 71.1291 16.948C71.129 16.948 71.1289 16.948 71.1288 16.948C71.1287 16.948 71.1286 16.948 71.1285 16.948C71.1284 16.948 71.1283 16.948 71.1282 16.948C71.1281 16.948 71.128 16.948 71.1279 16.948C71.1278 16.948 71.1277 16.948 71.1276 16.948C71.1275 16.948 71.1274 16.948 71.1273 16.948C71.1272 16.948 71.1271 16.948 71.127 16.948C71.1269 16.948 71.1268 16.948 71.1267 16.948C71.1266 16.948 71.1265 16.948 71.1264 16.948C71.1263 16.948 71.1262 16.948 71.1261 16.948C71.126 16.948 71.1259 16.948 71.1258 16.948C71.1257 16.948 71.1256 16.948 71.1255 16.948C71.1254 16.948 71.1253 16.948 71.1252 16.948C71.1251 16.948 71.125 16.948 71.1249 16.948C71.1248 16.948 71.1247 16.948 71.1246 16.948C71.1245 16.948 71.1244 16.948 71.1243 16.948C71.1242 16.948 71.1241 16.948 71.124 16.948C71.1239 16.948 71.1238 16.948 71.1237 16.948C71.1236 16.948 71.1235 16.948 71.1234 16.948C71.1233 16.948 71.1232 16.948 71.1231 16.948C71.123 16.948 71.1229 16.948 71.1228 16.948C71.1227 16.948 71.1226 16.948 71.1225 16.948C71.1224 16.948 71.1223 16.948 71.1222 16.948C71.1221 16.948 71.122 16.948 71.1219 16.948C71.1218 16.948 71.1217 16.948 71.1216 16.948C71.1215 16.948 71.1214 16.948 71.1213 16.948C71.1212 16.948 71.1211 16.948 71.121 16.948C71.1209 16.948 71.1208 16.948 71.1207 16.948C71.1206 16.948 71.1205 16.948 71.1204 16.948C71.1203 16.948 71.1202 16.948 71.1201 16.948C71.12 16.948 71.1199 16.948 71.1198 16.948C71.1197 16.948 71.1196 16.948 71.1195 16.948C71.1194 16.948 71.1193 16.948 71.1192 16.948C71.1191 16.948 71.119 16.948 71.1189 16.948C71.1188 16.948 71.1187 16.948 71.1186 16.948C71.1185 16.948 71.1184 16.948 71.1182 16.948C71.1182 16.948 71.118 16.948 71.1179 16.948C71.1178 16.948 71.1177 16.948 71.1176 16.948C71.1175 16.948 71.1174 16.948 71.1173 16.948C71.1172 16.948 71.1171 16.948 71.117 16.948C71.1169 16.948 71.1168 16.948 71.1167 16.948C71.1166 16.948 71.1165 16.948 71.1164 16.948C71.1163 16.948 71.1162 16.948 71.1161 16.948C71.116 16.948 71.1159 16.948 71.1158 16.948C71.1157 16.948 71.1156 16.948 71.1155 16.948C71.1154 16.948 71.1153 16.948 71.1152 16.948C71.1151 16.948 71.115 16.948 71.1149 16.948C71.1148 16.948 71.1147 16.948 71.1146 16.948C71.1145 16.948 71.1144 16.948 71.1143 16.948C71.1142 16.948 71.1141 16.948 71.114 16.948C71.1139 16.948 71.1138 16.948 71.1137 16.948C71.1136 16.948 71.1135 16.948 71.1134 16.948C71.1133 16.948 71.1132 16.948 71.1131 16.948C71.113 16.948 71.1129 16.948 71.1128 16.948C71.1127 16.948 71.1126 16.948 71.1125 16.948C71.1124 16.948 71.1123 16.948 71.1122 16.948C71.1121 16.948 71.112 16.948 71.1119 16.948C71.1118 16.948 71.1117 16.948 71.1116 16.948C71.1115 16.948 71.1114 16.948 71.1113 16.948C71.1112 16.948 71.1111 16.948 71.111 16.948C71.1109 16.948 71.1108 16.948 71.1107 16.948C71.1106 16.948 71.1105 16.948 71.1104 16.948C71.1103 16.948 71.1102 16.948 71.1101 16.948C71.11 16.948 71.1099 16.948 71.1098 16.948C71.1097 16.948 71.1096 16.948 71.1095 16.948C71.1094 16.948 71.1093 16.948 71.1092 16.948C71.1091 16.948 71.109 16.948 71.1089 16.948C71.1088 16.948 71.1087 16.948 71.1086 16.948C71.1085 16.948 71.1084 16.948 71.1083 16.948C71.1082 16.948 71.1081 16.948 71.108 16.948C71.1079 16.948 71.1078 16.948 71.1077 16.948C71.1076 16.948 71.1075 16.948 71.1074 16.948C71.1073 16.948 71.1072 16.948 71.1071 16.948C71.107 16.948 71.1069 16.948 71.1068 16.948C71.1067 16.948 71.1066 16.948 71.1065 16.948C71.1064 16.948 71.1063 16.948 71.1062 16.948C71.1061 16.948 71.106 16.948 71.1059 16.948C71.1058 16.948 71.1057 16.948 71.1056 16.948C71.1055 16.948 71.1054 16.948 71.1053 16.948C71.1052 16.948 71.1051 16.948 71.105 16.948C71.1049 16.948 71.1048 16.948 71.1047 16.948C71.1046 16.948 71.1045 16.948 71.1044 16.948C71.1043 16.948 71.1042 16.948 71.1041 16.948C71.104 16.948 71.1039 16.948 71.1038 16.948C71.1037 16.948 71.1036 16.948 71.1035 16.948C71.1034 16.948 71.1033 16.948 71.1032 16.948C71.1031 16.948 71.103 16.948 71.1029 16.948C71.1028 16.948 71.1027 16.948 71.1026 16.948C71.1025 16.948 71.1024 16.948 71.1023 16.948C71.1022 16.948 71.1021 16.948 71.102 16.948C71.1019 16.948 71.1018 16.948 71.1017 16.948C71.1016 16.948 71.1015 16.948 71.1014 16.948C71.1013 16.948 71.1012 16.948 71.1011 16.948C71.101 16.948 71.1009 16.948 71.1008 16.948C71.1007 16.948 71.1006 16.948 71.1005 16.948C71.1004 16.948 71.1003 16.948 71.1002 16.948C71.1001 16.948 71.1 16.948 71.0999 16.948C71.0998 16.948 71.0997 16.948 71.0996 16.948C71.0995 16.948 71.0994 16.948 71.0993 16.948C71.0992 16.948 71.0991 16.948 71.099 16.948C71.0989 16.948 71.0988 16.948 71.0987 16.948C71.0986 16.948 71.0985 16.948 71.0984 16.948C71.0983 16.948 71.0982 16.948 71.0981 16.948C71.098 16.948 71.0979 16.948 71.0978 16.948C71.0977 16.948 71.0976 16.948 71.0975 16.948C71.0974 16.948 71.0973 16.948 71.0972 16.948C71.0971 16.948 71.097 16.948 71.0969 16.948C71.0968 16.948 71.0967 16.948 71.0966 16.948C71.0965 16.948 71.0964 16.948 71.0963 16.948C71.0962 16.948 71.0961 16.948 71.096 16.948C71.0959 16.948 71.0958 16.948 71.0957 16.948C71.0956 16.948 71.0955 16.948 71.0954 16.948C71.0953 16.948 71.0952 16.948 71.0951 16.948C71.095 16.948 71.0949 16.948 71.0948 16.948C71.0947 16.948 71.0946 16.948 71.0945 16.948C71.0944 16.948 71.0943 16.948 71.0942 16.948C71.094 16.948 71.094 16.948 71.0938 16.948C71.0938 16.948 71.0936 16.948 71.0935 16.948C71.0934 16.948 71.0933 16.948 71.0932 16.948C71.0931 16.948 71.093 16.948 71.0929 16.948C71.0928 16.948 71.0927 16.948 71.0926 16.948C71.0925 16.948 71.0924 16.948 71.0923 16.948C71.0922 16.948 71.0921 16.948 71.092 16.948C71.0919 16.948 71.0918 16.948 71.0917 16.948C71.0916 16.948 71.0915 16.948 71.0914 16.948C71.0913 16.948 71.0912 16.948 71.0911 16.948C71.091 16.948 71.0909 16.948 71.0908 16.948C71.0907 16.948 71.0906 16.948 71.0905 16.948C71.0904 16.948 71.0903 16.948 71.0902 16.948C71.0901 16.948 71.09 16.948 71.0899 16.948C71.0898 16.948 71.0897 16.948 71.0896 16.948C71.0895 16.948 71.0894 16.948 71.0893 16.948C71.0892 16.948 71.0891 16.948 71.089 16.948C71.0889 16.948 71.0888 16.948 71.0887 16.948C71.0886 16.948 71.0885 16.948 71.0884 16.948C71.0883 16.948 71.0882 16.948 71.0881 16.948C71.088 16.948 71.0879 16.948 71.0878 16.948C71.0877 16.948 71.0876 16.948 71.0875 16.948C71.0874 16.948 71.0873 16.948 71.0872 16.948C71.0871 16.948 71.087 16.948 71.0869 16.948C71.0868 16.948 71.0867 16.948 71.0866 16.948C71.0865 16.948 71.0864 16.948 71.0863 16.948C71.0862 16.948 71.0861 16.948 71.086 16.948C71.0859 16.948 71.0858 16.948 71.0857 16.948C71.0856 16.948 71.0855 16.948 71.0854 16.948C71.0853 16.948 71.0852 16.948 71.0851 16.948C71.085 16.948 71.0849 16.948 71.0848 16.948C71.0847 16.948 71.0846 16.948 71.0845 16.948C71.0844 16.948 71.0843 16.948 71.0842 16.948C71.0841 16.948 71.084 16.948 71.0839 16.948C71.0838 16.948 71.0837 16.948 71.0836 16.948C71.0835 16.948 71.0834 16.948 71.0833 16.948C71.0832 16.948 71.0831 16.948 71.083 16.948C71.0829 16.948 71.0828 16.948 71.0827 16.948C71.0826 16.948 71.0825 16.948 71.0824 16.948C71.0823 16.948 71.0822 16.948 71.0821 16.948C71.082 16.948 71.0819 16.948 71.0818 16.948C71.0817 16.948 71.0816 16.948 71.0815 16.948C71.0814 16.948 71.0813 16.948 71.0812 16.948C71.0811 16.948 71.081 16.948 71.0809 16.948C71.0808 16.948 71.0807 16.948 71.0806 16.948C71.0805 16.948 71.0804 16.948 71.0803 16.948C71.0802 16.948 71.0801 16.948 71.08 16.948C71.0799 16.948 71.0798 16.948 71.0797 16.948C71.0796 16.948 71.0795 16.948 71.0794 16.948C71.0793 16.948 71.0792 16.948 71.0791 16.948C71.079 16.948 71.0789 16.948 71.0788 16.948C71.0787 16.948 71.0786 16.948 71.0785 16.948C71.0784 16.948 71.0783 16.948 71.0782 16.948C71.0781 16.948 71.078 16.948 71.0779 16.948C71.0778 16.948 71.0777 16.948 71.0776 16.948C71.0775 16.948 71.0774 16.948 71.0773 16.948C71.0772 16.948 71.0771 16.948 71.077 16.948C71.0769 16.948 71.0768 16.948 71.0767 16.948C71.0766 16.948 71.0765 16.948 71.0764 16.948C71.0763 16.948 71.0762 16.948 71.0761 16.948C71.076 16.948 71.0759 16.948 71.0758 16.948C71.0757 16.948 71.0756 16.948 71.0755 16.948C71.0754 16.948 71.0753 16.948 71.0752 16.948C71.0751 16.948 71.075 16.948 71.0749 16.948C71.0748 16.948 71.0747 16.948 71.0746 16.948C71.0745 16.948 71.0744 16.948 71.0743 16.948C71.0742 16.948 71.0741 16.948 71.074 16.948C71.0739 16.948 71.0738 16.948 71.0737 16.948C71.0736 16.948 71.0735 16.948 71.0734 16.948C71.0733 16.948 71.0732 16.948 71.0731 16.948C71.073 16.948 71.0729 16.948 71.0728 16.948C71.0727 16.948 71.0726 16.948 71.0725 16.948C71.0724 16.948 71.0723 16.948 71.0722 16.948C71.0721 16.948 71.072 16.948 71.0719 16.948C71.0718 16.948 71.0717 16.948 71.0716 16.948C71.0715 16.948 71.0714 16.948 71.0713 16.948C71.0712 16.948 71.0711 16.948 71.071 16.948C71.0709 16.948 71.0708 16.948 71.0707 16.948C71.0706 16.948 71.0705 16.948 71.0704 16.948C71.0703 16.948 71.0702 16.948 71.0701 16.948C71.07 16.948 71.0699 16.948 71.0697 16.948C71.0696 16.948 71.0695 16.948 71.0694 16.948C71.0693 16.948 71.0692 16.948 71.0691 16.948C71.069 16.948 71.0689 16.948 71.0688 16.948C71.0687 16.948 71.0686 16.948 71.0685 16.948C71.0684 16.948 71.0683 16.948 71.0682 16.948C71.0681 16.948 71.068 16.948 71.0679 16.948C71.0678 16.948 71.0677 16.948 71.0676 16.948C71.0675 16.948 71.0674 16.948 71.0673 16.948C71.0672 16.948 71.0671 16.948 71.067 16.948C71.0669 16.948 71.0668 16.948 71.0667 16.948C71.0666 16.948 71.0665 16.948 71.0664 16.948C71.0663 16.948 71.0662 16.948 71.0661 16.948C71.066 16.948 71.0659 16.948 71.0658 16.948C71.0657 16.948 71.0656 16.948 71.0655 16.948C71.0654 16.948 71.0653 16.948 71.0652 16.948C71.0651 16.948 71.065 16.948 71.0649 16.948C71.0648 16.948 71.0647 16.948 71.0646 16.948C71.0645 16.948 71.0644 16.948 71.0643 16.948C71.0642 16.948 71.0641 16.948 71.064 16.948C71.0639 16.948 71.0638 16.948 71.0637 16.948C71.0636 16.948 71.0635 16.948 71.0634 16.948C71.0633 16.948 71.0632 16.948 71.0631 16.948C71.063 16.948 71.0629 16.948 71.0628 16.948C71.0627 16.948 71.0626 16.948 71.0625 16.948C71.0624 16.948 71.0623 16.948 71.0622 16.948C71.0621 16.948 71.062 16.948 71.0619 16.948C71.0618 16.948 71.0617 16.948 71.0616 16.948C71.0615 16.948 71.0614 16.948 71.0613 16.948C71.0612 16.948 71.0611 16.948 71.061 16.948C71.0609 16.948 71.0608 16.948 71.0607 16.948C71.0606 16.948 71.0605 16.948 71.0604 16.948C71.0603 16.948 71.0602 16.948 71.0601 16.948C71.06 16.948 71.0599 16.948 71.0598 16.948C71.0597 16.948 71.0596 16.948 71.0595 16.948C71.0594 16.948 71.0593 16.948 71.0592 16.948C71.0591 16.948 71.059 16.948 71.0589 16.948C71.0588 16.948 71.0587 16.948 71.0586 16.948C71.0585 16.948 71.0584 16.948 71.0583 16.948C71.0582 16.948 71.0581 16.948 71.058 16.948C71.0579 16.948 71.0578 16.948 71.0577 16.948C71.0576 16.948 71.0575 16.948 71.0574 16.948C71.0573 16.948 71.0572 16.948 71.0571 16.948C71.057 16.948 71.0569 16.948 71.0568 16.948C71.0567 16.948 71.0566 16.948 71.0565 16.948C71.0564 16.948 71.0563 16.948 71.0562 16.948C71.0561 16.948 71.056 16.948 71.0559 16.948C71.0558 16.948 71.0557 16.948 71.0556 16.948C71.0555 16.948 71.0554 16.948 71.0553 16.948C71.0552 16.948 71.0551 16.948 71.055 16.948C71.0549 16.948 71.0548 16.948 71.0547 16.948C71.0546 16.948 71.0545 16.948 71.0544 16.948C71.0543 16.948 71.0542 16.948 71.0541 16.948C71.054 16.948 71.0539 16.948 71.0538 16.948C71.0537 16.948 71.0536 16.948 71.0535 16.948C71.0534 16.948 71.0533 16.948 71.0532 16.948C71.0531 16.948 71.053 16.948 71.0529 16.948C71.0528 16.948 71.0527 16.948 71.0526 16.948C71.0525 16.948 71.0524 16.948 71.0523 16.948C71.0522 16.948 71.0521 16.948 71.052 16.948C71.0519 16.948 71.0518 16.948 71.0517 16.948C71.0516 16.948 71.0515 16.948 71.0514 16.948C71.0513 16.948 71.0512 16.948 71.0511 16.948C71.051 16.948 71.0509 16.948 71.0508 16.948C71.0507 16.948 71.0506 16.948 71.0505 16.948C71.0504 16.948 71.0503 16.948 71.0502 16.948C71.0501 16.948 71.05 16.948 71.0499 16.948C71.0498 16.948 71.0497 16.948 71.0496 16.948C71.0495 16.948 71.0494 16.948 71.0493 16.948C71.0492 16.948 71.0491 16.948 71.049 16.948C71.0489 16.948 71.0488 16.948 71.0487 16.948C71.0486 16.948 71.0485 16.948 71.0484 16.948C71.0483 16.948 71.0482 16.948 71.0481 16.948C71.048 16.948 71.0479 16.948 71.0478 16.948C71.0477 16.948 71.0476 16.948 71.0475 16.948C71.0474 16.948 71.0473 16.948 71.0472 16.948C71.0471 16.948 71.047 16.948 71.0469 16.948C71.0468 16.948 71.0467 16.948 71.0466 16.948C71.0465 16.948 71.0464 16.948 71.0463 16.948C71.0462 16.948 71.0461 16.948 71.046 16.948C71.0459 16.948 71.0458 16.948 71.0457 16.948C71.0455 16.948 71.0455 16.948 71.0453 16.948C71.0452 16.948 71.0451 16.948 71.045 16.948C71.0449 16.948 71.0448 16.948 71.0447 16.948C71.0446 16.948 71.0445 16.948 71.0444 16.948C71.0443 16.948 71.0442 16.948 71.0441 16.948C71.044 16.948 71.0439 16.948 71.0438 16.948C71.0437 16.948 71.0436 16.948 71.0435 16.948C71.0434 16.948 71.0433 16.948 71.0432 16.948C71.0431 16.948 71.043 16.948 71.0429 16.948C71.0428 16.948 71.0427 16.948 71.0426 16.948C71.0425 16.948 71.0424 16.948 71.0423 16.948C71.0422 16.948 71.0421 16.948 71.042 16.948C71.0419 16.948 71.0418 16.948 71.0417 16.948C71.0416 16.948 71.0415 16.948 71.0414 16.948C71.0413 16.948 71.0412 16.948 71.0411 16.948C71.041 16.948 71.0409 16.948 71.0408 16.948C71.0407 16.948 71.0406 16.948 71.0405 16.948C71.0404 16.948 71.0403 16.948 71.0402 16.948C71.0401 16.948 71.04 16.948 71.0399 16.948C71.0398 16.948 71.0397 16.948 71.0396 16.948C71.0395 16.948 71.0394 16.948 71.0393 16.948C71.0392 16.948 71.0391 16.948 71.039 16.948C71.0389 16.948 71.0388 16.948 71.0387 16.948C71.0386 16.948 71.0385 16.948 71.0384 16.948C71.0383 16.948 71.0382 16.948 71.0381 16.948C71.038 16.948 71.0379 16.948 71.0378 16.948C71.0377 16.948 71.0376 16.948 71.0375 16.948C71.0374 16.948 71.0373 16.948 71.0372 16.948C71.0371 16.948 71.037 16.948 71.0369 16.948C71.0368 16.948 71.0367 16.948 71.0366 16.948C71.0365 16.948 71.0364 16.948 71.0363 16.948C71.0362 16.948 71.0361 16.948 71.036 16.948C71.0359 16.948 71.0358 16.948 71.0357 16.948C71.0356 16.948 71.0355 16.948 71.0354 16.948C71.0353 16.948 71.0352 16.948 71.0351 16.948C71.035 16.948 71.0349 16.948 71.0348 16.948C71.0347 16.948 71.0346 16.948 71.0345 16.948C71.0344 16.948 71.0343 16.948 71.0342 16.948C71.0341 16.948 71.034 16.948 71.0339 16.948C71.0338 16.948 71.0337 16.948 71.0336 16.948C71.0335 16.948 71.0334 16.948 71.0333 16.948C71.0332 16.948 71.0331 16.948 71.033 16.948C71.0329 16.948 71.0328 16.948 71.0327 16.948C71.0326 16.948 71.0325 16.948 71.0324 16.948C71.0323 16.948 71.0322 16.948 71.0321 16.948C71.032 16.948 71.0319 16.948 71.0318 16.948C71.0317 16.948 71.0316 16.948 71.0315 16.948C71.0314 16.948 71.0313 16.948 71.0312 16.948C71.0311 16.948 71.031 16.948 71.0309 16.948C71.0308 16.948 71.0307 16.948 71.0306 16.948C71.0305 16.948 71.0304 16.948 71.0303 16.948C71.0302 16.948 71.0301 16.948 71.03 16.948C71.0299 16.948 71.0298 16.948 71.0297 16.948C71.0296 16.948 71.0295 16.948 71.0294 16.948C71.0293 16.948 71.0292 16.948 71.0291 16.948C71.029 16.948 71.0289 16.948 71.0288 16.948C71.0287 16.948 71.0286 16.948 71.0285 16.948C71.0284 16.948 71.0283 16.948 71.0282 16.948C71.0281 16.948 71.028 16.948 71.0279 16.948C71.0278 16.948 71.0277 16.948 71.0276 16.948C71.0275 16.948 71.0274 16.948 71.0273 16.948C71.0272 16.948 71.0271 16.948 71.027 16.948C71.0269 16.948 71.0268 16.948 71.0267 16.948C71.0266 16.948 71.0265 16.948 71.0264 16.948C71.0263 16.948 71.0262 16.948 71.0261 16.948C71.026 16.948 71.0259 16.948 71.0258 16.948C71.0257 16.948 71.0256 16.948 71.0255 16.948C71.0254 16.948 71.0253 16.948 71.0252 16.948C71.0251 16.948 71.025 16.948 71.0249 16.948C71.0248 16.948 71.0247 16.948 71.0246 16.948C71.0245 16.948 71.0244 16.948 71.0243 16.948C71.0242 16.948 71.0241 16.948 71.024 16.948C71.0239 16.948 71.0238 16.948 71.0237 16.948C71.0236 16.948 71.0235 16.948 71.0234 16.948C71.0233 16.948 71.0232 16.948 71.0231 16.948C71.023 16.948 71.0229 16.948 71.0228 16.948C71.0227 16.948 71.0226 16.948 71.0225 16.948C71.0224 16.948 71.0223 16.948 71.0222 16.948C71.0221 16.948 71.022 16.948 71.0219 16.948C71.0218 16.948 71.0217 16.948 71.0216 16.948C71.0215 16.948 71.0213 16.948 71.0212 16.948C71.0211 16.948 71.021 16.948 71.0209 16.948C71.0208 16.948 71.0207 16.948 71.0206 16.948C71.0205 16.948 71.0204 16.948 71.0203 16.948C71.0202 16.948 71.0201 16.948 71.02 16.948C71.0199 16.948 71.0198 16.948 71.0197 16.948C71.0196 16.948 71.0195 16.948 71.0194 16.948C71.0193 16.948 71.0192 16.948 71.0191 16.948C71.019 16.948 71.0189 16.948 71.0188 16.948C71.0187 16.948 71.0186 16.948 71.0185 16.948C71.0184 16.948 71.0183 16.948 71.0182 16.948C71.0181 16.948 71.018 16.948 71.0179 16.948C71.0178 16.948 71.0177 16.948 71.0176 16.948C71.0175 16.948 71.0174 16.948 71.0173 16.948C71.0172 16.948 71.0171 16.948 71.017 16.948C71.0169 16.948 71.0168 16.948 71.0167 16.948C71.0166 16.948 71.0165 16.948 71.0164 16.948C71.0163 16.948 71.0162 16.948 71.0161 16.948C71.016 16.948 71.0159 16.948 71.0158 16.948C71.0157 16.948 71.0156 16.948 71.0155 16.948C71.0154 16.948 71.0153 16.948 71.0152 16.948C71.0151 16.948 71.015 16.948 71.0149 16.948C71.0148 16.948 71.0147 16.948 71.0146 16.948C71.0145 16.948 71.0144 16.948 71.0143 16.948C71.0142 16.948 71.0141 16.948 71.014 16.948C71.0139 16.948 71.0138 16.948 71.0137 16.948C71.0136 16.948 71.0135 16.948 71.0134 16.948C71.0133 16.948 71.0132 16.948 71.0131 16.948C71.013 16.948 71.0129 16.948 71.0128 16.948C71.0127 16.948 71.0126 16.948 71.0125 16.948C71.0124 16.948 71.0123 16.948 71.0122 16.948C71.0121 16.948 71.012 16.948 71.0119 16.948C71.0118 16.948 71.0117 16.948 71.0116 16.948C71.0115 16.948 71.0114 16.948 71.0113 16.948C71.0112 16.948 71.0111 16.948 71.011 16.948C71.0109 16.948 71.0108 16.948 71.0107 16.948C71.0106 16.948 71.0105 16.948 71.0104 16.948C71.0103 16.948 71.0102 16.948 71.0101 16.948C71.01 16.948 71.0099 16.948 71.0098 16.948C71.0097 16.948 71.0096 16.948 71.0095 16.948C71.0094 16.948 71.0093 16.948 71.0092 16.948C71.0091 16.948 71.009 16.948 71.0089 16.948C71.0088 16.948 71.0087 16.948 71.0086 16.948C71.0085 16.948 71.0084 16.948 71.0083 16.948C71.0082 16.948 71.0081 16.948 71.008 16.948C71.0079 16.948 71.0078 16.948 71.0077 16.948C71.0076 16.948 71.0075 16.948 71.0074 16.948V17.7849ZM71.1616 17.7849L71.1419 18.6216C75.0597 18.714 78.2423 21.9549 78.2423 25.8821H79.0792H79.9161C79.9161 21.0417 76.0038 17.0621 71.1814 16.9483L71.1616 17.7849ZM79.0792 25.8821V25.0453H69.8249V25.8821V26.719H79.0792V25.8821Z" fill="#24292F" mask="url(#path-2-inside-1_2848_3651)"/>
  <path d="M27.7141 18.2468H67.2405L71.2024 18.3347C71.1557 18.3889 71.1084 18.4433 71.0618 18.4978C70.7246 18.8925 70.3928 19.2915 70.3167 19.3894C70.2534 19.4707 70.1696 19.5702 70.0764 19.6833C70.0007 19.7753 69.915 19.8823 69.8499 19.9753C68.8143 21.1829 68.2288 22.5694 68.2288 24.283V63.9958C68.2286 68.2289 64.8347 71.6306 60.6184 71.6306H21.801V23.9392C21.9001 22.3897 22.4789 21.0096 23.4661 20.0193C24.5663 18.9156 26.0439 18.2469 27.7141 18.2468Z" fill="#FDFEFF" stroke="#24292F" stroke-width="0.923991"/>
  <path d="M55.9226 66.2109C56.0374 67.9092 56.777 69.4445 57.8904 70.5615C58.2913 70.9806 58.7454 71.3382 59.24 71.6309H15.9568C14.3371 71.6309 12.8587 70.9619 11.8103 69.9102C10.8621 68.9589 10.228 67.6545 10.115 66.2109H55.9226Z" fill="white" stroke="black" stroke-width="0.923991"/>
  <rect width="23.8925" height="27.001" rx="1.84798" transform="matrix(0.999996 -0.00298682 -0.00113798 0.999999 31.1079 29.8955)" fill="#FFD350"/>
  <rect width="16.9785" height="2.82388" rx="1.41194" transform="matrix(0.999992 0.0039968 -0.00703632 0.999975 33.1995 35.2693)" fill="#FFEFBE"/>
  <rect width="16.9785" height="2.82388" rx="1.41194" transform="matrix(0.999992 0.0039968 -0.00703632 0.999975 33.0803 41.4648)" fill="#FFEFBE"/>
  <rect width="9.71857" height="2.82388" rx="1.41194" transform="matrix(0.999992 0.0039968 -0.00703632 0.999975 32.9026 47.5239)" fill="#FFEFBE"/>
  <rect x="72.0615" y="50.1187" width="11.9903" height="1.79336" rx="0.896679" transform="rotate(42.082 72.0615 50.1187)" fill="#24292F"/>
  <path d="M69.9907 38.1655C59.6505 38.4473 56.2511 52.4272 65.4766 57.3453C66.1361 57.6985 66.8335 57.9775 67.5549 58.1759C72.3027 59.4876 77.2107 57.2251 79.3738 52.9562C82.8434 46.1036 77.7308 37.9399 69.9907 38.1655Z" fill="#36C2CF"/>
  <path d="M78.2127 59.1716C77.7326 58.6916 77.7326 57.9133 78.2126 57.4333L79.1195 56.5265C79.5995 56.0464 80.3778 56.0464 80.8578 56.5264L86.0514 61.7199C86.5314 62.1999 86.5314 62.9781 86.0514 63.4582L85.1446 64.365C84.6646 64.8451 83.8863 64.8451 83.4063 64.3651L78.2127 59.1716Z" fill="#36C2CF"/>
  <path d="M69.0911 48.3542C69.0911 48.6917 69.2175 49.0154 69.4426 49.2541C69.6678 49.4927 69.9731 49.6268 70.2914 49.6268C70.6098 49.6268 70.9151 49.4927 71.1402 49.2541C71.3653 49.0154 71.4918 48.6917 71.4918 48.3542C71.4918 48.0167 71.3653 47.693 71.1402 47.4543C70.9151 47.2156 70.6098 47.0815 70.2914 47.0815C69.9731 47.0815 69.6678 47.2156 69.4426 47.4543C69.2175 47.693 69.0911 48.0167 69.0911 48.3542Z" fill="#FDFEFF"/>
  <path d="M65.0898 48.3542C65.0898 48.6917 65.2163 49.0154 65.4414 49.2541C65.6665 49.4927 65.9718 49.6268 66.2902 49.6268C66.6086 49.6268 66.9139 49.4927 67.139 49.2541C67.3641 49.0154 67.4906 48.6917 67.4906 48.3542C67.4906 48.0167 67.3641 47.693 67.139 47.4543C66.9139 47.2156 66.6086 47.0815 66.2902 47.0815C65.9718 47.0815 65.6665 47.2156 65.4414 47.4543C65.2163 47.693 65.0898 48.0167 65.0898 48.3542Z" fill="#FDFEFF"/>
  <path d="M73.0923 48.3542C73.0923 48.6917 73.2188 49.0154 73.4439 49.2541C73.669 49.4927 73.9743 49.6268 74.2926 49.6268C74.611 49.6268 74.9163 49.4927 75.1414 49.2541C75.3665 49.0154 75.493 48.6917 75.493 48.3542C75.493 48.0167 75.3665 47.693 75.1414 47.4543C74.9163 47.2156 74.611 47.0815 74.2926 47.0815C73.9743 47.0815 73.669 47.2156 73.4439 47.4543C73.2188 47.693 73.0923 48.0167 73.0923 48.3542Z" fill="#FDFEFF"/>
  <ellipse cx="48.9997" cy="80.1923" rx="20.0915" ry="2.30998" fill="#D9DFE5"/>
</svg>
