<svg width="96" height="96" viewBox="0 0 96 96" fill="none" xmlns="http://www.w3.org/2000/svg">
  <path fill="#eaeff3" d="M0 48c0 36.895 40 59.955 72 41.507C86.851 80.946 96 65.123 96 48c0-36.895-40-59.955-72-41.507C9.149 15.054 0 30.877 0 48"/>
  <path fill="#24292f" d="M64.375 25.882H43.04v-8.097h27.968c4.525.103 8.072 3.713 8.072 8.097h-9.254"/>
  <path fill="#fdfeff" stroke="#24292f" stroke-width=".924" d="M27.714 18.247h39.527l3.961.088-.14.163c-.337.394-.67.793-.745.891-.064.082-.147.181-.24.294a5 5 0 0 0-.227.292c-1.036 1.208-1.621 2.594-1.621 4.308v39.713a7.604 7.604 0 0 1-7.61 7.635H21.8V23.939c.1-1.55.678-2.93 1.665-3.92a5.94 5.94 0 0 1 4.248-1.772Z"/>
  <path fill="#fff" stroke="#000" stroke-width=".924" d="M55.923 66.21a6.83 6.83 0 0 0 1.967 4.352 6.3 6.3 0 0 0 1.35 1.069H15.957a5.87 5.87 0 0 1-4.147-1.72 5.9 5.9 0 0 1-1.695-3.7z"/>
  <rect width="23.892" height="27.001" fill="#ffd350" rx="1.848" transform="matrix(1 -.00299 -.00114 1 31.108 29.895)"/>
  <rect width="16.979" height="2.824" fill="#ffefbe" rx="1.412" transform="rotate(.403 -4995.8 4735.88)skewY(-.174)"/>
  <rect width="16.979" height="2.824" fill="#ffefbe" rx="1.412" transform="matrix(1 .004 -.00704 .99997 33.08 41.465)"/>
  <rect width="9.719" height="2.824" fill="#ffefbe" rx="1.412" transform="matrix(1 .004 -.00703 .99998 32.89 47.506)"/>
  <rect width="11.99" height="1.793" x="72.061" y="50.119" fill="#24292f" rx=".897" transform="rotate(42.082 72.061 50.119)"/>
  <path fill="#36c2cf" d="M69.99 38.166c-10.34.281-13.739 14.261-4.513 19.18a10.2 10.2 0 0 0 13.897-4.39c3.47-6.852-1.643-15.016-9.383-14.79m8.222 21.006a1.23 1.23 0 0 1 0-1.739l.907-.907a1.23 1.23 0 0 1 1.738 0l5.193 5.194c.48.48.48 1.258 0 1.738l-.906.907a1.23 1.23 0 0 1-1.739 0z"/>
  <path fill="#fdfeff" d="M69.091 48.354c0 .338.127.661.352.9s.53.373.848.373c.319 0 .624-.134.85-.373.224-.239.35-.562.35-.9s-.126-.661-.35-.9a1.17 1.17 0 0 0-.85-.373c-.318 0-.623.135-.848.373a1.3 1.3 0 0 0-.352.9m-4.001 0c0 .338.126.661.351.9s.53.373.85.373c.318 0 .623-.134.848-.373s.352-.562.352-.9-.127-.661-.352-.9a1.17 1.17 0 0 0-.849-.373 1.17 1.17 0 0 0-.849.373 1.3 1.3 0 0 0-.351.9m8.002 0c0 .338.127.661.352.9s.53.373.849.373.623-.134.848-.373.352-.562.352-.9-.126-.661-.352-.9a1.17 1.17 0 0 0-.848-.373c-.319 0-.624.135-.85.373a1.3 1.3 0 0 0-.35.9"/>
  <ellipse cx="49" cy="80.192" fill="#d9dfe5" rx="20.091" ry="2.31"/>
</svg>
