<svg width="100" height="100" viewBox="0 0 100 100" fill="none" xmlns="http://www.w3.org/2000/svg">
  <path d="M14.8305 74.855L27.7805 61.8838C30.1299 65.3719 33.1312 68.3732 36.6193 70.7225L23.6693 83.6938C22.4972 84.8659 20.9075 85.5243 19.2499 85.5243C17.5923 85.5243 16.0026 84.8659 14.8305 83.6938C13.6585 82.5217 13 80.932 13 79.2744C13 77.6168 13.6585 76.0271 14.8305 74.855Z" fill="#1E4BDE" stroke="black" stroke-width="1.2" stroke-linecap="round" stroke-linejoin="round"/>
  <path d="M22.2529 43.75C22.2529 51.0435 25.1502 58.0382 30.3075 63.1954C35.4647 68.3527 42.4595 71.25 49.7529 71.25C57.0464 71.25 64.0411 68.3527 69.1984 63.1954C74.3556 58.0382 77.2529 51.0435 77.2529 43.75C77.2529 36.4565 74.3556 29.4618 69.1984 24.3046C64.0411 19.1473 57.0464 16.25 49.7529 16.25C42.4595 16.25 35.4647 19.1473 30.3075 24.3046C25.1502 29.4618 22.2529 36.4565 22.2529 43.75Z" fill="#C8D4FA" stroke="black" stroke-width="1.2" stroke-linecap="round" stroke-linejoin="round"/>
  <path d="M22.2529 43.75C22.2529 48.018 23.0936 52.2441 24.7268 56.1872C26.3601 60.1303 28.7541 63.7131 31.772 66.731C34.7899 69.7489 38.3726 72.1428 42.3157 73.7761C46.2588 75.4094 50.485 76.25 54.7529 76.25C59.0209 76.25 63.2471 75.4094 67.1901 73.7761C71.1332 72.1428 74.716 69.7489 77.7339 66.731C80.7518 63.7131 83.1457 60.1303 84.779 56.1872C86.4123 52.2441 87.2529 48.018 87.2529 43.75C87.2529 39.482 86.4123 35.2559 84.779 31.3128C83.1457 27.3697 80.7518 23.7869 77.7339 20.769C74.716 17.7511 71.1332 15.3572 67.1901 13.7239C63.2471 12.0906 59.0209 11.25 54.7529 11.25C50.485 11.25 46.2588 12.0906 42.3157 13.7239C38.3726 15.3572 34.7899 17.7511 31.772 20.769C28.7541 23.7869 26.3601 27.3697 24.7268 31.3128C23.0936 35.2559 22.2529 39.482 22.2529 43.75Z" fill="white" stroke="black" stroke-width="1.2" stroke-linecap="round" stroke-linejoin="round"/>
  <path d="M14.8308 74.855L27.7808 61.8838C30.1302 65.3719 33.1314 68.3732 36.6195 70.7225L23.6696 83.6938C22.4957 84.8574 20.9087 85.5087 19.2558 85.505C17.603 85.5014 16.0189 84.8432 14.8501 83.6745C13.6814 82.5057 13.0232 80.9216 13.0195 79.2687C13.0159 77.6159 13.6672 76.0289 14.8308 74.855Z" fill="#808080" stroke="black" stroke-width="1.2" stroke-linecap="round" stroke-linejoin="round"/>
  <path d="M27.7804 61.8838C30.1297 65.3719 33.131 68.3732 36.6191 70.7225L33.0329 74.31C29.6149 71.8758 26.6271 68.8881 24.1929 65.47L27.7804 61.8838Z" fill="#E4E4E4" stroke="black" stroke-width="1.2" stroke-linecap="round" stroke-linejoin="round"/>
  <path d="M27.2529 43.75C27.2529 51.0435 30.1502 58.0382 35.3075 63.1954C40.4647 68.3527 47.4595 71.25 54.7529 71.25C62.0464 71.25 69.0411 68.3527 74.1984 63.1954C79.3556 58.0382 82.2529 51.0435 82.2529 43.75C82.2529 36.4565 79.3556 29.4618 74.1984 24.3046C69.0411 19.1473 62.0464 16.25 54.7529 16.25C47.4595 16.25 40.4647 19.1473 35.3075 24.3046C30.1502 29.4618 27.2529 36.4565 27.2529 43.75Z" fill="#6FDAFB" stroke="black" stroke-width="1.2" stroke-linecap="round" stroke-linejoin="round"/>
  <path d="M69.7529 35H64.7529C64.7529 35 63.5029 35 63.5029 33.75V28.75C63.5029 28.75 63.5029 27.5 64.7529 27.5H69.7529C69.7529 27.5 71.0029 27.5 71.0029 28.75V33.75C71.0029 33.75 71.0029 35 69.7529 35Z" fill="#4B9BD8"/>
  <path d="M46.0029 61.25H38.5029C38.5029 61.25 37.2529 61.25 37.2529 60V52.5C37.2529 52.5 37.2529 51.25 38.5029 51.25H46.0029C46.0029 51.25 47.2529 51.25 47.2529 52.5V60C47.2529 60 47.2529 61.25 46.0029 61.25Z" fill="#4B9BD8"/>
  <path d="M39.7529 43.75C39.7529 40.2987 46.4692 37.5 54.7529 37.5C63.0367 37.5 69.7529 40.2987 69.7529 43.75" stroke="white" stroke-width="1.2" stroke-linecap="round" stroke-linejoin="round"/>
  <path d="M54.7529 58.75C51.3017 58.75 48.5029 52.0337 48.5029 43.75C48.5029 35.4662 51.3017 28.75 54.7529 28.75" stroke="white" stroke-width="1.2" stroke-linecap="round" stroke-linejoin="round"/>
  <path d="M69.7529 43.75C69.7529 47.2012 63.0367 50 54.7529 50C46.4692 50 39.7529 47.2012 39.7529 43.75" stroke="black" stroke-width="1.2" stroke-linecap="round" stroke-linejoin="round"/>
  <path d="M54.7529 28.75C58.2042 28.75 61.0029 35.4662 61.0029 43.75C61.0029 52.0337 58.2042 58.75 54.7529 58.75" stroke="black" stroke-width="1.2" stroke-linecap="round" stroke-linejoin="round"/>
  <path d="M39.7529 43.75C39.7529 47.7282 41.3333 51.5436 44.1463 54.3566C46.9594 57.1696 50.7747 58.75 54.7529 58.75C58.7312 58.75 62.5465 57.1696 65.3595 54.3566C68.1726 51.5436 69.7529 47.7282 69.7529 43.75C69.7529 39.7718 68.1726 35.9564 65.3595 33.1434C62.5465 30.3304 58.7312 28.75 54.7529 28.75C50.7747 28.75 46.9594 30.3304 44.1463 33.1434C41.3333 35.9564 39.7529 39.7718 39.7529 43.75Z" stroke="black" stroke-width="1.2" stroke-linecap="round" stroke-linejoin="round"/>
  <path d="M84.7529 88.75H57.2529C57.2529 88.75 54.7529 88.75 54.7529 86.25V63.75C54.7529 63.75 54.7529 61.25 57.2529 61.25H84.7529C84.7529 61.25 87.2529 61.25 87.2529 63.75V86.25C87.2529 86.25 87.2529 88.75 84.7529 88.75Z" fill="white" stroke="black" stroke-width="1.2" stroke-linecap="round" stroke-linejoin="round"/>
  <path d="M69.1279 77.5C69.1279 77.9973 69.3255 78.4742 69.6771 78.8258C70.0287 79.1775 70.5056 79.375 71.0029 79.375C71.5002 79.375 71.9771 79.1775 72.3288 78.8258C72.6804 78.4742 72.8779 77.9973 72.8779 77.5C72.8779 77.0027 72.6804 76.5258 72.3288 76.1742C71.9771 75.8225 71.5002 75.625 71.0029 75.625C70.5056 75.625 70.0287 75.8225 69.6771 76.1742C69.3255 76.5258 69.1279 77.0027 69.1279 77.5Z" fill="#E4E4E4"/>
  <path d="M62.8779 77.5C62.8779 77.9973 63.0755 78.4742 63.4271 78.8258C63.7787 79.1775 64.2556 79.375 64.7529 79.375C65.2502 79.375 65.7271 79.1775 66.0788 78.8258C66.4304 78.4742 66.6279 77.9973 66.6279 77.5C66.6279 77.0027 66.4304 76.5258 66.0788 76.1742C65.7271 75.8225 65.2502 75.625 64.7529 75.625C64.2556 75.625 63.7787 75.8225 63.4271 76.1742C63.0755 76.5258 62.8779 77.0027 62.8779 77.5Z" fill="#E4E4E4"/>
  <path d="M75.3779 77.5C75.3779 77.9973 75.5755 78.4742 75.9271 78.8258C76.2787 79.1775 76.7556 79.375 77.2529 79.375C77.7502 79.375 78.2271 79.1775 78.5788 78.8258C78.9304 78.4742 79.1279 77.9973 79.1279 77.5C79.1279 77.0027 78.9304 76.5258 78.5788 76.1742C78.2271 75.8225 77.7502 75.625 77.2529 75.625C76.7556 75.625 76.2787 75.8225 75.9271 76.1742C75.5755 76.5258 75.3779 77.0027 75.3779 77.5Z" fill="#E4E4E4"/>
  <path d="M87.2529 66.25H54.7529V63.75C54.7529 63.087 55.0163 62.4511 55.4852 61.9822C55.954 61.5134 56.5899 61.25 57.2529 61.25H84.7529C85.416 61.25 86.0519 61.5134 86.5207 61.9822C86.9895 62.4511 87.2529 63.087 87.2529 63.75V66.25Z" fill="#E62234" stroke="black" stroke-width="1.2" stroke-linecap="round" stroke-linejoin="round"/>
</svg>
