<svg width="100" height="100" viewBox="0 0 100 100" fill="none" xmlns="http://www.w3.org/2000/svg">
  <path d="M53.25 11.25H48.25C39.6305 11.25 31.364 14.6741 25.269 20.769C19.1741 26.864 15.75 35.1305 15.75 43.75C15.75 52.3695 19.1741 60.636 25.269 66.731C31.364 72.8259 39.6305 76.25 48.25 76.25H53.25C61.8695 76.25 70.136 72.8259 76.231 66.731C82.3259 60.636 85.75 52.3695 85.75 43.75C85.75 35.1305 82.3259 26.864 76.231 20.769C70.136 14.6741 61.8695 11.25 53.25 11.25Z" fill="#E4E4E4" stroke="black" stroke-width="1.2" stroke-linecap="round" stroke-linejoin="round"/>
  <path d="M26.2777 61.8839H21.2777L10.4614 72.7214C9.75525 73.4114 9.19546 74.2367 8.81552 75.148C8.43558 76.0593 8.2433 77.0379 8.25018 78.0252C8.24919 79.0116 8.443 79.9886 8.8205 80.8999C9.198 81.8113 9.75175 82.6391 10.45 83.336C11.1482 84.0328 11.9772 84.5849 12.8893 84.9606C13.8014 85.3363 14.7787 85.5281 15.7652 85.5252H17.7502C18.5711 85.5263 19.3841 85.3651 20.1424 85.0508C20.9008 84.7365 21.5895 84.2754 22.1689 83.6939L35.1189 70.7227C31.6299 68.3735 28.6278 65.3723 26.2777 61.8839Z" fill="#544A3D" stroke="black" stroke-width="1.2" stroke-linecap="round" stroke-linejoin="round"/>
  <path d="M21.2774 61.8839H26.2774C28.6268 65.372 31.6281 68.3733 35.1162 70.7227L31.5299 74.3102C28.1119 71.8759 25.1242 68.8882 22.6899 65.4702H17.6899L21.2774 61.8839Z" fill="#808080" stroke="black" stroke-width="1.2" stroke-linecap="round" stroke-linejoin="round"/>
  <path d="M13.3276 74.8552L26.2776 61.8839C28.627 65.372 31.6282 68.3733 35.1164 70.7227L22.1664 83.6939C20.9943 84.866 19.4046 85.5245 17.747 85.5245C16.0894 85.5245 14.4997 84.866 13.3276 83.6939C12.1555 82.5218 11.4971 80.9321 11.4971 79.2745C11.4971 77.617 12.1555 76.0273 13.3276 74.8552Z" fill="#1E4BDE" stroke="black" stroke-width="1.2" stroke-linecap="round" stroke-linejoin="round"/>
  <path d="M20.75 43.75C20.75 51.0435 23.6473 58.0382 28.8046 63.1954C33.9618 68.3527 40.9565 71.25 48.25 71.25C55.5435 71.25 62.5382 68.3527 67.6954 63.1954C72.8527 58.0382 75.75 51.0435 75.75 43.75C75.75 36.4565 72.8527 29.4618 67.6954 24.3046C62.5382 19.1473 55.5435 16.25 48.25 16.25C40.9565 16.25 33.9618 19.1473 28.8046 24.3046C23.6473 29.4618 20.75 36.4565 20.75 43.75Z" fill="#C8D4FA" stroke="black" stroke-width="1.2" stroke-linecap="round" stroke-linejoin="round"/>
  <path d="M20.75 43.75C20.75 48.018 21.5906 52.2441 23.2239 56.1872C24.8572 60.1303 27.2511 63.7131 30.269 66.731C33.2869 69.7489 36.8697 72.1428 40.8128 73.7761C44.7559 75.4094 48.982 76.25 53.25 76.25C57.518 76.25 61.7441 75.4094 65.6872 73.7761C69.6303 72.1428 73.2131 69.7489 76.231 66.731C79.2489 63.7131 81.6428 60.1303 83.2761 56.1872C84.9094 52.2441 85.75 48.018 85.75 43.75C85.75 39.482 84.9094 35.2559 83.2761 31.3128C81.6428 27.3697 79.2489 23.7869 76.231 20.769C73.2131 17.7511 69.6303 15.3572 65.6872 13.7239C61.7441 12.0906 57.518 11.25 53.25 11.25C48.982 11.25 44.7559 12.0906 40.8128 13.7239C36.8697 15.3572 33.2869 17.7511 30.269 20.769C27.2511 23.7869 24.8572 27.3697 23.2239 31.3128C21.5906 35.2559 20.75 39.482 20.75 43.75Z" fill="white" stroke="black" stroke-width="1.2" stroke-linecap="round" stroke-linejoin="round"/>
  <path d="M13.3279 74.8552L26.2779 61.8839C28.6272 65.372 31.6285 68.3733 35.1166 70.7227L22.1666 83.6939C20.9928 84.8575 19.4058 85.5088 17.7529 85.5052C16.1001 85.5015 14.5159 84.8433 13.3472 83.6746C12.1784 82.5058 11.5202 80.9217 11.5166 79.2689C11.513 77.616 12.1643 76.029 13.3279 74.8552Z" fill="#808080" stroke="black" stroke-width="1.2" stroke-linecap="round" stroke-linejoin="round"/>
  <path d="M26.2774 61.8839C28.6268 65.372 31.6281 68.3733 35.1162 70.7227L31.5299 74.3102C28.1119 71.8759 25.1242 68.8882 22.6899 65.4702L26.2774 61.8839Z" fill="#E4E4E4" stroke="black" stroke-width="1.2" stroke-linecap="round" stroke-linejoin="round"/>
  <path d="M25.75 43.75C25.75 51.0435 28.6473 58.0382 33.8046 63.1954C38.9618 68.3527 45.9565 71.25 53.25 71.25C60.5435 71.25 67.5382 68.3527 72.6954 63.1954C77.8527 58.0382 80.75 51.0435 80.75 43.75C80.75 36.4565 77.8527 29.4618 72.6954 24.3046C67.5382 19.1473 60.5435 16.25 53.25 16.25C45.9565 16.25 38.9618 19.1473 33.8046 24.3046C28.6473 29.4618 25.75 36.4565 25.75 43.75Z" fill="#6FDAFB" stroke="black" stroke-width="1.2" stroke-linecap="round" stroke-linejoin="round"/>
  <path d="M68.25 35H63.25C63.25 35 62 35 62 33.75V28.75C62 28.75 62 27.5 63.25 27.5H68.25C68.25 27.5 69.5 27.5 69.5 28.75V33.75C69.5 33.75 69.5 35 68.25 35Z" fill="#4B9BD8"/>
  <path d="M44.5 61.25H37C37 61.25 35.75 61.25 35.75 60V52.5C35.75 52.5 35.75 51.25 37 51.25H44.5C44.5 51.25 45.75 51.25 45.75 52.5V60C45.75 60 45.75 61.25 44.5 61.25Z" fill="#4B9BD8"/>
  <path d="M38.25 43.75C38.25 40.2987 44.9662 37.5 53.25 37.5C61.5337 37.5 68.25 40.2987 68.25 43.75" stroke="white" stroke-width="1.2" stroke-linecap="round" stroke-linejoin="round"/>
  <path d="M53.25 58.75C49.7987 58.75 47 52.0337 47 43.75C47 35.4662 49.7987 28.75 53.25 28.75" stroke="white" stroke-width="1.2" stroke-linecap="round" stroke-linejoin="round"/>
  <path d="M68.25 43.75C68.25 47.2012 61.5337 50 53.25 50C44.9662 50 38.25 47.2012 38.25 43.75" stroke="black" stroke-width="1.2" stroke-linecap="round" stroke-linejoin="round"/>
  <path d="M53.25 28.75C56.7012 28.75 59.5 35.4662 59.5 43.75C59.5 52.0337 56.7012 58.75 53.25 58.75" stroke="black" stroke-width="1.2" stroke-linecap="round" stroke-linejoin="round"/>
  <path d="M38.25 43.75C38.25 47.7282 39.8304 51.5436 42.6434 54.3566C45.4564 57.1696 49.2718 58.75 53.25 58.75C57.2282 58.75 61.0436 57.1696 63.8566 54.3566C66.6696 51.5436 68.25 47.7282 68.25 43.75C68.25 39.7718 66.6696 35.9564 63.8566 33.1434C61.0436 30.3304 57.2282 28.75 53.25 28.75C49.2718 28.75 45.4564 30.3304 42.6434 33.1434C39.8304 35.9564 38.25 39.7718 38.25 43.75Z" stroke="black" stroke-width="1.2" stroke-linecap="round" stroke-linejoin="round"/>
  <path d="M83.25 88.75H55.75C55.75 88.75 53.25 88.75 53.25 86.25V63.75C53.25 63.75 53.25 61.25 55.75 61.25H83.25C83.25 61.25 85.75 61.25 85.75 63.75V86.25C85.75 86.25 85.75 88.75 83.25 88.75Z" fill="white" stroke="black" stroke-width="1.2" stroke-linecap="round" stroke-linejoin="round"/>
  <path d="M67.625 77.5C67.625 77.9973 67.8225 78.4742 68.1742 78.8258C68.5258 79.1775 69.0027 79.375 69.5 79.375C69.9973 79.375 70.4742 79.1775 70.8258 78.8258C71.1775 78.4742 71.375 77.9973 71.375 77.5C71.375 77.0027 71.1775 76.5258 70.8258 76.1742C70.4742 75.8225 69.9973 75.625 69.5 75.625C69.0027 75.625 68.5258 75.8225 68.1742 76.1742C67.8225 76.5258 67.625 77.0027 67.625 77.5Z" fill="#E4E4E4"/>
  <path d="M61.375 77.5C61.375 77.9973 61.5725 78.4742 61.9242 78.8258C62.2758 79.1775 62.7527 79.375 63.25 79.375C63.7473 79.375 64.2242 79.1775 64.5758 78.8258C64.9275 78.4742 65.125 77.9973 65.125 77.5C65.125 77.0027 64.9275 76.5258 64.5758 76.1742C64.2242 75.8225 63.7473 75.625 63.25 75.625C62.7527 75.625 62.2758 75.8225 61.9242 76.1742C61.5725 76.5258 61.375 77.0027 61.375 77.5Z" fill="#E4E4E4"/>
  <path d="M73.875 77.5C73.875 77.9973 74.0725 78.4742 74.4242 78.8258C74.7758 79.1775 75.2527 79.375 75.75 79.375C76.2473 79.375 76.7242 79.1775 77.0758 78.8258C77.4275 78.4742 77.625 77.9973 77.625 77.5C77.625 77.0027 77.4275 76.5258 77.0758 76.1742C76.7242 75.8225 76.2473 75.625 75.75 75.625C75.2527 75.625 74.7758 75.8225 74.4242 76.1742C74.0725 76.5258 73.875 77.0027 73.875 77.5Z" fill="#E4E4E4"/>
  <path d="M85.75 66.25H53.25V63.75C53.25 63.087 53.5134 62.4511 53.9822 61.9822C54.4511 61.5134 55.087 61.25 55.75 61.25H83.25C83.913 61.25 84.5489 61.5134 85.0178 61.9822C85.4866 62.4511 85.75 63.087 85.75 63.75V66.25Z" fill="#E62234" stroke="black" stroke-width="1.2" stroke-linecap="round" stroke-linejoin="round"/>
</svg>
