<svg width="88" height="66" viewBox="0 0 88 66" fill="none" xmlns="http://www.w3.org/2000/svg">
  <g clip-path="url(#clip0_1723_29223)">
  <rect width="44" height="66" transform="translate(-0.0275879)" fill="url(#paint0_linear_1723_29223)"/>
  <path fill-rule="evenodd" clip-rule="evenodd" d="M65.9448 0.5H54.9448V11.5H43.9448V22.5H54.9448V33.5H65.9448V22.5H54.9448V11.5H65.9448V0.5ZM54.9448 44.5H65.9448V55.5H54.9448V44.5ZM54.9448 44.5H43.9448V33.5H54.9448V44.5ZM87.9448 0.5H76.9448V11.5H65.9448V22.5H76.9448V33.5H87.9448V22.5H76.9448V11.5H87.9448V0.5ZM87.9448 44.5H76.9448V33.5H65.9448V44.5H76.9448V55.5H87.9448V44.5Z" fill="#EAF0F7"/>
  <path fill-rule="evenodd" clip-rule="evenodd" d="M54.9448 55.5H43.9448V66.5H32.9448V77.5H43.9448V88.5H54.9448V77.5H43.9448V66.5H54.9448V55.5ZM43.9448 99.5H54.9448V110.5H43.9448V99.5ZM43.9448 99.5H32.9448V88.5H43.9448V99.5ZM76.9448 55.5H65.9448V66.5H54.9448V77.5H65.9448V88.5H76.9448V77.5H65.9448V66.5H76.9448V55.5ZM76.9448 99.5H65.9448V88.5H54.9448V99.5H65.9448V110.5H76.9448V99.5Z" fill="#EAF0F7"/>
  <path d="M58.9565 55.2635C58.4019 57.43 56.6985 57.0249 54.3857 56.2689C57.5937 56.4567 58.9565 55.2635 58.9565 55.2635Z" fill="#231C1D"/>
  <path d="M54.2444 42.6894L53.6202 41.9631C51.5338 40.7279 49.6936 42.099 46.8909 42.2744C44.1281 42.4473 42.2829 41.8791 40.3755 43.2873L39.724 43.5985C39.724 43.5985 31.3832 47.8823 31.622 51.6274C31.7239 53.248 33.4299 53.3345 34.2082 53.1319C34.9319 52.9441 35.6108 52.2277 36.1032 51.5731C36.0034 52.26 35.9717 52.9551 36.0087 53.6482C36.6453 63.7226 41.3081 55.3306 47.6967 54.9328C54.0853 54.5351 59.688 61.0595 59.136 52.2154C59.0819 51.4819 58.9519 50.7558 58.748 50.0488C58.489 49.2369 58.186 48.4394 57.8403 47.6599C57.3997 46.6295 56.8635 45.642 56.2388 44.7102C55.7254 43.904 55.0457 43.2153 54.2444 42.6894Z" fill="#07BEFF"/>
  <mask id="mask0_1723_29223" style="mask-type:alpha" maskUnits="userSpaceOnUse" x="31" y="41" width="29" height="18">
  <path d="M54.2444 42.6894L53.6202 41.9631C51.5338 40.7279 49.6936 42.099 46.8909 42.2744C44.1281 42.4473 42.2829 41.8791 40.3755 43.2873L39.724 43.5985C39.724 43.5985 31.3832 47.8823 31.622 51.6274C31.7239 53.248 33.4299 53.3345 34.2082 53.1319C34.9319 52.9441 35.6108 52.2277 36.1032 51.5731C36.0034 52.26 35.9717 52.9551 36.0087 53.6482C36.6453 63.7226 41.3081 55.3306 47.6967 54.9328C54.0853 54.5351 59.688 61.0595 59.136 52.2154C59.0819 51.4819 58.9519 50.7558 58.748 50.0488C58.489 49.2369 58.186 48.4394 57.8403 47.6599C57.3997 46.6295 56.8635 45.642 56.2388 44.7102C55.7254 43.904 55.0457 43.2153 54.2444 42.6894Z" fill="#0CA1DD"/>
  <path d="M54.2444 42.6894L53.6202 41.9631C51.5338 40.7279 49.6936 42.099 46.8909 42.2744C44.1281 42.4473 42.2829 41.8791 40.3755 43.2873L39.724 43.5985C39.724 43.5985 31.3832 47.8823 31.622 51.6274C31.7239 53.248 33.4299 53.3345 34.2082 53.1319C34.9319 52.9441 35.6108 52.2277 36.1032 51.5731C36.0034 52.26 35.9717 52.9551 36.0087 53.6482C36.6453 63.7226 41.3081 55.3306 47.6967 54.9328C54.0853 54.5351 59.688 61.0595 59.136 52.2154C59.0819 51.4819 58.9519 50.7558 58.748 50.0488C58.489 49.2369 58.186 48.4394 57.8403 47.6599C57.3997 46.6295 56.8635 45.642 56.2388 44.7102C55.7254 43.904 55.0457 43.2153 54.2444 42.6894Z" fill="#07BEFF"/>
  </mask>
  <g mask="url(#mask0_1723_29223)">
  <g filter="url(#filter0_f_1723_29223)">
  <path d="M55.2934 45.0738C56.7183 47.2824 57.2008 48.7029 57.3351 50.825C57.8946 59.679 53.2766 54.0884 46.8905 54.4861C42.9464 54.7332 40.3999 58.0238 36.6946 57.2851C38.2016 61.0822 42.2824 55.2717 47.6887 54.9333C54.0724 54.5331 59.7149 61.0599 59.128 52.2158C58.8694 48.488 55.0944 44.765 55.2934 45.0738Z" fill="url(#paint1_linear_1723_29223)"/>
  </g>
  <g filter="url(#filter1_f_1723_29223)">
  <path d="M36.4542 49.3158C35.7529 50.6004 34.8029 51.4404 33.3879 51.806C32.7975 51.9533 32.1739 51.8939 31.6223 51.638C31.7317 53.2487 33.4302 53.3352 34.2086 53.1202C35.6211 52.7546 36.9018 50.2126 36.9018 50.2126L38.3665 46.1216C38.3665 46.1216 37.153 48.0287 36.4542 49.3158Z" fill="url(#paint2_linear_1723_29223)"/>
  </g>
  <g filter="url(#filter2_f_1723_29223)">
  <path d="M36.0046 53.7801C36.0046 53.7801 44.9795 54.5212 54.4816 51.8779C54.4816 51.8779 43.3631 55.1981 36.1165 54.8251L36.0046 53.7801Z" fill="url(#paint3_linear_1723_29223)"/>
  </g>
  </g>
  <path d="M31.7936 50.4657C31.6548 50.8366 31.5939 51.2317 31.6145 51.6268C31.7165 53.2474 33.4224 53.3339 34.2008 53.1313C34.5723 53.0151 34.9125 52.8166 35.1955 52.5507C32.7883 52.2963 32.0199 51.0092 31.7936 50.4657Z" fill="#020333"/>
  <path d="M25.1765 21.7787C25.1765 21.7787 20.1582 29.3233 17.0298 29.4814C17.0298 29.4814 17.0497 33.3699 21.3643 33.7108C25.6789 34.0517 26.9074 23.0287 25.1765 21.7787Z" fill="white"/>
  <path d="M24.3822 24.0327C24.3822 24.0327 21.398 29.7146 19.1599 30.1173C19.1599 30.1173 19.4907 32.8051 22.6191 32.6421C25.7475 32.479 25.7276 24.7367 24.3822 24.0327Z" fill="#0CA1DD"/>
  <path d="M60.7 16.2299C60.7 16.2299 67.8122 21.8847 70.8362 21.0744C70.8362 21.0744 72.0199 24.78 68.0211 26.4204C64.0223 28.0608 59.4391 17.9394 60.7 16.2299Z" fill="white"/>
  <path d="M62.152 18.1219C62.152 18.1219 66.7625 22.623 69.0106 22.3216C69.0106 22.3216 69.5278 24.9822 66.5014 25.7802C63.475 26.5781 61.0901 19.194 62.152 18.1219Z" fill="#0CA1DD"/>
  <path d="M15.7291 11.2589C15.7291 11.2589 21.9312 18.2255 35.6658 13.4106L25.6962 21.81C25.6962 21.81 15.2119 21.1628 15.003 11.9135C14.993 11.9259 14.9657 10.6907 15.7291 11.2589Z" fill="#07BEFF"/>
  <path d="M66.8355 3.26218C66.8355 3.26218 63.0904 11.7826 48.5302 11.3973L60.621 16.3579C60.621 16.3579 70.3991 12.5386 67.7407 3.67227C67.7407 3.67227 67.3876 2.48894 66.8355 3.26218Z" fill="#07BEFF"/>
  <path d="M66.7756 23.4755C71.1997 30.8349 68.7651 38.9823 46.6325 42.4483C24.316 45.939 19.6756 38.9131 21.5681 30.5582C23.657 21.3312 29.2398 13.537 41.7112 11.5854C54.1825 9.63376 61.8841 15.338 66.7756 23.4755Z" fill="#07BEFF"/>
  <mask id="mask1_1723_29223" style="mask-type:alpha" maskUnits="userSpaceOnUse" x="15" y="3" width="54" height="41">
  <path d="M15.7291 11.2589C15.7291 11.2589 21.9312 18.2255 35.6658 13.4106L25.6962 21.81C25.6962 21.81 15.2119 21.1628 15.003 11.9135C14.993 11.9259 14.9657 10.6907 15.7291 11.2589Z" fill="url(#paint4_linear_1723_29223)"/>
  <path d="M66.8355 3.26218C66.8355 3.26218 63.0904 11.7826 48.5302 11.3973L60.621 16.3579C60.621 16.3579 70.3991 12.5386 67.7407 3.67227C67.7407 3.67227 67.3876 2.48894 66.8355 3.26218Z" fill="url(#paint5_linear_1723_29223)"/>
  <path d="M66.7756 23.4755C71.1997 30.8349 68.7651 38.9823 46.6325 42.4483C24.316 45.939 19.6756 38.9131 21.5681 30.5582C23.657 21.3312 29.2398 13.537 41.7112 11.5854C54.1825 9.63376 61.8841 15.338 66.7756 23.4755Z" fill="url(#paint6_linear_1723_29223)"/>
  </mask>
  <g mask="url(#mask1_1723_29223)">
  <g filter="url(#filter3_f_1723_29223)">
  <path d="M33.6694 14.7461L27.2335 19.173C27.2335 19.173 16.6845 18.6394 15.2073 11.1788C14.9835 11.3715 14.9935 11.9199 14.9935 11.9199C15.2123 21.1691 25.6867 21.8164 25.6867 21.8164L35.6563 13.417C34.0324 13.9802 35.0893 14.4718 33.6694 14.7461Z" fill="url(#paint7_linear_1723_29223)" fill-opacity="0.5"/>
  </g>
  <g filter="url(#filter4_f_1723_29223)">
  <path fill-rule="evenodd" clip-rule="evenodd" d="M67.3976 3.07892C67.5582 3.24631 67.6759 3.44968 67.7407 3.67182C70.1831 11.8176 62.1281 15.695 60.8028 16.2714C63.1623 18.2633 65.1278 20.7314 66.7768 23.4746C71.2008 30.834 68.7737 38.9814 46.6337 42.4474C24.3295 45.9381 19.6892 38.9123 21.5816 30.5474C23.6581 21.3204 29.241 13.5287 41.7247 11.5746C45.0136 11.0598 47.9689 11.0774 50.6275 11.5314C50.877 11.5323 51.1783 11.5107 51.6462 11.4487L59.87 13.7585C59.87 13.7585 68.1734 10.5248 67.3976 3.07892ZM49.3926 11.7408C47.0065 11.4015 44.3715 11.4123 41.6477 11.8385C32.3644 13.2911 24.1704 20.6802 25.0607 26.3004C25.951 31.9206 35.5873 33.6202 44.8706 32.1676C54.1563 30.715 60.9577 24.9886 60.0699 19.3733C59.8109 17.7353 58.9254 16.2881 57.5703 15.0959L49.3926 11.7408Z" fill="url(#paint8_linear_1723_29223)"/>
  </g>
  </g>
  <path d="M68.0071 26.0338C66.9576 23.7116 65.5899 18.0815 43.3081 21.5673C22.2673 24.8604 21.7625 30.3002 21.2154 32.8991C20.718 40.1597 26.4377 45.6069 46.6206 42.4497C66.229 39.3839 70.382 32.6446 68.0071 26.0338Z" fill="white"/>
  <mask id="mask2_1723_29223" style="mask-type:alpha" maskUnits="userSpaceOnUse" x="21" y="20" width="48" height="24">
  <path d="M68.0071 26.0338C66.9576 23.7116 65.5899 18.0815 43.3081 21.5673C22.2673 24.8604 21.7625 30.3002 21.2154 32.8991C20.718 40.1597 26.4377 45.6069 46.6206 42.4497C66.229 39.3839 70.382 32.6446 68.0071 26.0338Z" fill="white"/>
  </mask>
  <g mask="url(#mask2_1723_29223)">
  <g filter="url(#filter5_f_1723_29223)">
  <path d="M68.0071 26.0353C67.3406 24.553 66.5423 21.7466 60.3353 20.7881C62.4615 22.1369 62.9589 23.9132 63.3816 24.9878C65.5327 31.7394 62.3446 38.4195 46.3769 40.9171C29.9639 43.4888 23.3466 39.4348 23.5231 32.1051C23.6798 30.9909 23.8812 28.6613 25.3161 26.9419C21.0711 30.2004 21.5536 31.2898 21.2154 32.8931C20.718 40.1537 26.4377 45.601 46.6206 42.4438C66.229 39.3854 70.382 32.6461 68.0071 26.0353Z" fill="url(#paint9_linear_1723_29223)"/>
  </g>
  </g>
  <g filter="url(#filter6_i_1723_29223)">
  <path d="M40.0172 29.5696C39.8258 30.8641 38.1323 31.6893 36.2373 31.4126C34.3424 31.1359 32.9572 29.8612 33.1512 28.5667C33.3452 27.2722 35.0337 26.447 36.9311 26.7237C38.8286 27.0004 40.2087 28.2801 40.0172 29.5696Z" fill="#F1F6FF"/>
  </g>
  <g filter="url(#filter7_i_1723_29223)">
  <path d="M50.9419 27.8687C51.5238 29.0422 53.3889 29.3115 55.1073 28.4691C56.8257 27.6266 57.7483 25.9986 57.1639 24.8178C56.5795 23.6369 54.7169 23.3751 52.996 24.2175C51.2751 25.0599 50.355 26.6953 50.9419 27.8687Z" fill="#F1F6FF"/>
  </g>
  <path d="M57.5897 47.0076C57.5897 47.0076 62.3967 38.6897 60.6858 36.1871C59.3877 34.2824 56.3836 38.1141 56.3836 38.1141C56.3836 38.1141 54.0485 40.8933 52.6882 41.7876" fill="#07BEFF"/>
  <path d="M39.9996 43.211C38.6449 43.8061 37.3387 44.5049 36.0929 45.301C34.7517 46.2229 33.464 47.2192 32.2358 48.2852C32.8595 49.98 34.3301 51.2272 36.1128 51.5734C36.1128 51.5734 35.8914 53.2088 35.792 53.6584C35.6925 54.108 49.9667 54.1525 59.0759 50.3752L57.9046 46.3954L60.0209 45.9013C60.0209 45.9013 60.4362 44.7105 59.1505 42.5613C58.2392 41.1312 57.131 39.8348 55.858 38.7099C55.858 38.7099 53.5776 40.7875 52.4063 41.2297C52.0507 41.3631 51.7075 41.4274 50.8048 41.7238C49.9021 42.0203 50.7302 43.5618 46.8483 44.1621C43.9437 44.6093 42.7426 43.4655 42.0413 43.1739C41.5837 42.9664 40.5318 43.3024 39.9996 43.211Z" fill="white"/>
  <path d="M39.7984 44.0161C39.7984 44.0161 47.796 46.1629 53.8911 42.062L54.5675 42.5116C54.5675 42.5116 48.8479 47.3808 39.3135 44.5621L39.7984 44.0161Z" fill="#006EB7"/>
  <path d="M38.259 45.8211C38.259 45.8211 48.1739 47.7975 55.6094 43.6941L56.2436 44.3364C56.2436 44.3364 49.4123 48.8449 37.5925 46.6808L38.259 45.8211Z" fill="#006EB7"/>
  <path d="M36.7669 47.7255C36.7669 47.7255 48.5593 49.7413 57.1214 45.4502L57.6188 46.2284C57.6188 46.2284 49.6958 50.9222 36.4014 48.6988L36.7669 47.7255Z" fill="#006EB7"/>
  <path d="M36.233 49.7769C36.233 49.7769 49.3161 51.3407 58.092 47.2398L58.2785 47.9488C58.2785 47.9488 50.092 52.277 36.1211 50.8145L36.233 49.7769Z" fill="#006EB7"/>
  <path d="M36.0556 52.0284C36.0556 52.0284 49.6335 52.6361 58.5985 48.8564L58.8248 49.6247C58.8248 49.6247 50.1508 53.565 35.9263 52.9251L36.0556 52.0284Z" fill="#006EB7"/>
  <path d="M39.0054 43.6496C39.0073 43.975 39.1126 44.2914 39.3063 44.5538L38.5603 45.3295C38.5603 45.3295 38.1475 44.2845 38.1848 44.0622L39.0054 43.6496Z" fill="#006EB7"/>
  <path d="M37.3587 44.5565C37.3587 44.5565 37.7616 45.7448 38.06 46.0734L37.3861 47.0171C37.3861 47.0171 36.4958 45.1914 36.5331 44.9666L37.3587 44.5565Z" fill="#006EB7"/>
  <path d="M35.6828 45.6282C35.6828 45.6282 36.4289 47.5378 36.7348 47.8664L36.2697 49.0868C36.2697 49.0868 34.8299 46.4138 34.8672 46.189C35.1287 45.9876 35.401 45.8004 35.6828 45.6282Z" fill="#006EB7"/>
  <path d="M33.9793 46.8429C33.9793 46.8429 34.3051 48.3598 36.2323 49.9779L36.108 50.9216C36.108 50.9216 33.4048 49.5802 33.2283 47.4284C33.4628 47.214 33.7139 47.0182 33.9793 46.8429Z" fill="#006EB7"/>
  <path d="M55.4361 39.0828C55.4361 39.0828 59.7681 42.6402 59.5692 46.0222L58.8679 46.1951C58.8679 46.1951 58.6416 42.2671 54.7373 39.6534L55.4361 39.0828Z" fill="#006EB7"/>
  <path d="M54.2594 40.0028C54.2594 40.0028 58.2159 43.7331 58.5417 46.2974L57.915 46.4457C57.915 46.4457 57.1391 43.2341 53.5581 40.5759L54.2594 40.0028Z" fill="#006EB7"/>
  <path d="M52.7829 41.0228C52.7829 41.0228 55.6701 42.9992 56.339 44.5555C56.339 44.5555 54.0114 41.8381 52.1587 41.3217L52.7829 41.0228Z" fill="#006EB7"/>
  <path d="M42.0424 43.1568C41.6918 43.0086 40.9955 43.1568 40.4434 43.2111L40.2122 43.4582C41.3669 43.7681 42.555 43.939 43.7509 43.9671C42.9228 43.7126 42.413 43.3198 42.0424 43.1568Z" fill="#006EB7"/>
  <path d="M52.8468 41.0132C52.7047 41.0924 52.5577 41.1625 52.4066 41.2232C52.051 41.3566 51.7078 41.4208 50.8051 41.7173C50.355 41.8655 50.3401 42.3299 49.9397 42.8314C50.5564 42.6165 52.2947 41.9841 52.8542 41.5196C53.1427 41.2849 53.0482 41.1219 52.8468 41.0132Z" fill="#006EB7"/>
  <g filter="url(#filter8_f_1723_29223)">
  <path d="M50.1805 51.0932C49.2504 49.2157 47.8752 46.9429 47.2137 46.6637C46.5522 46.3846 46.3458 46.2956 46.3458 46.2956L45.8709 46.0338C46.1433 45.7312 46.3521 45.3776 46.4851 44.9937C50.2153 43.8722 52.8637 41.0534 52.8637 41.0534C51.2722 41.6018 48.6188 42.422 48.6188 42.422C47.7932 42.9754 46.7686 43.7733 46.2663 44.1711C45.8485 44.0797 44.9383 44.1859 44.2296 44.2971C43.1727 43.803 41.8273 43.0347 41.8273 43.0347L40.1811 43.1656L39.5444 43.5041C40.0965 44.4552 42.2526 44.9863 43.3045 45.1741C43.6054 45.5924 43.9744 45.9581 44.3962 46.2561H44.4111C44.0505 46.6415 43.2373 47.5308 42.9464 48.0546C42.5659 48.7364 42.6728 48.9736 42.4142 49.5838C42.1556 50.194 41.5612 50.3619 41.6831 51.2192C41.6831 51.2192 41.9989 50.1841 43.021 49.984C43.7322 49.8506 44.9557 48.7488 45.3934 47.5555C45.554 48.2635 45.6374 48.9865 45.6421 49.7122C45.7465 52.2246 49.5737 52.2172 50.2103 53.0794C50.4341 53.3808 52.0605 54.117 52.0605 54.117C51.2896 53.7291 51.113 52.9707 50.1805 51.0932Z" fill="#A3070F" fill-opacity="0.5"/>
  </g>
  <path d="M41.9056 42.9886C41.9056 42.9886 43.6936 43.9001 44.7903 44.325L44.0591 45.1329C44.0591 45.1329 40.4359 44.7845 39.6426 43.5444L40.2668 43.1812L41.9056 42.9886Z" fill="#E50A15"/>
  <path d="M43.4026 44.3563C43.4026 44.3563 45.9267 43.7362 46.5087 43.9685C47.0906 44.2007 46.2426 45.8657 45.8546 45.9819C45.4667 46.098 44.9295 46.2931 44.6112 46.098C44.2929 45.9028 42.8854 44.8208 43.4026 44.3563Z" fill="#E50A15"/>
  <path d="M48.6646 42.0909C48.6646 42.0909 51.226 41.6215 52.7952 41.0089C50.9396 42.7323 48.7353 44.0428 46.3295 44.8529L46.0808 44.1932C46.0808 44.1932 47.558 42.9086 48.6646 42.0909Z" fill="#E50A15"/>
  <path d="M44.7952 45.9127C44.7952 45.9127 43.5842 47.2665 43.236 47.9656C42.8878 48.6647 42.9873 48.8945 42.766 49.5146C42.5447 50.1346 41.9478 50.3273 42.1045 51.1796C42.1045 51.1796 42.3781 50.1346 43.3902 49.9024C44.4023 49.6702 46.3918 47.3851 45.6134 45.8336L44.7952 45.9127Z" fill="#E50A15"/>
  <path d="M45.8 45.6807L46.546 46.0562C46.546 46.0562 46.7201 46.2711 47.4289 46.3897C48.7618 46.6145 49.5725 48.8601 50.5796 50.6907C51.5868 52.5213 51.8007 53.2797 52.5989 53.6552C52.5989 53.6552 50.9427 52.9882 50.7065 52.6942C50.035 51.8592 46.2103 52.0272 45.9989 49.5222C45.7876 47.0172 45.3797 46.8616 45.3797 46.8616C45.3797 46.8616 45.5463 45.8042 45.8 45.6807Z" fill="#E50A15"/>
  <mask id="mask3_1723_29223" style="mask-type:alpha" maskUnits="userSpaceOnUse" x="39" y="41" width="14" height="13">
  <path d="M41.9056 42.9886C41.9056 42.9886 43.6936 43.9001 44.7903 44.325L44.0591 45.1329C44.0591 45.1329 40.4359 44.7845 39.6426 43.5444L40.2668 43.1812L41.9056 42.9886Z" fill="#E50A15"/>
  <path d="M43.4026 44.3563C43.4026 44.3563 45.9267 43.7362 46.5087 43.9685C47.0906 44.2007 46.2426 45.8657 45.8546 45.9819C45.4667 46.098 44.9295 46.2931 44.6112 46.098C44.2929 45.9028 42.8854 44.8208 43.4026 44.3563Z" fill="#E50A15"/>
  <path d="M48.6646 42.0909C48.6646 42.0909 51.226 41.6215 52.7952 41.0089C50.9396 42.7323 48.7353 44.0428 46.3295 44.8529L46.0808 44.1932C46.0808 44.1932 47.558 42.9086 48.6646 42.0909Z" fill="#E50A15"/>
  <path d="M44.7952 45.9127C44.7952 45.9127 43.5842 47.2665 43.236 47.9656C42.8878 48.6647 42.9873 48.8945 42.766 49.5146C42.5447 50.1346 41.9478 50.3273 42.1045 51.1796C42.1045 51.1796 42.3781 50.1346 43.3902 49.9024C44.4023 49.6702 46.3918 47.3851 45.6134 45.8336L44.7952 45.9127Z" fill="#E50A15"/>
  <path d="M45.8 45.6807L46.546 46.0562C46.546 46.0562 46.7201 46.2711 47.4289 46.3897C48.7618 46.6145 49.5725 48.8601 50.5796 50.6907C51.5868 52.5213 51.8007 53.2797 52.5989 53.6552C52.5989 53.6552 50.9427 52.9882 50.7065 52.6942C50.035 51.8592 46.2103 52.0272 45.9989 49.5222C45.7876 47.0172 45.3797 46.8616 45.3797 46.8616C45.3797 46.8616 45.5463 45.8042 45.8 45.6807Z" fill="#E50A15"/>
  </mask>
  <g mask="url(#mask3_1723_29223)">
  <g filter="url(#filter9_f_1723_29223)">
  <path d="M43.4799 45.0623C43.7923 45.5086 44.4095 45.9789 44.6107 46.0978C44.633 46.111 44.6567 46.1222 44.6816 46.1317C44.6418 46.1463 44.6022 46.1618 44.5631 46.1784C44.0659 46.7327 43.6213 47.3314 43.2351 47.967C43.0252 48.3812 42.9769 48.6312 42.9259 48.8962C42.891 49.0769 42.8548 49.2645 42.7651 49.516C42.6879 49.704 42.5831 49.8796 42.4542 50.0372C42.504 50.1558 43.3619 49.5802 43.3022 48.555C43.2747 48.119 43.517 47.9107 43.7609 47.701C43.9799 47.5126 44.2003 47.3231 44.2273 46.9665C44.2582 46.553 44.7467 46.2989 45.1803 46.1534C45.3993 46.1199 45.6296 46.0499 45.8209 45.9918L45.8541 45.9817C45.9261 45.9539 45.9895 45.908 46.0381 45.8483C45.9486 45.8434 45.8416 45.8409 45.7198 45.8458C43.9243 45.9002 44.7947 44.0869 44.7947 44.0869L44.7499 44.0745C44.246 44.1646 43.778 44.271 43.5513 44.3225C43.4983 44.3345 43.4584 44.3436 43.4344 44.3488C43.4307 44.3523 43.4271 44.3558 43.4234 44.3594C41.7705 44.151 40.335 43.6419 41.5798 43.0247L40.2668 43.1853L39.6426 43.5484C40.2374 44.4746 42.4234 44.905 43.4799 45.0623Z" fill="url(#paint10_linear_1723_29223)"/>
  <path d="M49.9727 52.2354C49.6612 51.6744 48.9508 51.43 48.2632 51.1934C47.4579 50.9163 46.6837 50.6499 46.618 49.8983C46.5091 48.9881 46.1834 48.1167 45.668 47.3563V47.381C45.8581 48.0793 45.974 48.7955 46.0137 49.5179C46.1531 51.1733 47.8721 51.6623 49.2157 52.0445C49.5022 52.126 49.7716 52.2027 50.005 52.2848C49.9956 52.2675 49.9848 52.2509 49.9727 52.2354Z" fill="url(#paint11_linear_1723_29223)"/>
  </g>
  <g filter="url(#filter10_f_1723_29223)">
  <path d="M46.5547 44.2628C46.605 44.4228 46.6318 44.5892 46.6343 44.7568C47.4924 44.4575 48.3242 44.0881 49.1211 43.6526C48.2059 44.0108 47.164 44.3443 46.5547 44.2628Z" fill="url(#paint12_linear_1723_29223)"/>
  </g>
  </g>
  <g filter="url(#filter11_f_1723_29223)">
  <path d="M50.0293 41.8217C50.0293 41.8217 48.8083 42.7728 48.49 43.2595C48.1717 43.7462 50.2556 41.9526 50.5565 41.6735L50.0293 41.8217Z" fill="url(#paint13_linear_1723_29223)"/>
  </g>
  <path fill-rule="evenodd" clip-rule="evenodd" d="M55.4603 56.5996C57.3055 57.1134 58.6136 57.0813 59.0239 55.0062C57.9347 56.2117 56.4128 56.5279 55.4603 56.5996ZM36.6187 57.1808C37.3423 59.0484 38.6081 58.7865 40.3016 57.9219C38.3147 58.0158 37.2055 57.576 36.6187 57.1808Z" fill="#020333"/>
  <path d="M60.6857 36.1872C60.1038 35.3349 59.1936 35.6339 58.3381 36.2218C58.4227 37.0692 58.8852 37.998 60.3276 38.4625C60.5367 38.5299 60.7527 38.5738 60.9717 38.5934C61.1234 37.6053 61.0711 36.748 60.6857 36.1872Z" fill="#020333"/>
  <path d="M35.964 44.0778L38.2021 45.9726L34.3277 49.5918L31.4629 47.0151C31.4629 47.0151 33.8925 44.4434 35.964 44.0778Z" fill="white"/>
  <path d="M34.8923 44.9261L36.6381 46.7271L37.1504 46.3071L35.4991 44.5926L34.8923 44.9261Z" fill="#E50012"/>
  <path d="M33.8464 45.6208L35.6419 47.449L36.1865 47.0463L34.396 45.2577L33.8464 45.6208Z" fill="#E50012"/>
  <path d="M32.8784 46.3962L34.6789 48.2194L35.1911 47.7896L33.336 45.9565L32.8784 46.3962Z" fill="#E50012"/>
  <g filter="url(#filter12_di_1723_29223)">
  <path d="M46.5576 17.9012C46.9181 17.8312 47.2675 18.0648 47.338 18.423C47.4152 18.8152 47.7978 19.071 48.1926 18.9944C48.5875 18.9177 48.845 18.5376 48.7678 18.1453C48.543 17.0027 47.4283 16.2574 46.2781 16.4808C45.1279 16.7041 44.3777 17.8115 44.6025 18.9541C44.6797 19.3463 45.0623 19.6022 45.4572 19.5255C45.852 19.4488 46.1095 19.0687 46.0323 18.6765C45.9619 18.3183 46.197 17.9712 46.5576 17.9012Z" fill="#020333"/>
  <path d="M38.6924 19.5161C38.4676 19.4394 38.2188 19.4878 38.0396 19.6428C37.8604 19.7979 37.7781 20.0361 37.8237 20.2678C37.9009 20.6601 37.6433 21.0402 37.2485 21.1169C36.8537 21.1935 36.471 20.9377 36.3938 20.5455C36.2484 19.8063 36.511 19.0462 37.0826 18.5515C37.6543 18.0568 38.4482 17.9027 39.1653 18.1471C39.8824 18.3916 40.4137 18.9975 40.5592 19.7367C40.6363 20.1289 40.3788 20.5091 39.984 20.5857C39.5891 20.6624 39.2065 20.4066 39.1293 20.0143C39.0837 19.7826 38.9172 19.5927 38.6924 19.5161Z" fill="#020333"/>
  <path fill-rule="evenodd" clip-rule="evenodd" d="M56.7826 14.6843C55.3977 11.4945 51.9487 9.54329 48.3538 10.1679C45.3938 10.6823 43.0137 12.8503 42.2286 15.7094C40.5596 13.3549 37.6198 12.0354 34.575 12.5643C31.4962 13.0991 29.0448 15.4236 28.364 18.454C28.2654 18.893 28.2068 19.3342 28.1863 19.7733L23.5549 22.3081C23.1413 22.5345 22.9907 23.051 23.2186 23.4618C23.4464 23.8727 23.9664 24.0223 24.38 23.7959L28.329 21.6346C28.7116 23.529 29.8085 25.2527 31.4648 26.4082C34.0225 28.1927 37.4105 28.2709 40.0489 26.6063C41.707 25.5601 42.8639 23.9551 43.3609 22.1476C43.8662 22.8621 44.499 23.4976 45.2453 24.0179C47.8048 25.8023 51.1944 25.879 53.8332 24.2123C56.4479 22.5607 57.815 19.5197 57.3135 16.4877L62.0937 17.24C62.56 17.3134 62.998 16.9973 63.0719 16.5341C63.1458 16.0708 62.8276 15.6357 62.3612 15.5623L56.7826 14.6843ZM48.6412 11.8004C51.9375 11.2276 55.0775 13.4166 55.6561 16.6908C56.0802 19.0901 55.0074 21.5068 52.9381 22.8138C50.8688 24.1208 48.2107 24.0607 46.2035 22.6613C44.1963 21.262 43.2355 18.7993 43.7691 16.4217C44.3028 14.0441 46.2258 12.2201 48.6412 11.8004ZM34.8623 14.1967C38.1587 13.6241 41.2982 15.8145 41.8747 19.0891C42.2969 21.4873 41.2233 23.9021 39.1545 25.2074C37.0857 26.5126 34.4291 26.4513 32.4235 25.0521C30.4179 23.6528 29.4583 21.1912 29.9922 18.815C30.526 16.4388 32.4482 14.6161 34.8623 14.1967Z" fill="#020333"/>
  </g>
  <path fill-rule="evenodd" clip-rule="evenodd" d="M32.03 14.3582C32.0756 14.4612 32.0287 14.5814 31.925 14.6268C31.8228 14.6715 31.6108 14.83 31.3689 15.0736C31.1331 15.3111 30.8909 15.6075 30.7224 15.9052C30.6669 16.0033 30.5419 16.0381 30.4431 15.9829C30.3444 15.9278 30.3094 15.8036 30.3649 15.7055C30.556 15.3679 30.8233 15.043 31.0769 14.7875C31.3246 14.5381 31.5821 14.3317 31.7596 14.254C31.8633 14.2086 31.9843 14.2553 32.03 14.3582Z" fill="white"/>
  <path fill-rule="evenodd" clip-rule="evenodd" d="M46.5802 11.6996C46.6133 11.8072 46.5524 11.9211 46.4441 11.954C46.3373 11.9865 46.108 12.1191 45.8389 12.3327C45.5766 12.541 45.301 12.807 45.0984 13.0829C45.0316 13.1738 44.9033 13.1937 44.8118 13.1274C44.7203 13.0611 44.7003 12.9337 44.767 12.8428C44.9968 12.5299 45.3007 12.2385 45.5829 12.0144C45.8584 11.7957 46.1386 11.6209 46.3241 11.5644C46.4323 11.5315 46.547 11.592 46.5802 11.6996Z" fill="white"/>
  <path d="M20.7575 14.2109C19.5415 14.952 18.967 15.6437 18.6338 16.9283C18.6338 16.9283 19.2878 15.0385 21.6851 14.4925C21.3618 14.4011 21.0534 14.3097 20.7575 14.2109Z" fill="#020333"/>
  <path d="M24.8831 15.036C23.7043 15.5968 22.3366 17.6522 22.645 19.3963C22.645 19.3963 23.1423 16.0637 26.3528 15.1052C25.848 15.1002 25.3556 15.0755 24.8831 15.036Z" fill="#020333"/>
  <path d="M17.6315 12.7556C17.2824 12.9603 16.9901 13.2481 16.781 13.593C17.0729 13.2345 17.494 13.0032 17.9548 12.9482C17.8429 12.884 17.7359 12.8198 17.6315 12.7556Z" fill="#020333"/>
  <path d="M62.964 7.60895C64.3541 7.94739 65.1126 8.42419 65.8238 9.54081C65.8238 9.54081 64.6177 7.94245 62.1682 8.15738C62.4467 7.97457 62.7128 7.79176 62.964 7.60895Z" fill="#020333"/>
  <path d="M59.2951 9.65363C60.5883 9.82655 62.528 11.3656 62.7767 13.1122C62.7767 13.1122 61.2597 10.0958 57.9199 10.1477C58.4024 10.0069 58.855 9.83397 59.2951 9.65363Z" fill="#020333"/>
  <path d="M65.4879 5.26721C65.8836 5.35636 66.251 5.54137 66.5572 5.80576C66.168 5.55605 65.6959 5.46739 65.2417 5.55872C65.3287 5.45496 65.4108 5.35862 65.4879 5.26721Z" fill="#020333"/>
  </g>
  <defs>
  <filter id="filter0_f_1723_29223" x="29.3948" y="37.7561" width="37.0752" height="28.1114" filterUnits="userSpaceOnUse" color-interpolation-filters="sRGB">
  <feFlood flood-opacity="0" result="BackgroundImageFix"/>
  <feBlend mode="normal" in="SourceGraphic" in2="BackgroundImageFix" result="shape"/>
  <feGaussianBlur stdDeviation="3.6499" result="effect1_foregroundBlur_1723_29223"/>
  </filter>
  <filter id="filter1_f_1723_29223" x="23.6338" y="38.133" width="22.7213" height="23.0616" filterUnits="userSpaceOnUse" color-interpolation-filters="sRGB">
  <feFlood flood-opacity="0" result="BackgroundImageFix"/>
  <feBlend mode="normal" in="SourceGraphic" in2="BackgroundImageFix" result="shape"/>
  <feGaussianBlur stdDeviation="3.99428" result="effect1_foregroundBlur_1723_29223"/>
  </filter>
  <filter id="filter2_f_1723_29223" x="28.7048" y="44.5781" width="33.0767" height="17.5761" filterUnits="userSpaceOnUse" color-interpolation-filters="sRGB">
  <feFlood flood-opacity="0" result="BackgroundImageFix"/>
  <feBlend mode="normal" in="SourceGraphic" in2="BackgroundImageFix" result="shape"/>
  <feGaussianBlur stdDeviation="3.6499" result="effect1_foregroundBlur_1723_29223"/>
  </filter>
  <filter id="filter3_f_1723_29223" x="7.00485" y="3.19021" width="36.64" height="26.6148" filterUnits="userSpaceOnUse" color-interpolation-filters="sRGB">
  <feFlood flood-opacity="0" result="BackgroundImageFix"/>
  <feBlend mode="normal" in="SourceGraphic" in2="BackgroundImageFix" result="shape"/>
  <feGaussianBlur stdDeviation="3.99428" result="effect1_foregroundBlur_1723_29223"/>
  </filter>
  <filter id="filter4_f_1723_29223" x="13.2107" y="-4.90964" width="63.39" height="56.2619" filterUnits="userSpaceOnUse" color-interpolation-filters="sRGB">
  <feFlood flood-opacity="0" result="BackgroundImageFix"/>
  <feBlend mode="normal" in="SourceGraphic" in2="BackgroundImageFix" result="shape"/>
  <feGaussianBlur stdDeviation="3.99428" result="effect1_foregroundBlur_1723_29223"/>
  </filter>
  <filter id="filter5_f_1723_29223" x="13.1975" y="12.7995" width="63.4005" height="38.5489" filterUnits="userSpaceOnUse" color-interpolation-filters="sRGB">
  <feFlood flood-opacity="0" result="BackgroundImageFix"/>
  <feBlend mode="normal" in="SourceGraphic" in2="BackgroundImageFix" result="shape"/>
  <feGaussianBlur stdDeviation="3.99428" result="effect1_foregroundBlur_1723_29223"/>
  </filter>
  <filter id="filter6_i_1723_29223" x="33.1331" y="26.6703" width="6.90186" height="12.7843" filterUnits="userSpaceOnUse" color-interpolation-filters="sRGB">
  <feFlood flood-opacity="0" result="BackgroundImageFix"/>
  <feBlend mode="normal" in="SourceGraphic" in2="BackgroundImageFix" result="shape"/>
  <feColorMatrix in="SourceAlpha" type="matrix" values="0 0 0 0 0 0 0 0 0 0 0 0 0 0 0 0 0 0 127 0" result="hardAlpha"/>
  <feOffset dy="7.98856"/>
  <feGaussianBlur stdDeviation="3.99428"/>
  <feComposite in2="hardAlpha" operator="arithmetic" k2="-1" k3="1"/>
  <feColorMatrix type="matrix" values="0 0 0 0 0.803922 0 0 0 0 0.85098 0 0 0 0 0.945098 0 0 0 0.4 0"/>
  <feBlend mode="normal" in2="shape" result="effect1_innerShadow_1723_29223"/>
  </filter>
  <filter id="filter7_i_1723_29223" x="50.7649" y="23.7247" width="6.57446" height="13.2237" filterUnits="userSpaceOnUse" color-interpolation-filters="sRGB">
  <feFlood flood-opacity="0" result="BackgroundImageFix"/>
  <feBlend mode="normal" in="SourceGraphic" in2="BackgroundImageFix" result="shape"/>
  <feColorMatrix in="SourceAlpha" type="matrix" values="0 0 0 0 0 0 0 0 0 0 0 0 0 0 0 0 0 0 127 0" result="hardAlpha"/>
  <feOffset dy="7.98856"/>
  <feGaussianBlur stdDeviation="3.99428"/>
  <feComposite in2="hardAlpha" operator="arithmetic" k2="-1" k3="1"/>
  <feColorMatrix type="matrix" values="0 0 0 0 0.803922 0 0 0 0 0.85098 0 0 0 0 0.945098 0 0 0 0.4 0"/>
  <feBlend mode="normal" in2="shape" result="effect1_innerShadow_1723_29223"/>
  </filter>
  <filter id="filter8_f_1723_29223" x="31.5559" y="33.0648" width="29.2965" height="29.0407" filterUnits="userSpaceOnUse" color-interpolation-filters="sRGB">
  <feFlood flood-opacity="0" result="BackgroundImageFix"/>
  <feBlend mode="normal" in="SourceGraphic" in2="BackgroundImageFix" result="shape"/>
  <feGaussianBlur stdDeviation="3.99428" result="effect1_foregroundBlur_1723_29223"/>
  </filter>
  <filter id="filter9_f_1723_29223" x="35.6483" y="39.0304" width="18.3511" height="17.2486" filterUnits="userSpaceOnUse" color-interpolation-filters="sRGB">
  <feFlood flood-opacity="0" result="BackgroundImageFix"/>
  <feBlend mode="normal" in="SourceGraphic" in2="BackgroundImageFix" result="shape"/>
  <feGaussianBlur stdDeviation="1.99714" result="effect1_foregroundBlur_1723_29223"/>
  </filter>
  <filter id="filter10_f_1723_29223" x="42.5604" y="39.6583" width="10.555" height="9.09284" filterUnits="userSpaceOnUse" color-interpolation-filters="sRGB">
  <feFlood flood-opacity="0" result="BackgroundImageFix"/>
  <feBlend mode="normal" in="SourceGraphic" in2="BackgroundImageFix" result="shape"/>
  <feGaussianBlur stdDeviation="1.99714" result="effect1_foregroundBlur_1723_29223"/>
  </filter>
  <filter id="filter11_f_1723_29223" x="44.4628" y="37.6792" width="10.0882" height="9.65784" filterUnits="userSpaceOnUse" color-interpolation-filters="sRGB">
  <feFlood flood-opacity="0" result="BackgroundImageFix"/>
  <feBlend mode="normal" in="SourceGraphic" in2="BackgroundImageFix" result="shape"/>
  <feGaussianBlur stdDeviation="1.99714" result="effect1_foregroundBlur_1723_29223"/>
  </filter>
  <filter id="filter12_di_1723_29223" x="15.8125" y="10.0518" width="54.5698" height="32.3505" filterUnits="userSpaceOnUse" color-interpolation-filters="sRGB">
  <feFlood flood-opacity="0" result="BackgroundImageFix"/>
  <feColorMatrix in="SourceAlpha" type="matrix" values="0 0 0 0 0 0 0 0 0 0 0 0 0 0 0 0 0 0 127 0" result="hardAlpha"/>
  <feOffset dy="7.29981"/>
  <feGaussianBlur stdDeviation="3.6499"/>
  <feComposite in2="hardAlpha" operator="out"/>
  <feColorMatrix type="matrix" values="0 0 0 0 0 0 0 0 0 0 0 0 0 0 0 0 0 0 0.1 0"/>
  <feBlend mode="normal" in2="BackgroundImageFix" result="effect1_dropShadow_1723_29223"/>
  <feBlend mode="normal" in="SourceGraphic" in2="effect1_dropShadow_1723_29223" result="shape"/>
  <feColorMatrix in="SourceAlpha" type="matrix" values="0 0 0 0 0 0 0 0 0 0 0 0 0 0 0 0 0 0 127 0" result="hardAlpha"/>
  <feOffset dy="7.29981"/>
  <feComposite in2="hardAlpha" operator="arithmetic" k2="-1" k3="1"/>
  <feColorMatrix type="matrix" values="0 0 0 0 0.642205 0 0 0 0 0.642205 0 0 0 0 0.642205 0 0 0 0.09 0"/>
  <feBlend mode="normal" in2="shape" result="effect2_innerShadow_1723_29223"/>
  </filter>
  <linearGradient id="paint0_linear_1723_29223" x1="11.0276" y1="9.97876e-08" x2="22" y2="66" gradientUnits="userSpaceOnUse">
  <stop stop-color="#FFB55C"/>
  <stop offset="0.618553" stop-color="#FFD39E"/>
  <stop offset="1" stop-color="#FFD9A9"/>
  </linearGradient>
  <linearGradient id="paint1_linear_1723_29223" x1="59.2412" y1="49.5075" x2="36.6897" y2="56.2281" gradientUnits="userSpaceOnUse">
  <stop stop-color="#0B77C5" stop-opacity="0.81"/>
  <stop offset="0.940905" stop-color="#0B77C5"/>
  </linearGradient>
  <linearGradient id="paint2_linear_1723_29223" x1="38.3879" y1="48.4556" x2="31.2281" y2="49.6767" gradientUnits="userSpaceOnUse">
  <stop stop-color="#0B77C5"/>
  <stop offset="0.526332" stop-color="#0B84CC"/>
  <stop offset="0.988259" stop-color="#0B63CB"/>
  </linearGradient>
  <linearGradient id="paint3_linear_1723_29223" x1="54.5401" y1="52.8585" x2="45.5159" y2="62.8947" gradientUnits="userSpaceOnUse">
  <stop stop-color="#0B77C5"/>
  <stop offset="0.940905" stop-color="#0B77C5"/>
  </linearGradient>
  <linearGradient id="paint4_linear_1723_29223" x1="38.711" y1="15.8192" x2="44.9919" y2="42.6177" gradientUnits="userSpaceOnUse">
  <stop stop-color="#36C1F9"/>
  <stop offset="1" stop-color="#0CA1DD"/>
  </linearGradient>
  <linearGradient id="paint5_linear_1723_29223" x1="44.3897" y1="18.9868" x2="50.7976" y2="40.5973" gradientUnits="userSpaceOnUse">
  <stop stop-color="#1FB3EF"/>
  <stop offset="1" stop-color="#0CA1DD"/>
  </linearGradient>
  <linearGradient id="paint6_linear_1723_29223" x1="42.3573" y1="11.2006" x2="47.8929" y2="43.3774" gradientUnits="userSpaceOnUse">
  <stop stop-color="#15B0EF"/>
  <stop offset="1" stop-color="#0CA1DD"/>
  </linearGradient>
  <linearGradient id="paint7_linear_1723_29223" x1="35.7217" y1="14.6835" x2="15.0251" y2="16.8826" gradientUnits="userSpaceOnUse">
  <stop stop-color="#0B77C5"/>
  <stop offset="0.11208" stop-color="#1D9FDC"/>
  <stop offset="0.246758" stop-color="#0889DD"/>
  <stop offset="1" stop-color="#088ADD"/>
  </linearGradient>
  <linearGradient id="paint8_linear_1723_29223" x1="68.7621" y1="16.3514" x2="20.934" y2="19.4306" gradientUnits="userSpaceOnUse">
  <stop offset="0.0162613" stop-color="#0B77C5"/>
  <stop offset="0.11208" stop-color="#1D9FDC"/>
  <stop offset="0.246758" stop-color="#0889DD"/>
  <stop offset="0.758052" stop-color="#0B90C5"/>
  <stop offset="1" stop-color="#088ADD"/>
  </linearGradient>
  <linearGradient id="paint9_linear_1723_29223" x1="68.7595" y1="28.2247" x2="21.3488" y2="33.6737" gradientUnits="userSpaceOnUse">
  <stop stop-color="#F4F6FE"/>
  <stop offset="0.11208" stop-color="#D2DFFD"/>
  <stop offset="0.246758" stop-color="white"/>
  <stop offset="0.758052" stop-color="#CBD8F1"/>
  <stop offset="1" stop-color="#E5ECFF"/>
  </linearGradient>
  <linearGradient id="paint10_linear_1723_29223" x1="41.4478" y1="43.8017" x2="43.7258" y2="52.57" gradientUnits="userSpaceOnUse">
  <stop stop-color="#C71019"/>
  <stop offset="0.277822" stop-color="#BA0D15"/>
  <stop offset="1" stop-color="#99040B"/>
  </linearGradient>
  <linearGradient id="paint11_linear_1723_29223" x1="41.4478" y1="43.8017" x2="43.7258" y2="52.57" gradientUnits="userSpaceOnUse">
  <stop stop-color="#C71019"/>
  <stop offset="0.277822" stop-color="#BA0D15"/>
  <stop offset="1" stop-color="#99040B"/>
  </linearGradient>
  <linearGradient id="paint12_linear_1723_29223" x1="47.0018" y1="43.7452" x2="47.1393" y2="44.8442" gradientUnits="userSpaceOnUse">
  <stop stop-color="#C71019"/>
  <stop offset="0.277822" stop-color="#BA0D15"/>
  <stop offset="1" stop-color="#99040B"/>
  </linearGradient>
  <linearGradient id="paint13_linear_1723_29223" x1="48.8228" y1="41.8136" x2="49.193" y2="43.4153" gradientUnits="userSpaceOnUse">
  <stop stop-color="#C71019"/>
  <stop offset="0.277822" stop-color="#BA0D15"/>
  <stop offset="1" stop-color="#99040B"/>
  </linearGradient>
  <clipPath id="clip0_1723_29223">
  <rect width="88" height="66" rx="8" fill="white"/>
  </clipPath>
  </defs>
</svg>
