<?xml version="1.0"?>
<svg width="1024" height="1024" xmlns="http://www.w3.org/2000/svg" xmlns:svg="http://www.w3.org/2000/svg" class="icon" version="1.1">
 <g class="layer">
  <title>Layer 1</title>
  <path d="m651.86,454.5l-8.43,19.73c-14.02,32.62 -23.7,66.73 -36.1,100.1l12.4,22.58l3.6,-2.36l161.26,-279.1c55.95,-153.32 -3.6,-251.57 -80.13,-315.45l-144.52,277.86l82,157.54l9.92,19.1zm-266.82,182.35c-42.3,-22.82 -91.8,-19.85 -137.57,3.35a250.95,250.95 0 0 0 -104.32,105.81a251.19,251.19 0 0 0 -30.64,145.26c5.95,51.48 30.76,94.28 73.06,117.1s91.92,19.72 137.69,-3.47a244.12,244.12 0 0 0 90.43,-82.62l5.46,-9.3c2.73,-4.47 5.34,-9.06 7.94,-13.77l56.19,-95.52l-96.26,-165.85l-1.98,-0.99zm-42.55,216.46a153.82,153.82 0 0 1 -62.77,65.25a52.72,52.72 0 0 1 -48.25,4.47a52.97,52.97 0 0 1 -22.95,-42.3a155.43,155.43 0 0 1 19.72,-88.57a153.82,153.82 0 0 1 62.77,-65.25a53.46,53.46 0 0 1 48.26,-4.47a52.84,52.84 0 0 1 22.82,42.68a154.07,154.07 0 0 1 -19.6,88.19zm538.48,-116.97a251.19,251.19 0 0 0 -104.44,-105.81c-45.15,-22.7 -94.77,-26.18 -137.57,-3.48a133.47,133.47 0 0 0 -49.62,46.64c-21.33,-39.57 -40.81,-75.91 -50.86,-96.13c19.23,-44.16 25.19,-75.79 44.04,-120.2l-237.3,-456.24c-76.16,63.76 -136.45,162 -79.27,315.32l330.84,573.59c2.48,4.71 5.08,9.3 7.93,13.77l5.34,9.3a245.24,245.24 0 0 0 90.43,82.62c45.89,23.19 95.39,26.17 137.69,3.35s67.23,-65.75 73.06,-116.98a251.94,251.94 0 0 0 -30.27,-145.75zm-65.49,134.34a53.46,53.46 0 0 1 -22.83,42.67a53.71,53.71 0 0 1 -48.37,-4.46a168.08,168.08 0 0 1 -82.37,-153.82a53.46,53.46 0 0 1 22.82,-42.67a52.97,52.97 0 0 1 48.38,4.46a168.08,168.08 0 0 1 82.37,153.82z" fill="#bfbfbf" id="svg_1"/>
 </g>
</svg>