<?xml version="1.0" standalone="no"?><!DOCTYPE svg PUBLIC "-//W3C//DTD SVG 1.1//EN" "http://www.w3.org/Graphics/SVG/1.1/DTD/svg11.dtd"><svg t="1705150247842" class="icon" viewBox="0 0 1024 1024" version="1.1" xmlns="http://www.w3.org/2000/svg" p-id="17444" xmlns:xlink="http://www.w3.org/1999/xlink" width="200" height="200"><path d="M651.861902 454.504664l-8.43513 19.723319C629.40957 506.85209 619.733979 540.964749 607.329376 574.333131l12.404603 22.576378 3.597335-2.356874 161.259843-279.103574C840.535918 162.128165 780.993822 63.883707 704.45742 0L559.943792 277.863113l81.994427 157.538462z m-266.823016 182.347668c-42.299697-22.82447-91.794064-19.847365-137.567051 3.349243a250.945124 250.945124 0 0 0-104.322713 105.811266A251.193216 251.193216 0 0 0 112.509752 891.270745C118.463961 942.749849 143.273168 985.54573 185.572865 1008.3702s91.91811 19.723319 137.691096-3.473289a244.122592 244.122592 0 0 0 90.429558-82.614658l5.458026-9.303452c2.729013-4.465657 5.333979-9.05536 7.938946-13.76911l56.192852-95.515445-96.259721-165.849546z m-42.54779 216.460327a153.817081 153.817081 0 0 1-62.767292 65.248213 52.719564 52.719564 0 0 1-48.253907 4.465657A52.967656 52.967656 0 0 1 208.521381 880.726832a155.429679 155.429679 0 0 1 19.723319-88.568867 153.817081 153.817081 0 0 1 62.767293-65.248213 53.46384 53.46384 0 0 1 48.253906-4.465658 52.84361 52.84361 0 0 1 22.82447 42.671836 154.065173 154.065173 0 0 1-19.599273 88.196729z m538.483828-116.975409a251.193216 251.193216 0 0 0-104.446759-105.811266C731.375409 607.82556 681.756996 604.352271 638.961114 627.052695a133.473531 133.473531 0 0 0-49.618413 46.641309c-21.335918-39.570684-40.811145-75.916172-50.858873-96.135676C557.710963 533.397941 563.665173 501.766202 582.52017 457.357723L345.220109 1.116414c-76.164264 63.759661-136.450636 162.004119-79.265415 315.325015l330.830769 573.588856c2.480921 4.713749 5.085887 9.303452 7.938946 13.769109l5.33398 9.303453a245.239007 245.239007 0 0 0 90.429558 82.614658c45.897032 23.196608 95.391399 26.173713 137.691096 3.349242s67.23295-65.744397 73.063113-116.975408a251.937492 251.937492 0 0 0-30.267232-145.754089z m-65.496305 134.341854a53.46384 53.46384 0 0 1-22.82447 42.671835 53.711932 53.711932 0 0 1-48.377953-4.465657 168.082374 168.082374 0 0 1-82.366565-153.817081 53.46384 53.46384 0 0 1 22.82447-42.671835 52.967656 52.967656 0 0 1 48.377952 4.465657 168.082374 168.082374 0 0 1 82.366566 153.817081z" fill="#dd799d" p-id="17445"></path></svg>