<?xml version="1.0" standalone="no"?><!DOCTYPE svg PUBLIC "-//W3C//DTD SVG 1.1//EN" "http://www.w3.org/Graphics/SVG/1.1/DTD/svg11.dtd"><svg t="1706088561426" class="icon" viewBox="0 0 1024 1024" version="1.1" xmlns="http://www.w3.org/2000/svg" p-id="7394" xmlns:xlink="http://www.w3.org/1999/xlink" width="200" height="200"><path d="M585.27998 767.998465 585.27998 365.722472c0-46.879704 73.238025-46.879704 73.238025 0l0 402.275993C658.518005 814.883285 585.27998 814.883285 585.27998 767.998465L585.27998 767.998465 585.27998 767.998465zM365.500415 767.998465 365.500415 365.722472c0-46.879704 73.271794-46.879704 73.271794 0l0 402.275993C438.771185 814.883285 365.500415 814.883285 365.500415 767.998465L365.500415 767.998465 365.500415 767.998465zM988.190423 182.861748 805.060569 182.861748l0-73.16844c0-60.576657-49.247634-109.692285-108.754936-109.692285L328.879356 0.001023c-60.673871 0-109.887736 49.116651-109.887736 109.692285l0 73.16844L35.860742 182.861748c-46.949288 0-46.949288 73.104995 0 73.104995l952.32968 0C1035.104919 255.966743 1035.104919 182.861748 988.190423 182.861748L988.190423 182.861748 988.190423 182.861748zM292.26239 109.692285c0-19.428491 17.158798-36.58729 36.615942-36.58729l367.426277 0c19.459191 0 35.484166 14.863523 35.484166 36.58729l0 73.16844L292.26239 182.860724 292.26239 109.692285 292.26239 109.692285zM768.410857 1024 255.607562 1024c-60.640102 0-109.853967-49.111534-109.853967-109.687168L145.753595 365.722472c0-21.723767 17.158798-36.586267 36.615942-36.586267 19.462261 0 36.621059 14.862499 36.621059 36.586267l0 548.589336c0 19.389606 17.192567 36.547381 36.615942 36.547381l512.803295 0c19.457144 0 36.649711-17.157775 36.649711-36.547381L805.059546 366.855272c0-48.012504 73.238025-48.012504 73.238025 0l0 547.456536C878.298594 974.888466 829.084729 1024 768.410857 1024L768.410857 1024zM768.410857 1024" fill="#dd799d" p-id="7395"></path></svg>