<?xml version="1.0" standalone="no"?><!DOCTYPE svg PUBLIC "-//W3C//DTD SVG 1.1//EN" "http://www.w3.org/Graphics/SVG/1.1/DTD/svg11.dtd"><svg t="1705149942832" class="icon" viewBox="0 0 1024 1024" version="1.1" xmlns="http://www.w3.org/2000/svg" p-id="2179" xmlns:xlink="http://www.w3.org/1999/xlink" width="200" height="200"><path d="M512 512a53.44 53.44 0 0 1-17.4 39.413333L131.933333 882a52.833333 52.833333 0 0 1-35.713333 14 53.84 53.84 0 0 1-21.76-4.666667A52.666667 52.666667 0 0 1 42.666667 842.593333V181.406667A53.333333 53.333333 0 0 1 131.926667 142l362.666666 330.6A53.44 53.44 0 0 1 512 512z m451.933333-39.413333L601.26 142A53.333333 53.333333 0 0 0 512 181.406667v661.186666a52.666667 52.666667 0 0 0 31.793333 48.793334 53.84 53.84 0 0 0 21.76 4.666666 52.833333 52.833333 0 0 0 35.713334-14l362.666666-330.6a53.333333 53.333333 0 0 0 0-78.826666z" fill="#dd799d" p-id="2180"></path></svg>