<?xml version="1.0" standalone="no"?><!DOCTYPE svg PUBLIC "-//W3C//DTD SVG 1.1//EN" "http://www.w3.org/Graphics/SVG/1.1/DTD/svg11.dtd"><svg t="1706089127429" class="icon" viewBox="0 0 1024 1024" version="1.1" xmlns="http://www.w3.org/2000/svg" p-id="19157" xmlns:xlink="http://www.w3.org/1999/xlink" width="200" height="200"><path d="M622.336 469.33333299l-55.168-55.168a42.624 42.624 0 1 1 60.330667-60.33066599l128 127.99999999a42.624 42.624 0 0 1 0 60.33066602l-128 127.99999999a42.624 42.624 0 1 1-60.330667-60.33066599L622.336 554.66666701 128 554.666667a42.666667 42.666667 0 0 1 0-85.333334L622.336 469.33333299zM298.666667 896a42.666667 42.666667 0 0 1 0-85.333333L896.00000001 810.666667a42.666667 42.666667 0 0 1-1e-8 85.333333l-597.333333 0z m0-682.666667a42.666667 42.666667 0 0 1 0-85.333333L896 128a42.666667 42.666667 0 0 1 1e-8 85.333333l-597.33333301 0z" p-id="19158" fill="#dd799d"></path><path d="M622.336 469.33333299l-55.168-55.168a42.624 42.624 0 1 1 60.330667-60.33066599l128 127.99999999a42.624 42.624 0 0 1 0 60.33066602l-128 127.99999999a42.624 42.624 0 1 1-60.330667-60.33066599L622.336 554.66666701 128 554.666667a42.666667 42.666667 0 0 1 0-85.333334L622.336 469.33333299zM298.666667 896a42.666667 42.666667 0 0 1 0-85.333333L896.00000001 810.666667a42.666667 42.666667 0 0 1-1e-8 85.333333l-597.333333 0zM298.666667 213.333333a42.666667 42.666667 0 0 1 0-85.333333L896 128a42.666667 42.666667 0 0 1 1e-8 85.333333l-597.33333301 0z" p-id="19159" fill="#dd799d"></path></svg>