<?xml version="1.0" standalone="no"?><!DOCTYPE svg PUBLIC "-//W3C//DTD SVG 1.1//EN" "http://www.w3.org/Graphics/SVG/1.1/DTD/svg11.dtd"><svg t="1705150009049" class="icon" viewBox="0 0 1024 1024" version="1.1" xmlns="http://www.w3.org/2000/svg" p-id="5315" xmlns:xlink="http://www.w3.org/1999/xlink" width="200" height="200"><path d="M225.680461 326.598406c-0.419556-0.019443-0.818645-0.019443-1.237177-0.019443L101.812315 326.578963c-22.753213 0-40.876989 18.24248-40.876989 40.777729l0 286.336424c0 22.534226 18.302855 40.777729 40.876989 40.777729l122.629945 0c0.079818 0 0.119727 0 0.198521 0l0 0.157589 300.289204 194.444551c7.125281 6.108115 16.405645 9.781784 26.526143 9.781784 22.573111 0 40.874943-18.301831 40.874943-40.878013 0-1.87572-0.119727-3.711532-0.360204-5.509481L591.970868 168.58151c0.239454-1.795902 0.360204-3.632737 0.360204-5.509481 0-22.574135-18.302855-40.876989-40.874943-40.876989-9.301853 0-17.884322 3.113921-24.750707 8.343015L225.680461 326.598406zM859.567485 510.524392l91.952248-91.951225c11.495822-11.517311 11.576663-30.558993-0.13917-42.274826-11.795651-11.795651-30.636764-11.755742-42.273802-0.140193l-91.953272 91.953272-91.950202-91.953272c-11.639085-11.616572-30.479175-11.655458-42.275849 0.140193-11.715833 11.715833-11.633968 30.757514-0.13917 42.274826l91.952248 91.951225-91.952248 91.953272c-11.494799 11.515265-11.576663 30.556946 0.13917 42.272779 11.796674 11.796674 30.636764 11.756765 42.275849 0.140193l91.950202-91.951225 91.953272 91.951225c11.636015 11.617595 30.477129 11.657504 42.273802-0.140193 11.715833-11.714809 11.634991-30.757514 0.13917-42.272779L859.567485 510.524392z" fill="#dd799d" p-id="5316"></path></svg>