<?xml version="1.0"?>
<svg width="1024" height="1024" xmlns="http://www.w3.org/2000/svg" xmlns:svg="http://www.w3.org/2000/svg" class="icon" version="1.1">
 <g class="layer">
  <title>Layer 1</title>
  <path d="m320,447.84c0,-35.26 28.58,-63.84 63.84,-63.84l448.32,0c35.26,0 63.84,28.58 63.84,63.84l0,448.32a63.84,63.84 0 0 1 -63.84,63.84l-448.32,0a63.84,63.84 0 0 1 -63.84,-63.84l0,-448.32zm64,32.38l0,383.56c0,17.82 14.4,32.22 32.22,32.22l383.56,0c17.82,0 32.22,-14.4 32.22,-32.22l0,-383.56c0,-17.82 -14.4,-32.22 -32.22,-32.22l-383.56,0c-17.82,0 -32.22,14.4 -32.22,32.22zm64,319.78c0,-17.66 14.5,-32 31.9,-32l192.2,0c17.6,0 31.9,14.21 31.9,32c0,17.66 -14.5,32 -31.9,32l-192.2,0a31.87,31.87 0 0 1 -31.9,-32zm0,-128c0,-17.66 14.59,-32 31.84,-32l256.32,0c17.6,0 31.84,14.21 31.84,32c0,17.66 -14.59,32 -31.84,32l-256.32,0a31.84,31.84 0 0 1 -31.84,-32zm0,-128c0,-17.66 14.59,-32 31.84,-32l256.32,0c17.6,0 31.84,14.21 31.84,32c0,17.66 -14.59,32 -31.84,32l-256.32,0a31.84,31.84 0 0 1 -31.84,-32zm256,-288l0,-64l63.87,0c35.43,0 64.13,28.48 64.13,64.13l0,63.87l-64,0l0,-32.03a31.78,31.78 0 0 0 -31.97,-31.97l-32.03,0zm-448,0l-32.03,0a31.78,31.78 0 0 0 -31.97,31.97l0,480.03c0,17.92 14.3,31.97 31.97,31.97l32.03,0l0,64l-63.87,0a63.97,63.97 0 0 1 -64.13,-64.1l0,-543.74c0,-35.43 28.48,-64.13 64.13,-64.13l63.87,0l0,64zm64,-32c0,-17.66 14.59,-32 31.84,-32l256.32,0c17.6,0 31.84,14.21 31.84,32c0,17.66 -14.59,32 -31.84,32l-256.32,0a31.84,31.84 0 0 1 -31.84,-32zm64,-128a32,32 0 0 1 31.68,-32l128.64,0c17.47,0 31.68,14.21 31.68,32a32,32 0 0 1 -31.68,32l-128.64,0a31.78,31.78 0 0 1 -31.68,-32z" fill="#bfbfbf" id="svg_1"/>
 </g>
</svg>