<?xml version="1.0" standalone="no"?><!DOCTYPE svg PUBLIC "-//W3C//DTD SVG 1.1//EN" "http://www.w3.org/Graphics/SVG/1.1/DTD/svg11.dtd"><svg t="1705423288852" class="icon" viewBox="0 0 1024 1024" version="1.1" xmlns="http://www.w3.org/2000/svg" p-id="5274" data-spm-anchor-id="a313x.search_index.0.i6.78773a81VuwEwP" xmlns:xlink="http://www.w3.org/1999/xlink" width="200" height="200"><path d="M256.75 402.25l-109-109C223.375 167.875 359.75 87.75 511.25 87.75c234.25 0 424.25 190 424.25 424.25 0 234.25-190 424.25-424.25 424.25-172.75 0-328.25-104.75-393.25-264.75-9.125-22.375-34.75-33.25-57.125-24.125-22.375 9.125-33.25 34.75-24.125 57.125 78.375 193.125 266.125 319.375 474.625 319.375 282.75 0 512-229.125 512-512C1023.25 229.25 793.875 0 511.25 0 339.25 0 178.875 86.25 84 229.75L0.625 146.25v256h256.125zM0.625 402.25" p-id="5275" data-spm-anchor-id="a313x.search_index.0.i3.78773a81VuwEwP" class="" fill="#dd799d"></path><path d="M389 657.25c0 40.5 28.75 57 63.375 37l252.375-145.625c35.25-20 35.25-53.375 0-73.375L453 329.75c-35.25-20-63.375-3.5-63.375 37-0.625 0-0.625 290.5-0.625 290.5z m0 0" p-id="5276" data-spm-anchor-id="a313x.search_index.0.i4.78773a81VuwEwP" class="" fill="#dd799d"></path></svg>