<?xml version="1.0" standalone="no"?><!DOCTYPE svg PUBLIC "-//W3C//DTD SVG 1.1//EN" "http://www.w3.org/Graphics/SVG/1.1/DTD/svg11.dtd"><svg t="1706090753466" class="icon" viewBox="0 0 1024 1024" version="1.1" xmlns="http://www.w3.org/2000/svg" p-id="25513" xmlns:xlink="http://www.w3.org/1999/xlink" width="200" height="200"><path d="M894.549333 502.869333l-267.733333 289.962667v-146.346667l-26.837333-31.573333c-77.610667-12.757333-158.72-9.898667-243.2 8.021333-69.333333 14.72-142.208 63.445333-218.709334 141.141334a528.981333 528.981333 0 0 1 134.101334-229.589334l-20.821334-20.565333 20.821334 20.565333c88.874667-90.069333 195.882667-135.253333 322.901333-136.277333l31.744-32V228.053333l267.733333 274.816z m67.029334-22.912l-343.850667-352.938666-54.912 22.314666v186.026667c-130.346667 8.021333-242.858667 59.605333-336.213333 154.154667-100.309333 101.674667-157.866667 228.352-173.098667 378.453333l56.576 23.466667c103.637333-126.506667 190.378667-191.146667 259.968-205.866667 67.584-14.336 131.797333-17.962667 192.768-11.221333V874.666667l55.466667 21.717333 343.893333-372.394667-0.597333-44.032z" p-id="25514" fill="#dd799d"></path></svg>