<?xml version="1.0" standalone="no"?><!DOCTYPE svg PUBLIC "-//W3C//DTD SVG 1.1//EN" "http://www.w3.org/Graphics/SVG/1.1/DTD/svg11.dtd"><svg t="1706090708772" class="icon" viewBox="0 0 1024 1024" version="1.1" xmlns="http://www.w3.org/2000/svg" p-id="25323" xmlns:xlink="http://www.w3.org/1999/xlink" width="200" height="200"><path d="M129.4336 502.8864l267.776 289.9456v-146.3808l26.8288-31.5904c77.568-12.6976 158.72-9.8304 243.2 8.0896 69.3248 14.6944 142.1824 63.488 218.7264 141.1072a528.9472 528.9472 0 0 0-134.144-229.5808l20.8384-20.5824-20.8384 20.5824c-88.8832-90.0608-195.8912-135.2192-322.8672-136.2432l-31.744-32v-138.24l-267.776 274.8928z m-67.0208-22.9376l343.8592-352.9216 54.9376 22.3232v185.9584c130.304 8.0896 242.8416 59.648 336.1792 154.2144 100.352 101.6832 157.9008 228.352 173.1072 378.4192l-56.576 23.552c-103.6288-126.5664-190.3616-191.1808-259.9936-205.9264-67.584-14.336-131.7888-17.9712-192.7168-11.2128v200.2944l-55.552 21.7088-343.808-372.3776 0.5632-44.032z" p-id="25324" fill="#dd799d"></path></svg>