<?xml version="1.0" standalone="no"?><!DOCTYPE svg PUBLIC "-//W3C//DTD SVG 1.1//EN" "http://www.w3.org/Graphics/SVG/1.1/DTD/svg11.dtd"><svg t="1705151326104" class="icon" viewBox="0 0 1024 1024" version="1.1" xmlns="http://www.w3.org/2000/svg" p-id="7244" xmlns:xlink="http://www.w3.org/1999/xlink" width="200" height="200"><path d="M374.784 851.968a70.869333 70.869333 0 0 1-49.962667-20.650667l-271.104-268.8a71.082667 71.082667 0 0 1 0-100.864l271.061334-268.8A71.04 71.04 0 0 1 445.866667 243.2v110.933333a503.936 503.936 0 0 1 213.674666 52.096 577.792 577.792 0 0 1 199.125334 159.104 805.674667 805.674667 0 0 1 130.816 242.56 32 32 0 0 1-46.336 38.186667 1197.952 1197.952 0 0 0-212.138667-103.466667 1143.210667 1143.210667 0 0 0-285.141333-53.504V780.8a71.168 71.168 0 0 1-71.082667 71.082667z m0-615.978667a6.741333 6.741333 0 0 0-4.778667 2.133334l-271.061333 268.8a7.125333 7.125333 0 0 0 0 9.984l271.104 268.8a7.04 7.04 0 0 0 11.989333-4.992v-126.72a32.042667 32.042667 0 0 1 34.645334-31.914667 1292.8 1292.8 0 0 1 335.616 59.946667 1017.130667 1017.130667 0 0 1 143.36 64 680.704 680.704 0 0 0-86.570667-140.501334 514.090667 514.090667 0 0 0-177.024-141.653333A445.312 445.312 0 0 0 432.896 418.133333a170.88 170.88 0 0 1-24.32-1.322666 32 32 0 0 1-26.709333-31.573334V243.2a6.485333 6.485333 0 0 0-4.266667-6.485333 7.296 7.296 0 0 0-2.986667-0.725334z" p-id="7245" fill="#dd799d"></path></svg>