<svg width="24" height="24" viewBox="0 0 24 24" fill="none" xmlns="http://www.w3.org/2000/svg">
  <path fill-rule="evenodd" clip-rule="evenodd" d="M16.9805 8.2366C16.7124 8.20443 16.4444 8.18299 16.1763 8.18299C12.2091 8.18299 9.0782 11.1638 9.0782 14.82C9.0782 15.4312 9.17469 16.0209 9.33553 16.5785C9.07819 16.5999 8.81014 16.6107 8.55281 16.6107C7.6947 16.6107 6.97527 16.4647 6.15966 16.2992C5.98673 16.2641 5.80946 16.2281 5.62564 16.1925L2.7092 17.6614L3.54553 15.1417C1.4547 13.6728 0.200195 11.7857 0.200195 9.48037C0.200195 5.49171 3.96369 2.3501 8.55281 2.3501C12.6594 2.3501 16.2514 4.8591 16.9805 8.2366ZM12.7237 6.96065C12.7237 6.33876 12.2091 5.8241 11.5872 5.8241C10.9546 5.8241 10.4506 6.32804 10.4506 6.96065C10.4506 7.59326 10.9546 8.09721 11.5872 8.09721C12.2198 8.09721 12.7237 7.59326 12.7237 6.96065ZM4.61775 6.96065C4.61775 7.58254 5.13242 8.09721 5.75431 8.09721C6.37619 8.09721 6.88014 7.59326 6.89086 6.96065C6.89086 6.33876 6.37619 5.8241 5.75431 5.8241C5.1217 5.8241 4.61775 6.32804 4.61775 6.96065Z" fill="white"/>
  <path fill-rule="evenodd" clip-rule="evenodd" d="M23.7998 14.7235C23.7998 11.3675 20.4545 8.63332 16.7017 8.63332C12.7238 8.63332 9.60358 11.3675 9.60358 14.7235C9.60358 18.0796 12.7345 20.8138 16.7017 20.8138C17.538 20.8138 18.3744 20.5993 19.2107 20.3956L21.5052 21.6501L20.8726 19.5593C22.5453 18.294 23.7998 16.6214 23.7998 14.7235ZM13.5601 12.8364C13.5601 13.3618 13.9783 13.7907 14.5036 13.7907C15.029 13.7907 15.4579 13.3618 15.4472 12.8364C15.4472 12.311 15.029 11.8822 14.5036 11.8822C13.9783 11.8822 13.5601 12.311 13.5601 12.8364ZM18.1599 12.8364C18.1599 13.3618 18.5781 13.7907 19.1035 13.7907C19.6289 13.7907 20.047 13.3618 20.047 12.8364C20.047 12.311 19.6289 11.8822 19.1035 11.8822C18.5781 11.8822 18.1599 12.311 18.1599 12.8364Z" fill="white"/>
</svg>
