<svg width="24" height="24" viewBox="0 0 24 24" fill="none" xmlns="http://www.w3.org/2000/svg">
<path d="M16.3086 6.00781C19.4789 6.16843 22 8.78979 22 12C22 15.2102 19.4789 17.8316 16.3086 17.9922L16 18H8C4.68629 18 2 15.3137 2 12C2 8.68629 4.68629 6 8 6H16L16.3086 6.00781ZM8 7.75C5.65279 7.75 3.75 9.65279 3.75 12C3.75 14.3472 5.65279 16.25 8 16.25H16C18.3472 16.25 20.25 14.3472 20.25 12C20.25 9.65279 18.3472 7.75 16 7.75H8ZM8 9C9.65685 9 11 10.3431 11 12C11 13.6569 9.65685 15 8 15C6.34315 15 5 13.6569 5 12C5 10.3431 6.34315 9 8 9ZM8 10.75C7.30964 10.75 6.75 11.3096 6.75 12C6.75 12.6904 7.30964 13.25 8 13.25C8.69036 13.25 9.25 12.6904 9.25 12C9.25 11.3096 8.69036 10.75 8 10.75Z" fill="currentColor"/>
</svg>
