<svg width="24" height="24" viewBox="0 0 24 24" fill="none" xmlns="http://www.w3.org/2000/svg">
<path fill-rule="evenodd" clip-rule="evenodd" d="M4.0166 5.01378C4.35831 4.67262 4.91333 4.67236 5.25488 5.01378C5.59642 5.35532 5.59609 5.91031 5.25488 6.25206C4.50055 7.00638 3.90149 7.90227 3.49316 8.8878C3.08495 9.87337 2.87508 10.9304 2.875 11.9972C2.87502 13.064 3.08496 14.1209 3.49316 15.1066C3.90147 16.0922 4.50048 16.9879 5.25488 17.7423C5.59615 18.0837 5.59571 18.6379 5.25488 18.9796C4.91318 19.3213 4.35831 19.3213 4.0166 18.9796C3.09986 18.0628 2.37217 16.9743 1.87598 15.7765C1.37983 14.5785 1.12502 13.2938 1.125 11.9972C1.12508 10.7006 1.3798 9.41578 1.87598 8.21788C2.37225 7.02003 3.09977 5.9306 4.0166 5.01378ZM18.7441 5.01378C19.0857 4.67245 19.6408 4.67253 19.9824 5.01378C20.8993 5.93062 21.6268 7.02 22.123 8.21788C22.6192 9.41578 22.8739 10.7006 22.874 11.9972C22.874 13.2938 22.6192 14.5785 22.123 15.7765C21.6269 16.9743 20.8991 18.0628 19.9824 18.9796C19.6407 19.3213 19.0858 19.3213 18.7441 18.9796C18.4032 18.6379 18.4028 18.0838 18.7441 17.7423C19.4985 16.9879 20.0976 16.0922 20.5059 15.1066C20.914 14.1209 21.124 13.064 21.124 11.9972C21.1239 10.9304 20.9141 9.87337 20.5059 8.8878C20.0975 7.90224 19.4985 7.0064 18.7441 6.25206C18.4028 5.91032 18.4026 5.35536 18.7441 5.01378ZM7.29883 8.47179C7.58879 8.08558 8.13795 8.00733 8.52441 8.29698C8.91081 8.58691 8.98895 9.13603 8.69922 9.52257C8.16385 10.2365 7.87412 11.1048 7.87402 11.9972C7.87402 12.8895 8.16393 13.7578 8.69922 14.4718C8.98909 14.8583 8.91073 15.4074 8.52441 15.6974C8.13785 15.9873 7.5888 15.9091 7.29883 15.5226C6.53625 14.5057 6.12402 13.2682 6.12402 11.9972C6.12412 10.7261 6.5362 9.48862 7.29883 8.47179ZM15.4746 8.29698C15.8611 8.00746 16.4103 8.08557 16.7002 8.47179C17.4628 9.48861 17.8749 10.7262 17.875 11.9972C17.875 13.2682 17.4627 14.5057 16.7002 15.5226C16.4103 15.909 15.8612 15.9872 15.4746 15.6974C15.0883 15.4074 15.0099 14.8583 15.2998 14.4718C15.835 13.7579 16.125 12.8895 16.125 11.9972C16.1249 11.1049 15.8351 10.2364 15.2998 9.52257C15.01 9.13603 15.0882 8.58693 15.4746 8.29698ZM11.999 10.7999C12.8273 10.7999 13.4988 11.4716 13.499 12.2999V12.3107C13.499 13.1391 12.8275 13.8107 11.999 13.8107C11.1708 13.8105 10.499 13.139 10.499 12.3107V12.2999C10.4992 11.4718 11.1709 10.8001 11.999 10.7999Z" fill="currentColor"/>
</svg>
