<svg width="20" height="20" viewBox="0 0 20 20" fill="none" xmlns="http://www.w3.org/2000/svg">
<path d="M15.6946 2.43774C16.726 2.43785 17.5624 3.27361 17.5627 4.30493V15.6946C17.5626 16.7261 16.7261 17.5626 15.6946 17.5627H4.30493C3.2736 17.5624 2.43785 16.726 2.43774 15.6946V4.30493C2.43811 3.27376 3.27376 2.4381 4.30493 2.43774H15.6946ZM4.30493 3.89575C4.07918 3.89611 3.89612 4.07918 3.89575 4.30493V15.6946C3.89586 15.9206 4.07902 16.1044 4.30493 16.1047H15.6946C15.9207 16.1046 16.1046 15.9207 16.1047 15.6946V4.30493C16.1044 4.07903 15.9205 3.89586 15.6946 3.89575H4.30493ZM8.8606 6.61353C9.26307 6.61356 9.58976 6.93963 9.59009 7.34204C9.59009 7.74472 9.26327 8.07149 8.8606 8.07153H6.55298V9.27075H8.67114C9.07373 9.2709 9.40063 9.59763 9.40063 10.0002C9.40054 10.4028 9.07366 10.7296 8.67114 10.7297H6.55298V11.928H8.67114C9.07366 11.9281 9.40052 12.2549 9.40063 12.6575C9.40053 13.06 9.07366 13.3858 8.67114 13.386H5.82349C5.7734 13.3859 5.72424 13.381 5.677 13.3713C5.62973 13.3616 5.58374 13.3477 5.54028 13.3293C5.45312 13.2925 5.37478 13.239 5.30884 13.1731C5.27571 13.14 5.24529 13.1037 5.21899 13.0647C5.14065 12.9485 5.09504 12.8081 5.09497 12.6575V7.34204C5.09529 6.93981 5.42125 6.61384 5.82349 6.61353H8.8606ZM10.759 7.37231C11.1145 7.37241 11.4104 7.62743 11.4749 7.96411C11.7781 7.82863 12.1144 7.75222 12.468 7.7522C13.8139 7.75251 14.9044 8.84382 14.9045 10.1897V12.6575C14.9044 13.0599 14.5784 13.3858 14.176 13.386C13.7736 13.3858 13.4467 13.0599 13.4465 12.6575V10.1897C13.4464 9.64924 13.0084 9.21149 12.468 9.21118C11.9274 9.21127 11.4887 9.6491 11.4885 10.1897V12.6575C11.4884 13.06 11.1615 13.3859 10.759 13.386C10.3566 13.3857 10.0307 13.0599 10.0305 12.6575V8.10181C10.0307 7.69939 10.3566 7.37256 10.759 7.37231Z" fill="currentColor"/>
</svg>
