<svg width="24" height="24" viewBox="0 0 24 24" fill="none" xmlns="http://www.w3.org/2000/svg">
  <path fill-rule="evenodd" clip-rule="evenodd" d="M4.5 3H19.5C20.3284 3 21 3.67157 21 4.5V19.5C21 20.3284 20.3284 21 19.5 21H4.5C3.67157 21 3 20.3284 3 19.5V4.5C3 3.67157 3.67157 3 4.5 3ZM6.5 7.5C5.94772 7.5 5.5 7.94772 5.5 8.5V15.5C5.5 16.0523 5.94772 16.5 6.5 16.5H10.25C10.8023 16.5 11.25 16.0523 11.25 15.5C11.25 14.9477 10.8023 14.5 10.25 14.5H7.5V13H10.25C10.8023 13 11.25 12.5523 11.25 12C11.25 11.4477 10.8023 11 10.25 11H7.5V9.5H10.5C11.0523 9.5 11.5 9.05228 11.5 8.5C11.5 7.94772 11.0523 7.5 10.5 7.5H6.5ZM14 15.5V12.25C14 11.5596 14.5596 11 15.25 11C15.9404 11 16.5 11.5596 16.5 12.25V15.5C16.5 16.0523 16.9477 16.5 17.5 16.5C18.0523 16.5 18.5 16.0523 18.5 15.5V12.25C18.5 10.4551 17.0449 9 15.25 9C14.796 9 14.3638 9.09309 13.9713 9.26121C13.8642 8.82423 13.47 8.5 13 8.5C12.4477 8.5 12 8.94772 12 9.5V15.5C12 16.0523 12.4477 16.5 13 16.5C13.5523 16.5 14 16.0523 14 15.5Z" fill="currentColor"/>
</svg>
