<svg width="24" height="24" viewBox="0 0 24 24" fill="none" xmlns="http://www.w3.org/2000/svg">
  <path d="M21 10V17C21 19 20 20 18 20H6C4 20 3 19 3 17V7C3 5 4 4 6 4H10L13 7H18C20 7 21 8 21 10Z" fill="#51DADC"/>
  <path d="M14.5 12.75H12.75V11C12.75 10.586 12.414 10.25 12 10.25C11.586 10.25 11.25 10.586 11.25 11V12.75H9.5C9.086 12.75 8.75 13.086 8.75 13.5C8.75 13.914 9.086 14.25 9.5 14.25H11.25V16C11.25 16.414 11.586 16.75 12 16.75C12.414 16.75 12.75 16.414 12.75 16V14.25H14.5C14.914 14.25 15.25 13.914 15.25 13.5C15.25 13.086 14.914 12.75 14.5 12.75Z" fill="white"/>
</svg>
