<svg width="24" height="24" viewBox="0 0 24 24" fill="none" xmlns="http://www.w3.org/2000/svg">
  <path d="M5.09497 12.573C5.62497 11.624 6.62899 11.035 7.71899 11.036L18.9861 11.042L19 11.036V10C19 8 18 7 16 7H10L8 5H5C3 5 2 6 2 8V18.496L2.0061 18.493C2.0081 18.255 2.06092 18.011 2.19092 17.78L5.09497 12.573Z" fill="#0AA5BE"/>
  <path d="M20.4991 11.043L18.9871 11.042L7.72001 11.036C6.63001 11.035 5.62499 11.624 5.09599 12.573L2.19194 17.78C2.06294 18.012 2.00912 18.255 2.00712 18.493C2.00112 19.279 2.62497 20 3.50297 20H16.284C17.373 20 18.377 19.412 18.906 18.464L21.8101 13.263C22.3651 12.268 21.6421 11.043 20.4991 11.043Z" fill="#51DADC"/>
</svg>
