<svg xmlns="http://www.w3.org/2000/svg" width="24" height="24" viewBox="0 0 24 24" fill="none">
  <path d="M19 3C20.1046 3 21 3.89543 21 5V19C21 20.1046 20.1046 21 19 21H5C3.89543 21 3 20.1046 3 19V5C3 3.89543 3.89543 3 5 3H19ZM12 6C11.4477 6 11 6.44772 11 7V8H7C6.44772 8 6 8.44772 6 9V14C6 14.5523 6.44772 15 7 15H11V17.5C11 18.0523 11.4477 18.5 12 18.5C12.5523 18.5 13 18.0523 13 17.5V15H17C17.5523 15 18 14.5523 18 14V9C18 8.44772 17.5523 8 17 8H13V7C13 6.44772 12.5523 6 12 6ZM11 13H8V10H11V13ZM16 13H13V10H16V13Z" fill="currentColor"/>
</svg>