<svg width="20" height="20" viewBox="0 0 20 20" fill="none" xmlns="http://www.w3.org/2000/svg">
<path d="M15.6946 2.43774C16.726 2.43785 17.5624 3.27361 17.5627 4.30493V15.6946C17.5626 16.7261 16.7261 17.5626 15.6946 17.5627H4.30493C3.2736 17.5624 2.43785 16.726 2.43774 15.6946V4.30493C2.43811 3.27376 3.27376 2.4381 4.30493 2.43774H15.6946ZM4.30493 3.89575C4.07918 3.89611 3.89612 4.07918 3.89575 4.30493V15.6946C3.89586 15.9206 4.07902 16.1044 4.30493 16.1047H15.6946C15.9207 16.1046 16.1046 15.9207 16.1047 15.6946V4.30493C16.1044 4.07903 15.9205 3.89586 15.6946 3.89575H4.30493ZM10.0002 5.47485C10.4027 5.47493 10.7295 5.80092 10.7297 6.20337V6.99341H13.7961C14.1986 6.99351 14.5254 7.31949 14.5256 7.72192V11.5188C14.5255 11.9214 14.1987 12.2482 13.7961 12.2483H10.7297V14.176C10.7296 14.5786 10.4028 14.9045 10.0002 14.9045C9.59762 14.9045 9.27088 14.5786 9.27075 14.176V12.2483H6.20337C5.80092 12.248 5.47495 11.9213 5.47485 11.5188V7.72192C5.4751 7.31958 5.80102 6.99365 6.20337 6.99341H9.27075V6.20337C9.271 5.80087 9.59769 5.47485 10.0002 5.47485ZM6.93286 10.7893H9.27075V8.45142H6.93286V10.7893ZM10.7297 10.7893H13.0676V8.45142H10.7297V10.7893Z" fill="currentColor"/>
</svg>
