<svg xmlns="http://www.w3.org/2000/svg" width="74" height="80" viewBox="0 0 74 80" fill="none">
  <path d="M5.75 1.25H68.25C68.25 1.25 73.25 1.25 73.25 6.25V56.25C73.25 56.25 73.25 61.25 68.25 61.25H5.75C5.75 61.25 0.75 61.25 0.75 56.25V6.25C0.75 6.25 0.75 1.25 5.75 1.25Z" fill="#ECF8FF" stroke="#24292F" stroke-width="1.2" stroke-linecap="round" stroke-linejoin="round"/>
  <path d="M14.5 53.75L26.1161 42.1339C26.3963 41.8537 26.729 41.6314 27.0951 41.4797C27.4613 41.3281 27.8537 41.25 28.25 41.25C28.6463 41.25 29.0387 41.3281 29.4049 41.4797C29.771 41.6314 30.1037 41.8537 30.3839 42.1339L42 53.75H14.5Z" fill="#6FDAFB" stroke="#6FDAFB" stroke-width="1.2" stroke-miterlimit="10"/>
  <path d="M0.75 56.25L0.75 53.75L73.25 53.75V56.25C73.25 57.5761 72.7232 58.8479 71.7855 59.7855C70.8479 60.7232 69.5761 61.25 68.25 61.25L5.75 61.25C4.42392 61.25 3.15215 60.7232 2.21447 59.7855C1.27679 58.8479 0.75 57.5761 0.75 56.25Z" fill="#F87D30" stroke="#24292F" stroke-width="1.2" stroke-linecap="round" stroke-linejoin="round"/>
  <path d="M6.35852 47.4669C6.21869 47.4669 6.07901 47.4763 5.94042 47.495C5.86888 46.4448 5.40159 45.461 4.63288 44.742C3.86417 44.023 2.85131 43.6224 1.79875 43.6211C1.44424 43.625 1.09173 43.6749 0.75 43.7693V53.7498H6.35852C7.19061 53.7482 7.98805 53.4165 8.57584 52.8275C9.16363 52.2386 9.49375 51.4405 9.49375 50.6084C9.49375 49.7763 9.16363 48.9782 8.57584 48.3892C7.98805 47.8003 7.19061 47.4685 6.35852 47.4669Z" fill="#82CBAA" stroke="#24292F" stroke-width="1.2" stroke-linecap="round" stroke-linejoin="round"/>
  <path d="M48.25 43.75H63.25V53.75H48.25V43.75Z" fill="#199A4A" stroke="#24292F" stroke-width="1.2" stroke-linecap="round" stroke-linejoin="round"/>
  <path d="M48.25 37.5H63.25C63.25 37.5 64.5 37.5 64.5 38.75V42.5C64.5 42.5 64.5 43.75 63.25 43.75H48.25C48.25 43.75 47 43.75 47 42.5V38.75C47 38.75 47 37.5 48.25 37.5Z" fill="#1E4BDE" stroke="#24292F" stroke-width="1.2" stroke-linecap="round" stroke-linejoin="round"/>
  <path d="M48.25 37.5H63.25C63.25 37.5 64.5 37.5 64.5 38.75V42.5C64.5 42.5 64.5 43.75 63.25 43.75H48.25C48.25 43.75 47 43.75 47 42.5V38.75C47 38.75 47 37.5 48.25 37.5Z" fill="#199A4A" stroke="#24292F" stroke-width="1.2" stroke-linecap="round" stroke-linejoin="round"/>
  <path d="M15.2287 16.2842C16.3266 16.2855 17.395 16.6399 18.2761 17.295C19.1572 17.9502 19.8042 18.8713 20.1217 19.9223C20.7386 19.7602 21.383 19.7314 22.012 19.8379C22.6409 19.9445 23.2399 20.1838 23.769 20.5401C24.2982 20.8964 24.7452 21.3614 25.0805 21.9041C25.4157 22.4468 25.6314 23.0547 25.7132 23.6874C25.7949 24.32 25.7409 24.9628 25.5546 25.5729C25.3684 26.183 25.0542 26.7464 24.633 27.2255C24.2119 27.7046 23.6934 28.0884 23.1123 28.3513C22.5311 28.6142 21.9005 28.7503 21.2626 28.7503H9.61666C9.08704 28.7505 8.56303 28.6419 8.07711 28.4313C7.59119 28.2206 7.15373 27.9124 6.79186 27.5257C6.42999 27.139 6.15142 26.682 5.97343 26.1832C5.79544 25.6844 5.72182 25.1544 5.75715 24.6259C5.79247 24.0975 5.93598 23.582 6.17878 23.1113C6.42158 22.6406 6.75849 22.2248 7.16861 21.8897C7.57873 21.5546 8.05333 21.3073 8.56296 21.1632C9.07259 21.0191 9.6064 20.9813 10.1313 21.052C10.2193 19.7595 10.7944 18.5486 11.7405 17.6637C12.6866 16.7787 13.9332 16.2857 15.2287 16.2842Z" fill="white" stroke="white" stroke-width="1.2" stroke-linecap="round" stroke-linejoin="round"/>
  <path d="M10.75 26.25H34.5C34.5 26.25 35.75 26.25 35.75 27.5V32.5C35.75 32.5 35.75 33.75 34.5 33.75H10.75C10.75 33.75 9.5 33.75 9.5 32.5V27.5C9.5 27.5 9.5 26.25 10.75 26.25Z" fill="#C8D4FA" stroke="#24292F" stroke-width="1.2" stroke-linecap="round" stroke-linejoin="round"/>
  <path d="M14.5 26.25H19.5C19.5 26.25 20.75 26.25 20.75 27.5V32.5C20.75 32.5 20.75 33.75 19.5 33.75H14.5C14.5 33.75 13.25 33.75 13.25 32.5V27.5C13.25 27.5 13.25 26.25 14.5 26.25Z" fill="#DBAE5D" stroke="#24292F" stroke-width="1.2" stroke-linecap="round" stroke-linejoin="round"/>
  <path d="M29.5 26.25H34.5C34.5 26.25 35.75 26.25 35.75 27.5V32.5C35.75 32.5 35.75 33.75 34.5 33.75H29.5C29.5 33.75 28.25 33.75 28.25 32.5V27.5C28.25 27.5 28.25 26.25 29.5 26.25Z" fill="#DBAE5D" stroke="#24292F" stroke-width="1.2" stroke-linecap="round" stroke-linejoin="round"/>
  <path d="M22 26.25H27C27 26.25 28.25 26.25 28.25 27.5V32.5C28.25 32.5 28.25 33.75 27 33.75H22C22 33.75 20.75 33.75 20.75 32.5V27.5C20.75 27.5 20.75 26.25 22 26.25Z" fill="#9B6C33" stroke="#24292F" stroke-width="1.2" stroke-linecap="round" stroke-linejoin="round"/>
  <path d="M10.75 26.25H12C12 26.25 13.25 26.25 13.25 27.5V32.5C13.25 32.5 13.25 33.75 12 33.75H10.75C10.75 33.75 9.5 33.75 9.5 32.5V27.5C9.5 27.5 9.5 26.25 10.75 26.25Z" fill="#9B6C33" stroke="#24292F" stroke-width="1.2" stroke-linecap="round" stroke-linejoin="round"/>
  <path d="M72.1334 45.1133C71.3477 45.1143 70.5883 45.3966 69.9927 45.909C69.3971 46.4215 69.0046 47.1303 68.8863 47.907L68.8269 47.9064C68.0521 47.9064 67.3089 48.2142 66.761 48.7622C66.2131 49.3101 65.9053 50.0532 65.9053 50.8281C65.9053 51.603 66.2131 52.3461 66.761 52.894C67.3089 53.4419 68.0521 53.7498 68.8269 53.7498H73.2497V45.3151C72.8922 45.1832 72.5145 45.1149 72.1334 45.1133Z" fill="#82CBAA" stroke="#24292F" stroke-width="1.2" stroke-linecap="round" stroke-linejoin="round"/>
  <path d="M61.6742 25.0166C62.3604 25.0174 63.0282 25.2389 63.5789 25.6484C64.1295 26.0578 64.5339 26.6335 64.7323 27.2904C65.1179 27.1891 65.5207 27.1711 65.9137 27.2377C66.3068 27.3043 66.6812 27.454 67.0119 27.6766C67.3425 27.8993 67.6219 28.1899 67.8315 28.5291C68.041 28.8683 68.1758 29.2482 68.2269 29.6436C68.278 30.039 68.2442 30.4407 68.1278 30.822C68.0114 31.2033 67.815 31.5554 67.5518 31.8549C67.2886 32.1543 66.9646 32.3942 66.6014 32.5585C66.2382 32.7229 65.8441 32.8079 65.4454 32.8079H58.1667C57.8357 32.8081 57.5081 32.7402 57.2044 32.6086C56.9007 32.4769 56.6273 32.2843 56.4011 32.0426C56.1749 31.8009 56.0008 31.5153 55.8896 31.2035C55.7783 30.8918 55.7323 30.5605 55.7544 30.2302C55.7765 29.8999 55.8662 29.5777 56.0179 29.2835C56.1697 28.9893 56.3803 28.7295 56.6366 28.52C56.8929 28.3106 57.1896 28.1561 57.5081 28.066C57.8266 27.9759 58.1603 27.9523 58.4883 27.9965C58.5433 27.1887 58.9027 26.4319 59.4941 25.8788C60.0854 25.3257 60.8645 25.0176 61.6742 25.0166Z" fill="white" stroke="white" stroke-width="1.2" stroke-linecap="round" stroke-linejoin="round"/>
  <path d="M8.875 6.62452C8.997 6.5008 9.14326 6.40363 9.30458 6.3391C9.46591 6.27457 9.63883 6.24407 9.8125 6.24952C9.92892 6.24078 10.0459 6.25549 10.1566 6.29276C10.2672 6.33004 10.3692 6.38912 10.4567 6.46652C10.5441 6.54393 10.6151 6.63807 10.6654 6.74339C10.7158 6.84871 10.7446 6.96307 10.75 7.07969C10.75 7.6029 10.2159 8.20173 8.875 8.74952C7.53414 8.20173 7 7.6029 7 7.07969C7.00542 6.96307 7.03417 6.84871 7.08456 6.74339C7.13494 6.63807 7.20594 6.54393 7.29335 6.46652C7.38075 6.38912 7.4828 6.33004 7.59344 6.29276C7.70408 6.25549 7.82108 6.24078 7.9375 6.24952C8.11117 6.24407 8.28409 6.27457 8.44542 6.3391C8.60674 6.40363 8.753 6.5008 8.875 6.62452Z" fill="#E62234" stroke="#E62234" stroke-width="1.2" stroke-linecap="round" stroke-linejoin="round"/>
  <path d="M21.375 6.62452C21.497 6.5008 21.6433 6.40363 21.8046 6.3391C21.9659 6.27457 22.1388 6.24407 22.3125 6.24952C22.4289 6.24078 22.5459 6.25549 22.6566 6.29276C22.7672 6.33004 22.8692 6.38912 22.9567 6.46652C23.0441 6.54393 23.1151 6.63807 23.1654 6.74339C23.2158 6.84871 23.2446 6.96307 23.25 7.07969C23.25 7.6029 22.7159 8.20173 21.375 8.74952C20.0341 8.20173 19.5 7.6029 19.5 7.07969C19.5054 6.96307 19.5342 6.84871 19.5846 6.74339C19.6349 6.63807 19.7059 6.54393 19.7933 6.46652C19.8808 6.38912 19.9828 6.33004 20.0934 6.29276C20.2041 6.25549 20.3211 6.24078 20.4375 6.24952C20.6112 6.24407 20.7841 6.27457 20.9454 6.3391C21.1067 6.40363 21.253 6.5008 21.375 6.62452Z" fill="#E62234" stroke="#E62234" stroke-width="1.2" stroke-linecap="round" stroke-linejoin="round"/>
  <path d="M15.125 6.62452C15.247 6.5008 15.3933 6.40363 15.5546 6.3391C15.7159 6.27457 15.8888 6.24407 16.0625 6.24952C16.1789 6.24078 16.2959 6.25549 16.4066 6.29276C16.5172 6.33004 16.6192 6.38912 16.7067 6.46652C16.7941 6.54393 16.8651 6.63807 16.9154 6.74339C16.9658 6.84871 16.9946 6.96307 17 7.07969C17 7.6029 16.4659 8.20173 15.125 8.74952C13.7841 8.20173 13.25 7.6029 13.25 7.07969C13.2554 6.96307 13.2842 6.84871 13.3346 6.74339C13.3849 6.63807 13.4559 6.54393 13.5433 6.46652C13.6308 6.38912 13.7328 6.33004 13.8434 6.29276C13.9541 6.25549 14.0711 6.24078 14.1875 6.24952C14.3612 6.24407 14.5341 6.27457 14.6954 6.3391C14.8567 6.40363 15.003 6.5008 15.125 6.62452Z" fill="#E62234" stroke="#E62234" stroke-width="1.2" stroke-linecap="round" stroke-linejoin="round"/>
  <path d="M60.75 6.25H68.25" stroke="#24292F" stroke-width="1.2" stroke-linecap="round" stroke-linejoin="round"/>
  <path d="M68.25 8.75H63.25" stroke="#24292F" stroke-width="1.2" stroke-linecap="round" stroke-linejoin="round"/>
  <path d="M57 16.25H58.25C58.5815 16.25 58.8995 16.3817 59.1339 16.6161C59.3683 16.8505 59.5 17.1685 59.5 17.5V20H55.75V17.5C55.75 17.1685 55.8817 16.8505 56.1161 16.6161C56.3505 16.3817 56.6685 16.25 57 16.25Z" fill="#FBE8C2" stroke="#24292F" stroke-width="1.2" stroke-linecap="round" stroke-linejoin="round"/>
  <path d="M55.75 25V20H59.5V21.25C59.5 22.2446 59.1049 23.1984 58.4016 23.9017C57.6984 24.6049 56.7446 25 55.75 25Z" fill="#F6C944" stroke="#24292F" stroke-width="1.2" stroke-linecap="round" stroke-linejoin="round"/>
  <path d="M45.75 21.25H55.75V25H45.75V21.25Z" fill="#F6C944" stroke="#24292F" stroke-width="1.2" stroke-linecap="round" stroke-linejoin="round"/>
  <path d="M60.75 28.75H59.5V25L60.75 23.75V28.75Z" fill="#1E4BDE" stroke="#24292F" stroke-width="1.2" stroke-linecap="round" stroke-linejoin="round"/>
  <path d="M44.5 28.75H45.75V32.5L44.5 33.75V28.75Z" fill="#1E4BDE" stroke="#24292F" stroke-width="1.2" stroke-linecap="round" stroke-linejoin="round"/>
  <path d="M53.25 25H59.5V28.75H53.25V25Z" fill="#E62234" stroke="#24292F" stroke-width="1.2" stroke-linecap="round" stroke-linejoin="round"/>
  <path d="M53.25 25H45.75V32.5H49.5C50.4946 32.5 51.4484 32.1049 52.1516 31.4017C52.8549 30.6984 53.25 29.7446 53.25 28.75V25Z" fill="#E62234" stroke="#24292F" stroke-width="1.2" stroke-linecap="round" stroke-linejoin="round"/>
  <path d="M55.75 21.25H45.75V12.5C45.75 11.837 46.0134 11.2011 46.4822 10.7322C46.9511 10.2634 47.587 10 48.25 10H53.25C53.913 10 54.5489 10.2634 55.0178 10.7322C55.4866 11.2011 55.75 11.837 55.75 12.5V15L57 16.875L55.75 18.125V21.25Z" fill="#FBE8C2" stroke="#24292F" stroke-width="1.2" stroke-linecap="round" stroke-linejoin="round"/>
  <path d="M50.2812 17.6562C50.2812 17.8635 50.3636 18.0622 50.5101 18.2087C50.6566 18.3552 50.8553 18.4375 51.0625 18.4375C51.2697 18.4375 51.4684 18.3552 51.6149 18.2087C51.7614 18.0622 51.8438 17.8635 51.8438 17.6562C51.8438 17.449 51.7614 17.2503 51.6149 17.1038C51.4684 16.9573 51.2697 16.875 51.0625 16.875C50.8553 16.875 50.6566 16.9573 50.5101 17.1038C50.3636 17.2503 50.2812 17.449 50.2812 17.6562Z" fill="#F89C70"/>
  <path d="M45.75 13.75H58.25" stroke="#24292F" stroke-width="1.2" stroke-linecap="round" stroke-linejoin="round"/>
  <path d="M52.9375 15.9375V16.5625V15.9375Z" fill="white"/>
  <path d="M52.9375 15.9375V16.5625" stroke="#24292F" stroke-width="1.2" stroke-linecap="round" stroke-linejoin="round"/>
  <path d="M52 19.375C52.8004 18.5746 53.8859 18.125 55.0178 18.125H55.75" fill="white"/>
  <path d="M52 19.375C52.8004 18.5746 53.8859 18.125 55.0178 18.125H55.75" stroke="#24292F" stroke-width="1.2" stroke-linecap="round" stroke-linejoin="round"/>
  <path d="M45.75 25V21.25C44.7554 21.25 43.8016 21.6451 43.0984 22.3483C42.3951 23.0516 42 24.0054 42 25C42 25.9946 42.3951 26.9484 43.0984 27.6517C43.8016 28.3549 44.7554 28.75 45.75 28.75V25Z" fill="#F6C944" stroke="#24292F" stroke-width="1.2" stroke-linecap="round" stroke-linejoin="round"/>
  <path d="M45.75 25H48.25C48.5815 25 48.8995 25.1317 49.1339 25.3661C49.3683 25.6005 49.5 25.9185 49.5 26.25V27.5C49.5 27.8315 49.3683 28.1495 49.1339 28.3839C48.8995 28.6183 48.5815 28.75 48.25 28.75H45.75V25Z" fill="#FBE8C2" stroke="#24292F" stroke-width="1.2" stroke-linecap="round" stroke-linejoin="round"/>
  <path d="M45.75 13.75H49.5V16.25C49.5 16.913 49.2366 17.5489 48.7678 18.0178C48.2989 18.4866 47.663 18.75 47 18.75H45.75V13.75Z" fill="#24292F" stroke="#24292F" stroke-width="1.2" stroke-linecap="round" stroke-linejoin="round"/>
  <path d="M48.25 10H53.25C53.913 10 54.5489 10.2634 55.0178 10.7322C55.4866 11.2011 55.75 11.837 55.75 12.5V13.75H45.75V12.5C45.75 11.837 46.0134 11.2011 46.4822 10.7322C46.9511 10.2634 47.587 10 48.25 10Z" fill="#E62234" stroke="#24292F" stroke-width="1.2" stroke-linecap="round" stroke-linejoin="round"/>
  <path d="M55.7498 51.25H23.2498C20.8055 51.2481 18.405 51.8978 16.2953 53.1322C14.1857 54.3666 12.4432 56.141 11.2473 58.2727C10.0515 60.4044 9.44547 62.8164 9.49172 65.2602C9.53797 67.704 10.2348 70.0913 11.5105 72.1762C12.7861 74.2612 14.5945 75.9684 16.7494 77.122C18.9042 78.2757 21.3276 78.8341 23.77 78.7398C26.2124 78.6454 28.5856 77.9017 30.645 76.5852C32.7044 75.2688 34.3757 73.4271 35.4867 71.25H43.5128C44.6243 73.4255 46.2955 75.2655 48.3543 76.5805C50.4131 77.8956 52.7852 78.6382 55.2264 78.7319C57.6676 78.8256 60.0896 78.2671 62.2432 77.1138C64.3968 75.9604 66.2041 74.254 67.4791 72.1702C68.7542 70.0863 69.4508 67.7003 69.4973 65.2577C69.5438 62.8152 68.9385 60.4044 67.7438 58.2735C66.5491 56.1426 64.808 54.3686 62.6999 53.1341C60.5918 51.8997 58.1927 51.2493 55.7498 51.25Z" fill="#E4E4E4" stroke="#24292F" stroke-width="1.2" stroke-linecap="round" stroke-linejoin="round"/>
  <path d="M53.875 58.75C53.875 59.413 54.1384 60.0489 54.6072 60.5178C55.0761 60.9866 55.712 61.25 56.375 61.25C57.038 61.25 57.6739 60.9866 58.1428 60.5178C58.6116 60.0489 58.875 59.413 58.875 58.75C58.875 58.087 58.6116 57.4511 58.1428 56.9822C57.6739 56.5134 57.038 56.25 56.375 56.25C55.712 56.25 55.0761 56.5134 54.6072 56.9822C54.1384 57.4511 53.875 58.087 53.875 58.75Z" fill="#F6C944" stroke="#24292F" stroke-width="1.2" stroke-linecap="round" stroke-linejoin="round"/>
  <path d="M53.875 71.25C53.875 71.913 54.1384 72.5489 54.6072 73.0178C55.0761 73.4866 55.712 73.75 56.375 73.75C57.038 73.75 57.6739 73.4866 58.1428 73.0178C58.6116 72.5489 58.875 71.913 58.875 71.25C58.875 70.587 58.6116 69.9511 58.1428 69.4822C57.6739 69.0134 57.038 68.75 56.375 68.75C55.712 68.75 55.0761 69.0134 54.6072 69.4822C54.1384 69.9511 53.875 70.587 53.875 71.25Z" fill="#82CBAA" stroke="#24292F" stroke-width="1.2" stroke-linecap="round" stroke-linejoin="round"/>
  <path d="M60.125 65C60.125 65.663 60.3884 66.2989 60.8572 66.7678C61.3261 67.2366 61.962 67.5 62.625 67.5C63.288 67.5 63.9239 67.2366 64.3928 66.7678C64.8616 66.2989 65.125 65.663 65.125 65C65.125 64.337 64.8616 63.7011 64.3928 63.2322C63.9239 62.7634 63.288 62.5 62.625 62.5C61.962 62.5 61.3261 62.7634 60.8572 63.2322C60.3884 63.7011 60.125 64.337 60.125 65Z" fill="#E62234" stroke="#24292F" stroke-width="1.2" stroke-linecap="round" stroke-linejoin="round"/>
  <path d="M47.625 65C47.625 65.663 47.8884 66.2989 48.3572 66.7678C48.8261 67.2366 49.462 67.5 50.125 67.5C50.788 67.5 51.4239 67.2366 51.8928 66.7678C52.3616 66.2989 52.625 65.663 52.625 65C52.625 64.337 52.3616 63.7011 51.8928 63.2322C51.4239 62.7634 50.788 62.5 50.125 62.5C49.462 62.5 48.8261 62.7634 48.3572 63.2322C47.8884 63.7011 47.625 64.337 47.625 65Z" fill="#6FDAFB" stroke="#24292F" stroke-width="1.2" stroke-linecap="round" stroke-linejoin="round"/>
  <path d="M30.125 62.5H26.375V58.75C26.375 58.4185 26.2433 58.1005 26.0089 57.8661C25.7745 57.6317 25.4565 57.5 25.125 57.5H22.625C22.2935 57.5 21.9755 57.6317 21.7411 57.8661C21.5067 58.1005 21.375 58.4185 21.375 58.75V62.5H17.625C17.2935 62.5 16.9755 62.6317 16.7411 62.8661C16.5067 63.1005 16.375 63.4185 16.375 63.75V66.25C16.375 66.5815 16.5067 66.8995 16.7411 67.1339C16.9755 67.3683 17.2935 67.5 17.625 67.5H21.375V71.25C21.375 71.5815 21.5067 71.8995 21.7411 72.1339C21.9755 72.3683 22.2935 72.5 22.625 72.5H25.125C25.4565 72.5 25.7745 72.3683 26.0089 72.1339C26.2433 71.8995 26.375 71.5815 26.375 71.25V67.5H30.125C30.4565 67.5 30.7745 67.3683 31.0089 67.1339C31.2433 66.8995 31.375 66.5815 31.375 66.25V63.75C31.375 63.4185 31.2433 63.1005 31.0089 62.8661C30.7745 62.6317 30.4565 62.5 30.125 62.5Z" fill="#808080" stroke="#24292F" stroke-width="1.2" stroke-linecap="round" stroke-linejoin="round"/>
  <path d="M43.25 58.75H41.375" stroke="#24292F" stroke-width="1.2" stroke-linecap="round" stroke-linejoin="round"/>
  <path d="M37.625 58.75H35.75" stroke="#24292F" stroke-width="1.2" stroke-linecap="round" stroke-linejoin="round"/>
</svg>