<svg xmlns="http://www.w3.org/2000/svg" width="20" height="20" viewBox="0 0 20 20" fill="none">
  <path d="M10.0001 18.1249C9.9118 18.1249 9.82344 18.1065 9.74094 18.069C9.46844 17.9449 3.05514 14.9707 2.02681 9.67405C1.62931 7.62489 2.02848 5.62571 3.09431 4.32737C3.95681 3.27571 5.19678 2.71653 6.68094 2.70903C6.68844 2.70903 6.69594 2.70903 6.70261 2.70903C8.39594 2.70903 9.42849 3.67322 9.99932 4.49405C10.5727 3.66988 11.6134 2.70153 13.3176 2.70903C14.8026 2.71653 16.0434 3.27571 16.9068 4.32737C17.9709 5.62487 18.3693 7.62403 17.9709 9.67487C16.9443 14.9715 10.5301 17.9466 10.2576 18.0699C10.1768 18.1066 10.0885 18.1249 10.0001 18.1249ZM6.7018 3.95821C6.6968 3.95821 6.69266 3.95821 6.68766 3.95821C5.57266 3.96321 4.68934 4.35403 4.06101 5.11987C3.22851 6.13403 2.92766 7.74738 3.25433 9.43571C4.05016 13.539 8.82764 16.2057 10.0001 16.804C11.1726 16.2057 15.9501 13.539 16.7451 9.43571C17.0735 7.74655 16.7726 6.1332 15.9418 5.11987C15.3135 4.35487 14.4301 3.96486 13.3126 3.95903C13.3076 3.95903 13.3026 3.95903 13.2985 3.95903C11.3218 3.95903 10.621 5.93988 10.5927 6.02405C10.506 6.27655 10.2676 6.44819 10.0009 6.44819C9.99928 6.44819 9.99843 6.44819 9.99759 6.44819C9.73009 6.44736 9.49177 6.27654 9.40677 6.02237C9.37927 5.93904 8.67763 3.95821 6.7018 3.95821Z" fill="currentColor" stroke="currentColor" stroke-width="0.25"/>
</svg>