<svg width="24" height="24" viewBox="0 0 24 24" fill="none" xmlns="http://www.w3.org/2000/svg">
<path fill-rule="evenodd" clip-rule="evenodd" d="M3.11612 5.11612C3.60427 4.62796 4.39554 4.62796 4.88369 5.11612L10.8837 11.1161C11.3717 11.6043 11.3718 12.3956 10.8837 12.8837L4.88369 18.8837C4.3956 19.3718 3.60429 19.3717 3.11612 18.8837C2.62796 18.3955 2.62796 17.6043 3.11612 17.1161L8.23233 11.9999L3.11612 6.88369C2.62796 6.39554 2.62796 5.60427 3.11612 5.11612ZM13.1161 5.11612C13.6043 4.62796 14.3955 4.62796 14.8837 5.11612L20.8837 11.1161C21.3717 11.6043 21.3718 12.3956 20.8837 12.8837L14.8837 18.8837C14.3956 19.3718 13.6043 19.3717 13.1161 18.8837C12.628 18.3955 12.628 17.6043 13.1161 17.1161L18.2323 11.9999L13.1161 6.88369C12.628 6.39554 12.628 5.60427 13.1161 5.11612Z" fill="currentColor"/>
</svg>
