<svg width="24" height="24" viewBox="0 0 24 24" fill="none" xmlns="http://www.w3.org/2000/svg">
    <path d="M11.999 5.25391C14.3815 5.25406 16.3135 7.18581 16.3135 9.56836C16.3135 9.88869 16.2772 10.2006 16.2109 10.501C16.9876 10.8524 17.6466 11.4282 18.0996 12.1592C18.642 13.0347 18.8534 14.076 18.6953 15.0938C18.5372 16.1114 18.0197 17.0392 17.2373 17.709C16.455 18.3785 15.4584 18.7468 14.4287 18.7461V18.7451C13.5584 18.7461 12.7123 18.4824 11.999 17.9951C11.8556 18.093 11.7058 18.1835 11.5508 18.2637C10.9379 18.5807 10.2574 18.7463 9.56738 18.7461C8.53878 18.7443 7.54323 18.375 6.7627 17.7051C5.98226 17.0352 5.46631 16.1082 5.30859 15.0918C5.15098 14.0754 5.36256 13.036 5.90332 12.1611C6.35511 11.4305 7.0129 10.8544 7.78809 10.502C7.7217 10.2012 7.68459 9.88902 7.68457 9.56836C7.68457 7.18594 9.61669 5.25427 11.999 5.25391ZM15.7227 11.7451C15.2733 12.5119 14.5949 13.1272 13.7803 13.4971C13.8912 13.9971 13.9125 14.5144 13.8418 15.0244C13.7469 15.7079 13.4893 16.3594 13.0908 16.9229C13.0611 16.9649 13.0282 17.005 12.9971 17.0459C13.433 17.2851 13.9254 17.4138 14.4287 17.4131L14.4297 17.4121C15.1411 17.4126 15.8296 17.1587 16.3701 16.6963C16.9105 16.2336 17.2686 15.5926 17.3779 14.8896C17.4871 14.1865 17.3405 13.4672 16.9658 12.8623C16.6649 12.3766 16.2326 11.9901 15.7227 11.7451ZM8.27539 11.7451C7.76764 11.9909 7.3368 12.3776 7.03711 12.8623C6.66353 13.4668 6.51707 14.1854 6.62598 14.8877C6.73502 15.5899 7.09165 16.2305 7.63086 16.6934C8.16993 17.1561 8.857 17.4106 9.56738 17.4121C10.0442 17.4122 10.515 17.2981 10.9385 17.0791C11.3618 16.8601 11.7266 16.5424 12.002 16.1533C12.2773 15.764 12.4549 15.3131 12.5205 14.8408C12.5662 14.5114 12.5553 14.1778 12.4912 13.8535C12.3299 13.8718 12.1653 13.8818 11.999 13.8818C10.4111 13.8816 9.02423 13.0229 8.27539 11.7451ZM11.999 6.58691C10.3531 6.58728 9.01855 7.92232 9.01855 9.56836C9.01871 11.2143 10.3532 12.5485 11.999 12.5488C13.6451 12.5487 14.9793 11.2144 14.9795 9.56836C14.9795 7.92219 13.6452 6.58707 11.999 6.58691Z" fill="currentColor"/>
</svg>
