<svg width="24" height="24" viewBox="0 0 24 24" fill="none" xmlns="http://www.w3.org/2000/svg">
    <path d="M16.1211 5.56348C16.6278 5.50916 17.1411 5.53087 17.5879 5.8252C17.8226 5.97995 18.0239 6.18139 18.1787 6.41602C18.4732 6.86271 18.4947 7.37607 18.4404 7.88281C18.3864 8.38681 18.2392 9.02131 18.0625 9.78711L17.6436 11.6035C17.5779 11.888 17.5257 12.1303 17.417 12.3555C17.3834 12.425 17.3458 12.4932 17.3047 12.5586C17.1714 12.7703 16.9927 12.9428 16.7861 13.1494L12.6123 17.3242C12.2488 17.6877 11.9384 17.9988 11.6602 18.2227C11.372 18.4544 11.0572 18.6436 10.6689 18.7051C10.4539 18.7391 10.2346 18.7391 10.0195 18.7051C9.63147 18.6435 9.3173 18.4543 9.0293 18.2227C8.75106 17.9988 8.44059 17.6877 8.07715 17.3242L6.68066 15.9277C6.31713 15.5642 6.00515 15.2539 5.78125 14.9756C5.54954 14.6875 5.36031 14.3725 5.29883 13.9844C5.26485 13.7693 5.26478 13.55 5.29883 13.335C5.36035 12.9467 5.54948 12.6318 5.78125 12.3438C6.00515 12.0655 6.31719 11.7561 6.68066 11.3926L10.8545 7.21777C11.0611 7.01118 11.2346 6.83255 11.4463 6.69922C11.5114 6.65824 11.5792 6.6214 11.6484 6.58789C11.8737 6.47901 12.1167 6.42702 12.4014 6.36133L14.2168 5.94141C14.9826 5.76467 15.617 5.61754 16.1211 5.56348ZM16.2627 6.88867C15.8576 6.93217 15.3163 7.05569 14.5166 7.24023L12.7012 7.66016C12.3605 7.73877 12.2891 7.7593 12.2295 7.78809C12.2046 7.80013 12.1797 7.81339 12.1562 7.82812C12.1002 7.86345 12.0451 7.91286 11.7979 8.16016L7.62305 12.335C7.23863 12.7194 6.98845 12.9708 6.82031 13.1797C6.66056 13.3783 6.62656 13.4784 6.61621 13.543C6.604 13.6201 6.60402 13.6993 6.61621 13.7764C6.62644 13.8409 6.66027 13.9407 6.82031 14.1396C6.98839 14.3486 7.23871 14.6 7.62305 14.9844L9.01953 16.3809C9.40363 16.765 9.65543 17.0155 9.86426 17.1836C10.0627 17.3432 10.163 17.3783 10.2275 17.3887C10.3046 17.4009 10.3839 17.4008 10.4609 17.3887C10.5255 17.3784 10.625 17.3438 10.8242 17.1836C11.0332 17.0155 11.2845 16.7653 11.6689 16.3809L15.8438 12.207C16.0915 11.9593 16.1414 11.9038 16.1768 11.8477C16.1914 11.8244 16.2048 11.8001 16.2168 11.7754C16.2456 11.7157 16.2661 11.6444 16.3447 11.3037L16.7637 9.4873C16.9483 8.68729 17.0718 8.14636 17.1152 7.74121C17.1583 7.33907 17.1036 7.20832 17.0654 7.15039C17.01 7.0664 16.9385 6.99389 16.8545 6.93848C16.7965 6.90028 16.6646 6.84558 16.2627 6.88867ZM12.9307 8.67578C13.5911 8.01531 14.6626 8.01565 15.3232 8.67578C15.9838 9.33642 15.9839 10.4077 15.3232 11.0684C14.6626 11.7288 13.5912 11.7289 12.9307 11.0684C12.2706 10.4078 12.2704 9.33627 12.9307 8.67578ZM14.4277 9.57227C14.2618 9.40636 13.9931 9.40631 13.8271 9.57227C13.6614 9.73823 13.6613 10.0069 13.8271 10.1729C13.9931 10.3387 14.2618 10.3386 14.4277 10.1729C14.5937 10.0069 14.5936 9.73824 14.4277 9.57227Z" fill="#57606A"/>
</svg>
