<svg width="24" height="24" viewBox="0 0 24 24" fill="none" xmlns="http://www.w3.org/2000/svg">
    <path d="M18.497 10.3565L17.1446 11.2416C17.0465 11.3027 16.9306 11.3255 16.8177 11.3057C16.7049 11.2859 16.6026 11.2248 16.5293 11.1336L16.0967 10.5695C16.0192 10.4683 15.8576 10.5232 15.8576 10.6506V16.8989C15.8573 17.0141 15.8131 17.1246 15.7347 17.2061C15.6562 17.2875 15.5498 17.3334 15.4388 17.3337H8.57143C8.46045 17.3334 8.35407 17.2875 8.27559 17.2061C8.19711 17.1246 8.15292 17.0141 8.15269 16.8989V10.643C8.15269 10.5156 7.99115 10.4608 7.91359 10.5618L7.47477 11.1336C7.40153 11.2246 7.29939 11.2855 7.18674 11.3053C7.07409 11.3251 6.95834 11.3025 6.86032 11.2416L5.50712 10.3565C5.46189 10.3295 5.42323 10.2921 5.3941 10.2472C5.36497 10.2023 5.34615 10.151 5.33908 10.0974C5.33202 10.0437 5.33689 9.98908 5.35334 9.93769C5.36978 9.8863 5.39736 9.83951 5.43395 9.80091L7.41306 7.52003C7.64568 7.25155 7.93009 7.03687 8.24781 6.88991C8.56553 6.74295 8.90946 6.667 9.25729 6.66699H10.0816C10.2429 7.05782 10.5112 7.39091 10.8531 7.62498C11.195 7.85906 11.5956 7.98382 12.0051 7.98382C12.4147 7.98382 12.8152 7.85906 13.1572 7.62498C13.4991 7.39091 13.7673 7.05782 13.9287 6.66699H14.7521C15.1001 6.6671 15.4442 6.74318 15.7621 6.8903C16.0799 7.03741 16.3645 7.25228 16.5972 7.52095L18.5719 9.79999C18.6084 9.8388 18.6359 9.88578 18.6522 9.93732C18.6685 9.98887 18.6732 10.0436 18.666 10.0973C18.6587 10.1511 18.6397 10.2024 18.6104 10.2473C18.5811 10.2922 18.5423 10.3296 18.497 10.3565Z" stroke="#57606A" stroke-width="1.33333"/>
    <path d="M10.522 6L10.6925 6.41211C10.8055 6.68577 10.9917 6.91556 11.2244 7.07487C11.4568 7.23386 11.7265 7.31706 11.9998 7.31706C12.2732 7.31704 12.5429 7.23389 12.7752 7.07487C13.0079 6.91556 13.1941 6.68577 13.3071 6.41211L13.4771 6H14.7472L14.9133 6.00456C15.3013 6.02582 15.6825 6.12111 16.0369 6.28516C16.4417 6.47251 16.802 6.74516 17.0955 7.08398L19.0702 9.36328L19.0688 9.36393C19.1657 9.47249 19.239 9.59866 19.2824 9.73568C19.3284 9.88115 19.3418 10.0354 19.3215 10.1862C19.3011 10.337 19.2472 10.4825 19.1632 10.6113C19.0844 10.7321 18.9795 10.8345 18.856 10.9128L18.8566 10.9141L17.5044 11.7988L17.4985 11.8027L17.492 11.8066C17.2559 11.9539 16.9735 12.0107 16.6971 11.9622C16.6359 11.9515 16.5764 11.9349 16.5187 11.9147V16.8997C16.5181 17.1834 16.4096 17.4601 16.2095 17.668C16.0084 17.8767 15.7303 17.9994 15.4347 18H8.56429C8.26889 17.9993 7.9912 17.8767 7.7902 17.668C7.58998 17.4601 7.48153 17.1834 7.48096 16.8997V11.9121C7.42146 11.9333 7.36 11.9505 7.29671 11.9616C7.02086 12.0101 6.73904 11.954 6.50309 11.8073L6.49007 11.7995L5.13656 10.9141L5.13786 10.9128C5.01369 10.834 4.90812 10.731 4.82927 10.6094C4.7457 10.4804 4.69289 10.335 4.67302 10.1842C4.65316 10.0335 4.66629 9.87962 4.71273 9.73438L4.75375 9.6276C4.79658 9.53184 4.85476 9.44312 4.92562 9.36393H4.92497L6.90414 7.08268C7.19762 6.74408 7.55812 6.47166 7.96273 6.28451C8.36751 6.0973 8.80677 6.00002 9.25179 6H10.522ZM9.15804 7.33594C8.93958 7.34786 8.72431 7.40154 8.52263 7.49479C8.32077 7.58816 8.13578 7.71987 7.9777 7.88411L7.9113 7.95638L6.15153 9.98438L7.05583 10.5762L7.3794 10.1556L7.42432 10.1016C7.9042 9.57026 8.8142 9.90218 8.81429 10.6426V16.6667H15.1854V10.6504C15.1854 9.88594 16.1551 9.55683 16.6203 10.1634L16.9373 10.5762L17.8436 9.98307L16.0877 7.95703C15.9159 7.75874 15.7072 7.60161 15.4764 7.49479C15.2746 7.40142 15.059 7.34792 14.8403 7.33594L14.7466 7.33333H14.3273C14.1222 7.66532 13.8518 7.95309 13.5285 8.17448C13.0771 8.48351 12.5455 8.65037 11.9998 8.65039C11.4542 8.65039 10.9226 8.48353 10.4712 8.17448C10.1478 7.9531 9.87747 7.66533 9.67237 7.33333H9.25179L9.15804 7.33594Z" fill="#57606A"/>
</svg>
