<svg width="24" height="24" viewBox="0 0 24 24" fill="none" xmlns="http://www.w3.org/2000/svg">
    <path d="M12.0029 4.66699C12.3709 4.66722 12.6689 4.96594 12.6689 5.33398V6H16.6689L16.7354 6.00391C16.8878 6.01912 17.0313 6.08607 17.1406 6.19531L18.4736 7.5293C18.7339 7.78964 18.7339 8.21134 18.4736 8.47168L17.1406 9.80469C17.0156 9.9297 16.8457 9.99999 16.6689 10H12.6689V11H16.6689C17.0371 11 17.3359 11.2988 17.3359 11.667V14.334C17.3358 14.702 17.037 15 16.6689 15H12.6689V18H13.6689C14.0371 18 14.3359 18.2988 14.3359 18.667C14.3359 19.0352 14.0371 19.334 13.6689 19.334H10.3359C9.96775 19.334 9.66895 19.0352 9.66895 18.667C9.66895 18.2988 9.96775 18 10.3359 18H11.3359V15H7.33594C7.15914 15 6.98928 14.9297 6.86426 14.8047L5.53125 13.4717C5.27095 13.2114 5.27104 12.7897 5.53125 12.5293L6.86426 11.1953L6.91309 11.1514C7.03172 11.0542 7.18122 11 7.33594 11H11.3359V10H7.33594C6.96786 10 6.66912 9.70202 6.66895 9.33398V6.66699C6.66895 6.2988 6.96775 6 7.33594 6H11.3359V5.33398C11.3359 4.96579 11.6347 4.66699 12.0029 4.66699ZM6.94531 13L7.6123 13.667H16.0029V12.334H7.6123L6.94531 13ZM8.00293 8.66699H16.3936L17.0596 8L16.3936 7.33398H8.00293V8.66699Z" fill="#57606A"/>
</svg>
