<svg width="24" height="24" viewBox="0 0 24 24" fill="none" xmlns="http://www.w3.org/2000/svg">
    <path d="M18.0029 11C18.371 11.0002 18.6689 11.2989 18.6689 11.667C18.6689 14.2533 16.5705 16.3338 14.0029 16.334H7.6123L8.47363 17.1953C8.73396 17.4557 8.73397 17.8783 8.47363 18.1387C8.21332 18.3986 7.79149 18.3987 7.53125 18.1387L5.53125 16.1387C5.51049 16.1179 5.49206 16.0949 5.47461 16.0723C5.46551 16.0604 5.45654 16.0486 5.44824 16.0361C5.4309 16.0101 5.41564 15.9827 5.40234 15.9551C5.3878 15.9248 5.37417 15.8939 5.36426 15.8613C5.36089 15.8502 5.35922 15.8384 5.35645 15.8271C5.34376 15.7758 5.33595 15.7223 5.33594 15.667C5.33594 15.6232 5.34058 15.5805 5.34863 15.5391C5.35301 15.5166 5.35756 15.4937 5.36426 15.4717C5.37419 15.4392 5.38779 15.4081 5.40234 15.3779C5.4151 15.3514 5.42983 15.3257 5.44629 15.3008C5.47121 15.263 5.49938 15.2272 5.53125 15.1953L7.53125 13.1953C7.79151 12.9352 8.2133 12.9353 8.47363 13.1953C8.73396 13.4557 8.73397 13.8783 8.47363 14.1387L7.6123 15H14.0029C15.8375 14.9998 17.3359 13.5136 17.3359 11.667C17.3359 11.2988 17.6347 11 18.0029 11ZM15.5312 5.8623C15.7916 5.602 16.2133 5.60209 16.4736 5.8623L18.4736 7.8623C18.5055 7.89417 18.5347 7.92904 18.5596 7.9668C18.5761 7.99179 18.5898 8.01839 18.6025 8.04492C18.617 8.07499 18.6297 8.1063 18.6396 8.13867C18.6437 8.15212 18.6472 8.16606 18.6504 8.17969C18.6621 8.22915 18.6689 8.28094 18.6689 8.33398C18.6689 8.38918 18.6611 8.44285 18.6484 8.49414C18.6457 8.50526 18.643 8.51635 18.6396 8.52734C18.6297 8.56001 18.6171 8.59174 18.6025 8.62207C18.5892 8.64979 18.574 8.67709 18.5566 8.70312C18.5507 8.71208 18.5445 8.72085 18.5381 8.72949C18.5187 8.75562 18.4973 8.78099 18.4736 8.80469L16.4736 10.8047C16.2133 11.065 15.7916 11.065 15.5312 10.8047C15.2711 10.5443 15.271 10.1226 15.5312 9.8623L16.3936 9H10.0029C8.1682 9 6.66895 10.4872 6.66895 12.334C6.66872 12.7019 6.37083 12.9998 6.00293 13C5.63488 13 5.33617 12.702 5.33594 12.334C5.33594 9.74753 7.43515 7.66699 10.0029 7.66699H16.3936L15.5312 6.80469C15.2711 6.54434 15.271 6.12261 15.5312 5.8623Z" fill="currentColor"/>
</svg>
