<svg width="24" height="24" viewBox="0 0 24 24" fill="none" xmlns="http://www.w3.org/2000/svg">
    <path d="M8.71973 6.40039C10.7991 5.42202 13.2067 5.42195 15.2861 6.40039L17.9033 7.63184C18.3706 7.85173 18.6689 8.3283 18.6689 8.84473C18.6689 13.1494 16.1829 17.0674 12.2881 18.9004L12.0029 19.0342L11.7178 18.9004C7.82274 17.0674 5.33599 13.1495 5.33594 8.84473C5.336 8.3283 5.63428 7.85173 6.10156 7.63184L8.71973 6.40039ZM6.69824 9.4834C6.90509 12.6528 8.64119 15.5168 11.332 17.1699V11.6641L6.69824 9.4834ZM12.6729 11.6641V17.1699C15.3638 15.5168 17.0998 12.6529 17.3066 9.4834L12.6729 11.6641ZM14.7158 7.61328C12.9977 6.80475 11.0082 6.80483 9.29004 7.61328L7.5791 8.41797L12.0029 10.498L16.4258 8.41797L14.7158 7.61328Z" fill="currentColor"/>
</svg>
