<svg xmlns="http://www.w3.org/2000/svg" width="20" height="20" viewBox="0 0 20 20" fill="none">
  <path d="M17.255 10.5903L13.9225 13.9228C13.76 14.0853 13.5467 14.1669 13.3333 14.1669C13.12 14.1669 12.9066 14.0853 12.7441 13.9228C12.4183 13.597 12.4183 13.0702 12.7441 12.7444L14.6549 10.8336H3.33333C2.8725 10.8336 2.5 10.4603 2.5 10.0003C2.5 9.54028 2.8725 9.16694 3.33333 9.16694H14.6549L12.7441 7.25613C12.4183 6.9303 12.4183 6.40358 12.7441 6.07775C13.07 5.75192 13.5967 5.75192 13.9225 6.07775L17.255 9.41027C17.3325 9.48777 17.3934 9.57938 17.4359 9.68187C17.5201 9.88521 17.5201 10.1153 17.4359 10.3187C17.3934 10.4212 17.3325 10.5128 17.255 10.5903Z" fill="currentColor"/>
</svg>