<svg width="16" height="16" viewBox="0 0 16 16" fill="none" xmlns="http://www.w3.org/2000/svg">
<path d="M12.667 1.41699C13.7253 1.41717 14.5828 2.27472 14.583 3.33301V12.667C14.5828 13.7253 13.7253 14.5828 12.667 14.583H3.33301C2.27472 14.5828 1.41717 13.7253 1.41699 12.667V3.33301C1.41717 2.27472 2.27472 1.41717 3.33301 1.41699H12.667ZM2.58301 12.667C2.58318 13.0809 2.91905 13.4168 3.33301 13.417H7.41699V8.58301H2.58301V12.667ZM8.58301 13.417H12.667C13.0809 13.4168 13.4168 13.0809 13.417 12.667V8.58301H8.58301V13.417ZM3.33301 2.58301C2.91905 2.58318 2.58318 2.91905 2.58301 3.33301V7.41699H7.41699V2.58301H3.33301ZM8.58301 7.41699H13.417V3.33301C13.4168 2.91905 13.0809 2.58318 12.667 2.58301H8.58301V7.41699Z" fill="currentColor"/>
</svg>
