<svg aria-hidden="true" width="16" height="16" viewBox="0 0 16 16" fill="none" xmlns="http://www.w3.org/2000/svg">
<path d="M5.5 2.58301H4.66699C4.25289 2.58301 3.91717 2.91894 3.91699 3.33301V3.41699H12.083V3.33301C12.0828 2.91894 11.7471 2.58301 11.333 2.58301H10.5V1.41699H11.333C12.3914 1.41699 13.2498 2.27461 13.25 3.33301V3.41699H14C15.0584 3.41699 15.9168 4.27461 15.917 5.33301V6H14.75V5.33301C14.7498 4.91894 14.4141 4.58301 14 4.58301H13.25V11.417H14C14.4141 11.417 14.7498 11.0811 14.75 10.667V10H15.917V10.667C15.9168 11.7254 15.0584 12.583 14 12.583H13.25V12.667C13.2498 13.7254 12.3914 14.583 11.333 14.583H10.5V13.417H11.333C11.7471 13.417 12.0828 13.0811 12.083 12.667V12.583H3.91699V12.667C3.91717 13.0811 4.25289 13.417 4.66699 13.417H5.5V14.583H4.66699C3.60855 14.583 2.75018 13.7254 2.75 12.667V12.583H2C0.941563 12.583 0.0831835 11.7254 0.0830078 10.667V10H1.25V10.667C1.25018 11.0811 1.58589 11.417 2 11.417H2.75V4.58301H2C1.5859 4.58301 1.25018 4.91894 1.25 5.33301V6H0.0830078V5.33301C0.0831838 4.27461 0.941563 3.41699 2 3.41699H2.75V3.33301C2.75018 2.27461 3.60855 1.41699 4.66699 1.41699H5.5V2.58301ZM8.83301 14.583H7.16699V13.417H8.83301V14.583ZM3.91699 11.417H12.083V4.58301H3.91699V11.417ZM1.25 8.66699H0.0830078V7.33301H1.25V8.66699ZM15.917 8.66699H14.75V7.33301H15.917V8.66699ZM8.83301 2.58301H7.16699V1.41699H8.83301V2.58301Z" fill="currentColor"/>
</svg>
