<svg width="16" height="16" viewBox="0 0 16 16" fill="none" xmlns="http://www.w3.org/2000/svg">
<path fill-rule="evenodd" clip-rule="evenodd" d="M5.5857 2.25274C5.81343 2.02507 6.18406 2.02519 6.41187 2.25274C6.63922 2.48046 6.6392 2.85022 6.41187 3.07794L4.07398 5.41485H9.66578C10.2236 5.41492 10.7764 5.52564 11.2918 5.73907C11.8072 5.95261 12.2761 6.26548 12.6707 6.65997C13.0652 7.0545 13.378 7.52344 13.5916 8.03888C13.805 8.55426 13.9157 9.10701 13.9158 9.66485C13.9158 10.2229 13.8051 10.7762 13.5916 11.2918C13.378 11.8073 13.0652 12.2761 12.6707 12.6707C12.2761 13.0653 11.8073 13.378 11.2918 13.5916C10.7763 13.8051 10.2237 13.9148 9.66578 13.9149H7.33179C7.00979 13.9147 6.74879 13.6539 6.74879 13.3318C6.74902 13.01 7.00993 12.749 7.33179 12.7488H9.66578C10.0705 12.7488 10.4716 12.6683 10.8455 12.5135C11.2194 12.3585 11.5593 12.1317 11.8455 11.8455C12.1318 11.5592 12.3585 11.2186 12.5134 10.8445C12.6682 10.4706 12.7488 10.0695 12.7488 9.66485C12.7487 9.26024 12.6683 8.85899 12.5134 8.48517C12.3585 8.11138 12.1316 7.77128 11.8455 7.48517C11.5593 7.19908 11.2193 6.9721 10.8455 6.8172C10.4716 6.66241 10.0704 6.58191 9.66578 6.58185H4.07398L6.41187 8.91876C6.6396 9.1465 6.63948 9.51711 6.41187 9.74493C6.18407 9.97274 5.81351 9.97273 5.5857 9.74493L2.25269 6.41095C2.02527 6.18311 2.02502 5.81343 2.25269 5.58575L5.5857 2.25274Z" fill="currentColor"/>
</svg>
