<svg width="16" height="16" viewBox="0 0 16 16" fill="none" xmlns="http://www.w3.org/2000/svg">
    <path fill-rule="evenodd" clip-rule="evenodd" d="M3.89941 2.16121C4.1789 1.92183 4.59928 1.95416 4.83887 2.23347C5.07829 2.51301 5.04605 2.93336 4.7666 3.17293L3.80176 4.00008H9.66504C12.3172 4.00031 14.5597 6.15683 14.6631 8.80769C14.7722 11.6096 12.4666 13.9998 9.66504 14.0001H3.99902C3.63123 13.9998 3.33332 13.7018 3.33301 13.3341C3.33301 12.966 3.63104 12.6673 3.99902 12.6671H9.66504C11.7117 12.6668 13.4106 10.9033 13.3311 8.85945C13.2554 6.92439 11.601 5.3343 9.66504 5.33406H3.60938L4.80469 6.52937C5.0647 6.78973 5.06488 7.21151 4.80469 7.47176C4.54443 7.73185 4.12263 7.73173 3.8623 7.47176L1.52832 5.13875C1.50799 5.11841 1.49001 5.09583 1.47266 5.07332C1.44929 5.04305 1.42811 5.01072 1.41016 4.97664C1.40746 4.97147 1.4049 4.96624 1.40234 4.96101C1.37537 4.90627 1.35585 4.84718 1.34473 4.78523C1.34357 4.77882 1.34179 4.77215 1.34082 4.7657C1.33865 4.75106 1.33616 4.73571 1.33496 4.72078C1.33414 4.71053 1.33434 4.69984 1.33398 4.68953C1.33373 4.68208 1.33301 4.67458 1.33301 4.66707C1.33301 4.66194 1.33387 4.65654 1.33398 4.65144C1.33406 4.6482 1.33386 4.64492 1.33398 4.64168C1.33414 4.63765 1.33473 4.633 1.33496 4.62898C1.3372 4.58899 1.34258 4.5496 1.35156 4.51179C1.35285 4.50649 1.35504 4.50143 1.35645 4.49617C1.36661 4.45777 1.379 4.42019 1.39551 4.38484C1.39818 4.37913 1.40146 4.3729 1.4043 4.36726C1.42143 4.33326 1.44139 4.30094 1.46387 4.27058C1.46792 4.26511 1.47234 4.25934 1.47656 4.25398C1.5079 4.2143 1.54358 4.1782 1.58301 4.14656L3.89941 2.16121Z" fill="currentColor"/>
</svg>
