<svg width="16" height="16" viewBox="0 0 16 16" fill="none" xmlns="http://www.w3.org/2000/svg">
<path d="M12.5459 1.41699C13.671 1.41723 14.5828 2.32896 14.583 3.4541V12.5459C14.5828 13.671 13.671 14.5828 12.5459 14.583H3.4541C2.32896 14.5828 1.41723 13.671 1.41699 12.5459V3.4541C1.41723 2.32896 2.32896 1.41723 3.4541 1.41699H12.5459ZM3.4541 2.58301C2.9733 2.58325 2.58325 2.9733 2.58301 3.4541V12.5459C2.58325 13.0267 2.9733 13.4168 3.4541 13.417H12.5459C13.0267 13.4168 13.4168 13.0267 13.417 12.5459V3.4541C13.4168 2.9733 13.0267 2.58325 12.5459 2.58301H3.4541ZM10.4443 4.08301C11.2572 4.08312 11.9169 4.74275 11.917 5.55566V10.4443C11.9169 11.2572 11.2572 11.9169 10.4443 11.917H5.55566C4.74275 11.9169 4.08312 11.2572 4.08301 10.4443V5.55566C4.08313 4.74275 4.74275 4.08313 5.55566 4.08301H10.4443ZM5.55566 5.25C5.38708 5.25012 5.25012 5.38708 5.25 5.55566V10.4443C5.25012 10.6129 5.38708 10.7499 5.55566 10.75H10.4443C10.6129 10.7499 10.7499 10.6129 10.75 10.4443V5.55566C10.7499 5.38708 10.6129 5.25012 10.4443 5.25H5.55566Z" fill="currentColor"/>
</svg>
