<svg width="16" height="16" viewBox="0 0 16 16" fill="none" xmlns="http://www.w3.org/2000/svg">
    <path d="M4.14511 2.72658C4.38229 2.52327 4.71675 2.47694 5.00058 2.60744C5.28409 2.7381 5.4664 3.02178 5.4664 3.334V4.53322H9.90487C12.4203 4.53332 14.689 6.38094 14.7955 8.82423C14.9081 11.4161 12.5582 13.4667 9.90487 13.4668H4.55526C4.11355 13.4668 3.75467 13.1087 3.75448 12.667C3.75448 12.2252 4.11344 11.8672 4.55526 11.8672H9.90487C11.8304 11.8671 13.263 10.4029 13.1978 8.89455C13.1353 7.45731 11.7229 6.13391 9.90487 6.1338H5.4664V7.66701C5.46626 7.99044 5.27109 8.28248 4.97226 8.40626C4.67346 8.52994 4.32893 8.46101 4.10019 8.23244L1.76718 5.89943C1.60971 5.74196 1.52535 5.52527 1.53378 5.30275C1.5424 5.08037 1.64323 4.87152 1.8121 4.72658L4.14511 2.72658Z" fill="currentColor"/>
</svg>
