<svg xmlns="http://www.w3.org/2000/svg" width="14" height="14" viewBox="0 0 14 14" fill="none">
  <path d="M10.5 2.1875H9.77083V1.75C9.77083 1.5085 9.57483 1.3125 9.33333 1.3125C9.09183 1.3125 8.89583 1.5085 8.89583 1.75V2.1875H5.10417V1.75C5.10417 1.5085 4.90817 1.3125 4.66667 1.3125C4.42517 1.3125 4.22917 1.5085 4.22917 1.75V2.1875H3.5C2.0895 2.1875 1.3125 2.9645 1.3125 4.375V10.5C1.3125 11.9105 2.0895 12.6875 3.5 12.6875H10.5C11.9105 12.6875 12.6875 11.9105 12.6875 10.5V4.375C12.6875 2.9645 11.9105 2.1875 10.5 2.1875ZM3.5 3.0625H4.22917V3.5C4.22917 3.7415 4.42517 3.9375 4.66667 3.9375C4.90817 3.9375 5.10417 3.7415 5.10417 3.5V3.0625H8.89583V3.5C8.89583 3.7415 9.09183 3.9375 9.33333 3.9375C9.57483 3.9375 9.77083 3.7415 9.77083 3.5V3.0625H10.5C11.4199 3.0625 11.8125 3.45508 11.8125 4.375V4.8125H2.1875V4.375C2.1875 3.45508 2.58008 3.0625 3.5 3.0625ZM10.5 11.8125H3.5C2.58008 11.8125 2.1875 11.4199 2.1875 10.5V5.6875H11.8125V10.5C11.8125 11.4199 11.4199 11.8125 10.5 11.8125ZM5.26168 7.58333C5.26168 7.90533 5.00093 8.16667 4.67834 8.16667C4.35634 8.16667 4.09202 7.90533 4.09202 7.58333C4.09202 7.26133 4.35051 7 4.67251 7H4.67834C5.00034 7 5.26168 7.26133 5.26168 7.58333ZM7.59501 7.58333C7.59501 7.90533 7.33426 8.16667 7.01168 8.16667C6.68968 8.16667 6.42535 7.90533 6.42535 7.58333C6.42535 7.26133 6.68384 7 7.00584 7H7.01168C7.33368 7 7.59501 7.26133 7.59501 7.58333ZM9.92834 7.58333C9.92834 7.90533 9.66759 8.16667 9.34501 8.16667C9.02301 8.16667 8.75869 7.90533 8.75869 7.58333C8.75869 7.26133 9.01717 7 9.33917 7H9.34501C9.66701 7 9.92834 7.26133 9.92834 7.58333ZM5.26168 9.91667C5.26168 10.2387 5.00093 10.5 4.67834 10.5C4.35634 10.5 4.09202 10.2387 4.09202 9.91667C4.09202 9.59467 4.35051 9.33333 4.67251 9.33333H4.67834C5.00034 9.33333 5.26168 9.59467 5.26168 9.91667ZM7.59501 9.91667C7.59501 10.2387 7.33426 10.5 7.01168 10.5C6.68968 10.5 6.42535 10.2387 6.42535 9.91667C6.42535 9.59467 6.68384 9.33333 7.00584 9.33333H7.01168C7.33368 9.33333 7.59501 9.59467 7.59501 9.91667ZM9.92834 9.91667C9.92834 10.2387 9.66759 10.5 9.34501 10.5C9.02301 10.5 8.75869 10.2387 8.75869 9.91667C8.75869 9.59467 9.01717 9.33333 9.33917 9.33333H9.34501C9.66701 9.33333 9.92834 9.59467 9.92834 9.91667Z" fill="currentColor"/>
</svg>