<svg width="32" height="32" viewBox="0 0 32 32" fill="none" xmlns="http://www.w3.org/2000/svg">
  <path d="M0 16C0 7.16344 7.16344 0 16 0C24.8366 0 32 7.16344 32 16C32 24.8366 24.8366 32 16 32C7.16344 32 0 24.8366 0 16Z" fill="currentColor" />
  <path d="M14.158 8.8H15.2004V10.4H14.6428L12.2428 12H10.4004C10.1796 12 10.0004 12.1792 10.0004 12.4V21.2C10.0004 21.4208 10.1796 21.6 10.4004 21.6H21.6004C21.8212 21.6 22.0004 21.4208 22.0004 21.2V14.4H23.6004V21.2C23.6004 22.3048 22.7052 23.2 21.6004 23.2H10.4004C9.29559 23.2 8.40039 22.3048 8.40039 21.2V12.4C8.40039 11.2952 9.29559 10.4 10.4004 10.4H11.758L14.158 8.8ZM16.0004 14.8C15.1164 14.8 14.4004 15.516 14.4004 16.4C14.4004 17.284 15.1164 18 16.0004 18C16.8844 18 17.6004 17.284 17.6004 16.4C17.6004 15.516 16.8844 14.8 16.0004 14.8ZM12.8004 16.4C12.8004 14.6328 14.2332 13.2 16.0004 13.2C17.7676 13.2 19.2004 14.6328 19.2004 16.4C19.2004 18.1672 17.7676 19.6 16.0004 19.6C14.2332 19.6 12.8004 18.1672 12.8004 16.4ZM20.0004 8C20.0004 9.3256 18.926 10.4 17.6004 10.4V11.2C18.926 11.2 20.0004 12.2744 20.0004 13.6H20.8004C20.8004 12.2744 21.8748 11.2 23.2004 11.2V10.4C21.8748 10.4 20.8004 9.3256 20.8004 8H20.0004Z" fill="#0AA5BE" />
</svg>
