<svg width="24" height="24" viewBox="0 0 24 24" fill="none" xmlns="http://www.w3.org/2000/svg">
  <path fill-rule="evenodd" clip-rule="evenodd" d="M12 2.5C6.75315 2.5 2.5 6.75315 2.5 12C2.5 17.2469 6.75315 21.5 12 21.5C17.2469 21.5 21.5 17.2469 21.5 12C21.5 6.75315 17.2469 2.5 12 2.5ZM15.3535 15.3535C15.2148 15.4922 15.0324 15.5625 14.85 15.5625C14.6676 15.5625 14.4852 15.4932 14.3465 15.3535L11.4965 12.5035C11.3625 12.3696 11.2875 12.1881 11.2875 12V7.25C11.2875 6.8567 11.6067 6.5375 12 6.5375C12.3933 6.5375 12.7125 6.8567 12.7125 7.25V11.7045L15.3535 14.3455C15.6319 14.6248 15.6319 15.0752 15.3535 15.3535Z" fill="currentColor"/>
</svg>
