<svg width="20" height="20" viewBox="0 0 20 20" fill="none" xmlns="http://www.w3.org/2000/svg">
  <path d="M9.99984 1.0415C5.05984 1.0415 1.0415 5.06067 1.0415 9.99984C1.0415 14.939 5.05984 18.9582 9.99984 18.9582C14.9398 18.9582 18.9582 14.939 18.9582 9.99984C18.9582 5.06067 14.9398 1.0415 9.99984 1.0415ZM9.99984 17.7082C5.749 17.7082 2.2915 14.2507 2.2915 9.99984C2.2915 5.749 5.749 2.2915 9.99984 2.2915C14.2507 2.2915 17.7082 5.749 17.7082 9.99984C17.7082 14.2507 14.2507 17.7082 9.99984 17.7082ZM12.9415 7.94153L10.8832 9.99984L12.9415 12.0581C13.1857 12.3023 13.1857 12.6982 12.9415 12.9423C12.8198 13.064 12.6598 13.1257 12.4998 13.1257C12.3398 13.1257 12.1798 13.0648 12.0582 12.9423L9.99984 10.884L7.9415 12.9423C7.81984 13.064 7.65984 13.1257 7.49984 13.1257C7.33984 13.1257 7.17984 13.0648 7.05817 12.9423C6.814 12.6982 6.814 12.3023 7.05817 12.0581L9.11651 9.99984L7.05817 7.94153C6.814 7.69736 6.814 7.3015 7.05817 7.05733C7.30234 6.81317 7.69818 6.81317 7.94234 7.05733L10.0007 9.11569L12.059 7.05733C12.3032 6.81317 12.699 6.81317 12.9432 7.05733C13.1857 7.3015 13.1857 7.69819 12.9415 7.94153Z" fill="currentColor"/>
</svg>
