<svg width="20" height="20" viewBox="0 0 20 20" fill="none" xmlns="http://www.w3.org/2000/svg">
  <path d="M11.1784 10L15.5892 5.58916C15.915 5.26416 15.915 4.73588 15.5892 4.41088C15.2634 4.08505 14.7367 4.08505 14.4109 4.41088L10 8.82169L5.58921 4.41088C5.26338 4.08505 4.73671 4.08505 4.41088 4.41088C4.08505 4.73588 4.08505 5.26416 4.41088 5.58916L8.82171 10L4.41088 14.4109C4.08505 14.7359 4.08505 15.2642 4.41088 15.5892C4.57338 15.7517 4.78671 15.8334 5.00005 15.8334C5.21338 15.8334 5.42671 15.7517 5.58921 15.5892L10 11.1784L14.4109 15.5892C14.5734 15.7517 14.7867 15.8334 15 15.8334C15.2134 15.8334 15.4267 15.7517 15.5892 15.5892C15.915 15.2642 15.915 14.7359 15.5892 14.4109L11.1784 10Z" fill="currentColor"/>
</svg>
