<svg width="14" height="14" viewBox="0 0 14 14" fill="none" xmlns="http://www.w3.org/2000/svg">
  <path
    d="M8.38826 3.20833C9.89326 3.20833 10.7917 4.10666 10.7917 5.61166V9.72708C10.7917 9.82916 10.8821 9.91491 10.9836 9.90499C11.8248 9.82099 12.25 9.31234 12.25 8.38834V3.27833C12.25 2.26333 11.7366 1.75 10.7216 1.75H5.61173C4.68773 1.75 4.17901 2.17526 4.09501 3.01643C4.08451 3.11793 4.17023 3.20833 4.27232 3.20833H8.38826ZM3.28125 4.08333H4.08333H8.38542C9.40625 4.08333 9.91667 4.59375 9.91667 5.61458V9.91667V10.7188C9.91667 11.7396 9.40625 12.25 8.38542 12.25H3.28125C2.26042 12.25 1.75 11.7396 1.75 10.7188V5.61458C1.75 4.59375 2.26042 4.08333 3.28125 4.08333Z"
    fill="currentColor"
  />
</svg>
