<svg xmlns="http://www.w3.org/2000/svg" width="15" height="16" viewBox="0 0 15 16" fill="none">
  <path d="M10 14.0939H3.75C2.23875 14.0939 1.40625 13.2614 1.40625 11.7502V5.5002C1.40625 3.98895 2.23875 3.15645 3.75 3.15645H5.625C5.88375 3.15645 6.09375 3.36645 6.09375 3.6252C6.09375 3.88395 5.88375 4.09395 5.625 4.09395H3.75C2.76437 4.09395 2.34375 4.51457 2.34375 5.5002V11.7502C2.34375 12.7358 2.76437 13.1564 3.75 13.1564H10C10.9856 13.1564 11.4062 12.7358 11.4062 11.7502V9.8752C11.4062 9.61645 11.6163 9.40645 11.875 9.40645C12.1337 9.40645 12.3438 9.61645 12.3438 9.8752V11.7502C12.3438 13.2614 11.5112 14.0939 10 14.0939ZM12.8625 3.64395L11.8562 2.63771C11.5 2.28771 10.9312 2.28769 10.575 2.64394L9.73125 3.49395L12.0063 5.76894L12.8563 4.92519C13.2125 4.56894 13.2125 4.0002 12.8625 3.64395ZM9.06876 4.15645L5 8.24396V10.5002H7.25624L11.3438 6.43144L9.06876 4.15645Z" fill="currentColor"/>
</svg>