<svg width="16" height="16" viewBox="0 0 16 16" fill="none" xmlns="http://www.w3.org/2000/svg">
<path d="M8.35254 1.15137C11.9755 1.33517 14.8564 4.33135 14.8564 8L14.8477 8.35254C14.6639 11.9754 11.6684 14.8562 8 14.8564L7.64648 14.8477C4.14045 14.6698 1.32923 11.8586 1.15137 8.35254L1.14258 8C1.14258 4.2129 4.2129 1.14258 8 1.14258L8.35254 1.15137ZM8 2.30957C4.85724 2.30957 2.30859 4.85724 2.30859 8C2.30881 11.1426 4.85737 13.6904 8 13.6904C11.1424 13.6902 13.6892 11.1424 13.6895 8C13.6895 4.85738 11.1426 2.30981 8 2.30957ZM10.1709 7.41895C10.4929 7.41908 10.7539 7.67991 10.7539 8.00195C10.7538 8.32398 10.4929 8.58483 10.1709 8.58496H5.82812C5.50611 8.58483 5.24421 8.32398 5.24414 8.00195C5.24418 7.67991 5.5061 7.41908 5.82812 7.41895H10.1709Z" fill="currentColor"/>
</svg>
