<svg width="14" height="14" viewBox="0 0 14 14" fill="none" xmlns="http://www.w3.org/2000/svg">
<path d="M1.75 8.9248C2.1366 8.9248 2.4502 9.2384 2.4502 9.625V11.5498H4.375C4.7616 11.5498 5.0752 11.8634 5.0752 12.25C5.0752 12.6366 4.7616 12.9502 4.375 12.9502H1.75C1.3634 12.9502 1.0498 12.6366 1.0498 12.25V9.625C1.0498 9.2384 1.3634 8.9248 1.75 8.9248ZM12.25 8.9248C12.6366 8.9248 12.9502 9.2384 12.9502 9.625V12.25C12.9502 12.6366 12.6366 12.9502 12.25 12.9502H9.625C9.2384 12.9502 8.9248 12.6366 8.9248 12.25C8.9248 11.8634 9.2384 11.5498 9.625 11.5498H11.5498V9.625C11.5498 9.2384 11.8634 8.9248 12.25 8.9248ZM4.375 1.0498C4.7616 1.0498 5.0752 1.3634 5.0752 1.75C5.0752 2.1366 4.7616 2.4502 4.375 2.4502H2.4502V4.375C2.4502 4.7616 2.1366 5.0752 1.75 5.0752C1.3634 5.0752 1.0498 4.7616 1.0498 4.375V1.75C1.0498 1.3634 1.3634 1.0498 1.75 1.0498H4.375ZM12.25 1.0498C12.6366 1.0498 12.9502 1.3634 12.9502 1.75V4.375C12.9502 4.7616 12.6366 5.0752 12.25 5.0752C11.8634 5.0752 11.5498 4.7616 11.5498 4.375V2.4502H9.625C9.2384 2.4502 8.9248 2.1366 8.9248 1.75C8.9248 1.3634 9.2384 1.0498 9.625 1.0498H12.25Z" fill="currentColor"/>
</svg>
