<svg width="16" height="16" viewBox="0 0 16 16" fill="none" xmlns="http://www.w3.org/2000/svg">
<path d="M2 10.084C2.32217 10.084 2.58301 10.3458 2.58301 10.668V12.668C2.58309 12.8668 2.66216 13.0577 2.80273 13.1982C2.94331 13.3388 3.13421 13.4179 3.33301 13.418H5.33301C5.65517 13.418 5.91699 13.6788 5.91699 14.001C5.91699 14.3231 5.65517 14.584 5.33301 14.584H3.33301C2.82479 14.5839 2.33691 14.3828 1.97754 14.0234C1.61817 13.6641 1.41708 13.1762 1.41699 12.668V10.668C1.41699 10.3458 1.67783 10.084 2 10.084ZM14 10.084C14.3222 10.084 14.583 10.3458 14.583 10.668V12.668C14.5829 13.1762 14.3818 13.6641 14.0225 14.0234C13.6631 14.3828 13.1752 14.5839 12.667 14.584H10.667C10.3448 14.584 10.083 14.3231 10.083 14.001C10.083 13.6788 10.3448 13.418 10.667 13.418H12.667C12.8658 13.4179 13.0567 13.3388 13.1973 13.1982C13.3378 13.0577 13.4169 12.8668 13.417 12.668V10.668C13.417 10.3458 13.6778 10.084 14 10.084ZM5.33301 1.41797C5.65517 1.41797 5.91699 1.67881 5.91699 2.00098C5.91699 2.32314 5.65517 2.58398 5.33301 2.58398H3.33301C3.13421 2.58407 2.94331 2.66314 2.80273 2.80371C2.66216 2.94429 2.58309 3.13519 2.58301 3.33398V5.33398C2.58301 5.65615 2.32217 5.91797 2 5.91797C1.67783 5.91797 1.41699 5.65615 1.41699 5.33398V3.33398C1.41708 2.82577 1.61817 2.33788 1.97754 1.97852C2.33691 1.61915 2.82479 1.41805 3.33301 1.41797H5.33301ZM12.667 1.41797C13.1752 1.41805 13.6631 1.61915 14.0225 1.97852C14.3818 2.33788 14.5829 2.82577 14.583 3.33398V5.33398C14.583 5.65615 14.3222 5.91797 14 5.91797C13.6778 5.91797 13.417 5.65615 13.417 5.33398V3.33398C13.4169 3.13519 13.3378 2.94429 13.1973 2.80371C13.0567 2.66314 12.8658 2.58407 12.667 2.58398H10.667C10.3448 2.58398 10.083 2.32314 10.083 2.00098C10.083 1.67881 10.3448 1.41797 10.667 1.41797H12.667Z" fill="currentColor"/>
</svg>
