<svg xmlns="http://www.w3.org/2000/svg" width="16" height="16" viewBox="0 0 16 16" fill="none">
  <path d="M14.4046 11.4348L9.99996 3.19737C9.14662 1.60137 6.85396 1.60137 5.99996 3.19737L1.59533 11.4348C0.812667 12.8988 1.87536 14.6668 3.53869 14.6668H12.4612C14.1239 14.6668 15.1872 12.8982 14.4046 11.4348ZM7.49996 6.66677C7.49996 6.39077 7.72396 6.16677 7.99996 6.16677C8.27596 6.16677 8.49996 6.39077 8.49996 6.66677V9.33343C8.49996 9.60943 8.27596 9.83343 7.99996 9.83343C7.72396 9.83343 7.49996 9.60943 7.49996 9.33343V6.66677ZM8.0133 12.0001C7.6453 12.0001 7.34322 11.7014 7.34322 11.3334C7.34322 10.9654 7.63863 10.6668 8.00663 10.6668H8.0133C8.38197 10.6668 8.67997 10.9654 8.67997 11.3334C8.67997 11.7014 8.3813 12.0001 8.0133 12.0001Z" fill="currentColor"/>
</svg>