<svg width="14" height="14" viewBox="0 0 14 14" fill="none" xmlns="http://www.w3.org/2000/svg">
  <path d="M9.33332 11.6667C9.18398 11.6667 9.03463 11.6096 8.92088 11.4958C8.6928 11.2677 8.6928 10.899 8.92088 10.6709L10.8418 8.75004H3.49998C3.1774 8.75004 2.91665 8.48871 2.91665 8.16671C2.91665 7.84471 3.1774 7.58338 3.49998 7.58338H12.25C12.4857 7.58338 12.6992 7.72568 12.789 7.94326C12.8794 8.16143 12.8293 8.41231 12.6624 8.57914L9.74575 11.4958C9.632 11.6096 9.48265 11.6667 9.33332 11.6667ZM11.0833 5.25004C11.0833 4.92804 10.8226 4.66671 10.5 4.66671H3.15819L5.07909 2.74581C5.30717 2.51773 5.30717 2.14902 5.07909 1.92094C4.851 1.69286 4.4823 1.69286 4.25422 1.92094L1.33755 4.83761C1.17072 5.00444 1.12052 5.25532 1.21094 5.47349C1.30077 5.69166 1.51432 5.83338 1.74998 5.83338H10.5C10.8226 5.83338 11.0833 5.57204 11.0833 5.25004Z" fill="currentColor"/>
</svg>
