<svg width="14" height="14" viewBox="0 0 14 14" fill="none" xmlns="http://www.w3.org/2000/svg">
<path d="M4.375 8.9248C4.7616 8.9248 5.0752 9.2384 5.0752 9.625V12.25C5.0752 12.6366 4.7616 12.9502 4.375 12.9502C3.9884 12.9502 3.6748 12.6366 3.6748 12.25V10.3252H1.75C1.3634 10.3252 1.0498 10.0116 1.0498 9.625C1.0498 9.2384 1.3634 8.9248 1.75 8.9248H4.375ZM12.2207 8.9248C12.6073 8.92481 12.9209 9.23841 12.9209 9.625C12.9209 10.0116 12.6073 10.3252 12.2207 10.3252H10.3252V12.25C10.3252 12.6366 10.0116 12.9502 9.625 12.9502C9.2384 12.9502 8.9248 12.6366 8.9248 12.25V9.625C8.9248 9.2384 9.2384 8.9248 9.625 8.9248H12.2207ZM4.375 1.0498C4.7616 1.0498 5.0752 1.3634 5.0752 1.75V4.375C5.0752 4.7616 4.7616 5.0752 4.375 5.0752H1.75C1.3634 5.0752 1.0498 4.7616 1.0498 4.375C1.0498 3.9884 1.3634 3.6748 1.75 3.6748H3.6748V1.75C3.6748 1.3634 3.9884 1.0498 4.375 1.0498ZM9.625 1.0498C10.0116 1.0498 10.3252 1.3634 10.3252 1.75V3.6748H12.25C12.6366 3.6748 12.9502 3.9884 12.9502 4.375C12.9502 4.7616 12.6366 5.0752 12.25 5.0752H9.625C9.2384 5.0752 8.9248 4.7616 8.9248 4.375V1.75C8.9248 1.3634 9.2384 1.0498 9.625 1.0498Z" fill="currentColor"/>
</svg>
