<svg width="16" height="16" viewBox="0 0 16 16" fill="none" xmlns="http://www.w3.org/2000/svg">
<path d="M4 10.084C4.50833 10.084 4.99602 10.2861 5.35547 10.6455C5.71491 11.005 5.91699 11.4926 5.91699 12.001V14.001C5.91699 14.3231 5.65517 14.584 5.33301 14.584C5.01099 14.5838 4.75 14.323 4.75 14.001V12.001C4.75 11.8021 4.67093 11.6114 4.53027 11.4707C4.38962 11.3301 4.19891 11.251 4 11.251H2C1.67794 11.251 1.41717 10.99 1.41699 10.668C1.41699 10.3458 1.67783 10.084 2 10.084H4ZM14 10.084C14.3222 10.084 14.583 10.3458 14.583 10.668C14.5828 10.99 14.3221 11.251 14 11.251H12C11.8011 11.251 11.6104 11.3301 11.4697 11.4707C11.3291 11.6114 11.25 11.8021 11.25 12.001V14.001C11.25 14.323 10.989 14.5838 10.667 14.584C10.3448 14.584 10.083 14.3231 10.083 14.001V12.001C10.083 11.4926 10.2851 11.005 10.6445 10.6455C11.004 10.2861 11.4917 10.084 12 10.084H14ZM5.33301 1.41797C5.65517 1.41797 5.91699 1.67881 5.91699 2.00098V4.00098C5.91699 4.50931 5.71491 4.997 5.35547 5.35645C4.99602 5.71589 4.50833 5.91797 4 5.91797H2C1.67783 5.91797 1.41699 5.65615 1.41699 5.33398C1.41717 5.01197 1.67794 4.75098 2 4.75098H4C4.19891 4.75098 4.38962 4.6719 4.53027 4.53125C4.67093 4.3906 4.75 4.19989 4.75 4.00098V2.00098C4.75 1.67892 5.01099 1.41814 5.33301 1.41797ZM10.667 1.41797C10.989 1.41814 11.25 1.67892 11.25 2.00098V4.00098C11.25 4.19989 11.3291 4.3906 11.4697 4.53125C11.6104 4.6719 11.8011 4.75098 12 4.75098H14C14.3221 4.75098 14.5828 5.01197 14.583 5.33398C14.583 5.65615 14.3222 5.91797 14 5.91797H12C11.4917 5.91797 11.004 5.71589 10.6445 5.35645C10.2851 4.997 10.083 4.50931 10.083 4.00098V2.00098C10.083 1.67881 10.3448 1.41797 10.667 1.41797Z" fill="currentColor"/>
</svg>
