<svg width="16" height="16" viewBox="0 0 16 16" fill="none" xmlns="http://www.w3.org/2000/svg">
<path fill-rule="evenodd" clip-rule="evenodd" d="M1.4564 1.45775C1.68417 1.23026 2.05386 1.23019 2.28159 1.45775L14.5414 13.7175C14.7691 13.9452 14.7689 14.3149 14.5414 14.5427C14.3135 14.7704 13.9439 14.7705 13.7162 14.5427L11.2621 12.0886C10.4815 12.4874 9.63327 12.7415 8.75913 12.8347C7.7363 12.9437 6.70155 12.8306 5.72593 12.5046C4.75045 12.1787 3.85569 11.6469 3.10386 10.9451C2.35205 10.2431 1.75965 9.38718 1.36753 8.43627C1.36494 8.42998 1.36209 8.42311 1.35972 8.41674C1.2603 8.14849 1.26031 7.85295 1.35972 7.5847L1.36753 7.56517C1.86457 6.35983 2.67947 5.31739 3.71812 4.54467L1.4564 2.28295C1.22881 2.05518 1.22881 1.68552 1.4564 1.45775ZM4.55308 5.37963C3.62233 6.03164 2.89243 6.93642 2.45347 7.99095C2.45162 7.99658 2.45185 8.00287 2.45347 8.00853C2.78187 8.7978 3.2748 9.50903 3.89976 10.0925C4.52939 10.6803 5.27908 11.1252 6.09605 11.3982C6.91281 11.671 7.77882 11.7657 8.63511 11.6745C9.23985 11.6101 9.82967 11.4522 10.3851 11.2117L9.24839 10.0749C8.86788 10.3041 8.42803 10.4265 7.97691 10.4226C7.3421 10.4169 6.73442 10.1625 6.2855 9.71361C5.83661 9.26464 5.58218 8.65705 5.57652 8.0222C5.5726 7.57103 5.69492 7.13126 5.92417 6.75072L4.55308 5.37963ZM7.15269 3.1765C8.70675 2.99131 10.2793 3.32015 11.6293 4.11205C12.8949 4.85471 13.9009 5.96714 14.513 7.29564L14.6302 7.5642L14.6371 7.58373C14.7367 7.85227 14.7367 8.14821 14.6371 8.41674C14.6347 8.42305 14.6318 8.43006 14.6293 8.43627C14.3841 9.03043 14.0603 9.58956 13.6664 10.0974C13.4688 10.3516 13.1024 10.3973 12.848 10.1999C12.5938 10.0024 12.5473 9.636 12.7445 9.38158C13.0705 8.96136 13.3389 8.49947 13.5433 8.00853C13.545 8.00277 13.5452 7.99666 13.5433 7.99095C13.0427 6.78734 12.164 5.77884 11.0394 5.11888C9.90912 4.45568 8.59265 4.18065 7.29136 4.33568C6.9716 4.3737 6.68116 4.14466 6.64292 3.82494C6.60511 3.5054 6.83322 3.21485 7.15269 3.1765ZM6.80015 7.6267C6.76173 7.7501 6.74141 7.87991 6.74253 8.01146C6.74542 8.34058 6.87801 8.65565 7.1107 8.88842C7.34343 9.12114 7.65854 9.25364 7.98765 9.25658C8.11898 9.25771 8.24822 9.23627 8.37144 9.19799L6.80015 7.6267Z" fill="currentColor"/>
</svg>
