<svg width="16" height="16" viewBox="0 0 16 16" fill="none" xmlns="http://www.w3.org/2000/svg">
  <path d="M13.7266 7.01329C14.0932 7.61995 14.0932 8.37993 13.7266 8.98659C12.9066 10.3533 11.0732 12.6666 7.99985 12.6666C7.50119 12.6666 7.03188 12.6033 6.59588 12.4933C6.44722 12.4559 6.40046 12.2653 6.50913 12.1573L7.77313 10.8933C7.85046 10.816 7.94652 10.8333 7.99985 10.8333C9.56252 10.8333 10.8332 9.56194 10.8332 7.99994C10.8332 7.94661 10.8252 7.84124 10.8806 7.78591L12.7085 5.95795C12.7932 5.87328 12.9358 5.88201 13.0098 5.97601C13.3031 6.34668 13.5419 6.70195 13.7266 7.01329ZM14.3532 2.35329L2.35321 14.3533C2.25587 14.4506 2.12785 14.4999 1.99985 14.4999C1.87185 14.4999 1.74383 14.4513 1.6465 14.3533C1.45117 14.158 1.45117 13.8413 1.6465 13.6459L4.11655 11.1759C3.26989 10.4552 2.65579 9.62394 2.27313 8.98594C1.90646 8.37928 1.90646 7.6193 2.27313 7.01264C3.09313 5.64597 4.92652 3.33262 7.99985 3.33262C9.21585 3.33262 10.2312 3.69722 11.0752 4.21722L13.6465 1.64594C13.8418 1.4506 14.1585 1.4506 14.3539 1.64594C14.5492 1.84127 14.5485 2.15796 14.3532 2.35329ZM5.67987 9.61257L6.40578 8.88666C6.25778 8.62333 6.16652 8.32394 6.16652 7.99994C6.16652 7.76661 6.21315 7.54661 6.29315 7.33995C6.41981 7.44661 6.57978 7.51329 6.75978 7.51329C7.17311 7.51329 7.5132 7.1732 7.5132 6.75987C7.5132 6.57987 7.44653 6.4199 7.33986 6.29323C7.54653 6.21323 7.76652 6.16661 7.99985 6.16661C8.32385 6.16661 8.62391 6.25786 8.88657 6.40586L9.61248 5.67995C9.15382 5.35862 8.59919 5.16661 7.99985 5.16661C6.43985 5.16661 5.16652 6.43994 5.16652 7.99994C5.16652 8.59994 5.35853 9.1539 5.67987 9.61257Z" fill="currentColor"/>
</svg>
