<svg xmlns="http://www.w3.org/2000/svg" width="14" height="14" viewBox="0 0 14 14" fill="none">
  <path d="M8.86378 6.99442C8.86378 8.02261 8.02809 8.8583 6.9999 8.8583C5.97172 8.8583 5.13602 8.02261 5.13602 6.99442C5.13602 6.75788 5.18477 6.53351 5.26542 6.32476C5.39691 6.42913 5.55555 6.50098 5.73652 6.50098C6.16149 6.50098 6.50646 6.15601 6.50646 5.73104C6.50646 5.55008 6.43461 5.39143 6.33024 5.25994C6.53899 5.17929 6.76336 5.13054 6.9999 5.13054C8.02809 5.13054 8.86378 5.96624 8.86378 6.99442ZM12.8234 7.99553C11.9917 9.38768 10.1238 11.7388 6.9999 11.7388C3.87604 11.7388 2.00806 9.38768 1.17643 7.99553C0.807725 7.37876 0.807725 6.61009 1.17643 5.99331C2.00806 4.60117 3.87604 2.25 6.9999 2.25C10.1238 2.25 11.9917 4.60117 12.8234 5.99331C13.1921 6.61009 13.1921 7.37876 12.8234 7.99553ZM9.88044 6.99442C9.88044 5.4064 8.58861 4.11388 6.9999 4.11388C5.4112 4.11388 4.11936 5.4064 4.11936 6.99442C4.11936 8.58245 5.4112 9.87496 6.9999 9.87496C8.58861 9.87496 9.88044 8.58245 9.88044 6.99442Z" fill="currentColor"/>
</svg>
