<svg width="16" height="16" viewBox="0 0 16 16" fill="none" xmlns="http://www.w3.org/2000/svg">
  <path d="M9.83336 7.99999C9.83336 9.01133 9.01136 9.83333 8.00003 9.83333C6.98869 9.83333 6.16669 9.01133 6.16669 7.99999C6.16669 7.76733 6.21464 7.54664 6.29397 7.3413C6.42331 7.44397 6.57935 7.51464 6.75735 7.51464C7.17535 7.51464 7.51468 7.17532 7.51468 6.75732C7.51468 6.57932 7.444 6.42327 7.34134 6.29394C7.54667 6.21461 7.76736 6.16666 8.00003 6.16666C9.01136 6.16666 9.83336 6.98866 9.83336 7.99999ZM13.7281 8.98469C12.9101 10.354 11.0727 12.6667 8.00003 12.6667C4.92736 12.6667 3.09 10.354 2.272 8.98469C1.90933 8.37803 1.90933 7.62196 2.272 7.01529C3.09 5.64596 4.92736 3.33333 8.00003 3.33333C11.0727 3.33333 12.9101 5.64596 13.7281 7.01529C14.0907 7.62196 14.0907 8.37803 13.7281 8.98469ZM10.8334 7.99999C10.8334 6.43799 9.56269 5.16666 8.00003 5.16666C6.43736 5.16666 5.16669 6.43799 5.16669 7.99999C5.16669 9.56199 6.43736 10.8333 8.00003 10.8333C9.56269 10.8333 10.8334 9.56199 10.8334 7.99999Z" fill="currentColor"/>
</svg>
