<svg width="20" height="20" viewBox="0 0 20 20" fill="none" xmlns="http://www.w3.org/2000/svg">
<path d="M5.84275 15.2175L12.2658 8.79445L11.2053 7.73395L4.78225 14.1569L5.84275 15.2175ZM10.144 6.67345L9.0835 5.61295L10.144 4.55245L11.47 5.8777L13.5918 3.7567C13.7324 3.6161 13.9231 3.53711 14.122 3.53711C14.3209 3.53711 14.5116 3.6161 14.6523 3.7567L16.243 5.34745C16.3836 5.48809 16.4626 5.67883 16.4626 5.8777C16.4626 6.07657 16.3836 6.2673 16.243 6.40795L14.122 8.5297L15.4473 9.8557L14.3868 10.9162L13.3263 9.8557L6.43225 16.7497H3.25V13.5674L10.144 6.67345Z" fill="#57606A"/>
</svg>
