<svg width="20" height="20" viewBox="0 0 20 20" fill="none" xmlns="http://www.w3.org/2000/svg">
<path d="M6.6084 1.77051C7.00493 1.77063 7.39605 1.8695 7.74512 2.05762C8.09163 2.24443 8.38686 2.51387 8.60449 2.8418L9.2793 3.8418L9.28418 3.84961C9.37032 3.98023 9.4879 4.08753 9.62598 4.16113C9.76424 4.23474 9.91955 4.27199 10.0762 4.27051H16.667C17.3023 4.27059 17.9121 4.52343 18.3613 4.97266C18.8104 5.42193 19.0625 6.03173 19.0625 6.66699V15C19.0625 15.6353 18.8105 16.245 18.3613 16.6943C17.9121 17.1436 17.3023 17.3954 16.667 17.3955H3.33301C2.69771 17.3954 2.0879 17.1436 1.63867 16.6943C1.18947 16.245 0.9375 15.6353 0.9375 15V4.16699C0.9375 3.53173 1.18957 2.92193 1.63867 2.47266C2.0879 2.02343 2.69771 1.77059 3.33301 1.77051H6.6084ZM2.39551 15C2.39551 15.2486 2.49421 15.4873 2.66992 15.6631C2.84566 15.8388 3.08448 15.9374 3.33301 15.9375H16.667C16.9155 15.9374 17.1543 15.8388 17.3301 15.6631C17.5058 15.4873 17.6045 15.2486 17.6045 15V9.0625H2.39551V15ZM3.33301 3.22949C3.08456 3.22958 2.84565 3.32729 2.66992 3.50293C2.49411 3.67875 2.39551 3.91835 2.39551 4.16699V7.60449H17.6045V6.66699C17.6045 6.41835 17.5059 6.17875 17.3301 6.00293C17.1544 5.82729 16.9154 5.72958 16.667 5.72949H10.083C9.68507 5.73215 9.29276 5.63524 8.94141 5.44824C8.59002 5.26111 8.29029 4.98894 8.07031 4.65723L7.39551 3.6582L7.39062 3.65039C7.30537 3.52117 7.18899 3.4153 7.05273 3.3418C6.91626 3.2683 6.7634 3.22957 6.6084 3.22949H3.33301Z" fill="#24292F"/>
</svg>
