<svg xmlns="http://www.w3.org/2000/svg" width="24" height="24" viewBox="0 0 24 24" fill="none">
  <path d="M20.5996 16C20.8205 16 21 16.1795 21 16.4004V18C21 19.1046 20.1046 20 19 20H5C3.89543 20 3 19.1046 3 18V16.4004C3 16.1795 3.17948 16 3.40039 16H20.5996ZM9.58594 4C9.8511 4.00004 10.1055 4.10547 10.293 4.29297L12.707 6.70703C12.8945 6.89453 13.1489 6.99996 13.4141 7H19C20.1046 7 21 7.89543 21 9V14.5996C21 14.8205 20.8205 15 20.5996 15H3.40039C3.17948 15 3 14.8205 3 14.5996V6C3 4.89543 3.89543 4 5 4H9.58594Z" fill="currentColor"/>
</svg>