<svg width="14" height="14" viewBox="0 0 14 14" fill="none" xmlns="http://www.w3.org/2000/svg">
  <path d="M8.61232 7.50673L6.59288 9.21016C6.25338 9.49658 5.73596 9.25335 5.73596 8.80827V5.19262C5.73596 4.74696 6.25279 4.50431 6.59288 4.79073L8.61232 6.49416C8.92558 6.75841 8.92558 7.24248 8.61232 7.50673Z" fill="currentColor"/>
  <path d="M4.99988 2.34961H2.54998C2.43952 2.34961 2.34998 2.43915 2.34998 2.54961V4.99951" stroke="currentColor" stroke-width="1.4"/>
  <path d="M9.00012 2.34961H11.45C11.5605 2.34961 11.65 2.43915 11.65 2.54961V4.99951" stroke="currentColor" stroke-width="1.4"/>
  <path d="M4.99988 11.6504H2.54998C2.43952 11.6504 2.34998 11.5608 2.34998 11.4504V9.00049" stroke="currentColor" stroke-width="1.4"/>
  <path d="M9.00012 11.6504H11.45C11.5605 11.6504 11.65 11.5608 11.65 11.4504V9.00049" stroke="currentColor" stroke-width="1.4"/>
</svg>
