<svg xmlns="http://www.w3.org/2000/svg" width="14" height="14" viewBox="0 0 14 14" fill="none">
  <path d="M6.9999 12.6876C6.93807 12.6876 6.87621 12.6748 6.81846 12.6485C6.62771 12.5616 2.1384 10.4797 1.41857 6.77203C1.14032 5.33762 1.41974 3.93819 2.16582 3.02936C2.76957 2.29319 3.63755 1.90176 4.67647 1.89651C4.68172 1.89651 4.68697 1.89651 4.69163 1.89651C5.87697 1.89651 6.59975 2.57145 6.99933 3.14603C7.40066 2.56911 8.12921 1.89126 9.32213 1.89651C10.3616 1.90176 11.2302 2.29319 11.8345 3.02936C12.5795 3.93761 12.8583 5.33702 12.5795 6.7726C11.8608 10.4803 7.37088 12.5628 7.18013 12.6491C7.12354 12.6748 7.06173 12.6876 6.9999 12.6876ZM4.69106 2.77095C4.68756 2.77095 4.68466 2.77095 4.68116 2.77095C3.90066 2.77445 3.28234 3.04802 2.84251 3.5841C2.25976 4.29402 2.04917 5.42336 2.27783 6.60519C2.83492 9.47753 6.17915 11.3442 6.9999 11.763C7.82065 11.3442 11.1649 9.47753 11.7214 6.60519C11.9512 5.42278 11.7407 4.29343 11.1591 3.5841C10.7192 3.0486 10.1009 2.7756 9.31864 2.77151C9.31514 2.77151 9.31166 2.77151 9.30874 2.77151C7.92507 2.77151 7.43452 4.15811 7.41469 4.21703C7.35402 4.39378 7.18714 4.51393 7.00047 4.51393H6.99812C6.81087 4.51335 6.64405 4.39377 6.58455 4.21586C6.5653 4.15752 6.07415 2.77095 4.69106 2.77095Z" fill="currentColor"/>
  <path d="M12.1507 6.68833C11.4664 10.2175 6.99987 12.2504 6.99987 12.2504C6.99987 12.2504 2.53325 10.2175 1.84842 6.68833C1.42842 4.523 2.34603 2.34482 4.67878 2.33373C6.41653 2.32557 6.99987 4.07672 6.99987 4.07672C6.99987 4.07672 7.58322 2.32498 9.32039 2.33373C11.6584 2.34482 12.5707 4.52358 12.1507 6.68833Z" fill="currentColor"/>
  <path d="M6.9999 12.6876C6.93807 12.6876 6.87621 12.6748 6.81846 12.6485C6.62771 12.5616 2.1384 10.4797 1.41857 6.77203C1.14032 5.33762 1.41974 3.93819 2.16582 3.02936C2.76957 2.29319 3.63755 1.90176 4.67647 1.89651C4.68172 1.89651 4.68697 1.89651 4.69163 1.89651C5.87697 1.89651 6.59975 2.57145 6.99933 3.14603C7.40066 2.56911 8.12921 1.89126 9.32213 1.89651C10.3616 1.90176 11.2302 2.29319 11.8345 3.02936C12.5795 3.93761 12.8583 5.33702 12.5795 6.7726C11.8608 10.4803 7.37088 12.5628 7.18013 12.6491C7.12354 12.6748 7.06173 12.6876 6.9999 12.6876ZM4.69106 2.77095C4.68756 2.77095 4.68466 2.77095 4.68116 2.77095C3.90066 2.77445 3.28234 3.04802 2.84251 3.5841C2.25976 4.29402 2.04917 5.42336 2.27783 6.60519C2.83492 9.47753 6.17915 11.3442 6.9999 11.763C7.82065 11.3442 11.1649 9.47753 11.7214 6.60519C11.9512 5.42278 11.7407 4.29343 11.1591 3.5841C10.7192 3.0486 10.1009 2.7756 9.31864 2.77151C9.31514 2.77151 9.31166 2.77151 9.30874 2.77151C7.92507 2.77151 7.43452 4.15811 7.41469 4.21703C7.35402 4.39378 7.18714 4.51393 7.00047 4.51393C6.9993 4.51393 6.9987 4.51393 6.99812 4.51393C6.81087 4.51335 6.64405 4.39377 6.58455 4.21586C6.5653 4.15752 6.07415 2.77095 4.69106 2.77095Z" fill="currentColor"/>
</svg>