<svg width="14" height="14" viewBox="0 0 14 14" fill="none" xmlns="http://www.w3.org/2000/svg">
<path d="M9.3623 2.32422C11.2389 2.32422 12.7607 3.84512 12.7607 5.72168C12.7607 7.36142 11.7996 8.86217 10.6768 9.99609C9.549 11.135 8.17009 11.9938 7.16113 12.3291C7.05664 12.3638 6.94336 12.3638 6.83887 12.3291C5.82991 11.9938 4.451 11.135 3.32324 9.99609C2.20043 8.86217 1.2393 7.36142 1.23926 5.72168C1.23931 3.84512 2.76111 2.32422 4.6377 2.32422C5.55624 2.32427 6.38892 2.68977 7 3.28125C7.61108 2.68977 8.44376 2.32427 9.3623 2.32422ZM9.3623 3.34473C8.55885 3.34479 7.84899 3.7434 7.41797 4.35547C7.32236 4.49119 7.16602 4.57129 7 4.57129C6.83398 4.57129 6.67764 4.49119 6.58203 4.35547C6.15101 3.7434 5.44115 3.34479 4.6377 3.34473C3.3249 3.34473 2.2608 4.40891 2.26074 5.72168C2.26079 6.96933 3.0061 8.22528 4.04883 9.27832C5.02134 10.2604 6.17677 10.9885 7 11.3027C7.82323 10.9885 8.97866 10.2604 9.95117 9.27832C10.9939 8.22528 11.7392 6.96933 11.7393 5.72168C11.7392 4.40891 10.6751 3.34473 9.3623 3.34473Z" fill="currentColor"/>
</svg>
