<svg width="16" height="16" viewBox="0 0 16 16" fill="none" xmlns="http://www.w3.org/2000/svg">
    <path fill-rule="evenodd" clip-rule="evenodd" d="M1.91602 10.6686C2.06887 10.2541 2.52885 10.0422 2.94337 10.1949L8.00001 12.0582L13.0566 10.1949C13.4712 10.0422 13.9312 10.2541 14.084 10.6686C14.2366 11.0831 14.0238 11.5431 13.6094 11.6959L8.27637 13.6617C8.09779 13.7276 7.90124 13.7276 7.72266 13.6617L2.38966 11.6959C1.9752 11.5431 1.76333 11.0831 1.91602 10.6686ZM1.91602 8.04651C2.06897 7.6322 2.52894 7.42013 2.94337 7.57288L8.00001 9.43714L13.0566 7.57288C13.4711 7.42026 13.9311 7.63215 14.084 8.04651C14.2367 8.46102 14.0239 8.92104 13.6094 9.07386L8.27637 11.0407C8.09784 11.1064 7.90118 11.1065 7.72266 11.0407L2.38966 9.07386C1.97527 8.92099 1.76334 8.46096 1.91602 8.04651ZM7.7627 2.31604C7.94252 2.26028 8.13762 2.26918 8.31251 2.34339L13.6455 4.60901C13.9397 4.734 14.1314 5.02277 14.1328 5.34241C14.1342 5.66191 13.9452 5.95207 13.6524 6.07971L8.31934 8.40198C8.11574 8.49054 7.88328 8.49062 7.6797 8.40198L2.34669 6.07971C2.05383 5.95206 1.86484 5.66189 1.86622 5.34241C1.86764 5.02288 2.0595 4.73407 2.35352 4.60901L7.68751 2.34339L7.7627 2.31604ZM4.69044 5.35511L8.00001 6.79554L11.3086 5.35511L8.00001 3.94886L4.69044 5.35511Z" fill="currentColor"/>
</svg>
