<svg width="24" height="24" viewBox="0 0 24 24" fill="none" xmlns="http://www.w3.org/2000/svg">
<path d="M20.6678 15.0563C21.1884 14.8728 21.7603 15.1462 21.9442 15.6666C22.128 16.1872 21.8543 16.759 21.3339 16.943L12.8339 19.943C12.6186 20.019 12.3832 20.0189 12.1678 19.943L3.66785 16.943C3.14708 16.7592 2.87369 16.1874 3.0575 15.6666C3.24152 15.1462 3.81325 14.8725 4.33386 15.0563L12.5009 17.9381L20.6678 15.0563ZM20.6678 11.0563C21.1884 10.8728 21.7603 11.1462 21.9442 11.6666C22.128 12.1872 21.8543 12.759 21.3339 12.943L12.8339 15.943C12.6186 16.019 12.3832 16.0189 12.1678 15.943L3.66785 12.943C3.14708 12.7592 2.87369 12.1874 3.0575 11.6666C3.24152 11.1462 3.81325 10.8725 4.33386 11.0563L12.5009 13.9381L20.6678 11.0563ZM12.2157 3.04065C12.4325 2.97631 12.6666 2.98696 12.8778 3.07288L21.3778 6.53088C21.7528 6.68363 21.9989 7.04789 22.0009 7.45276C22.0025 7.85764 21.7592 8.2235 21.3856 8.37952L12.8856 11.9225C12.6395 12.0251 12.3623 12.025 12.1161 11.9225L3.61609 8.37952C3.24222 8.22362 2.99922 7.85782 3.00085 7.45276C3.00277 7.04782 3.24884 6.68358 3.6239 6.53088L12.1239 3.07288L12.2157 3.04065ZM6.62683 7.46741L12.5009 9.91565L18.3739 7.46741L12.5009 5.07874L6.62683 7.46741Z" fill="currentColor"/>
</svg>
