<svg width="16" height="16" viewBox="0 0 16 16" fill="none" xmlns="http://www.w3.org/2000/svg">
<path fill-rule="evenodd" clip-rule="evenodd" d="M13.7706 10.6038C14.0742 10.4969 14.4075 10.6567 14.5147 10.9602C14.6218 11.264 14.462 11.5971 14.1583 11.7044L8.19343 13.8098C8.06803 13.854 7.93114 13.854 7.80574 13.8098L1.84089 11.7044C1.53728 11.5971 1.37738 11.2639 1.48445 10.9602C1.59165 10.6567 1.92501 10.497 2.22859 10.6038L8.00007 12.6409L13.7706 10.6038ZM13.7706 7.79712C14.0743 7.6902 14.4075 7.84991 14.5147 8.15357C14.6218 8.4573 14.462 8.79051 14.1583 8.89771L8.19343 11.0032C8.06806 11.0473 7.9311 11.0473 7.80574 11.0032L1.84089 8.89771C1.53726 8.79049 1.37746 8.45725 1.48445 8.15357C1.59161 7.84994 1.92493 7.69027 2.22859 7.79712L8.00007 9.83423L13.7706 7.79712ZM7.83406 2.17408C7.9602 2.13676 8.09589 2.14373 8.21882 2.19361L14.1837 4.61939C14.4026 4.70845 14.5469 4.9211 14.5479 5.15748C14.5488 5.39342 14.4071 5.60642 14.1895 5.69751L8.22468 8.18384C8.08117 8.24362 7.91899 8.24359 7.77546 8.18384L1.81062 5.69751C1.59274 5.60653 1.45037 5.39359 1.45124 5.15748C1.45227 4.92131 1.59589 4.70858 1.81453 4.61939L7.77937 2.19361L7.83406 2.17408ZM3.56648 5.16626L8.00007 7.01392L12.4317 5.16626L7.9991 3.36353L3.56648 5.16626Z" fill="currentColor"/>
</svg>
