<svg width="16" height="16" viewBox="0 0 16 16" fill="none" xmlns="http://www.w3.org/2000/svg">
<path d="M8.00098 12.75C8.32303 12.75 8.58381 13.011 8.58398 13.333V14.667C8.58381 14.989 8.32303 15.25 8.00098 15.25C7.67892 15.25 7.41814 14.989 7.41797 14.667V13.333C7.41814 13.011 7.67892 12.75 8.00098 12.75ZM1.77734 4.12793C1.99532 4.03764 2.24723 4.08707 2.41406 4.25391L5.74707 7.58691C5.97488 7.81472 5.97488 8.18528 5.74707 8.41309L2.41406 11.7461C2.24723 11.9129 1.99532 11.9624 1.77734 11.8721C1.5596 11.7817 1.41797 11.5688 1.41797 11.333V4.66699C1.41797 4.4312 1.5596 4.21832 1.77734 4.12793ZM13.5879 4.25391C13.7547 4.08707 14.0066 4.03764 14.2246 4.12793C14.4424 4.21832 14.584 4.4312 14.584 4.66699V11.333C14.584 11.5688 14.4424 11.7817 14.2246 11.8721C14.0066 11.9624 13.7547 11.9129 13.5879 11.7461L10.2549 8.41309C10.0271 8.18528 10.0271 7.81472 10.2549 7.58691L13.5879 4.25391ZM8.00098 8.75C8.32303 8.75 8.58381 9.01099 8.58398 9.33301V10.667C8.58381 10.989 8.32303 11.25 8.00098 11.25C7.67892 11.25 7.41814 10.989 7.41797 10.667V9.33301C7.41814 9.01099 7.67892 8.75 8.00098 8.75ZM2.58398 9.9248L4.50879 8L2.58398 6.0752V9.9248ZM11.4932 8L13.418 9.9248V6.0752L11.4932 8ZM8.00098 4.75C8.32303 4.75 8.58381 5.01099 8.58398 5.33301V6.66699C8.58381 6.98901 8.32303 7.25 8.00098 7.25C7.67892 7.25 7.41814 6.98901 7.41797 6.66699V5.33301C7.41814 5.01099 7.67892 4.75 8.00098 4.75ZM8.00098 0.75C8.32303 0.75 8.58381 1.01099 8.58398 1.33301V2.66699C8.58381 2.98901 8.32303 3.25 8.00098 3.25C7.67892 3.25 7.41814 2.98901 7.41797 2.66699V1.33301C7.41814 1.01099 7.67892 0.75 8.00098 0.75Z" fill="currentColor"/>
</svg>
