<svg width="24" height="24" viewBox="0 0 24 24" fill="none" xmlns="http://www.w3.org/2000/svg">
<path d="M11.124 18.5649C11.3825 18.3083 11.7907 18.2142 12.1396 18.3618C12.2521 18.4171 12.3442 18.4746 12.4346 18.5649C12.5083 18.6386 12.5824 18.7494 12.6396 18.8618C12.6747 18.9707 12.7138 19.1007 12.7139 19.2114C12.7138 19.3336 12.6789 19.441 12.6455 19.5444L12.6396 19.562L12.6318 19.5776C12.5774 19.6832 12.5225 19.7886 12.4346 19.8589C12.2703 20.0416 12.0307 20.1342 11.7705 20.1343C11.5305 20.1343 11.3086 20.0417 11.124 19.8589C11.0503 19.7851 10.9762 19.6726 10.9209 19.562L10.915 19.5444C10.8816 19.441 10.8477 19.3336 10.8477 19.2114C10.8477 19.1007 10.8858 18.9707 10.9209 18.8618C10.9763 18.7494 11.0503 18.6387 11.124 18.5649ZM6.69336 6.84229C7.16034 6.37542 7.95846 6.70618 7.95898 7.3667V17.3228C7.95898 17.9819 7.16048 18.3123 6.69336 17.8452L1.71582 12.8677C1.42802 12.5779 1.42807 12.1088 1.71582 11.8208L6.69336 6.84229ZM16.04 7.3667C16.0406 6.70634 16.8395 6.37592 17.3066 6.84229L22.2822 11.8228C22.572 12.1108 22.572 12.5797 22.2822 12.8696L17.3066 17.8452C16.8394 18.3123 16.04 17.9819 16.04 17.3228V7.3667ZM11.79 14.689C12.2885 14.689 12.7128 15.095 12.7129 15.6118C12.7129 16.1103 12.2886 16.5347 11.79 16.5347C11.2731 16.5346 10.8672 16.1103 10.8672 15.6118C10.8673 15.095 11.2732 14.689 11.79 14.689ZM11.79 11.0698C12.2884 11.0698 12.7126 11.4759 12.7129 11.9927C12.7129 12.5078 12.2886 12.9165 11.79 12.9165C11.2731 12.9164 10.8672 12.5078 10.8672 11.9927C10.8675 11.476 11.2733 11.0699 11.79 11.0698ZM11.79 7.46924C12.2883 7.46924 12.7125 7.87545 12.7129 8.39209C12.7129 8.89061 12.2886 9.31592 11.79 9.31592C11.2731 9.31584 10.8672 8.89056 10.8672 8.39209C10.8676 7.87549 11.2734 7.46932 11.79 7.46924ZM11.124 4.12549C11.3825 3.86903 11.7908 3.77677 12.1396 3.92432C12.2521 3.97775 12.3443 4.03534 12.4346 4.12549C12.6007 4.29346 12.7138 4.53398 12.7139 4.77393C12.7139 4.89432 12.6789 5.00161 12.6455 5.10498C12.6436 5.1108 12.6415 5.11676 12.6396 5.12256L12.6367 5.12939C12.5806 5.23975 12.5251 5.34829 12.4346 5.43701C12.2519 5.60476 12.0306 5.69674 11.7705 5.69678C11.6599 5.69677 11.5307 5.67887 11.4219 5.64209C11.3093 5.58487 11.2163 5.51081 11.124 5.43701C11.0502 5.34656 10.9763 5.23511 10.9209 5.12256C10.9191 5.11682 10.9169 5.11073 10.915 5.10498C10.8816 5.00167 10.8477 4.89425 10.8477 4.77393C10.8477 4.66145 10.8859 4.53399 10.9209 4.42334C10.9763 4.3126 11.0502 4.19931 11.124 4.12549Z" fill="currentColor"/>
</svg>
