<svg width="14" height="14" viewBox="0 0 14 14" fill="none" xmlns="http://www.w3.org/2000/svg">
  <path fill-rule="evenodd" clip-rule="evenodd" d="M6.99975 1.74999C4.74762 1.74999 2.82529 3.16836 2.08012 5.16252C1.96735 5.4643 1.63128 5.61753 1.3295 5.50476C1.02771 5.39199 0.874487 5.05592 0.987258 4.75414C1.89727 2.31885 4.2451 0.583328 6.99975 0.583328C10.5436 0.583328 13.4164 3.45617 13.4164 7C13.4164 10.5438 10.5436 13.4167 6.99975 13.4167C4.2451 13.4167 1.89727 11.6811 0.987258 9.24585C0.874487 8.94407 1.02771 8.608 1.3295 8.49523C1.63128 8.38246 1.96735 8.53569 2.08012 8.83747C2.82529 10.8316 4.74762 12.25 6.99975 12.25C9.89924 12.25 12.2497 9.89949 12.2497 7C12.2497 4.1005 9.89924 1.74999 6.99975 1.74999Z" fill="currentColor"/>
</svg>
