<svg width="20" height="21" viewBox="0 0 20 21" fill="none" xmlns="http://www.w3.org/2000/svg">
    <path d="M10.6263 15.9333V17.84C10.6263 18.185 10.3463 18.465 10.0013 18.465C9.6563 18.465 9.3763 18.185 9.3763 17.84V15.9333C6.10714 15.6183 3.54297 12.8567 3.54297 9.50667C3.54297 9.16167 3.82297 8.88167 4.16797 8.88167C4.51297 8.88167 4.79297 9.16167 4.79297 9.50667C4.79297 12.3783 7.12964 14.715 10.0013 14.715C12.873 14.715 15.2096 12.3783 15.2096 9.50667C15.2096 9.16167 15.4896 8.88167 15.8346 8.88167C16.1796 8.88167 16.4596 9.16167 16.4596 9.50667C16.4596 12.8567 13.8955 15.6174 10.6263 15.9333ZM10.0013 2.42334C7.9338 2.42334 6.2513 4.10584 6.2513 6.17334V9.50667C6.2513 11.5742 7.9338 13.2567 10.0013 13.2567C12.0688 13.2567 13.7513 11.5742 13.7513 9.50667V6.17334C13.7513 4.10584 12.0688 2.42334 10.0013 2.42334Z" fill="currentColor"/>
    </svg>
    