<svg width="24" height="24" viewBox="0 0 24 24" fill="none" xmlns="http://www.w3.org/2000/svg">
<path fill-rule="evenodd" clip-rule="evenodd" d="M15.3286 9.51733L16.9673 7.58058C17.7198 8.66142 18.2013 9.94417 18.3127 11.3292H20.046C20.8027 11.3292 21.2566 12.1684 20.8439 12.8012L17.9413 17.3272C17.5698 17.9187 16.7169 17.9187 16.3317 17.3272L13.4428 12.8012C13.0301 12.1684 13.4841 11.3292 14.2407 11.3292H15.8915C15.8131 10.6817 15.6182 10.0705 15.3286 9.51733ZM18.3415 3.96611L4.82355 19.9419C4.79881 19.9711 4.77714 20.0019 4.75849 20.0339L4.13362 20.7724C3.90428 21.0434 3.49865 21.0772 3.22762 20.8479C2.95659 20.6186 2.92279 20.2129 3.15212 19.9419L5.28345 17.4231C3.87394 16.031 3.00001 14.0979 3.00001 11.962C3.00001 7.73868 6.43921 4.28573 10.6763 4.28573C12.3522 4.28573 13.9039 4.8269 15.1662 5.74342L17.295 3.22762C17.5243 2.95659 17.9299 2.92279 18.201 3.15212C18.4428 3.35672 18.4957 3.70163 18.3415 3.96611ZM7.38933 18.9001L9.02622 16.9655C9.54567 17.1377 10.1005 17.2309 10.6763 17.2309C11.338 17.2309 11.8731 17.766 11.8731 18.4277C11.8731 19.1018 11.338 19.6383 10.6763 19.6383C9.50037 19.6383 8.38589 19.3734 7.38933 18.9001ZM13.6048 7.5887C12.768 7.0231 11.7604 6.69316 10.6763 6.69316C7.77499 6.69316 5.40745 9.05933 5.40745 11.962C5.40745 13.3584 5.9554 14.6307 6.84712 15.5751L13.6048 7.5887Z" fill="currentColor"/>
</svg>
