<svg width="16" height="16" viewBox="0 0 16 16" fill="none" xmlns="http://www.w3.org/2000/svg">
<path fill-rule="evenodd" clip-rule="evenodd" d="M11.6716 1.57439C11.8791 1.3282 12.2476 1.29714 12.4939 1.50408C12.7402 1.71141 12.7724 2.07983 12.5652 2.32634L2.38159 14.425C2.17418 14.6712 1.80568 14.7031 1.55933 14.4963C1.31318 14.289 1.28108 13.9205 1.48804 13.674L2.96949 11.9123C2.85671 11.78 2.74894 11.6425 2.6482 11.4992C2.01135 10.5929 1.65093 9.5125 1.61304 8.39666C1.57539 7.28099 1.86239 6.17794 2.43628 5.22869C3.01031 4.27977 3.84659 3.52551 4.83863 3.06267C5.83097 2.60002 6.93631 2.4486 8.01245 2.6281C8.75754 2.75257 9.46709 3.03187 10.0974 3.44451L11.6716 1.57439ZM5.66187 12.3322C6.4456 12.6231 7.29609 12.6751 8.10816 12.4797C8.43623 12.401 8.76509 12.6098 8.84253 12.9455C8.9194 13.2815 8.71556 13.6182 8.38745 13.6974C7.32598 13.9529 6.21341 13.8815 5.19214 13.4904C5.06643 13.4422 4.94243 13.3884 4.82105 13.3312L5.66187 12.3322ZM7.81616 3.86248C6.97848 3.72271 6.11786 3.8413 5.34546 4.20134C4.57336 4.56156 3.92214 5.1484 3.47534 5.88689C3.02859 6.62583 2.80535 7.48511 2.83472 8.35369C2.86426 9.22207 3.14479 10.0623 3.64038 10.7677C3.68453 10.8306 3.73092 10.8922 3.77808 10.9523L9.28882 4.40447C8.83683 4.13446 8.33775 3.94965 7.81616 3.86248ZM11.7439 5.10564C12.3397 6.01144 12.6918 7.07259 12.7478 8.17986L12.7488 8.1906L12.7576 8.46306L13.6101 7.52752C13.8403 7.27572 14.2269 7.26216 14.4734 7.49724C14.7196 7.73272 14.7332 8.12841 14.5037 8.38103L12.6453 10.4211C12.6317 10.4359 12.6162 10.4506 12.6013 10.464C12.5978 10.4672 12.5932 10.4707 12.5896 10.4738C12.5624 10.4971 12.5327 10.519 12.5017 10.5373C12.4986 10.5391 12.4941 10.5414 12.491 10.5431C12.4773 10.5508 12.4623 10.558 12.448 10.5646C12.4461 10.5655 12.4431 10.5668 12.4412 10.5676C12.4257 10.5745 12.4094 10.5815 12.3933 10.5871C12.3913 10.5877 12.3875 10.5884 12.3855 10.589C12.3694 10.5944 12.3523 10.5997 12.3357 10.6037C12.333 10.6043 12.3297 10.6051 12.3269 10.6056C12.2925 10.6132 12.2559 10.6189 12.2195 10.6203C12.1868 10.6214 12.1533 10.6184 12.1218 10.6144C12.1146 10.6135 12.1066 10.6127 12.0994 10.6115C12.0646 10.6057 12.0304 10.5967 11.9978 10.5851C11.9941 10.5838 11.9888 10.5826 11.9851 10.5812C11.9726 10.5764 11.9601 10.5702 11.948 10.5646C11.9423 10.562 11.936 10.5596 11.9304 10.5568C11.9191 10.5511 11.9072 10.5446 11.8962 10.5383C11.8899 10.5345 11.883 10.5305 11.8767 10.5265C11.8698 10.5221 11.8629 10.5166 11.8562 10.5119C11.8361 10.4979 11.8164 10.4827 11.7976 10.466C11.7913 10.4603 11.7842 10.4543 11.7781 10.4484L9.78882 8.549C9.54255 8.31339 9.52873 7.9168 9.75855 7.66423C9.98874 7.41218 10.3762 7.39879 10.6228 7.63396L11.5359 8.50603L11.5271 8.24431C11.4885 7.48271 11.2731 6.74817 10.9089 6.09783L11.7439 5.10564Z" fill="currentColor"/>
</svg>
