<svg width="16" height="16" viewBox="0 0 16 16" fill="none" xmlns="http://www.w3.org/2000/svg">
    <path d="M8 1.66663C8.44166 1.6667 8.80061 2.0248 8.80078 2.46643V3.06409C10.9211 3.40528 12.5944 5.07949 12.9355 7.19983H13.5332C13.9749 7.19983 14.3338 7.55796 14.334 7.99963C14.334 8.44146 13.975 8.80042 13.5332 8.80042H12.9355C12.5943 10.9206 10.9209 12.594 8.80078 12.9352V13.5328C8.80078 13.9746 8.44177 14.3335 8 14.3336C7.55832 14.3334 7.2002 13.9746 7.2002 13.5328V12.9352C5.07986 12.5941 3.40565 10.9207 3.06445 8.80042H2.4668C2.02512 8.80024 1.66699 8.44135 1.66699 7.99963C1.66717 7.55807 2.02523 7.20001 2.4668 7.19983H3.06445C3.40556 5.07936 5.07972 3.40517 7.2002 3.06409V2.46643C7.20037 2.02486 7.55843 1.6668 8 1.66663ZM8 4.60022C6.12249 4.6004 4.60076 6.12212 4.60059 7.99963C4.60059 9.87729 6.12238 11.3998 8 11.4C9.87777 11.4 11.4004 9.8774 11.4004 7.99963C11.4002 6.12201 9.87766 4.60022 8 4.60022ZM8.15039 6.54065C8.88971 6.61585 9.46657 7.24052 9.4668 7.99963L9.45898 8.15002C9.38376 8.88943 8.75924 9.46636 8 9.46643L7.84961 9.45862C7.15973 9.38824 6.61119 8.83997 6.54102 8.15002L6.5332 7.99963C6.53344 7.18993 7.19028 6.53301 8 6.53284L8.15039 6.54065ZM8 7.93909C7.96655 7.93926 7.93969 7.9662 7.93945 7.99963C7.93952 8.03322 7.96644 8.06098 8 8.06116C8.03365 8.06109 8.06145 8.03328 8.06152 7.99963C8.06128 7.96613 8.03354 7.93916 8 7.93909Z" fill="currentColor"/>
</svg>
