<svg width="16" height="16" viewBox="0 0 16 16" fill="none" xmlns="http://www.w3.org/2000/svg">
    <path d="M8 0.333313C8.38478 0.333489 8.69629 0.645761 8.69629 1.03058V2.42413C8.69629 2.43888 8.69526 2.45356 8.69434 2.46808C11.2174 2.78169 13.2156 4.7803 13.5303 7.30304H14.9697C15.3545 7.30323 15.666 7.61552 15.666 8.00031C15.6658 8.38496 15.3544 8.6964 14.9697 8.69659H13.5303C13.2157 11.2186 11.2183 13.216 8.69629 13.5306V14.97C8.6961 15.3547 8.38466 15.6661 8 15.6663C7.61519 15.6663 7.30293 15.3548 7.30273 14.97V13.5306C4.78076 13.216 2.78332 11.2186 2.46875 8.69659H1.03027C0.645456 8.69659 0.333183 8.38508 0.333008 8.00031C0.333031 7.6154 0.645362 7.30304 1.03027 7.30304H2.46875C2.78344 4.7804 4.78176 2.78182 7.30469 2.46808C7.30377 2.45356 7.30273 2.43888 7.30273 2.42413V1.03058C7.30273 0.645653 7.61507 0.333313 8 0.333313ZM8 3.81769C5.69046 3.81769 3.81741 5.69077 3.81738 8.00031C3.81756 10.3097 5.69055 12.1819 8 12.1819C10.3093 12.1818 12.1815 10.3096 12.1816 8.00031C12.1816 5.69088 10.3094 3.81786 8 3.81769ZM8 6.60577C8.76969 6.60595 9.39353 7.23058 9.39355 8.00031C9.39338 8.7699 8.76959 9.39368 8 9.39386C7.23026 9.39386 6.60564 8.77001 6.60547 8.00031C6.60549 7.23047 7.23016 6.60577 8 6.60577Z" fill="currentColor"/>
</svg>
