<svg width="16" height="16" viewBox="0 0 16 16" fill="none" xmlns="http://www.w3.org/2000/svg">
<path d="M8 0.75C8.32206 0.75 8.58283 1.01099 8.58301 1.33301V2.7832C11.0163 3.05226 12.9477 4.98365 13.2168 7.41699H14.667C14.989 7.41717 15.25 7.67794 15.25 8C15.25 8.32206 14.989 8.58283 14.667 8.58301H13.2168C12.9477 11.0163 11.0163 12.9467 8.58301 13.2158V14.667C8.58283 14.989 8.32206 15.25 8 15.25C7.67794 15.25 7.41717 14.989 7.41699 14.667V13.2158C4.98368 12.9467 3.05225 11.0163 2.7832 8.58301H1.33301C1.01099 8.58283 0.75 8.32206 0.75 8C0.75 7.67794 1.01099 7.41717 1.33301 7.41699H2.7832C3.05226 4.98365 4.98365 3.05226 7.41699 2.7832V1.33301C7.41717 1.01099 7.67794 0.75 8 0.75ZM8 3.91699C5.74484 3.91699 3.91699 5.74484 3.91699 8C3.91699 10.2552 5.74484 12.083 8 12.083C10.2552 12.083 12.083 10.2552 12.083 8C12.083 5.74484 10.2552 3.91699 8 3.91699ZM8 6C9.10457 6 10 6.89543 10 8C10 9.10457 9.10457 10 8 10C6.89543 10 6 9.10457 6 8C6 6.89543 6.89543 6 8 6ZM8 7.16699C7.53976 7.16699 7.16699 7.53976 7.16699 8C7.16699 8.46024 7.53976 8.83301 8 8.83301C8.46024 8.83301 8.83301 8.46024 8.83301 8C8.83301 7.53976 8.46024 7.16699 8 7.16699Z" fill="currentColor"/>
</svg>
