<svg width="16" height="16" viewBox="0 0 16 16" fill="none" xmlns="http://www.w3.org/2000/svg">
<path d="M12.0458 1.81972C13.3342 1.49767 14.5016 2.66506 14.1796 3.95351L12.0194 12.5932C11.5261 14.5665 8.8121 14.7914 8.00086 12.9262L6.50672 9.4916L3.07312 7.99843C1.20853 7.18696 1.43319 4.47337 3.40613 3.97988L12.0458 1.81972ZM12.9218 3.63906C13.0064 3.30004 12.6993 2.99284 12.3602 3.07754L3.72059 5.23769C2.94869 5.43092 2.86106 6.49249 3.5907 6.80996L6.8534 8.2289L9.35047 5.73086C9.60342 5.47778 10.0133 5.47812 10.2665 5.73086C10.5196 5.98383 10.5203 6.39365 10.2675 6.64687L7.77039 9.14492L9.18934 12.4086C9.50672 13.1386 10.5685 13.0509 10.7616 12.2787L12.9218 3.63906Z" fill="currentColor"/>
</svg>
