<svg width="20" height="20" viewBox="0 0 20 20" fill="none" xmlns="http://www.w3.org/2000/svg">
<path fill-rule="evenodd" clip-rule="evenodd" d="M11.9844 2.81676C12.269 2.53276 12.731 2.53276 13.0156 2.81676L17.1826 6.98375C17.4673 7.26845 17.4672 7.7312 17.1826 8.01598L13.0156 12.182C12.7309 12.4668 12.2691 12.4668 11.9844 12.182C11.6999 11.8972 11.6997 11.4354 11.9844 11.1507L14.9053 8.22887H7.91699C6.89492 8.22887 5.91418 8.63513 5.19141 9.35777C4.46869 10.0805 4.06259 11.0613 4.0625 12.0834C4.06252 12.5893 4.1629 13.0905 4.35645 13.558C4.5501 14.0254 4.83365 14.4511 5.19141 14.8089C5.91418 15.5316 6.89492 15.9369 7.91699 15.9369H10.833C11.2356 15.9369 11.5622 16.2639 11.5625 16.6664C11.5625 17.0691 11.2357 17.3959 10.833 17.3959H7.91699C6.50803 17.3959 5.15644 16.8355 4.16016 15.8392C3.66704 15.346 3.27569 14.76 3.00879 14.1156C2.74203 13.4713 2.60452 12.7807 2.60449 12.0834C2.60459 10.6745 3.16395 9.32273 4.16016 8.32652C5.15642 7.33039 6.50815 6.77086 7.91699 6.77086H14.9053L11.9844 3.84898C11.6998 3.56421 11.6997 3.10146 11.9844 2.81676Z" fill="currentColor" />
</svg>
