<svg width="20" height="20" viewBox="0 0 20 20" fill="none" xmlns="http://www.w3.org/2000/svg">
  <path fill-rule="evenodd" clip-rule="evenodd"
    d="M11.9854 2.81651C12.27 2.53252 12.732 2.53252 13.0166 2.81651L17.1836 6.98351C17.4683 7.26821 17.4682 7.73096 17.1836 8.01573L13.0166 12.1817C12.7318 12.4665 12.2701 12.4665 11.9854 12.1817C11.7008 11.897 11.7007 11.4352 11.9854 11.1505L14.9062 8.22862H7.91797C6.8959 8.22862 5.91516 8.63489 5.19238 9.35753C4.46967 10.0802 4.06357 11.0611 4.06348 12.0831C4.0635 12.589 4.16387 13.0903 4.35742 13.5577C4.55108 14.0252 4.83463 14.4509 5.19238 14.8087C5.91515 15.5313 6.8959 15.9366 7.91797 15.9366H10.834C11.2365 15.9366 11.5632 16.2636 11.5635 16.6661C11.5635 17.0688 11.2367 17.3956 10.834 17.3956H7.91797C6.50901 17.3956 5.15742 16.8353 4.16113 15.839C3.66801 15.3457 3.27667 14.7597 3.00977 14.1153C2.74301 13.4711 2.60549 12.7804 2.60547 12.0831C2.60556 10.6743 3.16493 9.32248 4.16113 8.32628C5.1574 7.33015 6.50912 6.77062 7.91797 6.77062H14.9062L11.9854 3.84874C11.7008 3.56397 11.7007 3.10121 11.9854 2.81651Z"
    fill="currentColor" />
</svg>