<svg width="20" height="20" viewBox="0 0 20 20" fill="none" xmlns="http://www.w3.org/2000/svg">
<path d="M10 2.1875C11.545 2.1875 13.0552 2.64567 14.3398 3.50391C15.6245 4.36226 16.6264 5.58241 17.2178 7.00977C17.8091 8.43731 17.9645 10.0089 17.6631 11.5244C17.3616 13.0398 16.617 14.4318 15.5244 15.5244C14.4318 16.617 13.0398 17.3616 11.5244 17.6631C10.0089 17.9645 8.43731 17.8091 7.00977 17.2178C5.58241 16.6264 4.36226 15.6245 3.50391 14.3398C2.64567 13.0552 2.1875 11.545 2.1875 10C2.1875 9.59729 2.51428 9.27051 2.91699 9.27051C3.31955 9.27068 3.64551 9.5974 3.64551 10C3.64551 11.2567 4.01859 12.4853 4.7168 13.5303C5.415 14.5752 6.40733 15.3902 7.56836 15.8711C8.72924 16.3519 10.0069 16.4775 11.2393 16.2324C12.4718 15.9872 13.6045 15.3818 14.4932 14.4932C15.3818 13.6045 15.9872 12.4718 16.2324 11.2393C16.4775 10.0069 16.3519 8.72924 15.8711 7.56836C15.3902 6.40733 14.5752 5.415 13.5303 4.7168C12.4856 4.01877 11.2574 3.6457 10.001 3.64551C8.20962 3.65274 6.49012 4.35254 5.20215 5.59766L4.67578 6.12305H6.85254C7.25493 6.12342 7.58105 6.45006 7.58105 6.85254C7.58068 7.2547 7.2547 7.58068 6.85254 7.58105H2.91699C2.84688 7.58105 2.77901 7.57025 2.71484 7.55176C2.71247 7.55109 2.7094 7.55149 2.70703 7.55078C2.62582 7.52642 2.55097 7.48769 2.48438 7.43848C2.45531 7.41703 2.4267 7.3935 2.40039 7.36719C2.38277 7.34953 2.36603 7.33046 2.35059 7.31152L2.31152 7.25977C2.31058 7.25848 2.30947 7.25718 2.30859 7.25586C2.30212 7.24613 2.29697 7.23555 2.29102 7.22559C2.28504 7.2156 2.27797 7.20561 2.27246 7.19531C2.2539 7.16051 2.23909 7.1237 2.22656 7.08691C2.21688 7.05847 2.20829 7.02892 2.20215 6.99902L2.2002 6.99121C2.19128 6.94516 2.18748 6.89831 2.1875 6.85156V2.91699C2.1875 2.51428 2.51428 2.1875 2.91699 2.1875C3.31955 2.18768 3.64551 2.51439 3.64551 2.91699V5.09082L4.17969 4.55762C4.18254 4.55477 4.18558 4.55163 4.18848 4.54883C5.74736 3.04185 7.82889 2.19578 9.99707 2.1875H10Z" fill="currentColor"/>
</svg>
