<svg width="20" height="21" viewBox="0 0 20 21" fill="none" xmlns="http://www.w3.org/2000/svg">
    <path d="M18.9331 10.4999C18.9331 5.57359 14.9262 1.56655 9.99974 1.56738C7.69849 1.56741 5.54775 2.45401 3.93307 3.94915V3.83405C3.93307 3.04307 3.29233 2.40072 2.49974 2.40072C1.70714 2.40072 1.06641 3.04307 1.06641 3.83405V8.00072C1.06641 8.7917 1.70714 9.43405 2.49974 9.43405H6.66641C7.459 9.43405 8.09974 8.7917 8.09974 8.00072C8.09974 7.2854 7.57572 6.69163 6.88926 6.58458C6.81665 6.57326 6.74222 6.56738 6.66641 6.56738H5.39656C6.0937 5.74894 6.99768 5.12706 8.01328 4.77154C8.64035 4.55202 9.30998 4.43405 9.99974 4.43405C13.3442 4.43405 16.0664 7.15625 16.0664 10.5007C16.0664 13.8452 13.3442 16.5674 9.99974 16.5674C7.67964 16.5674 5.60021 15.2776 4.56721 13.1966C4.3182 12.6945 3.8114 12.4005 3.28414 12.3996C3.06937 12.3993 2.85121 12.4476 2.64569 12.5503C1.93673 12.9021 1.64773 13.7622 1.99987 14.4712C3.51868 17.5309 6.58683 19.4332 9.99974 19.4332C14.9261 19.4332 18.9331 15.4263 18.9331 10.4999Z" fill="currentColor"/>
    </svg>
    