<svg xmlns="http://www.w3.org/2000/svg" width="14" height="14" viewBox="0 0 14 14" fill="none">
  <path fill-rule="evenodd" clip-rule="evenodd" d="M2.7244 9.91416C1.79261 8.3861 1.71651 6.34687 2.53755 4.73026C3.38828 2.99272 4.81999 2.22259 5.3954 1.97219C5.74126 1.81156 6.10568 1.68636 6.49795 1.59414L6.88279 1.51108C7.16554 1.45306 7.44706 1.62834 7.50831 1.90806C7.57018 2.18839 7.39014 2.46444 7.10615 2.52551L6.73182 2.60613C6.42061 2.67942 6.12239 2.78202 5.83159 2.9176C5.45356 3.08128 4.20313 3.71461 3.48171 5.18892C2.93415 6.26564 2.7708 7.97752 3.63268 9.39015C4.4135 10.7509 6.01226 11.5851 7.52873 11.4447C8.96291 11.3414 10.2789 10.3869 10.7405 9.12265C11.2089 7.93355 10.8976 6.71453 10.3835 6.02806C9.76415 5.1822 8.99323 4.92203 8.69068 4.84935C8.64551 4.83591 7.58627 4.51772 6.65077 4.98615C6.24799 5.17914 5.72703 5.61338 5.44799 6.26564C5.14667 6.93928 5.22463 7.8053 5.63298 8.38061C6.04381 8.99745 6.81844 9.34679 7.4848 9.2283C8.14806 9.12387 8.59663 8.6304 8.70305 8.19678C8.82803 7.73079 8.63623 7.33686 8.4865 7.19517C8.23221 6.94416 8.01257 6.93989 8.00328 6.93928C7.89934 6.93622 7.84799 6.94416 7.81705 6.94905C7.69826 6.99241 7.52997 7.08769 7.48047 7.18785C7.47181 7.20434 7.44953 7.24953 7.49223 7.36251C7.59431 7.63063 7.45634 7.9305 7.18472 8.03127C6.91434 8.13265 6.60994 7.99646 6.50723 7.72773C6.33832 7.28312 6.43175 6.935 6.54002 6.72125C6.82277 6.16487 7.47923 5.96333 7.55348 5.94195C7.58751 5.93157 7.62339 5.92546 7.65866 5.92241C7.73105 5.91141 7.85851 5.89431 8.03113 5.90103C8.42649 5.90592 8.87691 6.11234 9.22216 6.45374C9.62989 6.83851 9.94915 7.61169 9.7227 8.45206C9.50181 9.35167 8.65294 10.0955 7.66237 10.2513C6.59694 10.4412 5.39725 9.91599 4.76369 8.96386C4.15302 8.10578 4.03608 6.85011 4.48279 5.854C4.97281 4.70705 5.90893 4.18793 6.18364 4.05601C7.5046 3.39642 8.91651 3.83187 8.97591 3.85019C9.3558 3.93997 10.4119 4.29358 11.233 5.4155C11.8641 6.25953 12.3757 7.83583 11.7255 9.48603C11.1315 11.1124 9.44056 12.3479 7.61721 12.4792C7.47428 12.4927 7.3295 12.5 7.18534 12.5C5.41581 12.5 3.6234 11.4801 2.7244 9.91416Z" fill="currentColor" stroke="currentColor" stroke-width="0.2"/>
</svg>