<svg width="16" height="16" viewBox="0 0 16 16" fill="none" xmlns="http://www.w3.org/2000/svg">
    <path d="M12.667 1.33301C13.7713 1.33321 14.6668 2.22871 14.667 3.33301V12.667C14.6668 13.7713 13.7713 14.6668 12.667 14.667H3.33301C2.2287 14.6668 1.33318 13.7713 1.33301 12.667V3.33301C1.33318 2.2287 2.2287 1.33318 3.33301 1.33301H12.667ZM3.33301 2.66699C2.96508 2.66717 2.66717 2.96508 2.66699 3.33301V12.21L5.49609 9.38086H4.48633C4.11818 9.38086 3.81941 9.08199 3.81934 8.71387C3.81951 8.34583 4.11825 8.04785 4.48633 8.04785H7.01953C7.46134 8.04788 7.81934 8.40584 7.81934 8.84766V11.3809C7.81926 11.7489 7.52129 12.0477 7.15332 12.0479C6.78518 12.0479 6.4864 11.749 6.48633 11.3809V10.2764L3.42871 13.333H12.667C13.0349 13.3328 13.3328 13.0349 13.333 12.667V3.65723L10.3232 6.66699H11.333C11.7011 6.66702 11.9998 6.96498 12 7.33301C12 7.70117 11.7012 7.99998 11.333 8H8.7998C8.35824 7.99982 8.00019 7.64175 8 7.2002V4.66699C8 4.2988 8.2988 4 8.66699 4C9.03501 4.0002 9.33301 4.29893 9.33301 4.66699V5.77051L12.4375 2.66699H3.33301Z" fill="currentColor"/>
</svg>
