<svg width="16" height="16" viewBox="0 0 16 16" fill="none" xmlns="http://www.w3.org/2000/svg">
    <path d="M11.4004 2.19971C12.7256 2.19996 13.8007 3.27482 13.8008 4.6001V11.3999C13.8006 12.7251 12.7256 13.8 11.4004 13.8003H4.60059C3.27521 13.8003 2.20037 12.7252 2.2002 11.3999V4.6001C2.20025 3.27466 3.27514 2.19971 4.60059 2.19971H11.4004ZM4.60059 3.80029C4.15879 3.80029 3.80084 4.15832 3.80078 4.6001V11.0679L5.58105 9.28662L5.15723 8.86279C5.01031 8.71575 4.96566 8.49481 5.04395 8.30225C5.12233 8.10998 5.30801 7.98285 5.51562 7.97998L7.52246 7.95459C7.66179 7.95283 7.79595 8.00749 7.89453 8.10596C7.99301 8.20449 8.04858 8.33873 8.04688 8.47803L8.02148 10.4849C8.01883 10.6926 7.89159 10.879 7.69922 10.9575C7.50656 11.0359 7.28477 10.9913 7.1377 10.8442L6.71289 10.4185L4.93164 12.1997H11.4004C11.8419 12.1995 12.2 11.8414 12.2002 11.3999V4.93115L10.4199 6.7124L10.8447 7.13721C10.9917 7.28423 11.0363 7.50514 10.958 7.69775C10.8796 7.89037 10.6933 8.01736 10.4854 8.02002L8.47852 8.04639C8.33928 8.04805 8.20494 7.99248 8.10645 7.89404C8.00801 7.7955 7.95336 7.66124 7.95508 7.52197L7.98047 5.51514C7.98329 5.30743 8.11036 5.12086 8.30273 5.04248C8.49512 4.96429 8.71625 5.00917 8.86328 5.15576L9.28809 5.58057L11.0684 3.80029H4.60059Z" fill="currentColor"/>
</svg>
