<svg width="16" height="16" viewBox="0 0 16 16" fill="none" xmlns="http://www.w3.org/2000/svg">
<path d="M14.0645 8.08691C14.3841 8.12259 14.6151 8.41072 14.5801 8.73047C14.525 9.22854 14.4139 9.71129 14.2539 10.1699C13.3575 12.7388 10.9134 14.5837 8.03711 14.584C5.79083 14.5839 3.80795 13.4585 2.62012 11.7422V13.334C2.61992 13.6558 2.35894 13.9167 2.03711 13.917C1.71507 13.917 1.45333 13.656 1.45312 13.334V10.0664C1.45344 9.70778 1.74485 9.41714 2.10352 9.41699H5.37012C5.69212 9.41706 5.95295 9.67803 5.95312 10C5.9531 10.3221 5.69221 10.5839 5.37012 10.584H3.27441C4.19231 12.2719 5.98199 13.4169 8.03711 13.417C10.402 13.4167 12.4144 11.9002 13.1523 9.78516C13.2836 9.40877 13.3746 9.01302 13.4199 8.60352C13.4553 8.28342 13.7444 8.0517 14.0645 8.08691ZM8 1.41699C10.2462 1.41708 12.2292 2.54166 13.417 4.25781V2.66699C13.417 2.34491 13.6779 2.08409 14 2.08398C14.322 2.08413 14.584 2.34494 14.584 2.66699V5.93359C14.5838 6.29228 14.2922 6.5837 13.9336 6.58398H10.667C10.3448 6.58398 10.084 6.32217 10.084 6C10.0842 5.67801 10.345 5.41699 10.667 5.41699H12.7617C11.8438 3.72906 10.0551 2.58408 8 2.58398C5.63508 2.58407 3.62293 4.09989 2.88477 6.21484C2.75341 6.5914 2.66251 6.98775 2.61719 7.39746C2.5818 7.71754 2.29271 7.94922 1.97266 7.91406C1.65263 7.8786 1.42183 7.58957 1.45703 7.26953C1.51211 6.77158 1.62324 6.28959 1.7832 5.83105C2.6796 3.26192 5.12346 1.41708 8 1.41699Z" fill="currentColor"/>
</svg>
