<svg width="16" height="16" viewBox="0 0 16 16" fill="none" xmlns="http://www.w3.org/2000/svg">
<path fill-rule="evenodd" clip-rule="evenodd" d="M5.22562 2.20918C6.23356 1.73213 7.3608 1.56446 8.4639 1.72773C9.5671 1.89109 10.5973 2.37843 11.4239 3.12715L11.4258 3.12812C12.5806 4.18235 13.2832 5.64311 13.3868 7.20332C13.387 7.20621 13.3876 7.20922 13.3877 7.21211L13.4063 7.59785L14.3467 6.56074C14.563 6.32214 14.9322 6.30446 15.1709 6.5207C15.4094 6.73702 15.4271 7.10529 15.211 7.34394L13.3311 9.41914C13.2919 9.46365 13.2464 9.50241 13.1953 9.5334C13.1899 9.53672 13.1834 9.54004 13.1778 9.54316C13.133 9.56822 13.0844 9.58716 13.0332 9.5998C13.0306 9.60044 13.028 9.60116 13.0254 9.60176C13.011 9.60508 12.9963 9.60928 12.9815 9.61152L12.9219 9.61738C12.8864 9.61911 12.8515 9.61695 12.8174 9.6125C12.8146 9.61213 12.8115 9.61193 12.8086 9.61152L12.75 9.5998C12.7396 9.59714 12.729 9.59327 12.7188 9.59004C12.7124 9.58803 12.7056 9.58641 12.6993 9.58418L12.6455 9.56269L12.5909 9.5334C12.5588 9.51391 12.5287 9.49114 12.501 9.46601L10.42 7.58125C10.1814 7.36506 10.1631 6.99576 10.3789 6.75703C10.5952 6.51827 10.9644 6.50073 11.2032 6.71699L12.2412 7.65644L12.2227 7.27949C12.139 6.02027 11.5724 4.84152 10.6407 3.99043C9.98523 3.39685 9.16774 3.01156 8.29301 2.88203C7.41825 2.75257 6.52493 2.88563 5.72562 3.26387C4.92627 3.64224 4.25627 4.24934 3.80179 5.00801C3.34761 5.76652 3.12837 6.64255 3.17191 7.52558C3.21554 8.409 3.51984 9.26061 4.04691 9.9709C4.57392 10.681 5.30021 11.2191 6.13285 11.5168C6.96561 11.8144 7.8688 11.8579 8.7266 11.6428C9.03876 11.5648 9.35513 11.7546 9.43363 12.0666C9.51197 12.379 9.32212 12.6961 9.0098 12.7746C7.92834 13.0457 6.79016 12.9906 5.74027 12.6154C4.6903 12.24 3.77393 11.5616 3.10941 10.6662C2.44501 9.77082 2.06201 8.69777 2.00687 7.58418C1.95187 6.47053 2.22796 5.36498 2.80082 4.4084C3.3738 3.45187 4.21786 2.68629 5.22562 2.20918Z" fill="currentColor"/>
</svg>
