<svg width="14" height="14" viewBox="0 0 14 14" fill="none" xmlns="http://www.w3.org/2000/svg">
  <path d="M1.78204 6.41764C1.82595 6.02042 1.91418 5.63656 2.04167 5.27111C2.75667 3.22151 4.7066 1.75098 7 1.75098C9.28588 1.75098 11.2306 3.21189 11.9513 5.25098" stroke="currentColor" stroke-width="1.4" stroke-linecap="round"/>
  <path d="M12.25 2.33301V5.19134C12.25 5.22356 12.2239 5.24967 12.1917 5.24967H9.33333" stroke="currentColor" stroke-width="1.4" stroke-linecap="round"/>
  <path d="M12.25 7.58431C12.2061 7.98153 12.1179 8.36539 11.9904 8.73085C11.2754 10.7804 9.32544 12.251 7.03204 12.251C4.74616 12.251 2.80149 10.7901 2.08078 8.75098" stroke="currentColor" stroke-width="1.4" stroke-linecap="round"/>
  <path d="M1.78205 11.667V8.80866C1.78205 8.77644 1.80817 8.75033 1.84038 8.75033H4.69872" stroke="currentColor" stroke-width="1.4" stroke-linecap="round"/>
</svg>
