<svg width="24" height="24" viewBox="0 0 24 24" fill="none" xmlns="http://www.w3.org/2000/svg">
<path fill-rule="evenodd" clip-rule="evenodd" d="M20.8439 13.0155L17.9413 17.5414C17.5698 18.133 16.7169 18.133 16.3317 17.5414L13.4428 13.0155C13.0301 12.3826 13.4841 11.5435 14.2407 11.5435H15.8915C15.5751 8.92969 13.3602 6.90744 10.6763 6.90744C7.77498 6.90744 5.40744 9.27361 5.40744 12.1763C5.40744 15.079 7.77498 17.4451 10.6763 17.4451C11.338 17.4451 11.8731 17.9803 11.8731 18.642C11.8731 19.3161 11.338 19.8526 10.6763 19.8526C6.4392 19.8526 3 16.4134 3 12.1763C3 7.95296 6.4392 4.5 10.6763 4.5C14.6933 4.5 17.9963 7.60904 18.3127 11.5435H20.046C20.8027 11.5435 21.2566 12.3826 20.8439 13.0155Z" fill="currentColor"/>
</svg>
