<svg width="16" height="16" viewBox="0 0 16 16" fill="none" xmlns="http://www.w3.org/2000/svg">
  <path fill-rule="evenodd" clip-rule="evenodd" d="M12.4703 8.00732C12.9092 8.05598 13.2256 8.45119 13.1773 8.89014C13.1334 9.28667 13.0459 9.67124 12.9185 10.0366C12.2047 12.0823 10.2578 13.552 7.96635 13.5522C6.42931 13.5522 5.04801 12.8902 4.0894 11.8374L3.20365 12.1948C2.98912 12.2815 2.74314 12.2353 2.57475 12.0767C2.40673 11.918 2.34587 11.6756 2.41948 11.4565L2.97612 9.80615C2.97231 9.61874 3.03472 9.43684 3.14897 9.29248C3.20267 9.13968 3.31655 9.01536 3.4644 8.94873C3.61483 8.88113 3.78717 8.87851 3.93901 8.94287L6.18901 9.89795C6.40936 9.99161 6.55135 10.2093 6.54936 10.4487C6.54713 10.6881 6.40113 10.9029 6.17924 10.9927L5.72026 11.1772C6.33937 11.6625 7.11948 11.9526 7.96635 11.9526C9.55644 11.9524 10.9111 10.9325 11.4078 9.50928C11.496 9.25636 11.557 8.98984 11.5874 8.71436C11.6361 8.27551 12.0314 7.95903 12.4703 8.00732ZM8.03666 2.44775C9.57346 2.44798 10.9541 3.10995 11.9126 4.1626L12.7984 3.80518C13.0129 3.71863 13.259 3.76472 13.4273 3.92334C13.5953 4.08202 13.6553 4.32439 13.5816 4.54346L13.0249 6.19385C13.0289 6.38116 12.9671 6.56216 12.8531 6.70654C12.7995 6.85998 12.6851 6.98552 12.5367 7.05225C12.3863 7.11965 12.2138 7.12151 12.0621 7.05713L9.81303 6.10205C9.59281 6.00847 9.4509 5.79148 9.45268 5.55225C9.45477 5.31269 9.60072 5.09714 9.8228 5.00732L10.2808 4.82178C9.662 4.33713 8.88282 4.04852 8.03666 4.04834C6.44638 4.04834 5.09193 5.06741 4.59526 6.49072C4.50697 6.74381 4.44507 7.00997 4.41459 7.28564C4.36603 7.72467 3.9708 8.04105 3.53178 7.99268C3.09267 7.9441 2.77622 7.54898 2.82475 7.10986C2.86858 6.71342 2.95616 6.32967 3.08354 5.96436C3.79733 3.91837 5.74487 2.44775 8.03666 2.44775Z" fill="currentColor"/>
</svg>
