<svg width="25" height="24" viewBox="0 0 25 24" fill="none" xmlns="http://www.w3.org/2000/svg">
    <path d="M22.3745 4V9C22.3745 9.552 21.9275 10 21.3745 10H16.3745C15.8215 10 15.3745 9.552 15.3745 9C15.3745 8.448 15.8215 8 16.3745 8H19.2844C17.8774 5.565 15.2615 4 12.3745 4C8.28551 4 4.86947 7.05591 4.42847 11.1079C4.37247 11.6199 3.93955 12 3.43555 12C3.39955 12 3.36342 11.9979 3.32642 11.9939C2.77742 11.9339 2.38143 11.4411 2.44043 10.8911C2.99343 5.82211 7.26349 1.99902 12.3755 1.99902C15.5785 1.99902 18.5225 3.53408 20.3755 6.00708V4C20.3755 3.448 20.8225 3 21.3755 3C21.9285 3 22.3745 3.448 22.3745 4ZM21.4236 12.0061C20.8626 11.9471 20.3806 12.3431 20.3206 12.8921C19.8796 16.9451 16.4635 20 12.3745 20C9.48751 20 6.8716 18.435 5.4646 16H8.37451C8.92751 16 9.37451 15.552 9.37451 15C9.37451 14.448 8.92751 14 8.37451 14H3.37451C2.82151 14 2.37451 14.448 2.37451 15V20C2.37451 20.552 2.82151 21 3.37451 21C3.92751 21 4.37451 20.552 4.37451 20V17.9919C6.22751 20.4649 9.17151 22 12.3745 22C17.4855 22 21.7566 18.1769 22.3096 13.1079C22.3686 12.5589 21.9726 12.0661 21.4236 12.0061Z" fill="currentColor"/>
    </svg>
    