<svg width="14" height="14" viewBox="0 0 14 14" fill="none" xmlns="http://www.w3.org/2000/svg">
  <path d="M5.93132 10.6055C6.966 10.6055 7.92015 10.2741 8.70081 9.72172L11.6376 12.6307C11.7739 12.7657 11.9536 12.8332 12.1456 12.8332C12.5483 12.8332 12.8334 12.5264 12.8334 12.1336C12.8334 11.9495 12.7714 11.7715 12.6351 11.6426L9.7169 8.74593C10.3303 7.94811 10.6958 6.96005 10.6958 5.88606C10.6958 3.29009 8.55211 1.16666 5.93132 1.16666C3.31672 1.16666 1.16681 3.28395 1.16681 5.88606C1.16681 8.48204 3.31053 10.6055 5.93132 10.6055ZM5.93132 9.58671C3.88673 9.58671 2.1953 7.91129 2.1953 5.88606C2.1953 3.86083 3.88673 2.18542 5.93132 2.18542C7.97591 2.18542 9.66734 3.86083 9.66734 5.88606C9.66734 7.91129 7.97591 9.58671 5.93132 9.58671Z" fill="currentColor"/>
</svg>
