<svg xmlns="http://www.w3.org/2000/svg" width="14" height="14" viewBox="0 0 14 14" fill="none">
  <path d="M8.24357 0.866699C8.62026 0.866699 8.92688 1.17287 8.92705 1.54951C8.92705 2.0521 9.19783 2.52114 9.63249 2.77338C10.0734 3.02937 10.6203 3.02953 11.06 2.77605C11.3846 2.58931 11.8016 2.70037 11.9891 3.02428L13.0406 4.83979C13.2279 5.16429 13.1174 5.5814 12.7937 5.76951C12.3515 6.02552 12.0809 6.49552 12.0816 6.99937C12.0823 7.50437 12.3545 7.97508 12.791 8.2279C13.1165 8.41664 13.2278 8.8332 13.0412 9.15828L11.9884 10.9758C11.8003 11.2997 11.3839 11.4108 11.0593 11.2234C10.6191 10.9693 10.0729 10.9707 9.63382 11.2254C9.19737 11.4788 8.9265 11.9474 8.92639 12.4506C8.92639 12.8267 8.62036 13.1334 8.24357 13.1334H5.75324C5.37657 13.1334 5.0706 12.8272 5.07043 12.4506C5.07105 11.9473 4.80098 11.4783 4.36632 11.226C4.3638 11.2248 4.36155 11.2239 4.35966 11.2227L4.359 11.222C3.92561 10.971 3.37982 10.9699 2.94013 11.2234C2.61429 11.4114 2.1972 11.299 2.00975 10.9745L0.958909 9.16028C0.867734 9.00241 0.843821 8.81931 0.890362 8.64384C0.936935 8.46779 1.04994 8.32108 1.20714 8.22989C1.64865 7.97392 1.91908 7.50309 1.91791 6.9987C1.91665 6.49485 1.64506 6.02441 1.20914 5.77217C0.882224 5.5822 0.770979 5.16633 0.958244 4.84245L2.01108 3.02495C2.19853 2.701 2.61492 2.58926 2.94013 2.77671C3.3798 3.03018 3.92598 3.02943 4.36565 2.77471C4.80157 2.52122 5.07176 2.0521 5.07176 1.54951C5.07192 1.17287 5.37859 0.866699 5.7559 0.866699H8.24357ZM7.0004 4.95559C5.87296 4.95559 4.95596 5.87259 4.95596 7.00003C4.95596 8.12748 5.87296 9.04448 7.0004 9.04448C8.12785 9.04448 9.04485 8.12748 9.04485 7.00003C9.04485 5.87259 8.12785 4.95559 7.0004 4.95559Z" fill="currentColor"/>
</svg>
