<svg width="16" height="16" viewBox="0 0 16 16" fill="none" xmlns="http://www.w3.org/2000/svg">
<path fill-rule="evenodd" clip-rule="evenodd" d="M9.20508 1.64908C9.34711 1.46092 9.59246 1.37345 9.82617 1.43814C10.8956 1.73425 11.8588 2.28397 12.6475 3.01725C12.836 3.19267 12.8872 3.47177 12.7734 3.70279C12.6894 3.87361 12.6416 4.06698 12.6416 4.27213C12.642 4.98384 13.2198 5.56119 13.9316 5.56119H13.9492L14.0439 5.56803C14.2617 5.60071 14.446 5.75412 14.5137 5.96939C14.7168 6.61635 14.8261 7.30498 14.8262 8.01725C14.8261 8.48714 14.7783 8.94715 14.6875 9.39127C14.6274 9.6836 14.3566 9.8842 14.0596 9.85514C14.0176 9.85101 13.9748 9.8493 13.9316 9.84928C13.2196 9.84928 12.6417 10.4264 12.6416 11.1383C12.6418 11.4154 12.7284 11.6716 12.877 11.8815L12.9785 12.0124C13.1352 12.2383 13.1139 12.5478 12.9199 12.7497C12.1145 13.5865 11.0957 14.2195 9.95117 14.5602C9.64712 14.6504 9.32636 14.4804 9.22949 14.1784C9.06312 13.6579 8.57511 13.2819 8.00098 13.2819C7.42684 13.2819 6.93884 13.6579 6.77246 14.1784C6.6756 14.4804 6.35482 14.6504 6.05078 14.5602C4.9063 14.2195 3.88746 13.5865 3.08203 12.7497C2.88799 12.5478 2.8667 12.2383 3.02344 12.0124L3.125 11.8815C3.27359 11.6716 3.36018 11.4154 3.36035 11.1383C3.36023 10.4264 2.78231 9.84928 2.07031 9.84928C2.02718 9.8493 1.98439 9.85101 1.94238 9.85514C1.64532 9.88422 1.37453 9.68361 1.31445 9.39127C1.22363 8.94715 1.17584 8.48714 1.17578 8.01725C1.1758 7.30498 1.2851 6.61636 1.48828 5.96939L1.52344 5.88053C1.62268 5.68413 1.82728 5.5581 2.05273 5.56119C2.05845 5.56127 2.06453 5.56119 2.07031 5.56119C2.78213 5.56119 3.35994 4.98384 3.36035 4.27213C3.36035 4.06698 3.31258 3.87361 3.22852 3.70279C3.11474 3.47177 3.16596 3.19268 3.35449 3.01725C4.14316 2.28397 5.10639 1.73425 6.17578 1.43814L6.27734 1.41959C6.5118 1.39747 6.74146 1.52019 6.85156 1.736C7.06567 2.15497 7.50073 2.4401 8.00098 2.4401C8.50122 2.44009 8.93629 2.15497 9.15039 1.736L9.20508 1.64908ZM9.91406 2.6901C9.46435 3.2481 8.77483 3.60708 8.00098 3.60709C7.2271 3.60709 6.53761 3.24813 6.08789 2.6901C5.48427 2.90696 4.9277 3.22377 4.43848 3.62076C4.49541 3.82835 4.52734 4.04728 4.52734 4.27213C4.52697 5.48207 3.65097 6.48651 2.49902 6.68912C2.39684 7.11437 2.34181 7.55958 2.3418 8.01725C2.34183 8.24919 2.35772 8.47854 2.38477 8.70279C3.59281 8.85696 4.52723 9.88843 4.52734 11.1383C4.52721 11.5414 4.42644 11.9215 4.25391 12.2575C4.74015 12.6874 5.30149 13.0347 5.91406 13.278C6.34705 12.5807 7.1188 12.1149 8.00098 12.1149C8.88304 12.1149 9.65488 12.5808 10.0879 13.278C10.7004 13.0348 11.2608 12.6874 11.7471 12.2575C11.5747 11.9216 11.4747 11.5413 11.4746 11.1383C11.4747 9.8885 12.4093 8.85707 13.6172 8.70279C13.6442 8.47852 13.6601 8.24922 13.6602 8.01725C13.6601 7.55953 13.6042 7.11441 13.502 6.68912C12.3505 6.48613 11.475 5.48175 11.4746 4.27213C11.4746 4.04734 11.5056 3.82831 11.5625 3.62076C11.0734 3.22394 10.5175 2.90687 9.91406 2.6901ZM8.00098 5.24869C9.52969 5.24876 10.7695 6.48851 10.7695 8.01725C10.7692 9.54569 9.52948 10.7848 8.00098 10.7848C6.47248 10.7847 5.23276 9.54568 5.23242 8.01725C5.23242 6.48852 6.47227 5.24878 8.00098 5.24869ZM8.00098 6.41568C7.11661 6.41577 6.39941 7.13285 6.39941 8.01725C6.39975 8.90135 7.11681 9.61872 8.00098 9.61881C8.88515 9.61874 9.6022 8.90136 9.60254 8.01725C9.60254 7.13285 8.88536 6.41576 8.00098 6.41568Z" fill="currentColor"/>
</svg>
