<svg width="14" height="14" viewBox="0 0 14 14" fill="none" xmlns="http://www.w3.org/2000/svg">
  <path d="M13.0544 8.7829C12.4167 8.41262 12.0258 7.73376 12.0258 7.00004C12.0258 6.26633 12.4167 5.58747 13.0544 5.21718C13.1641 5.14861 13.2053 5.01147 13.1367 4.90176L11.9916 2.9269C11.9504 2.85147 11.875 2.81034 11.7996 2.81034C11.7584 2.81034 11.7173 2.82404 11.683 2.84461C11.3675 3.0229 11.011 3.1189 10.6544 3.1189C10.291 3.1189 9.93441 3.02289 9.61212 2.83775C8.97441 2.46747 8.58355 1.79547 8.58355 1.06175C8.58355 0.931468 8.4807 0.828613 8.35728 0.828613H5.64183C5.5184 0.828613 5.41556 0.931468 5.41556 1.06175C5.41556 1.79547 5.0247 2.46747 4.38698 2.83775C4.0647 3.02289 3.70813 3.1189 3.34471 3.1189C2.98813 3.1189 2.63156 3.0229 2.31613 2.84461C2.20642 2.77604 2.06927 2.81718 2.00755 2.9269L0.855559 4.90176C0.834988 4.93604 0.828125 4.97719 0.828125 5.01147C0.828125 5.09376 0.869277 5.16918 0.944706 5.21718C1.58242 5.58747 1.97328 6.25946 1.97328 6.99318C1.97328 7.73375 1.58241 8.41262 0.951549 8.7829H0.944706C0.834991 8.85147 0.793831 8.98861 0.862402 9.09833L2.00755 11.0732C2.0487 11.1486 2.12412 11.1897 2.19955 11.1897C2.2407 11.1897 2.28185 11.176 2.31613 11.1555C2.96071 10.792 3.74927 10.792 4.38698 11.1623C5.01784 11.5326 5.40869 12.2046 5.40869 12.9383C5.40869 13.0686 5.51155 13.1715 5.64183 13.1715H8.35728C8.4807 13.1715 8.58355 13.0686 8.58355 12.9383C8.58355 12.2046 8.97441 11.5326 9.61212 11.1623C9.93441 10.9772 10.291 10.8812 10.6544 10.8812C11.011 10.8812 11.3675 10.9772 11.683 11.1555C11.7927 11.224 11.9298 11.1829 11.9916 11.0732L13.1435 9.09833C13.1641 9.06404 13.171 9.02289 13.171 8.98861C13.171 8.90632 13.1298 8.8309 13.0544 8.7829ZM6.99955 9.05718C5.86127 9.05718 4.94241 8.13833 4.94241 7.00004C4.94241 5.86176 5.86127 4.9429 6.99955 4.9429C8.13784 4.9429 9.0567 5.86176 9.0567 7.00004C9.0567 8.13833 8.13784 9.05718 6.99955 9.05718Z"  fill="currentColor" />
</svg>
