<svg width="25" height="24" viewBox="0 0 25 24" fill="none" xmlns="http://www.w3.org/2000/svg">
    <path d="M14.4502 17.2716L9.34023 14.4846C8.84972 14.9715 8.22604 15.3023 7.54781 15.4352C6.86959 15.5682 6.16718 15.4974 5.52915 15.2317C4.89111 14.966 4.34602 14.5174 3.96257 13.9424C3.57913 13.3674 3.37451 12.6917 3.37451 12.0006C3.37451 11.3095 3.57913 10.6338 3.96257 10.0588C4.34602 9.48378 4.89111 9.03516 5.52915 8.7695C6.16718 8.50383 6.86959 8.43302 7.54781 8.56597C8.22604 8.69893 8.84972 9.0297 9.34023 9.5166L14.4502 6.7296C14.275 5.90733 14.4015 5.04946 14.8068 4.31285C15.2121 3.57625 15.869 3.01013 16.6573 2.71803C17.4457 2.42593 18.3128 2.42737 19.1002 2.72209C19.8876 3.0168 20.5426 3.58509 20.9454 4.32304C21.3483 5.06098 21.472 5.91927 21.294 6.74095C21.116 7.56263 20.6482 8.29279 19.9761 8.7979C19.3041 9.30301 18.4726 9.54932 17.6338 9.4918C16.7951 9.43427 16.0051 9.07674 15.4082 8.4846L10.2982 11.2716C10.4 11.7519 10.4 12.2483 10.2982 12.7286L15.4082 15.5166C16.0051 14.9245 16.7951 14.5669 17.6338 14.5094C18.4726 14.4519 19.3041 14.6982 19.9761 15.2033C20.6482 15.7084 21.116 16.4386 21.294 17.2602C21.472 18.0819 21.3483 18.9402 20.9454 19.6782C20.5426 20.4161 19.8876 20.9844 19.1002 21.2791C18.3128 21.5738 17.4457 21.5753 16.6573 21.2832C15.869 20.9911 15.2121 20.425 14.8068 19.6883C14.4015 18.9517 14.275 18.0939 14.4502 17.2716Z" fill="currentColor"/>
    </svg>
    