<svg width="16" height="16" viewBox="0 0 16 16" fill="none" xmlns="http://www.w3.org/2000/svg">
  <path d="M6.66665 14.6666C6.47776 14.6666 6.31954 14.6026 6.19198 14.4746C6.06398 14.347 5.99998 14.1888 5.99998 13.9999V1.99992C5.99998 1.81103 6.06398 1.65259 6.19198 1.52459C6.31954 1.39703 6.47776 1.33325 6.66665 1.33325C6.85554 1.33325 7.01398 1.39703 7.14198 1.52459C7.26954 1.65259 7.33331 1.81103 7.33331 1.99992V13.9999C7.33331 14.1888 7.26954 14.347 7.14198 14.4746C7.01398 14.6026 6.85554 14.6666 6.66665 14.6666ZM3.99998 10.6666C3.81109 10.6666 3.65265 10.6026 3.52465 10.4746C3.39709 10.347 3.33331 10.1888 3.33331 9.99992V5.99992C3.33331 5.81103 3.39709 5.65259 3.52465 5.52458C3.65265 5.39703 3.81109 5.33325 3.99998 5.33325C4.18887 5.33325 4.34731 5.39703 4.47531 5.52458C4.60287 5.65259 4.66665 5.81103 4.66665 5.99992V9.99992C4.66665 10.1888 4.60287 10.347 4.47531 10.4746C4.34731 10.6026 4.18887 10.6666 3.99998 10.6666ZM9.33331 11.9999C9.14442 11.9999 8.9862 11.9359 8.85865 11.8079C8.73065 11.6804 8.66665 11.5221 8.66665 11.3333V4.66658C8.66665 4.4777 8.73065 4.31925 8.85865 4.19125C8.9862 4.0637 9.14442 3.99992 9.33331 3.99992C9.5222 3.99992 9.68065 4.0637 9.80865 4.19125C9.9362 4.31925 9.99998 4.4777 9.99998 4.66658V11.3333C9.99998 11.5221 9.9362 11.6804 9.80865 11.8079C9.68065 11.9359 9.5222 11.9999 9.33331 11.9999ZM12 9.99992C11.8111 9.99992 11.6529 9.93592 11.5253 9.80792C11.3973 9.68036 11.3333 9.52214 11.3333 9.33325V6.66658C11.3333 6.4777 11.3973 6.31925 11.5253 6.19125C11.6529 6.0637 11.8111 5.99992 12 5.99992C12.1889 5.99992 12.3471 6.0637 12.4746 6.19125C12.6026 6.31925 12.6666 6.4777 12.6666 6.66658V9.33325C12.6666 9.52214 12.6026 9.68036 12.4746 9.80792C12.3471 9.93592 12.1889 9.99992 12 9.99992Z" fill="currentColor"/>
</svg>
