<svg xmlns="http://www.w3.org/2000/svg" width="14" height="14" viewBox="0 0 14 14" fill="none">
  <path d="M7.0001 1.1001C3.74659 1.1001 1.1001 3.74714 1.1001 7.0001C1.1001 10.2531 3.74659 12.9001 7.0001 12.9001C10.2536 12.9001 12.9001 10.2531 12.9001 7.0001C12.9001 3.74714 10.2536 1.1001 7.0001 1.1001ZM1.92335 7.0001C1.92335 6.41504 2.02763 5.85522 2.21094 5.33163C2.55122 7.80688 4.72242 8.016 4.81627 8.41061C4.92055 8.85517 4.81628 8.98689 4.8547 9.74978C4.89311 10.5127 5.94687 10.5236 6.35301 11.1273C6.47266 11.303 6.54183 11.6789 6.51219 12.0521C3.94089 11.8057 1.92335 9.63452 1.92335 7.0001ZM8.37769 11.882C8.75144 10.7113 9.87379 10.3145 9.98795 9.63781C10.0796 9.09501 9.36613 8.81729 8.72563 8.73826C8.09118 8.66527 8.18285 8.00063 7.7317 7.53083C7.28056 7.06102 6.98528 7.0879 6.35137 7.16694C5.71088 7.23993 5.1741 7.19439 4.99683 6.80417C4.82614 6.41394 5.04568 6.22733 4.57917 5.74381C4.19059 5.34096 4.60771 4.97983 4.81517 4.93099C5.14447 4.85196 5.73007 5.42767 6.0731 5.35742C7.10656 5.14447 5.86839 3.12201 7.4205 2.61324C7.69218 2.52432 7.94628 2.3081 8.07416 2.04026C8.96108 2.23236 9.75909 2.65824 10.4078 3.24769C10.5862 3.75537 10.7102 4.33824 10.6065 4.64724C10.399 5.28773 9.87822 5.7482 10.4468 6.79648C11.0401 7.89086 11.4062 8.0396 11.6729 7.73884C11.7788 7.61919 11.9166 7.53467 12.0538 7.48363C11.8524 9.58952 10.3595 11.3216 8.37769 11.882Z" fill="currentColor" stroke="currentColor" stroke-width="0.2"/>
</svg>