<svg width="14" height="14" viewBox="0 0 14 14" fill="none" xmlns="http://www.w3.org/2000/svg">
  <path d="M3.50543 3.79171C3.50543 2.50487 4.55193 1.45837 5.83877 1.45837C7.1256 1.45837 8.1721 2.50487 8.1721 3.79171C8.1721 5.07854 7.1256 6.12504 5.83877 6.12504C4.55193 6.12504 3.50543 5.07854 3.50543 3.79171ZM9.04475 7.97188C9.04183 7.94388 9.01969 7.89199 8.9771 7.86165C8.49235 7.50874 7.8425 7.29171 7.00016 7.29171H4.66683C2.2985 7.29171 1.4585 9.02422 1.4585 10.5117C1.4585 11.8417 2.16433 12.5417 3.50016 12.5417H7.99764C8.08514 12.5417 8.16684 12.4717 8.17267 12.3784C8.17267 12.3725 8.17267 12.3725 8.17267 12.3667V12.3608C8.16684 12.3142 8.16683 12.2617 8.16683 12.2092V10.8325C8.16683 10.2375 8.37683 9.75334 8.75016 9.44417V9.18754C8.75016 8.78562 8.85051 8.41171 9.02609 8.08446C9.04943 8.04071 9.04767 7.99988 9.04475 7.97188ZM13.1252 10.8331V12.208C13.1252 12.8188 12.8335 13.1245 12.2502 13.1245H9.91683C9.3335 13.1245 9.04183 12.8188 9.04183 12.208V10.8331C9.04183 10.3385 9.24308 10.0544 9.62516 9.95986V9.18697C9.62516 8.38314 10.2791 7.72864 11.0835 7.72864C11.8879 7.72864 12.5418 8.38314 12.5418 9.18697V9.95986C12.9239 10.0544 13.1252 10.3385 13.1252 10.8331ZM11.6668 9.18754C11.6668 8.86612 11.4055 8.60421 11.0835 8.60421C10.7615 8.60421 10.5002 8.86612 10.5002 9.18754V9.91671H11.6668V9.18754Z" fill="currentColor"/>
</svg>
