<svg width="16" height="16" viewBox="0 0 16 16" fill="none" xmlns="http://www.w3.org/2000/svg">
  <path d="M14.9163 11.0909C14.9163 12.169 14.2358 13.0895 12.8962 13.8237C11.6319 14.515 10.0667 14.8803 8.24359 14.909H8.00361C6.07666 14.909 4.42908 14.5437 3.11102 13.8202C1.77146 13.0859 1.09094 12.1654 1.09094 11.0909C1.09094 10.7793 1.15541 10.4713 1.28435 10.174C1.40971 9.8803 1.59954 9.59377 1.8431 9.31798C2.09024 9.04218 2.3911 8.79147 2.7421 8.57656C3.09311 8.36166 3.49068 8.16467 3.92406 7.98916C4.11031 7.91395 4.29298 7.9247 4.46848 8.01782C4.64398 8.10736 4.76218 8.25063 4.82307 8.44404C4.88396 8.62313 4.86605 8.80579 4.77651 8.98129C4.68696 9.15322 4.55444 9.27858 4.37894 9.36095C4.08882 9.47557 3.83094 9.60093 3.60529 9.73345C3.38323 9.86956 3.18982 10.0164 3.03222 10.174C2.86388 10.3316 2.73852 10.4928 2.65614 10.6504C2.57735 10.8044 2.53795 10.9512 2.53795 11.0873C2.53795 11.6962 3.07878 12.2478 4.14613 12.7206C5.24213 13.2077 6.53512 13.4513 7.99287 13.4513H8.00003C9.46136 13.4513 10.7579 13.2041 11.8539 12.7206C12.9213 12.2478 13.4621 11.6962 13.4621 11.0873C13.4621 10.9512 13.4227 10.8044 13.3439 10.6504C13.2615 10.4928 13.1362 10.3316 12.9714 10.1776C12.8103 10.0164 12.6168 9.86956 12.3948 9.73703C12.1727 9.60451 11.9148 9.47915 11.6283 9.36454C11.4456 9.27857 11.3131 9.14963 11.2236 8.98129C11.134 8.80579 11.1197 8.62313 11.177 8.44404C11.2379 8.25063 11.3561 8.10736 11.5316 8.01782C11.7107 7.9247 11.8933 7.91753 12.076 7.98916C12.4592 8.14318 12.8174 8.32226 13.1362 8.51567C13.455 8.70909 13.7415 8.92399 13.9815 9.1568C14.2895 9.44333 14.5223 9.75494 14.6763 10.0773C14.8303 10.4032 14.9091 10.7435 14.9091 11.0909H14.9163ZM3.67693 5.63241H6.04443V11.7105C6.04443 11.9147 6.11606 12.0902 6.25217 12.2263C6.39185 12.366 6.56377 12.434 6.76793 12.434C6.97209 12.434 7.14759 12.3624 7.28369 12.2263C7.42338 12.0866 7.49143 11.9147 7.49143 11.7105V9.34305H8.51222V11.7105C8.51222 11.9147 8.58385 12.0902 8.71995 12.2263C8.85964 12.366 9.03156 12.434 9.23572 12.434C9.43987 12.434 9.61538 12.3624 9.75148 12.2263C9.89117 12.0866 9.95922 11.9147 9.95922 11.7105V5.63241H12.3267C12.5309 5.63241 12.7064 5.56078 12.8425 5.42467C12.9822 5.28499 13.0502 5.11306 13.0502 4.90891C13.0502 4.70475 12.9786 4.52925 12.8425 4.39314C12.7028 4.25346 12.5309 4.18541 12.3267 4.18541H3.67693C3.47277 4.18541 3.29727 4.25704 3.16116 4.39314C3.02148 4.53283 2.95342 4.70475 2.95342 4.90891C2.95342 5.11306 3.02506 5.28857 3.16116 5.42467C3.30085 5.56436 3.47277 5.63241 3.67693 5.63241ZM8.0072 3.77709C8.37611 3.77709 8.69488 3.64457 8.95635 3.38311C9.21781 3.12164 9.35033 2.80287 9.35033 2.43396C9.35033 2.06504 9.21781 1.74627 8.95635 1.48481C8.69488 1.22334 8.37611 1.09082 8.0072 1.09082C7.63828 1.09082 7.31951 1.22334 7.05805 1.48481C6.79658 1.74627 6.66406 2.06504 6.66406 2.43396C6.66406 2.80287 6.79658 3.12164 7.05805 3.38311C7.31951 3.64457 7.63828 3.77709 8.0072 3.77709Z" fill="currentColor"/>
</svg>
