<svg width="24" height="24" viewBox="0 0 24 24" fill="none" xmlns="http://www.w3.org/2000/svg">
  <path d="M12 2C6.48 2 2 6.48 2 12C2 17.52 6.48 22 12 22C17.52 22 22 17.52 22 12C22 6.48 17.52 2 12 2ZM16.03 10.2L11.36 14.86C11.22 15.01 11.03 15.08 10.83 15.08C10.64 15.08 10.45 15.01 10.3 14.86L7.97 12.53C7.68 12.24 7.68 11.76 7.97 11.47C8.26 11.18 8.74 11.18 9.03 11.47L10.83 13.27L14.97 9.14001C15.26 8.84001 15.74 8.84001 16.03 9.14001C16.32 9.43001 16.32 9.90001 16.03 10.2Z" fill="#63CE29"/>
</svg>
