<svg width="16" height="16" viewBox="0 0 16 16" fill="none" xmlns="http://www.w3.org/2000/svg">
  <path fill-rule="evenodd" clip-rule="evenodd" d="M5.49996 2C5.49996 1.724 5.72396 1.5 5.99996 1.5H9.33329C9.60929 1.5 9.83329 1.724 9.83329 2C9.83329 2.276 9.60929 2.5 9.33329 2.5H5.99996C5.72396 2.5 5.49996 2.276 5.49996 2ZM12.6666 9C12.6666 11.7613 10.428 14 7.66663 14C4.90529 14 2.66663 11.7613 2.66663 9C2.66663 6.23867 4.90529 4 7.66663 4C8.78196 4 9.80793 4.36932 10.6399 4.98665L11.6466 3.97998C11.8399 3.78665 12.16 3.78665 12.3533 3.97998C12.5466 4.17331 12.5466 4.49335 12.3533 4.68669L11.38 5.65999C12.1773 6.54599 12.6666 7.71467 12.6666 9ZM9.29993 9.60002L8.16663 8.75V6.66667C8.16663 6.39067 7.94263 6.16667 7.66663 6.16667C7.39063 6.16667 7.16663 6.39067 7.16663 6.66667V9C7.16663 9.15733 7.24066 9.30532 7.36666 9.39998L8.69999 10.4C8.78999 10.4673 8.89531 10.5 8.99931 10.5C9.15198 10.5 9.30202 10.4306 9.40002 10.3C9.56602 10.0793 9.52059 9.76535 9.29993 9.60002Z" fill="currentColor"/>
</svg>