<svg width="16" height="16" viewBox="0 0 16 16" fill="none" xmlns="http://www.w3.org/2000/svg">
  <path d="M13.8333 4C13.8333 4.276 13.6093 4.5 13.3333 4.5H2.66663C2.39063 4.5 2.16663 4.276 2.16663 4C2.16663 3.724 2.39063 3.5 2.66663 3.5H5.47596C5.53796 3.37867 5.58595 3.24134 5.63729 3.088L5.77196 2.68333C5.90796 2.27533 6.28995 2 6.72062 2H9.2793C9.70996 2 10.092 2.27533 10.228 2.68333L10.3626 3.088C10.414 3.24134 10.462 3.37867 10.524 3.5H13.3333C13.6093 3.5 13.8333 3.724 13.8333 4ZM12.3733 5.16667C12.4886 5.16667 12.5806 5.26467 12.5726 5.38L12.1266 12.1333C12.0533 13.1867 11.5 14 10.1266 14H5.87329C4.49996 14 3.94662 13.1867 3.87329 12.1333L3.42729 5.38C3.41996 5.26467 3.51129 5.16667 3.62663 5.16667H12.3733ZM7.16663 7.33333C7.16663 7.06 6.93996 6.83333 6.66663 6.83333C6.39329 6.83333 6.16663 7.06 6.16663 7.33333V10.6667C6.16663 10.94 6.39329 11.1667 6.66663 11.1667C6.93996 11.1667 7.16663 10.94 7.16663 10.6667V7.33333ZM9.83329 7.33333C9.83329 7.06 9.60663 6.83333 9.33329 6.83333C9.05996 6.83333 8.83329 7.06 8.83329 7.33333V10.6667C8.83329 10.94 9.05996 11.1667 9.33329 11.1667C9.60663 11.1667 9.83329 10.94 9.83329 10.6667V7.33333Z" fill="currentColor"/>
</svg>
