<svg width="20" height="20" viewBox="0 0 20 20" fill="none" xmlns="http://www.w3.org/2000/svg">
<path d="M10.9033 2.19043C11.306 2.19043 11.6328 2.51721 11.6328 2.91992C11.6328 3.32262 11.306 3.64941 10.9033 3.64941H4.88477C4.39466 3.64948 3.95621 3.78617 3.66309 3.98926C3.37269 4.19061 3.29903 4.39568 3.29883 4.52344V13.1416C3.78865 12.895 4.35044 12.7676 4.91406 12.7676H16.8408V12.2041C16.8408 11.8014 17.1676 11.4746 17.5703 11.4746C17.9729 11.4748 18.2988 11.8015 18.2988 12.2041V16.3711C18.2988 16.827 18.0619 17.2106 17.7393 17.458C17.4208 17.7021 17.0211 17.8193 16.6328 17.8193H4.91406C4.15274 17.8193 3.39481 17.5889 2.8125 17.1426C2.33328 16.7752 1.98902 16.2681 1.87891 15.6904C1.85498 15.6183 1.84085 15.5411 1.84082 15.4609V4.52344C1.84102 3.8006 2.25601 3.18987 2.83301 2.79004C3.40788 2.39182 4.14751 2.1905 4.88477 2.19043H10.9033ZM4.91406 14.2256C4.43235 14.2256 3.99696 14.3742 3.7002 14.6016C3.40763 14.8258 3.29883 15.083 3.29883 15.2939L3.30371 15.374C3.32835 15.5675 3.44425 15.7881 3.7002 15.9844C3.99696 16.2118 4.4322 16.3604 4.91406 16.3604H16.6328C16.7315 16.3603 16.8035 16.3308 16.8408 16.3066V14.2256H4.91406ZM15.9102 3.125C16.0403 3.12508 16.1664 3.17084 16.2666 3.25391C16.3668 3.33711 16.4349 3.45308 16.459 3.58105L16.8281 5.5293C16.8466 5.62657 16.8939 5.7171 16.9639 5.78711C17.0338 5.85691 17.1236 5.90348 17.2207 5.92188L19.1689 6.29102L19.2627 6.31641C19.353 6.35028 19.4337 6.40747 19.4961 6.48242C19.5794 6.58267 19.6259 6.70953 19.626 6.83984C19.626 6.97025 19.5794 7.09694 19.4961 7.19727C19.4337 7.27235 19.3531 7.32935 19.2627 7.36328L19.1689 7.38965L17.2207 7.75781C17.1235 7.77622 17.0339 7.82367 16.9639 7.89355C16.8938 7.96362 16.8465 8.05402 16.8281 8.15137L16.459 10.0996C16.4349 10.2276 16.3668 10.3436 16.2666 10.4268C16.1664 10.5097 16.0402 10.5556 15.9102 10.5557C15.7799 10.5556 15.653 10.5099 15.5527 10.4268C15.4777 10.3643 15.4206 10.2828 15.3867 10.1924L15.3604 10.0996L14.9922 8.15137C14.9738 8.05408 14.9264 7.9636 14.8564 7.89355C14.7865 7.82372 14.6967 7.77621 14.5996 7.75781L12.6504 7.38965C12.5226 7.36554 12.4064 7.29736 12.3232 7.19727C12.2401 7.09699 12.1943 6.97013 12.1943 6.83984C12.1944 6.70957 12.24 6.58266 12.3232 6.48242C12.4064 6.38238 12.5226 6.3151 12.6504 6.29102L14.5996 5.92188C14.6967 5.90347 14.7865 5.85693 14.8564 5.78711C14.9264 5.71712 14.9737 5.62654 14.9922 5.5293L15.3604 3.58105C15.3844 3.45313 15.4526 3.33711 15.5527 3.25391C15.653 3.17064 15.7798 3.12507 15.9102 3.125Z" fill="#24292F"/>
</svg>
