<svg xmlns="http://www.w3.org/2000/svg" width="24" height="24" viewBox="0 0 24 24" fill="none">
  <path d="M19 3C19.5523 3 20 3.44772 20 4V20C20 20.5523 19.5523 21 19 21H6C4.89543 21 4 20.1046 4 19V6C4 4.34315 5.34315 3 7 3H19ZM7 16C6.44772 16 6 16.4477 6 17V18C6 18.5523 6.44772 19 7 19H17.5996C17.8205 19 18 18.8205 18 18.5996V16.4004C18 16.1795 17.8205 16 17.5996 16H7ZM15.7148 4.70996C15.592 4.33441 15.0643 4.33439 14.9414 4.70996L14.4951 6.08789C14.3739 6.45956 14.0824 6.75106 13.7139 6.87305L12.3506 7.3252C11.9783 7.44915 11.9783 7.97957 12.3506 8.10352L13.7139 8.55566C14.0825 8.6777 14.374 8.96898 14.4951 9.34082L14.9414 10.7178C15.0641 11.0938 15.5922 11.0938 15.7148 10.7178L16.1611 9.34082C16.2822 8.96912 16.573 8.67779 16.9414 8.55566L18.3047 8.10352C18.6777 7.97987 18.6777 7.44889 18.3047 7.3252L16.9414 6.87305C16.5731 6.75096 16.2823 6.45943 16.1611 6.08789L15.7148 4.70996Z" fill="currentColor"/>
</svg>