<svg width="14" height="14" viewBox="0 0 14 14" fill="none" xmlns="http://www.w3.org/2000/svg">
<path d="M11.8003 1.40017C11.8983 1.40036 11.978 1.47984 11.978 1.57791V12.4226C11.9778 12.5205 11.8982 12.6002 11.8003 12.6004H3.71143C2.72959 12.6004 1.93311 11.8039 1.93311 10.822V3.17752C1.93323 2.19578 2.72966 1.40017 3.71143 1.40017H11.8003ZM3.97803 9.48904C3.5853 9.48904 3.26613 9.80725 3.26611 10.2V10.5554C3.26611 10.9482 3.58529 11.2664 3.97803 11.2664H10.644V9.48904H3.97803ZM9.2876 2.46463C9.21071 2.23037 8.87923 2.23046 8.80225 2.46463L8.521 3.32107C8.44498 3.55232 8.26302 3.73338 8.03174 3.80935L7.17529 4.0906C6.94149 4.16769 6.9415 4.49886 7.17529 4.57595L8.03174 4.8572C8.26301 4.93316 8.44496 5.11427 8.521 5.34549L8.80225 6.20193C8.87917 6.4362 9.21071 6.43623 9.2876 6.20193L9.56787 5.34549C9.64391 5.11414 9.82669 4.93313 10.0581 4.8572L10.9126 4.57595C11.1469 4.49907 11.1469 4.16749 10.9126 4.0906L10.0581 3.80935C9.82666 3.73342 9.6439 3.55245 9.56787 3.32107L9.2876 2.46463Z" fill="currentColor"/>
</svg>
