<svg width="20" height="20" viewBox="0 0 20 20" fill="none" xmlns="http://www.w3.org/2000/svg">
<path d="M6.98383 2.81684C7.26851 2.53237 7.73134 2.53244 8.01606 2.81684C8.30069 3.10154 8.3006 3.56432 8.01606 3.84907L5.09418 6.77094H12.0834C12.7808 6.77099 13.4714 6.90846 14.1157 7.17524C14.76 7.44215 15.3461 7.83348 15.8393 8.32661C16.3325 8.8198 16.7237 9.40588 16.9907 10.0502C17.2576 10.6947 17.3959 11.3859 17.3959 12.0834C17.3959 12.7808 17.2575 13.4714 16.9907 14.1157C16.7237 14.7602 16.3326 15.346 15.8393 15.8393C15.346 16.3326 14.7602 16.7237 14.1157 16.9907C13.4713 17.2575 12.7809 17.3959 12.0834 17.3959H9.16645C8.76388 17.3958 8.43701 17.069 8.43696 16.6665C8.43715 16.264 8.76396 15.9371 9.16645 15.937H12.0834C12.5894 15.9369 13.0906 15.8366 13.5581 15.643C14.0255 15.4493 14.4503 15.1658 14.8081 14.8081C15.1658 14.4503 15.4493 14.0254 15.643 13.5581C15.8366 13.0907 15.9369 12.5893 15.937 12.0834C15.9369 11.5775 15.8366 11.0762 15.643 10.6088C15.4493 10.1414 15.1658 9.71565 14.8081 9.35786C14.4503 9.00025 14.0253 8.71651 13.5581 8.5229C13.0907 8.32937 12.5893 8.229 12.0834 8.22895H5.09418L8.01606 11.1508C8.30031 11.4355 8.30033 11.8974 8.01606 12.1821C7.7313 12.4668 7.26859 12.4668 6.98383 12.1821L2.81684 8.01606C2.53244 7.73135 2.53238 7.26851 2.81684 6.98384L6.98383 2.81684Z" fill="currentColor"/>
</svg>
