<svg width="20" height="20" viewBox="0 0 20 20" fill="none" xmlns="http://www.w3.org/2000/svg">
  <path
    d="M6.98295 2.81691C7.26762 2.53231 7.73042 2.53246 8.01518 2.81691C8.29977 3.1016 8.2997 3.56342 8.01518 3.84816L5.09331 6.77003H12.0826C12.7801 6.77003 13.4713 6.90746 14.1158 7.17433C14.7601 7.44124 15.3462 7.83259 15.8394 8.3257C16.3325 8.81884 16.7238 9.40505 16.9908 10.0493C17.2577 10.6937 17.395 11.3851 17.3951 12.0825C17.3951 12.7801 17.2577 13.4713 16.9908 14.1157C16.7238 14.7602 16.3326 15.3461 15.8394 15.8394C15.3461 16.3326 14.7602 16.7238 14.1158 16.9907C13.4713 17.2577 12.7802 17.395 12.0826 17.395H9.16557C8.76316 17.3947 8.43706 17.068 8.43706 16.6655C8.43745 16.2634 8.7634 15.9374 9.16557 15.937H12.0826C12.5886 15.937 13.0897 15.8367 13.5572 15.6431C14.0248 15.4494 14.4503 15.166 14.8081 14.8081C15.166 14.4502 15.4494 14.0247 15.6431 13.5571C15.8367 13.0897 15.9371 12.5885 15.9371 12.0825C15.937 11.5766 15.8367 11.0754 15.6431 10.6079C15.4494 10.1405 15.1659 9.71474 14.8081 9.35695C14.4503 8.99922 14.0246 8.71561 13.5572 8.52199C13.0897 8.32846 12.5885 8.22804 12.0826 8.22804H5.09331L8.01518 11.1499C8.29992 11.4347 8.29988 11.8974 8.01518 12.1821C7.73041 12.4667 7.26765 12.4668 6.98295 12.1821L2.81694 8.01515C2.53247 7.73037 2.53228 7.26758 2.81694 6.98292L6.98295 2.81691Z"
    fill="currentColor" />
</svg>