<svg width="20" height="20" viewBox="0 0 20 20" fill="none" xmlns="http://www.w3.org/2000/svg">
  <path d="M17.9417 17.0583L14.7409 13.8575C15.8109 12.5883 16.4583 10.9525 16.4583 9.16667C16.4583 5.14583 13.1875 1.875 9.16667 1.875C5.14583 1.875 1.875 5.14583 1.875 9.16667C1.875 13.1875 5.14583 16.4583 9.16667 16.4583C10.9525 16.4583 12.5884 15.8108 13.8575 14.7408L17.0583 17.9417C17.18 18.0633 17.34 18.125 17.5 18.125C17.66 18.125 17.82 18.0642 17.9417 17.9417C18.1859 17.6983 18.1859 17.3025 17.9417 17.0583ZM3.125 9.16667C3.125 5.835 5.835 3.125 9.16667 3.125C12.4983 3.125 15.2083 5.835 15.2083 9.16667C15.2083 12.4983 12.4983 15.2083 9.16667 15.2083C5.835 15.2083 3.125 12.4983 3.125 9.16667ZM11.6667 8.54167H6.66667C6.32167 8.54167 6.04167 8.82167 6.04167 9.16667C6.04167 9.51167 6.32167 9.79167 6.66667 9.79167H11.6667C12.0117 9.79167 12.2917 9.51167 12.2917 9.16667C12.2917 8.82167 12.0117 8.54167 11.6667 8.54167Z" fill="currentColor"/>
</svg>
