<svg xmlns="http://www.w3.org/2000/svg" width="390" height="288" viewBox="0 0 390 288" fill="none">
  <g opacity=".1">
    <path d="M260.91 153.83C256.29 151.62 250 152.2 244.97 152.27C244.22 153.22 243.47 154.09 242.59 154.92C248.03 153.73 255.14 153.56 260.54 154.93C261.29 155.23 262.42 155.6 263.05 156.06C264.07 156.79 264.66 158.66 264.22 160.23C263.98 161.08 263.31 161.68 262.54 162.06C258.72 163.94 251.98 161.33 247.63 163.26C244.05 164.85 239.26 174.25 237.12 177.6C234.93 181.05 232.58 184.84 229.66 187.73C229.62 192.23 229.17 196.69 229.3 201.21C229.37 203.39 229.53 205.74 229.8 207.91C229.93 208.99 230.27 210.03 230.34 211.12C230.37 211.62 230.33 212.04 230.18 212.53L229.86 212.79C229.4 212.69 229.21 212.58 228.92 212.19C226.68 209.17 227.36 192.6 227.92 188.55C227.96 188.31 227.99 188.42 227.78 188.22C226.24 188.32 224.71 188.41 223.16 188.44C223.26 190.9 223.05 193.35 223.02 195.81C222.96 199.86 223.13 204.09 223.71 208.11C223.87 209.27 223.98 210.51 224.3 211.64C224.41 212.04 224.34 212.43 224.12 212.78C223.9 213.13 223.78 213.16 223.41 213.3C222.84 213.04 222.64 212.81 222.42 212.2C220.75 207.62 220.95 193.06 221.41 188.07C218.6 185.41 216.84 178.97 216.07 175.17C211.53 176.23 208.39 176.58 203.69 176.14L203.43 175.95C203.38 175.94 203.34 175.94 203.29 175.93C202.11 175.77 201.02 175.29 199.86 175.06C198.44 176.29 198.28 180.06 198.14 181.89C197.95 184.51 197.85 187.54 198.5 190.09C195.19 193.53 191.75 196.81 188.59 200.39C185.93 203.4 183.53 206.67 181.01 209.8C180.19 210.82 178.83 211.82 178.29 212.99C178.31 214.01 178.55 215.03 178.88 216C180.06 221.91 181.02 227.94 182.37 233.81C186.64 230.09 189.62 228.14 195.37 227.48C195.25 222.86 195.74 218.26 196.03 213.65C196.18 211.16 196.07 208.4 196.56 205.97C196.93 205.6 196.98 205.57 197.48 205.46C197.89 205.71 198.11 205.84 198.2 206.34C198.44 207.67 198.14 209.46 198.06 210.83C197.77 216.25 196.96 221.79 197.1 227.21C204.21 227.4 211.18 227.02 218.1 229.01C219.2 227.65 220.65 226.77 222.13 225.87C227.11 222.83 232.44 220.89 238.25 220.24C243.71 219.63 248.47 220.8 253.8 221.72C257.08 222.28 260.39 222.7 263.69 223.17C263.46 221.62 263.25 220.05 262.87 218.53C262.43 216.74 261 214.51 261.39 212.68L261.67 212.46C262.51 212.75 262.96 213.52 263.33 214.27C264.19 216 264.56 218.01 264.85 219.9C266.74 216.3 268.03 212.88 269 208.93C269.38 207.38 269.69 205.81 269.92 204.23C270.24 202 271.32 190.25 273.06 189.54C273.47 189.8 273.53 189.97 273.61 190.45C273.7 190.96 273.66 191.52 273.59 192.02C273.29 194.43 272.61 196.8 272.26 199.2C271.82 202.16 271.68 205.19 271.06 208.13C270.62 210.26 269.99 212.44 269.28 214.5C268.22 217.59 266.37 220.36 265.3 223.45C267.57 223.87 279.37 227.94 280.51 229.42C280.63 229.57 280.68 229.72 280.74 229.9C280.61 230.35 280.57 230.41 280.22 230.72C279.23 230.71 271.02 226.94 269.1 226.31C264.74 224.89 260.01 224.38 255.48 223.68C251.64 223.09 247.74 222.08 243.86 221.87C237.04 221.51 225.61 224.31 220.6 229.13C220.48 229.26 220.36 229.38 220.24 229.51C224.14 230.77 228.1 232.33 230.08 236.18C231.95 239.79 231.3 243.65 231.38 247.52C233.96 247.37 237.09 246.8 239.18 248.71C240.26 249.7 240.68 251.09 240.69 252.51C240.71 254.4 239.96 256.58 238.6 257.93C238.23 258.31 237.82 258.65 237.43 258.99C236.78 259.13 236.13 259.26 235.49 259.46L153.93 259.55C134.53 259.63 115.09 259.86 95.7 259.61C92.42 259.57 89.22 259.15 85.96 259.04C81.41 258.89 76.84 259.1 72.28 258.96C71.1 258.93 93.45 248.1 92.89 248.1C92.07 248.1 91.38 248.1 90.5 248.1C89.03 248.1 86.62 248.22 85.18 248.22C82.37 248.23 80.12 247.95 77.31 247.84C76.75 247.82 76.2 247.65 75.68 247.4C75.39 247 75.34 246.85 75.34 246.36C75.99 245.73 77.27 245.82 78.11 245.83C81.12 245.85 87.96 246.46 90.5 246.05C89.02 245.6 82.67 256.94 81.85 255.48C80.42 252.94 79.63 250.22 78.97 247.4C77.58 241.43 80.05 243.53 78.97 237.5C77.79 230.94 95.98 260.62 94.69 254.08C139.25 228.96 143.96 221.87 177.59 211.03C180.31 208.02 182.68 204.7 185.29 201.6C188.78 197.45 192.63 193.37 196.58 189.66C196.27 184.38 195.86 178.97 198.38 174.11C192.44 171.45 187.82 166.52 185.54 160.43C184.72 158.29 184.14 156.07 183.81 153.81C183.31 150.25 183.47 146.68 183.43 143.1C183.36 137.65 182.81 132.35 183.98 126.95C180.96 128.38 177.25 130.06 173.87 128.82C172.8 128.42 171.95 127.71 171.47 126.68C170.7 125 171.16 122.9 171.82 121.27C172.93 118.54 175.1 116.12 177.26 114.16C175.6 114.03 174.21 113.6 173.09 112.26C172.48 111.52 172.01 110.63 171.59 109.77C171.96 106.76 172.83 104.94 175.29 103.05C177.12 101.64 179.29 100.63 181.52 100.03C188.56 98.12 194.41 101.27 201.06 100.19C199.24 99.42 195.68 99.47 194.8 97.4C194.5 96.68 194.59 95.92 194.91 95.22C195.56 93.76 197.27 92.66 198.75 92.14C200.04 91.68 201.44 91.49 202.78 91.29C207.6 90.57 211.92 90.67 216.36 92.88C219.89 94.64 222.5 97.72 225.57 100.11C229.88 97.32 234.85 95.59 240.01 96.67C241.8 97.04 244.02 98.07 245.03 99.68C245.36 100.2 245.56 100.82 245.8 101.39C245.26 104.04 244.74 104.4 242.71 106.02C246.46 106.8 250.09 108.97 252.23 112.21C253.46 114.07 254.21 116.52 253.71 118.74C253.25 120.76 251.73 122.02 250.04 123.06C249.51 123.39 248.97 123.64 248.39 123.87C249.35 127.68 248.95 130.75 246.93 134.11C245.94 135.75 244.89 137.34 243.91 138.99C245.94 142.41 246.34 146.81 245.54 150.67C253.09 150.11 261.43 150.63 267.43 155.75C270.41 158.29 272.55 161.57 272.8 165.54C272.9 167.15 272.62 168.79 272.19 170.34C273.13 171.06 278.14 171.31 279.63 171.57C285.78 172.63 293.14 174.97 297.73 179.31C299.73 181.22 301.37 183.65 302.79 186C304.72 189.17 306.27 193.07 306.78 196.75C307.13 199.33 307.57 201.63 307.74 204.23C307.94 207.25 307.86 210.57 307.74 213.6C307.32 224.12 303.58 243.41 297.24 251.77C295.62 253.9 292.71 256.85 290.08 257.73C294.75 258.01 299.44 258.03 304.12 258.12C308.24 258.2 312.35 258.36 316.47 258.32C316.42 258.25 314.86 257.45 314.81 257.39C312.74 255.73 312.71 255.66 311.12 253.39C307.37 248.05 308.31 234.47 308.31 227.58C308.36 227.02 308.4 226.46 308.7 225.98C310.82 225.18 336.48 225.37 339.98 225.61C340.95 225.68 342.01 225.8 342.91 226.22C344.07 226.76 345.16 228.01 345.59 229.24C345.61 229.3 345.63 229.37 345.65 229.43C348.67 229.44 352.01 229.69 354.29 231.92C355.69 233.29 356.58 235.17 356.56 237.14C356.54 239.12 355.63 240.89 354.22 242.24C352.27 244.09 348.87 245.62 346.14 245.44C345.93 245.43 345.78 245.37 345.57 245.31C345.45 245.27 345.31 245.24 345.18 245.21C344.28 246.22 343.92 247.64 343.45 248.89C341.93 252.93 339.36 256.49 335.27 258.26L342.4 258.33C343.68 258.33 345.04 258.19 346.31 258.33C346.82 258.39 347.06 258.47 347.45 258.8C347.35 259.22 347.33 259.28 346.96 259.51C346.5 259.81 345.86 259.93 345.32 259.96C344.06 260.02 342.76 259.86 341.5 259.85C338.53 259.82 335.54 259.89 332.57 259.91C317.29 260.02 302.04 259.63 286.76 259.46C286.33 259.19 286.27 259.23 286.12 258.72C286.44 257.95 287.53 257.36 288.17 256.82C289.45 256.31 290.97 255.27 292.07 254.43C301.61 247.2 304.22 227.77 305.73 216.68C306.21 213.1 306.27 209.44 306.08 205.86C305.9 202.49 305.54 199.23 304.93 195.9C304.12 191.5 301.6 186.78 298.89 183.25C292.96 175.56 283.79 173.73 274.75 172.51C273.12 172.03 271.42 172.16 269.76 171.97C268.98 171.88 267.75 171.66 267.25 171.02C267.31 170.7 267.24 170.69 267.53 170.48C268.32 169.91 269.38 170.27 270.26 170.44C270.92 168.4 271.27 166.43 270.89 164.3C270.29 160.87 268.12 158.14 265.31 156.19C263.9 155.12 262.54 154.49 260.91 153.83ZM186.23 100.64C182.4 101.08 177.03 102.86 174.58 105.94C173.85 106.85 173.39 107.96 173.51 109.14C173.62 110.18 174.23 111.07 175.05 111.69C175.91 112.34 177.06 112.7 178.14 112.53C179.13 112.38 180.34 111.76 180.97 110.96C179.42 111.09 178.19 111.47 176.63 111.01C176.07 110.1 175.59 109.42 175.85 108.31C176.31 106.32 178.29 104.88 179.97 103.93C181.81 102.87 183.95 102 185.99 101.39C186.93 101.11 188.76 101.19 189.52 100.72C188.46 100.53 187.29 100.42 186.23 100.64ZM240.21 107.43L239.48 108.25L239.61 108.45L239.85 108.48C242.95 108.82 246.43 109.94 248.42 112.48C249.61 113.98 250.52 116.17 250.31 118.12C250.19 119.21 249.21 120.33 249.4 121.36C249.54 121.36 249.74 121.41 249.87 121.35C251.12 120.22 251.93 118.98 252 117.25C252.1 115.14 251.03 113.24 249.62 111.75C247.49 109.48 243.79 107.5 240.62 107.46C240.47 107.46 240.36 107.47 240.21 107.43ZM183.77 111.14C183.73 111.18 183.69 111.22 183.65 111.26C182.65 112.3 181.41 113.14 180.27 114.03C176.28 117.18 173.65 120.2 172.78 125.31C173.52 126.42 174.16 127.19 175.57 127.45C177.35 127.78 179.37 127 181.06 126.46C181.56 126.15 182.07 125.85 182.56 125.53C180.74 126.16 177.88 127.11 176.03 126.2C175.52 125.95 175.19 125.55 175.04 124.99C174.63 123.4 175.38 121.41 176.23 120.07C177.17 118.61 178.39 117.15 179.58 115.88C180.52 114.87 183.79 112.38 184.19 111.33C184.04 111.25 183.94 111.17 183.77 111.14ZM211.79 118.2C209.27 119.55 207.54 121.59 205.36 123.37C202.08 126.06 195.89 129.58 191.68 129.82C190.64 129.38 189.78 128.95 189.35 127.82C188.97 126.84 189.28 125.76 189.73 124.86C190.79 122.75 192.72 121.25 193.97 119.27C192 120.78 187.25 123.44 186.23 125.29C185.63 126.38 185.43 127.74 185.27 128.96C184.73 133.13 184.99 137.32 185.08 141.51C185.27 150.69 184.71 158.22 190.76 166C194.55 170.78 200.09 173.88 206.16 174.61C210.48 175.11 215.69 173.94 219.4 171.59C220.46 170.93 221.43 169.84 222.6 169.42C223.03 169.27 223.47 169.48 223.8 169.74C223.89 170.11 223.94 170.21 223.72 170.55C222.98 171.7 219.05 173.87 217.76 174.55C218.38 176.76 219.02 178.97 219.75 181.15C220.37 182.89 221.14 185.53 222.94 186.41C224.72 187.27 226.81 186.31 228.63 186.01C233.17 181.59 238.25 172.95 241.26 167.26C238.46 165.99 236.65 164.48 235.56 161.54C235.15 160.45 234.83 159.33 234.52 158.21C233.71 158.02 232.94 157.87 232.26 157.38L232.02 156.98L232.17 156.54C233.14 156.06 234.75 156.26 235.85 156.16C239.42 155.85 242.54 153.62 243.66 150.19C244.67 147.07 244.27 143.08 242.72 140.2C242.07 138.99 241.09 137.94 240.2 136.9C237.46 135.89 234.04 135.5 231.31 136.8C230.63 137.12 230.07 137.6 229.56 138.14C228.62 137.95 227.65 137.81 226.76 137.47C224.51 133.85 224.92 127.17 223.14 123.01C223.1 122.91 223.06 122.81 223.02 122.71L222.95 122.54C219.76 124.96 215.6 128.54 211.28 127.92C210.01 127.74 208.73 127.1 207.97 126.05C207.82 125.85 207.68 125.64 207.55 125.43C207.75 122.48 209.27 121.14 211.42 119.28C211.73 119.02 212.04 118.75 212.37 118.5L212.35 118.23L211.79 118.2ZM245.35 122.33C245.81 126.96 246.19 130.6 243.04 134.44C242.62 134.95 242.21 135.39 241.96 136.01L242.12 136.27C242.42 136.22 242.69 136.19 242.98 136.08C245.16 134.58 246.43 131.68 246.88 129.13C247.25 127 247.22 124.63 246.13 122.7C245.86 122.49 245.7 122.38 245.35 122.33ZM83.15 247.07C82.75 245.5 83.5 248.65 83.15 247.07C83.63 248.96 84.49 250.96 85.96 252.3C87.07 253.31 67.19 253.44 68.66 253.63C72.45 254.13 68.49 253.58 72.31 253.63C79.81 254.08 91.54 254.16 101.17 254.1C111.65 254.33 122.14 254.22 132.63 254.43C134.82 254.47 137.06 254.44 139.25 254.61C140.82 254.74 142.38 255.03 143.96 255.04C148.81 255.07 153.69 254.8 158.54 254.78L168.85 254.8C170.91 254.81 173.23 255.01 175.26 254.64C176.04 254.5 176.66 253.99 177.22 253.45C178.46 252.25 179.08 250.71 179.09 248.98C179.09 246.11 181.04 227.41 180.5 224.6C179.18 217.59 175.8 231.14 174.39 224.15C101.17 239.88 130.53 237.51 83.15 247.07ZM321.17 227.24C317.46 227.3 313.81 227.2 310.11 227.45C310.15 227.53 310.11 227.62 310.11 227.7C310.11 228.97 310.11 231.48 310.12 232.74C310.11 241.27 308.96 253.07 318.33 256.89C321.5 258.18 329.18 259.26 332.33 257.57C332.38 257.54 332.44 257.5 332.49 257.46C335.83 256.56 338.79 254.04 340.51 251.08C341.55 249.25 342.35 247.29 342.91 245.26C343.86 241.79 344.93 233.56 343.95 230.16C343.7 229.28 343.26 228.32 342.44 227.84C340.58 226.76 324.31 227.23 321.17 227.24ZM200.94 228.96C194.66 229.1 189.38 229.41 184.72 234.26C184.1 234.9 183.56 235.61 182.95 236.26L183.28 239.04C187.76 235.4 194.39 230.04 200.53 230.6C201.11 230.65 201.28 230.76 201.7 231.14L201.86 231.62C201.55 232.02 201.31 232.12 200.8 232.19C199.86 232.34 198.84 232.25 197.92 232.48C192.93 233.74 187.32 237.78 183.85 241.47C183.87 242.26 183.94 242.86 184.29 243.58C186.14 242.84 187.44 238.3 192.7 237.19C194.88 236.73 196.98 237.41 199.14 237.13C200.76 236.92 203.72 236.09 205.23 236.82C205.99 237.18 207.74 238.2 207.4 239.5C207.37 239.61 207.5 239.45 207.3 239.79C207.12 240.08 206.88 240.29 206.54 240.38C206.28 240.45 205.91 240.38 205.82 240.3C205.31 239.91 205.3 239.36 204.92 238.92C204.56 238.51 204.19 238.28 203.63 238.28C202.86 238.27 202.03 238.63 201.3 238.88C197.58 240.19 194.73 242.21 192.04 245.09C191.55 245.61 191.09 246.1 191.12 246.86C191.36 247.09 191.4 247.16 191.76 247.14C193.57 247.02 195.63 244.52 197.09 243.53C198.78 242.36 201.78 241.18 203.85 241.13C206.36 241.08 209.05 242.98 211.43 243.79C211.99 243.97 212.54 243.99 213.11 244.12C214.25 244.38 215.36 244.8 216.53 245.05C217.15 245.18 217.77 245.15 218.38 245.26C220.06 245.57 221.5 246.11 223.24 246.16C225.36 246.21 227.36 245.89 229.46 245.75C229.56 241.85 229.72 238.12 226.87 235.08C221.87 229.75 209.36 229.15 202.51 229C201.99 228.99 201.46 229.02 200.94 228.96ZM345.7 231.23L345.89 232.3C346.45 232.54 347.13 232.54 347.72 232.69C349.3 233.1 350.63 234.22 351.24 235.75C351.68 236.84 351.48 238.31 350.99 239.32C350.86 239.57 350.74 239.78 350.54 239.99C350.23 240.67 349.32 241.2 348.64 241.45C347.48 241.89 345.89 241.8 345.19 242.93C345.44 243.35 345.62 243.44 346.1 243.56C346.6 243.68 347.66 243.49 348.15 243.32C350.29 242.93 352.56 241.93 353.84 240.09C354.65 238.93 354.98 237.52 354.7 236.12C354.38 234.54 353.4 233.21 352.05 232.34C350.07 231.07 347.97 230.99 345.7 231.23ZM345.86 234.47C345.87 234.51 345.88 234.55 345.9 234.59C345.9 236.12 345.87 238.23 346.09 240.5C346.42 240.66 346.51 240.72 346.88 240.58C347.21 240.46 347.63 240.29 347.86 240.03C348.59 239.74 349.32 239.09 349.66 238.36C349.97 237.7 349.95 236.99 349.66 236.33C349.27 235.48 348.55 234.83 347.66 234.54C347.05 234.35 346.48 234.39 345.86 234.47ZM193.94 238.78C190.74 239.78 186.87 242.65 185.31 245.71C185.1 246.11 185.11 246.25 185.15 246.7C185.67 247.02 185.95 247 186.54 246.87C186.81 246.81 187.09 246.74 187.37 246.67C187.53 246.64 187.7 246.67 187.85 246.6C188.46 246.29 189.51 244.82 190.06 244.29C191.9 242.5 193.96 240.47 196.13 239.13C196.33 239.01 196.53 238.89 196.73 238.77L193.94 238.78ZM203.52 243.37C200.24 243.81 198.15 245.51 195.49 247.33C200.79 247.31 206.13 247.47 211.43 247.53L219.17 247.64C216.57 247.03 213.92 246.47 211.39 245.62C209.32 244.93 207.23 243.94 205.12 243.42C204.62 243.3 204.02 243.25 203.52 243.37ZM235.42 249.3C230.65 249.57 225.79 249.37 221.01 249.39L190.78 249.35C191.97 250.61 192.97 251.78 192.88 253.65C192.81 255.17 192.05 256.41 191.31 257.7C192.06 257.68 192.82 257.63 193.57 257.69C203.15 257.27 212.86 257.56 222.46 257.55C226.71 257.54 231.12 257.8 235.34 257.28C236.22 257.17 236.85 256.93 237.63 256.53C238.6 255.27 239.09 253.9 238.89 252.3C238.78 251.41 238.39 250.54 237.68 249.97C237 249.44 236.25 249.35 235.42 249.3ZM184.97 249.44C184.74 253.4 183.55 255.12 180.65 257.75L187.25 257.76C187.76 257.68 188.28 257.63 188.78 257.53C190.34 255.64 191.94 253.68 190.17 251.22C189.56 250.37 188.36 249.65 187.32 249.48C186.59 249.35 185.71 249.43 184.97 249.44Z" fill="#2D2D2D"/>
    <path d="M180.89 111.11C180.26 111.91 179.05 112.53 178.06 112.68C176.99 112.85 175.84 112.49 174.97 111.84C174.15 111.22 173.54 110.33 173.43 109.29C173.31 108.11 173.78 107 174.5 106.09C176.96 103.02 182.32 101.23 186.15 100.8C187.21 100.57 188.38 100.68 189.44 100.87C188.68 101.34 186.86 101.26 185.91 101.54C183.87 102.15 181.74 103.02 179.89 104.08C178.22 105.03 176.23 106.47 175.77 108.46C175.52 109.58 175.99 110.25 176.56 111.16C178.11 111.62 179.34 111.24 180.89 111.11Z" fill="#fff"/>
    <path d="M249.79 121.5C249.66 121.56 249.46 121.52 249.32 121.51C249.13 120.49 250.11 119.36 250.23 118.27C250.44 116.32 249.53 114.13 248.34 112.63C246.35 110.09 242.88 108.97 239.78 108.63L239.53 108.6L239.4 108.4L240.13 107.58C240.28 107.62 240.39 107.61 240.54 107.61C243.71 107.66 247.41 109.63 249.55 111.9C250.95 113.39 252.02 115.3 251.93 117.4C251.85 119.13 251.05 120.37 249.79 121.5Z" fill="#fff"/>
    <path d="M172.7 125.46C173.57 120.36 176.2 117.33 180.2 114.18C181.33 113.29 182.57 112.45 183.58 111.41C183.61 111.37 183.65 111.33 183.69 111.29C183.86 111.32 183.97 111.4 184.11 111.48C183.71 112.53 180.44 115.02 179.5 116.03C178.31 117.31 177.09 118.76 176.15 120.22C175.3 121.56 174.55 123.55 174.97 125.15C175.11 125.7 175.44 126.1 175.95 126.35C177.8 127.26 180.66 126.31 182.48 125.68C181.99 126 181.48 126.3 180.98 126.61C179.29 127.15 177.28 127.93 175.49 127.6C174.09 127.34 173.44 126.57 172.7 125.46Z" fill="#fff"/>
    <path d="M191.6 129.98C195.81 129.73 202 126.2 205.28 123.52C207.46 121.74 209.19 119.7 211.71 118.35L212.28 118.38L212.29 118.65C211.97 118.91 211.65 119.17 211.34 119.43C209.19 121.29 207.68 122.64 207.47 125.58C207.6 125.79 207.75 126 207.89 126.2C208.65 127.25 209.93 127.89 211.2 128.07C215.53 128.69 219.69 125.11 222.87 122.69L222.95 122.86C222.99 122.96 223.02 123.06 223.06 123.16C224.84 127.32 224.43 134 226.68 137.63C227.58 137.96 228.55 138.1 229.48 138.29C229.99 137.75 230.56 137.27 231.23 136.95C233.96 135.65 237.38 136.04 240.13 137.06C241.01 138.09 241.99 139.14 242.64 140.35C244.19 143.23 244.59 147.22 243.58 150.34C242.46 153.78 239.34 156 235.77 156.31C234.67 156.41 233.06 156.21 232.09 156.7L231.94 157.13L232.18 157.53C232.87 158.02 233.63 158.17 234.44 158.36C234.75 159.48 235.07 160.6 235.48 161.69C236.57 164.63 238.38 166.14 241.19 167.41C238.17 173.1 233.09 181.74 228.55 186.16C226.74 186.46 224.64 187.42 222.86 186.56C221.06 185.68 220.29 183.04 219.67 181.3C218.94 179.12 218.31 176.92 217.68 174.7C218.97 174.02 222.91 171.85 223.64 170.71C223.86 170.36 223.81 170.26 223.72 169.89C223.4 169.63 222.95 169.42 222.53 169.57C221.35 170 220.38 171.08 219.32 171.75C215.61 174.09 210.41 175.26 206.08 174.76C200.01 174.03 194.47 170.94 190.69 166.15C184.63 158.37 185.19 150.84 185 141.66C184.91 137.48 184.66 133.28 185.19 129.12C185.35 127.89 185.55 126.53 186.15 125.44C187.18 123.59 191.93 120.93 193.89 119.42C192.65 121.39 190.72 122.9 189.65 125.01C189.2 125.91 188.89 126.99 189.27 127.97C189.71 129.1 190.56 129.53 191.6 129.98ZM236.95 146.3C236.88 145.52 236.76 144.95 236.25 144.32C235.82 143.8 235.15 143.34 234.44 143.35C233.81 143.36 233.41 143.71 233 144.16C232.67 144.53 232.56 144.71 232.61 145.19C233.41 145.74 234.35 145.25 235.14 145.74C234.88 146.95 233.54 147.05 233.55 148.34C233.91 148.73 234.32 149 234.89 148.99C235.42 148.98 236.02 148.43 236.32 148.03C236.68 147.54 236.84 146.89 236.95 146.3ZM211.35 131.02C210.13 131.19 208.79 131.28 207.8 132.08C207.65 132.59 207.7 132.64 207.87 133.11L208.21 133.38C211.28 132.92 213.63 132.42 216.6 133.57C217.28 133.98 217.89 134.46 218.71 134.4L219.16 134.15C219.25 133.69 219.24 133.49 218.97 133.08C218.15 131.8 216.37 131.38 214.96 131.18C213.77 131.01 212.47 131.2 211.35 131.02ZM191.04 132.3C189.62 132.66 187.52 132.94 186.7 134.31C186.67 134.35 186.65 134.41 186.62 134.46C186.73 134.6 186.75 134.72 186.94 134.75C188.73 135 190.32 133.71 192 133.85L192.23 133.88C193.41 134.06 194.89 134.95 196 134.42C196.22 134 196.22 133.96 196.17 133.49C195.27 132.51 193.26 132.31 191.98 132.27C191.66 132.26 191.36 132.27 191.04 132.3ZM211.01 140.52C210.28 140.59 209.54 140.56 209.05 141.19C208.59 141.78 208.4 142.56 208.51 143.3C208.65 144.24 209.22 145.34 210 145.9C210.57 146.31 211.3 146.37 211.98 146.45C212.82 146.02 213.27 145.6 213.56 144.69C213.84 143.78 213.82 142.62 213.35 141.78C212.99 141.13 212.37 140.73 211.66 140.57C211.44 140.53 211.23 140.49 211.01 140.52ZM191.3 140.82C190.65 141.27 190.28 141.54 190.11 142.35C189.93 143.24 190.19 144.36 190.47 145.2C191.29 145.99 192.1 146.7 193.31 146.72C193.62 146.72 193.94 146.68 194.25 146.64C195.01 146.06 195.58 145.56 195.73 144.56C195.87 143.7 195.58 142.88 195.03 142.21C194.33 141.37 193.31 140.81 192.2 140.76C191.9 140.75 191.61 140.78 191.3 140.82ZM199.79 141.86C198.7 143.83 199.85 148.07 199.73 150.38C199.65 151.88 197.42 153.61 197.99 155.09C198.17 155.56 198.56 155.78 199.01 155.95C200.06 156.34 201.23 156.41 202.33 156.53C202.56 156.02 202.67 155.9 202.58 155.34C201.95 154.59 200.83 154.4 199.93 154.1C200.36 153.45 200.75 152.84 200.96 152.09C201.6 149.88 201.72 145.22 201.22 142.99C201.11 142.47 201.02 142.31 200.64 141.95C200.36 141.92 200.07 141.87 199.79 141.86ZM214.7 147.51C213.94 147.85 212.95 148.21 212.6 149.03C212.45 149.4 212.46 149.81 212.62 150.18C212.95 150.93 213.8 151.43 214.56 151.67C215.41 151.93 216.24 151.94 217.1 151.74C217.97 151.4 219.13 151.06 219.6 150.17C219.76 149.85 219.79 149.48 219.66 149.14C219.37 148.39 218.5 147.96 217.8 147.68C216.87 147.31 215.68 147.44 214.7 147.51ZM189.92 148.25C188.99 148.58 187.54 148.96 187.14 149.98C186.96 150.42 186.97 150.87 187.22 151.29C187.63 152 188.63 152.38 189.4 152.52C190.07 152.64 190.89 152.57 191.57 152.49C192.45 152.21 193.54 151.88 194.02 151.01C194.2 150.68 194.22 150.28 194.1 149.92C193.88 149.28 193.31 148.84 192.7 148.56C191.78 148.15 190.9 148.17 189.92 148.25ZM210.6 160.41C208.53 161.69 206.57 162.79 204.09 163.02C202.79 163.14 200.42 162.49 199.47 163.29C199.47 163.8 199.57 163.91 199.82 164.33C200.1 164.48 200.36 164.62 200.67 164.72C203.94 165.1 207.92 164.78 210.58 162.61C211.03 162.23 211.27 161.93 211.44 161.37C211.23 160.82 211.19 160.74 210.66 160.43C210.64 160.42 210.62 160.41 210.6 160.41Z" fill="#fff"/>
    <path d="M242.9 136.24C242.61 136.34 242.34 136.38 242.04 136.42L241.88 136.16C242.13 135.54 242.55 135.1 242.96 134.59C246.12 130.75 245.73 127.11 245.27 122.48C245.62 122.53 245.78 122.64 246.06 122.86C247.14 124.78 247.18 127.16 246.8 129.28C246.35 131.83 245.09 134.73 242.9 136.24Z" fill="#fff"/>
    <path d="M216.6 133.57C213.63 132.42 211.28 132.92 208.21 133.38L207.87 133.11C207.7 132.64 207.65 132.59 207.8 132.08C208.79 131.28 210.13 131.19 211.35 131.02C212.47 131.2 213.77 131.01 214.96 131.18C216.37 131.38 218.15 131.8 218.97 133.08C219.24 133.49 219.25 133.69 219.16 134.15L218.71 134.4C217.89 134.46 217.28 133.98 216.6 133.57Z" fill="#2D2D2D"/>
    <path d="M192 133.85C190.32 133.71 188.73 135 186.94 134.75C186.75 134.72 186.73 134.61 186.62 134.46C186.65 134.41 186.67 134.35 186.7 134.31C187.52 132.94 189.62 132.66 191.04 132.3C191.36 132.27 191.66 132.26 191.98 132.27C193.26 132.31 195.27 132.51 196.17 133.49C196.22 133.96 196.22 134 196 134.42C194.89 134.95 193.41 134.06 192.23 133.88L192 133.85Z" fill="#2D2D2D"/>
    <path d="M211.98 146.45C211.3 146.37 210.57 146.31 210 145.9C209.22 145.34 208.65 144.24 208.51 143.3C208.4 142.56 208.59 141.78 209.05 141.19C209.54 140.56 210.28 140.59 211.01 140.52C211.23 140.49 211.44 140.53 211.66 140.57C212.37 140.73 212.99 141.13 213.35 141.78C213.82 142.62 213.84 143.78 213.56 144.69C213.27 145.6 212.82 146.02 211.98 146.45Z" fill="#2D2D2D"/>
    <path d="M190.47 145.2C190.04 144.19 189.93 143.24 190.11 142.35C190.28 141.54 190.65 141.27 191.3 140.82C191.61 140.78 191.9 140.75 192.2 140.76C193.31 140.81 194.33 141.37 195.03 142.22C195.58 142.88 195.87 143.7 195.73 144.56C195.58 145.57 195.01 146.06 194.25 146.64C193.94 146.68 193.62 146.73 193.31 146.72C192.1 146.7 191.28 146.25 190.47 145.2Z" fill="#2D2D2D"/>
    <path d="M202.33 156.53C201.23 156.41 200.06 156.34 199.01 155.95C198.56 155.78 198.17 155.56 197.99 155.09C197.42 153.61 199.65 151.88 199.73 150.38C199.86 148.07 198.7 143.83 199.79 141.86C200.07 141.87 200.36 141.92 200.64 141.95C201.02 142.31 201.11 142.47 201.22 142.99C201.72 145.22 201.6 149.88 200.96 152.09C200.75 152.84 200.36 153.46 199.93 154.1C200.83 154.4 201.95 154.59 202.58 155.34C202.67 155.9 202.56 156.02 202.33 156.53Z" fill="#2D2D2D"/>
    <path d="M235.14 145.74C234.35 145.25 233.41 145.74 232.61 145.19C232.56 144.71 232.67 144.55 233.01 144.19C233.42 143.74 233.81 143.36 234.44 143.35C235.15 143.34 235.82 143.8 236.25 144.32C236.76 144.95 236.88 145.52 236.95 146.3C236.7 146.29 236.46 146.28 236.21 146.25C235.59 146.19 235.54 146.24 235.14 145.74Z" fill="#2D2D2D"/>
    <path d="M235.14 145.74C235.54 146.24 235.59 146.19 236.21 146.25C236.46 146.28 236.7 146.29 236.95 146.3C236.84 146.9 236.68 147.54 236.32 148.03C236.02 148.43 235.42 148.99 234.89 148.99C234.32 149 233.91 148.73 233.55 148.34C233.54 147.05 234.88 146.95 235.14 145.74Z" fill="#2D2D2D"/>
    <path d="M217.1 151.74C216.24 151.94 215.41 151.93 214.56 151.67C213.81 151.43 212.95 150.94 212.62 150.18C212.46 149.81 212.45 149.4 212.6 149.03C212.95 148.21 213.94 147.85 214.7 147.51C215.68 147.44 216.87 147.31 217.8 147.68C218.5 147.96 219.37 148.39 219.66 149.14C219.79 149.48 219.76 149.85 219.6 150.17C219.13 151.06 217.97 151.41 217.1 151.74Z" fill="#fff"/>
    <path d="M191.57 152.49C190.89 152.57 190.08 152.64 189.4 152.52C188.63 152.38 187.63 152 187.22 151.29C186.97 150.87 186.96 150.42 187.14 149.98C187.54 148.96 188.99 148.58 189.92 148.25C190.9 148.17 191.78 148.15 192.7 148.56C193.31 148.84 193.88 149.28 194.1 149.92C194.22 150.28 194.2 150.68 194.02 151.01C193.54 151.88 192.45 152.21 191.57 152.49Z" fill="#fff"/>
    <path d="M260.83 153.98L260.46 155.08C255.06 153.71 247.95 153.88 242.51 155.07C243.39 154.24 244.14 153.37 244.89 152.42C249.92 152.35 256.21 151.78 260.83 153.98Z" fill="#A5A5A5"/>
    <path d="M260.46 155.08L260.83 153.98C262.46 154.64 263.82 155.27 265.23 156.34C264.45 156.39 263.71 155.99 262.98 156.21C262.34 155.75 261.1 155.34 260.46 155.08Z" fill="#A5A5A5"/>
    <path d="M265.23 156.34C268.04 158.29 270.21 161.02 270.82 164.45C271.19 166.58 270.85 168.55 270.18 170.59C269.3 170.42 268.25 170.06 267.45 170.63C267.16 170.84 267.23 170.85 267.17 171.17C267.67 171.81 268.9 172.03 269.68 172.12C271.35 172.31 273.05 172.18 274.67 172.66L274.24 172.83C276.6 174.02 279.49 174.64 281.96 175.65C281.96 175.65 295.39 178.48 302.5 195.93C303.83 199.98 304.35 204.58 304.23 208.84C303.92 219.83 298.83 238.37 293.89 248.04C292.96 249.83 291.92 251.57 290.78 253.25C290.26 254.02 288.29 256.36 288.09 256.98C287.45 257.51 286.36 258.1 286.05 258.87C286.19 259.38 286.25 259.34 286.69 259.61C285.86 260.17 239.41 260.16 235.42 259.61C236.05 259.41 236.7 259.28 237.35 259.14C237.75 258.8 238.15 258.45 238.52 258.08C239.88 256.73 240.63 254.55 240.61 252.66C240.6 251.25 240.18 249.85 239.1 248.86C237.01 246.95 233.88 247.52 231.3 247.67C231.22 243.8 231.87 239.94 230 236.33C228.02 232.48 224.06 230.92 220.16 229.66C220.28 229.53 220.4 229.41 220.53 229.29C225.53 224.46 236.97 221.66 243.78 222.03C247.67 222.23 251.56 223.25 255.4 223.84C259.94 224.53 264.66 225.04 269.03 226.46C270.94 227.09 279.15 230.86 280.14 230.88C280.5 230.56 280.53 230.51 280.66 230.05C280.6 229.87 280.55 229.72 280.44 229.57C279.29 228.09 267.5 224.02 265.22 223.6C266.3 220.51 268.14 217.74 269.2 214.66C269.91 212.59 270.54 210.41 270.99 208.28C271.6 205.34 271.74 202.32 272.18 199.35C272.54 196.95 273.22 194.58 273.52 192.17C273.58 191.67 273.62 191.11 273.53 190.6C273.45 190.12 273.39 189.95 272.98 189.69C271.24 190.4 270.16 202.15 269.84 204.38C269.61 205.96 269.3 207.53 268.92 209.08C267.95 213.03 266.66 216.45 264.77 220.05C264.49 218.16 264.11 216.15 263.25 214.43C262.88 213.67 262.43 212.9 261.59 212.61L261.31 212.83C260.92 214.66 262.35 216.89 262.8 218.68C263.17 220.2 263.38 221.77 263.61 223.32C260.32 222.85 257 222.43 253.72 221.87C248.39 220.95 243.63 219.78 238.17 220.4C232.36 221.04 227.03 222.98 222.05 226.02C220.57 226.92 219.12 227.8 218.03 229.16C211.1 227.17 204.13 227.55 197.03 227.36C196.88 221.94 197.69 216.4 197.99 210.98C198.06 209.62 198.36 207.82 198.12 206.49C198.03 205.99 197.81 205.86 197.41 205.61C196.9 205.72 196.85 205.75 196.48 206.12C195.99 208.55 196.1 211.31 195.95 213.8C195.66 218.41 195.17 223.01 195.29 227.63C189.54 228.29 186.56 230.24 182.29 233.97C180.95 228.09 179.99 222.06 178.8 216.15C180.38 214.3 181.75 212.15 183.28 210.24C188.18 204.16 193.19 198.41 198.9 193.06C199.34 189.28 198.75 185.32 199.57 181.59C200.1 179.2 201.3 177.41 203.36 176.1L203.61 176.29C208.31 176.73 211.45 176.38 216 175.32C216.76 179.12 218.53 185.56 221.34 188.23C220.87 193.21 220.67 207.77 222.34 212.35C222.56 212.96 222.77 213.19 223.34 213.45C223.7 213.31 223.82 213.28 224.04 212.93C224.26 212.58 224.33 212.19 224.22 211.79C223.9 210.67 223.79 209.42 223.63 208.26C223.06 204.25 222.88 200.01 222.94 195.96C222.98 193.5 223.18 191.05 223.08 188.59C224.63 188.56 226.16 188.48 227.7 188.38C227.91 188.57 227.88 188.46 227.84 188.7C227.28 192.75 226.6 209.32 228.84 212.34C229.13 212.73 229.32 212.84 229.78 212.94L230.1 212.68C230.25 212.19 230.29 211.77 230.26 211.27C230.19 210.18 229.85 209.14 229.72 208.06C229.45 205.89 229.29 203.54 229.22 201.36C229.09 196.84 229.54 192.38 229.59 187.88C232.5 185 234.85 181.2 237.04 177.75C239.18 174.4 243.97 165 247.55 163.41C251.9 161.49 258.64 164.09 262.46 162.21C263.23 161.83 263.9 161.23 264.14 160.38C264.58 158.81 263.99 156.99 262.98 156.21C263.71 155.99 264.45 156.39 265.23 156.34Z" fill="#A5A5A5"/>
    <path d="M200.67 164.72C200.36 164.62 200.1 164.48 199.82 164.33C199.57 163.91 199.47 163.8 199.47 163.29C200.42 162.49 202.79 163.14 204.09 163.02C206.57 162.79 208.53 161.69 210.6 160.41C210.62 160.41 210.64 160.42 210.66 160.43C211.19 160.74 211.23 160.82 211.44 161.37C211.27 161.93 211.03 162.23 210.58 162.61C207.92 164.78 203.94 165.1 200.67 164.72Z" fill="#2D2D2D"/>
    <path d="M288.09 256.98C288.29 256.36 290.26 254.02 290.78 253.25C291.92 251.57 292.96 249.83 293.89 248.04C298.83 238.37 303.92 219.83 304.23 208.84C304.35 204.58 303.83 199.98 302.5 195.93C299.15 185.71 291.64 179.61 281.96 175.65C279.49 174.64 276.6 174.02 274.24 172.83L274.67 172.66C283.71 173.88 292.88 175.71 298.81 183.4C301.53 186.93 304.04 191.66 304.85 196.06C305.47 199.38 305.46 203 305.63 206.38C305.83 209.95 306.13 213.25 305.65 216.83C304.14 227.92 301.53 247.36 292 254.58C290.89 255.42 289.38 256.46 288.09 256.98Z" fill="#fff"/>
    <path d="M198.42 190.24C197.77 187.69 197.87 184.66 198.06 182.04C198.2 180.21 198.36 176.44 199.78 175.22C200.94 175.44 202.03 175.92 203.21 176.08C203.26 176.09 203.31 176.09 203.36 176.1C201.3 177.41 200.1 179.2 199.57 181.59C198.75 185.32 199.34 189.28 198.9 193.06C193.19 198.41 188.18 204.16 183.28 210.24C181.75 212.15 180.38 214.3 178.8 216.15C178.47 215.18 178.24 214.16 178.21 213.14C178.76 211.97 180.11 210.97 180.93 209.95C183.45 206.82 185.85 203.55 188.51 200.54C191.67 196.96 195.11 193.68 198.42 190.24Z" fill="#fff"/>
    <path d="M319.17 211.58C320.2 209.65 322.87 208.8 323.5 206.71C323.8 205.72 323.89 204.35 323.34 203.44C322.23 201.57 319.87 201.82 318.06 201.43C317.77 200.94 317.99 200.56 318.12 200.03C319.02 199.93 319.99 199.84 320.89 200C322.33 200.27 323.88 201.26 324.65 202.51C327.7 207.53 321.58 209.45 320.3 213.45C319.01 217.45 325.08 217.55 325.97 219.2C325.81 219.7 325.71 219.7 325.29 219.98C325.17 220.01 325.02 220 324.9 220C322.14 219.2 318.72 216.69 318.72 215.99C318.12 214.01 318.83 212.23 319.17 211.58Z" fill="#2D2D2D"/>
    <path d="M332.15 219.66C331.44 219.5 330.77 218.58 330.42 217.99C329.48 216.39 329.3 214.28 329.81 212.51C330.54 209.95 333.4 208.64 334.23 208.22C335.05 207.81 335.8 207.39 336.39 207.74C336.5 207.92 336.67 208.06 336.58 208.27C336.2 209.14 334.44 209.75 333.65 210.21C332.49 210.88 331.61 211.93 331.31 213.25C330.87 215.14 332.06 216.68 333.01 218.16C333.32 218.63 333.4 218.97 333.25 219.41C332.99 219.79 332.59 219.76 332.15 219.66Z" fill="#2D2D2D"/>
    <path d="M310.03 227.6C313.73 227.34 317.38 227.45 321.09 227.4C324.23 227.38 340.5 226.91 342.36 228C343.18 228.47 343.62 229.43 343.88 230.31C344.85 233.72 343.79 241.94 342.83 245.41C342.28 247.44 341.47 249.4 340.43 251.23C338.71 254.19 335.75 256.71 332.41 257.61C332.36 257.65 332.31 257.69 332.25 257.72C329.1 259.41 321.42 258.33 318.25 257.04C308.88 253.22 310.03 241.5 310.04 232.9C310.12 231.6 310.03 229.17 310.03 227.85C310.03 227.77 310.03 227.71 310.03 227.6ZM338.83 231.01C338.61 233.14 337.85 238.36 338.52 240.17L338.82 240.34L339.12 240.13C339.61 239.73 339.68 239.53 339.76 238.9C339.98 237.08 340.55 232.89 339.73 231.27C339.4 231.1 339.2 231.03 338.83 231.01Z" fill="#fff"/>
    <path d="M182.87 236.41C183.48 235.76 184.02 235.06 184.64 234.41C189.3 229.56 194.58 229.25 200.86 229.11C201.38 229.17 201.91 229.14 202.43 229.15C209.28 229.3 221.79 229.9 226.79 235.23C229.65 238.27 229.48 242 229.38 245.9C227.28 246.04 225.28 246.36 223.16 246.31C221.43 246.26 219.98 245.72 218.31 245.42C217.69 245.31 217.07 245.33 216.45 245.2C215.28 244.96 214.18 244.53 213.03 244.27C212.47 244.14 211.91 244.13 211.35 243.94C208.97 243.13 206.28 241.23 203.77 241.28C201.7 241.33 198.7 242.51 197.01 243.68C195.56 244.68 193.49 247.17 191.68 247.29C191.32 247.31 191.28 247.24 191.04 247.01C191.01 246.25 191.47 245.76 191.96 245.24C194.66 242.36 197.5 240.34 201.23 239.03C201.95 238.78 202.78 238.42 203.56 238.43C204.11 238.44 204.48 238.66 204.84 239.07C205.2 239.49 205.33 239.62 205.74 240.03C206.16 240.45 206.16 240.45 206.57 240.45C206.92 240.36 207.37 239.82 207.32 239.65C207.09 238.85 205.91 237.33 205.16 236.97C203.64 236.25 200.68 237.07 199.06 237.28C196.9 237.56 194.8 236.88 192.62 237.34C187.37 238.45 186.06 242.99 184.21 243.73C183.86 243.01 183.79 242.41 183.77 241.62C187.25 237.93 192.85 233.89 197.84 232.63C198.76 232.4 199.78 232.49 200.72 232.35C201.23 232.27 201.47 232.17 201.78 231.77L201.62 231.29C201.21 230.91 201.03 230.8 200.46 230.75C194.31 230.19 187.68 235.55 183.2 239.19L182.87 236.41Z" fill="#fff"/>
    <path d="M339.12 240.13L338.82 240.34L338.52 240.17C337.85 238.36 338.61 233.14 338.83 231.01C339.2 231.03 339.4 231.1 339.73 231.27C340.55 232.89 339.98 237.08 339.76 238.9C339.68 239.53 339.61 239.73 339.12 240.13Z" fill="#fff"/>
    <path d="M350.46 240.14C350.66 239.94 350.78 239.72 350.91 239.47C351.4 238.46 351.6 237 351.17 235.9C350.55 234.37 349.22 233.25 347.64 232.84C347.05 232.69 346.38 232.69 345.82 232.45L345.62 231.38C347.89 231.14 350 231.22 351.97 232.5C353.32 233.37 354.3 234.69 354.62 236.27C354.9 237.67 354.57 239.08 353.76 240.24C352.48 242.08 350.21 243.08 348.07 243.47C347.58 243.64 346.52 243.83 346.02 243.71C345.54 243.59 345.36 243.5 345.11 243.09C345.81 241.95 347.4 242.04 348.56 241.6C349.25 241.35 350.15 240.82 350.46 240.14Z" fill="#fff"/>
    <path d="M347.89 240.03C347.66 240.28 347.13 240.61 346.8 240.73C346.44 240.88 346.34 240.81 346.02 240.65C345.8 238.79 345.78 236.73 345.82 234.74C345.81 234.7 345.79 234.66 345.78 234.62C346.4 234.54 346.97 234.5 347.58 234.7C348.47 234.98 349.19 235.63 349.58 236.48C349.87 237.14 349.89 237.85 349.58 238.51C349.24 239.24 348.62 239.74 347.89 240.03Z" fill="#fff"/>
    <path d="M187.29 246.82C187.01 246.89 186.74 246.96 186.46 247.02C185.88 247.15 185.59 247.17 185.08 246.85C185.03 246.4 185.03 246.26 185.23 245.86C186.79 242.8 190.66 239.93 193.86 238.93L196.65 238.92C196.45 239.04 196.25 239.16 196.06 239.28C193.88 240.62 191.82 242.65 189.98 244.44C189.43 244.97 188.38 246.44 187.77 246.75C187.62 246.82 187.45 246.79 187.29 246.82Z" fill="#fff"/>
    <path d="M195.41 247.48C198.07 245.66 200.16 243.96 203.44 243.52C203.94 243.4 204.55 243.45 205.04 243.57C207.15 244.09 209.24 245.08 211.31 245.77C213.85 246.62 216.49 247.18 219.09 247.79L211.35 247.69C206.05 247.62 200.71 247.46 195.41 247.48Z" fill="#A5A5A5"/>
    <path d="M190.7 249.5L220.93 249.54C225.71 249.52 230.58 249.72 235.34 249.45C236.17 249.5 236.92 249.59 237.6 250.12C238.31 250.69 238.7 251.56 238.81 252.45C239.01 254.05 238.52 255.42 237.55 256.68C236.77 257.08 236.15 257.32 235.26 257.43C231.04 257.95 226.63 257.69 222.38 257.7C212.78 257.71 203.07 257.42 193.49 257.84C192.74 257.79 191.98 257.84 191.23 257.85C191.97 256.56 192.73 255.32 192.8 253.8C192.9 251.93 191.89 250.76 190.7 249.5Z" fill="#BEE8F7"/>
    <path d="M180.57 257.9C183.47 255.27 184.66 253.55 184.89 249.59C185.63 249.58 186.51 249.5 187.24 249.63C188.28 249.8 189.49 250.52 190.09 251.37C191.86 253.83 190.26 255.79 188.71 257.68C188.24 257.91 187.68 257.83 187.17 257.91L180.57 257.9Z" fill="#BEE8F7"/>
    <rect x="86.76" y="248.71" width="152.03" height="9.09" rx="4.13" fill="#BEE8F7" stroke="#2D2D2D" stroke-width="1.65"/>
    <circle cx="274.55" cy="70.65" r="14.46" stroke="#2D2D2D" stroke-width="1.65"/>
    <circle cx="273.5" cy="71.89" r="12.39" fill="#BFBFBF"/>
    <path d="M269.28 84.49L274.25 85.08C274.4 85.1 274.56 85.1 274.71 85.09L274.87 85.07L278.99 84.52C279.48 84.46 279.92 84.84 279.92 85.34V90.07C279.92 90.52 279.55 90.89 279.1 90.89H269.18C268.72 90.89 268.35 90.52 268.35 90.07V85.31C268.35 84.82 268.79 84.44 269.28 84.49Z" stroke="#2D2D2D" stroke-width="1.65"/>
    <rect x="258.36" y="48.1" width=".83" height="7.69" rx=".41" transform="rotate(-28.4096 258.357 48.1036)" fill="#fff" stroke="#2D2D2D" stroke-width=".83"/>
    <rect x="273.72" y="42.56" width=".83" height="7.69" rx=".41" fill="#fff" stroke="#2D2D2D" stroke-width=".83"/>
    <rect x="270.52" y="70.99" width=".83" height="14.05" rx=".41" transform="rotate(-17.0043 270.522 70.9932)" fill="#fff" stroke="#2D2D2D" stroke-width=".83"/>
    <rect x="289.06" y="47.68" width=".83" height="7.69" rx=".41" transform="rotate(35.1911 289.062 47.6758)" fill="#fff" stroke="#2D2D2D" stroke-width=".83"/>
    <rect x="278.32" y="72.46" width=".83" height="7.69" rx=".41" transform="rotate(35.1911 278.321 72.4639)" fill="#fff" stroke="#2D2D2D" stroke-width=".83"/>
    <rect x="66.1" y="247.88" width="174.34" height="10.74" rx="5.37" fill="#E2E2E2" stroke="#2D2D2D" stroke-width="1.65"/>
    <rect x="64.45" y="180.96" width="117.33" height="75.19" rx="4.96" fill="#E2E2E2" stroke="#2D2D2D" stroke-width="1.65"/>
    <path d="M128.01 214.04L130.39 218.17L129.56 222.86L125.91 225.93H121.14L117.49 222.86L116.66 218.17L119.05 214.04L123.53 212.41L128.01 214.04Z" fill="#fff" stroke="#2D2D2D" stroke-width="1.65"/>
    <path d="M121.66 213.8L125.65 215.25L128.07 218.96L127.25 223.92L125.65 225.2H121.41L118.16 222.48L117.42 218.3L119.54 214.63L121.66 213.8Z" fill="#E2E2E2"/>
    <path d="M68.63 181.78H177.24L178.89 182.19L179.71 183.02L180.54 184.26L180.95 185.09H123.11H65.37L65.69 184.26L66.1 183.44L67.34 182.19L68.63 181.78Z" fill="#fff"/>
    <path d="M180.95 252.47L180.95 184.92L180.64 183.89L180.02 183.38L179.09 182.87L178.47 182.61L178.47 218.58L178.47 254.91L179.3 254.49L179.71 254.08L180.64 253.27L180.95 252.47Z" fill="#fff"/>
    <path d="M338.83 231.01C338.61 233.14 337.85 238.36 338.52 240.17L338.82 240.34L339.12 240.13C339.61 239.73 339.68 239.53 339.76 238.9C339.98 237.08 340.55 232.89 339.73 231.27C339.4 231.1 339.2 231.03 338.83 231.01Z" fill="#2D2D2D"/>
    <rect x="86.06" y="105.24" width="44.63" height="44.63" rx="4.96" transform="rotate(-14.1579 86.0589 105.239)" fill="#fff" stroke="#2D2B38" stroke-width="1.65"/>
    <rect x="118.24" y="34.09" width="35.22" height="35.22" rx="4.96" transform="rotate(17.5328 118.237 34.0872)" fill="#fff" stroke="#2D2B38" stroke-width="1.65"/>
    <path d="M138.91 49.83C139.59 50.06 140.79 50.45 141.36 51.95L141.4 52.1C141.43 52.25 141.43 52.4 141.38 52.55L137.54 64.32L137.48 64.48C136.89 66.02 135.13 66.81 133.5 66.28L121.71 62.4C121.41 62.3 121.19 62.05 121.12 61.75L121.12 61.74C121.05 61.44 121.14 61.12 121.37 60.9L121.75 60.53L122.43 59.87C122.65 59.65 122.86 59.44 123.05 59.23C123.23 59.03 123.39 58.84 123.52 58.67C123.64 58.5 123.73 58.36 123.77 58.24C123.78 58.19 123.8 58.15 123.8 58.13C123.8 58.11 123.8 58.11 123.8 58.1C123.8 58.1 123.8 58.09 123.8 58.09C123.8 58.09 123.8 58.09 123.8 58.09C123.79 58.08 123.78 58.08 123.77 58.07C123.74 58.05 123.69 58.02 123.61 58C123.46 57.95 123.31 57.93 123.18 57.93C123.04 57.93 122.94 57.94 122.91 57.95L122.91 57.95C122.39 58.11 121.74 58.08 121.13 57.88C120.58 57.69 120.12 57.4 119.81 57.03L119.68 56.86C119.14 56.05 119.19 54.78 119.76 53.03C120.11 51.97 120.66 51.33 121.27 51.01C121.89 50.69 122.55 50.69 123.13 50.88C123.54 51.02 123.94 51.26 124.29 51.57L124.56 51.81C125 52.17 125.28 52.31 125.42 52.36C125.65 51.66 125.9 50.51 126.1 49.51C126.21 49 126.3 48.52 126.36 48.18C126.39 48 126.42 47.86 126.43 47.76C126.44 47.71 126.45 47.67 126.45 47.65C126.46 47.63 126.46 47.62 126.46 47.61C126.46 47.61 126.46 47.61 126.46 47.61L126.46 47.6L126.46 47.6C126.51 47.31 126.7 47.07 126.96 46.94L127.1 46.89C127.52 46.73 128.7 46.47 130.81 47.17C131.97 47.55 132.41 48.22 132.56 48.73L132.62 48.95C132.71 49.48 132.58 50.03 132.25 50.46L132.25 50.46C131.83 51 131.54 51.5 131.37 51.93C131.2 52.36 131.17 52.71 131.25 52.97L131.31 53.12C131.49 53.45 131.92 53.75 132.64 53.99C132.73 54.02 132.92 54.03 133.15 53.98C133.38 53.94 133.65 53.83 133.91 53.66L134.09 53.52C134.49 53.19 134.92 52.59 135.04 51.56L135.06 51.31C135.09 50.77 135.37 50.29 135.83 49.98L135.97 49.89C136.72 49.47 137.78 49.46 138.91 49.83ZM138.35 51.54C137.84 51.38 137.46 51.35 137.2 51.38C137.07 51.39 136.97 51.41 136.91 51.44C136.88 51.45 136.87 51.46 136.85 51.46C136.75 52.96 136.14 54.21 135.13 54.99L134.92 55.15C134.03 55.75 132.92 55.98 132.08 55.7C130.8 55.28 129.96 54.61 129.6 53.69L129.53 53.5C129.17 52.32 129.62 50.92 130.82 49.36L130.84 49.33C130.85 49.32 130.85 49.31 130.85 49.29L130.85 49.26C130.84 49.25 130.78 49.05 130.25 48.88C129.22 48.54 128.53 48.5 128.12 48.52C127.95 49.46 127.6 51.29 127.25 52.51L127.1 53.01C126.94 53.49 126.64 53.85 126.24 54.03C125.85 54.22 125.38 54.24 124.88 54.08C124.34 53.9 123.75 53.51 123.08 52.91L123.08 52.91C122.96 52.79 122.82 52.7 122.69 52.64L122.57 52.59C122.34 52.52 122.15 52.56 121.97 52.71C121.79 52.87 121.62 53.16 121.47 53.6C121.03 54.95 121.08 55.55 121.14 55.76L121.18 55.86L121.18 55.86L121.24 55.93C121.26 55.95 121.3 55.98 121.34 56.01C121.43 56.06 121.55 56.12 121.69 56.17C122 56.27 122.27 56.27 122.38 56.23L122.58 56.18C123.06 56.08 123.67 56.13 124.17 56.29C124.74 56.48 125.17 56.82 125.4 57.26C125.63 57.7 125.66 58.24 125.47 58.8C125.34 59.2 125.08 59.6 124.75 60.02C124.45 60.38 124.09 60.76 123.69 61.15L134.06 64.57C134.8 64.81 135.61 64.43 135.83 63.76L139.56 52.33C139.28 51.86 138.87 51.72 138.35 51.54Z" fill="#2D2B38" stroke="#2D2B38" stroke-width=".25"/>
    <g clip-path="url(#c1)">
      <path d="M107.37 117.05L101.3 129.87L98.03 130.7L101.09 124.29L95.47 120.09L98.7 119.26L102.19 121.89L104.08 117.89L107.37 117.05ZM103.87 126.34L106.77 128.47L109.99 127.64L105.03 123.93L103.87 126.34Z" fill="#2D2B38"/>
      <path fill-rule="evenodd" clip-rule="evenodd" d="M117.94 114.34L118.59 116.85L111.31 118.71C110.45 118.94 109.44 120.17 109.91 122.03C110.39 123.89 111.87 124.49 112.73 124.27L116.7 123.25L117.34 125.76L113.38 126.78C110.82 127.43 108.14 125.59 107.4 122.67C106.65 119.75 108.11 116.86 110.67 116.2L117.94 114.34ZM116.97 118.81L112.35 120L112.99 122.51L117.09 121.46L118.14 125.56L120.65 124.92L119.47 120.29C119.32 119.77 118.98 119.33 118.52 119.05C118.05 118.78 117.5 118.69 116.97 118.81Z" fill="#2D2B38"/>
      <path d="M126.09 113.67L122.78 114.51C121.7 114.93 120.81 115.75 120.29 116.79C119.78 117.84 119.67 119.04 120 120.15C120.25 121.29 120.92 122.29 121.87 122.96C122.83 123.63 124 123.92 125.15 123.77L128.45 122.92C129.54 122.5 130.43 121.69 130.94 120.64C131.46 119.6 131.56 118.4 131.24 117.28C130.99 116.14 130.32 115.14 129.37 114.47C128.41 113.8 127.24 113.51 126.09 113.67ZM127.8 120.35L124.49 121.19C124.02 121.17 123.58 121 123.22 120.69C122.87 120.38 122.63 119.97 122.54 119.5C122.39 119.05 122.4 118.57 122.57 118.12C122.73 117.68 123.04 117.31 123.45 117.06L126.75 116.22C127.22 116.24 127.68 116.42 128.03 116.73C128.39 117.04 128.63 117.46 128.72 117.92C128.86 118.37 128.85 118.86 128.68 119.3C128.51 119.74 128.2 120.11 127.8 120.35Z" fill="#2D2B38"/>
    </g>
    <g clip-path="url(#c2)">
      <rect x="52.06" y="58.04" width="33.88" height="33.88" rx="4.96" transform="rotate(-10.1824 52.0554 58.0435)" fill="#fff"/>
      <g clip-path="url(#c3)">
        <path d="M74.68 63.42C76.14 63.14 77.64 63.45 78.86 64.28C80.09 65.11 80.93 66.39 81.21 67.85L81.91 71.5C82.19 72.95 81.88 74.45 81.05 75.68C80.22 76.9 78.94 77.75 77.48 78.03L68.35 79.78C66.9 80.05 65.4 79.74 64.17 78.91C62.95 78.08 62.11 76.8 61.83 75.35L61.13 71.7C60.85 70.24 61.16 68.74 61.99 67.52C62.82 66.29 64.1 65.45 65.55 65.17L74.68 63.42ZM75.03 65.24L65.9 66.99C64.97 67.17 64.14 67.71 63.58 68.48C63.03 69.26 62.79 70.22 62.92 71.16L62.95 71.35L63.65 75C63.83 75.93 64.37 76.77 65.14 77.32C65.92 77.88 66.88 78.11 67.82 77.98L68 77.95L77.13 76.2C78.07 76.02 78.9 75.49 79.46 74.71C80.01 73.94 80.25 72.98 80.12 72.03L80.09 71.85L79.39 68.2C79.21 67.26 78.67 66.43 77.9 65.87C77.12 65.32 76.16 65.08 75.22 65.21L75.03 65.24ZM69.17 69.21L69.52 71.03L71.34 70.68L71.69 72.51L69.87 72.86L70.22 74.69L68.39 75.04L68.04 73.21L66.22 73.56L65.87 71.73L67.69 71.38L67.34 69.56L69.17 69.21ZM77.17 71.46L77.52 73.29L75.7 73.64L75.35 71.81L77.17 71.46ZM74.65 68.16L75 69.98L73.17 70.33L72.82 68.51L74.65 68.16Z" fill="#2D2B38" stroke="#2D2B38" stroke-width=".25"/>
      </g>
    </g>
    <rect x="53.01" y="58.71" width="32.22" height="32.22" rx="4.13" transform="rotate(-10.1824 53.0147 58.7106)" stroke="#2D2B38" stroke-width="1.65"/>
    <rect x="0" width="390" height="287.54" fill="url(#g0)"/>
  </g>
  <defs>
    <linearGradient id="g0" x1="190.5" y1="25.1" x2="190.5" y2="287.54" gradientUnits="userSpaceOnUse">
      <stop stop-color="#EEF4FC" stop-opacity="0"/>
      <stop offset="1" stop-color="#EEF4FC" stop-opacity=".9"/>
    </linearGradient>
    <clipPath id="c1">
      <rect width="43.66" height="21.83" transform="translate(90.1516 115.817) rotate(-14.3482)"/>
    </clipPath>
    <clipPath id="c2">
      <rect x="52.06" y="58.04" width="33.88" height="33.88" rx="4.96" transform="rotate(-10.1824 52.0554 58.0435)"/>
    </clipPath>
    <clipPath id="c3">
      <rect width="24.79" height="24.79" transform="translate(57.0129 61.7579) rotate(-10.8528)"/>
    </clipPath>
  </defs>
</svg>
