<svg width="16" height="16" viewBox="0 0 16 16" fill="none" xmlns="http://www.w3.org/2000/svg">
<path d="M3.89941 2.16127C4.1789 1.92189 4.59928 1.95422 4.83887 2.23353C5.07829 2.51307 5.04605 2.93342 4.7666 3.17299L3.80176 4.00014H9.66504C12.3172 4.00037 14.5597 6.15689 14.6631 8.80775C14.7722 11.6097 12.4666 13.9999 9.66504 14.0001H3.99902C3.63123 13.9999 3.33332 13.7019 3.33301 13.3341C3.33301 12.9661 3.63104 12.6674 3.99902 12.6671H9.66504C11.7117 12.6669 13.4106 10.9034 13.3311 8.85951C13.2554 6.92445 11.601 5.33436 9.66504 5.33412H3.60938L4.80469 6.52943C5.0647 6.78979 5.06488 7.21157 4.80469 7.47182C4.54443 7.73191 4.12263 7.73179 3.8623 7.47182L1.52832 5.13881C1.50799 5.11847 1.49001 5.09589 1.47266 5.07338C1.44929 5.04311 1.42811 5.01078 1.41016 4.9767C1.40746 4.97153 1.4049 4.96631 1.40234 4.96107C1.37537 4.90633 1.35585 4.84724 1.34473 4.78529C1.34357 4.77888 1.34179 4.77222 1.34082 4.76576C1.33865 4.75112 1.33616 4.73577 1.33496 4.72084C1.33414 4.71059 1.33434 4.6999 1.33398 4.68959C1.33373 4.68214 1.33301 4.67464 1.33301 4.66713C1.33301 4.662 1.33387 4.6566 1.33398 4.6515C1.33406 4.64826 1.33386 4.64498 1.33398 4.64174C1.33414 4.63771 1.33473 4.63306 1.33496 4.62904C1.3372 4.58905 1.34258 4.54966 1.35156 4.51186C1.35285 4.50656 1.35504 4.50149 1.35645 4.49623C1.36661 4.45784 1.379 4.42025 1.39551 4.3849C1.39818 4.37919 1.40146 4.37296 1.4043 4.36732C1.42143 4.33332 1.44139 4.301 1.46387 4.27064C1.46792 4.26517 1.47234 4.2594 1.47656 4.25404C1.5079 4.21436 1.54358 4.17826 1.58301 4.14662L3.89941 2.16127Z" fill="#24292F"/>
</svg>
