<svg width="24" height="24" viewBox="0 0 24 24" fill="none" xmlns="http://www.w3.org/2000/svg">
  <path
    d="M19.5 2.12451C20.8115 2.12451 21.8748 3.18802 21.875 4.49951V19.4995C21.875 20.8112 20.8117 21.8745 19.5 21.8745H4.5C3.18851 21.8743 2.125 20.8111 2.125 19.4995V4.49951C2.12522 3.18815 3.18864 2.12473 4.5 2.12451H19.5ZM4.5 3.87451C4.15514 3.87473 3.87522 4.15465 3.875 4.49951V19.4995C3.875 19.8446 4.15501 20.1243 4.5 20.1245H19.5C19.8452 20.1245 20.125 19.8447 20.125 19.4995V4.49951C20.1248 4.15452 19.845 3.87451 19.5 3.87451H4.5ZM9.59277 6.12939C9.99277 6.17221 10.3126 6.48282 10.3672 6.88135L11.4062 14.5044L12.6836 11.1851L12.7344 11.0757C12.8705 10.8297 13.1191 10.6611 13.4033 10.6294C13.7282 10.5934 14.0471 10.7423 14.2285 11.0142L15.542 12.9839L16.2998 11.9741C16.465 11.754 16.7248 11.6246 17 11.6245H18.5C18.9831 11.6245 19.3748 12.0164 19.375 12.4995C19.375 12.9828 18.9832 13.3745 18.5 13.3745H17.4385L16.2002 15.0249C16.0298 15.252 15.7594 15.3824 15.4756 15.3745C15.1919 15.3665 14.9289 15.221 14.7715 14.9849L13.709 13.3911L11.8164 18.314C11.6729 18.6865 11.2951 18.9148 10.8984 18.8687C10.5021 18.8221 10.1867 18.5132 10.1328 18.1177L9.11133 10.6274L8.32227 12.7983C8.19652 13.1441 7.86794 13.3745 7.5 13.3745H6C5.51693 13.3743 5.125 12.9826 5.125 12.4995C5.12522 12.0166 5.51707 11.6247 6 11.6245H6.8877L8.67773 6.70068L8.74023 6.56592C8.91001 6.26823 9.24292 6.09227 9.59277 6.12939Z"
    fill="currentColor"
  />
</svg>
