<?xml version="1.0"?>
<svg width="1024" height="1024" xmlns="http://www.w3.org/2000/svg" xmlns:svg="http://www.w3.org/2000/svg" class="icon" version="1.1">
 <g class="layer">
  <title>Layer 1</title>
  <path d="m585.28,768l0,-402.28c0,-46.88 73.24,-46.88 73.24,0l0,402.28c0,46.88 -73.24,46.88 -73.24,0l0,0l0,0zm-219.78,0l0,-402.28c0,-46.88 73.27,-46.88 73.27,0l0,402.28c0,46.88 -73.27,46.88 -73.27,0l0,0l0,0zm622.69,-585.14l-183.13,0l0,-73.17c0,-60.57 -49.25,-109.69 -108.75,-109.69l-367.43,0c-60.67,0 -109.89,49.12 -109.89,109.69l0,73.17l-183.13,0c-46.95,0 -46.95,73.11 0,73.11l952.33,0c46.91,0 46.91,-73.11 0,-73.11l0,0l0,0zm-695.93,-73.17c0,-19.43 17.16,-36.59 36.62,-36.59l367.42,0c19.46,0 35.49,14.87 35.49,36.59l0,73.17l-439.53,0l0,-73.17l0,0zm476.15,914.31l-512.8,0c-60.64,0 -109.86,-49.11 -109.86,-109.69l0,-548.59c0,-21.72 17.16,-36.58 36.62,-36.58c19.46,0 36.62,14.86 36.62,36.58l0,548.59c0,19.39 17.19,36.55 36.62,36.55l512.8,0c19.46,0 36.65,-17.16 36.65,-36.55l0,-547.45c0,-48.02 73.24,-48.02 73.24,0l0,547.45c0,60.58 -49.22,109.69 -109.89,109.69l0,0zm0,0" fill="#bfbfbf" id="svg_1"/>
 </g>
</svg>