<?xml version="1.0" standalone="no"?><!DOCTYPE svg PUBLIC "-//W3C//DTD SVG 1.1//EN" "http://www.w3.org/Graphics/SVG/1.1/DTD/svg11.dtd"><svg t="1706088952510" class="icon" viewBox="0 0 1024 1024" version="1.1" xmlns="http://www.w3.org/2000/svg" p-id="15796" xmlns:xlink="http://www.w3.org/1999/xlink" width="200" height="200"><path d="M320 447.84c0-35.264 28.576-63.84 63.84-63.84h448.32c35.264 0 63.84 28.576 63.84 63.84v448.32A63.84 63.84 0 0 1 832.16 960H383.84A63.84 63.84 0 0 1 320 896.16V447.84z m64 32.384v383.552C384 881.6 398.4 896 416.224 896h383.552C817.6 896 832 881.6 832 863.776V480.224C832 462.4 817.6 448 799.776 448H416.224C398.4 448 384 462.4 384 480.224zM448 800c0-17.664 14.496-32 31.904-32h192.192c17.6 0 31.904 14.208 31.904 32 0 17.664-14.496 32-31.904 32H479.904A31.872 31.872 0 0 1 448 800z m0-128c0-17.664 14.592-32 31.84-32h256.32c17.6 0 31.84 14.208 31.84 32 0 17.664-14.592 32-31.84 32H479.84A31.84 31.84 0 0 1 448 672z m0-128c0-17.664 14.592-32 31.84-32h256.32c17.6 0 31.84 14.208 31.84 32 0 17.664-14.592 32-31.84 32H479.84A31.84 31.84 0 0 1 448 544z m256-288v-64h63.872C803.296 192 832 220.48 832 256.128V320h-64v-32.032A31.776 31.776 0 0 0 736.032 256H704z m-448 0h-32.032A31.776 31.776 0 0 0 192 287.968V768c0 17.92 14.304 31.968 31.968 31.968H256v64h-63.872A63.968 63.968 0 0 1 128 799.872V256.128C128 220.704 156.48 192 192.128 192H256v64z m64-32c0-17.664 14.592-32 31.84-32h256.32c17.6 0 31.84 14.208 31.84 32 0 17.664-14.592 32-31.84 32H351.84A31.84 31.84 0 0 1 320 224z m64-128a32 32 0 0 1 31.68-32h128.64C561.792 64 576 78.208 576 96a32 32 0 0 1-31.68 32H415.68A31.776 31.776 0 0 1 384 96z" p-id="15797" fill="#dd799d"></path></svg>