<?xml version="1.0" standalone="no"?><!DOCTYPE svg PUBLIC "-//W3C//DTD SVG 1.1//EN" "http://www.w3.org/Graphics/SVG/1.1/DTD/svg11.dtd"><svg t="1706119690168" class="icon" viewBox="0 0 1024 1024" version="1.1" xmlns="http://www.w3.org/2000/svg" p-id="9909" xmlns:xlink="http://www.w3.org/1999/xlink" width="200" height="200"><path d="M708.266667 439.466667l-192-110.933334c-55.466667-34.133333-128 8.533333-128 72.533334v221.866666c0 64 72.533333 106.666667 128 72.533334l192-110.933334c55.466667-29.866667 55.466667-115.2 0-145.066666z m-234.666667 183.466666V401.066667l192 110.933333-192 110.933333z" fill="#e23674" p-id="9910"></path><path d="M938.666667 512c0 234.666667-192 426.666667-426.666667 426.666667-157.866667 0-298.666667-89.6-371.2-217.6l-76.8 42.666666C153.6 917.333333 320 1024 512 1024c281.6 0 512-230.4 512-512S793.6 0 512 0C311.466667 0 132.266667 119.466667 51.2 290.133333l76.8 34.133334C196.266667 183.466667 341.333333 85.333333 512 85.333333c234.666667 0 426.666667 192 426.666667 426.666667z" fill="#e23674" p-id="9911"></path><path d="M145.066667 742.4c0 25.6-17.066667 42.666667-42.666667 42.666667s-42.666667-17.066667-42.666667-42.666667 17.066667-42.666667 42.666667-42.666667 42.666667 17.066667 42.666667 42.666667z" fill="#e23674" p-id="9912"></path><path d="M59.733333 85.333333c25.6 0 42.666667 21.333333 38.4 46.933334l-8.533333 157.866666 149.333333-29.866666c25.6-4.266667 46.933333 8.533333 51.2 34.133333S281.6 337.066667 256 341.333333l-149.333333 34.133334C51.2 384 0 341.333333 4.266667 285.866667L17.066667 128c0-25.6 21.333333-42.666667 42.666666-42.666667z" fill="#e23674" p-id="9913"></path></svg>