<?xml version="1.0"?>
<svg width="1024" height="1024" xmlns="http://www.w3.org/2000/svg" xmlns:svg="http://www.w3.org/2000/svg" class="icon" version="1.1">
 <g class="layer">
  <title>Layer 1</title>
  <path d="m894.55,502.87l-267.73,289.96l0,-146.34l-26.84,-31.58c-77.61,-12.76 -158.72,-9.9 -243.2,8.02c-69.33,14.72 -142.21,63.45 -218.71,141.14a528.98,528.98 0 0 1 134.1,-229.58l-20.82,-20.57l20.82,20.57c88.88,-90.07 195.88,-135.26 322.9,-136.28l31.75,-32l0,-138.16l267.73,274.82zm67.03,-22.91l-343.85,-352.94l-54.91,22.31l0,186.03c-130.35,8.02 -242.86,59.61 -336.22,154.15c-100.31,101.68 -157.86,228.36 -173.1,378.46l56.58,23.46c103.64,-126.5 190.38,-191.14 259.97,-205.86c67.58,-14.34 131.8,-17.96 192.77,-11.22l0,200.32l55.46,21.71l343.9,-372.39l-0.6,-44.03z" fill="#bfbfbf" id="svg_1"/>
 </g>
</svg>