<?xml version="1.0" standalone="no"?><!DOCTYPE svg PUBLIC "-//W3C//DTD SVG 1.1//EN" "http://www.w3.org/Graphics/SVG/1.1/DTD/svg11.dtd"><svg t="1705156585235" class="icon" viewBox="0 0 1024 1024" version="1.1" xmlns="http://www.w3.org/2000/svg" p-id="14518" xmlns:xlink="http://www.w3.org/1999/xlink" width="200" height="200"><path d="M923.733333 95.573333a42.666667 42.666667 0 0 0-34.133333-9.813333l-554.666667 85.333333A42.666667 42.666667 0 0 0 298.666667 213.333333v441.6A147.2 147.2 0 0 0 234.666667 640 149.333333 149.333333 0 1 0 384 789.333333v-325.973333l469.333333-72.106667v178.346667a147.2 147.2 0 0 0-64-14.933333 149.333333 149.333333 0 1 0 149.333334 149.333333V128a42.666667 42.666667 0 0 0-14.933334-32.426667zM234.666667 853.333333A64 64 0 1 1 298.666667 789.333333 64 64 0 0 1 234.666667 853.333333z m554.666666-85.333333a64 64 0 1 1 64-64 64 64 0 0 1-64 64zM853.333333 304.64L384 376.746667v-128l469.333333-70.826667z" p-id="14519"></path></svg>