<?xml version="1.0"?>
<svg width="1024" height="1024" xmlns="http://www.w3.org/2000/svg" xmlns:svg="http://www.w3.org/2000/svg" class="icon" version="1.1">
 <g class="layer">
  <title>Layer 1</title>
  <path d="m129.43,502.89l267.78,289.94l0,-146.38l26.83,-31.59c77.57,-12.7 158.72,-9.83 243.2,8.09c69.32,14.69 142.18,63.49 218.72,141.11a528.95,528.95 0 0 0 -134.14,-229.58l20.84,-20.59l-20.84,20.59c-88.88,-90.06 -195.89,-135.22 -322.87,-136.25l-31.74,-32l0,-138.24l-267.78,274.9zm-67.02,-22.94l343.86,-352.92l54.94,22.32l0,185.96c130.3,8.09 242.84,59.65 336.18,154.21c100.35,101.69 157.9,228.36 173.11,378.42l-56.58,23.55c-103.63,-126.56 -190.36,-191.18 -259.99,-205.92c-67.59,-14.34 -131.79,-17.97 -192.72,-11.21l0,200.29l-55.55,21.71l-343.81,-372.38l0.56,-44.03z" fill="#bfbfbf" id="svg_1"/>
 </g>
</svg>