<svg width="24" height="24" viewBox="0 0 24 24" fill="none"
    xmlns="http://www.w3.org/2000/svg">
    <path
        d="M16.832 4.87594C16.5885 4.74217 16.3137 4.67573 16.036 4.68347C15.7583 4.6912 15.4877 4.77283 15.252 4.91994L9.476 8.55194H7.556C6.7 8.55194 6 9.24794 6 10.1079V15.7279C6 16.5839 6.696 17.2839 7.556 17.2839H9.476L15.256 20.9159C15.508 21.0759 15.796 21.1519 16.084 21.1519C16.344 21.1519 16.604 21.0879 16.836 20.9559C17.0794 20.8219 17.2824 20.625 17.4238 20.3858C17.5652 20.1466 17.6399 19.8738 17.64 19.5959V6.23594C17.6382 5.95792 17.5625 5.68538 17.4205 5.44635C17.2785 5.20732 17.0753 5.01044 16.832 4.87594ZM16.036 19.5159L10.132 15.8039C10.004 15.7239 9.856 15.6799 9.708 15.6799H7.6V10.1519H9.708C9.86 10.1519 10.008 10.1079 10.132 10.0279L16.036 6.31594V19.5159Z"
        fill="#6E7781" />
</svg>
