<?xml version="1.0" standalone="no"?><!DOCTYPE svg PUBLIC "-//W3C//DTD SVG 1.1//EN" "http://www.w3.org/Graphics/SVG/1.1/DTD/svg11.dtd"><svg t="1705149979737" class="icon" viewBox="0 0 1024 1024" version="1.1" xmlns="http://www.w3.org/2000/svg" p-id="3421" xmlns:xlink="http://www.w3.org/1999/xlink" width="200" height="200"><path d="M218.495828 334.609871c-0.390903-0.019443-0.773619-0.019443-1.164522-0.019443L100.022553 334.590428c-21.744233 0-39.087227 17.448394-39.087227 39.001269l0 273.866415c0 21.551852 17.505699 38.999223 39.087227 38.999223l117.308753 0c0.057305 0 0.113587 0 0.171915 0l0 0.153496 287.22056 185.975668c6.824429 5.842055 15.691377 9.354042 25.370831 9.354042 21.590737 0 39.096437-17.505699 39.096437-39.095413 0-1.794879-0.124843-3.551896-0.354064-5.270027L568.836985 183.473685c0.229221-1.718131 0.354064-3.475148 0.354064-5.269004 0-21.590737-17.505699-39.096437-39.096437-39.096437-8.895601 0-17.105586 2.977821-23.682375 7.979742L218.495828 334.609871z" fill="#dd799d" p-id="3422"></path><path d="M757.858012 953.491133l0.085958 0.075725c123.876332-107.514689 202.211445-266.13329 202.211445-443.041442 0-177.214121-78.603219-336.062965-202.851011-443.61654l-0.11461 0.11461c-4.963035-3.817955-11.17655-6.109138-17.925255-6.109138-16.197914 0-29.322839 13.133112-29.322839 29.321816 0 6.757914 2.28095 12.981662 6.109138 17.926278l-0.333598 0.342808c0.821715 0.706081 1.641383 1.393743 2.462075 2.119267 1.173732 1.202385 2.452865 2.329045 3.817955 3.321652 110.054535 96.710622 179.51349 238.550071 179.51349 396.578224 0 158.02713-69.458955 299.866578-179.51349 396.577201-1.36509 0.99363-2.644223 2.118244-3.817955 3.321652-0.600681 0.533143-1.212618 1.048889-1.822508 1.564635l0.229221 0.230244c-4.152577 5.058203-6.643304 11.530614-6.643304 18.593474 0 16.188704 13.124925 29.321816 29.322839 29.321816C746.317165 960.134437 752.798786 957.651896 757.858012 953.491133z" fill="#dd799d" p-id="3423"></path><path d="M713.998085 729.35433l0.23843 0.24764c55.380308-56.43022 89.532129-133.76454 89.532129-219.077577 0-85.409229-34.228569-162.800853-89.704045-219.249493l-0.268106 0.267083c-4.886287-3.64604-10.966773-5.821589-17.543561-5.821589-16.197914 0-29.322839 13.133112-29.322839 29.321816 0 6.566556 2.166339 12.657274 5.822612 17.544585l-0.162706 0.170892c0.773619 0.782829 1.547239 1.584078 2.310625 2.38635 0.075725 0.076748 0.152473 0.171915 0.23843 0.248663 43.3626 45.587268 69.983911 107.248629 69.983911 175.132716 0 67.884087-26.621311 129.544425-69.983911 175.131693-0.085958 0.077771-0.162706 0.171915-0.23843 0.24764-0.706081 0.74599-1.422396 1.471514-2.13871 2.214435l0.144286 0.134053c-3.751441 4.926196-5.976108 11.092639-5.976108 17.754363 0 16.188704 13.124925 29.321816 29.322839 29.321816C702.925912 735.328391 709.072913 733.113957 713.998085 729.35433z" fill="#dd799d" p-id="3424"></path></svg>