<?xml version="1.0" standalone="no"?><!DOCTYPE svg PUBLIC "-//W3C//DTD SVG 1.1//EN" "http://www.w3.org/Graphics/SVG/1.1/DTD/svg11.dtd"><svg t="1706122502713" class="icon" viewBox="0 0 1024 1024" version="1.1" xmlns="http://www.w3.org/2000/svg" p-id="3735" xmlns:xlink="http://www.w3.org/1999/xlink" width="200" height="200"><path d="M552.96 152.064v719.872c0 16.118-12.698 29.184-28.365 29.184a67.482 67.482 0 0 1-48.394-20.644L329.359 729.354a74.547 74.547 0 0 0-53.493-22.794H250.47c-104.386 0-189.03-87.101-189.03-194.56s84.644-194.56 189.03-194.56h25.396c20.07 0 39.3-8.192 53.473-22.794L476.18 143.503a67.482 67.482 0 0 1 48.436-20.623c15.646 0 28.344 13.066 28.344 29.184z m212.05 281.088l6-59.904a27.853 27.853 0 0 1 55.42 0l6 59.904a50.422 50.422 0 0 0 45.138 45.138l59.904 6a27.853 27.853 0 0 1 0 55.42l-59.904 6a50.422 50.422 0 0 0-45.138 45.138l-6 59.904a27.853 27.853 0 0 1-55.42 0l-6-59.904a50.422 50.422 0 0 0-45.138-45.138l-59.904-6a27.853 27.853 0 0 1 0-55.42l59.904-6a50.422 50.422 0 0 0 45.138-45.138z" fill="#e83e66" p-id="3736"></path></svg>