<svg width="24" height="24" viewBox="0 0 24 24" fill="none" xmlns="http://www.w3.org/2000/svg">
    <path d="M12.796 4.87594C12.5525 4.74217 12.2777 4.67573 12 4.68347C11.7223 4.6912 11.4517 4.77283 11.216 4.91994L5.43999 8.55194H3.51999C2.66399 8.55194 1.96399 9.24794 1.96399 10.1079V15.7279C1.96399 16.5839 2.65999 17.2839 3.51999 17.2839H5.43999L11.22 20.9159C11.472 21.0759 11.76 21.1519 12.048 21.1519C12.308 21.1519 12.568 21.0879 12.8 20.9559C13.0434 20.8219 13.2464 20.625 13.3878 20.3858C13.5292 20.1466 13.6038 19.8738 13.604 19.5959V6.23594C13.6022 5.95792 13.5265 5.68538 13.3844 5.44635C13.2424 5.20732 13.0393 5.01044 12.796 4.87594ZM12 19.5159L6.09599 15.8039C5.96799 15.7239 5.81999 15.6799 5.67199 15.6799H3.56399V10.1519H5.67199C5.82399 10.1519 5.97199 10.1079 6.09599 10.0279L12 6.31594V19.5159ZM18.908 12.9159C18.908 11.1199 17.944 9.45194 16.388 8.55994C16.004 8.33994 15.516 8.47194 15.296 8.85594C15.076 9.23994 15.208 9.72794 15.592 9.94794C16.1136 10.2492 16.5468 10.6824 16.8479 11.2041C17.1491 11.7258 17.3076 12.3176 17.3076 12.9199C17.3076 13.5223 17.1491 14.1141 16.8479 14.6358C16.5468 15.1575 16.1136 15.5907 15.592 15.8919C15.208 16.1119 15.076 16.5999 15.296 16.9839C15.3486 17.0752 15.4188 17.1552 15.5024 17.2194C15.586 17.2835 15.6815 17.3305 15.7833 17.3576C15.8852 17.3847 15.9914 17.3915 16.0958 17.3775C16.2003 17.3634 16.3009 17.3289 16.392 17.2759C17.944 16.3799 18.908 14.7119 18.908 12.9159Z" fill="#6E7781"/>
    <path d="M18.3959 5.624C18.0119 5.404 17.5239 5.536 17.3039 5.916C17.0839 6.296 17.2159 6.788 17.5959 7.008C19.6999 8.224 21.0079 10.488 21.0079 12.916C21.0079 15.344 19.6999 17.608 17.5959 18.824C17.2119 19.044 17.0839 19.536 17.3039 19.916C17.4519 20.172 17.7199 20.316 17.9959 20.316C18.1319 20.316 18.2679 20.28 18.3959 20.208C19.6748 19.4675 20.7368 18.4043 21.476 17.1246C22.2151 15.845 22.6055 14.3938 22.6079 12.916C22.6079 9.916 20.9959 7.124 18.3959 5.624Z" fill="#6E7781"/>
    </svg>
    