<svg width="16" height="16" viewBox="0 0 16 16" fill="none" xmlns="http://www.w3.org/2000/svg">
  <path d="M12.5 3H3.5C3.224 3 3 3.224 3 3.5V12.5C3 12.776 3.224 13 3.5 13H12.5C12.776 13 13 12.776 13 12.5V3.5C13 3.224 12.776 3 12.5 3ZM12 12H4V4H12V12Z" fill="currentColor"/>
  <path d="M8.8 10H9.55V6.1H8.8L7.75 6.85V7.65L8.65 7.05H8.8V10Z" fill="currentColor"/>
  <path d="M5.95 10H8.15V9.3H6.9V9.25L7.8 8.2C8.15 7.8 8.25 7.55 8.25 7.25C8.25 6.65 7.85 6.25 7.1 6.25C6.75 6.25 6.45 6.4 6.25 6.6C6.05 6.8 5.95 7.05 5.95 7.3H6.7C6.7 7 6.85 6.85 7.1 6.85C7.35 6.85 7.5 7 7.5 7.25C7.5 7.45 7.4 7.6 7.15 7.9L5.95 9.3V10Z" fill="currentColor"/>
</svg>