<svg width="16" height="16" viewBox="0 0 16 16" fill="none" xmlns="http://www.w3.org/2000/svg">
  <path d="M13.877 3.50239C13.9137 3.58489 13.943 3.68015 13.9662 3.7904C13.9887 3.89991 14 4.01391 14 4.13317C14 4.25167 13.9775 4.37093 13.9317 4.48943C13.8867 4.60794 13.8132 4.72195 13.7135 4.8322C13.617 4.9295 13.5193 5.02552 13.4202 5.12021C13.3332 5.20272 13.2582 5.27547 13.1952 5.33997C13.1292 5.40632 13.0606 5.47012 12.9897 5.53123L10.4373 2.96761C10.5468 2.86711 10.6766 2.7456 10.8266 2.60384C10.9766 2.46209 11.1019 2.35033 11.2016 2.26783C11.4267 2.085 11.7106 1.99012 12.0004 2.00082C12.1324 2.00532 12.2599 2.02557 12.3829 2.06232C12.5052 2.09907 12.6124 2.14032 12.7032 2.18607C12.8944 2.28658 13.106 2.46209 13.3377 2.7141C13.5702 2.96536 13.7502 3.22787 13.8777 3.50164L13.877 3.50239ZM3.24449 10.1935C3.29924 10.1387 3.42675 10.0082 3.62701 9.80344C3.82726 9.59718 4.07703 9.34367 4.37704 9.04215L5.37459 8.04085L6.48014 6.9308L9.41503 3.98241L11.9674 6.56028L9.03251 9.50792L7.94046 10.6187C7.57669 10.975 7.24893 11.302 6.95791 11.599C6.6669 11.896 6.42539 12.1405 6.23413 12.3326C6.03082 12.5451 5.81196 12.7421 5.57935 12.9221C5.46084 13.0136 5.33859 13.0871 5.21108 13.1418C5.08357 13.2056 4.89682 13.2836 4.65155 13.3744C4.40554 13.4659 4.14903 13.5551 3.87977 13.6421C3.62707 13.7244 3.37221 13.7999 3.11548 13.8686C2.87472 13.9324 2.69546 13.9736 2.57696 13.9916C2.33094 14.0194 2.16744 13.9826 2.08493 13.8821C2.00318 13.7816 1.97993 13.6121 2.01743 13.3751C2.03543 13.2469 2.07818 13.0616 2.14643 12.8201C2.21469 12.5771 2.28744 12.3258 2.3647 12.0655C2.4427 11.8045 2.5177 11.5645 2.58971 11.3455C2.66321 11.1257 2.72246 10.975 2.76746 10.8932C2.82222 10.765 2.88372 10.6487 2.95197 10.543C3.01948 10.438 3.11773 10.3217 3.24524 10.1935H3.24449Z" fill="#57606A"/>
</svg>
  