<svg width="16" height="16" viewBox="0 0 16 16" fill="none" xmlns="http://www.w3.org/2000/svg">
  <path d="M13.85 3.65C13.7 3.5 13.5 3.4 13.275 3.4H11.025C10.775 3.4 10.575 3.5 10.425 3.65L9.075 5H4.4C3.625 5 3 5.625 3 6.4V11.6C3 12.375 3.625 13 4.4 13H12.6C13.375 13 14 12.375 14 11.6V6.4C14 6.025 13.85 5.675 13.6 5.425L13.85 3.65ZM12.6 12H4.4C4.175 12 4 11.825 4 11.6V6.4C4 6.175 4.175 6 4.4 6H9.5L11 4.5H12L13.175 5.675C13.075 5.6 12.95 5.55 12.8 5.55C12.45 5.55 12.15 5.85 12.15 6.2V7.05C12.15 7.575 11.725 8 11.2 8H5.8C5.625 8 5.45 8.05 5.325 8.175C5.05 8.45 5.05 8.9 5.325 9.175C5.45 9.3 5.625 9.35 5.8 9.35H11.2C12.475 9.35 13.5 8.325 13.5 7.05V6.2C13.5 6 13.425 5.825 13.3 5.7L13 6C13 6 13 11.6 13 11.6C13 11.825 12.825 12 12.6 12Z" fill="currentColor"/>
</svg>