<svg xmlns="http://www.w3.org/2000/svg" width="18" height="18" viewBox="0 0 18 18" fill="none">
  <g clip-path="url(#clip0_5608_20414)">
    <path d="M10.1953 12.4424C10.3187 12.4424 10.4397 12.4784 10.543 12.5459C10.6461 12.6134 10.7278 12.7084 10.7773 12.8213L11.2344 13.8574C11.2986 14.0013 11.4145 14.1186 11.5596 14.1816L12.5957 14.6387C12.7082 14.6883 12.8039 14.7701 12.8711 14.873C12.9384 14.9762 12.9746 15.0975 12.9746 15.2207C12.9745 15.3437 12.9382 15.4643 12.8711 15.5674C12.8039 15.6703 12.7081 15.7521 12.5957 15.8018L11.5596 16.2588C11.415 16.3234 11.2989 16.4394 11.2344 16.584L10.7783 17.6191C10.7288 17.7322 10.6473 17.8289 10.5439 17.8965C10.4409 17.9638 10.3204 17.9999 10.1973 18C10.0738 18 9.95195 17.964 9.84863 17.8965C9.74545 17.8289 9.66374 17.7321 9.61426 17.6191L9.15723 16.5859C9.09271 16.4413 8.97664 16.3254 8.83203 16.2607L7.7959 15.8027C7.6832 15.753 7.5868 15.6715 7.51953 15.5684C7.45241 15.4653 7.41705 15.3447 7.41699 15.2217C7.41704 15.0987 7.45243 14.9781 7.51953 14.875C7.58678 14.7719 7.68325 14.6903 7.7959 14.6406L8.83203 14.1846C8.97697 14.1197 9.09292 14.0026 9.15723 13.8574L9.61426 12.8223C9.6638 12.7094 9.74545 12.6134 9.84863 12.5459C9.95184 12.4786 10.0721 12.4424 10.1953 12.4424ZM3.37793 6.67773C3.52805 6.67775 3.6752 6.72244 3.80078 6.80469C3.92612 6.88693 4.02407 7.00417 4.08398 7.1416L4.63965 8.39844C4.71735 8.57452 4.85807 8.71532 5.03418 8.79297L6.29199 9.34863C6.42918 9.40878 6.54693 9.50745 6.62891 9.63281C6.71074 9.75814 6.75482 9.90501 6.75488 10.0547C6.75488 10.2045 6.71087 10.3521 6.62891 10.4775C6.54693 10.6029 6.42915 10.7016 6.29199 10.7617L5.03223 11.3164C4.85674 11.3944 4.71694 11.5351 4.63965 11.7109L4.08398 12.9688C4.0238 13.106 3.9243 13.2237 3.79883 13.3057C3.67347 13.3874 3.52663 13.4307 3.37695 13.4307C3.22723 13.4306 3.08044 13.3875 2.95508 13.3057C2.82961 13.2237 2.73108 13.106 2.6709 12.9688L2.11719 11.7109C2.03953 11.5348 1.89783 11.3941 1.72168 11.3164L0.462891 10.7617C0.325457 10.7018 0.20819 10.6029 0.125977 10.4775C0.0437704 10.352 6.31507e-05 10.2047 0 10.0547C0 9.90467 0.0438556 9.75737 0.125977 9.63184C0.208164 9.50643 0.32548 9.40765 0.462891 9.34766L1.72168 8.79395C1.89801 8.71597 2.03976 8.57501 2.11719 8.39844L2.6709 7.1416C2.73084 7.00412 2.82968 6.88694 2.95508 6.80469C3.08069 6.72242 3.22778 6.67773 3.37793 6.67773ZM12.9746 -0.000976562C13.1978 -0.000976563 13.4166 0.064516 13.6035 0.186523C13.7904 0.308537 13.9376 0.483189 14.0273 0.6875L14.8555 2.56152C14.9718 2.82325 15.1816 3.03213 15.4434 3.14844L17.3174 3.97559C17.5216 4.06531 17.6954 4.21267 17.8174 4.39941C17.9393 4.58626 18.0049 4.80519 18.0049 5.02832C18.0048 5.25132 17.9393 5.46952 17.8174 5.65625C17.6954 5.84304 17.5216 5.99132 17.3174 6.08105L15.4434 6.90625C15.1814 7.02286 14.9716 7.23201 14.8555 7.49414L14.0293 9.36914C13.9395 9.57347 13.7914 9.74713 13.6045 9.86914C13.4177 9.99105 13.1996 10.0566 12.9766 10.0566C12.7534 10.0566 12.5345 9.99113 12.3477 9.86914C12.1609 9.74713 12.0135 9.57337 11.9238 9.36914L11.0986 7.49414C10.9829 7.23212 10.7718 7.02194 10.5098 6.90625L8.63574 6.08105C8.43147 5.99132 8.25678 5.84305 8.13477 5.65625C8.01295 5.46957 7.94833 5.25123 7.94824 5.02832C7.94824 4.80519 8.01281 4.58626 8.13477 4.39941C8.25678 4.21257 8.43143 4.06534 8.63574 3.97559L10.5098 3.14844C10.7719 3.03235 10.982 2.8234 11.0986 2.56152L11.9229 0.6875C12.0126 0.483263 12.1599 0.308531 12.3467 0.186523C12.5334 0.0647072 12.7517 -0.000889885 12.9746 -0.000976562Z" fill="white"/>
  </g>
  <defs>
    <clipPath id="clip0_5608_20414">
      <rect width="18" height="18" fill="white"/>
    </clipPath>
  </defs>
</svg>