<svg width="16" height="16" viewBox="0 0 16 16" fill="none" xmlns="http://www.w3.org/2000/svg">
  <path fill-rule="evenodd" clip-rule="evenodd" d="M13.896 8.67697L11.9608 11.6943C11.7132 12.0887 11.1446 12.0887 10.8878 11.6943L8.96186 8.67697C8.68672 8.2551 8.98937 7.69565 9.49378 7.69565H10.5943C10.3834 5.95313 8.90683 4.60496 7.11753 4.60496C5.18332 4.60496 3.60496 6.18241 3.60496 8.11753C3.60496 10.0527 5.18332 11.6301 7.11753 11.6301C7.55866 11.6301 7.91542 11.9869 7.91542 12.428C7.91542 12.8774 7.55866 13.2351 7.11753 13.2351C4.2928 13.2351 2 10.9423 2 8.11753C2 5.30197 4.2928 3 7.11753 3C9.79552 3 11.9975 5.07269 12.2085 7.69565H13.364C13.8684 7.69565 14.1711 8.2551 13.896 8.67697Z" fill="currentColor"/>
</svg>
