<svg width="100" height="100" viewBox="0 0 100 100" fill="none" xmlns="http://www.w3.org/2000/svg">
  <path d="M2 50C2 86.8954 42.0001 109.955 74 91.5073C88.8512 82.9457 98 67.1232 98 50C98 13.1046 58 -9.95496 26 8.4927C11.1488 17.0544 2 32.8768 2 50Z" fill="#E7F9FA"/>
  <path d="M1.59473 16.4598C1.59473 14.2507 3.38559 12.4598 5.59473 12.4598H60.5281C62.7373 12.4598 64.5281 14.2507 64.5281 16.4598V55.6515C64.5281 57.8607 62.7373 59.6515 60.5281 59.6515H5.59473C3.38559 59.6515 1.59473 57.8607 1.59473 55.6515V16.4598Z" fill="#FF6242"/>
  <path d="M53.0852 12.4598H5.25723C3.23453 12.4598 1.59473 14.0996 1.59473 16.1223V52.2517L53.0852 12.4598Z" fill="#FF6242"/>
  <path d="M1.59473 16.4598C1.59473 14.2507 3.38559 12.4598 5.59473 12.4598H60.5281C62.7373 12.4598 64.5281 14.2507 64.5281 16.4598V55.6515C64.5281 57.8607 62.7373 59.6515 60.5281 59.6515H5.59473C3.38559 59.6515 1.59473 57.8607 1.59473 55.6515V16.4598Z" stroke="#45413C" stroke-width="1.4" stroke-linecap="round" stroke-linejoin="round"/>
  <path d="M60.8668 12.4598H5.25843C3.23523 12.4592 1.59473 14.0991 1.59473 16.1223V21.1716H64.5292V16.1223C64.5292 14.0996 62.8895 12.4598 60.8668 12.4598Z" fill="white"/>
  <path d="M60.8668 12.4598H5.25843C3.23523 12.4592 1.59473 14.0991 1.59473 16.1223V21.1704H64.5292V16.1223C64.5292 14.0996 62.8895 12.4598 60.8668 12.4598Z" stroke="#45413C" stroke-width="1.4" stroke-linecap="round" stroke-linejoin="round"/>
  <path d="M5.25708 16.7931C5.25708 18.2033 6.78358 19.0846 8.00478 18.3795C8.57148 18.0523 8.92068 17.4476 8.92068 16.7931C8.92068 15.383 7.39418 14.5017 6.17298 15.2067C5.60618 15.534 5.25708 16.1387 5.25708 16.7931Z" fill="#FF6242"/>
  <path d="M11.552 16.7931C11.552 18.2033 13.0785 19.0846 14.2997 18.3795C14.8665 18.0523 15.2157 17.4476 15.2157 16.7931C15.2157 15.383 13.6891 14.5017 12.4679 15.2067C11.9012 15.534 11.552 16.1387 11.552 16.7931Z" fill="#FFE500"/>
  <path d="M17.8467 16.7931C17.8467 18.2033 19.3732 19.0846 20.5944 18.3795C21.1612 18.0523 21.5103 17.4476 21.5103 16.7931C21.5103 15.383 19.9838 14.5017 18.7626 15.2067C18.1958 15.534 17.8467 16.1387 17.8467 16.7931Z" fill="#6DD627"/>
  <path opacity="0.15" d="M49.3289 91.2408C49.3194 92.8267 61.9072 93.8193 71.9869 93.0274C76.6725 92.6593 79.5581 91.978 79.5537 91.2408C79.5632 89.6548 66.9754 88.6622 56.8958 89.4541C52.2101 89.8222 49.3245 90.5035 49.3289 91.2408Z" fill="#45413C"/>
  <path d="M93.5812 59.0211C95.4433 51.4121 88.3702 44.6407 80.8495 46.8325C79.6371 47.1859 78.501 47.7619 77.4994 48.531C67.3159 36.5275 47.9571 40.0492 42.6535 54.8701C41.8612 57.0842 41.4568 59.4184 41.458 61.77C41.458 61.814 41.4639 61.8556 41.4651 61.8996C41.0398 61.8286 40.6102 61.7853 40.1793 61.77C32.3045 61.7778 27.3913 70.3073 31.3354 77.1231C33.1622 80.2801 36.5318 82.2255 40.1793 82.2291H86.2124C96.0411 82.2436 102.2 71.6126 97.2979 63.0935C96.3704 61.4815 95.1019 60.0917 93.5812 59.0211Z" fill="white"/>
  <path d="M30.5017 68.6749C31.9115 72.8186 35.8013 75.6062 40.1782 75.6096H86.2113C92.0028 75.6059 97.0678 71.7079 98.5546 66.1104C100.756 74.2384 94.6332 82.2371 86.2125 82.2351H40.1794C33.1569 82.23 28.2241 75.3174 30.5029 68.6749H30.5017Z" fill="#DAEDF7"/>
  <path d="M93.5812 59.0211C95.4433 51.4121 88.3702 44.6407 80.8495 46.8325C79.6371 47.1859 78.501 47.7619 77.4994 48.531C67.3159 36.5275 47.9571 40.0492 42.6535 54.8701C41.8612 57.0842 41.4568 59.4184 41.458 61.77C41.458 61.814 41.4639 61.8556 41.4651 61.8996C41.0398 61.8286 40.6102 61.7853 40.1793 61.77C32.3045 61.7778 27.3913 70.3073 31.3354 77.1231C33.1622 80.2801 36.5318 82.2255 40.1793 82.2291H86.2124C96.0411 82.2436 102.2 71.6126 97.2979 63.0935C96.3704 61.4815 95.1019 60.0917 93.5812 59.0211Z" stroke="#45413C" stroke-width="1.4" stroke-linecap="round" stroke-linejoin="round"/>
  <path d="M81.3296 72.536C81.3253 74.9991 78.6561 76.5339 76.5252 75.2985C75.5397 74.7272 74.9322 73.6751 74.9302 72.536C74.9302 70.7684 78.1299 64.5367 78.1299 64.5367C78.1299 64.5367 81.3296 70.7684 81.3296 72.536Z" fill="#4ACFFF" stroke="#009FD9" stroke-width="1.4" stroke-linecap="round" stroke-linejoin="round"/>
  <path d="M53.7964 60.0571C53.7964 61.535 55.3963 62.4587 56.6762 61.7197C57.2702 61.3768 57.6361 60.743 57.6361 60.0571C57.6361 58.5792 56.0362 57.6555 54.7563 58.3945C54.1623 58.7374 53.7964 59.3712 53.7964 60.0571Z" fill="#45413C"/>
  <path d="M71.2463 60.0571C71.2463 61.535 72.8461 62.4587 74.126 61.7197C74.72 61.3768 75.0859 60.743 75.0859 60.0571C75.0859 58.5792 73.4861 57.6555 72.2062 58.3945C71.6122 58.7374 71.2463 59.3712 71.2463 60.0571Z" fill="#45413C"/>
  <path d="M58.5448 73.4009C58.0712 73.4009 57.6243 73.1811 57.3351 72.806C57.0422 72.4349 56.94 71.9481 57.0592 71.4905C58.5281 65.8079 65.5978 63.8464 69.7847 67.9598C70.772 68.9299 71.4767 70.1505 71.8231 71.4905C71.9422 71.9481 71.8401 72.4349 71.5471 72.806C71.2583 73.1809 70.8119 73.4007 70.3386 73.4009C68.3969 72.9859 66.4245 72.7308 64.4411 72.6383C62.4582 72.7308 60.4861 72.9859 58.5448 73.4009Z" fill="#FFA694" stroke="#45413C" stroke-width="1.4" stroke-linecap="round" stroke-linejoin="round"/>
  <path d="M41.138 47.8399C39.9922 48.9874 38.1326 48.9874 36.9867 47.8399L33.0626 43.9217L29.1373 47.8399C27.6221 49.5153 24.8614 48.9221 24.1681 46.7722C23.8139 45.6739 24.1363 44.47 24.9919 43.6957L28.9172 39.7704L24.9919 35.8451C23.3941 34.2477 24.1247 31.5197 26.307 30.9346C27.3198 30.6631 28.4005 30.9525 29.1421 31.6938L33.0674 35.6191L36.9867 31.6938C38.5846 30.096 41.3129 30.827 41.8978 33.0097C42.1692 34.0227 41.8796 35.1036 41.138 35.8451L37.2127 39.7704L41.138 43.6957C42.2788 44.8416 42.2788 46.694 41.138 47.8399Z" fill="white" stroke="#E04122" stroke-width="1.4" stroke-linecap="round" stroke-linejoin="round"/>
</svg>