<svg width="100" height="100" viewBox="0 0 100 100" fill="none" xmlns="http://www.w3.org/2000/svg">
  <circle cx="50" cy="50" r="50" fill="#eaeff3"/>
  <path fill="#fff" d="M10.987 26.219a3.29 3.29 0 0 1 3.29-3.29h45.175a3.29 3.29 0 0 1 3.29 3.29v29.539a3.29 3.29 0 0 1-3.29 3.29H14.276a3.29 3.29 0 0 1-3.29-3.29z"/>
  <path stroke="#24292f" stroke-linecap="round" stroke-linejoin="round" stroke-width=".822" d="M10.987 26.219a3.29 3.29 0 0 1 3.29-3.29h45.175a3.29 3.29 0 0 1 3.29 3.29v29.539a3.29 3.29 0 0 1-3.29 3.29H14.276a3.29 3.29 0 0 1-3.29-3.29z"/>
  <path stroke="#24292f" stroke-linecap="round" stroke-linejoin="round" stroke-width=".822" d="m62.67 52.71.034 3.011a3.29 3.29 0 0 1-3.29 3.327H14.24a3.29 3.29 0 0 1-3.289-3.253l-.034-3.085z"/>
  <path fill="#ffd350" d="M59.364 23.307H14.327c-1.639 0-2.967 1.265-2.967 2.827v3.326h50.97v-3.326c0-1.561-1.328-2.827-2.966-2.827"/>
  <path fill="#fff" d="M13.998 26.67a1.16 1.16 0 1 0 2.322 0 1.16 1.16 0 0 0-2.322 0m3.989 0a1.16 1.16 0 1 0 2.321 0 1.16 1.16 0 0 0-2.32 0m3.987 0a1.16 1.16 0 1 0 2.322 0 1.16 1.16 0 0 0-2.322 0"/>
  <rect width="3.787" height="3.786" x="53.611" y="46.574" fill="#f8f8f8" rx="1.893"/>
  <path fill="#fff" d="M85.784 56.612c1.501-6.132-4.2-11.59-10.26-9.823a8.2 8.2 0 0 0-2.7 1.37c-8.208-9.675-23.81-6.837-28.084 5.108a16.5 16.5 0 0 0-.963 5.56l.005.105a8 8 0 0 0-1.036-.104c-6.346.006-10.306 6.88-7.128 12.373a8.24 8.24 0 0 0 7.128 4.115h37.1c7.92.012 12.884-8.556 8.934-15.422a10.3 10.3 0 0 0-2.996-3.282"/>
  <path fill="#eaeff3" d="M34.946 64.393a8.24 8.24 0 0 0 7.799 5.589h37.1a10.3 10.3 0 0 0 9.947-7.656c1.774 6.55-3.16 12.997-9.947 12.995h-37.1c-5.659-.004-9.634-5.575-7.798-10.928"/>
  <path stroke="#24292f" stroke-linecap="round" stroke-linejoin="round" stroke-width="1.128" d="M85.784 56.612c1.501-6.132-4.2-11.59-10.26-9.823a8.2 8.2 0 0 0-2.7 1.37c-8.208-9.675-23.81-6.837-28.084 5.108a16.5 16.5 0 0 0-.963 5.56l.005.105a8 8 0 0 0-1.036-.104c-6.346.006-10.306 6.88-7.128 12.373a8.24 8.24 0 0 0 7.128 4.115h37.1c7.92.012 12.884-8.556 8.934-15.422a10.3 10.3 0 0 0-2.996-3.282"/>
  <path fill="#eaeff3" d="M56.32 67.198c-.204 0-.367-.081-.53-.204a.765.765 0 0 1 0-1.063 10 10 0 0 1 7.032-2.863 10 10 0 0 1 7.034 2.863.765.765 0 0 1 0 1.063.765.765 0 0 1-1.064 0c-1.594-1.595-3.72-2.454-5.97-2.454s-4.375.86-5.97 2.454c-.163.123-.327.204-.531.204m2.576-10.958.982-.982a.766.766 0 0 0 0-1.063.766.766 0 0 0-1.063 0l-.982.981-.981-.981a.766.766 0 0 0-1.063 0 .766.766 0 0 0 0 1.063l.981.981-.981.982a.766.766 0 0 0 0 1.063c.163.163.327.204.531.204s.368-.081.532-.204l.981-.981.981.981c.164.163.328.204.532.204s.368-.081.532-.204a.766.766 0 0 0 0-1.063zm9.936 0 .981-.982a.766.766 0 0 0 0-1.063.766.766 0 0 0-1.063 0l-.981.981-.981-.981a.766.766 0 0 0-1.064 0 .766.766 0 0 0 0 1.063l.982.981-.982.982a.766.766 0 0 0 0 1.063c.164.163.328.204.532.204s.368-.081.532-.204l.98-.981.982.981c.164.163.327.204.532.204.204 0 .368-.081.531-.204a.766.766 0 0 0 0-1.063z"/>
  <path stroke="#ff6242" stroke-linecap="round" stroke-width="2.151" d="m40.526 36.385-8.521 7.91m0-7.91 8.52 7.91"/>
  <path fill="#d9dfe5" d="M49.348 81.43c-.008 1.375 10.801 2.235 19.457 1.549 4.023-.32 6.501-.91 6.498-1.55.008-1.375-10.802-2.236-19.457-1.55-4.024.32-6.502.91-6.498 1.55"/>
</svg>
