<svg width="100" height="100" viewBox="0 0 100 100" fill="none" xmlns="http://www.w3.org/2000/svg">
  <path d="M2 50C2 86.8954 42.0001 109.955 74 91.5073C88.8512 82.9457 98 67.1232 98 50C98 13.1046 58 -9.95496 26 8.4927C11.1488 17.0544 2 32.8768 2 50Z" fill="#E7F9FA"/>
  <path d="M1.59473 16.4597C1.59473 14.2506 3.38559 12.4597 5.59473 12.4597H60.5281C62.7373 12.4597 64.5281 14.2506 64.5281 16.4597V55.6514C64.5281 57.8605 62.7373 59.6514 60.5281 59.6514H5.59473C3.38559 59.6514 1.59473 57.8606 1.59473 55.6514V16.4597Z" fill="#FF6242"/>
  <path d="M53.0852 12.4597H5.25723C3.23453 12.4597 1.59473 14.0995 1.59473 16.1222V52.2516L53.0852 12.4597Z" fill="#FF6242"/>
  <path d="M1.59473 16.4597C1.59473 14.2506 3.38559 12.4597 5.59473 12.4597H60.5281C62.7373 12.4597 64.5281 14.2506 64.5281 16.4597V55.6514C64.5281 57.8606 62.7373 59.6514 60.5281 59.6514H5.59473C3.38559 59.6514 1.59473 57.8606 1.59473 55.6514V16.4597Z" stroke="#24292F" stroke-width="1.4" stroke-linecap="round" stroke-linejoin="round"/>
  <path d="M60.8668 12.4597H5.25843C3.23523 12.4591 1.59473 14.099 1.59473 16.1222V21.1715H64.5292V16.1222C64.5292 14.0995 62.8895 12.4597 60.8668 12.4597Z" fill="white"/>
  <path d="M60.8668 12.4597H5.25843C3.23523 12.4591 1.59473 14.099 1.59473 16.1222V21.1703H64.5292V16.1222C64.5292 14.0995 62.8895 12.4597 60.8668 12.4597Z" stroke="#24292F" stroke-width="1.4" stroke-linecap="round" stroke-linejoin="round"/>
  <path d="M5.25732 16.793C5.25732 18.2032 6.78382 19.0845 8.00502 18.3794C8.57172 18.0522 8.92092 17.4475 8.92092 16.793C8.92092 15.3829 7.39442 14.5016 6.17322 15.2066C5.60642 15.5339 5.25732 16.1386 5.25732 16.793Z" fill="#FF6242"/>
  <path d="M11.5518 16.793C11.5518 18.2032 13.0783 19.0845 14.2995 18.3794C14.8663 18.0522 15.2155 17.4475 15.2155 16.793C15.2155 15.3829 13.6889 14.5016 12.4677 15.2066C11.901 15.5339 11.5518 16.1386 11.5518 16.793Z" fill="#FFE500"/>
  <path d="M17.8467 16.793C17.8467 18.2032 19.3732 19.0845 20.5944 18.3794C21.1612 18.0522 21.5103 17.4475 21.5103 16.793C21.5103 15.3829 19.9838 14.5016 18.7626 15.2066C18.1958 15.5339 17.8467 16.1386 17.8467 16.793Z" fill="#6DD627"/>
  <path opacity="0.15" d="M49.3286 91.2408C49.3191 92.8267 61.9069 93.8193 71.9866 93.0274C76.6722 92.6593 79.5578 91.978 79.5534 91.2408C79.5629 89.6548 66.9751 88.6622 56.8955 89.4541C52.2098 89.8222 49.3242 90.5035 49.3286 91.2408Z" fill="#24292F"/>
  <path d="M93.5814 59.021C95.4435 51.412 88.3704 44.6406 80.8497 46.8324C79.6373 47.1858 78.5012 47.7618 77.4996 48.5309C67.3161 36.5274 47.9573 40.0491 42.6537 54.87C41.8614 57.0841 41.457 59.4183 41.4582 61.7699C41.4582 61.8139 41.4641 61.8555 41.4653 61.8995C41.04 61.8285 40.6104 61.7852 40.1795 61.7699C32.3047 61.7777 27.3915 70.3072 31.3356 77.123C33.1624 80.28 36.532 82.2254 40.1795 82.229H86.2126C96.0413 82.2435 102.2 71.6125 97.2981 63.0934C96.3706 61.4814 95.1021 60.0916 93.5814 59.021Z" fill="white"/>
  <path d="M30.5014 68.6749C31.9112 72.8186 35.801 75.6062 40.1779 75.6096H86.211C92.0025 75.6059 97.0676 71.7079 98.5543 66.1104C100.755 74.2384 94.6329 82.2371 86.2122 82.2351H40.1791C33.1566 82.23 28.2238 75.3174 30.5026 68.6749H30.5014Z" fill="#DAEDF7"/>
  <path d="M93.5814 59.021C95.4435 51.412 88.3704 44.6406 80.8497 46.8324C79.6373 47.1858 78.5012 47.7618 77.4996 48.5309C67.3161 36.5274 47.9573 40.0491 42.6537 54.87C41.8614 57.0841 41.457 59.4183 41.4582 61.7699C41.4582 61.8139 41.4641 61.8555 41.4653 61.8995C41.04 61.8285 40.6104 61.7852 40.1795 61.7699C32.3047 61.7777 27.3915 70.3072 31.3356 77.123C33.1624 80.28 36.532 82.2254 40.1795 82.229H86.2126C96.0413 82.2435 102.2 71.6125 97.2981 63.0934C96.3706 61.4814 95.1021 60.0916 93.5814 59.021Z" stroke="#24292F" stroke-width="1.4" stroke-linecap="round" stroke-linejoin="round"/>
  <path d="M81.3296 72.5359C81.3253 74.999 78.6561 76.5338 76.5252 75.2984C75.5397 74.7271 74.9322 73.675 74.9302 72.5359C74.9302 70.7683 78.1299 64.5366 78.1299 64.5366C78.1299 64.5366 81.3296 70.7683 81.3296 72.5359Z" fill="#4ACFFF" stroke="#009FD9" stroke-width="1.4" stroke-linecap="round" stroke-linejoin="round"/>
  <path d="M53.7964 60.057C53.7964 61.5349 55.3963 62.4586 56.6762 61.7196C57.2702 61.3767 57.6361 60.7429 57.6361 60.057C57.6361 58.5791 56.0362 57.6554 54.7563 58.3944C54.1623 58.7373 53.7964 59.3711 53.7964 60.057Z" fill="#24292F"/>
  <path d="M71.2461 60.057C71.2461 61.5349 72.8459 62.4586 74.1258 61.7196C74.7198 61.3767 75.0857 60.7429 75.0857 60.057C75.0857 58.5791 73.4859 57.6554 72.206 58.3944C71.612 58.7373 71.2461 59.3711 71.2461 60.057Z" fill="#24292F"/>
  <path d="M58.5451 73.4007C58.0715 73.4007 57.6246 73.181 57.3354 72.8059C57.0425 72.4348 56.9403 71.9479 57.0595 71.4903C58.5284 65.8077 65.5981 63.8463 69.785 67.9597C70.7723 68.9298 71.477 70.1503 71.8234 71.4903C71.9425 71.9479 71.8404 72.4348 71.5474 72.8059C71.2586 73.1808 70.8122 73.4005 70.3389 73.4007C68.3972 72.9857 66.4248 72.7307 64.4414 72.6382C62.4585 72.7307 60.4864 72.9857 58.5451 73.4007Z" fill="#FFA694" stroke="#24292F" stroke-width="1.4" stroke-linecap="round" stroke-linejoin="round"/>
  <path d="M41.138 47.8399C39.9922 48.9874 38.1326 48.9874 36.9867 47.8399L33.0626 43.9217L29.1373 47.8399C27.6221 49.5153 24.8614 48.9221 24.1681 46.7722C23.8139 45.6739 24.1363 44.47 24.9919 43.6957L28.9172 39.7704L24.9919 35.8451C23.3941 34.2477 24.1247 31.5197 26.307 30.9346C27.3198 30.6631 28.4005 30.9525 29.1421 31.6938L33.0674 35.6191L36.9867 31.6938C38.5846 30.096 41.3129 30.827 41.8978 33.0097C42.1692 34.0227 41.8796 35.1036 41.138 35.8451L37.2127 39.7704L41.138 43.6957C42.2788 44.8416 42.2788 46.694 41.138 47.8399Z" fill="white" stroke="#E04122" stroke-width="1.4" stroke-linecap="round" stroke-linejoin="round"/>
</svg>
