<svg preserveAspectRatio="none" width="100%" height="100%" overflow="visible" style="display: block;" viewBox="0 0 18.8364 22.4" fill="none" xmlns="http://www.w3.org/2000/svg">
<g id="Union">
<ellipse id="Ellipse 23" cx="9.52872" cy="8.32007" rx="5.33328" ry="1.81332" fill="var(--fill-0, #F9AE0A)"/>
<path id="Vector" d="M9.41885 22.1427C7.46778 22.1427 5.67675 21.4897 4.5237 20.5144C3.93805 20.6894 3.18894 20.9708 2.71636 21.32C2.31156 21.6186 2.36217 21.9231 2.43503 22.0459C2.75508 22.5861 7.92612 22.3909 9.41885 22.2227V22.1427ZM9.41885 22.1427C11.3702 22.1427 13.1611 21.4897 14.3143 20.5144C14.8997 20.6894 15.6489 20.9708 16.1217 21.32C16.5261 21.6186 16.4757 21.9231 16.4027 22.0459C16.0826 22.5861 10.9117 22.3909 9.41885 22.2227V22.1427Z" fill="var(--fill-0, #F9AE0A)"/>
<path id="Vector_2" fill-rule="evenodd" clip-rule="evenodd" d="M16.1096 9.56398C15.2346 9.80307 12.6522 10.4269 9.43009 10.4487H9.4063C6.1026 10.4261 3.47169 9.77134 2.66375 9.54654C2.49767 9.50014 2.4069 9.40441 2.4069 9.40441C2.40594 9.37513 2.39352 8.88009 2.39352 8.62447C2.39352 4.3229 4.42427 0.000154665 9.41825 0C14.4123 0.000154665 16.4429 4.32274 16.4429 8.62463C16.4429 8.87993 16.4304 9.37513 16.4296 9.40457C16.4296 9.40457 16.3182 9.50686 16.1096 9.56398ZM17.4375 11.9201C17.7136 12.64 17.9862 13.3895 18.186 14.0323C19.1384 17.0974 18.8297 18.3659 18.5949 18.3944C18.0907 18.4553 16.6323 16.087 16.6323 16.087C16.6323 18.4936 14.4596 22.1886 9.48428 22.2226H9.35228C4.3768 22.1886 2.20408 18.4936 2.20408 16.087C2.20408 16.087 0.745857 18.4553 0.241632 18.3943C0.0067224 18.3659 -0.301978 17.0975 0.650588 14.0323C0.850315 13.3897 1.1229 12.64 1.39907 11.9201C1.39907 11.9201 1.58525 11.9084 1.67959 11.9356C2.45282 12.1588 3.27644 12.3567 4.11297 12.5221C3.97051 13.4049 3.88907 14.4973 3.96603 15.7877C4.17089 19.2192 6.20884 21.3764 9.35452 21.4075H9.48219C12.628 21.3764 14.6658 19.2192 14.8709 15.7877C14.9479 14.4971 14.8664 13.405 14.7238 12.5222C15.575 12.3537 16.4131 12.1518 17.1982 11.9237C17.2787 11.9005 17.4375 11.9201 17.4375 11.9201ZM14.7238 12.5222C12.8893 12.8853 10.993 13.0933 9.43009 13.0744H9.4063C7.84354 13.0931 5.94729 12.8851 4.11297 12.5221C4.12038 12.4761 4.12795 12.4306 4.13574 12.3857C5.96303 12.746 7.84978 12.9521 9.40588 12.9334H9.42972C10.9861 12.9524 12.8735 12.746 14.701 12.3856C14.7088 12.4305 14.7163 12.4761 14.7238 12.5222ZM6.34916 4.63292C6.38558 5.61414 6.96441 6.38582 7.64189 6.35515C8.3189 6.32496 8.83809 5.50438 8.80103 4.52274C8.76428 3.5412 8.18567 2.76983 7.50893 2.80019C6.83145 2.83086 6.31241 3.65142 6.34916 4.63292ZM11.1959 6.35515C11.8734 6.38582 12.4522 5.61398 12.4885 4.63292C12.5254 3.65142 12.0063 2.83086 11.3288 2.80019C10.652 2.76999 10.0735 3.54135 10.0367 4.5229C9.99974 5.50438 10.5187 6.3248 11.1959 6.35515ZM9.4303 6.89317C11.6874 6.89317 13.5108 7.33994 13.6917 7.74079C13.7002 7.75855 13.7048 7.77813 13.7049 7.79781C13.7047 7.82559 13.696 7.85263 13.68 7.8753C13.5274 8.0978 11.5029 9.19652 9.4303 9.19652H9.40598C7.3332 9.19652 5.30869 8.09748 5.1561 7.8753C5.14021 7.85269 5.13152 7.82575 5.1312 7.79813C5.13136 7.77834 5.13589 7.75882 5.14442 7.74095C5.32549 7.33994 7.14872 6.89317 9.40598 6.89317H9.4303Z" fill="var(--fill-0, black)"/>
<path id="Vector_3" d="M8.47384 4.64752C8.50483 5.03515 8.29219 5.37952 7.99966 5.41701C7.70654 5.45472 7.4442 5.17104 7.41311 4.78342C7.38244 4.39547 7.59476 4.05116 7.88681 4.01377C8.18041 3.9758 8.44318 4.2599 8.47384 4.64752ZM10.3351 4.77707C10.395 4.66976 10.8027 4.10577 11.6469 4.3111C11.8688 4.36513 11.9714 4.44454 11.993 4.47569C12.0249 4.52177 12.0338 4.58742 12.0013 4.67584C11.9371 4.85115 11.8046 4.84635 11.7313 4.81206C11.6838 4.78998 11.0958 4.39798 10.5541 4.98283C10.5168 5.02288 10.4501 5.03669 10.3871 4.98907C10.3237 4.94112 10.2977 4.84432 10.3351 4.77707Z" fill="var(--fill-0, black)"/>
<path id="Vector_4" d="M4.99814 12.6463V16.0233C4.99814 16.0233 6.54506 16.3353 8.09496 16.1192V13.0043C7.11311 12.9487 6.05424 12.825 4.99814 12.6463Z" fill="var(--fill-0, #EA1C27)"/>
<path id="Vector_5" d="M16.4294 9.40503C16.4294 9.40503 13.4202 10.3549 9.42988 10.3819H9.40605C5.42224 10.3551 2.41694 9.40812 2.4067 9.40503L1.39885 11.9204C3.91964 12.6804 7.04372 13.1701 9.40605 13.1416H9.42988C11.7922 13.1701 14.9161 12.6804 17.4373 11.9204L16.4294 9.40503Z" fill="var(--fill-0, #E91D27)"/>
</g>
</svg>
