<svg preserveAspectRatio="none" width="100%" height="100%" overflow="visible" style="display: block;" viewBox="0 0 23.5996 19.3" fill="none" xmlns="http://www.w3.org/2000/svg">
<g id="Union">
<path fill-rule="evenodd" clip-rule="evenodd" d="M16.7803 5.8865C16.5122 5.85433 16.2442 5.83289 15.9761 5.83289C12.0089 5.83289 8.878 8.81367 8.878 12.4699C8.878 13.0811 8.9745 13.6708 9.13533 14.2284C8.878 14.2498 8.60994 14.2606 8.35261 14.2606C7.4945 14.2606 6.77507 14.1146 5.95947 13.9491C5.78653 13.914 5.60927 13.878 5.42544 13.8424L2.509 15.3113L3.34533 12.7916C1.2545 11.3227 0 9.43555 0 7.13028C0 3.14161 3.7635 0 8.35261 0C12.4592 0 16.0512 2.509 16.7803 5.8865ZM12.5236 4.61055C12.5236 3.98867 12.0089 3.474 11.387 3.474C10.7544 3.474 10.2504 3.97794 10.2504 4.61055C10.2504 5.24317 10.7544 5.74711 11.387 5.74711C12.0196 5.74711 12.5236 5.24317 12.5236 4.61055ZM4.41756 4.61055C4.41756 5.23244 4.93222 5.74711 5.55411 5.74711C6.176 5.74711 6.67994 5.24317 6.69067 4.61055C6.69067 3.98867 6.176 3.474 5.55411 3.474C4.9215 3.474 4.41756 3.97794 4.41756 4.61055Z" fill="var(--fill-0, white)"/>
<path fill-rule="evenodd" clip-rule="evenodd" d="M23.5996 12.3734C23.5996 9.01739 20.2543 6.28322 16.5015 6.28322C12.5236 6.28322 9.40339 9.01739 9.40339 12.3734C9.40339 15.7295 12.5343 18.4637 16.5015 18.4637C17.3378 18.4637 18.1742 18.2492 19.0105 18.0455L21.3051 19.3L20.6724 17.2092C22.3451 15.9439 23.5996 14.2713 23.5996 12.3734ZM13.3599 10.4863C13.3599 11.0117 13.7781 11.4406 14.3034 11.4406C14.8288 11.4406 15.2577 11.0117 15.247 10.4863C15.247 9.96094 14.8288 9.53205 14.3034 9.53205C13.7781 9.53205 13.3599 9.96094 13.3599 10.4863ZM17.9597 10.4863C17.9597 11.0117 18.3779 11.4406 18.9033 11.4406C19.4287 11.4406 19.8468 11.0117 19.8468 10.4863C19.8468 9.96094 19.4287 9.53205 18.9033 9.53205C18.3779 9.53205 17.9597 9.96094 17.9597 10.4863Z" fill="var(--fill-0, white)"/>
</g>
</svg>
