<svg width="472" height="348" viewBox="0 0 472 348" fill="none" xmlns="http://www.w3.org/2000/svg">
  <g stroke="#2D2B38" stroke-width="3" stroke-linecap="round" stroke-linejoin="round">
    <path d="M75 297.5H401" />

    <g transform="translate(84 54) rotate(-10 23 23)">
      <rect x="2" y="2" width="42" height="42" rx="8" fill="white" />
      <rect x="12" y="15" width="22" height="16" rx="5" fill="#C9EAF8" />
      <path d="M19 23H27" />
      <path d="M23 19V27" />
      <circle cx="18.5" cy="23" r="1.5" fill="#2D2B38" stroke="none" />
      <circle cx="27.5" cy="23" r="1.5" fill="#2D2B38" stroke="none" />
    </g>

    <g transform="translate(141 35) rotate(16 23 23)">
      <rect x="2" y="2" width="42" height="42" rx="8" fill="white" />
      <path d="M17 30L23 20L29 26L23 32L17 30Z" fill="#F3F6FB" />
      <path d="M21 12H33V24" />
    </g>

    <g transform="translate(126 108) rotate(-13 28 28)">
      <rect x="2" y="2" width="52" height="52" rx="9" fill="white" />
      <text x="16" y="33" fill="#2D2B38" stroke="none" font-family="Arial, sans-serif" font-size="15" font-weight="700">XGO</text>
    </g>

    <g transform="translate(313 48)">
      <path d="M24 15C24 22.4 18.1 28 11 28C3.9 28 -2 22.4 -2 15C-2 7.6 3.9 2 11 2C18.1 2 24 7.6 24 15Z" fill="#FFB703" />
      <path d="M10.8 13.5V19.5" />
      <path d="M10.8 23V25.5" />
      <path d="M4.5 15.5C4.5 11.9 7.3 9 10.8 9C14.3 9 17.1 11.9 17.1 15.5C17.1 18.1 15.8 19.8 14.6 21C13.9 21.7 13.4 22.5 13.2 23.4H8.5C8.3 22.5 7.8 21.8 7.1 21.1C5.8 19.9 4.5 18.2 4.5 15.5Z" fill="#FFB703" />
      <path d="M11 0V-6" />
      <path d="M0.5 3.5L-3.3 -1.3" />
      <path d="M21.5 3.5L25.3 -1.3" />
    </g>

    <rect x="95" y="214" width="171" height="98" rx="9" fill="#BDE9F8" />
    <path d="M90 312H274C274 317.5 269.5 322 264 322H100C94.5 322 90 317.5 90 312Z" fill="#A5DCEE" />
    <circle cx="180.5" cy="263" r="9" fill="white" />

    <path d="M217 206C219.5 180.7 240 163 267 162C303.6 160.7 330.8 189.5 332 225.5V229.5H218.5L217 206Z" fill="#2D2B38" />
    <path d="M229 225.5C229 209.2 242.2 196 258.5 196C274.8 196 288 209.2 288 225.5V244H229V225.5Z" fill="#FFE2C5" />
    <path d="M274.5 196C288.2 197.2 298.8 208.7 298.8 222.8C298.8 237.8 286.6 250 271.6 250H262.5V212C262.5 203.2 267.1 198.4 274.5 196Z" fill="#FFE2C5" />
    <path d="M230.5 224.5C227 205.1 240.1 187 258.7 183.9C266.6 182.6 274.9 183.7 282.5 187.1C291.2 191 299.7 198.2 303.6 208.2C305.7 213.8 305.5 221.1 302.3 226.8L299.6 231.5H231.7L230.5 224.5Z" fill="#2D2B38" />
    <circle cx="248.5" cy="226" r="3.5" fill="#2D2B38" stroke="none" />
    <circle cx="270.5" cy="226" r="3.5" fill="#2D2B38" stroke="none" />
    <path d="M244 240C247.7 244.6 253.3 247.5 259.7 247.5C266.4 247.5 272.2 244.3 275.8 239.3" />
    <path d="M258.5 233.5V239.5" />
    <path d="M243.5 219C247.1 215 252.1 212.7 257.4 212.7C262.7 212.7 267.7 215 271.3 219" />
    <path d="M283.5 249L279.5 269" />
    <path d="M239.5 249L239.8 271" />

    <path d="M248 253C259.9 242.8 280.4 241.4 299 249C320.2 257.6 334.9 277.2 340 298H220L225.2 270.3C226.8 262.3 236.6 254.1 248 253Z" fill="#FF8A34" />
    <path d="M271.8 255.4C275.9 267 285.1 276.9 295.5 282.5" />
    <path d="M255.6 260.7L250.2 279.8" />
    <path d="M284.4 259.2C287.4 261.5 290.4 264.6 293.3 268.4" />
    <path d="M245 273.5C229.9 272.8 216.4 280.9 207.4 297.8" />
    <path d="M229.6 260.7C214.8 263.8 206 273.7 203.3 290.4" />
    <path d="M231.5 289.5H205.5" />

    <g transform="translate(357 243)">
      <path d="M6 31H33C39.1 31 44 26.1 44 20V14C44 7.9 39.1 3 33 3H9C6.8 3 5 4.8 5 7V30C5 30.6 5.4 31 6 31Z" fill="white" />
      <path d="M44 11C49.8 11.8 54 16.7 54 22.5C54 28.9 48.8 34 42.5 34" />
      <path d="M14 4C11.9 -1.1 13.5 -5.6 18.8 -9.6" />
      <path d="M24 -1C21.9 -6.1 23.5 -10.6 28.8 -14.6" />
    </g>
  </g>
</svg>
