<svg width="728" height="546" viewBox="0 0 728 546" fill="none" xmlns="http://www.w3.org/2000/svg">
  <g clip-path="url(#clip0_1300_14369)">
  <rect width="728" height="546" fill="white"/>
  <path d="M728 0H0V546H728V0Z" fill="white"/>
  <path fill-rule="evenodd" clip-rule="evenodd" d="M18 474H-7.62939e-06V492H-18V510H-7.62939e-06V528H18V510H-7.62939e-06V492H18V474ZM-7.62939e-06 546H18V564H-7.62939e-06V546ZM-7.62939e-06 546H-18V528H-7.62939e-06V546ZM54 474H36V492H18V510H36V528H54V510H36V492H54V474ZM54 546H36V528H18V546H36V564H54V546Z" fill="#EAF0F7"/>
  <path fill-rule="evenodd" clip-rule="evenodd" d="M90 474H72V492H54V510H72V528H90V510H72V492H90V474ZM72 546H90V564H72V546ZM72 546H54V528H72V546ZM126 474H108V492H90V510H108V528H126V510H108V492H126V474ZM126 546H108V528H90V546H108V564H126V546Z" fill="#EAF0F7"/>
  <path fill-rule="evenodd" clip-rule="evenodd" d="M162 474H144V492H126V510H144V528H162V510H144V492H162V474ZM144 546H162V564H144V546ZM144 546H126V528H144V546ZM198 474H180V492H162V510H180V528H198V510H180V492H198V474ZM198 546H180V528H162V546H180V564H198V546Z" fill="#EAF0F7"/>
  <path fill-rule="evenodd" clip-rule="evenodd" d="M234 474H216V492H198V510H216V528H234V510H216V492H234V474ZM216 546H234V564H216V546ZM216 546H198V528H216V546ZM270 474H252V492H234V510H252V528H270V510H252V492H270V474ZM270 546H252V528H234V546H252V564H270V546Z" fill="#EAF0F7"/>
  <path fill-rule="evenodd" clip-rule="evenodd" d="M306 474H288V492H270V510H288V528H306V510H288V492H306V474ZM288 546H306V564H288V546ZM288 546H270V528H288V546ZM342 474H324V492H306V510H324V528H342V510H324V492H342V474ZM342 546H324V528H306V546H324V564H342V546Z" fill="#EAF0F7"/>
  <path fill-rule="evenodd" clip-rule="evenodd" d="M378 474H360V492H342V510H360V528H378V510H360V492H378V474ZM360 546H378V564H360V546ZM360 546H342V528H360V546ZM414 474H396V492H378V510H396V528H414V510H396V492H414V474ZM414 546H396V528H378V546H396V564H414V546Z" fill="#EAF0F7"/>
  <path fill-rule="evenodd" clip-rule="evenodd" d="M450 474H432V492H414V510H432V528H450V510H432V492H450V474ZM432 546H450V564H432V546ZM432 546H414V528H432V546ZM486 474H468V492H450V510H468V528H486V510H468V492H486V474ZM486 546H468V528H450V546H468V564H486V546Z" fill="#EAF0F7"/>
  <path fill-rule="evenodd" clip-rule="evenodd" d="M522 474H504V492H486V510H504V528H522V510H504V492H522V474ZM504 546H522V564H504V546ZM504 546H486V528H504V546ZM558 474H540V492H522V510H540V528H558V510H540V492H558V474ZM558 546H540V528H522V546H540V564H558V546Z" fill="#EAF0F7"/>
  <path fill-rule="evenodd" clip-rule="evenodd" d="M594 474H576V492H558V510H576V528H594V510H576V492H594V474ZM576 546H594V564H576V546ZM576 546H558V528H576V546ZM630 474H612V492H594V510H612V528H630V510H612V492H630V474ZM630 546H612V528H594V546H612V564H630V546Z" fill="#EAF0F7"/>
  <path fill-rule="evenodd" clip-rule="evenodd" d="M666 474H648V492H630V510H648V528H666V510H648V492H666V474ZM648 546H666V564H648V546ZM648 546H630V528H648V546ZM702 474H684V492H666V510H684V528H702V510H684V492H702V474ZM702 546H684V528H666V546H684V564H702V546Z" fill="#EAF0F7"/>
  <path fill-rule="evenodd" clip-rule="evenodd" d="M738 474H720V492H702V510H720V528H738V510H720V492H738V474ZM720 546H738V564H720V546ZM720 546H702V528H720V546ZM774 474H756V492H738V510H756V528H774V510H756V492H774V474ZM774 546H756V528H738V546H756V564H774V546Z" fill="#EAF0F7"/>
  <path fill-rule="evenodd" clip-rule="evenodd" d="M18 294H-7.62939e-06V312H-18V330H-7.62939e-06V348H18V330H-7.62939e-06V312H18V294ZM-7.62939e-06 366H18V384H-7.62939e-06V366ZM-7.62939e-06 366H-18V348H-7.62939e-06V366ZM54 294H36V312H18V330H36V348H54V330H36V312H54V294ZM54 366H36V348H18V366H36V384H54V366Z" fill="#EAF0F7"/>
  <path fill-rule="evenodd" clip-rule="evenodd" d="M90 294H72V312H54V330H72V348H90V330H72V312H90V294ZM72 366H90V384H72V366ZM72 366H54V348H72V366ZM126 294H108V312H90V330H108V348H126V330H108V312H126V294ZM126 366H108V348H90V366H108V384H126V366Z" fill="#EAF0F7"/>
  <path fill-rule="evenodd" clip-rule="evenodd" d="M162 294H144V312H126V330H144V348H162V330H144V312H162V294ZM144 366H162V384H144V366ZM144 366H126V348H144V366ZM198 294H180V312H162V330H180V348H198V330H180V312H198V294ZM198 366H180V348H162V366H180V384H198V366Z" fill="#EAF0F7"/>
  <path fill-rule="evenodd" clip-rule="evenodd" d="M234 294H216V312H198V330H216V348H234V330H216V312H234V294ZM216 366H234V384H216V366ZM216 366H198V348H216V366ZM270 294H252V312H234V330H252V348H270V330H252V312H270V294ZM270 366H252V348H234V366H252V384H270V366Z" fill="#EAF0F7"/>
  <path fill-rule="evenodd" clip-rule="evenodd" d="M306 294H288V312H270V330H288V348H306V330H288V312H306V294ZM288 366H306V384H288V366ZM288 366H270V348H288V366ZM342 294H324V312H306V330H324V348H342V330H324V312H342V294ZM342 366H324V348H306V366H324V384H342V366Z" fill="#EAF0F7"/>
  <path fill-rule="evenodd" clip-rule="evenodd" d="M378 294H360V312H342V330H360V348H378V330H360V312H378V294ZM360 366H378V384H360V366ZM360 366H342V348H360V366ZM414 294H396V312H378V330H396V348H414V330H396V312H414V294ZM414 366H396V348H378V366H396V384H414V366Z" fill="#EAF0F7"/>
  <path fill-rule="evenodd" clip-rule="evenodd" d="M450 294H432V312H414V330H432V348H450V330H432V312H450V294ZM432 366H450V384H432V366ZM432 366H414V348H432V366ZM486 294H468V312H450V330H468V348H486V330H468V312H486V294ZM486 366H468V348H450V366H468V384H486V366Z" fill="#EAF0F7"/>
  <path fill-rule="evenodd" clip-rule="evenodd" d="M522 294H504V312H486V330H504V348H522V330H504V312H522V294ZM504 366H522V384H504V366ZM504 366H486V348H504V366ZM558 294H540V312H522V330H540V348H558V330H540V312H558V294ZM558 366H540V348H522V366H540V384H558V366Z" fill="#EAF0F7"/>
  <path fill-rule="evenodd" clip-rule="evenodd" d="M594 294H576V312H558V330H576V348H594V330H576V312H594V294ZM576 366H594V384H576V366ZM576 366H558V348H576V366ZM630 294H612V312H594V330H612V348H630V330H612V312H630V294ZM630 366H612V348H594V366H612V384H630V366Z" fill="#EAF0F7"/>
  <path fill-rule="evenodd" clip-rule="evenodd" d="M666 294H648V312H630V330H648V348H666V330H648V312H666V294ZM648 366H666V384H648V366ZM648 366H630V348H648V366ZM702 294H684V312H666V330H684V348H702V330H684V312H702V294ZM702 366H684V348H666V366H684V384H702V366Z" fill="#EAF0F7"/>
  <path fill-rule="evenodd" clip-rule="evenodd" d="M738 294H720V312H702V330H720V348H738V330H720V312H738V294ZM720 366H738V384H720V366ZM720 366H702V348H720V366ZM774 294H756V312H738V330H756V348H774V330H756V312H774V294ZM774 366H756V348H738V366H756V384H774V366Z" fill="#EAF0F7"/>
  <path fill-rule="evenodd" clip-rule="evenodd" d="M36 204H18V222H0V240H18V258H36V240H18V222H36V204ZM18 276H36V294H18V276ZM18 276H0V258H18V276ZM72 204H54V222H36V240H54V258H72V240H54V222H72V204ZM72 276H54V258H36V276H54V294H72V276Z" fill="#EAF0F7"/>
  <path fill-rule="evenodd" clip-rule="evenodd" d="M108 204H90V222H72V240H90V258H108V240H90V222H108V204ZM90 276H108V294H90V276ZM90 276H72V258H90V276ZM144 204H126V222H108V240H126V258H144V240H126V222H144V204ZM144 276H126V258H108V276H126V294H144V276Z" fill="#EAF0F7"/>
  <path fill-rule="evenodd" clip-rule="evenodd" d="M180 204H162V222H144V240H162V258H180V240H162V222H180V204ZM162 276H180V294H162V276ZM162 276H144V258H162V276ZM216 204H198V222H180V240H198V258H216V240H198V222H216V204ZM216 276H198V258H180V276H198V294H216V276Z" fill="#EAF0F7"/>
  <path fill-rule="evenodd" clip-rule="evenodd" d="M252 204H234V222H216V240H234V258H252V240H234V222H252V204ZM234 276H252V294H234V276ZM234 276H216V258H234V276ZM288 204H270V222H252V240H270V258H288V240H270V222H288V204ZM288 276H270V258H252V276H270V294H288V276Z" fill="#EAF0F7"/>
  <path fill-rule="evenodd" clip-rule="evenodd" d="M324 204H306V222H288V240H306V258H324V240H306V222H324V204ZM306 276H324V294H306V276ZM306 276H288V258H306V276ZM360 204H342V222H324V240H342V258H360V240H342V222H360V204ZM360 276H342V258H324V276H342V294H360V276Z" fill="#EAF0F7"/>
  <path fill-rule="evenodd" clip-rule="evenodd" d="M396 204H378V222H360V240H378V258H396V240H378V222H396V204ZM378 276H396V294H378V276ZM378 276H360V258H378V276ZM432 204H414V222H396V240H414V258H432V240H414V222H432V204ZM432 276H414V258H396V276H414V294H432V276Z" fill="#EAF0F7"/>
  <path fill-rule="evenodd" clip-rule="evenodd" d="M468 204H450V222H432V240H450V258H468V240H450V222H468V204ZM450 276H468V294H450V276ZM450 276H432V258H450V276ZM504 204H486V222H468V240H486V258H504V240H486V222H504V204ZM504 276H486V258H468V276H486V294H504V276Z" fill="#EAF0F7"/>
  <path fill-rule="evenodd" clip-rule="evenodd" d="M540 204H522V222H504V240H522V258H540V240H522V222H540V204ZM522 276H540V294H522V276ZM522 276H504V258H522V276ZM576 204H558V222H540V240H558V258H576V240H558V222H576V204ZM576 276H558V258H540V276H558V294H576V276Z" fill="#EAF0F7"/>
  <path fill-rule="evenodd" clip-rule="evenodd" d="M612 204H594V222H576V240H594V258H612V240H594V222H612V204ZM594 276H612V294H594V276ZM594 276H576V258H594V276ZM648 204H630V222H612V240H630V258H648V240H630V222H648V204ZM648 276H630V258H612V276H630V294H648V276Z" fill="#EAF0F7"/>
  <path fill-rule="evenodd" clip-rule="evenodd" d="M684 204H666V222H648V240H666V258H684V240H666V222H684V204ZM666 276H684V294H666V276ZM666 276H648V258H666V276ZM720 204H702V222H684V240H702V258H720V240H702V222H720V204ZM720 276H702V258H684V276H702V294H720V276Z" fill="#EAF0F7"/>
  <path fill-rule="evenodd" clip-rule="evenodd" d="M756 204H738V222H720V240H738V258H756V240H738V222H756V204ZM738 276H756V294H738V276ZM738 276H720V258H738V276ZM792 204H774V222H756V240H774V258H792V240H774V222H792V204ZM792 276H774V258H756V276H774V294H792V276Z" fill="#EAF0F7"/>
  <path fill-rule="evenodd" clip-rule="evenodd" d="M18 114H-7.62939e-06V132H-18V150H-7.62939e-06V168H18V150H-7.62939e-06V132H18V114ZM-7.62939e-06 186H18V204H-7.62939e-06V186ZM-7.62939e-06 186H-18V168H-7.62939e-06V186ZM54 114H36V132H18V150H36V168H54V150H36V132H54V114ZM54 186H36V168H18V186H36V204H54V186Z" fill="#EAF0F7"/>
  <path fill-rule="evenodd" clip-rule="evenodd" d="M90 114H72V132H54V150H72V168H90V150H72V132H90V114ZM72 186H90V204H72V186ZM72 186H54V168H72V186ZM126 114H108V132H90V150H108V168H126V150H108V132H126V114ZM126 186H108V168H90V186H108V204H126V186Z" fill="#EAF0F7"/>
  <path fill-rule="evenodd" clip-rule="evenodd" d="M162 114H144V132H126V150H144V168H162V150H144V132H162V114ZM144 186H162V204H144V186ZM144 186H126V168H144V186ZM198 114H180V132H162V150H180V168H198V150H180V132H198V114ZM198 186H180V168H162V186H180V204H198V186Z" fill="#EAF0F7"/>
  <path fill-rule="evenodd" clip-rule="evenodd" d="M234 114H216V132H198V150H216V168H234V150H216V132H234V114ZM216 186H234V204H216V186ZM216 186H198V168H216V186ZM270 114H252V132H234V150H252V168H270V150H252V132H270V114ZM270 186H252V168H234V186H252V204H270V186Z" fill="#EAF0F7"/>
  <path fill-rule="evenodd" clip-rule="evenodd" d="M306 114H288V132H270V150H288V168H306V150H288V132H306V114ZM288 186H306V204H288V186ZM288 186H270V168H288V186ZM342 114H324V132H306V150H324V168H342V150H324V132H342V114ZM342 186H324V168H306V186H324V204H342V186Z" fill="#EAF0F7"/>
  <path fill-rule="evenodd" clip-rule="evenodd" d="M378 114H360V132H342V150H360V168H378V150H360V132H378V114ZM360 186H378V204H360V186ZM360 186H342V168H360V186ZM414 114H396V132H378V150H396V168H414V150H396V132H414V114ZM414 186H396V168H378V186H396V204H414V186Z" fill="#EAF0F7"/>
  <path fill-rule="evenodd" clip-rule="evenodd" d="M450 114H432V132H414V150H432V168H450V150H432V132H450V114ZM432 186H450V204H432V186ZM432 186H414V168H432V186ZM486 114H468V132H450V150H468V168H486V150H468V132H486V114ZM486 186H468V168H450V186H468V204H486V186Z" fill="#EAF0F7"/>
  <path fill-rule="evenodd" clip-rule="evenodd" d="M522 114H504V132H486V150H504V168H522V150H504V132H522V114ZM504 186H522V204H504V186ZM504 186H486V168H504V186ZM558 114H540V132H522V150H540V168H558V150H540V132H558V114ZM558 186H540V168H522V186H540V204H558V186Z" fill="#EAF0F7"/>
  <path fill-rule="evenodd" clip-rule="evenodd" d="M594 114H576V132H558V150H576V168H594V150H576V132H594V114ZM576 186H594V204H576V186ZM576 186H558V168H576V186ZM630 114H612V132H594V150H612V168H630V150H612V132H630V114ZM630 186H612V168H594V186H612V204H630V186Z" fill="#EAF0F7"/>
  <path fill-rule="evenodd" clip-rule="evenodd" d="M666 114H648V132H630V150H648V168H666V150H648V132H666V114ZM648 186H666V204H648V186ZM648 186H630V168H648V186ZM702 114H684V132H666V150H684V168H702V150H684V132H702V114ZM702 186H684V168H666V186H684V204H702V186Z" fill="#EAF0F7"/>
  <path fill-rule="evenodd" clip-rule="evenodd" d="M738 114H720V132H702V150H720V168H738V150H720V132H738V114ZM720 186H738V204H720V186ZM720 186H702V168H720V186ZM774 114H756V132H738V150H756V168H774V150H756V132H774V114ZM774 186H756V168H738V186H756V204H774V186Z" fill="#EAF0F7"/>
  <path fill-rule="evenodd" clip-rule="evenodd" d="M36 24H18V42H0V60H18V78H36V60H18V42H36V24ZM18 96H36V114H18V96ZM18 96H0V78H18V96ZM72 24H54V42H36V60H54V78H72V60H54V42H72V24ZM72 96H54V78H36V96H54V114H72V96Z" fill="#EAF0F7"/>
  <path fill-rule="evenodd" clip-rule="evenodd" d="M108 24H90V42H72V60H90V78H108V60H90V42H108V24ZM90 96H108V114H90V96ZM90 96H72V78H90V96ZM144 24H126V42H108V60H126V78H144V60H126V42H144V24ZM144 96H126V78H108V96H126V114H144V96Z" fill="#EAF0F7"/>
  <path fill-rule="evenodd" clip-rule="evenodd" d="M180 24H162V42H144V60H162V78H180V60H162V42H180V24ZM162 96H180V114H162V96ZM162 96H144V78H162V96ZM216 24H198V42H180V60H198V78H216V60H198V42H216V24ZM216 96H198V78H180V96H198V114H216V96Z" fill="#EAF0F7"/>
  <path fill-rule="evenodd" clip-rule="evenodd" d="M252 24H234V42H216V60H234V78H252V60H234V42H252V24ZM234 96H252V114H234V96ZM234 96H216V78H234V96ZM288 24H270V42H252V60H270V78H288V60H270V42H288V24ZM288 96H270V78H252V96H270V114H288V96Z" fill="#EAF0F7"/>
  <path fill-rule="evenodd" clip-rule="evenodd" d="M324 24H306V42H288V60H306V78H324V60H306V42H324V24ZM306 96H324V114H306V96ZM306 96H288V78H306V96ZM360 24H342V42H324V60H342V78H360V60H342V42H360V24ZM360 96H342V78H324V96H342V114H360V96Z" fill="#EAF0F7"/>
  <path fill-rule="evenodd" clip-rule="evenodd" d="M396 24H378V42H360V60H378V78H396V60H378V42H396V24ZM378 96H396V114H378V96ZM378 96H360V78H378V96ZM432 24H414V42H396V60H414V78H432V60H414V42H432V24ZM432 96H414V78H396V96H414V114H432V96Z" fill="#EAF0F7"/>
  <path fill-rule="evenodd" clip-rule="evenodd" d="M468 24H450V42H432V60H450V78H468V60H450V42H468V24ZM450 96H468V114H450V96ZM450 96H432V78H450V96ZM504 24H486V42H468V60H486V78H504V60H486V42H504V24ZM504 96H486V78H468V96H486V114H504V96Z" fill="#EAF0F7"/>
  <path fill-rule="evenodd" clip-rule="evenodd" d="M540 24H522V42H504V60H522V78H540V60H522V42H540V24ZM522 96H540V114H522V96ZM522 96H504V78H522V96ZM576 24H558V42H540V60H558V78H576V60H558V42H576V24ZM576 96H558V78H540V96H558V114H576V96Z" fill="#EAF0F7"/>
  <path fill-rule="evenodd" clip-rule="evenodd" d="M612 24H594V42H576V60H594V78H612V60H594V42H612V24ZM594 96H612V114H594V96ZM594 96H576V78H594V96ZM648 24H630V42H612V60H630V78H648V60H630V42H648V24ZM648 96H630V78H612V96H630V114H648V96Z" fill="#EAF0F7"/>
  <path fill-rule="evenodd" clip-rule="evenodd" d="M684 24H666V42H648V60H666V78H684V60H666V42H684V24ZM666 96H684V114H666V96ZM666 96H648V78H666V96ZM720 24H702V42H684V60H702V78H720V60H702V42H720V24ZM720 96H702V78H684V96H702V114H720V96Z" fill="#EAF0F7"/>
  <path fill-rule="evenodd" clip-rule="evenodd" d="M756 24H738V42H720V60H738V78H756V60H738V42H756V24ZM738 96H756V114H738V96ZM738 96H720V78H738V96ZM792 24H774V42H756V60H774V78H792V60H774V42H792V24ZM792 96H774V78H756V96H774V114H792V96Z" fill="#EAF0F7"/>
  <path fill-rule="evenodd" clip-rule="evenodd" d="M18 -66H-7.62939e-06V-48H-18V-30H-7.62939e-06V-12H18V-30H-7.62939e-06V-48H18V-66ZM-7.62939e-06 5.99997H18V24H-7.62939e-06V5.99997ZM-7.62939e-06 5.99997L-18 6.00002V-12H-7.62939e-06V5.99997ZM54 -66H36V-48H18V-30H36V-12H54V-30H36V-48H54V-66ZM54 5.99997H36V-12H18V5.99997H36V24H54V5.99997Z" fill="#EAF0F7"/>
  <path fill-rule="evenodd" clip-rule="evenodd" d="M90 -66H72V-48H54V-30H72V-12H90V-30H72V-48H90V-66ZM72 5.99997H90V24H72V5.99997ZM72 5.99997L54 6.00002V-12H72V5.99997ZM126 -66H108V-48H90V-30H108V-12H126V-30H108V-48H126V-66ZM126 5.99997H108V-12H90V5.99997H108V24H126V5.99997Z" fill="#EAF0F7"/>
  <path fill-rule="evenodd" clip-rule="evenodd" d="M162 -66H144V-48H126V-30H144V-12H162V-30H144V-48H162V-66ZM144 5.99997H162V24H144V5.99997ZM144 5.99997L126 6.00002V-12H144V5.99997ZM198 -66H180V-48H162V-30H180V-12H198V-30H180V-48H198V-66ZM198 5.99997H180V-12H162V5.99997H180V24H198V5.99997Z" fill="#EAF0F7"/>
  <path fill-rule="evenodd" clip-rule="evenodd" d="M234 -66H216V-48H198V-30H216V-12H234V-30H216V-48H234V-66ZM216 5.99997H234V24H216V5.99997ZM216 5.99997L198 6.00002V-12H216V5.99997ZM270 -66H252V-48H234V-30H252V-12H270V-30H252V-48H270V-66ZM270 5.99997H252V-12H234V5.99997H252V24H270V5.99997Z" fill="#EAF0F7"/>
  <path fill-rule="evenodd" clip-rule="evenodd" d="M306 -66H288V-48H270V-30H288V-12H306V-30H288V-48H306V-66ZM288 5.99997H306V24H288V5.99997ZM288 5.99997L270 6.00002V-12H288V5.99997ZM342 -66H324V-48H306V-30H324V-12H342V-30H324V-48H342V-66ZM342 5.99997H324V-12H306V5.99997H324V24H342V5.99997Z" fill="#EAF0F7"/>
  <path fill-rule="evenodd" clip-rule="evenodd" d="M378 -66H360V-48H342V-30H360V-12H378V-30H360V-48H378V-66ZM360 5.99997H378V24H360V5.99997ZM360 5.99997L342 6.00002V-12H360V5.99997ZM414 -66H396V-48H378V-30H396V-12H414V-30H396V-48H414V-66ZM414 5.99997H396V-12H378V5.99997H396V24H414V5.99997Z" fill="#EAF0F7"/>
  <path fill-rule="evenodd" clip-rule="evenodd" d="M450 -66H432V-48H414V-30H432V-12H450V-30H432V-48H450V-66ZM432 5.99997H450V24H432V5.99997ZM432 5.99997L414 6.00002V-12H432V5.99997ZM486 -66H468V-48H450V-30H468V-12H486V-30H468V-48H486V-66ZM486 5.99997H468V-12H450V5.99997H468V24H486V5.99997Z" fill="#EAF0F7"/>
  <path fill-rule="evenodd" clip-rule="evenodd" d="M522 -66H504V-48H486V-30H504V-12H522V-30H504V-48H522V-66ZM504 5.99997H522V24H504V5.99997ZM504 5.99997L486 6.00002V-12H504V5.99997ZM558 -66H540V-48H522V-30H540V-12H558V-30H540V-48H558V-66ZM558 5.99997H540V-12H522V5.99997H540V24H558V5.99997Z" fill="#EAF0F7"/>
  <path fill-rule="evenodd" clip-rule="evenodd" d="M594 -66H576V-48H558V-30H576V-12H594V-30H576V-48H594V-66ZM576 5.99997H594V24H576V5.99997ZM576 5.99997L558 6.00002V-12H576V5.99997ZM630 -66H612V-48H594V-30H612V-12H630V-30H612V-48H630V-66ZM630 5.99997H612V-12H594V5.99997H612V24H630V5.99997Z" fill="#EAF0F7"/>
  <path fill-rule="evenodd" clip-rule="evenodd" d="M666 -66H648V-48H630V-30H648V-12H666V-30H648V-48H666V-66ZM648 5.99997H666V24H648V5.99997ZM648 5.99997L630 6.00002V-12H648V5.99997ZM702 -66H684V-48H666V-30H684V-12H702V-30H684V-48H702V-66ZM702 5.99997H684V-12H666V5.99997H684V24H702V5.99997Z" fill="#EAF0F7"/>
  <path fill-rule="evenodd" clip-rule="evenodd" d="M738 -66H720V-48H702V-30H720V-12H738V-30H720V-48H738V-66ZM720 5.99997H738V24H720V5.99997ZM720 5.99997L702 6.00002V-12H720V5.99997ZM774 -66H756V-48H738V-30H756V-12H774V-30H756V-48H774V-66ZM774 5.99997H756V-12H738V5.99997H756V24H774V5.99997Z" fill="#EAF0F7"/>
  <path fill-rule="evenodd" clip-rule="evenodd" d="M36 384H18V402H0V420H18V438H36V420H18V402H36V384ZM18 456H36V474H18V456ZM18 456H0V438H18V456ZM72 384H54V402H36V420H54V438H72V420H54V402H72V384ZM72 456H54V438H36V456H54V474H72V456Z" fill="#EAF0F7"/>
  <path fill-rule="evenodd" clip-rule="evenodd" d="M108 384H90V402H72V420H90V438H108V420H90V402H108V384ZM90 456H108V474H90V456ZM90 456H72V438H90V456ZM144 384H126V402H108V420H126V438H144V420H126V402H144V384ZM144 456H126V438H108V456H126V474H144V456Z" fill="#EAF0F7"/>
  <path fill-rule="evenodd" clip-rule="evenodd" d="M180 384H162V402H144V420H162V438H180V420H162V402H180V384ZM162 456H180V474H162V456ZM162 456H144V438H162V456ZM216 384H198V402H180V420H198V438H216V420H198V402H216V384ZM216 456H198V438H180V456H198V474H216V456Z" fill="#EAF0F7"/>
  <path fill-rule="evenodd" clip-rule="evenodd" d="M252 384H234V402H216V420H234V438H252V420H234V402H252V384ZM234 456H252V474H234V456ZM234 456H216V438H234V456ZM288 384H270V402H252V420H270V438H288V420H270V402H288V384ZM288 456H270V438H252V456H270V474H288V456Z" fill="#EAF0F7"/>
  <path fill-rule="evenodd" clip-rule="evenodd" d="M324 384H306V402H288V420H306V438H324V420H306V402H324V384ZM306 456H324V474H306V456ZM306 456H288V438H306V456ZM360 384H342V402H324V420H342V438H360V420H342V402H360V384ZM360 456H342V438H324V456H342V474H360V456Z" fill="#EAF0F7"/>
  <path fill-rule="evenodd" clip-rule="evenodd" d="M396 384H378V402H360V420H378V438H396V420H378V402H396V384ZM378 456H396V474H378V456ZM378 456H360V438H378V456ZM432 384H414V402H396V420H414V438H432V420H414V402H432V384ZM432 456H414V438H396V456H414V474H432V456Z" fill="#EAF0F7"/>
  <path fill-rule="evenodd" clip-rule="evenodd" d="M468 384H450V402H432V420H450V438H468V420H450V402H468V384ZM450 456H468V474H450V456ZM450 456H432V438H450V456ZM504 384H486V402H468V420H486V438H504V420H486V402H504V384ZM504 456H486V438H468V456H486V474H504V456Z" fill="#EAF0F7"/>
  <path fill-rule="evenodd" clip-rule="evenodd" d="M540 384H522V402H504V420H522V438H540V420H522V402H540V384ZM522 456H540V474H522V456ZM522 456H504V438H522V456ZM576 384H558V402H540V420H558V438H576V420H558V402H576V384ZM576 456H558V438H540V456H558V474H576V456Z" fill="#EAF0F7"/>
  <path fill-rule="evenodd" clip-rule="evenodd" d="M612 384H594V402H576V420H594V438H612V420H594V402H612V384ZM594 456H612V474H594V456ZM594 456H576V438H594V456ZM648 384H630V402H612V420H630V438H648V420H630V402H648V384ZM648 456H630V438H612V456H630V474H648V456Z" fill="#EAF0F7"/>
  <path fill-rule="evenodd" clip-rule="evenodd" d="M684 384H666V402H648V420H666V438H684V420H666V402H684V384ZM666 456H684V474H666V456ZM666 456H648V438H666V456ZM720 384H702V402H684V420H702V438H720V420H702V402H720V384ZM720 456H702V438H684V456H702V474H720V456Z" fill="#EAF0F7"/>
  <path fill-rule="evenodd" clip-rule="evenodd" d="M756 384H738V402H720V420H738V438H756V420H738V402H756V384ZM738 456H756V474H738V456ZM738 456H720V438H738V456ZM792 384H774V402H756V420H774V438H792V420H774V402H792V384ZM792 456H774V438H756V456H774V474H792V456Z" fill="#EAF0F7"/>
  </g>
  <defs>
  <clipPath id="clip0_1300_14369">
  <rect width="728" height="546" fill="white"/>
  </clipPath>
  </defs>
</svg>
