<svg width="16" height="16" viewBox="0 0 16 16" fill="none" xmlns="http://www.w3.org/2000/svg">
<path fill-rule="evenodd" clip-rule="evenodd" d="M14.3039 10.7412C14.7055 10.5997 15.1462 10.8105 15.2883 11.2119C15.4301 11.6138 15.2194 12.0552 14.8176 12.1972L8.25702 14.5127C8.0908 14.5713 7.90859 14.5713 7.74237 14.5127L1.18183 12.1972C0.779856 12.0553 0.56827 11.6139 0.710146 11.2119C0.85222 10.8103 1.29372 10.5994 1.6955 10.7412L7.99921 12.9658L14.3039 10.7412ZM14.3039 7.65328C14.7057 7.51187 15.1464 7.7233 15.2883 8.12496C15.4301 8.52687 15.2194 8.96835 14.8176 9.11032L8.25702 11.4257C8.0908 11.4844 7.90859 11.4844 7.74237 11.4257L1.18183 9.11032C0.779946 8.96845 0.568459 8.52687 0.710146 8.12496C0.852103 7.72323 1.29366 7.5116 1.6955 7.65328L7.99921 9.87789L14.3039 7.65328ZM7.77948 1.46676C7.94673 1.41707 8.12721 1.42497 8.29022 1.49117L14.8517 4.16012C15.1412 4.278 15.3307 4.5595 15.3322 4.87203C15.3335 5.18462 15.1461 5.46747 14.8576 5.58785L8.29706 8.32223C8.10703 8.40144 7.89237 8.40142 7.70233 8.32223L1.14179 5.58785C0.853204 5.46752 0.665918 5.18469 0.667177 4.87203C0.66866 4.55947 0.858149 4.27798 1.14765 4.16012L7.70819 1.49117L7.77948 1.46676ZM3.46601 4.88375L7.99921 6.7734L12.5324 4.88375L7.99921 3.04L3.46601 4.88375Z" fill="#24292F"/>
</svg>
