<svg width="16" height="16" viewBox="0 0 16 16" fill="none" xmlns="http://www.w3.org/2000/svg">
  <path d="M4.404 2.07598H5.352V3.11998H4.644C4.212 3.11998 3.996 3.35998 3.996 3.86398V6.16798C3.996 6.92398 3.648 7.42798 2.952 7.67998C3.648 7.96798 3.996 8.47198 3.996 9.19198V11.508C3.996 11.988 4.212 12.24 4.644 12.24H5.352V13.284H4.404C3.852 13.284 3.432 13.104 3.144 12.756C2.88 12.432 2.748 12 2.748 11.46V9.26398C2.748 8.91598 2.676 8.66398 2.532 8.51998C2.364 8.32798 2.064 8.21998 1.644 8.19598V7.16398C2.064 7.12798 2.364 7.01998 2.532 6.85198C2.676 6.68398 2.748 6.43198 2.748 6.09598V3.91198C2.748 3.35998 2.88 2.92798 3.144 2.60398C3.432 2.24398 3.852 2.07598 4.404 2.07598Z" fill="currentColor"/>
  <path fill-rule="evenodd" clip-rule="evenodd" d="M5.552 1.87598V3.31998H4.644C4.46472 3.31998 4.36645 3.3687 4.30829 3.43494C4.24558 3.50635 4.196 3.63576 4.196 3.86398V6.16798C4.196 6.57697 4.10156 6.93409 3.89958 7.22661C3.77112 7.41267 3.6038 7.56584 3.40173 7.68799C3.60398 7.81756 3.77122 7.97443 3.89958 8.16034C4.10048 8.45129 4.196 8.79869 4.196 9.19198V11.508C4.196 11.7219 4.2446 11.8495 4.30829 11.922C4.36779 11.9898 4.46741 12.04 4.644 12.04H5.552V13.484H4.404C3.80498 13.484 3.32326 13.2863 2.98992 12.8835L2.98895 12.8823C2.6883 12.5133 2.548 12.0324 2.548 11.46V9.26398C2.548 8.93268 2.47746 8.74828 2.39058 8.6614L2.38115 8.65197C2.26608 8.52046 2.0333 8.41855 1.63259 8.39565L1.444 8.38488V6.98039L1.62692 6.96471C2.02439 6.93064 2.2652 6.83163 2.38514 6.7159C2.4827 6.59819 2.548 6.40285 2.548 6.09598V3.91198C2.548 3.32857 2.68782 2.8476 2.98839 2.47834C3.32394 2.05936 3.80886 1.87598 4.404 1.87598H5.552ZM3.144 2.60398C2.88 2.92798 2.748 3.35998 2.748 3.91198V6.09598C2.748 6.43198 2.676 6.68398 2.532 6.85198C2.364 7.01998 2.064 7.12798 1.644 7.16398V8.19598C2.064 8.21998 2.364 8.32798 2.532 8.51998C2.676 8.66398 2.748 8.91598 2.748 9.26398V11.46C2.748 12 2.88 12.432 3.144 12.756C3.432 13.104 3.852 13.284 4.404 13.284H5.352V12.24H4.644C4.212 12.24 3.996 11.988 3.996 11.508V9.19198C3.996 8.56116 3.72887 8.09616 3.19462 7.79695C3.11909 7.75464 3.03821 7.71565 2.952 7.67998C3.0397 7.64822 3.12187 7.61247 3.19851 7.57271C3.73017 7.29696 3.996 6.82872 3.996 6.16798V3.86398C3.996 3.35998 4.212 3.11998 4.644 3.11998H5.352V2.07598H4.404C3.852 2.07598 3.432 2.24398 3.144 2.60398Z" fill="currentColor"/>
  <path d="M10.644 2.07598H11.592C12.132 2.07598 12.552 2.24398 12.852 2.60398C13.116 2.92798 13.248 3.35998 13.248 3.91198V6.09598C13.248 6.43198 13.32 6.69598 13.476 6.86398C13.632 7.03198 13.92 7.12798 14.352 7.16398V8.19598C13.92 8.21998 13.632 8.32798 13.464 8.51998C13.32 8.66398 13.248 8.91598 13.248 9.26398V11.46C13.248 12 13.116 12.432 12.852 12.756C12.552 13.104 12.132 13.284 11.592 13.284H10.644V12.24H11.352C11.784 12.24 12 11.988 12 11.508V9.19198C12 8.47198 12.348 7.96798 13.044 7.67998C12.348 7.42798 12 6.92398 12 6.16798V3.86398C12 3.35998 11.784 3.11998 11.352 3.11998H10.644V2.07598Z" fill="currentColor"/>
  <path fill-rule="evenodd" clip-rule="evenodd" d="M10.444 1.87598H11.592C12.1774 1.87598 12.6595 2.0606 13.0056 2.47594L13.0071 2.47763C13.308 2.84699 13.448 3.3282 13.448 3.91198V6.09598C13.448 6.41065 13.5166 6.61379 13.6226 6.72789C13.7243 6.83747 13.9451 6.92937 14.3686 6.96467L14.552 6.97995V8.38517L14.3631 8.39567C13.952 8.41851 13.7301 8.5196 13.6145 8.65168L13.6057 8.66171C13.5189 8.7486 13.448 8.93268 13.448 9.26398V11.46C13.448 12.0324 13.3077 12.5133 13.007 12.8823L13.0035 12.8866C12.6598 13.2853 12.1808 13.484 11.592 13.484H10.444V12.04H11.352C11.5286 12.04 11.6282 11.9898 11.6877 11.922C11.7514 11.8495 11.8 11.7219 11.8 11.508V9.19198C11.8 8.79869 11.8955 8.45129 12.0964 8.16034C12.2248 7.97443 12.392 7.81756 12.5943 7.68798C12.3922 7.56584 12.2249 7.41267 12.0964 7.22661C11.8944 6.93409 11.8 6.57697 11.8 6.16798V3.86398C11.8 3.63576 11.7504 3.50635 11.6877 3.43494C11.6296 3.3687 11.5313 3.31998 11.352 3.31998H10.444V1.87598ZM12.7975 7.57271C12.8741 7.61247 12.9563 7.64822 13.044 7.67998C12.9578 7.71565 12.8769 7.75464 12.8014 7.79695C12.2671 8.09616 12 8.56116 12 9.19198V11.508C12 11.988 11.784 12.24 11.352 12.24H10.644V13.284H11.592C12.132 13.284 12.552 13.104 12.852 12.756C13.116 12.432 13.248 12 13.248 11.46V9.26398C13.248 8.91598 13.32 8.66398 13.464 8.51998C13.632 8.32798 13.92 8.21998 14.352 8.19598V7.16398C13.92 7.12798 13.632 7.03198 13.476 6.86398C13.32 6.69598 13.248 6.43198 13.248 6.09598V3.91198C13.248 3.35998 13.116 2.92798 12.852 2.60398C12.552 2.24398 12.132 2.07598 11.592 2.07598H10.644V3.11998H11.352C11.784 3.11998 12 3.35998 12 3.86398V6.16798C12 6.82872 12.2658 7.29696 12.7975 7.57271Z" fill="currentColor"/>
</svg>
