<svg width="16" height="16" viewBox="0 0 16 16" fill="none" xmlns="http://www.w3.org/2000/svg">
  <path d="M4.76785 13.6525C4.95987 13.6525 5.14851 13.6121 5.28325 13.5515C5.75823 13.2988 6.10183 12.9552 6.43532 11.9447C6.78229 10.897 7.4257 10.4018 8.04889 9.92012C8.58114 9.50914 9.13359 9.0847 9.60857 8.21896C9.96227 7.57218 10.1577 6.86814 10.1577 6.24158C10.1577 4.35178 8.67883 2.87295 6.78903 2.87295C4.89923 2.87295 3.4204 4.35178 3.4204 6.24158H2.07296C2.07296 3.59721 4.14466 1.52551 6.78903 1.52551C9.4334 1.52551 11.5051 3.59721 11.5051 6.24158C11.5051 7.09384 11.2491 8.02695 10.7876 8.8691C10.1745 9.98412 9.45024 10.5399 8.86747 10.9913C8.32175 11.4124 7.92762 11.7156 7.71203 12.3691C7.3078 13.5919 6.78566 14.2825 5.87613 14.7608C5.52579 14.9192 5.15525 15 4.76785 15C3.28229 15 2.07296 13.7907 2.07296 12.3051H3.4204C3.4204 13.0496 4.02339 13.6525 4.76785 13.6525ZM11.0773 1.95332L12.0306 1C13.3713 2.34071 14.2 4.19345 14.2 6.24158C14.2 8.2897 13.3713 10.1424 12.0306 11.4832L11.0773 10.5298C12.1755 9.43166 12.8526 7.91578 12.8526 6.24158C12.8526 4.56737 12.1755 3.05149 11.0773 1.95332ZM8.47334 6.24158C8.47334 7.17132 7.71877 7.92589 6.78903 7.92589C5.85929 7.92589 5.10472 7.17132 5.10472 6.24158C5.10472 5.31184 5.85929 4.55727 6.78903 4.55727C7.71877 4.55727 8.47334 5.31184 8.47334 6.24158Z" fill="currentColor"/>
</svg>
