<svg width="16" height="16" viewBox="0 0 16 16" fill="none" xmlns="http://www.w3.org/2000/svg">
  <path d="M14.4282 7.80286C13.6022 4.96585 10.9807 2.99071 8 2.99071C5.05525 2.9548 2.39779 4.96585 1.57182 7.80286L1.5 8.01833L1.57182 8.2338C2.39779 11.0349 5.05525 13.01 8 13.01C10.9448 13.01 13.6022 11.0349 14.4282 8.19789L14.5 7.98242L14.4282 7.80286ZM8 11.5736C5.73757 11.5736 3.72652 10.1012 3.00829 7.98242C3.72652 5.86364 5.73757 4.39126 8 4.39126C10.2624 4.39126 12.2735 5.86364 12.9917 7.98242C12.2735 10.1371 10.2624 11.5736 8 11.5736Z" fill="currentColor"/>
  <path d="M7.99991 5.46854C6.59936 5.46854 5.4861 6.5818 5.4861 7.98235C5.4861 9.38291 6.59936 10.4962 7.99991 10.4962C9.40047 10.4962 10.5137 9.38291 10.5137 7.98235C10.5137 6.5818 9.40047 5.46854 7.99991 5.46854ZM7.99991 9.0597C7.38942 9.0597 6.92257 8.59285 6.92257 7.98235C6.92257 7.37186 7.38942 6.90501 7.99991 6.90501C8.61041 6.90501 9.07726 7.37186 9.07726 7.98235C9.07726 8.59285 8.61041 9.0597 7.99991 9.0597Z" fill="currentColor"/>
</svg>
