<svg width="24" height="24" viewBox="0 0 24 24" fill="none" xmlns="http://www.w3.org/2000/svg">
  <path d="M2.81531 16.6525L6.34683 13.9519C6.1449 13.3386 6.03571 12.6825 6.03571 12C6.03571 11.3175 6.1449 10.6614 6.34683 10.0481L2.81531 7.3475C2.12654 8.74784 1.74023 10.3266 1.74023 12C1.74023 13.6734 2.12654 15.2522 2.81531 16.6525Z" fill="white"/>
  <path d="M6.34683 10.0481C7.16163 7.57325 9.48658 5.79547 12.2405 5.79547C13.72 5.79547 15.0564 6.32048 16.1064 7.17957L19.161 4.12501C17.2996 2.50228 14.9132 1.5 12.2405 1.5C8.09111 1.5 4.52323 3.87516 2.81531 7.3475L6.34683 10.0481Z" fill="white"/>
  <path d="M12.2403 22.5001C8.08976 22.5001 4.52125 20.1235 2.81389 16.6496L6.34397 13.9433C7.15617 16.4226 9.48316 18.2046 12.2403 18.2046C13.5894 18.2046 14.7848 17.8869 15.7315 17.2894L19.0841 19.885C17.2489 21.5915 14.8014 22.5001 12.2403 22.5001Z" fill="white"/>
  <path d="M12.2403 10.0911H22.0245C22.1676 10.7116 22.2631 11.3798 22.2631 12.0002C22.2631 15.4225 21.011 18.0934 19.0841 19.885L15.7315 17.2894C16.8277 16.5976 17.5905 15.5309 17.8722 14.1479H12.2403V10.0911Z" fill="white"/>
</svg>
