<svg width="24" height="24" viewBox="0 0 24 24" fill="none" xmlns="http://www.w3.org/2000/svg">
  <path d="M2.81531 16.6524L6.34683 13.9519C6.1449 13.3385 6.03571 12.6824 6.03571 11.9999C6.03571 11.3174 6.1449 10.6613 6.34683 10.048L2.81531 7.34741C2.12654 8.74776 1.74023 10.3265 1.74023 11.9999C1.74023 13.6733 2.12654 15.2521 2.81531 16.6524Z" fill="#FBBC05"/>
  <path d="M6.34694 10.0481C7.16174 7.5733 9.4865 5.79547 12.2404 5.79547C13.72 5.79547 15.0563 6.32048 16.1063 7.17957L19.1609 4.12501C17.2995 2.50228 14.9131 1.5 12.2404 1.5C8.09103 1.5 4.52334 3.87521 2.81543 7.34754L6.34694 10.0481Z" fill="#EA4335"/>
  <path d="M12.2404 22.5002C8.08983 22.5002 4.52132 20.1237 2.81396 16.6497L6.34404 13.9434C7.15624 16.4227 9.48323 18.2047 12.2404 18.2047C13.5895 18.2047 14.7849 17.887 15.7316 17.2895L19.0842 19.8851C17.2489 21.5916 14.8014 22.5002 12.2404 22.5002Z" fill="#34A853"/>
  <path d="M12.2402 10.0911H22.0244C22.1676 10.7115 22.263 11.3797 22.263 12.0002C22.263 15.4225 21.011 18.0935 19.0841 19.8852L15.7315 17.2896C16.8277 16.5978 17.5904 15.5309 17.8721 14.1479H12.2402V10.0911Z" fill="#4285F4"/>
</svg>
