<svg width="24" height="24" viewBox="0 0 24 24" fill="none" xmlns="http://www.w3.org/2000/svg">
  <ellipse cx="12.1087" cy="9.1202" rx="5.33328" ry="1.81332" fill="#F9AE0A"/>
  <path d="M11.999 22.9428C10.0479 22.9428 8.25689 22.2898 7.10383 21.3145C6.51818 21.4894 5.76907 21.7709 5.29649 22.12C4.89169 22.4187 4.94231 22.7231 5.01516 22.846C5.33521 23.3862 10.5063 23.191 11.999 23.0228V22.9428ZM11.999 22.9428C13.9504 22.9428 15.7412 22.2898 16.8945 21.3145C17.4798 21.4894 18.2291 21.7709 18.7018 22.12C19.1063 22.4187 19.0558 22.7231 18.9828 22.846C18.6628 23.3862 13.4919 23.191 11.999 23.0228V22.9428Z" fill="#F9AE0A"/>
  <path fill-rule="evenodd" clip-rule="evenodd" d="M18.6897 10.364C17.8146 10.6031 15.2323 11.2269 12.0102 11.2487H11.9864C8.68268 11.2262 6.05177 10.5714 5.24383 10.3466C5.07775 10.3002 4.98698 10.2045 4.98698 10.2045C4.98602 10.1752 4.97359 9.68014 4.97359 9.42451C4.97359 5.12295 7.00435 0.800203 11.9983 0.800049C16.9924 0.800203 19.023 5.12279 19.023 9.42468C19.023 9.67998 19.0105 10.1752 19.0097 10.2046C19.0097 10.2046 18.8983 10.3069 18.6897 10.364ZM20.0176 12.7202C20.2937 13.44 20.5663 14.1895 20.766 14.8323C21.7184 17.8974 21.4098 19.166 21.175 19.1945C20.6708 19.2553 19.2124 16.8871 19.2124 16.8871C19.2124 19.2936 17.0397 22.9887 12.0644 23.0226H11.9324C6.95688 22.9887 4.78416 19.2936 4.78416 16.8871C4.78416 16.8871 3.32593 19.2553 2.82171 19.1943C2.5868 19.166 2.2781 17.8976 3.23067 14.8323C3.43039 14.1897 3.70298 13.44 3.97914 12.7202C3.97914 12.7202 4.16533 12.7085 4.25966 12.7357C5.0329 12.9589 5.85652 13.1567 6.69304 13.3222C6.55059 14.2049 6.46915 15.2974 6.54611 16.5877C6.75096 20.0193 8.78892 22.1764 11.9346 22.2076H12.0623C15.2081 22.1764 17.2459 20.0193 17.451 16.5877C17.528 15.2972 17.4464 14.205 17.3039 13.3222C18.1551 13.1537 18.9931 12.9518 19.7783 12.7237C19.8588 12.7005 20.0176 12.7202 20.0176 12.7202ZM17.3039 13.3222C15.4693 13.6853 13.573 13.8934 12.0102 13.8745H11.9864C10.4236 13.8932 8.52737 13.6852 6.69304 13.3222C6.70046 13.2762 6.70803 13.2307 6.71582 13.1858C8.54311 13.546 10.4299 13.7521 11.986 13.7334H12.0098C13.5662 13.7524 15.4536 13.546 17.281 13.1856C17.2888 13.2306 17.2964 13.2761 17.3039 13.3222ZM8.92924 5.43297C8.96566 6.41419 9.54448 7.18587 10.222 7.1552C10.899 7.12501 11.4182 6.30443 11.3811 5.32279C11.3444 4.34125 10.7658 3.56988 10.089 3.60024C9.41152 3.63091 8.89249 4.45147 8.92924 5.43297ZM13.776 7.1552C14.4535 7.18587 15.0323 6.41403 15.0685 5.43297C15.1054 4.45147 14.5864 3.63091 13.9089 3.60024C13.2321 3.57004 12.6536 4.3414 12.6168 5.32295C12.5798 6.30443 13.0988 7.12485 13.776 7.1552ZM12.0104 7.69322C14.2675 7.69322 16.0909 8.13999 16.2718 8.54084C16.2803 8.5586 16.2848 8.57818 16.285 8.59786C16.2848 8.62564 16.2761 8.65268 16.2601 8.67535C16.1075 8.89785 14.083 9.99656 12.0104 9.99656H11.9861C9.91328 9.99656 7.88877 8.89753 7.73618 8.67535C7.72029 8.65273 7.71159 8.6258 7.71127 8.59817C7.71143 8.57839 7.71597 8.55887 7.7245 8.541C7.90557 8.13999 9.7288 7.69322 11.9861 7.69322H12.0104Z" fill="black"/>
  <path d="M11.0539 5.44746C11.0849 5.83509 10.8723 6.17946 10.5797 6.21695C10.2866 6.25466 10.0243 5.97098 9.99318 5.58336C9.96251 5.19541 10.1748 4.85109 10.4669 4.81371C10.7605 4.77574 11.0232 5.05984 11.0539 5.44746ZM12.9152 5.57701C12.9751 5.4697 13.3828 4.90571 14.227 5.11104C14.4489 5.16507 14.5514 5.24448 14.5731 5.27562C14.605 5.3217 14.6139 5.38736 14.5813 5.47578C14.5172 5.65109 14.3847 5.64629 14.3114 5.612C14.2639 5.58992 13.6759 5.19792 13.1342 5.78277C13.0968 5.82282 13.0302 5.83663 12.9671 5.78901C12.9038 5.74106 12.8778 5.64426 12.9152 5.57701Z" fill="black"/>
  <path d="M7.57812 13.4463V16.8233C7.57812 16.8233 9.12504 17.1353 10.6749 16.9192V13.8043C9.69309 13.7487 8.63422 13.625 7.57812 13.4463Z" fill="#EA1C27"/>
  <path d="M19.0096 10.2051C19.0096 10.2051 16.0004 11.155 12.01 11.1819H11.9862C8.0024 11.1552 4.9971 10.2082 4.98686 10.2051L3.979 12.7204C6.4998 13.4804 9.62388 13.9702 11.9862 13.9417H12.01C14.3724 13.9702 17.4963 13.4804 20.0174 12.7204L19.0096 10.2051Z" fill="#E91D27"/>
</svg>
