<svg width="340" height="100" viewBox="0 0 340 100" fill="none" xmlns="http://www.w3.org/2000/svg">
<g clip-path="url(#clip0_1350_2315)">
<path opacity="0.5" d="M12.5 56.5C-6.49924 56.5 -1.33333 63.8887 -7.5 66.9489V35H348.5V47.853C339.333 49.5668 328 50.3335 279.5 68C236.702 83.5896 227.5 99.8528 166.5 99.9996C102 100.155 61 56.5 12.5 56.5Z" fill="#B5EBF0"/>
<path d="M20 56C-5.6128 56 -1.33333 65.9398 -7.5 69V35H348.5V47.853C339.333 49.5668 322.5 52.3647 279 70.6212C237 88.2482 201 94.4911 165.5 94.4911C106.5 94.4911 60 56 20 56Z" fill="#B5EBF0"/>
<path d="M31 60C5.3872 60 -1.33333 49.8887 -7.5 52.9489V35H348.5V47.853C339.333 49.5668 322.5 52.3647 279 70.6212C237 88.2482 201 94.4911 165.5 94.4911C106.5 94.4911 71 60 31 60Z" fill="url(#paint0_linear_1350_2315)"/>
</g>
<mask id="mask0_1350_2315" style="mask-type:alpha" maskUnits="userSpaceOnUse" x="-8" y="35" width="357" height="60">
<path d="M31 60C5.3872 60 -1.33333 49.8887 -7.5 52.9489V35H348.5V47.853C339.333 49.5668 322.5 52.3647 279 70.6212C237 88.2482 201 94.4911 165.5 94.4911C106.5 94.4911 71 60 31 60Z" fill="#B5EBF0"/>
</mask>
<g mask="url(#mask0_1350_2315)">
<g filter="url(#filter0_d_1350_2315)">
<path d="M176.469 3.73606C176.601 4.47854 177.665 6.0277 178.073 6.75822C179.42 9.17141 180.729 11.6091 182.103 14.007C182.607 14.8883 183.205 15.7127 183.693 16.6034C184.542 18.1526 185.333 19.7296 186.169 21.2846C189.866 28.2888 193.631 35.2569 197.463 42.1882C197.66 42.5388 197.922 42.9475 198.259 43.1792C199.075 43.7409 202.626 44.0605 203.793 44.2964C207.295 45.0051 215.459 47.8589 218.021 50.2092C219.285 51.3689 220.38 53.3759 220.714 55.0512C221.08 56.8865 220.657 59.0716 219.608 60.6209C217.965 63.0475 216.223 64.1879 213.69 65.5349C212.196 66.3292 210.586 67.0465 208.954 67.5082C207.872 67.8141 206.726 67.9944 205.622 68.2006C204.418 68.4252 203.18 68.4739 201.958 68.4806C201.757 68.6482 201.232 69.0151 201.226 69.3035C201.211 70.0418 201.899 71.0238 202.178 71.6998C202.529 72.5494 202.902 73.5229 203.143 74.4107C203.273 74.5707 203.308 74.5054 203.514 74.5244C204.173 74.5854 205.02 74.4981 205.556 74.9515C205.605 75.2496 205.426 75.5904 205.319 75.8692C204.742 75.9621 204.027 75.54 203.493 75.7976C203.335 76.0639 203.218 78.2539 203.199 78.7126C204.952 76.5231 206.945 74.6048 209.854 74.2678C211.185 74.1136 212.805 74.6704 213.841 75.5046C215.028 76.4613 215.658 77.9946 215.81 79.4815C216.17 83.0179 212.783 89.5465 210.836 92.5863C209.391 94.8435 207.747 97.0098 206.038 99.0729C205.154 100.14 203.701 101.044 203.124 102.305C203.222 104.068 203.78 105.831 203.955 107.585C204.181 109.835 204.404 112.162 204.272 114.424C204.121 117.01 203.863 119.687 203.402 122.241C202.925 124.884 201.832 127.38 200.515 129.706C198.969 132.437 195.357 135.554 195.214 137.125C195.071 138.696 196.858 140.303 196.088 141.641C195.641 142.418 194.79 142.816 193.955 143.031C191.79 143.586 188.825 143.821 186.735 142.809C184.461 141.707 183.94 139.409 183.181 137.225L182.615 136.759C181.976 136.739 181.345 136.853 180.707 136.884C177.457 137.044 174.107 137.347 170.884 136.823C169.997 136.678 168.35 136.605 167.482 136.778C165.848 138.308 166.471 140.721 164.051 142.196C162.916 142.888 161.265 143.155 159.939 143.167C158.755 143.178 157.32 143.214 156.179 142.919C155.389 142.716 154.351 142.114 153.954 141.375C153.354 140.259 154.141 139.075 154.438 138.002C154.539 137.634 154.587 137.158 154.373 136.822C154.189 136.534 153.836 136.404 153.511 136.363C151.74 136.139 150.039 136.551 148.167 136.178C146.22 135.79 144.446 134.987 142.764 133.954C136.824 130.307 136.247 124.596 133.863 118.687C133.379 117.487 132.91 116.258 132.184 115.178C131.227 113.755 129.756 112.405 128.04 112.021C127.456 111.89 126.817 111.869 126.221 111.829C125.537 111.782 124.812 111.812 124.139 111.678C123.075 111.466 121.955 110.847 121.36 109.909C120.987 109.32 120.926 108.557 121.076 107.887C121.34 106.714 122.148 105.744 123.158 105.124C125.124 103.916 127.387 103.961 129.547 104.479C131.335 104.907 133.098 105.833 134.481 107.041C139.669 111.573 139.881 118.953 143.331 124.563C144.33 126.186 146.113 128.032 148.001 128.483C146.092 125.122 145.587 121.404 145.157 117.629C144.967 115.963 144.989 114.303 145.046 112.624C145.098 111.09 145.167 109.538 145.258 108.007C145.316 107.041 145.473 106.052 145.609 105.094C146.004 102.325 146.895 98.8359 147.783 96.1782C148.198 94.9365 148.808 93.7072 149.139 92.4491C149.253 92.0149 149.304 91.6422 149.091 91.2272C148.678 90.4255 147.895 89.8123 147.276 89.1736C146.907 88.7928 146.572 88.3818 146.246 87.9635C145.413 86.8935 144.897 85.7281 144.213 84.5726L143.51 84.4299C143.08 84.5932 142.669 84.8054 142.287 85.0622C141.603 85.5155 140.5 86.2679 139.662 86.5699C139.478 86.4677 139.321 86.1572 139.202 85.9158C139.149 85.8076 139.166 85.6761 139.249 85.5892C140.647 84.1385 142.264 83.7266 143.427 82.4085C143.588 81.0175 143.652 78.7039 143.359 77.3363C142.889 77.1771 142.297 76.9211 141.801 76.9228C141.24 76.9248 139.447 77.5732 138.595 77.6756C138.467 77.5593 138.33 77.4253 138.231 77.2819C138.113 77.1098 138.146 76.9321 138.183 76.7392C138.714 76.4822 138.856 76.4022 139.273 76.3449C138.817 76.2112 138.361 76.0825 137.92 75.9022C135.8 75.4001 133.521 74.7131 131.651 73.5672C129.509 72.2541 127.537 70.1931 126.954 67.6748C126.748 66.7819 126.549 65.7582 126.566 64.8431C126.578 64.1671 126.748 63.4778 126.89 62.8188C127.439 60.2684 128.199 58.3654 129.611 56.1531C130.405 54.9104 131.765 53.4035 132.927 52.5084C133.519 52.0529 134.174 51.6874 134.815 51.3085C137.506 49.7201 140.298 48.6002 143.271 47.6556C144.032 47.4142 144.796 47.1394 145.575 46.9678C146.564 46.6749 147.611 46.3976 148.642 46.3182C149.668 46.1845 150.669 45.8479 151.69 45.6735C152.646 45.5101 153.65 45.5084 154.589 45.2682C155.299 45.0865 155.684 44.8488 156.117 44.2489C156.818 43.2782 157.557 41.4769 158.079 40.3428L160.27 35.6833L170.416 14.1717L174.083 6.34728C174.464 5.55478 174.715 4.67257 175.167 3.91852C175.683 3.37891 175.693 3.54588 176.469 3.73606Z" fill="#383636"/>
<path d="M145.535 46.9996C146.524 46.7068 147.571 46.4295 148.602 46.35C148.446 46.4818 148.267 46.6506 148.08 46.7335C147.553 46.9673 146.41 47.2206 145.837 47.1512C145.713 47.1362 145.632 47.0732 145.535 46.9996Z" fill="#4C4648"/>
<path d="M149.463 55.2166C153.601 56.2958 157.709 57.514 161.677 59.1195C163.108 59.6985 164.548 60.2715 165.96 60.8949C167.996 61.794 169.946 62.717 172.068 63.4225C173.257 63.7608 174.424 64.1629 175.608 64.5166C177.266 65.0119 178.947 65.4532 180.624 65.8808C186.693 67.4485 192.92 68.3253 199.186 68.4945C199.48 68.7856 199.675 69.1423 199.884 69.4949C200.828 71.1433 201.604 72.6346 201.887 74.5362C197.641 74.253 193.379 74.731 189.302 75.9478L189.552 76.7582C192.977 75.8639 198.605 74.792 202.1 75.4905C202.392 76.5008 202.275 77.7573 202.245 78.795C201.1 78.5612 197.538 77.4783 196.579 77.7326C196.396 77.7812 196.351 77.8345 196.253 77.9898C196.25 78.1176 196.236 78.244 196.297 78.361C196.338 78.4395 196.422 78.4513 196.501 78.4773C197.273 78.7319 198.203 78.7646 199.005 78.9388C200.034 79.162 201.03 79.5128 202.058 79.7388C201.863 81.1345 201.411 82.4823 200.726 83.7139C198.029 82.0266 195.137 80.8133 192.113 79.851C191.281 79.5865 190.457 79.3005 189.602 79.1235L189.49 79.958C190.282 80.2456 191.132 80.3965 191.936 80.6592C194.803 81.5958 197.769 82.801 200.309 84.4363C198.587 86.8723 196.371 88.7169 193.989 90.4803C194.09 90.691 194.168 90.8705 194.346 91.0299C194.838 91.1196 195.617 90.3228 196.021 90.0039C197.942 88.488 199.765 86.893 201.136 84.8419C201.672 84.0399 202.042 83.0798 202.455 82.2063C203.51 79.9712 204.911 77.6946 207.017 76.3058C208.228 75.5073 209.816 74.9972 211.268 75.3058C212.364 75.5389 213.438 76.1486 214.052 77.1075C215.102 78.745 214.86 80.8186 214.458 82.6198C214.1 84.226 213.411 85.7592 212.698 87.2355C210.215 92.3796 205.5 99.2288 200.625 102.326C200.667 102.416 200.711 102.504 200.757 102.592C200.869 102.802 200.962 102.874 201.184 102.94C201.492 102.894 201.776 102.643 202.027 102.464C202.467 104.089 202.629 105.848 202.852 107.516C200.703 108.102 198.727 109.2 197.095 110.716C194.024 113.555 191.978 117.675 191.818 121.881C191.692 125.182 192.591 128.73 194.493 131.454C195.053 132.257 195.734 132.978 196.397 133.695C195.98 134.337 195.487 134.927 195.086 135.582C194.284 136.891 194.152 137.721 194.893 139.062C195.103 139.441 195.32 139.807 195.417 140.234C195.509 140.64 195.52 141.126 195.277 141.482C194.882 142.061 194.104 142.213 193.464 142.323C193.473 141.97 193.495 141.612 193.484 141.258C193.466 140.698 193.301 140.124 192.885 139.731C192.715 139.57 192.561 139.458 192.322 139.462C191.9 139.855 192.497 140.797 192.568 141.292C192.624 141.677 192.552 142.065 192.491 142.446C191.701 142.467 190.91 142.469 190.121 142.48C190.124 141.864 190.08 141.303 189.901 140.71C189.79 140.342 189.643 139.927 189.288 139.736C189.121 139.735 189.013 139.738 188.88 139.855C188.856 139.877 188.742 140.016 188.741 140.048C188.732 140.31 189.076 141.05 189.148 141.38C189.219 141.711 189.208 142.067 189.207 142.403C188.236 142.335 187.274 142.27 186.446 141.698C185.042 140.73 184.272 137.965 183.955 136.328C184.899 136.221 185.829 136.054 186.759 135.859C186.7 135.58 186.62 135.333 186.513 135.07C178.163 136.55 171.763 136.488 163.409 134.857C163.388 135.152 163.395 135.449 163.396 135.745C164.286 135.884 165.167 136.077 166.05 136.256C165.904 137.598 165.377 139.24 164.613 140.348C163.972 141.277 163.162 141.808 162.051 142.012C161.728 142.071 161.126 142.239 160.853 142.051C160.456 141.21 161.458 140.485 161.364 139.691C161.27 139.565 161.211 139.495 161.048 139.468C160.87 139.438 160.74 139.486 160.615 139.614C160.029 140.211 159.966 141.533 159.978 142.323C159.284 142.318 158.464 142.376 157.787 142.237C157.627 142.205 157.578 142.153 157.497 142.015C156.994 141.159 157.83 140.432 157.96 139.661C157.978 139.553 157.938 139.432 157.869 139.347C157.748 139.2 157.643 139.18 157.469 139.154C157.38 139.198 157.308 139.239 157.24 139.313C156.553 140.061 156.515 141.132 156.527 142.08C156.21 142.018 155.902 141.949 155.606 141.816C155.199 141.633 154.832 141.373 154.678 140.934C154.332 139.942 155.114 139.018 155.504 138.175C155.753 137.637 155.829 137.058 155.571 136.505C155.097 135.488 154.044 134.567 153.28 133.753C150.83 131.141 148.909 128.912 147.648 125.49C144.865 117.939 145.662 107.126 147.701 99.445C148.384 96.8718 149.346 94.2566 150.459 91.8388C151.383 92.2188 152.224 92.7668 153.145 93.1529C153.244 92.8846 153.299 92.6058 153.359 92.327C150.498 91.1442 147.945 89.0839 146.275 86.4678C145.843 85.7906 144.793 83.8956 144.958 83.1525C144.995 83.1128 145.021 83.0592 145.068 83.0335C145.3 82.9089 147.12 83.5528 147.482 83.6608C151.481 84.8556 156.531 84.6725 160.347 82.9118C162.943 81.7143 164.955 79.6556 165.743 76.8599C165.984 76.0068 165.963 75.0486 166.282 74.2275C166.292 74.2015 166.303 74.1759 166.313 74.1502C165.997 72.8359 165.859 71.5638 165.279 70.3198C164.234 68.0755 162.448 66.607 160.148 65.7723C156.975 64.6206 153.222 65.109 150.211 66.5089C149.415 66.879 148.727 67.444 147.929 67.8169C148.274 67.1652 148.802 66.3935 148.914 65.6618C149.039 64.8392 148.707 63.8505 148.609 63.0219C148.315 60.5155 148.598 57.5918 149.463 55.2166Z" fill="#FCFAEC"/>
<path d="M172.067 63.4224C173.256 63.7607 174.424 64.1629 175.608 64.5166C177.265 65.0119 178.947 65.4531 180.623 65.8807C186.693 67.4484 192.92 68.3253 199.186 68.4944C199.48 68.7856 199.675 69.1423 199.884 69.4949C199.52 69.8336 199.112 70.1166 198.683 70.3671C197.992 70.7711 197.252 71.0876 196.464 71.2426C194.015 71.7239 190.736 70.9989 188.369 70.3701C183.647 69.0697 179.069 67.2967 174.704 65.078C173.95 64.7033 172.493 64.156 172.067 63.4224Z" fill="#F6DCD3"/>
<path d="M173.099 76.9611C173.239 76.957 173.452 76.9472 173.578 77.0159C174.123 77.3141 174.303 78.6225 175.72 78.8712C176.342 78.9802 176.852 78.7361 177.357 78.4035C177.626 77.9211 177.512 77.4045 177.977 77.0451C178.058 77.0345 178.188 76.9931 178.257 77.04C178.424 77.1517 178.491 77.3781 178.51 77.5672C178.585 78.3408 178.049 78.9307 177.578 79.4671C177.514 81.3721 176.978 84.6815 175.632 86.0595C175.098 86.6074 174.54 86.8114 173.786 86.8169C173.414 86.6994 173.079 86.5637 172.76 86.334C170.975 85.0467 170.345 82.0112 170.024 79.9599C169.852 79.8741 169.685 79.7777 169.525 79.6714C169.013 79.3331 168.509 78.7988 168.392 78.1732C168.341 77.8998 168.361 77.5499 168.547 77.3258C168.659 77.1918 168.739 77.1954 168.904 77.1921C169.334 77.4178 169.3 77.8295 169.453 78.2339C169.581 78.5748 169.918 78.8439 170.251 78.9784C170.664 79.1448 171.104 79.0831 171.5 78.9058C172.378 78.5129 172.777 77.8248 173.099 76.9611Z" fill="#383636"/>
<path d="M173.444 78.5703C174.807 79.4412 174.872 79.798 176.611 79.841C176.534 81.2779 176.233 83.1897 175.587 84.487C175.266 85.1312 174.885 85.5876 174.19 85.8227C173.845 85.8297 173.544 85.751 173.26 85.5535C171.799 84.5386 171.291 81.6953 171.01 80.0493C172.045 79.7457 172.742 79.4215 173.444 78.5703Z" fill="#F2A294"/>
<path d="M183.808 70.708C185.309 70.6088 187.005 71.1606 188.14 72.1509C188.518 72.481 188.877 72.9228 188.897 73.4478C188.905 73.6675 188.849 73.8785 188.693 74.0385C187.883 74.8675 186.77 73.2033 186.08 72.8765C185.377 72.5439 184.563 72.5196 183.8 72.5225C182.604 72.6375 181.712 73.1539 180.872 73.9922C180.623 74.2402 180.381 74.533 180.069 74.7C179.802 74.685 179.526 74.6683 179.296 74.5112C179.149 74.4102 179.063 74.2656 179.042 74.0886C178.986 73.6022 179.324 73.043 179.623 72.6836C180.68 71.416 182.212 70.8668 183.808 70.708Z" fill="#383636"/>
<path d="M208.734 79.7771C209.149 79.7626 209.662 79.8108 210.025 80.0251C210.749 80.4516 210.676 81.3379 210.864 82.0419C210.935 82.3096 211.104 82.5462 211.164 82.8162C211.245 83.1821 211.143 83.6766 210.942 83.9851C210.741 84.2954 210.417 84.4905 210.054 84.5515C209.52 84.6415 209.157 84.4605 208.731 84.1758C208.521 84.0011 208.298 83.7981 208.054 83.6719C207.506 83.3884 206.841 83.3548 206.359 82.9355C206.083 82.6959 205.943 82.3842 205.931 82.0219C205.915 81.5694 206.076 81.0944 206.407 80.7784C206.705 80.4935 207.075 80.4008 207.478 80.4208C207.88 80.1368 208.246 79.8819 208.734 79.7771Z" fill="#383636"/>
<path d="M208.711 80.61C208.907 80.5921 209.127 80.5696 209.322 80.5993C209.494 80.6254 209.666 80.7327 209.766 80.8743C210.024 81.2374 209.896 81.8391 209.849 82.249C210.047 82.497 210.274 82.7428 210.297 83.0747C210.311 83.2727 210.27 83.445 210.134 83.5926C210.038 83.6967 209.898 83.755 209.754 83.7538C209.388 83.7511 209.108 83.4847 208.856 83.2541C208.253 82.6607 207.815 82.5246 207.002 82.4008C206.814 82.1561 206.729 81.9874 206.74 81.674C206.808 81.5513 206.822 81.507 206.943 81.4376C207.264 81.2537 207.513 81.3398 207.849 81.4226C208.112 81.1734 208.367 80.7076 208.711 80.61Z" fill="#F2A294"/>
<path d="M210.419 76.9026C210.737 76.8777 211.005 76.8889 211.304 77.0209C211.607 77.1546 211.836 77.3834 211.943 77.6991C212.139 78.282 211.934 78.7199 211.665 79.2221C211.452 79.3447 211.227 79.4503 211.008 79.5617C210.78 79.5891 210.53 79.633 210.304 79.5754C210.007 79.5 209.735 79.3017 209.582 79.0363C209.405 78.73 209.383 78.3543 209.472 78.0168C209.617 77.4759 209.947 77.1711 210.419 76.9026Z" fill="#383636"/>
<path d="M210.6 77.6924C210.779 77.72 210.963 77.75 211.09 77.8925C211.197 78.0125 211.261 78.1657 211.231 78.3287C211.192 78.5438 211.045 78.6267 210.886 78.7522C210.669 78.7637 210.535 78.7817 210.351 78.6554C210.289 78.5507 210.242 78.4987 210.241 78.3738C210.24 78.071 210.401 77.8962 210.6 77.6924Z" fill="#F2A294"/>
<path d="M212.898 79.6464L213.615 79.7244C213.834 79.9767 214.028 80.2116 214.115 80.5424C214.212 80.9143 214.188 81.3066 213.976 81.6354C213.71 82.0488 213.338 82.1788 212.889 82.2887C212.326 82.2341 212.036 81.9626 211.619 81.6108C211.613 81.2406 211.636 80.8877 211.68 80.5201C211.71 80.4728 211.742 80.4261 211.774 80.38C212.073 79.9466 212.379 79.7441 212.898 79.6464Z" fill="#383636"/>
<path d="M212.75 80.4902C212.939 80.4834 213.042 80.4997 213.213 80.5821C213.326 80.7281 213.385 80.7911 213.356 80.9882C213.327 81.1888 213.163 81.3124 213.015 81.4288C212.863 81.43 212.737 81.4095 212.59 81.3755C212.5 81.2867 212.428 81.2482 212.421 81.1117C212.409 80.8757 212.608 80.6601 212.75 80.4902Z" fill="#F2A294"/>
<path d="M206.924 77.0471C207.133 77.0402 207.367 77.0197 207.571 77.0712C207.904 77.1558 208.19 77.4065 208.344 77.7112C208.525 78.0717 208.539 78.5271 208.388 78.8999C208.229 79.2915 208.001 79.5477 207.607 79.7035C207.407 79.7181 207.204 79.7294 207.006 79.6897C206.691 79.6268 206.406 79.4147 206.233 79.1472C206.029 78.8319 205.977 78.4382 206.063 78.0757C206.184 77.5665 206.503 77.3068 206.924 77.0471Z" fill="#383636"/>
<path d="M207.208 77.8176C207.309 77.8286 207.436 77.8746 207.51 77.9473C207.642 78.0764 207.68 78.2183 207.662 78.398C207.642 78.606 207.481 78.7222 207.33 78.8437C207.22 78.8317 207.127 78.8006 207.023 78.7669C206.921 78.6306 206.843 78.5533 206.864 78.3682C206.89 78.1293 207.043 77.9747 207.208 77.8176Z" fill="#F2A294"/>
<path d="M153.574 56.9074C154.504 57.2547 155.476 58.2301 156.166 58.9393C156.024 59.1121 155.853 59.2667 155.695 59.4247L155.627 59.45C155.256 59.1577 153.54 57.8863 153.356 57.6123C153.345 57.3456 153.463 57.142 153.574 56.9074Z" fill="#383636"/>
<path d="M152.2 58.4564C153.015 58.6948 153.93 59.3204 154.593 59.8439L154.095 60.3636C153.855 60.3122 152.24 59.3388 151.911 59.1358L151.891 58.9866C151.958 58.7659 152.051 58.6309 152.2 58.4564Z" fill="#383636"/>
<path d="M176.046 4.96027C176.262 5.0766 178.497 9.20867 178.861 9.85876C182.666 16.653 186.235 23.5786 189.939 30.4274L193.93 37.8364C194.403 38.7231 195.032 39.5939 195.376 40.5362C194.848 40.7301 194.27 40.8454 193.728 41.0019C192.516 41.3518 191.183 41.7615 190.038 42.2852C189.17 41.5326 188.211 40.8738 187.283 40.1975C186.505 39.6304 185.752 39.0254 184.924 38.5326C184.982 38.9738 184.989 39.4161 185 39.8602C183.541 40.0322 182.092 40.4661 180.683 40.8679C179.497 39.7515 178.228 38.6896 176.991 37.6285C177.019 39.2456 176.804 40.8421 176.806 42.4572C175.44 43.0906 174.131 43.9674 172.837 44.7385C174.289 45.3111 175.735 45.8791 177.171 46.4936C177.631 47.9158 177.893 49.5416 178.154 51.0112C178.912 50.2212 179.598 49.3208 180.315 48.4906C182.231 48.9091 184.138 49.6388 185.984 50.2894C186.507 52.2539 187.15 54.1954 187.723 56.1471C188.988 54.4739 190.23 52.7845 191.451 51.0794C192.595 51.0482 193.76 51.1246 194.907 51.1328C194.98 51.8205 194.994 52.5229 195.042 53.2138C195.796 52.4748 196.67 51.8091 197.357 51.0106C198.469 51.1518 199.543 51.4408 200.626 51.7204C200.081 50.7739 199.675 49.7934 199.264 48.7845C199.777 47.8499 200.389 46.9622 200.852 46.0019C199.794 46.0361 198.653 46.3026 197.591 46.4205C197.186 45.6576 196.257 44.4655 195.526 44.0126C195.437 44.5638 195.22 46.6609 194.849 46.9694C194.768 47.0376 194.731 47.0141 194.63 47.0118C194.311 46.7966 194.153 46.3702 194.007 46.0276C194.306 45.0584 194.656 44.1104 194.968 43.1462C195.172 42.5186 195.306 41.7571 195.645 41.1931L195.761 41.2146C196.213 41.8286 197.351 43.9402 197.608 44.6735C203.828 44.8659 208.43 46.2852 213.999 48.9461C215.122 49.4831 216.499 49.9988 217.391 50.8766C219.108 52.5668 219.909 54.7096 219.919 57.0922C219.877 57.9398 219.586 58.8022 219.181 59.5425C217.871 61.9354 215.41 63.5556 213.091 64.8451C211.153 65.9041 209.059 66.6509 206.888 67.0581C205.338 67.3606 203.788 67.4712 202.214 67.5512C194.972 67.9198 187.893 66.7471 180.882 65.0391C177.498 64.2382 174.156 63.2686 170.869 62.1338C168.752 61.3842 166.76 60.2948 164.685 59.4356C158.177 56.7405 151.269 54.2799 144.243 53.4232C141.123 53.0426 137.512 53.0551 134.495 54.0346C133.578 54.3321 132.722 54.8976 131.814 55.1542C131.796 55.1595 131.777 55.1642 131.758 55.1692C131.906 55.0002 132.058 54.8345 132.214 54.6722C135.755 51.0259 142.825 48.6869 147.735 47.6245C150.484 47.0529 153.261 46.6265 156.055 46.3471C157.689 46.1726 159.317 45.9708 160.962 45.9546L160.902 45.1655C159.547 45.1091 158.18 45.3504 156.817 45.3469C157.679 43.7751 158.404 42.0784 159.151 40.4469L162.042 34.2609L171.325 14.736C172.427 12.3879 173.543 10.0469 174.674 7.71307C175.106 6.81933 175.457 5.7585 176.046 4.96027Z" fill="#0CBDC8"/>
<path d="M128.334 60.8956C128.342 60.8625 128.35 60.8292 128.36 60.7966C129.054 58.5376 130.638 56.6586 132.747 55.5925C136.418 53.6992 140.842 53.8105 144.835 54.3433C146.083 54.5098 147.438 54.7061 148.64 55.0892C148.166 56.7378 147.785 58.6243 147.75 60.3355C147.716 61.1999 147.737 62.0655 147.813 62.9271C147.895 63.8026 148.194 64.8731 148.058 65.7351C147.961 66.3533 145.823 70.4395 145.376 71.4272C144.758 72.7915 144.343 74.1701 144.015 75.6273C140.841 75.8023 136.13 74.8112 133.27 73.4606C132.291 72.9922 131.381 72.3913 130.565 71.6749C128.817 70.1133 127.74 68.3741 127.608 65.9818C127.515 64.2929 127.78 62.4934 128.334 60.8956Z" fill="#17595F"/>
<path d="M128.334 60.8956C128.342 60.8625 128.35 60.8292 128.36 60.7966C129.054 58.5376 130.638 56.6586 132.747 55.5925C136.418 53.6992 140.842 53.8105 144.835 54.3433C146.083 54.5097 147.438 54.706 148.64 55.0892C148.167 56.7377 147.785 58.6243 147.75 60.3355L147.676 60.3442C146.524 60.4826 145.392 60.8395 144.254 61.063C141.243 61.6542 131.477 63.628 129.139 61.7809C128.831 61.5377 128.581 61.1985 128.334 60.8956Z" fill="#12373B"/>
<path d="M155.929 65.9994C157.724 65.8638 159.927 66.3544 161.459 67.2956C163.323 68.4407 164.5 70.0913 164.996 72.2223C164.509 71.9034 163.988 71.6403 163.442 71.4378C162.01 70.921 160.219 70.96 158.834 71.6128C157.733 72.132 156.988 72.9113 156.581 74.0533C156.7 74.2761 156.826 74.5547 157.023 74.7161C157.17 74.8368 157.342 74.8916 157.532 74.8714C158.007 74.8208 158.271 74.2757 158.564 73.9493C159.184 73.2563 160.322 72.9316 161.219 72.8787C162.465 72.8054 163.521 73.2316 164.404 74.0997C164.67 74.3608 164.892 74.6534 165.173 74.9008L165.223 74.9438C165.078 76.4196 164.687 77.7494 163.851 78.9946C162.294 81.313 159.535 82.6244 156.864 83.1464C153.913 83.7233 151.139 83.7186 148.214 82.9808C147.77 82.8687 147.081 82.7511 146.713 82.5044C146.754 82.3328 146.835 82.32 146.978 82.2244C148.15 81.6237 150.051 80.8358 151.313 80.4257C151.774 80.276 153.54 80.0017 153.776 79.7298C153.843 79.653 153.848 79.543 153.841 79.4444C153.83 79.2673 153.783 79.0611 153.645 78.9557C151.261 79.2427 147.82 80.9974 145.548 81.9587C145.199 81.784 144.87 81.5783 144.538 81.373C144.26 79.7983 144.367 78.038 144.648 76.47C147.438 76.394 151.116 76.4531 153.792 77.2983L153.997 76.5088C151.097 75.6074 147.85 75.6616 144.841 75.619C145.11 74.2851 146.552 70.1713 147.378 69.2138C147.718 68.8206 148.271 68.6128 148.711 68.3431C151.203 66.8154 152.996 66.18 155.929 65.9994Z" fill="#F2BA8E"/>
<path d="M185.779 40.1832C186.431 40.5305 187.042 41.1064 187.642 41.5442C188.402 42.0987 189.203 42.5894 189.93 43.1889L194.575 41.5235C194.323 42.4106 194.057 43.2934 193.777 44.1717C193.535 44.9052 193.22 45.6415 193.115 46.4089C193.398 46.7813 193.659 47.1722 193.926 47.5564C193.263 47.868 192.569 48.1039 191.908 48.4263C192.7 48.8273 193.607 49.2283 194.327 49.7433C194.502 49.8686 194.612 49.9602 194.646 50.1773C194.222 50.62 191.722 50.0917 190.943 50.3263C190.885 50.4459 190.825 50.5443 190.747 50.6516C189.799 51.811 189.084 53.1549 188.092 54.2832C187.518 52.7657 187.014 51.1722 186.65 49.5912C185.972 49.3507 185.264 49.1882 184.575 48.9835C183.647 48.7077 182.727 48.3973 181.806 48.0992L182.243 47.5996C183.456 47.7104 184.663 47.762 185.875 47.901C185.409 47.3045 184.99 46.6732 184.621 46.0127C185.036 45.7164 185.456 45.4472 185.895 45.1879C185.912 43.5307 185.656 41.8313 185.779 40.1832Z" fill="#F2C661"/>
<path d="M177.788 39.4498C178.531 40.0474 179.782 41.0341 180.299 41.8043C181.413 41.5201 182.529 41.2444 183.648 40.9768C183.266 42.02 182.809 43.0313 182.371 44.0508C183.02 45.0028 183.622 45.9931 184.24 46.9651C183.165 46.8334 182.102 46.7104 181.017 46.6995C180.505 46.7935 179.095 48.7114 178.56 49.1941C178.363 48.091 178.197 46.9564 177.868 45.8835C176.881 45.3311 175.749 45.0944 174.742 44.5334C175.721 44.026 176.659 43.4308 177.604 42.8627C177.711 41.732 177.73 40.5847 177.788 39.4498Z" fill="#F6DCD3"/>
<path d="M196.066 45.7817C196.496 46.0808 196.992 46.8004 197.304 47.2392C197.972 47.2062 198.605 47.1275 199.261 47.0061C199.087 47.3485 198.421 48.2644 198.368 48.5731C198.269 49.1504 198.992 49.8625 198.991 50.4655C198.728 50.6581 197.618 50.1201 197.141 50.151C197.119 50.1524 197.096 50.1547 197.073 50.1565C196.672 50.6283 196.192 51.0403 195.683 51.3891C195.589 50.7533 195.583 50.1097 195.562 49.4683C194.954 49.1751 194.396 48.8143 193.828 48.4507C194.41 48.1991 195.036 47.9128 195.656 47.7773C195.806 47.1157 195.929 46.4461 196.066 45.7817Z" fill="#F6DCD3"/>
<path d="M184.82 40.2635C184.831 40.2712 184.844 40.2772 184.854 40.2865C184.856 40.2879 184.959 40.3982 184.961 40.4029C185.066 40.6057 185.002 44.2808 185.013 44.8472C184.728 44.9978 184.476 45.3154 184.141 45.2698L183.992 44.9899C183.795 44.6565 183.559 44.3704 183.31 44.0748C183.499 43.4137 183.833 42.7919 184.076 42.1489C184.281 41.6067 184.408 41.0107 184.641 40.4837C184.68 40.3967 184.75 40.3261 184.82 40.2635Z" fill="#0CBDC8"/>
<path d="M137.88 75.934C138.321 76.1143 138.777 76.243 139.233 76.3767C138.816 76.434 138.418 76.4147 138.143 76.771C138.115 76.7363 138.066 76.6703 138.029 76.6485C138.02 76.6432 137.93 76.6246 137.907 76.6156C137.797 76.5713 137.629 76.3853 137.585 76.2752C137.541 76.1673 137.584 76.115 137.625 76.0156L137.88 75.934Z" fill="url(#paint1_linear_1350_2315)"/>
</g>
</g>
<mask id="mask1_1350_2315" style="mask-type:alpha" maskUnits="userSpaceOnUse" x="118" y="-4" width="107" height="90">
<rect x="118" y="-4" width="107" height="90" fill="#D9D9D9"/>
</mask>
<g mask="url(#mask1_1350_2315)">
<g filter="url(#filter1_d_1350_2315)">
<path d="M176 4.24107L190.618 14.2173" stroke="#383636" stroke-width="1.08541" stroke-miterlimit="10"/>
<path d="M191.354 10.6114L176 4.24107L192.455 8.20969" stroke="#383636" stroke-width="1.08541" stroke-miterlimit="10"/>
<path d="M193.23 6.01365L176 4.24107" stroke="#383636" stroke-width="1.08541" stroke-miterlimit="10"/>
<path d="M176.469 3.73606C176.601 4.47854 177.665 6.0277 178.073 6.75822C179.42 9.17141 180.729 11.6091 182.103 14.007C182.607 14.8883 183.205 15.7127 183.693 16.6034C184.542 18.1526 185.333 19.7296 186.169 21.2846C189.866 28.2888 193.631 35.2569 197.463 42.1882C197.66 42.5388 197.922 42.9475 198.259 43.1792C199.075 43.7409 202.626 44.0605 203.793 44.2964C207.295 45.0051 215.459 47.8589 218.021 50.2092C219.285 51.3689 220.38 53.3759 220.714 55.0512C221.08 56.8865 220.657 59.0716 219.608 60.6209C217.965 63.0475 216.223 64.1879 213.69 65.5349C212.196 66.3292 210.586 67.0465 208.954 67.5082C207.872 67.8141 206.726 67.9944 205.622 68.2006C204.418 68.4252 203.18 68.4739 201.958 68.4806C201.757 68.6482 201.232 69.0151 201.226 69.3035C201.211 70.0418 201.899 71.0238 202.178 71.6998C202.529 72.5494 202.902 73.5229 203.143 74.4107C203.273 74.5707 203.308 74.5054 203.514 74.5244C204.173 74.5854 205.02 74.4981 205.556 74.9515C205.605 75.2496 205.426 75.5904 205.319 75.8692C204.742 75.9621 204.027 75.54 203.493 75.7976C203.335 76.0639 203.218 78.2539 203.199 78.7126C204.952 76.5231 206.945 74.6048 209.854 74.2678C211.185 74.1136 212.805 74.6704 213.841 75.5046C215.028 76.4613 215.658 77.9946 215.81 79.4815C216.17 83.0179 212.783 89.5465 210.836 92.5863C209.391 94.8435 207.747 97.0098 206.038 99.0729C205.154 100.14 203.701 101.044 203.124 102.305C203.222 104.068 203.78 105.831 203.955 107.585C204.181 109.835 204.404 112.162 204.272 114.424C204.121 117.01 203.863 119.687 203.402 122.241C202.925 124.884 201.832 127.38 200.515 129.706C198.969 132.437 195.357 135.554 195.214 137.125C195.071 138.696 196.858 140.303 196.088 141.641C195.641 142.418 194.79 142.816 193.955 143.031C191.79 143.586 188.825 143.821 186.735 142.809C184.461 141.707 183.94 139.409 183.181 137.225L182.615 136.759C181.976 136.739 181.345 136.853 180.707 136.884C177.457 137.044 174.107 137.347 170.884 136.823C169.997 136.678 168.35 136.605 167.482 136.778C165.848 138.308 166.471 140.721 164.051 142.196C162.916 142.888 161.265 143.155 159.939 143.167C158.755 143.178 157.32 143.214 156.179 142.919C155.389 142.716 154.351 142.114 153.954 141.375C153.354 140.259 154.141 139.075 154.438 138.002C154.539 137.634 154.587 137.158 154.373 136.822C154.189 136.534 153.836 136.404 153.511 136.363C151.74 136.139 150.039 136.551 148.167 136.178C146.22 135.79 144.446 134.987 142.764 133.954C136.824 130.307 136.247 124.596 133.863 118.687C133.379 117.487 132.91 116.258 132.184 115.178C131.227 113.755 129.756 112.405 128.04 112.021C127.456 111.89 126.817 111.869 126.221 111.829C125.537 111.782 124.812 111.812 124.139 111.678C123.075 111.466 121.955 110.847 121.36 109.909C120.987 109.32 120.926 108.557 121.076 107.887C121.34 106.714 122.148 105.744 123.158 105.124C125.124 103.916 127.387 103.961 129.547 104.479C131.335 104.907 133.098 105.833 134.481 107.041C139.669 111.573 139.881 118.953 143.331 124.563C144.33 126.186 146.113 128.032 148.001 128.483C146.092 125.122 145.587 121.404 145.157 117.629C144.967 115.963 144.989 114.303 145.046 112.624C145.098 111.09 145.167 109.538 145.258 108.007C145.316 107.041 145.473 106.052 145.609 105.094C146.004 102.325 146.895 98.8359 147.783 96.1782C148.198 94.9365 148.808 93.7072 149.139 92.4491C149.253 92.0149 149.304 91.6422 149.091 91.2272C148.678 90.4255 147.895 89.8123 147.276 89.1736C146.907 88.7928 146.572 88.3818 146.246 87.9635C145.413 86.8935 144.897 85.7281 144.213 84.5726L143.51 84.4299C143.08 84.5932 142.669 84.8054 142.287 85.0622C141.603 85.5155 140.5 86.2679 139.662 86.5699C139.478 86.4677 139.321 86.1572 139.202 85.9158C139.149 85.8076 139.166 85.6761 139.249 85.5892C140.647 84.1385 142.264 83.7266 143.427 82.4085C143.588 81.0175 143.652 78.7039 143.359 77.3363C142.889 77.1771 142.297 76.9211 141.801 76.9228C141.24 76.9248 139.447 77.5732 138.595 77.6756C138.467 77.5593 138.33 77.4253 138.231 77.2819C138.113 77.1098 138.146 76.9321 138.183 76.7392C138.714 76.4822 138.856 76.4022 139.273 76.3449C138.817 76.2112 138.361 76.0825 137.92 75.9022C135.8 75.4001 133.521 74.7131 131.651 73.5672C129.509 72.2541 127.537 70.1931 126.954 67.6748C126.748 66.7819 126.549 65.7582 126.566 64.8431C126.578 64.1671 126.748 63.4778 126.89 62.8188C127.439 60.2684 128.199 58.3654 129.611 56.1531C130.405 54.9104 131.765 53.4035 132.927 52.5084C133.519 52.0529 134.174 51.6874 134.815 51.3085C137.506 49.7201 140.298 48.6002 143.271 47.6556C144.032 47.4142 144.796 47.1394 145.575 46.9678C146.564 46.6749 147.611 46.3976 148.642 46.3182C149.668 46.1845 150.669 45.8479 151.69 45.6735C152.646 45.5101 153.65 45.5084 154.589 45.2682C155.299 45.0865 155.684 44.8488 156.117 44.2489C156.818 43.2782 157.557 41.4769 158.079 40.3428L160.27 35.6833L170.416 14.1717L174.083 6.34728C174.464 5.55478 174.715 4.67257 175.167 3.91852C175.683 3.37891 175.693 3.54588 176.469 3.73606Z" fill="#383636"/>
<path d="M145.535 46.9996C146.524 46.7068 147.571 46.4295 148.602 46.35C148.446 46.4818 148.267 46.6506 148.08 46.7335C147.553 46.9673 146.41 47.2206 145.837 47.1512C145.713 47.1362 145.632 47.0732 145.535 46.9996Z" fill="#4C4648"/>
<path d="M149.463 55.2166C153.601 56.2958 157.709 57.514 161.677 59.1195C163.108 59.6985 164.548 60.2715 165.96 60.8949C167.996 61.794 169.946 62.717 172.068 63.4225C173.257 63.7608 174.424 64.1629 175.608 64.5166C177.266 65.0119 178.947 65.4532 180.624 65.8808C186.693 67.4485 192.92 68.3253 199.186 68.4945C199.48 68.7856 199.675 69.1423 199.884 69.4949C200.828 71.1433 201.604 72.6346 201.887 74.5362C197.641 74.253 193.379 74.731 189.302 75.9478L189.552 76.7582C192.977 75.8639 198.605 74.792 202.1 75.4905C202.392 76.5008 202.275 77.7573 202.245 78.795C201.1 78.5612 197.538 77.4783 196.579 77.7326C196.396 77.7812 196.351 77.8345 196.253 77.9898C196.25 78.1176 196.236 78.244 196.297 78.361C196.338 78.4395 196.422 78.4513 196.501 78.4773C197.273 78.7319 198.203 78.7646 199.005 78.9388C200.034 79.162 201.03 79.5128 202.058 79.7388C201.863 81.1345 201.411 82.4823 200.726 83.7139C198.029 82.0266 195.137 80.8133 192.113 79.851C191.281 79.5865 190.457 79.3005 189.602 79.1235L189.49 79.958C190.282 80.2456 191.132 80.3965 191.936 80.6592C194.803 81.5958 197.769 82.801 200.309 84.4363C198.587 86.8723 196.371 88.7169 193.989 90.4803C194.09 90.691 194.168 90.8705 194.346 91.0299C194.838 91.1196 195.617 90.3228 196.021 90.0039C197.942 88.488 199.765 86.893 201.136 84.8419C201.672 84.0399 202.042 83.0798 202.455 82.2063C203.51 79.9712 204.911 77.6946 207.017 76.3058C208.228 75.5073 209.816 74.9972 211.268 75.3058C212.364 75.5389 213.438 76.1486 214.052 77.1075C215.102 78.745 214.86 80.8186 214.458 82.6198C214.1 84.226 213.411 85.7592 212.698 87.2355C210.215 92.3796 205.5 99.2288 200.625 102.326C200.667 102.416 200.711 102.504 200.757 102.592C200.869 102.802 200.962 102.874 201.184 102.94C201.492 102.894 201.776 102.643 202.027 102.464C202.467 104.089 202.629 105.848 202.852 107.516C200.703 108.102 198.727 109.2 197.095 110.716C194.024 113.555 191.978 117.675 191.818 121.881C191.692 125.182 192.591 128.73 194.493 131.454C195.053 132.257 195.734 132.978 196.397 133.695C195.98 134.337 195.487 134.927 195.086 135.582C194.284 136.891 194.152 137.721 194.893 139.062C195.103 139.441 195.32 139.807 195.417 140.234C195.509 140.64 195.52 141.126 195.277 141.482C194.882 142.061 194.104 142.213 193.464 142.323C193.473 141.97 193.495 141.612 193.484 141.258C193.466 140.698 193.301 140.124 192.885 139.731C192.715 139.57 192.561 139.458 192.322 139.462C191.9 139.855 192.497 140.797 192.568 141.292C192.624 141.677 192.552 142.065 192.491 142.446C191.701 142.467 190.91 142.469 190.121 142.48C190.124 141.864 190.08 141.303 189.901 140.71C189.79 140.342 189.643 139.927 189.288 139.736C189.121 139.735 189.013 139.738 188.88 139.855C188.856 139.877 188.742 140.016 188.741 140.048C188.732 140.31 189.076 141.05 189.148 141.38C189.219 141.711 189.208 142.067 189.207 142.403C188.236 142.335 187.274 142.27 186.446 141.698C185.042 140.73 184.272 137.965 183.955 136.328C184.899 136.221 185.829 136.054 186.759 135.859C186.7 135.58 186.62 135.333 186.513 135.07C178.163 136.55 171.763 136.488 163.409 134.857C163.388 135.152 163.395 135.449 163.396 135.745C164.286 135.884 165.167 136.077 166.05 136.256C165.904 137.598 165.377 139.24 164.613 140.348C163.972 141.277 163.162 141.808 162.051 142.012C161.728 142.071 161.126 142.239 160.853 142.051C160.456 141.21 161.458 140.485 161.364 139.691C161.27 139.565 161.211 139.495 161.048 139.468C160.87 139.438 160.74 139.486 160.615 139.614C160.029 140.211 159.966 141.533 159.978 142.323C159.284 142.318 158.464 142.376 157.787 142.237C157.627 142.205 157.578 142.153 157.497 142.015C156.994 141.159 157.83 140.432 157.96 139.661C157.978 139.553 157.938 139.432 157.869 139.347C157.748 139.2 157.643 139.18 157.469 139.154C157.38 139.198 157.308 139.239 157.24 139.313C156.553 140.061 156.515 141.132 156.527 142.08C156.21 142.018 155.902 141.949 155.606 141.816C155.199 141.633 154.832 141.373 154.678 140.934C154.332 139.942 155.114 139.018 155.504 138.175C155.753 137.637 155.829 137.058 155.571 136.505C155.097 135.488 154.044 134.567 153.28 133.753C150.83 131.141 148.909 128.912 147.648 125.49C144.865 117.939 145.662 107.126 147.701 99.445C148.384 96.8718 149.346 94.2566 150.459 91.8388C151.383 92.2188 152.224 92.7668 153.145 93.1529C153.244 92.8846 153.299 92.6058 153.359 92.327C150.498 91.1442 147.945 89.0839 146.275 86.4678C145.843 85.7906 144.793 83.8956 144.958 83.1525C144.995 83.1128 145.021 83.0592 145.068 83.0335C145.3 82.9089 147.12 83.5528 147.482 83.6608C151.481 84.8556 156.531 84.6725 160.347 82.9118C162.943 81.7143 164.955 79.6556 165.743 76.8599C165.984 76.0068 165.963 75.0486 166.282 74.2275C166.292 74.2015 166.303 74.1759 166.313 74.1502C165.997 72.8359 165.859 71.5638 165.279 70.3198C164.234 68.0755 162.448 66.607 160.148 65.7723C156.975 64.6206 153.222 65.109 150.211 66.5089C149.415 66.879 148.727 67.444 147.929 67.8169C148.274 67.1652 148.802 66.3935 148.914 65.6618C149.039 64.8392 148.707 63.8505 148.609 63.0219C148.315 60.5155 148.598 57.5918 149.463 55.2166Z" fill="#FCFAEC"/>
<path d="M172.067 63.4224C173.256 63.7607 174.424 64.1629 175.608 64.5166C177.265 65.0119 178.947 65.4531 180.623 65.8807C186.693 67.4484 192.92 68.3253 199.186 68.4944C199.48 68.7856 199.675 69.1423 199.884 69.4949C199.52 69.8336 199.112 70.1166 198.683 70.3671C197.992 70.7711 197.252 71.0876 196.464 71.2426C194.015 71.7239 190.736 70.9989 188.369 70.3701C183.647 69.0697 179.069 67.2967 174.704 65.078C173.95 64.7033 172.493 64.156 172.067 63.4224Z" fill="#F6DCD3"/>
<path d="M173.099 76.9611C173.239 76.957 173.452 76.9472 173.578 77.0159C174.123 77.3141 174.303 78.6225 175.72 78.8712C176.342 78.9802 176.852 78.7361 177.357 78.4035C177.626 77.9211 177.512 77.4045 177.977 77.0451C178.058 77.0345 178.188 76.9931 178.257 77.04C178.424 77.1517 178.491 77.3781 178.51 77.5672C178.585 78.3408 178.049 78.9307 177.578 79.4671C177.514 81.3721 176.978 84.6815 175.632 86.0595C175.098 86.6074 174.54 86.8114 173.786 86.8169C173.414 86.6994 173.079 86.5637 172.76 86.334C170.975 85.0467 170.345 82.0112 170.024 79.9599C169.852 79.8741 169.685 79.7777 169.525 79.6714C169.013 79.3331 168.509 78.7988 168.392 78.1732C168.341 77.8998 168.361 77.5499 168.547 77.3258C168.659 77.1918 168.739 77.1954 168.904 77.1921C169.334 77.4178 169.3 77.8295 169.453 78.2339C169.581 78.5748 169.918 78.8439 170.251 78.9784C170.664 79.1448 171.104 79.0831 171.5 78.9058C172.378 78.5129 172.777 77.8248 173.099 76.9611Z" fill="#383636"/>
<path d="M173.444 78.5703C174.807 79.4412 174.872 79.798 176.611 79.841C176.534 81.2779 176.233 83.1897 175.587 84.487C175.266 85.1312 174.885 85.5876 174.19 85.8227C173.845 85.8297 173.544 85.751 173.26 85.5535C171.799 84.5386 171.291 81.6953 171.01 80.0493C172.045 79.7457 172.742 79.4215 173.444 78.5703Z" fill="#F2A294"/>
<path d="M183.808 70.708C185.309 70.6088 187.005 71.1606 188.14 72.1509C188.518 72.481 188.877 72.9228 188.897 73.4478C188.905 73.6675 188.849 73.8785 188.693 74.0385C187.883 74.8675 186.77 73.2033 186.08 72.8765C185.377 72.5439 184.563 72.5196 183.8 72.5225C182.604 72.6375 181.712 73.1539 180.872 73.9922C180.623 74.2402 180.381 74.533 180.069 74.7C179.802 74.685 179.526 74.6683 179.296 74.5112C179.149 74.4102 179.063 74.2656 179.042 74.0886C178.986 73.6022 179.324 73.043 179.623 72.6836C180.68 71.416 182.212 70.8668 183.808 70.708Z" fill="#383636"/>
<path d="M208.734 79.7771C209.149 79.7626 209.662 79.8108 210.025 80.0251C210.749 80.4516 210.676 81.3379 210.864 82.0419C210.935 82.3096 211.104 82.5462 211.164 82.8162C211.245 83.1821 211.143 83.6766 210.942 83.9851C210.741 84.2954 210.417 84.4905 210.054 84.5515C209.52 84.6415 209.157 84.4605 208.731 84.1758C208.521 84.0011 208.298 83.7981 208.054 83.6719C207.506 83.3884 206.841 83.3548 206.359 82.9355C206.083 82.6959 205.943 82.3842 205.931 82.0219C205.915 81.5694 206.076 81.0944 206.407 80.7784C206.705 80.4935 207.075 80.4008 207.478 80.4208C207.88 80.1368 208.246 79.8819 208.734 79.7771Z" fill="#383636"/>
<path d="M208.711 80.61C208.907 80.5921 209.127 80.5696 209.322 80.5993C209.494 80.6254 209.666 80.7327 209.766 80.8743C210.024 81.2374 209.896 81.8391 209.849 82.249C210.047 82.497 210.274 82.7428 210.297 83.0747C210.311 83.2727 210.27 83.445 210.134 83.5926C210.038 83.6967 209.898 83.755 209.754 83.7538C209.388 83.7511 209.108 83.4847 208.856 83.2541C208.253 82.6607 207.815 82.5246 207.002 82.4008C206.814 82.1561 206.729 81.9874 206.74 81.674C206.808 81.5513 206.822 81.507 206.943 81.4376C207.264 81.2537 207.513 81.3398 207.849 81.4226C208.112 81.1734 208.367 80.7076 208.711 80.61Z" fill="#F2A294"/>
<path d="M210.419 76.9026C210.737 76.8777 211.005 76.8889 211.304 77.0209C211.607 77.1546 211.836 77.3834 211.943 77.6991C212.139 78.282 211.934 78.7199 211.665 79.2221C211.452 79.3447 211.227 79.4503 211.008 79.5617C210.78 79.5891 210.53 79.633 210.304 79.5754C210.007 79.5 209.735 79.3017 209.582 79.0363C209.405 78.73 209.383 78.3543 209.472 78.0168C209.617 77.4759 209.947 77.1711 210.419 76.9026Z" fill="#383636"/>
<path d="M210.6 77.6924C210.779 77.72 210.963 77.75 211.09 77.8925C211.197 78.0125 211.261 78.1657 211.231 78.3287C211.192 78.5438 211.045 78.6267 210.886 78.7522C210.669 78.7637 210.535 78.7817 210.351 78.6554C210.289 78.5507 210.242 78.4987 210.241 78.3738C210.24 78.071 210.401 77.8962 210.6 77.6924Z" fill="#F2A294"/>
<path d="M212.898 79.6464L213.615 79.7244C213.834 79.9767 214.028 80.2116 214.115 80.5424C214.212 80.9143 214.188 81.3066 213.976 81.6354C213.71 82.0488 213.338 82.1788 212.889 82.2887C212.326 82.2341 212.036 81.9626 211.619 81.6108C211.613 81.2406 211.636 80.8877 211.68 80.5201C211.71 80.4728 211.742 80.4261 211.774 80.38C212.073 79.9466 212.379 79.7441 212.898 79.6464Z" fill="#383636"/>
<path d="M212.75 80.4902C212.939 80.4834 213.042 80.4997 213.213 80.5821C213.326 80.7281 213.385 80.7911 213.356 80.9882C213.327 81.1888 213.163 81.3124 213.015 81.4288C212.863 81.43 212.737 81.4095 212.59 81.3755C212.5 81.2867 212.428 81.2482 212.421 81.1117C212.409 80.8757 212.608 80.6601 212.75 80.4902Z" fill="#F2A294"/>
<path d="M206.924 77.0471C207.133 77.0402 207.367 77.0197 207.571 77.0712C207.904 77.1558 208.19 77.4065 208.344 77.7112C208.525 78.0717 208.539 78.5271 208.388 78.8999C208.229 79.2915 208.001 79.5477 207.607 79.7035C207.407 79.7181 207.204 79.7294 207.006 79.6897C206.691 79.6268 206.406 79.4147 206.233 79.1472C206.029 78.8319 205.977 78.4382 206.063 78.0757C206.184 77.5665 206.503 77.3068 206.924 77.0471Z" fill="#383636"/>
<path d="M207.208 77.8176C207.309 77.8286 207.436 77.8746 207.51 77.9473C207.642 78.0764 207.68 78.2183 207.662 78.398C207.642 78.606 207.481 78.7222 207.33 78.8437C207.22 78.8317 207.127 78.8006 207.023 78.7669C206.921 78.6306 206.843 78.5533 206.864 78.3682C206.89 78.1293 207.043 77.9747 207.208 77.8176Z" fill="#F2A294"/>
<path d="M153.574 56.9074C154.504 57.2547 155.476 58.2301 156.166 58.9393C156.024 59.1121 155.853 59.2667 155.695 59.4247L155.627 59.45C155.256 59.1577 153.54 57.8863 153.356 57.6123C153.345 57.3456 153.463 57.142 153.574 56.9074Z" fill="#383636"/>
<path d="M152.2 58.4564C153.015 58.6948 153.93 59.3204 154.593 59.8439L154.095 60.3636C153.855 60.3122 152.24 59.3388 151.911 59.1358L151.891 58.9866C151.958 58.7659 152.051 58.6309 152.2 58.4564Z" fill="#383636"/>
<path d="M176.046 4.96027C176.262 5.0766 178.497 9.20867 178.861 9.85876C182.666 16.653 186.235 23.5786 189.939 30.4274L193.93 37.8364C194.403 38.7231 195.032 39.5939 195.376 40.5362C194.848 40.7301 194.27 40.8454 193.728 41.0019C192.516 41.3518 191.183 41.7615 190.038 42.2852C189.17 41.5326 188.211 40.8738 187.283 40.1975C186.505 39.6304 185.752 39.0254 184.924 38.5326C184.982 38.9738 184.989 39.4161 185 39.8602C183.541 40.0322 182.092 40.4661 180.683 40.8679C179.497 39.7515 178.228 38.6896 176.991 37.6285C177.019 39.2456 176.804 40.8421 176.806 42.4572C175.44 43.0906 174.131 43.9674 172.837 44.7385C174.289 45.3111 175.735 45.8791 177.171 46.4936C177.631 47.9158 177.893 49.5416 178.154 51.0112C178.912 50.2212 179.598 49.3208 180.315 48.4906C182.231 48.9091 184.138 49.6388 185.984 50.2894C186.507 52.2539 187.15 54.1954 187.723 56.1471C188.988 54.4739 190.23 52.7845 191.451 51.0794C192.595 51.0482 193.76 51.1246 194.907 51.1328C194.98 51.8205 194.994 52.5229 195.042 53.2138C195.796 52.4748 196.67 51.8091 197.357 51.0106C198.469 51.1518 199.543 51.4408 200.626 51.7204C200.081 50.7739 199.675 49.7934 199.264 48.7845C199.777 47.8499 200.389 46.9622 200.852 46.0019C199.794 46.0361 198.653 46.3026 197.591 46.4205C197.186 45.6576 196.257 44.4655 195.526 44.0126C195.437 44.5638 195.22 46.6609 194.849 46.9694C194.768 47.0376 194.731 47.0141 194.63 47.0118C194.311 46.7966 194.153 46.3702 194.007 46.0276C194.306 45.0584 194.656 44.1104 194.968 43.1462C195.172 42.5186 195.306 41.7571 195.645 41.1931L195.761 41.2146C196.213 41.8286 197.351 43.9402 197.608 44.6735C203.828 44.8659 208.43 46.2852 213.999 48.9461C215.122 49.4831 216.499 49.9988 217.391 50.8766C219.108 52.5668 219.909 54.7096 219.919 57.0922C219.877 57.9398 219.586 58.8022 219.181 59.5425C217.871 61.9354 215.41 63.5556 213.091 64.8451C211.153 65.9041 209.059 66.6509 206.888 67.0581C205.338 67.3606 203.788 67.4712 202.214 67.5512C194.972 67.9198 187.893 66.7471 180.882 65.0391C177.498 64.2382 174.156 63.2686 170.869 62.1338C168.752 61.3842 166.76 60.2948 164.685 59.4356C158.177 56.7405 151.269 54.2799 144.243 53.4232C141.123 53.0426 137.512 53.0551 134.495 54.0346C133.578 54.3321 132.722 54.8976 131.814 55.1542C131.796 55.1595 131.777 55.1642 131.758 55.1692C131.906 55.0002 132.058 54.8345 132.214 54.6722C135.755 51.0259 142.825 48.6869 147.735 47.6245C150.484 47.0529 153.261 46.6265 156.055 46.3471C157.689 46.1726 159.317 45.9708 160.962 45.9546L160.902 45.1655C159.547 45.1091 158.18 45.3504 156.817 45.3469C157.679 43.7751 158.404 42.0784 159.151 40.4469L162.042 34.2609L171.325 14.736C172.427 12.3879 173.543 10.0469 174.674 7.71307C175.106 6.81933 175.457 5.7585 176.046 4.96027Z" fill="#0CBDC8"/>
<path d="M128.334 60.8956C128.342 60.8625 128.35 60.8292 128.36 60.7966C129.054 58.5376 130.638 56.6586 132.747 55.5925C136.418 53.6992 140.842 53.8105 144.835 54.3433C146.083 54.5098 147.438 54.7061 148.64 55.0892C148.166 56.7378 147.785 58.6243 147.75 60.3355C147.716 61.1999 147.737 62.0655 147.813 62.9271C147.895 63.8026 148.194 64.8731 148.058 65.7351C147.961 66.3533 145.823 70.4395 145.376 71.4272C144.758 72.7915 144.343 74.1701 144.015 75.6273C140.841 75.8023 136.13 74.8112 133.27 73.4606C132.291 72.9922 131.381 72.3913 130.565 71.6749C128.817 70.1133 127.74 68.3741 127.608 65.9818C127.515 64.2929 127.78 62.4934 128.334 60.8956Z" fill="#17595F"/>
<path d="M128.334 60.8956C128.342 60.8625 128.35 60.8292 128.36 60.7966C129.054 58.5376 130.638 56.6586 132.747 55.5925C136.418 53.6992 140.842 53.8105 144.835 54.3433C146.083 54.5097 147.438 54.706 148.64 55.0892C148.167 56.7377 147.785 58.6243 147.75 60.3355L147.676 60.3442C146.524 60.4826 145.392 60.8395 144.254 61.063C141.243 61.6542 131.477 63.628 129.139 61.7809C128.831 61.5377 128.581 61.1985 128.334 60.8956Z" fill="#12373B"/>
<path d="M155.929 65.9994C157.724 65.8638 159.927 66.3544 161.459 67.2956C163.323 68.4407 164.5 70.0913 164.996 72.2223C164.509 71.9034 163.988 71.6403 163.442 71.4378C162.01 70.921 160.219 70.96 158.834 71.6128C157.733 72.132 156.988 72.9113 156.581 74.0533C156.7 74.2761 156.826 74.5547 157.023 74.7161C157.17 74.8368 157.342 74.8916 157.532 74.8714C158.007 74.8208 158.271 74.2757 158.564 73.9493C159.184 73.2563 160.322 72.9316 161.219 72.8787C162.465 72.8054 163.521 73.2316 164.404 74.0997C164.67 74.3608 164.892 74.6534 165.173 74.9008L165.223 74.9438C165.078 76.4196 164.687 77.7494 163.851 78.9946C162.294 81.313 159.535 82.6244 156.864 83.1464C153.913 83.7233 151.139 83.7186 148.214 82.9808C147.77 82.8687 147.081 82.7511 146.713 82.5044C146.754 82.3328 146.835 82.32 146.978 82.2244C148.15 81.6237 150.051 80.8358 151.313 80.4257C151.774 80.276 153.54 80.0017 153.776 79.7298C153.843 79.653 153.848 79.543 153.841 79.4444C153.83 79.2673 153.783 79.0611 153.645 78.9557C151.261 79.2427 147.82 80.9974 145.548 81.9587C145.199 81.784 144.87 81.5783 144.538 81.373C144.26 79.7983 144.367 78.038 144.648 76.47C147.438 76.394 151.116 76.4531 153.792 77.2983L153.997 76.5088C151.097 75.6074 147.85 75.6616 144.841 75.619C145.11 74.2851 146.552 70.1713 147.378 69.2138C147.718 68.8206 148.271 68.6128 148.711 68.3431C151.203 66.8154 152.996 66.18 155.929 65.9994Z" fill="#F2BA8E"/>
<path d="M185.779 40.1832C186.431 40.5305 187.042 41.1064 187.642 41.5442C188.402 42.0987 189.203 42.5894 189.93 43.1889L194.575 41.5235C194.323 42.4106 194.057 43.2934 193.777 44.1717C193.535 44.9052 193.22 45.6415 193.115 46.4089C193.398 46.7813 193.659 47.1722 193.926 47.5564C193.263 47.868 192.569 48.1039 191.908 48.4263C192.7 48.8273 193.607 49.2283 194.327 49.7433C194.502 49.8686 194.612 49.9602 194.646 50.1773C194.222 50.62 191.722 50.0917 190.943 50.3263C190.885 50.4459 190.825 50.5443 190.747 50.6516C189.799 51.811 189.084 53.1549 188.092 54.2832C187.518 52.7657 187.014 51.1722 186.65 49.5912C185.972 49.3507 185.264 49.1882 184.575 48.9835C183.647 48.7077 182.727 48.3973 181.806 48.0992L182.243 47.5996C183.456 47.7104 184.663 47.762 185.875 47.901C185.409 47.3045 184.99 46.6732 184.621 46.0127C185.036 45.7164 185.456 45.4472 185.895 45.1879C185.912 43.5307 185.656 41.8313 185.779 40.1832Z" fill="#F2C661"/>
<path d="M177.788 39.4498C178.531 40.0474 179.782 41.0341 180.299 41.8043C181.413 41.5201 182.529 41.2444 183.648 40.9768C183.266 42.02 182.809 43.0313 182.371 44.0508C183.02 45.0028 183.622 45.9931 184.24 46.9651C183.165 46.8334 182.102 46.7104 181.017 46.6995C180.505 46.7935 179.095 48.7114 178.56 49.1941C178.363 48.091 178.197 46.9564 177.868 45.8835C176.881 45.3311 175.749 45.0944 174.742 44.5334C175.721 44.026 176.659 43.4308 177.604 42.8627C177.711 41.732 177.73 40.5847 177.788 39.4498Z" fill="#F6DCD3"/>
<path d="M196.066 45.7817C196.496 46.0808 196.992 46.8004 197.304 47.2392C197.972 47.2062 198.605 47.1275 199.261 47.0061C199.087 47.3485 198.421 48.2644 198.368 48.5731C198.269 49.1504 198.992 49.8625 198.991 50.4655C198.728 50.6581 197.618 50.1201 197.141 50.151C197.119 50.1524 197.096 50.1547 197.073 50.1565C196.672 50.6283 196.192 51.0403 195.683 51.3891C195.589 50.7533 195.583 50.1097 195.562 49.4683C194.954 49.1751 194.396 48.8143 193.828 48.4507C194.41 48.1991 195.036 47.9128 195.656 47.7773C195.806 47.1157 195.929 46.4461 196.066 45.7817Z" fill="#F6DCD3"/>
<path d="M184.82 40.2635C184.831 40.2712 184.844 40.2772 184.854 40.2865C184.856 40.2879 184.959 40.3982 184.961 40.4029C185.066 40.6057 185.002 44.2808 185.013 44.8472C184.728 44.9978 184.476 45.3154 184.141 45.2698L183.992 44.9899C183.795 44.6565 183.559 44.3704 183.31 44.0748C183.499 43.4137 183.833 42.7919 184.076 42.1489C184.281 41.6067 184.408 41.0107 184.641 40.4837C184.68 40.3967 184.75 40.3261 184.82 40.2635Z" fill="#0CBDC8"/>
<path d="M137.88 75.934C138.321 76.1143 138.777 76.243 139.233 76.3767C138.816 76.434 138.418 76.4147 138.143 76.771C138.115 76.7363 138.066 76.6703 138.029 76.6485C138.02 76.6432 137.93 76.6246 137.907 76.6156C137.797 76.5713 137.629 76.3853 137.585 76.2752C137.541 76.1673 137.584 76.115 137.625 76.0156L137.88 75.934Z" fill="url(#paint2_linear_1350_2315)"/>
</g>
</g>
<path d="M212 23L212.11 23.4615C212.443 24.8482 213.029 26.107 213.816 27.1318C214.604 28.1578 215.57 28.9193 216.631 29.3505L216.999 29.5L216.498 29.7188C215.492 30.1598 214.576 30.8986 213.823 31.8779C213.072 32.8573 212.504 34.0511 212.163 35.3652L212 36L211.964 35.8353C211.648 34.3317 211.036 32.9613 210.191 31.8595C209.345 30.7577 208.294 29.9615 207.141 29.552L206.999 29.5L207.348 29.3603C208.418 28.9302 209.391 28.1664 210.184 27.134C210.975 26.1016 211.563 24.833 211.895 23.4366L212 23Z" fill="url(#paint3_linear_1350_2315)"/>
<path d="M218 19L218.044 19.1775C218.178 19.7108 218.412 20.195 218.727 20.5892C219.042 20.9837 219.428 21.2767 219.853 21.4425L220 21.5L219.8 21.5842C219.397 21.7538 219.031 22.0379 218.73 22.4146C218.429 22.7913 218.202 23.2504 218.066 23.7558L218 24L217.986 23.9367C217.86 23.3583 217.615 22.8313 217.277 22.4075C216.938 21.9837 216.518 21.6775 216.057 21.52L216 21.5L216.139 21.4463C216.568 21.2808 216.957 20.9871 217.274 20.59C217.591 20.1929 217.825 19.705 217.959 19.1679L218 19Z" fill="url(#paint4_linear_1350_2315)"/>
<circle cx="143.791" cy="32.7911" r="3.73803" transform="rotate(20 143.791 32.7911)" fill="url(#paint5_linear_1350_2315)"/>
<path opacity="0.8" d="M140.62 42.3774C140.227 43.4569 139.034 44.0135 137.954 43.6206C136.875 43.2277 136.318 42.0341 136.711 40.9546C137.104 39.8751 138.298 39.3185 139.377 39.7114C140.457 40.1043 141.013 41.2979 140.62 42.3774Z" fill="url(#paint6_linear_1350_2315)"/>
<path d="M246 64L246.111 64.4615C246.444 65.8482 247.03 67.107 247.817 68.1318C248.605 69.1578 249.571 69.9193 250.632 70.3505L251 70.5L250.499 70.7188C249.493 71.1598 248.577 71.8986 247.824 72.8779C247.073 73.8573 246.505 75.0511 246.164 76.3652L246 77L245.965 76.8353C245.649 75.3317 245.037 73.9613 244.192 72.8595C243.346 71.7577 242.295 70.9615 241.142 70.552L241 70.5L241.349 70.3603C242.419 69.9302 243.392 69.1664 244.185 68.134C244.976 67.1016 245.564 65.833 245.896 64.4366L246 64Z" fill="#F3FCFD"/>
<path opacity="0.8" d="M103 63L103.089 63.355C103.356 64.4217 103.824 65.39 104.454 66.1783C105.084 66.9675 105.857 67.5533 106.706 67.885L107 68L106.599 68.1683C105.794 68.5075 105.062 69.0758 104.459 69.8292C103.858 70.5825 103.404 71.5008 103.131 72.5117L103 73L102.972 72.8733C102.719 71.7167 102.23 70.6625 101.553 69.815C100.877 68.9675 100.036 68.355 99.1138 68.04L99 68L99.279 67.8925C100.135 67.5617 100.914 66.9742 101.548 66.18C102.181 65.3858 102.651 64.41 102.917 63.3358L103 63Z" fill="#E7F9FA"/>
<path opacity="0.8" d="M108 72L108.044 72.1775C108.178 72.7108 108.412 73.195 108.727 73.5892C109.042 73.9837 109.428 74.2767 109.853 74.4425L110 74.5L109.8 74.5842C109.397 74.7538 109.031 75.0379 108.73 75.4146C108.429 75.7913 108.202 76.2504 108.066 76.7558L108 77L107.986 76.9367C107.86 76.3583 107.615 75.8313 107.277 75.4075C106.938 74.9837 106.518 74.6775 106.057 74.52L106 74.5L106.139 74.4463C106.568 74.2808 106.957 73.9871 107.274 73.59C107.591 73.1929 107.825 72.705 107.959 72.1679L108 72Z" fill="#E7F9FA"/>
<defs>
<filter id="filter0_d_1350_2315" x="117" y="3.55359" width="107.844" height="147.954" filterUnits="userSpaceOnUse" color-interpolation-filters="sRGB">
<feFlood flood-opacity="0" result="BackgroundImageFix"/>
<feColorMatrix in="SourceAlpha" type="matrix" values="0 0 0 0 0 0 0 0 0 0 0 0 0 0 0 0 0 0 127 0" result="hardAlpha"/>
<feOffset dy="4"/>
<feGaussianBlur stdDeviation="2"/>
<feComposite in2="hardAlpha" operator="out"/>
<feColorMatrix type="matrix" values="0 0 0 0 0.0823529 0 0 0 0 0.419608 0 0 0 0 0.447059 0 0 0 0.15 0"/>
<feBlend mode="normal" in2="BackgroundImageFix" result="effect1_dropShadow_1350_2315"/>
<feBlend mode="normal" in="SourceGraphic" in2="effect1_dropShadow_1350_2315" result="shape"/>
</filter>
<filter id="filter1_d_1350_2315" x="117" y="3.55359" width="107.844" height="147.954" filterUnits="userSpaceOnUse" color-interpolation-filters="sRGB">
<feFlood flood-opacity="0" result="BackgroundImageFix"/>
<feColorMatrix in="SourceAlpha" type="matrix" values="0 0 0 0 0 0 0 0 0 0 0 0 0 0 0 0 0 0 127 0" result="hardAlpha"/>
<feOffset dy="4"/>
<feGaussianBlur stdDeviation="2"/>
<feComposite in2="hardAlpha" operator="out"/>
<feColorMatrix type="matrix" values="0 0 0 0 0.0823529 0 0 0 0 0.419608 0 0 0 0 0.447059 0 0 0 0.15 0"/>
<feBlend mode="normal" in2="BackgroundImageFix" result="effect1_dropShadow_1350_2315"/>
<feBlend mode="normal" in="SourceGraphic" in2="effect1_dropShadow_1350_2315" result="shape"/>
</filter>
<linearGradient id="paint0_linear_1350_2315" x1="171" y1="80.5" x2="171" y2="94" gradientUnits="userSpaceOnUse">
<stop stop-color="#B5EBF0" stop-opacity="0"/>
<stop offset="1" stop-color="#0CBDC8" stop-opacity="0.5"/>
</linearGradient>
<linearGradient id="paint1_linear_1350_2315" x1="137.651" y1="76.3948" x2="138.75" y2="75.9418" gradientUnits="userSpaceOnUse">
<stop stop-opacity="0"/>
<stop offset="1" stop-color="#010101" stop-opacity="0.0313726"/>
</linearGradient>
<linearGradient id="paint2_linear_1350_2315" x1="137.651" y1="76.3948" x2="138.75" y2="75.9418" gradientUnits="userSpaceOnUse">
<stop stop-opacity="0"/>
<stop offset="1" stop-color="#010101" stop-opacity="0.0313726"/>
</linearGradient>
<linearGradient id="paint3_linear_1350_2315" x1="211.999" y1="23" x2="211.999" y2="36" gradientUnits="userSpaceOnUse">
<stop stop-color="#D5F3F6"/>
<stop offset="1" stop-color="#8BDFE6"/>
</linearGradient>
<linearGradient id="paint4_linear_1350_2315" x1="218" y1="19" x2="218" y2="24" gradientUnits="userSpaceOnUse">
<stop stop-color="#D5F3F6"/>
<stop offset="1" stop-color="#8BDFE6"/>
</linearGradient>
<linearGradient id="paint5_linear_1350_2315" x1="146.793" y1="34.581" x2="140.556" y2="32.0625" gradientUnits="userSpaceOnUse">
<stop stop-color="#0CBDC8"/>
<stop offset="1" stop-color="#BFEEF2"/>
</linearGradient>
<linearGradient id="paint6_linear_1350_2315" x1="140.076" y1="43.2134" x2="137.548" y2="39.8427" gradientUnits="userSpaceOnUse">
<stop stop-color="#0CBDC8"/>
<stop offset="1" stop-color="#BFEEF2"/>
</linearGradient>
<clipPath id="clip0_1350_2315">
<path d="M0 72C0 63.1634 7.16344 56 16 56H324C332.837 56 340 63.1634 340 72V100H0V72Z" fill="white"/>
</clipPath>
</defs>
</svg>
