<svg width="72" height="72" viewBox="0 0 72 72" fill="none" xmlns="http://www.w3.org/2000/svg">
  <rect width="72" height="72" rx="12" fill="#24292F"/>
  <path d="M25.0397 50.3202L25.026 50.3348L26.0973 51.4061L26.111 51.3915L26.4762 51.7557L22.4225 54.1249L18.6325 55.8973C18.1453 56.1247 17.6401 55.6196 17.8678 55.1327L19.6413 51.3446L22.0006 47.2821L25.0397 50.3202ZM52.1969 26.7313L28.109 50.7987C28.1034 50.8043 28.0973 50.8093 28.0905 50.8134L27.8288 50.9657L27.1823 50.3202L51.4889 26.0233L52.1969 26.7313ZM50.4176 24.952L26.111 49.2489L22.7877 45.9276L22.942 45.6639C22.9461 45.657 22.951 45.6501 22.9567 45.6444L47.0426 21.579L50.4176 24.952Z" fill="#0BECF0"/>
  <path d="M25.0397 50.3202L25.026 50.3348L26.0973 51.4061L26.111 51.3915L26.4762 51.7557L22.4225 54.1249L18.6325 55.8973C18.1453 56.1247 17.6401 55.6196 17.8678 55.1327L19.6413 51.3446L22.0006 47.2821L25.0397 50.3202ZM52.1969 26.7313L28.109 50.7987C28.1034 50.8043 28.0973 50.8093 28.0905 50.8134L27.8288 50.9657L27.1823 50.3202L51.4889 26.0233L52.1969 26.7313ZM50.4176 24.952L26.111 49.2489L22.7877 45.9276L22.942 45.6639C22.9461 45.657 22.951 45.6501 22.9567 45.6444L47.0426 21.579L50.4176 24.952Z" fill="#0BECF0"/>
  <path d="M47.9658 20.6427L48.9804 19.5443C50.3596 18.0512 52.0737 17.838 53.9741 19.5449C56.1816 21.6511 55.3525 23.4594 53.9735 24.9524L53.1007 25.7575L47.9658 20.6427Z" fill="#0BECF0"/>
  <path d="M47.9658 20.6427L48.9804 19.5443C50.3596 18.0512 52.0737 17.838 53.9741 19.5449C56.1816 21.6511 55.3525 23.4594 53.9735 24.9524L53.1007 25.7575L47.9658 20.6427Z" fill="#0BECF0"/>
  <path d="M55.1179 49.7913C56.5367 51.2115 56.5366 53.5146 55.1179 54.9348C53.6991 56.355 51.398 56.355 49.9792 54.9348L26.574 31.5061L31.7156 26.3675L55.1179 49.7913ZM32.9079 17.0491C32.9851 16.9814 33.1019 16.9834 33.1745 17.0559L35.3445 19.2278C35.7178 19.6015 35.7178 20.2076 35.3445 20.5813L30.6394 25.2903L30.6443 25.2952L25.5027 30.4339L25.5017 30.4329L21.9587 33.9807C21.5855 34.3542 20.9805 34.3541 20.6072 33.9807L16.28 29.6497C15.9067 29.2759 15.9067 28.6699 16.28 28.2962L26.073 18.4934C26.1243 18.4421 26.2001 18.4247 26.2693 18.4466C26.9279 18.6562 27.6302 18.7688 28.3581 18.7688C30.1022 18.7687 31.695 18.1194 32.9079 17.0491Z" fill="white"/>
</svg>
