<svg width="20" height="20" viewBox="0 0 20 20" fill="none" xmlns="http://www.w3.org/2000/svg">
  <path
    d="M14.6221 3.44141C15.5595 3.48515 16.4558 3.85292 17.1553 4.48438C17.8985 5.15544 18.3665 6.07767 18.4717 7.07324L18.4863 7.19824C18.5503 7.73051 19.0624 11.989 19.0625 13.333C19.0625 14.1894 18.7228 15.0116 18.1172 15.6172C17.5116 16.2227 16.6894 16.5625 15.833 16.5625C14.6794 16.5623 14.0747 15.9399 13.6504 15.5156L12.4727 14.3379C12.3189 14.1841 12.1169 14.0888 11.9023 14.0674L11.8096 14.0625H8.19043C7.94183 14.0626 7.70311 14.1621 7.52734 14.3379L6.34961 15.5156C5.92531 15.9399 5.3208 16.5624 4.16699 16.5625C3.31056 16.5625 2.4884 16.2228 1.88281 15.6172C1.27726 15.0116 0.9375 14.1894 0.9375 13.333C0.937578 11.9899 1.44969 7.73065 1.51367 7.19824L1.51562 7.18555C1.52069 7.14858 1.51817 7.15374 1.52734 7.07422C1.63232 6.07805 2.10199 5.1557 2.8457 4.48438C3.59187 3.81104 4.56135 3.43779 5.56641 3.4375H14.4336L14.6221 3.44141ZM5.32617 4.90723C4.7692 4.95907 4.2407 5.18878 3.82227 5.56641C3.34401 5.99809 3.0426 6.59252 2.97656 7.2334V7.24219C2.97568 7.24996 2.96714 7.32262 2.96094 7.37109L2.96191 7.37207C2.89067 7.96488 2.39559 12.1025 2.39551 13.333C2.39551 13.8026 2.582 14.2538 2.91406 14.5859C3.24616 14.918 3.69734 15.1045 4.16699 15.1045C4.67948 15.1044 4.90858 14.8932 5.31738 14.4844L6.49609 13.3057C6.94527 12.8565 7.55517 12.6046 8.19043 12.6045H11.8096C12.4447 12.6046 13.0548 12.8567 13.5039 13.3057L14.6826 14.4844C15.0914 14.8932 15.3206 15.1044 15.833 15.1045C16.3026 15.1045 16.7538 14.918 17.0859 14.5859C17.418 14.2538 17.6045 13.8027 17.6045 13.333C17.6044 12.1108 17.117 8.02619 17.04 7.38574C17.0353 7.35184 17.0316 7.32035 17.0293 7.29785L17.0234 7.2334C16.9575 6.59263 16.6558 5.99909 16.1777 5.56738C15.6994 5.13555 15.0771 4.89567 14.4326 4.89551H5.56738L5.32617 4.90723ZM6.66699 6.77051C7.06961 6.77062 7.39551 7.09736 7.39551 7.5V8.4375H8.33398C8.7366 8.43761 9.06348 8.76435 9.06348 9.16699C9.06323 9.56943 8.73645 9.8954 8.33398 9.89551H7.39551V10.833C7.39545 11.2356 7.06957 11.5624 6.66699 11.5625C6.26432 11.5625 5.93755 11.2357 5.9375 10.833V9.89551H5.00098C4.59842 9.89551 4.27173 9.56949 4.27148 9.16699C4.27148 8.76428 4.59827 8.4375 5.00098 8.4375H5.9375V7.5C5.9375 7.09729 6.26428 6.77051 6.66699 6.77051ZM12.5088 9.27051C12.9114 9.27062 13.2383 9.59736 13.2383 10C13.2382 10.4026 12.9114 10.7294 12.5088 10.7295H12.501C12.0983 10.7295 11.7716 10.4027 11.7715 10C11.7715 9.59729 12.0983 9.27051 12.501 9.27051H12.5088ZM15.0088 7.60449C15.4113 7.6046 15.7381 7.93051 15.7383 8.33301C15.7382 8.7356 15.4114 9.06239 15.0088 9.0625H15.001C14.5983 9.0625 14.2715 8.73567 14.2715 8.33301C14.2716 7.93044 14.5984 7.60449 15.001 7.60449H15.0088Z"
    fill="currentColor" />
</svg>