<svg xmlns="http://www.w3.org/2000/svg" width="24" height="24" viewBox="0 0 24 24" fill="none">
  <path d="M17 9C15 9 14 8 14 6V3H8C6 3 5 4 5 6V18C5 20 6 21 8 21H17C19 21 20 20 20 18V9H17Z" fill="#51DADC"/>
  <path d="M17 9H20L14 3V6C14 8 15 9 17 9Z" fill="#0AA5BE"/>
  <path d="M12.8741 10.978L13.629 12.476C13.686 12.589 13.7962 12.667 13.9222 12.685L15.6651 12.933C15.9851 12.978 16.1122 13.364 15.8812 13.585L14.6212 14.787C14.5292 14.875 14.4871 15.002 14.5091 15.126L14.7972 16.772C14.8552 17.106 14.4982 17.36 14.1932 17.203L12.681 16.425C12.567 16.367 12.4322 16.367 12.3192 16.425L10.8082 17.202C10.5022 17.36 10.144 17.104 10.203 16.77L10.491 15.126C10.513 15.002 10.471 14.875 10.379 14.787L9.11897 13.585C8.88697 13.364 9.01504 12.978 9.33504 12.933L11.078 12.685C11.205 12.667 11.3152 12.589 11.3712 12.476L12.1261 10.978C12.2791 10.674 12.7211 10.674 12.8741 10.978Z" fill="white"/>
</svg>