<svg width="20" height="20" viewBox="0 0 20 20" fill="none" xmlns="http://www.w3.org/2000/svg">
  <path fill-rule="evenodd" clip-rule="evenodd"
    d="M7.49903 1.96777C7.87072 1.96777 8.23781 2.0536 8.57032 2.21973L12.0801 3.97559C12.2102 4.04055 12.3536 4.07519 12.499 4.0752C12.6444 4.0752 12.7879 4.04055 12.918 3.97559L15.9668 2.4502C16.205 2.33127 16.4704 2.27605 16.7363 2.28809C17.0025 2.30021 17.2617 2.37929 17.4883 2.51953C17.7148 2.65977 17.9018 2.85608 18.0313 3.08887C18.1605 3.32139 18.2287 3.5836 18.2285 3.84961V14.4863C18.2284 14.7763 18.1476 15.061 17.9951 15.3076C17.8427 15.554 17.6243 15.7531 17.3652 15.8828L13.5703 17.7812C13.2378 17.9474 12.8708 18.0342 12.499 18.0342C12.1739 18.0342 11.8526 17.9676 11.5547 17.8398L11.4277 17.7812L7.91797 16.0254C7.78789 15.9604 7.64444 15.9268 7.49903 15.9268C7.35359 15.9268 7.21018 15.9614 7.08008 16.0264L4.03125 17.5508C3.79281 17.6699 3.527 17.7261 3.26075 17.7139C2.99447 17.7016 2.73536 17.6219 2.50879 17.4814C2.28236 17.341 2.09518 17.145 1.96582 16.9121C1.83648 16.6791 1.76893 16.4159 1.76954 16.1494V5.51562L1.77442 5.40625C1.79213 5.15433 1.87054 4.91005 2.00391 4.69434C2.15644 4.44775 2.37446 4.24784 2.63379 4.11816L6.42774 2.2207C6.76024 2.05458 7.12734 1.96778 7.49903 1.96777ZM8.22852 14.583C8.34537 14.6204 8.45993 14.6665 8.57032 14.7217L11.7695 16.3213V5.41797C11.6969 5.39472 11.625 5.36901 11.5547 5.33887L11.4277 5.28027L8.22852 3.67969V14.583ZM16.6436 3.74609L16.6191 3.75488L13.5703 5.28027C13.46 5.3354 13.3453 5.38057 13.2285 5.41797V16.3213L16.7119 14.5791C16.7292 14.5705 16.7447 14.5565 16.7549 14.54C16.7648 14.5237 16.7695 14.5045 16.7695 14.4854V3.84863C16.7696 3.83087 16.7655 3.8124 16.7568 3.79688C16.7483 3.78168 16.7355 3.769 16.7207 3.75977C16.7058 3.75055 16.6884 3.74502 16.6709 3.74414C16.6619 3.74373 16.6523 3.74422 16.6436 3.74609ZM3.28614 5.42285C3.26891 5.43147 3.2543 5.44457 3.24414 5.46094C3.23404 5.47728 3.2286 5.49641 3.22852 5.51562V16.1533C3.22855 16.1709 3.23268 16.1887 3.24121 16.2041C3.24984 16.2195 3.26333 16.2329 3.27832 16.2422C3.29311 16.2512 3.30987 16.2569 3.32715 16.2578C3.34491 16.2586 3.36301 16.254 3.37891 16.2461L6.42774 14.7217L6.55469 14.6631C6.62508 14.6329 6.69681 14.6063 6.76954 14.583V3.67969L3.28614 5.42285Z"
    fill="currentColor" />
</svg>