<svg width="24" height="24" viewBox="0 0 24 24" fill="none" xmlns="http://www.w3.org/2000/svg">
<path d="M11.5945 12.3288C11.7937 11.5968 12.1021 10.4688 12.2701 9.86045C12.2946 9.78587 12.3356 9.71778 12.3901 9.66125C13.9158 8.1355 16.4155 5.65167 16.8616 5.20842C16.9003 5.17 16.9622 5.17006 17.0013 5.20803L19.2598 7.39986C19.2991 7.43806 19.3003 7.50074 19.2632 7.54123C19.2446 7.56159 19.2275 7.58075 19.2109 7.59965C17.5681 9.24125 16.4509 10.3596 14.8069 11.9916C14.7273 12.0706 14.6284 12.1273 14.5201 12.156C13.8877 12.336 12.8041 12.636 12.0973 12.8292C12.0278 12.8489 11.9543 12.8498 11.8844 12.8317C11.8145 12.8135 11.7506 12.7771 11.6994 12.7262C11.6482 12.6752 11.6115 12.6116 11.5931 12.5417C11.5746 12.4719 11.5751 12.3984 11.5945 12.3288ZM20.1253 6.65187C20.0865 6.68978 20.0246 6.69001 19.9857 6.65232L17.7312 4.47135C17.6925 4.43383 17.6904 4.37228 17.7266 4.3322C17.7406 4.31663 17.7505 4.30565 17.7505 4.30565C17.7793 4.27805 18.5341 3.51125 18.9325 3.12125C19.2483 2.83076 19.6633 2.67213 20.0923 2.67789C20.5214 2.68364 20.932 2.85335 21.2399 3.1522C21.5478 3.45105 21.7297 3.85639 21.7482 4.28508C21.7668 4.71377 21.6206 5.13331 21.3397 5.45765C20.9431 5.85765 20.5389 6.24689 20.1253 6.65187Z" fill="#0AA5BE"/>
<path d="M15.8065 13.0248C15.5217 13.312 15.1571 13.5068 14.7601 13.584L10.8493 14.3388C10.7348 14.3609 10.6166 14.3544 10.5053 14.3197C10.394 14.2851 10.2929 14.2234 10.2112 14.1403C10.1294 14.0571 10.0696 13.955 10.0368 13.8431C10.0041 13.7312 9.99963 13.6129 10.0237 13.4988L10.8709 9.52081C10.9545 9.13047 11.1515 8.77353 11.4373 8.49481L15.9872 4.06956C16.2446 3.81922 16.0674 3.38281 15.7083 3.38281H6.18972C5.33847 3.38281 4.52205 3.7208 3.9199 4.3225C3.31775 4.9242 2.97915 5.74037 2.97852 6.59161V18.1392C2.97852 18.5609 3.06158 18.9784 3.22298 19.3679C3.38437 19.7574 3.62092 20.1114 3.91913 20.4095C4.21733 20.7075 4.57134 20.944 4.96093 21.1052C5.35053 21.2665 5.76807 21.3494 6.18972 21.3492H18.0157C18.8671 21.3492 19.6835 21.011 20.2855 20.409C20.8875 19.807 21.2257 18.9906 21.2257 18.1392V8.53774C21.2257 8.1807 20.7935 8.00254 20.5419 8.2559L15.8065 13.0248ZM13.1353 18.0732H6.97452C6.83675 18.0779 6.69944 18.0549 6.57077 18.0054C6.44211 17.9559 6.32472 17.8811 6.22559 17.7853C6.12647 17.6895 6.04764 17.5747 5.9938 17.4478C5.93996 17.3209 5.91221 17.1845 5.91221 17.0466C5.91221 16.9088 5.93996 16.7723 5.9938 16.6454C6.04764 16.5185 6.12647 16.4038 6.22559 16.308C6.32472 16.2122 6.44211 16.1373 6.57077 16.0878C6.69944 16.0384 6.83675 16.0153 6.97452 16.02H13.1353C13.4015 16.0291 13.6538 16.1413 13.8389 16.3328C14.024 16.5243 14.1274 16.7803 14.1274 17.0466C14.1274 17.313 14.024 17.5689 13.8389 17.7604C13.6538 17.952 13.4015 18.0641 13.1353 18.0732Z" fill="#51DADC"/>
</svg>
