<svg xmlns="http://www.w3.org/2000/svg" width="24" height="24" viewBox="0 0 24 24" fill="none">
  <path d="M19 19.25H13.8521C13.6491 18.75 13.251 18.351 12.75 18.148V15H11.25V18.148C10.75 18.351 10.3509 18.749 10.1479 19.25H5C4.586 19.25 4.25 19.586 4.25 20C4.25 20.414 4.586 20.75 5 20.75H10.1479C10.4449 21.482 11.161 22 12 22C12.839 22 13.5551 21.482 13.8521 20.75H19C19.414 20.75 19.75 20.414 19.75 20C19.75 19.586 19.414 19.25 19 19.25Z" fill="#0AA5BE"/>
  <path d="M17 4H12L10 2H7C5 2 4 3 4 5V12C4 14 5 15 7 15H11.25H12.75H17C19 15 20 14 20 12V7C20 5 19 4 17 4Z" fill="#51DADC"/>
</svg>
