<svg width="20" height="20" viewBox="0 0 20 20" fill="none" xmlns="http://www.w3.org/2000/svg">
  <path d="M10.9023 2.19043C11.3051 2.19043 11.6318 2.51721 11.6318 2.91992C11.6318 3.32262 11.305 3.64941 10.9023 3.64941H4.88379C4.39368 3.64948 3.95524 3.78617 3.66211 3.98926C3.37171 4.19061 3.29805 4.39568 3.29785 4.52344V13.1416C3.78767 12.895 4.34947 12.7676 4.91309 12.7676H16.8398V12.2041C16.8398 11.8014 17.1666 11.4746 17.5693 11.4746C17.9719 11.4748 18.2979 11.8015 18.2979 12.2041V16.3711C18.2979 16.827 18.0609 17.2106 17.7383 17.458C17.4198 17.7021 17.0201 17.8193 16.6318 17.8193H4.91309C4.15177 17.8193 3.39383 17.5889 2.81152 17.1426C2.3323 16.7752 1.98804 16.2681 1.87793 15.6904C1.85401 15.6183 1.83987 15.5411 1.83984 15.4609V4.52344C1.84005 3.8006 2.25503 3.18987 2.83203 2.79004C3.4069 2.39182 4.14653 2.1905 4.88379 2.19043H10.9023ZM4.91309 14.2256C4.43137 14.2256 3.99598 14.3742 3.69922 14.6016C3.40665 14.8258 3.29785 15.083 3.29785 15.2939L3.30273 15.374C3.32738 15.5675 3.44327 15.7881 3.69922 15.9844C3.99599 16.2118 4.43123 16.3604 4.91309 16.3604H16.6318C16.7305 16.3603 16.8025 16.3308 16.8398 16.3066V14.2256H4.91309ZM15.9092 3.125C16.0393 3.12508 16.1654 3.17084 16.2656 3.25391C16.3658 3.33711 16.434 3.45308 16.458 3.58105L16.8271 5.5293C16.8456 5.62657 16.8929 5.7171 16.9629 5.78711C17.0328 5.85691 17.1226 5.90348 17.2197 5.92188L19.168 6.29102L19.2617 6.31641C19.352 6.35028 19.4327 6.40747 19.4951 6.48242C19.5784 6.58267 19.6249 6.70953 19.625 6.83984C19.625 6.97025 19.5784 7.09694 19.4951 7.19727C19.4327 7.27235 19.3521 7.32935 19.2617 7.36328L19.168 7.38965L17.2197 7.75781C17.1226 7.77622 17.0329 7.82367 16.9629 7.89355C16.8929 7.96362 16.8455 8.05402 16.8271 8.15137L16.458 10.0996C16.434 10.2276 16.3658 10.3436 16.2656 10.4268C16.1655 10.5097 16.0393 10.5556 15.9092 10.5557C15.779 10.5556 15.652 10.5099 15.5518 10.4268C15.4767 10.3643 15.4197 10.2828 15.3857 10.1924L15.3594 10.0996L14.9912 8.15137C14.9728 8.05408 14.9254 7.9636 14.8555 7.89355C14.7855 7.82372 14.6958 7.77621 14.5986 7.75781L12.6494 7.38965C12.5216 7.36554 12.4054 7.29736 12.3223 7.19727C12.2391 7.09699 12.1934 6.97013 12.1934 6.83984C12.1934 6.70957 12.239 6.58266 12.3223 6.48242C12.4054 6.38238 12.5216 6.3151 12.6494 6.29102L14.5986 5.92188C14.6957 5.90347 14.7855 5.85693 14.8555 5.78711C14.9255 5.71712 14.9728 5.62654 14.9912 5.5293L15.3594 3.58105C15.3834 3.45313 15.4517 3.33711 15.5518 3.25391C15.652 3.17064 15.7789 3.12507 15.9092 3.125Z" fill="currentColor"/>
</svg>
