<svg width="24" height="24" viewBox="0 0 24 24" fill="none" xmlns="http://www.w3.org/2000/svg">
  <path d="M17 9C15 9 14 8 14 6V3H8C6 3 5 4 5 6V18C5 20 6 21 8 21H17C19 21 20 20 20 18V9H17Z" fill="#51DADC"/>
  <path d="M17 9H20L14 3V6C14 8 15 9 17 9Z" fill="#0AA5BE"/>
  <path d="M14.6919 15.287C14.7679 15.104 14.7679 14.897 14.6919 14.714C14.6539 14.622 14.599 14.539 14.53 14.47L12.53 12.47C12.237 12.177 11.762 12.177 11.469 12.47C11.176 12.763 11.176 13.238 11.469 13.531L12.189 14.251H9C8.586 14.251 8.25 14.587 8.25 15.001C8.25 15.415 8.586 15.751 9 15.751H12.189L11.469 16.471C11.176 16.764 11.176 17.239 11.469 17.532C11.615 17.678 11.807 17.752 11.999 17.752C12.191 17.752 12.3831 17.679 12.5291 17.532L14.5291 15.532C14.5991 15.461 14.6539 15.378 14.6919 15.287Z" fill="white"/>
</svg>
