<svg width="24" height="24" viewBox="0 0 24 24" fill="none" xmlns="http://www.w3.org/2000/svg">
  <path d="M17 9C15 9 14 8 14 6V3H8C6 3 5 4 5 6V18C5 20 6 21 8 21H17C19 21 20 20 20 18V9H17Z" fill="#51DADC"/>
  <path d="M17 9H20L14 3V6C14 8 15 9 17 9Z" fill="#0AA5BE"/>
  <path d="M14.0001 14.25H10.8112L11.5311 13.53C11.8241 13.237 11.8241 12.762 11.5311 12.469C11.2381 12.176 10.7631 12.176 10.4701 12.469L8.47009 14.469C8.40109 14.538 8.34622 14.621 8.30822 14.713C8.23222 14.896 8.23222 15.103 8.30822 15.286C8.34622 15.378 8.40109 15.461 8.47009 15.53L10.4701 17.53C10.6161 17.676 10.8081 17.75 11.0001 17.75C11.1921 17.75 11.3841 17.677 11.5301 17.53C11.8231 17.237 11.8231 16.762 11.5301 16.469L10.8102 15.749H14.0001C14.4141 15.749 14.7501 15.413 14.7501 14.999C14.7501 14.585 14.4141 14.25 14.0001 14.25Z" fill="white"/>
</svg>
