<svg width="24" height="24" viewBox="0 0 24 24" fill="none" xmlns="http://www.w3.org/2000/svg">
  <path d="M21 10V17C21 19 20 20 18 20H6C4 20 3 19 3 17V7C3 5 4 4 6 4H10L13 7H18C20 7 21 8 21 10Z" fill="#51DADC"/>
  <path d="M12.0001 13.25H8.81115L9.53112 12.53C9.82412 12.237 9.82412 11.762 9.53112 11.469C9.23812 11.176 8.76309 11.176 8.47009 11.469L6.47009 13.469C6.40109 13.538 6.34622 13.621 6.30822 13.713C6.23222 13.896 6.23222 14.103 6.30822 14.286C6.34622 14.378 6.40109 14.461 6.47009 14.53L8.47009 16.53C8.61609 16.676 8.80812 16.75 9.00012 16.75C9.19212 16.75 9.38414 16.677 9.53014 16.53C9.82314 16.237 9.82314 15.762 9.53014 15.469L8.81017 14.749H12.0001C12.4141 14.749 12.7501 14.413 12.7501 13.999C12.7501 13.585 12.4141 13.25 12.0001 13.25Z" fill="white"/>
</svg>
