<svg width="24" height="24" viewBox="0 0 24 24" fill="none" xmlns="http://www.w3.org/2000/svg">
    <path d="M21 13.2983V10C21 8 20 7 18 7H13L10 4H6C4 4 3 5 3 7V17C3 19 4 20 6 20H12.9541C12.8901 19.3446 13.109 18.6667 13.6111 18.1647L14.2756 17.5001L13.6109 16.8355C12.7205 15.9451 12.7205 14.5015 13.6109 13.6111C14.5013 12.7207 15.9449 12.7207 16.8353 13.6111L17.5 14.2757L18.1648 13.6109C18.9347 12.841 20.1182 12.7368 21 13.2983Z" fill="#51DADC"/>
    <path d="M15.7322 14.6716C15.4393 14.3787 14.9645 14.3787 14.6716 14.6716C14.3787 14.9645 14.3787 15.4393 14.6716 15.7322L16.4393 17.5L14.6716 19.2678C14.3787 19.5607 14.3787 20.0355 14.6716 20.3284C14.9645 20.6213 15.4393 20.6213 15.7322 20.3284L17.5 18.5607L19.2678 20.3284C19.5607 20.6213 20.0355 20.6213 20.3284 20.3284C20.6213 20.0355 20.6213 19.5607 20.3284 19.2678L18.5607 17.5L20.3284 15.7322C20.6213 15.4393 20.6213 14.9645 20.3284 14.6716C20.0355 14.3787 19.5607 14.3787 19.2678 14.6716L17.5 16.4393L15.7322 14.6716Z" fill="#0AA5BE"/>
    </svg>
    