<svg width="24" height="24" viewBox="0 0 24 24" fill="none" xmlns="http://www.w3.org/2000/svg">
  <path fill-rule="evenodd" clip-rule="evenodd" d="M4.5 3H19.5C20.3284 3 21 3.67157 21 4.5V19.5C21 20.3284 20.3284 21 19.5 21H4.5C3.67157 21 3 20.3284 3 19.5V4.5C3 3.67157 3.67157 3 4.5 3ZM12 6C12.5523 6 13 6.44772 13 7V8H17C17.5523 8 18 8.44772 18 9V14C18 14.5523 17.5523 15 17 15H13V17.5C13 18.0523 12.5523 18.5 12 18.5C11.4477 18.5 11 18.0523 11 17.5V15H7C6.44772 15 6 14.5523 6 14V9C6 8.44772 6.44772 8 7 8H11V7C11 6.44772 11.4477 6 12 6ZM8 10H11V13H8V10ZM13 10V13H16V10H13Z" fill="currentColor"/>
</svg>
