<svg xmlns="http://www.w3.org/2000/svg" width="12" height="12" viewBox="0 0 12 12" fill="none">
  <path d="M9.5821 0.059287C10.2532 -0.108107 10.9475 0.0839962 11.4356 0.571982C11.8937 1.03027 12.0911 1.67005 11.9766 2.3005L11.9493 2.42647L10.043 10.0515V10.0525L10.0372 10.0759C9.76622 11.1573 8.87431 11.9092 7.78328 11.9987L7.77449 11.9997L7.57136 12.0075H7.54499C6.34796 11.9988 5.35367 11.2058 5.07917 10.0407L4.48445 7.52022L1.96686 6.9294C0.801898 6.65487 0.00887794 5.66047 6.61956e-05 4.46358C-0.00827079 3.2666 0.771609 2.26178 1.93269 1.9714L9.5821 0.059287ZM10.0118 1.51046L9.93464 1.52511L2.29694 3.43429C1.71202 3.58079 1.50529 4.06311 1.50788 4.45284C1.51079 4.84262 1.72404 5.32221 2.31159 5.46065L4.87507 6.06319L7.22078 3.72042C7.51527 3.4262 7.99264 3.42618 8.28718 3.72042C8.58134 4.01494 8.58142 4.49233 8.28718 4.78683L5.94343 7.13058L6.54695 9.69601C6.68544 10.2827 7.16432 10.4956 7.55378 10.4987L7.55574 10.4997C7.96535 10.5032 8.42548 10.2984 8.57332 9.70968L10.4854 2.06026C10.5235 1.90659 10.4798 1.75071 10.3682 1.63937L10.3624 1.63351C10.2771 1.55107 10.1681 1.50852 10.0567 1.50851C10.0428 1.50853 10.0277 1.50878 10.0118 1.51046ZM6.42878 9.96651C6.43179 9.97369 6.43446 9.98095 6.43757 9.988C6.4344 9.98097 6.43185 9.97367 6.42878 9.96651ZM1.8155 6.68038C1.8798 6.70126 1.94568 6.71926 2.01276 6.73507V6.73409C1.94577 6.7183 1.87978 6.701 1.8155 6.68038ZM8.14558 4.64522V4.6462C8.17256 4.61921 8.19662 4.58995 8.21687 4.55929V4.55831C8.19658 4.58908 8.17265 4.61814 8.14558 4.64522ZM2.24909 3.23995C2.20536 3.25089 2.16335 3.26403 2.12311 3.27804L2.24909 3.24093L9.89851 1.32784L2.24909 3.23995ZM11.755 2.37765L11.793 2.1794C11.7937 2.17456 11.7934 2.1696 11.794 2.16476C11.7852 2.23575 11.7726 2.30689 11.755 2.37765Z" fill="#0BC0CF"/>
</svg>