<svg xmlns="http://www.w3.org/2000/svg" width="14" height="14" viewBox="0 0 14 14" fill="none">
  <path d="M10.5821 1.05929C11.2532 0.891893 11.9475 1.084 12.4356 1.57198C12.8937 2.03027 13.0911 2.67005 12.9766 3.3005L12.9493 3.42647L11.043 11.0515V11.0525L11.0372 11.0759C10.7662 12.1573 9.87431 12.9092 8.78328 12.9987L8.77449 12.9997L8.57136 13.0075H8.54499C7.34796 12.9988 6.35367 12.2058 6.07917 11.0407L5.48445 8.52022L2.96686 7.9294C1.8019 7.65487 1.00888 6.66047 1.00007 5.46358C0.991729 4.2666 1.77161 3.26178 2.93269 2.9714L10.5821 1.05929ZM11.0118 2.51046L10.9346 2.52511L3.29694 4.43429C2.71202 4.58079 2.50529 5.06311 2.50788 5.45284C2.51079 5.84262 2.72404 6.32221 3.31159 6.46065L5.87507 7.06319L8.22078 4.72042C8.51527 4.4262 8.99264 4.42618 9.28718 4.72042C9.58134 5.01494 9.58142 5.49233 9.28718 5.78683L6.94343 8.13058L7.54695 10.696C7.68544 11.2827 8.16432 11.4956 8.55378 11.4987L8.55574 11.4997C8.96535 11.5032 9.42548 11.2984 9.57332 10.7097L11.4854 3.06026C11.5235 2.90659 11.4798 2.75071 11.3682 2.63937L11.3624 2.63351C11.2771 2.55107 11.1681 2.50852 11.0567 2.50851C11.0428 2.50853 11.0277 2.50878 11.0118 2.51046ZM7.42878 10.9665C7.43179 10.9737 7.43446 10.9809 7.43757 10.988C7.4344 10.981 7.43185 10.9737 7.42878 10.9665ZM2.8155 7.68038C2.8798 7.70126 2.94568 7.71926 3.01276 7.73507V7.73409C2.94577 7.7183 2.87978 7.701 2.8155 7.68038ZM9.14558 5.64522V5.6462C9.17256 5.61921 9.19662 5.58995 9.21687 5.55929V5.55831C9.19658 5.58908 9.17265 5.61814 9.14558 5.64522ZM3.24909 4.23995C3.20536 4.25089 3.16335 4.26403 3.12311 4.27804L3.24909 4.24093L10.8985 2.32784L3.24909 4.23995ZM12.755 3.37765L12.793 3.1794C12.7937 3.17456 12.7934 3.1696 12.794 3.16476C12.7852 3.23575 12.7726 3.30689 12.755 3.37765Z" fill="#0BC0CF"/>
</svg>