<svg width="20" height="20" viewBox="0 0 20 20" fill="none" xmlns="http://www.w3.org/2000/svg">
  <path d="M14.4115 15.4727C13.0924 16.3094 11.562 16.7525 9.99999 16.75C5.95599 16.75 2.59149 13.84 1.88574 10C2.20826 8.25301 3.08696 6.65715 4.39074 5.45047L2.04399 3.10597L3.10524 2.04472L17.9545 16.8947L16.8932 17.9552L14.4107 15.4727H14.4115ZM5.45124 6.51247C4.432 7.43917 3.72198 8.65656 3.41724 9.99997C3.65146 11.0248 4.12169 11.9808 4.79049 12.7919C5.4593 13.603 6.30821 14.2468 7.26966 14.672C8.2311 15.0971 9.27853 15.292 10.3286 15.2411C11.3786 15.1901 12.4022 14.8947 13.318 14.3785L11.797 12.8575C11.1495 13.2653 10.3826 13.4411 9.62217 13.3558C8.8617 13.2706 8.15277 12.9294 7.61167 12.3883C7.07057 11.8472 6.72941 11.1383 6.64416 10.3778C6.55891 9.61732 6.73463 8.85046 7.14249 8.20297L5.45124 6.51247ZM10.6855 11.746L8.25399 9.31447C8.12054 9.65417 8.08913 10.0254 8.16362 10.3827C8.23811 10.74 8.41526 11.0678 8.67333 11.3259C8.93141 11.584 9.25919 11.7611 9.61648 11.8356C9.97378 11.9101 10.345 11.8787 10.6847 11.7452L10.6855 11.746ZM16.6052 13.444L15.532 12.3715C16.0333 11.6569 16.3903 10.8514 16.5827 9.99997C16.3789 9.10727 15.9957 8.26533 15.4564 7.52534C14.917 6.78536 14.2328 6.16277 13.4454 5.69543C12.658 5.22808 11.7837 4.92575 10.8758 4.8068C9.96787 4.68784 9.04525 4.75476 8.16399 5.00347L6.98049 3.81997C7.91574 3.45247 8.93499 3.24997 9.99999 3.24997C14.044 3.24997 17.4085 6.15997 18.1142 9.99997C17.8844 11.2492 17.3679 12.4282 16.6052 13.444ZM9.79224 6.63097C10.2696 6.60147 10.7478 6.67377 11.1951 6.84309C11.6425 7.0124 12.0487 7.27486 12.3869 7.61306C12.7251 7.95127 12.9876 8.35749 13.1569 8.80482C13.3262 9.25214 13.3985 9.73034 13.369 10.2077L9.79149 6.63097H9.79224Z" fill="#57606A" />
</svg>
