<svg width="20" height="20" viewBox="0 0 20 20" fill="none" xmlns="http://www.w3.org/2000/svg">
  <path d="M13.9584 6.91996V5.83333C13.9584 3.65083 12.1826 1.875 10.0001 1.875C7.81758 1.875 6.04175 3.65083 6.04175 5.83333V6.91996C4.42675 7.13413 3.54175 8.205 3.54175 10V15C3.54175 17.015 4.65175 18.125 6.66675 18.125H13.3334C15.3484 18.125 16.4584 17.015 16.4584 15V10C16.4584 8.20583 15.5734 7.13496 13.9584 6.91996ZM10.0001 3.125C11.4934 3.125 12.7084 4.34 12.7084 5.83333V6.875H7.29175V5.83333C7.29175 4.34 8.50675 3.125 10.0001 3.125ZM15.2084 15C15.2084 16.3142 14.6476 16.875 13.3334 16.875H6.66675C5.35258 16.875 4.79175 16.3142 4.79175 15V10C4.79175 8.68583 5.35258 8.125 6.66675 8.125H13.3334C14.6476 8.125 15.2084 8.68583 15.2084 10V15ZM11.0584 11.6667C11.0584 12.01 10.8817 12.3 10.6251 12.4892V14.1667C10.6251 14.5117 10.3451 14.7917 10.0001 14.7917C9.65508 14.7917 9.37508 14.5117 9.37508 14.1667V12.4683C9.13508 12.2774 8.97083 11.9958 8.97083 11.6667C8.97083 11.0917 9.43342 10.625 10.0084 10.625H10.0168C10.5918 10.625 11.0584 11.0917 11.0584 11.6667Z" fill="#57606A" />
</svg>
