<?xml version="1.0" standalone="no"?><!DOCTYPE svg PUBLIC "-//W3C//DTD SVG 1.1//EN" "http://www.w3.org/Graphics/SVG/1.1/DTD/svg11.dtd"><svg t="1742540267891" class="icon" viewBox="0 0 1024 1024" version="1.1" xmlns="http://www.w3.org/2000/svg" p-id="8564" xmlns:xlink="http://www.w3.org/1999/xlink" width="200" height="200"><path d="M934.496 459.168c19.456 0 35.232 15.776 35.232 35.232v352.192a35.232 35.232 0 0 1-70.464 0V494.4c0-19.456 15.776-35.232 35.232-35.232zM512.768 54.144L74.848 300.672s-57.12 28.608 19.008 70.432 418.912 246.528 418.912 246.528z m0 0l436.192 246.528s56.896 28.608-18.976 70.432-417.248 246.528-417.248 246.528z m-0.896 616.352L177.28 459.168v264.16a92.864 92.864 0 0 0 34.976 52.64l0.256 0.192c28.608 19.808 299.36 193.696 299.36 193.696zM934.496 318.304a17.6 17.6 0 0 1 17.6 17.6v140.864a17.6 17.6 0 1 1-35.2 0v-140.864a17.6 17.6 0 0 1 17.6-17.6zM511.872 670.496l334.592-211.328v264.16a92.864 92.864 0 0 1-34.976 52.64l-0.256 0.192c-28.608 19.808-299.36 193.696-299.36 193.696z" p-id="8565" fill="#0EC1D0"></path></svg>