<?xml version="1.0" standalone="no"?><!DOCTYPE svg PUBLIC "-//W3C//DTD SVG 1.1//EN" "http://www.w3.org/Graphics/SVG/1.1/DTD/svg11.dtd"><svg t="1741166096549" class="icon" viewBox="0 0 1024 1024" version="1.1" xmlns="http://www.w3.org/2000/svg" p-id="10731" xmlns:xlink="http://www.w3.org/1999/xlink" width="200" height="200"><path d="M625.365333 119.552a42.666667 42.666667 0 0 0-73.216 29.781333v176.042667c-128.725333 10.197333-240.341333 62.634667-333.141333 156.672-102.144 103.509333-160.682667 232.533333-176.128 384.853333a42.666667 42.666667 0 0 0 75.477333 31.317334c103.338667-126.208 188.074667-188.245333 253.909334-202.24 63.104-13.354667 122.965333-17.237333 179.882666-11.946667V874.666667a42.666667 42.666667 0 0 0 74.026667 28.928l343.850667-372.352a42.666667 42.666667 0 0 0-0.810667-58.709334l-343.850667-352.981333z" fill="#0EC1D0" fill-opacity=".85" p-id="10732"></path></svg>