<?xml version="1.0" standalone="no"?><!DOCTYPE svg PUBLIC "-//W3C//DTD SVG 1.1//EN" "http://www.w3.org/Graphics/SVG/1.1/DTD/svg11.dtd"><svg t="1742540152206" class="icon" viewBox="0 0 1024 1024" version="1.1" xmlns="http://www.w3.org/2000/svg" p-id="3891" xmlns:xlink="http://www.w3.org/1999/xlink" width="200" height="200"><path d="M375.466667 198.4h198.4c23.466667 0 46.933333 4.266667 72.533333 12.8l-100.266667 100.266667h-198.4a58.282667 58.282667 0 0 0-57.6 57.6v283.733333a58.282667 58.282667 0 0 0 57.6 57.6h283.733334a58.282667 58.282667 0 0 0 57.6-57.6v-38.4l113.066666-113.066667v123.733334c0 61.866667-17.066667 110.933333-53.333333 147.2s-83.2 53.333333-147.2 53.333333h-228.266667c-61.866667 0-110.933333-17.066667-147.2-53.333333-34.133333-34.133333-53.333333-83.2-53.333333-147.2v-228.266667c0-61.866667 17.066667-110.933333 53.333333-147.2 38.4-34.133333 87.466667-51.2 149.333334-51.2z m166.4 262.4l224-224c2.133333-2.133333 6.4-4.266667 10.666666-4.266667s6.4 2.133333 10.666667 4.266667l57.6 57.6c2.133333 2.133333 4.266667 6.4 4.266667 10.666667s-2.133333 6.4-4.266667 10.666666l-302.933333 302.933334c-2.133333 2.133333-6.4 4.266667-10.666667 4.266666s-6.4-2.133333-10.666667-4.266666l-140.8-140.8c-2.133333-2.133333-4.266667-6.4-4.266666-10.666667s2.133333-6.4 4.266666-10.666667l57.6-57.6c2.133333-2.133333 6.4-4.266667 10.666667-4.266666s6.4 2.133333 10.666667 4.266666l64 64c2.133333 2.133333 6.4 4.266667 10.666666 4.266667 2.133333-2.133333 6.4-4.266667 8.533334-6.4z" p-id="3892" fill="#0EC1D0"></path></svg>