<?xml version="1.0" encoding="utf-8"?>
<!-- Generator: Adobe Illustrator 27.5.0, SVG Export Plug-In . SVG Version: 6.00 Build 0)  -->
<svg version="1.1" id="图层_1" xmlns="http://www.w3.org/2000/svg" xmlns:xlink="http://www.w3.org/1999/xlink" x="0px" y="0px"
	 viewBox="0 0 200 200" style="enable-background:new 0 0 200 200;" xml:space="preserve">
<style type="text/css">
	.st0{fill:#BFBFBF;}
</style>
<path class="st0" d="M154.8,18.8H92.3c-14.8,0-26.8,12-26.8,26.8l0,0v20.1H45.2c-14.5,0.2-26.3,11.9-26.4,26.4v62.5
	c0,14.8,12,26.8,26.8,26.8l0,0H108c14.8,0,26.8-12,26.8-26.7l0,0v-19.9h20.1c14.8,0,26.8-12,26.8-26.8l0,0V45.4
	C181.6,30.7,169.6,18.7,154.8,18.8L154.8,18.8z M118.8,154.8c0,5.8-4.7,10.5-10.5,10.5l0,0H45.8c-5.8,0-10.5-4.7-10.5-10.5l0,0V92.3
	c0-5.8,4.7-10.5,10.5-10.5l0,0h62.5c5.7,0,10.4,4.5,10.5,10.2V154.8z M165.6,107.9c0.2,5.8-4.4,10.6-10.2,10.8c-0.2,0-0.4,0-0.6,0
	h-20.1V92.1c0-14.8-12-26.8-26.7-26.8l0,0H81.6V45.2c0-5.8,4.7-10.5,10.5-10.5l0,0h62.5c5.8,0,10.5,4.7,10.5,10.5l0,0L165.6,107.9z"
	/>
</svg>
