<?xml version="1.0" standalone="no"?><!DOCTYPE svg PUBLIC "-//W3C//DTD SVG 1.1//EN" "http://www.w3.org/Graphics/SVG/1.1/DTD/svg11.dtd"><svg t="1743081573174" class="icon" viewBox="0 0 1024 1024" version="1.1" xmlns="http://www.w3.org/2000/svg" p-id="3119" xmlns:xlink="http://www.w3.org/1999/xlink" width="200" height="200"><path d="M979.52 144.256H44.48c-24.576 0-44.48 21.12-44.48 47.36 0 26.112 19.904 47.296 44.48 47.296h103.36V820.16C147.776 932.544 233.728 1024 339.456 1024h345.088c105.728 0 191.68-91.456 191.68-203.84V238.784H979.52c24.576 0 44.48-21.184 44.48-47.36 0-25.984-19.904-47.168-44.48-47.168zM455.68 724.608c0 26.176-19.968 47.36-44.544 47.36-24.576 0-44.48-21.184-44.48-47.36V427.392c0-26.176 19.904-47.36 44.48-47.36 24.576 0 44.544 21.184 44.544 47.36v297.216z m201.472 0c0 26.176-19.968 47.36-44.544 47.36-24.576 0-44.48-21.184-44.48-47.36V427.392c0-26.176 19.84-47.36 44.48-47.36 24.576 0 44.544 21.184 44.544 47.36v297.216zM341.504 94.72h340.992c24.576 0 44.48-21.12 44.48-47.36 0-26.112-19.904-47.296-44.48-47.296H341.504c-24.576 0-44.48 21.184-44.48 47.36 0 26.112 19.904 47.36 44.48 47.36z" fill="#8a8a8a" p-id="3120"></path></svg>