<?xml version="1.0" standalone="no"?><!DOCTYPE svg PUBLIC "-//W3C//DTD SVG 1.1//EN" "http://www.w3.org/Graphics/SVG/1.1/DTD/svg11.dtd"><svg t="1742540215183" class="icon" viewBox="0 0 1024 1024" version="1.1" xmlns="http://www.w3.org/2000/svg" p-id="4979" xmlns:xlink="http://www.w3.org/1999/xlink" width="200" height="200"><path d="M512 504.32m-314.88 0a12.3 12.3 0 1 0 629.76 0 12.3 12.3 0 1 0-629.76 0Z" p-id="4980" fill="#0EC1D0"></path><path d="M560.64 972.8l-94.72 0c-15.36 0-25.6 10.24-25.6 25.6 0 15.36 10.24 25.6 25.6 25.6l94.72 0c15.36 0 25.6-10.24 25.6-25.6C586.24 985.6 573.44 972.8 560.64 972.8z" p-id="4981" fill="#0EC1D0"></path><path d="M627.2 867.84l-230.4 0c-15.36 0-25.6 10.24-25.6 25.6 0 15.36 10.24 25.6 25.6 25.6l230.4 0c15.36 0 25.6-10.24 25.6-25.6C652.8 878.08 640 867.84 627.2 867.84z" p-id="4982" fill="#0EC1D0"></path><path d="M514.56 130.56c15.36 0 25.6-10.24 25.6-25.6L540.16 25.6c0-15.36-10.24-25.6-25.6-25.6s-25.6 10.24-25.6 25.6l0 79.36C488.96 117.76 499.2 130.56 514.56 130.56z" p-id="4983" fill="#0EC1D0"></path><path d="M243.2 235.52c10.24-10.24 10.24-25.6 0-35.84L189.44 143.36c-10.24-10.24-25.6-10.24-35.84 0C143.36 153.6 143.36 168.96 151.04 179.2l56.32 56.32C217.6 245.76 235.52 245.76 243.2 235.52z" p-id="4984" fill="#0EC1D0"></path><path d="M104.96 478.72 25.6 478.72c-15.36 0-25.6 10.24-25.6 25.6 0 15.36 10.24 25.6 25.6 25.6l79.36 0c15.36 0 25.6-10.24 25.6-25.6C130.56 488.96 117.76 478.72 104.96 478.72z" p-id="4985" fill="#0EC1D0"></path><path d="M998.4 481.28l-79.36 0c-15.36 0-25.6 10.24-25.6 25.6 0 15.36 10.24 25.6 25.6 25.6L998.4 532.48c15.36 0 25.6-10.24 25.6-25.6C1024 494.08 1013.76 481.28 998.4 481.28z" p-id="4986" fill="#0EC1D0"></path><path d="M844.8 140.8l-56.32 56.32c-10.24 10.24-10.24 25.6 0 35.84 10.24 10.24 25.6 10.24 35.84 0l56.32-56.32c10.24-10.24 10.24-25.6 0-35.84C870.4 130.56 852.48 130.56 844.8 140.8z" p-id="4987" fill="#0EC1D0"></path></svg>