<?xml version="1.0" standalone="no"?><!DOCTYPE svg PUBLIC "-//W3C//DTD SVG 1.1//EN" "http://www.w3.org/Graphics/SVG/1.1/DTD/svg11.dtd"><svg t="1743046396752" class="icon" viewBox="0 0 1024 1024" version="1.1" xmlns="http://www.w3.org/2000/svg" p-id="5788" xmlns:xlink="http://www.w3.org/1999/xlink" width="200" height="200"><path d="M512 512m-512 0a512 512 0 1 0 1024 0 512 512 0 1 0-1024 0Z" fill="#0EC1D0" opacity=".1" p-id="5789"></path><path d="M688.779636 795.554909H333.451636c-58.833455 0-106.728727-46.405818-106.728727-103.470545V347.508364c0-57.064727 47.941818-103.470545 106.728727-103.470546h209.92c14.801455 0 26.763636 11.636364 26.763637 25.925818a26.344727 26.344727 0 0 1-26.717091 25.925819h-209.92c-29.370182 0-53.294545 23.179636-53.294546 51.618909v344.576c0 28.439273 23.924364 51.618909 53.248 51.618909h355.328c29.323636 0 53.248-23.179636 53.248-51.618909v-140.334546c0-14.336 11.962182-25.925818 26.717091-25.925818 14.754909 0 26.763636 11.636364 26.763637 25.925818v140.334546c0 57.064727-47.895273 103.470545-106.728728 103.470545" fill="#0EC1D0" p-id="5790"></path><path d="M563.106909 546.722909l-42.914909-34.909091a29.556364 29.556364 0 0 1-3.816727-42.542545l178.920727-206.801455a31.837091 31.837091 0 0 1 43.892364-3.723636l42.868363 34.909091c13.172364 10.705455 14.894545 29.789091 3.863273 42.589091l-178.920727 206.754909a31.837091 31.837091 0 0 1-43.892364 3.723636M486.167273 604.625455l64.232727-13.73091a9.029818 9.029818 0 0 0 4.002909-15.872l-61.44-49.989818c-5.957818-4.840727-15.080727-0.930909-15.36 6.562909l-2.839273 63.767273a9.309091 9.309091 0 0 0 11.403637 9.262546M437.294545 693.853091H346.298182a26.344727 26.344727 0 0 1-26.717091-25.925818c0-14.336 11.962182-25.925818 26.717091-25.925818h91.042909c14.801455 0 26.763636 11.636364 26.763636 25.925818a26.344727 26.344727 0 0 1-26.763636 25.925818" fill="#0EC1D0" p-id="5791"></path></svg>