<?xml version="1.0" standalone="no"?><!DOCTYPE svg PUBLIC "-//W3C//DTD SVG 1.1//EN" "http://www.w3.org/Graphics/SVG/1.1/DTD/svg11.dtd"><svg t="1741141852891" class="icon" viewBox="0 0 1024 1024" version="1.1" xmlns="http://www.w3.org/2000/svg" p-id="7841" xmlns:xlink="http://www.w3.org/1999/xlink" width="200" height="200"><path d="M124.8 742.4a115.2 115.2 0 0 1 115.2-115.2 115.2 115.2 0 0 1 106.112 70.4h393.024a70.4 70.4 0 0 0 70.4-70.4 70.4 70.4 0 0 0-70.4-70.4h-454.4a160 160 0 0 1-160-160 160 160 0 0 1 160-160h392.96a115.2 115.2 0 0 1 106.24-70.4 115.2 115.2 0 0 1 115.2 115.2 115.2 115.2 0 0 1-115.2 115.2 115.2 115.2 0 0 1-106.112-70.4H284.736a70.4 70.4 0 0 0-70.4 70.4 70.4 70.4 0 0 0 70.4 70.4h454.4a160 160 0 0 1 160 160 160 160 0 0 1-160 160h-392.96a115.2 115.2 0 0 1-106.24 70.4 115.2 115.2 0 0 1-115.136-115.2z m76.8 0a38.4 38.4 0 0 0 38.4 38.4 38.4 38.4 0 0 0 38.4-38.4 38.4 38.4 0 0 0-38.4-38.4 38.4 38.4 0 0 0-38.4 38.4z m544-460.8a38.4 38.4 0 0 0 38.4 38.4 38.4 38.4 0 0 0 38.4-38.4 38.4 38.4 0 0 0-38.4-38.4 38.4 38.4 0 0 0-38.4 38.4z" fill="#ffffff" fill-opacity="0.9" p-id="7842"></path></svg>