<?xml version="1.0" standalone="no"?><!DOCTYPE svg PUBLIC "-//W3C//DTD SVG 1.1//EN" "http://www.w3.org/Graphics/SVG/1.1/DTD/svg11.dtd"><svg t="1741597040168" class="icon" viewBox="0 0 1024 1024" version="1.1" xmlns="http://www.w3.org/2000/svg" p-id="34906" xmlns:xlink="http://www.w3.org/1999/xlink" width="200" height="200"><path d="M381.236622 976.658971a83.669584 83.669584 0 0 0 42.52645 11.615047h323.725919c30.482995 0 55.859132-24.665461 55.318617-55.144451-0.354337-20.029051-11.591025-37.391566-28.042673-46.462194a3.783599 3.783599 0 0 1-1.997901-3.303142v-0.104099c0-1.733649 1.191133-3.251092 2.884744-3.623446 24.301115-5.339078 42.490416-26.98767 42.490416-52.89231 0-15.857083-6.814482-30.118648-17.67281-40.026072 21.822757-8.420009 37.313492-29.580136 37.313492-54.373718 0-19.540586-9.627157-36.821023-24.387197-47.393079 20.583579-10.291789 34.727031-31.556015 34.727031-56.135395 0-34.648957-28.088717-62.737674-62.737674-62.737674h-129.383065c-9.158712 0-15.246502-9.475012-11.442885-17.804936l15.356607-33.619978a149.582278 149.582278 0 0 0 13.520861-62.143109v-69.912499c0-10.077586-1.971876-20.05908-5.80352-29.379945a64.365222 64.365222 0 0 0-59.530624-39.889942h-0.132126a44.306143 44.306143 0 0 0-40.758768 26.933618l-27.009691 63.370276-101.704739 59.216325-16.67386 7.084739a101.856883 101.856883 0 0 0-52.169622 50.041598l-120.124259 247.55747v135.80117z" fill="#FFE5C2" p-id="34907"></path><path d="M752.483741 910.832358H428.757822a83.649565 83.649565 0 0 1-42.52645-11.615048l-131.709278-73.325745v-68.657305l-4.996753 10.297795v135.80117l131.709279 73.325746a83.669584 83.669584 0 0 0 42.52645 11.615047h323.723917c30.482995 0 55.859132-24.665461 55.318617-55.144451a53.897266 53.897266 0 0 0-14.197504-35.557822 55.807082 55.807082 0 0 1-36.122359 13.260613z" fill="#FED2A4" p-id="34908"></path><path d="M99.452597 1008.985719h202.62473c24.791581 0 44.886695-20.097116 44.886695-44.886695V551.940991c0-24.791581-20.097116-44.886695-44.886695-44.886695H99.452597c-15.036302 0-27.225897 12.189594-27.225897 27.225896v447.477628c-0.002002 15.038304 12.187592 27.227898 27.225897 27.227899z" fill="#F37C7C" p-id="34909"></path><path d="M302.077327 507.054296h-8.824393v336.081671c0 38.680792-31.357827 70.038619-70.038619 70.038619H72.224698v68.585236c0 15.036302 12.189594 27.225897 27.225897 27.225897h202.624731c24.791581 0 44.886695-20.097116 44.886695-44.886695V551.940991c0.002002-24.789579-20.095114-44.886695-44.884694-44.886695z" fill="#EE6161" p-id="34910"></path><path d="M656.450397 232.078747l-46.876588-24.363174a15.4547 15.4547 0 0 0-14.383681 0.068065l-46.644367 24.803592c-11.310758 6.01372-24.607406-3.551378-22.501402-16.187397l8.686262-52.111567a15.458704 15.458704 0 0 0-4.508288-13.658992l-38.004149-36.696905c-9.214765-8.898464-4.22602-24.499303 8.44203-26.401112l52.243693-7.84346a15.4547 15.4547 0 0 0 11.59703-8.510095l23.158028-47.483164c5.615341-11.512951 21.994921-11.591025 27.718365-0.130124l23.60245 47.262955a15.4547 15.4547 0 0 0 11.677107 8.39999l52.315761 7.350992c12.686067 1.781695 17.820951 17.33649 8.690266 26.321036l-37.655817 37.053244a15.456702 15.456702 0 0 0-4.380167 13.701032l9.174727 52.027487c2.220112 12.613998-10.98645 22.303214-22.35126 16.397597zM384.407638 313.259964l-37.419593-19.448499a12.339737 12.339737 0 0 0-11.48092 0.054052l-37.235417 19.800834c-9.028588 4.800566-19.642684-2.834696-17.961084-12.92029l6.932594-41.597566a12.337735 12.337735 0 0 0-3.599424-10.90237l-30.336856-29.293864c-7.354996-7.102756-3.373209-19.556602 6.73841-21.076047l41.703667-6.259954a12.335733 12.335733 0 0 0 9.256805-6.792461l18.485583-37.904053c4.482263-9.190742 17.556699-9.252801 22.127047-0.104099l18.841921 37.727886a12.33173 12.33173 0 0 0 9.320866 6.704377l41.761723 5.867581c10.125631 1.423354 14.225531 13.839163 6.936598 21.011986l-30.060593 29.578134a12.339737 12.339737 0 0 0-3.497327 10.936402l7.324968 41.531504c1.775689 10.065574-8.766338 17.800932-17.838968 13.086447zM816.884998 313.259964l37.419592-19.448499a12.339737 12.339737 0 0 1 11.480921 0.054052l37.235417 19.800834c9.028588 4.800566 19.642684-2.834696 17.961084-12.92029l-6.932594-41.597566a12.337735 12.337735 0 0 1 3.599424-10.90237l30.336855-29.293864c7.354996-7.102756 3.373209-19.556602-6.738409-21.076047l-41.703667-6.259954a12.335733 12.335733 0 0 1-9.256805-6.792461l-18.485583-37.904053c-4.482263-9.190742-17.556699-9.252801-22.127047-0.104099l-18.841922 37.727886a12.33173 12.33173 0 0 1-9.320865 6.704377l-41.761723 5.867581c-10.125631 1.423354-14.225531 13.839163-6.936598 21.011986l30.060593 29.578134a12.339737 12.339737 0 0 1 3.497326 10.936402l-7.324967 41.531504c-1.775689 10.065574 8.766338 17.800932 17.838968 13.086447z" fill="#FEE45A" p-id="34911"></path><path d="M863.132988 628.818114c0-42.872779-34.879176-77.751955-77.751956-77.751955h-16.265471a15.014281 15.014281 0 0 0 0 30.028562h16.265471c26.31503 0 47.723393 21.408363 47.723393 47.723393 0 18.191303-10.125631 34.55687-26.427136 42.706621a15.012279 15.012279 0 0 0-2.029931 25.636385c11.344791 8.123727 18.115231 21.278239 18.115231 35.187469 0 17.750884-11.132589 33.972314-27.70235 40.364394a15.016283 15.016283 0 0 0-4.714484 25.099874 39.253337 39.253337 0 0 1 12.778154 28.931519c0 18.243353-12.91028 34.320645-30.695197 38.228362-8.506091 1.865775-14.679963 9.55709-14.679963 18.393495a18.809891 18.809891 0 0 0 9.761285 16.449647c12.261663 6.76043 20.033055 19.626668 20.279289 33.577938 0.184175 10.317814-3.779595 20.137154-11.160616 27.648298a41.099092 41.099092 0 0 1-29.145722 12.215619H423.763072a68.689335 68.689335 0 0 1-34.895192-9.531065l-26.889576-15.871096v-75.591901a15.014281 15.014281 0 0 0-30.028563 0v91.831347c0 16.471667-13.400746 29.872414-29.872414 29.872414H72.2267a15.014281 15.014281 0 0 0 0 30.028562h229.850627c27.07175 0 49.995554-18.057175 57.388587-42.756669l14.139449 8.343937a98.733913 98.733913 0 0 0 50.157709 13.69903h323.723917c18.899977 0 37.329507-7.72735 50.566097-21.200165 13.072434-13.304655 20.09111-30.787284 19.764799-49.224821-0.310295-17.480627-7.290935-33.994334-19.034104-46.378114 20.727716-12.181587 34.370692-34.817117 34.370692-59.738822 0-12.652034-3.497327-24.975756-9.909425-35.647907 18.197309-13.642977 29.548105-35.415686 29.548105-58.749881 0-16.605795-5.689412-32.572983-15.764995-45.367152 16.441639-14.521813 26.10483-35.465734 26.10483-58.157318zM519.788408 161.429547a0.440419 0.440419 0 0 1 0.130124 0.390372l-8.686262 52.111567c-1.919826 11.52296 2.778643 22.921803 12.261663 29.74229a30.350869 30.350869 0 0 0 17.766899 5.767486 30.489 30.489 0 0 0 14.331632-3.599424l46.648371-24.805595a0.430409 0.430409 0 0 1 0.406386 0l46.876588 24.363174c10.36586 5.385122 22.655549 4.442225 32.07651-2.47035 9.418959-6.912575 14.009325-18.351455 11.981396-29.8584l-9.176728-52.025485a0.440419 0.440419 0 0 1 0.12612-0.390372l37.655817-37.053244c8.327921-8.193794 11.224677-20.177192 7.563194-31.271744s-13.124484-18.996069-24.693488-20.621615l-52.315761-7.350992a0.436415 0.436415 0 0 1-0.332316-0.240229L628.806103 16.856033C623.607158 6.448133 613.175235 0 601.55218 0h-0.148141c-11.683113 0.054051-22.121041 6.612289-27.241912 17.112277L551.0041 64.595441a0.440419 0.440419 0 0 1-0.330315 0.242231l-52.245694 7.841458c-11.552989 1.735651-20.939917 9.72525-24.497301 20.853836s-0.54652 23.081955 7.857473 31.195672z m-17.122286-58.996115s0.058055-0.03203 0.218207-0.056054l52.247697-7.841458a30.468981 30.468981 0 0 0 22.859744-16.775957l23.158027-47.485166a0.728693 0.728693 0 0 1 0.118112-0.190181c0.108103-0.076072 0.446425-0.076072 0.550524-0.004004 0 0 0.048046 0.046044 0.122116 0.192183l23.604452 47.262955a30.458972 30.458972 0 0 0 23.019896 16.559751l52.315761 7.350992c0.15815 0.022021 0.216206 0.05205 0.218208 0.05205 0.104099 0.080076 0.208198 0.400381 0.174165 0.524498 0 0-0.028027 0.060057-0.144137 0.174166l-37.655817 37.051242a30.466979 30.466979 0 0 0-8.638216 27.011693l9.174726 52.025485c0.028027 0.160152 0.018017 0.224213 0.018017 0.224213-0.044042 0.124118-0.314299 0.324308-0.444422 0.328313 0 0-0.066063-0.008008-0.2102-0.08408l-46.876588-24.363174a30.458972 30.458972 0 0 0-28.356972 0.134128l-46.646369 24.803592a0.708674 0.708674 0 0 1-0.208198 0.086082c-0.132126-0.002002-0.406387-0.20019-0.450429-0.322306 0 0-0.012011-0.064061 0.014014-0.226216l8.686262-52.111567a30.470983 30.470983 0 0 0-8.890456-26.927612l-38.002147-36.696906a0.79876 0.79876 0 0 1-0.146139-0.170161c-0.034032-0.124118 0.068065-0.446425 0.170162-0.526501zM272.20091 258.065465l-6.700373 40.208245a27.181855 27.181855 0 0 0 11.008471 26.699395 27.251921 27.251921 0 0 0 15.947168 5.176924c4.388174 0 8.800371-1.069017 12.864236-3.231073l35.992235-19.138204 36.168402 18.79788c9.304851 4.834599 20.339346 3.985791 28.793388-2.216107 8.456043-6.205903 12.577964-16.475671 10.756231-26.803495l-7.080735-40.144184 29.055637-28.591195c7.47511-7.354996 10.077586-18.111227 6.788457-28.0707s-11.781206-17.050218-22.167085-18.509606l-40.368397-5.671395-18.213324-36.47069c-4.666439-9.342887-14.031346-15.130392-24.467273-15.130391h-0.132126c-10.485974 0.048046-19.856887 5.933644-24.455261 15.36061l-17.868996 36.640852-40.312344 6.051756c-10.371865 1.557481-18.799882 8.730304-21.992919 18.719806s-0.490467 20.719708 7.052708 28.002635z m31.778226-51.605086a27.352016 27.352016 0 0 0 20.52152-15.058323l16.107321-33.029416 16.417616 32.87527a27.346011 27.346011 0 0 0 20.665656 14.86614l36.388612 5.112863-26.190912 25.772514a27.346011 27.346011 0 0 0-7.753375 24.247063l6.382071 36.188422-32.609017-16.948121a27.346011 27.346011 0 0 0-25.452209 0.122116l-32.446863 17.25241 6.041747-36.246476a27.346011 27.346011 0 0 0-7.97959-24.170991l-26.435145-25.52628zM965.468326 201.745895c-3.193037-9.989502-11.621054-17.162324-21.992919-18.719806l-40.312344-6.051756-17.868996-36.640852c-4.596372-9.424965-13.969287-15.310563-24.455261-15.36061-10.427919 0.014013-19.912941 5.749469-24.599399 15.132393l-18.213324 36.468688-40.366395 5.671395c-10.385879 1.459388-18.879958 8.550133-22.167085 18.509605s-0.686653 20.715704 6.788457 28.070701l29.055637 28.591195-7.080735 40.144184c-1.821733 10.327824 2.300188 20.599594 10.756231 26.803494s19.488537 7.052708 28.793388 2.216108l36.168402-18.79788 35.992235 19.138204a27.346011 27.346011 0 0 0 12.866238 3.233075c5.60333 0 11.174629-1.743659 15.947168-5.176924a27.181855 27.181855 0 0 0 11.008471-26.699396l-6.700373-40.210246 29.323892-28.316935c7.547179-7.286931 10.251751-18.015135 7.056712-28.004637z m-58.247403 35.695953a27.346011 27.346011 0 0 0-7.97959 24.172993l6.041747 36.246476-32.444861-17.25241a27.340005 27.340005 0 0 0-25.456213-0.120114L814.774991 297.434912l6.382071-36.190424a27.338003 27.338003 0 0 0-7.753375-24.243059l-26.192914-25.774516 36.388612-5.112863a27.348013 27.348013 0 0 0 20.665656-14.86614l16.417616-32.87527 16.107321 33.031418a27.352016 27.352016 0 0 0 20.521519 15.058323l36.340567 5.455189zM72.2267 522.068577h64.064937a15.014281 15.014281 0 0 0 0-30.028562H72.2267a15.014281 15.014281 0 0 0 0 30.028562z" p-id="34912"></path><path d="M200.276497 522.068577h101.80083c16.471667 0 29.872414 13.400746 29.872414 29.872414v256.337821a15.014281 15.014281 0 0 0 30.028563 0v-237.165585l21.232195-44.696514a86.774537 86.774537 0 0 1 44.480308-42.666583l16.67386-7.084739c0.57855-0.246234 1.139083-0.528503 1.683602-0.842802l101.704738-59.216325a15.010277 15.010277 0 0 0 6.255951-7.088742l27.009691-63.370276c4.610385-10.816288 15.186445-17.806937 27.077755-17.806938a49.182781 49.182781 0 0 1 45.643415 30.585092 61.930907 61.930907 0 0 1 4.676448 23.668513v69.9145a133.623099 133.623099 0 0 1-12.16357 55.903174l-15.356606 33.619978c-3.919728 8.582163-3.215058 18.445545 1.885793 26.383095s13.779106 12.676057 23.214081 12.676057h49.130732a15.014281 15.014281 0 0 0 0-30.028562h-45.343129l13.781108-30.1727c9.873391-21.612557 14.878152-44.620442 14.878151-68.381042v-69.9145c0-12.097507-2.332218-23.902736-6.932594-35.087375-12.285686-29.884425-41.103096-49.194793-73.547956-49.194792a59.236344 59.236344 0 0 0-54.569906 36.060299l-25.057834 58.787918-96.58587 56.235489-15.807035 6.716389a116.779077 116.779077 0 0 0-59.858936 57.416613l-3.201045 6.736407c-10.594077-16.934107-29.403968-28.22885-50.810329-28.22885H200.270492a15.014281 15.014281 0 1 0 0.006005 30.032566z" p-id="34913"></path></svg>