<svg width="16" height="16" viewBox="0 0 16 16" fill="none" xmlns="http://www.w3.org/2000/svg">
  <path fill-rule="evenodd" clip-rule="evenodd" d="M10.6934 11.5485V4.91142C10.6934 4.47076 11.2263 4.25042 11.5378 4.56185L14.8551 7.8816C15.0483 8.07362 15.0483 8.38627 14.8551 8.57953L11.5378 11.8968C11.2263 12.2082 10.6934 11.9879 10.6934 11.5485Z" fill="currentColor"/>
  <path fill-rule="evenodd" clip-rule="evenodd" d="M7.61426 3.76112C7.68688 3.78573 7.77305 3.79805 7.8469 3.79805C8.02046 3.79805 8.16817 3.7365 8.29003 3.62449C8.35041 3.5653 8.38709 3.4931 8.4245 3.41948L8.42666 3.41523C8.42792 3.41129 8.4292 3.40734 8.43048 3.40339C8.45278 3.33443 8.47589 3.26292 8.47589 3.18259C8.47589 3.02258 8.40081 2.86255 8.29003 2.75054C8.22971 2.69023 8.16817 2.65207 8.09308 2.61637C7.86044 2.5179 7.58841 2.57945 7.41608 2.75054C7.36685 2.79978 7.31761 2.87486 7.28068 2.94872C7.25729 3.02258 7.23145 3.10751 7.23145 3.18259C7.23145 3.26292 7.25456 3.33443 7.27686 3.40339C7.27814 3.40734 7.27941 3.41129 7.28068 3.41523C7.31761 3.49032 7.36685 3.56417 7.41608 3.62449C7.47763 3.67372 7.53917 3.72296 7.61426 3.76112ZM7.24462 5.59505C7.24462 5.25039 7.51542 4.97959 7.86007 4.97959C8.19241 4.97959 8.47552 5.25039 8.47552 5.59505C8.47552 5.92739 8.19241 6.2105 7.86007 6.2105C7.51542 6.2105 7.24462 5.92739 7.24462 5.59505ZM7.8469 13.4229C7.68688 13.4229 7.53917 13.3613 7.41608 13.2394C7.36685 13.1902 7.31761 13.1152 7.28068 13.0413L7.2769 13.0296C7.2546 12.9606 7.23145 12.889 7.23145 12.8074C7.23145 12.7335 7.25729 12.6474 7.28068 12.5748C7.31761 12.4997 7.36685 12.4258 7.41608 12.3766C7.58841 12.2055 7.86044 12.1427 8.09308 12.2412C8.16817 12.2781 8.22971 12.3163 8.29003 12.3766C8.33926 12.4258 8.38849 12.4997 8.42666 12.5748C8.45004 12.6474 8.47589 12.7335 8.47589 12.8074C8.47589 12.889 8.45274 12.9606 8.43043 13.0296L8.42666 13.0413L8.4213 13.0517C8.38499 13.1221 8.34869 13.1925 8.29003 13.2394C8.18047 13.3613 8.02046 13.4229 7.8469 13.4229ZM7.86007 7.37986C7.51542 7.37986 7.24462 7.65066 7.24462 7.99531C7.24462 8.33874 7.51542 8.61077 7.86007 8.61077C8.19241 8.61077 8.47552 8.33874 8.47552 7.99531C8.47552 7.65066 8.19241 7.37986 7.86007 7.37986ZM7.24462 10.4079C7.24462 10.0632 7.51542 9.79244 7.86007 9.79244C8.19241 9.79244 8.47552 10.0632 8.47552 10.4079C8.47552 10.7402 8.19241 11.0233 7.86007 11.0233C7.51542 11.0233 7.24462 10.7402 7.24462 10.4079Z" fill="currentColor"/>
  <path fill-rule="evenodd" clip-rule="evenodd" d="M5.30571 4.91142V11.5485C5.30571 11.9879 4.77396 12.2082 4.46254 11.8968L1.14402 8.57829C0.951995 8.38504 0.951995 8.07239 1.14402 7.88037L4.46254 4.56185C4.77396 4.25042 5.30571 4.47076 5.30571 4.91142Z" fill="currentColor"/>
</svg>
