<svg width="16" height="16" viewBox="0 0 16 16" fill="none" xmlns="http://www.w3.org/2000/svg">
  <path fill-rule="evenodd" clip-rule="evenodd" d="M10.219 6.34489L11.3116 5.05372C11.8132 5.77428 12.1342 6.62944 12.2085 7.5528H13.364C13.8684 7.5528 14.1711 8.11224 13.896 8.53412L11.9608 11.5514C11.7132 11.9458 11.1446 11.9458 10.8878 11.5514L8.96186 8.53412C8.68672 8.11224 8.98937 7.5528 9.49379 7.5528H10.5943C10.5421 7.12113 10.4122 6.71365 10.219 6.34489ZM12.2277 2.64407L3.2157 13.2946C3.19921 13.3141 3.18476 13.3346 3.17233 13.3559L2.75575 13.8483C2.60286 14.0289 2.33244 14.0515 2.15175 13.8986C1.97106 13.7457 1.94852 13.4753 2.10141 13.2946L3.5223 11.6154C2.58262 10.6873 2.00001 9.39859 2.00001 7.97468C2.00001 5.15912 4.29281 2.85715 7.11753 2.85715C8.23482 2.85715 9.26926 3.21794 10.1108 3.82894L11.53 2.15175C11.6829 1.97106 11.9533 1.94852 12.134 2.10141C12.2952 2.23781 12.3305 2.46776 12.2277 2.64407ZM4.92622 12.6L6.01748 11.3104C6.36378 11.4251 6.73365 11.4872 7.11753 11.4872C7.55867 11.4872 7.91543 11.844 7.91543 12.2851C7.91543 12.7345 7.55867 13.0922 7.11753 13.0922C6.33358 13.0922 5.59059 12.9156 4.92622 12.6ZM9.06989 5.05913C8.51199 4.68207 7.84027 4.46211 7.11753 4.46211C5.18333 4.46211 3.60497 6.03955 3.60497 7.97468C3.60497 8.90563 3.97027 9.75381 4.56475 10.3834L9.06989 5.05913Z" fill="currentColor"/>
</svg>
