<svg width="16" height="16" viewBox="0 0 16 16" fill="none" xmlns="http://www.w3.org/2000/svg">
  <path d="M6.98665 7.43328C7.15332 7.50661 7.32667 7.55329 7.5 7.59329V13.94C7.39333 13.9133 7.28669 13.8733 7.18669 13.8266L3.18669 12.0466C2.46669 11.7266 2 11.0133 2 10.2199V5.77996C2 5.59996 2.02666 5.41995 2.07332 5.25329L6.98665 7.43328ZM9.87996 5.94663L4.4467 3.39328L3.18669 3.95328C2.95335 4.05328 2.75333 4.19995 2.58 4.37328L7.38664 6.51328C7.7733 6.68661 8.22003 6.68661 8.61336 6.51328L9.87996 5.94663ZM13.42 4.37328C13.2467 4.19995 13.0466 4.05328 12.8133 3.95328L8.81331 2.17329C8.29331 1.93996 7.70669 1.93996 7.18669 2.17329L5.65999 2.85328L11.0933 5.40661L13.42 4.37328ZM13.9267 5.25329L11.5867 6.29329V7.92663C11.5867 8.19996 11.36 8.42663 11.0867 8.42663C10.8133 8.42663 10.5867 8.19996 10.5867 7.92663V6.73329L9.01335 7.43328C8.84668 7.49995 8.67333 7.55329 8.5 7.59329V13.94C8.60667 13.9133 8.71331 13.8733 8.81331 13.8266L12.8133 12.0466C13.5333 11.7266 14 11.0133 14 10.2199V5.77996C14 5.59996 13.9733 5.41995 13.9267 5.25329Z" fill="currentColor"/>
</svg>
