<svg width="24" height="24" viewBox="0 0 24 24" fill="none" xmlns="http://www.w3.org/2000/svg">
<path fill-rule="evenodd" clip-rule="evenodd" d="M10.2822 3.93389C10.503 3.9069 10.7273 3.92966 10.9385 3.99932L11.043 4.03839L11.1445 4.08428C11.3763 4.20098 11.5746 4.37646 11.7197 4.59307C11.8854 4.84062 11.974 5.13212 11.9746 5.42999V18.5667C11.975 18.8653 11.8872 19.1581 11.7217 19.4066C11.556 19.655 11.3197 19.8487 11.0439 19.9632C10.768 20.0776 10.4639 20.1075 10.1709 20.0491C9.87785 19.9907 9.60855 19.8466 9.39746 19.6351L6.35254 16.5901L6.35156 16.5882C6.31572 16.5522 6.2725 16.5237 6.22559 16.5042C6.17862 16.4848 6.12796 16.4748 6.07715 16.4749H3.90039C3.42963 16.4749 2.97741 16.2883 2.64453 15.9554C2.31198 15.6226 2.12513 15.1709 2.125 14.7005V9.30011C2.12515 8.82972 2.31201 8.37793 2.64453 8.04522C2.97738 7.71252 3.42976 7.52471 3.90039 7.52471H6.07715C6.12804 7.52484 6.17857 7.51489 6.22559 7.49542C6.2725 7.47592 6.31575 7.44746 6.35156 7.41143L9.39844 4.36456C9.60949 4.15404 9.87948 4.01049 10.1719 3.95245L10.2822 3.93389ZM18.0088 5.65362C18.3505 5.31223 18.9054 5.31213 19.2471 5.65362C20.0803 6.48691 20.7414 7.47705 21.1924 8.56573C21.6433 9.65444 21.875 10.8219 21.875 12.0003C21.875 13.1787 21.6433 14.3461 21.1924 15.4349C20.7414 16.5236 20.0803 17.5136 19.2471 18.347C18.9055 18.6886 18.3505 18.6884 18.0088 18.347C17.6674 18.0054 17.6675 17.4513 18.0088 17.1097C18.6796 16.4388 19.2121 15.6414 19.5752 14.7649C19.9381 13.8885 20.125 12.9489 20.125 12.0003C20.125 11.0517 19.9381 10.112 19.5752 9.23565C19.2122 8.35929 18.6795 7.56269 18.0088 6.8919C17.6672 6.55018 17.6671 5.99529 18.0088 5.65362ZM7.59082 8.64678C7.39209 8.84629 7.15566 9.00478 6.89551 9.11261C6.63524 9.22042 6.35592 9.27425 6.07422 9.27374L3.90039 9.27471C3.89395 9.27471 3.88746 9.27806 3.88281 9.28253C3.87826 9.28708 3.87517 9.29367 3.875 9.30011V14.7005C3.87512 14.7068 3.87839 14.7135 3.88281 14.7181C3.88746 14.7225 3.89396 14.7249 3.90039 14.7249H6.07422C6.35584 14.7244 6.6353 14.7802 6.89551 14.888C7.15545 14.9957 7.39218 15.1536 7.59082 15.3528L10.2246 17.9866V6.013L7.59082 8.64678ZM15.0752 8.59991C15.4617 8.31045 16.0109 8.38854 16.3008 8.77471C16.9984 9.70499 17.3759 10.8375 17.376 12.0003C17.3759 13.163 16.9982 14.2947 16.3008 15.2249C16.0109 15.6114 15.4618 15.6894 15.0752 15.3997C14.6891 15.1097 14.6106 14.5615 14.9004 14.1751C15.3708 13.5478 15.6259 12.7844 15.626 12.0003C15.6259 11.2162 15.3708 10.4528 14.9004 9.8255C14.6106 9.43896 14.6888 8.88985 15.0752 8.59991Z" fill="currentColor"/>
</svg>
