<?xml version="1.0" encoding="utf-8" ?><svg xmlns="http://www.w3.org/2000/svg" xmlns:xlink="http://www.w3.org/1999/xlink" width="1024" height="1024" viewBox="0 0 1024 1024"><path fill="#FFFFFD" d="M0 0L1024 0L1024 1024L0 1024L0 0Z"/><path fill="#4A333B" d="M551.947 184.681C591.215 135.071 633.561 92.6277 692.101 65.9868C702.733 61.1484 727.847 47.7836 738.283 56.8399C744.97 63.0959 750.141 74.6972 753.551 83.1757C771.683 127.146 777.833 171.032 782.101 217.84C794.034 230.906 793.787 231.588 802.476 246.074C801.525 240.9 797.48 225.258 803.484 222.789C805.949 223.17 807.725 224.953 809.087 226.963C822.522 246.787 828.076 270.923 829.182 294.294C831.186 289.704 839.632 271.029 845.973 273.996C848.411 277.691 846.824 284.613 845.963 288.777C842.546 305.294 835.95 317.42 846.32 333.273C855.551 347.385 869.759 356.154 882.784 366.593C907.209 386.047 931.503 405.027 952.43 428.403C960.761 437.709 967.808 445.532 974.722 456.049C984.781 471.351 984.809 474.38 971.974 488.056C947.177 514.477 916.064 535.578 884.737 553.504C862.783 565.809 836.122 578.474 812.484 586.747C812.685 590.532 812.994 594.325 813.672 598.038C815.35 607.232 819.353 615.696 823.084 624.185C823.58 625.313 823.122 626.365 822.662 627.413C816.285 630.865 799.493 619.052 794.604 614.547C796.91 619.779 797.581 620.829 801.027 625.332C803.845 629.013 809.726 634.447 811.095 638.42C806.759 644.481 785.774 643.742 778.837 642.141C781.495 643.679 785.85 645.732 787.325 648.182C786.594 657.767 755.654 646.687 750.836 644.949C754.231 648.34 760.567 654.026 762.31 658.153C761.434 667.18 715.255 657.232 708.086 655.652C707.512 655.877 707.007 656.021 706.509 656.35C704.102 653.976 684.713 648.904 679.357 647.122C687.12 659.221 696.143 673.361 700.818 687.072C701.634 689.465 701.573 690.118 700.479 692.073C698.844 693.21 698.653 693.156 696.595 693.465L696.04 693.543C697.411 700.38 710.166 716.925 707.158 725.47C705.177 731.097 696.328 723.861 693.721 721.804C699.346 739.853 704.673 755.369 702.925 774.738C702.526 779.161 702.715 783.153 700.972 787.36C699.88 789.996 696.629 791.329 694.296 789.894L694.985 789.579L695.166 789.065C693.289 786.44 691.668 783.662 689.996 780.902C693.22 794.774 692.033 811.364 688.515 825.092C687.709 827.721 686.375 833.125 684.153 834.773C679.141 838.494 675.725 827.41 674.143 824.393C672.044 840.487 667.288 856.44 657.986 869.816C656.662 871.72 656.096 872.93 653.744 873.398C651.738 872.862 651.886 871.942 650.193 870.533L649.197 873.345C645.909 882.786 627.177 916.068 617.095 915.313C615.564 914.531 615.061 913.152 614.176 911.599C607.976 919.749 596.122 930.711 586.431 934.657C582.686 936.182 581.822 935.752 578.717 934.386C576.5 934.914 566.16 944.233 561.496 946.624C549.845 952.598 541.33 954.073 529.01 957.51C520.459 959.895 508.079 966.477 497.75 964.593C495.506 964.184 494.389 961.864 493.503 960.016C441.111 973.953 377.438 970.335 325.237 956.945C312.682 953.725 301.279 948.606 288.993 944.8C286.351 943.982 279.047 943.795 275.55 943.297C263.067 941.52 250.898 938.723 239.218 933.855C236.986 932.925 233.654 931.6 232.997 929.055C232.392 926.71 233.479 925.404 234.746 923.62C223.19 920.863 209.725 917.032 200.886 908.54C198.179 905.688 201.997 902.937 198.497 901.118C189.981 896.69 157.83 885.711 175.506 873.544C164.966 868.191 111.158 835.024 136.051 823.382C126.166 812.884 116.57 803.367 107.715 791.862C84.0105 761.004 63.894 726.267 53.2293 688.647C51.5319 682.66 46.3877 668.666 50.0675 663.264C51.1817 661.628 55.2177 661.479 57.2034 661.23C57.4541 659.314 54.7248 653.63 54.0814 651.512C47.7538 630.684 42.5908 608.454 43.9181 586.56C44.0471 584.432 45.1219 580.649 47.0696 579.678C51.6201 577.41 54.1478 581.412 56.0991 584.255C55.7363 553.673 56.7001 529.221 63.9954 499.098C80.8065 431.143 123.669 365.606 183.893 328.683C189.966 324.96 235.539 301.584 238.74 311.138C238.462 313.006 238.094 313.188 236.754 314.699L236.344 315.153C260.344 304.882 286.931 302.97 309.911 316.861C322.98 324.761 315.431 330.784 311.861 340.888C310.799 343.895 312.242 349.232 310.914 353.128C308.827 359.249 304.146 362.288 300.628 367.412C298.736 374.874 299.421 377.254 294.732 384.642C281.907 404.846 261.441 417.252 243.638 432.514C229.79 444.386 217.038 457.02 206.157 471.691C168.331 522.025 157.242 588.512 165.689 649.995C172.595 700.26 193.334 753.864 225.397 793.571C238.781 810.146 253.072 822.586 269.984 835.295C266.287 827.315 262.713 816.506 260.108 808.027C245.71 761.174 237.982 711.424 215.85 667.255C214.344 664.25 212.723 660.866 211.737 657.663C204.65 634.638 218.083 603.388 241.82 596.042C239.333 583.88 236.31 571.834 232.761 559.938C225.634 536.415 214.583 514.117 225.957 489.867C236.609 467.156 264.708 460.287 286.081 471.689C301.121 479.712 315.281 489.658 323.025 505.177C333.711 525.533 340.527 548.417 347.52 570.087C358.751 559.456 365.68 554.693 378.46 545.933C373.938 543.42 358.77 536.548 358.422 531.527C359.714 528.839 367.355 524.735 370.22 522.995C360.967 517.186 351.06 510.54 345.465 500.96C325.207 495.264 306.72 487.11 292.638 470.796C285.023 462.031 281.244 450.577 282.15 439.001C284.564 407.976 326.581 399.995 351.409 402.763C387.326 406.768 417.013 425.004 443.167 449.09C449.572 454.989 455.925 460.223 461.511 466.848C449.504 440.282 435.18 404.214 428.49 376.221C421.232 345.847 419.427 303.469 422.917 272.598C421.874 271.67 420.463 270.635 419.334 269.761L420.231 269.268L422.621 270.771C423.545 269.458 423.984 265.317 424.227 263.434C425.235 255.611 431.827 225.091 437.651 221.528C442.475 221.505 444.406 230.865 445.651 234.682C447.074 226.892 453.781 199.49 460.061 195.105C461.697 194.916 460.979 194.718 462.286 195.723C463.933 198.899 465.492 206.224 466.36 209.982C467.245 202.57 471.295 175.931 479.655 174.165C482.843 175.015 490.359 185.737 493.893 189.126C493.47 186.605 490.171 166.462 497.016 166.353C500.582 166.297 509.456 174.444 513.288 175.917C525.502 181.389 538.731 184.455 551.947 184.681Z"/><path fill="#FFFFFD" d="M436.482 485.504C451.973 480.774 459.225 482.479 475.109 483.903C487.467 505.968 503.852 528.508 520.055 548.028C525.286 554.33 532.971 561.501 538.805 567.638C506.508 545.004 461.806 540.732 427.891 562.734C417.141 569.708 408.334 580.412 405.783 593.194C403.215 606.063 409.793 617.438 416.78 627.703C429.872 646.822 445.631 654.95 468.116 658.916L468.2 659.511C473.369 694.285 500.882 733.125 538.186 736.729C563.472 739.172 583.558 729.282 602.786 713.759C553.353 736.102 510.721 732.76 483.458 680.019C479.959 673.25 477.126 666.363 473.936 659.463C488.804 659.252 505.771 651.925 511.6 637.389C500.444 645.019 485.457 650.94 471.672 649.666C453.833 648.017 446.546 634.101 458.089 619.454C463.519 612.565 468.727 609.077 475.92 604.249C456.881 606.295 444.578 620.002 444.885 639.21C436.237 634.81 426.254 627.96 422.375 618.708C422.743 611.803 424.867 605.107 428.545 599.251C434.713 589.28 441.09 586.532 452.004 583.922C431.71 579.916 422.251 593.923 416.545 610.803C409.254 589.155 418.81 574.552 437.965 564.118C472.401 545.361 513.666 554.881 542.08 580.123C562.592 598.344 573.755 617.699 586.553 641.369C582.999 616.151 569.75 600.328 555.422 581.306C565.615 588.047 575.728 596.778 586.797 603.903C605.933 616.222 623.501 624.726 643.912 634.282C652.819 638.194 659.885 640.364 668.251 643.788C675.117 654.16 684.252 669.61 688.867 681.082C680.964 676.605 675.94 673.315 667.355 670.451C672.71 680.086 676.902 683.826 683.926 692.312C688.878 698.296 694.221 707.735 697.245 714.902C686.41 708.57 678.185 702.264 666.288 697.292L666.634 697.983C670.346 705.316 676.483 711.527 680.926 718.204C691.132 733.544 694.17 756.388 694.856 774.318C689.159 766.05 676.376 748.021 667.857 742.926L667.106 743.101C666.844 745.629 675.031 761.646 676.649 765.846C678.262 770.013 679.574 774.292 680.572 778.647C683.618 792.096 683.12 806.903 681.764 820.558C678.879 812.31 670.807 794.598 664.531 788.533C664.834 795.671 665.643 802.886 665.982 810.068C666.917 829.834 662.16 842.867 654.795 860.568C655.995 847.36 654.803 830.144 649.298 817.989C647.065 854.575 645.774 870.457 622.293 900.973C630.163 883.933 630.038 874.348 629.321 855.9C622.718 877.811 618.209 894.639 601.505 911.453C596.838 916.15 592.689 920.285 587.211 924.198C595.537 911.5 598.783 903.257 598.422 887.73C586.578 911.797 568.963 935.436 542.559 944.471C541.805 944.729 541.048 944.98 540.289 945.226C548.488 936.183 550.756 928.119 553.39 916.383C549.626 920.916 546.456 925.737 542.665 930.149C532.427 942.066 517.947 952.991 502.159 955.694C509.618 948.22 511.188 943.61 515.328 933.81C512.06 937.172 505.802 943.561 501.355 945.438C478.565 955.054 447.932 956.806 423.49 957.468C414.591 957.709 398.602 957.512 390.396 956.465C369.309 956.291 336.888 949.133 316.503 943.143C310.267 942.144 299.487 935.521 293.78 934.997C276.283 933.39 262.768 933.366 245.726 926.676C258.24 926.454 272.611 925.13 284.124 919.873C255.176 918.737 234.827 918.029 207.78 904.065C220.974 904.624 242.162 905.287 254.977 903.053C250.034 901.589 239.053 900.408 233.416 899.55C212.724 896.402 196.472 891.337 178.43 880.394C192.94 880.761 204.645 883.623 220.319 883.6C187.675 870.754 161.566 858.433 137.687 832.195C143.463 833.664 148.282 836.199 153.727 838.571C162.918 842.573 171.332 846.361 180.938 849.245C174.221 843.473 165.742 837.806 159.173 832.086C147.844 822.221 133.709 808.113 124.524 796.161C126.961 796.181 146.523 804.045 151.973 805.416C148.926 796.999 145.715 788.643 142.342 780.352C149.652 787.358 163.863 798.292 172.128 805.041C172.038 796.461 168.824 782.782 166.977 773.883C174.907 781.212 182.923 788.446 191.025 795.584C191.421 788.795 191.374 781.987 190.884 775.203C190.633 771.472 189.809 764.391 190.203 760.972C208.341 792.827 242.045 835.121 276.078 850.332C279.206 857.192 282.704 863.878 286.555 870.36C301.316 894.777 313.737 904.174 341.498 911.077C328.374 901.571 317.7 895.58 307.476 881.603C259.143 815.535 259.393 728.094 221.434 657.083C215.81 646.562 219.535 634.117 223.539 623.728C244.62 624.175 247.214 633.121 259.908 645.156C255.848 628.668 244.311 618.66 227.079 618.445C233.147 611.265 240.474 603.568 250.877 605.144C265.873 607.416 272.463 619.498 280.866 630.08C276.335 613.78 271.455 605.745 254.533 600.516C270.212 597.617 281.039 597.522 290.275 613.165C291.652 615.498 293.007 619.298 294.995 620.973L295.758 620.767C297.454 616.078 294.164 609.514 291.757 605.521L292.773 606.087C307.089 614.105 308.536 619.831 315.544 634.23C329.533 662.972 336.657 693.561 345.268 724.106C336.941 731.765 330.336 740.975 326.547 751.649C344.517 732.868 364.397 719.713 390.104 714.031C459.678 698.653 517.202 744.24 541.325 806.516C539.364 795.822 535.866 785.468 530.942 775.774C515.381 743.955 487.573 719.813 453.884 708.874C428.424 700.469 400.25 700.454 374.619 708.733C367.861 710.916 360.274 714.948 353.842 718.169C342.9 681.437 335.701 657.23 318.703 622.786C322.461 613.164 330.111 603.669 336.759 595.785C355.817 573.178 378.222 552.877 404.609 539.201C412.969 534.868 420.491 532.954 429.55 531.213C430.655 531 431.052 530.314 431.655 529.502L431.135 528.397C427.537 525.723 422.264 524.372 417.909 523.006C431.949 516.633 443.655 519.693 457.869 523.734C451.709 513.825 437.075 508.483 426.825 502.235C442.053 497.168 454.235 499.821 468.858 506.026C460.913 496.246 448.275 489.387 436.482 485.504Z"/><path fill="#CBC3C2" d="M643.912 634.282C652.819 638.194 659.885 640.364 668.251 643.788C675.117 654.16 684.252 669.61 688.867 681.082C680.964 676.605 675.94 673.315 667.355 670.451C672.71 680.086 676.902 683.826 683.926 692.312C688.878 698.296 694.221 707.735 697.245 714.902C686.41 708.57 678.185 702.264 666.288 697.292L666.634 697.983C670.346 705.316 676.483 711.527 680.926 718.204C691.132 733.544 694.17 756.388 694.856 774.318C689.159 766.05 676.376 748.021 667.857 742.926L667.106 743.101C666.844 745.629 675.031 761.646 676.649 765.846C678.262 770.013 679.574 774.292 680.572 778.647C683.618 792.096 683.12 806.903 681.764 820.558C678.879 812.31 670.807 794.598 664.531 788.533C664.834 795.671 665.643 802.886 665.982 810.068C666.917 829.834 662.16 842.867 654.795 860.568C655.995 847.36 654.803 830.144 649.298 817.989C647.065 854.575 645.774 870.457 622.293 900.973C630.163 883.933 630.038 874.348 629.321 855.9C622.718 877.811 618.209 894.639 601.505 911.453C596.838 916.15 592.689 920.285 587.211 924.198C595.537 911.5 598.783 903.257 598.422 887.73C586.578 911.797 568.963 935.436 542.559 944.471C541.805 944.729 541.048 944.98 540.289 945.226C548.488 936.183 550.756 928.119 553.39 916.383C549.626 920.916 546.456 925.737 542.665 930.149C532.427 942.066 517.947 952.991 502.159 955.694C509.618 948.22 511.188 943.61 515.328 933.81C512.06 937.172 505.802 943.561 501.355 945.438C478.565 955.054 447.932 956.806 423.49 957.468C414.591 957.709 398.602 957.512 390.396 956.465C392.561 955.309 396.742 953.733 399.266 952.53C439.353 933.428 472.369 896.45 491.499 856.807C496.71 846.008 499.76 835.76 503.786 824.675C526.165 824.289 553.186 815.664 566.42 796.397C569.845 791.409 569.568 788.991 563.975 786.388C595.182 759.545 625.43 710.593 636.872 671.043C640.617 658.094 641.329 647.143 643.912 634.282Z"/><path fill="#FFFFFD" d="M726.575 77.4435C732.884 77.4646 735.115 77.6722 741.138 79.4247C747.246 94.3214 751.724 110.755 756.318 126.185C763.274 149.549 767.777 173.48 770.813 197.643C771.371 202.089 771.906 207.007 772.775 211.384C769.163 208.11 758.776 198.584 753.873 198.607C750.796 200.468 752.602 204.099 753.915 206.741C757.296 213.545 761.583 220.002 765.261 226.645C759.488 222.253 734.632 204.098 728.399 211.781C728.098 215.482 738.889 224.093 741.833 227.208C747.685 233.401 752.493 239.523 757.58 246.312C751.383 250.978 744.381 254.986 738.292 259.617C724.55 270.222 709.896 284.915 699.774 299.058C672.255 337.51 649.346 381.965 635.338 427.19C627.821 451.459 628.559 486.516 636.612 510.218C638.114 537.192 682.562 581.337 701.997 600.469C706.406 606.493 721.742 616.618 725.057 622.026C732.346 633.916 740.211 641.623 748.549 651.979C738.136 649.376 722.476 646.839 711.384 644.583C709.656 642.231 705.292 637.733 703.186 635.387C698.544 630.241 694.135 624.889 689.974 619.347C681.3 607.637 675.566 596.142 667.832 585.374C672.519 602.649 692.717 630.229 705.244 643.013C697.946 641.293 679.061 635.135 672.421 632.162C666.953 624.471 661.301 610.907 657.478 602.096C655.696 597.989 654.202 593.519 652.023 589.606C654.928 604.032 661.1 618.314 667.733 631.356C654.533 626.006 639.454 619.925 626.772 613.583C589.892 595.139 553.157 568.894 525.328 538.291C461.987 467.539 428.762 374.858 432.727 279.977L432.676 278.276C433.2 275.984 433.271 273.529 433.427 271.183C434.354 257.269 436.453 243.535 438.382 229.727C442.027 241.519 442.715 247.783 452.277 257.373C453.226 256.319 454.842 233.771 455.43 229.748C456.651 221.893 458.337 214.118 460.479 206.462C464.197 223.591 467.839 232.366 478.969 245.7C471.724 227.965 476.246 200.738 479.639 182.1C482.887 190.283 487.161 195.689 494.754 200.315C503.864 205.865 518.658 210.013 529.236 207.542C527.869 207.007 526.516 206.438 525.177 205.837C512.333 199.968 506.252 191.63 501.462 178.931C518.403 195.739 550.606 197.324 572.427 192.212C595.087 186.904 613.876 179.586 637.268 185.951C627.447 179.041 624.569 176.821 613.078 172.901C617.393 170.925 622.04 169.776 626.779 169.515C639.98 168.763 650.211 173.28 659.807 181.858C657.332 170.856 646.593 161.615 638.302 154.566C655.961 159.852 660.801 167.195 674.64 176.366C668.483 160.939 661.239 153.093 653.172 139.334C670.898 150.015 684.609 171.446 692.443 190.189C692.505 180.639 694.016 159.992 694.962 150.178C695.903 157.734 696.819 165.502 698.076 173.002C699.712 182.752 695.759 190.057 694.719 199.993C709.415 177.952 726.332 124.556 727.389 97.5285C727.647 90.9451 726.541 84.7767 725.639 78.3093L726.575 77.4435Z"/><path fill="#4A333B" d="M432.676 278.276C442.052 282.881 466.644 310.952 469.136 321.757C469.479 323.242 470.236 325.546 470.623 327.166C458.624 307.572 450.03 295.549 432.727 279.977L432.676 278.276Z"/><path fill="#4A333B" d="M587.346 218.207C618.682 213.96 643.838 234.256 640.481 266.918C637.564 295.306 614.39 321.901 592.963 339.461C572.074 356.579 534.797 374.501 514.844 345.981C500.302 325.92 493.546 296.543 496.651 272.457C500.808 280.911 504.82 301.208 508.231 312.181C509.398 308.667 510.641 305.614 512.04 302.182C519.473 284.713 535.924 265.622 551.786 255.398C575.294 240.247 608.444 232.416 626.418 259.828C622.759 241.533 610.681 234.744 592.893 233.388C559.685 230.857 532.824 247.186 508.422 267.872C526.98 236.229 550.902 221.698 587.346 218.207Z"/><path fill="#F4C3BA" d="M558.879 262.562C560.555 263.193 560.492 263.08 561.502 264.539C561.331 267.79 554.352 271.556 551.7 273.69C545.423 278.834 539.706 284.624 534.642 290.966C521.982 306.716 514.468 323.896 533.302 339.752C542.771 347.723 557.106 344.685 566.972 339.329C570.629 337.343 577.018 332.822 581.052 332.359C582.772 333.377 582.194 332.696 583.044 334.283C582.364 337.171 578.695 338.959 576.133 340.615C571.395 343.439 566.454 345.906 561.35 347.998C533.966 358.936 520.184 344.972 510.951 320.274C514.954 300.469 539.381 268.496 558.879 262.562Z"/><path fill="#FFFFFD" d="M598.574 274.167C621.503 273.959 616.357 301.739 592.498 307.505C567.95 309.119 574.103 277.101 598.574 274.167Z"/><path fill="#4A333B" d="M536.262 385.908C538.097 385.952 538.773 386.013 539.895 387.375C539.569 389.616 534.235 394.024 532.981 397.043C526.786 411.951 549.328 423.013 560.186 427.654C564.113 423.59 565.194 422.898 570.435 420.728C568.389 414.402 563.352 390.631 570.825 390.276C582.134 389.325 601.398 413.461 602.514 423.236C604.919 444.292 577.72 411.999 564.585 431.169L564.17 431.784C557.459 446.934 573.614 467.946 589.059 469.23C591.565 469.438 593.29 463.616 595.189 461.757L596.07 461.911C600.78 468.666 594.322 475.665 585.81 473.472C568.194 468.932 554.146 450.019 558.491 431.699C544.569 427.068 521.123 413.764 527.268 394.65C528.678 390.261 532.188 387.773 536.262 385.908Z"/><path fill="#4A333B" d="M635.418 212.697C648.524 213.106 661.356 216.558 672.898 222.78C681.223 227.343 696.91 239.193 699.67 248.586C694.792 245.656 688.905 241.454 683.88 238.289C674.75 232.503 665.25 227.321 655.442 222.776C651.388 220.88 637.327 215.107 635.418 212.697Z"/><defs><linearGradient id="gradient_0" gradientUnits="userSpaceOnUse" x1="463.83868" y1="291.97345" x2="474.2879" y2="288.99164"><stop offset="0" stop-color="#2F2420"/><stop offset="1" stop-color="#50383C"/></linearGradient></defs><path fill="url(#gradient_0)" d="M452.928 258.275C455.964 259.939 463.291 269.874 465.321 272.808C474.161 285.585 483.408 306.28 480.366 322.198C478.694 321.758 477.546 313.846 477.2 311.924C472.928 288.181 466.226 277.204 452.928 258.275Z"/><path fill="#CBC3C2" d="M758.81 206.3L759.493 206.837C773.313 217.8 788.56 236.784 796.626 252.395C800.376 259.654 802.736 268.023 806.361 275.353C806.64 275.358 806.918 275.363 807.197 275.367C810.263 270.191 806.01 238.906 804.343 231.956C819.839 260.782 822.945 279.676 825.901 311.625C831.294 302.28 834.455 292.454 839.921 283.552C834.731 302.825 828.626 319.834 840.345 338.27C853.965 359.698 881.539 378.226 900.596 394.502C924.019 414.507 958.78 446.631 974.264 472.646C966.572 484.204 954.675 494.05 943.644 502.401C903.62 532.701 858.727 555.302 812.673 574.717C814.737 560.986 817.256 555.238 820.329 542.739C866.632 531.145 920.126 506.591 955.585 472.23C959.383 468.55 951.362 463.895 949.056 462.169C936.373 453.137 922.383 446.369 907.636 441.413C888.131 434.858 866.71 431.352 846.123 432.245C842.616 432.398 836.751 432.589 834.371 435.36C834.095 436.505 833.694 437.308 834.643 438.413C839.543 444.121 851.447 448.714 857.885 452.149C861.755 454.17 865.459 456.495 868.962 459.101C864.216 458.544 844.117 455.703 840.904 456.726C840.832 457.943 840.753 457.866 841.754 458.818C850.318 466.969 859.708 474.435 866.001 484.665C860.063 482.897 847.162 477.376 841.961 478.34C841.329 479.034 840.972 479.114 841.163 479.894C842.354 484.751 845.121 489.936 846.664 494.858C848.432 500.673 849.57 506.66 850.058 512.718C847.979 511.679 846.819 511.116 844.905 509.74C842.415 507.949 838.482 502.374 835.791 502.263C833.749 504.434 834.111 510.172 832.971 513.848C830.211 522.742 827.311 530.295 821.671 537.846C822.209 534.281 823.704 526.781 822.655 523.771L821.963 523.745C819.503 526.329 817.014 531.78 815.479 535.069C803.029 561.737 795.598 587.344 808.306 615.294C800.013 608.42 793.202 602.308 786.958 593.251C784.847 590.19 782.626 584.86 780.36 582.376C779.262 583.204 778.782 584.731 778.749 586.025C778.354 601.44 784.807 619.392 794.367 630.977C795.667 632.539 796.996 634.077 798.354 635.59C775.079 636.396 773.962 638.479 756.811 622.332C752.11 617.907 735.556 600.964 731.318 598.371C737.553 615.983 755.186 629.429 767.904 642.091C731.744 630.531 708.956 603.99 683.674 577.001C680.134 573.221 676.355 568.681 673.288 564.529C696.276 577.906 704.71 579.533 728.847 565.764C747.42 555.168 760.648 542.655 771.518 523.977C800.263 475.946 774.408 421.777 714.393 439.086C684.507 447.705 658.206 467.906 642.343 495.072C639.567 500.065 637.642 504.61 636.612 510.218C628.559 486.516 627.821 451.459 635.338 427.19C649.346 381.965 672.255 337.51 699.774 299.058C709.896 284.915 724.55 270.222 738.292 259.617C744.381 254.986 751.383 250.978 757.58 246.312C759.533 249.005 760.907 250.547 763.153 253.013C759.486 241.85 755.088 236.444 748.29 226.984C745.334 223.431 740.901 219.115 737.61 215.725C740.108 216.943 742.777 218.477 745.235 219.821C756.568 226.308 763.121 231.618 771.707 241.907C774.473 245.22 779.415 251.859 782.359 254.577C779.406 246.098 775.259 235.346 771.111 227.459C767.428 220.454 762.68 213.299 758.81 206.3Z"/><path fill="#FFFFFD" d="M737.61 215.725C740.108 216.943 742.777 218.477 745.235 219.821C744.227 224.179 747.431 222.893 748.67 226.273L748.29 226.984C745.334 223.431 740.901 219.115 737.61 215.725Z"/><path fill="#4A333B" d="M783.238 386.807C785.085 387.529 786.692 388.336 787.89 389.979C800.477 407.25 805.546 436.382 803.429 456.795C802.738 456.872 803.18 456.887 802.166 456.39C800.352 453.096 795.568 430.294 794.252 424.82C791.831 414.75 783.992 395.831 783.238 386.807Z"/><path fill="#FFFFFD" d="M224.668 318.02C219.889 321.489 205.954 333.606 205.531 339.53L206.127 339.934C209.28 338.399 211.92 336.151 214.863 334.298C240.802 317.97 279.944 309.08 308.882 322.443C301.964 324.875 282.776 331.972 277.233 336.188C286.17 334.584 304.264 329.057 312.518 325.732C306.769 332.785 300.309 339.228 293.24 344.959C289.943 347.646 284.944 351.178 282.064 353.968C291.335 352.361 296.513 350.639 304.56 345.562C297.719 364.833 275.741 373.652 262.115 384.161C272.37 383.433 282.423 379.506 291.103 374.111C280.49 388.394 274.665 394.803 259.861 405.334C236.867 424.079 217.937 438.717 199.287 461.996C187.368 479.492 181.528 488.251 172.725 507.447C166.044 524.056 160.978 536.958 157.138 554.52C154.09 572.633 152.765 585.984 151.935 604.277C151.166 607.616 151.5 617.286 151.551 621.125C146.148 610.362 138.139 597.791 131.665 587.45C127.868 596.262 125.519 609.221 123.638 618.733C116.611 610.661 108.241 591.234 101.033 582.368C98.4622 587.819 96.0052 597.941 94.4806 604.038C89.2587 592.347 82.5583 578.608 76.1909 567.401C74.4036 571.136 72.5677 576.506 71.0793 580.489C70.9025 576.313 71.6443 569.211 66.8854 568.024C66.6506 544.412 69.5992 520.877 75.6516 498.053C77.2277 485.055 93.9378 445.328 101.154 433.91C102.958 429.597 106.894 423.598 109.395 419.508C119.328 403.263 130.457 389.447 143.349 375.458C151.576 364.732 178.209 343.142 189.834 336.07C197.921 330.002 215.28 321.042 224.668 318.02Z"/><path fill="#FFFFFD" d="M75.6516 498.053C77.2277 485.055 93.9378 445.328 101.154 433.91C101.624 437.256 101.509 440.654 101.553 444.031C101.7 455.172 102.15 466.894 103.71 477.924C107.001 470.295 110.571 461.455 115.71 454.947C120.648 468.522 122.351 484.966 126.46 498.988C129.461 488.34 132.671 478.433 139.439 469.395C142.686 479.021 146.921 492.596 151.136 501.559C153.408 496.21 158.434 483.794 162.352 480.208L163.483 479.981C166.12 481.815 169.223 500.968 172.725 507.447C166.044 524.056 160.978 536.958 157.138 554.52C154.09 572.633 152.765 585.984 151.935 604.277C151.166 607.616 151.5 617.286 151.551 621.125C146.148 610.362 138.139 597.791 131.665 587.45C127.868 596.262 125.519 609.221 123.638 618.733C116.611 610.661 108.241 591.234 101.033 582.368C98.4622 587.819 96.0052 597.941 94.4806 604.038C89.2587 592.347 82.5583 578.608 76.1909 567.401C74.4036 571.136 72.5677 576.506 71.0793 580.489C70.9025 576.313 71.6443 569.211 66.8854 568.024C66.6506 544.412 69.5992 520.877 75.6516 498.053Z"/><path fill="#CBC3C2" d="M75.6516 498.053C77.2277 485.055 93.9378 445.328 101.154 433.91C101.624 437.256 101.509 440.654 101.553 444.031C101.7 455.172 102.15 466.894 103.71 477.924C107.001 470.295 110.571 461.455 115.71 454.947C120.648 468.522 122.351 484.966 126.46 498.988C129.461 488.34 132.671 478.433 139.439 469.395C142.686 479.021 146.921 492.596 151.136 501.559C153.408 496.21 158.434 483.794 162.352 480.208L163.483 479.981C166.12 481.815 169.223 500.968 172.725 507.447C166.044 524.056 160.978 536.958 157.138 554.52C155.781 551.052 154.356 539.323 153.786 535.209C148.838 543.073 145.198 552.187 139.899 560.531C137.491 546.579 136.432 531.59 135.868 517.443C133.849 521.599 122.618 549.782 121.604 550.722C117.962 547.942 111.095 514.826 110.1 508.779C107.279 516.271 103.073 531.787 99.6718 537.96C93.8475 521.807 92.1278 509.538 89.6892 492.825C84.6714 502.812 82.0657 510.338 78.2418 520.714C77.4223 513.233 77.0771 505.828 76.3002 498.568L75.6516 498.053Z"/><path fill="#FFFFFD" d="M224.668 318.02C219.889 321.489 205.954 333.606 205.531 339.53L206.127 339.934C209.28 338.399 211.92 336.151 214.863 334.298C240.802 317.97 279.944 309.08 308.882 322.443C301.964 324.875 282.776 331.972 277.233 336.188C286.17 334.584 304.264 329.057 312.518 325.732C306.769 332.785 300.309 339.228 293.24 344.959C289.943 347.646 284.944 351.178 282.064 353.968C291.335 352.361 296.513 350.639 304.56 345.562C297.719 364.833 275.741 373.652 262.115 384.161C272.37 383.433 282.423 379.506 291.103 374.111C280.49 388.394 274.665 394.803 259.861 405.334C247.855 407.211 232.406 408.182 219.775 409.741C226.344 402.395 236.478 395.894 240.911 388.224C232.699 387.538 217.518 388.85 208.901 389.415C213.605 382.464 218.723 374.925 222.06 367.277C214.28 367.391 204.815 367.967 197.298 369.498C200.168 361.86 206.215 350.82 210.109 343.452C201.607 346.986 193.577 353.186 185.085 357.196C186.105 350.039 187.693 342.975 189.834 336.07C197.921 330.002 215.28 321.042 224.668 318.02Z"/><path fill="#CBC3C2" d="M143.349 375.458C151.576 364.732 178.209 343.142 189.834 336.07C187.693 342.975 186.105 350.039 185.085 357.196C193.577 353.186 201.607 346.986 210.109 343.452C206.215 350.82 200.168 361.86 197.298 369.498C204.815 367.967 214.28 367.391 222.06 367.277C218.723 374.925 213.605 382.464 208.901 389.415C217.518 388.85 232.699 387.538 240.911 388.224C236.478 395.894 226.344 402.395 219.775 409.741C232.406 408.182 247.855 407.211 259.861 405.334C236.867 424.079 217.937 438.717 199.287 461.996C198.677 452.217 204.015 440.077 206.597 430.185C199.338 436.666 189.204 446.793 181.695 452.344C181.455 437.004 183.092 427.035 185.86 412.133C176.948 418.626 167.413 427.567 159.483 435.166C157.561 420.004 161.696 403.227 165.309 388.572C158.468 395.062 150.688 401.569 143.643 408.059C143.198 402.795 142.97 397.515 142.96 392.232C142.965 389.651 143.83 377.02 143.349 375.458Z"/><path fill="#FFFFFD" d="M78.0488 627.438C70.5742 608.36 64.1722 588.877 66.8854 568.024C71.6443 569.211 70.9025 576.313 71.0793 580.489C72.5677 576.506 74.4036 571.136 76.1909 567.401C82.5583 578.608 89.2587 592.347 94.4806 604.038C96.0052 597.941 98.4622 587.819 101.033 582.368C108.241 591.234 116.611 610.661 123.638 618.733C125.519 609.221 127.868 596.262 131.665 587.45C138.139 597.791 146.148 610.362 151.551 621.125C151.5 617.286 151.166 607.616 151.935 604.277C151.981 619.987 152.318 633.828 154.296 649.528C155.281 657.35 156.804 664.911 157.808 672.508C160.857 683.772 163.634 696.125 167.407 707.077C171.717 718.952 176.301 730.324 181.207 741.955C182.813 745.766 189.438 758.335 190.203 760.972C189.809 764.391 190.633 771.472 190.884 775.203C191.374 781.987 191.421 788.795 191.025 795.584C182.923 788.446 174.907 781.212 166.977 773.883C168.824 782.782 172.038 796.461 172.128 805.041C163.863 798.292 149.652 787.358 142.342 780.352C145.715 788.643 148.926 796.999 151.973 805.416C146.523 804.045 126.961 796.181 124.524 796.161C122.636 794.708 117.448 788.256 115.733 786.007C101.92 767.891 89.3529 749.738 79.8121 729.053C70.8658 713.745 62.3406 686.806 55.9748 669.872C58.9242 673.584 65.2417 678.73 68.9156 682.168C76.2611 689.041 83.6079 696.467 91.4141 702.779C77.0083 684.524 66.5458 663.479 60.6878 640.974C55.9943 628.563 51.6577 599.962 51.3214 586.817C60.8322 600.094 68.8913 614.901 78.0488 627.438Z"/><path fill="#CBC3C2" d="M78.0488 627.438C70.5742 608.36 64.1722 588.877 66.8854 568.024C71.6443 569.211 70.9025 576.313 71.0793 580.489C72.5677 576.506 74.4036 571.136 76.1909 567.401C82.5583 578.608 89.2587 592.347 94.4806 604.038C96.0052 597.941 98.4622 587.819 101.033 582.368C108.241 591.234 116.611 610.661 123.638 618.733C125.519 609.221 127.868 596.262 131.665 587.45C138.139 597.791 146.148 610.362 151.551 621.125C151.5 617.286 151.166 607.616 151.935 604.277C151.981 619.987 152.318 633.828 154.296 649.528C155.281 657.35 156.804 664.911 157.808 672.508C149.844 664.638 139.97 651.698 132.794 642.766C133.621 654.349 134.649 661.426 134.54 673.346C126.026 663.53 118.804 652.664 113.052 641.013C112.129 649.112 112.227 661.335 112.107 669.763C103.138 656.418 93.9212 643.242 84.4611 630.24C84.5499 639.933 86.1834 653.103 87.1342 662.897C81.2499 658.662 75.5691 654.15 70.1106 649.379C67.5385 647.124 63.1035 642.441 60.6878 640.974C55.9943 628.563 51.6577 599.962 51.3214 586.817C60.8322 600.094 68.8913 614.901 78.0488 627.438Z"/><path fill="#CBC3C2" d="M167.407 707.077C171.717 718.952 176.301 730.324 181.207 741.955C182.813 745.766 189.438 758.335 190.203 760.972C189.809 764.391 190.633 771.472 190.884 775.203C191.374 781.987 191.421 788.795 191.025 795.584C182.923 788.446 174.907 781.212 166.977 773.883C168.824 782.782 172.038 796.461 172.128 805.041C163.863 798.292 149.652 787.358 142.342 780.352C145.715 788.643 148.926 796.999 151.973 805.416C146.523 804.045 126.961 796.181 124.524 796.161C122.636 794.708 117.448 788.256 115.733 786.007C101.92 767.891 89.3529 749.738 79.8121 729.053C91.9401 734.009 114.641 748.465 126.044 756.055C123.627 746.444 121.121 736.856 118.527 727.291C124.82 731.211 139.804 744.793 146.15 750.363C146.111 741.304 145.705 730.092 146.258 721.274C150.745 724.771 159.515 734.813 163.683 739.458C163.818 732.095 163.111 712.447 167.407 707.077Z"/><path fill="#FFFFFD" d="M332.674 411.207C345.242 410.368 356.096 411.994 368.179 415.078C406.864 424.951 433.149 452.175 463.192 476.698C450.128 475.077 439.055 476.956 429.752 486.998C434.195 489.846 438.746 492.084 443.432 494.487C440.671 494.389 436.849 494.12 434.262 494.782C412.163 500.443 425.223 506.435 435.711 512.448C428.776 512.543 412.347 516.515 408.055 522.141C407.312 525.978 413.585 527.236 416.757 528.454C405.41 531.32 399.236 534.681 388.872 539.885C382.514 538.408 376.21 535.583 370.485 532.492C375.575 528.074 381.69 523.436 386.229 518.665C384.929 517.036 376.517 515.967 373.493 514.523C367.143 511.489 362.161 507.375 357.214 502.585C367.622 502.832 377.835 502.332 385.914 495.036C365.668 494.905 344.16 492.467 326.073 482.897C326.494 481.134 326.976 479.388 327.519 477.659C331.291 465.986 340.641 463.844 349.737 459.235C333.988 459.224 321.478 461.657 320.316 480.361C314.123 476.852 302.752 468.966 299.334 462.774C291.212 448.062 310.742 438.52 320.219 433.548C305.658 432.982 299.17 434.234 291.072 447.207C287.099 420.968 311.583 412.854 332.674 411.207Z"/><path fill="#FFFFFD" d="M264.1 474.083C267.083 473.932 270.235 474.562 273.15 475.16C285.846 477.767 289.517 485.413 295.941 495.246C295.307 489.946 294.638 488.467 292.402 483.849C298.291 487.726 306.633 494.242 310.426 500.072C321.067 516.431 337.111 558.16 341.111 576.597C330.433 589.38 322.051 599.672 314.057 614.268C304.439 604.199 297.264 600.054 284.216 595.025C271.447 590.104 263.892 588.418 250.775 592.134L249.092 584.706C246.694 575.382 244.398 567.122 241.566 557.942C234.461 534.915 225.594 519.078 232.805 494.978C247.02 492.744 253.03 492.989 263.8 504.894C265.597 506.88 267.46 510.244 269.643 511.53L270.047 510.999C270.009 509.974 269.967 508.276 269.641 507.337C264.086 491.308 251.803 485.413 235.779 489.968C249.898 469.729 264.319 478.353 278.888 493.209C280.771 495.129 285.233 502.792 286.947 503.61C287.39 502.64 287.475 502.706 286.998 501.319C282.294 487.628 276.15 480.879 264.1 474.083Z"/><path fill="#F4C3BA" d="M853.398 442.144C879.684 440.932 927.446 456.46 949.389 470.573C943.916 475.872 934.028 482.568 927.692 486.898C907.038 501.009 885.71 512.836 862.75 522.826C853.113 526.503 840.521 531.648 830.869 534.284C836.555 524.846 837.336 524.146 839.549 512.976C851.746 523.14 857.522 518.603 855.864 503.929C855.164 497.737 853.975 492.921 852.196 486.953C853.615 487.521 855.05 488.047 856.5 488.53C860.769 489.915 867.064 492.2 871.139 490.128C875.597 483.963 861.337 469.527 857.074 464.865C862.921 465.456 873.077 467.281 877.61 463.199C880.748 455.565 859.213 444.663 853.398 442.144Z"/><path fill="#F4C3BA" d="M629.553 147.785C651.836 122.652 691.091 91.4894 722.434 79.2383C720.869 101.704 712.382 143.038 702.43 162.979C701.009 158.156 696.607 139.594 690.91 139.993C687.098 142.909 688.78 147.032 689.565 151.152C682.916 144.027 677.829 137.966 668.496 134.377C675.141 142.361 678.662 146.252 683.991 155.18L682.508 157.283C677.423 151.219 671.539 145.873 665.017 141.392C661.64 139.104 651.481 132.768 648.544 137.354C649.049 141.477 657.091 153.347 659.779 157.772C655.259 155.688 652.151 154.299 647.226 153.072C641.032 151.529 636.353 151.372 630.577 148.515L629.553 147.785Z"/><path fill="#CBC3C2" d="M730.64 61.7215C736.668 66.0165 738.736 72.5791 741.138 79.4247C735.115 77.6722 732.884 77.4646 726.575 77.4435L727.558 76.7299C726.493 75.8039 725.356 75.5417 724.014 75.067C674.641 88.2738 623.08 139.263 596.669 181.777C585.718 182.969 574.495 184.849 563.527 185.236C568.557 180.08 573.337 174.347 578.07 168.936C610.631 131.712 648.148 98.4961 692.637 76.2836C704.606 70.3079 717.165 63.523 730.64 61.7215Z"/><path fill="#FFFFFD" d="M761.642 462.898C763.488 464.493 765.246 470.629 765.728 472.927C770.006 493.361 760.581 519.577 748.951 536.185C739.483 549.704 725.711 567.496 708.448 570.29C694.755 572.506 687.105 568.377 676.415 561.023C671.253 557.954 668.417 555.698 663.914 551.76C670.772 555.164 679.559 556.348 687.074 554.97C730.008 547.097 768.062 508.147 761.642 462.898Z"/><path fill="#F4C3BA" d="M669.981 476.84C671.453 477.184 670.916 476.772 671.79 477.844C670.545 480.587 665.06 487.412 662.732 490.272C651.854 503.634 648.258 527.217 667.561 535.389C680.43 540.837 698.048 533.158 709.859 527.894C711.952 526.962 715.405 526.119 717.732 527.116C720.076 530.602 713.175 536.141 710.803 538.234C689.483 553.798 662.542 555.222 648.513 529.695C638.07 510.692 648.183 495.546 662.086 482.25C664.598 479.848 666.872 478.383 669.981 476.84Z"/><path fill="#FFFFFD" d="M718.201 454.682C743.295 454.097 729.095 483.033 705.619 487.403C682.131 489.069 692.901 457.846 718.201 454.682Z"/><path fill="#F4C3BA" d="M629.553 147.785L630.577 148.515C630.153 149.403 630.282 149.199 630.157 150.226C632.028 154.31 641.861 164.007 645.506 167.806C643.559 167.269 641.607 166.753 639.649 166.258C629.221 163.656 621.864 162.924 612.543 168.502C617.925 161.364 623.6 154.453 629.553 147.785Z"/><path fill="#FFFFFD" d="M730.501 506.324C731.895 506.97 731.793 506.943 732.774 508.145C734.174 513.713 726.03 520.024 721.888 522.681C720.201 522.52 721.011 522.778 719.5 521.578C717.916 516.498 726.592 508.844 730.501 506.324Z"/><path fill="#FFFFFD" d="M683.991 155.18C685.543 157.956 687.676 161.543 688.81 164.409C686.002 161.71 684.906 160.381 682.508 157.283L683.991 155.18Z"/><path fill="#4A333B" d="M792.372 666.268C799.314 668.057 822.242 692.773 827.551 699.474C851.09 729.186 873.537 771.263 874.889 809.745C872.702 808.311 868.141 792.289 867.045 788.918C852.404 743.887 825.349 700.229 792.372 666.268Z"/><path fill="#4A333B" d="M761.872 671.431C766.723 673.638 777.763 688.176 781.398 692.941C806.767 726.198 827.685 782.557 820.7 824.696L820.361 825.133C819.415 824.263 814.659 787.266 813.447 781.54C806.739 749.855 795.668 720.031 778.011 692.766C773.142 685.247 768.058 677.943 761.872 671.431Z"/><path fill="#4A333B" d="M323.882 124.932C329.483 125.028 339.722 128.547 344.864 130.69C382.013 146.371 411.552 175.964 427.163 213.142C425.484 211.693 421.279 205.643 419.851 203.593C394.253 166.841 363.727 144.314 323.882 124.932Z"/><path fill="#4A333B" d="M282.061 170.755C323.953 166.448 366.527 190.597 395.371 219.277C398.528 222.417 404.821 228.347 406.702 232.092C383.1 210.151 355.435 193.037 325.264 181.716C314.828 177.864 304.101 174.852 293.185 172.708C290.938 172.277 283.023 171.555 282.061 170.755Z"/><path fill="#4A333B" d="M706.509 656.35C707.007 656.021 707.512 655.877 708.086 655.652C723.817 677.11 734.89 701.316 733.85 728.464C732.603 722.433 732.015 716.838 730.45 710.746C725.707 692.281 717.078 672.222 706.509 656.35Z"/><path fill="#2A2929" d="M372.316 244.689C388.333 250.216 407.074 258.421 420.231 269.268L419.334 269.761C404.859 259.334 388.897 251.145 371.985 245.47L372.316 244.689Z"/><path fill="#8B8B8B" d="M361.51 242.018C365.346 242.696 368.661 243.35 372.316 244.689L371.985 245.47C368.539 244.502 364.916 243.186 361.51 242.018Z"/></svg>