<?xml version="1.0" encoding="utf-8" ?><svg xmlns="http://www.w3.org/2000/svg" xmlns:xlink="http://www.w3.org/1999/xlink" width="1024" height="1024" viewBox="0 0 1024 1024"><path fill="#FEFEFE" d="M0 0L1024 0L1024 1024L0 1024L0 0ZM571.166 204.734C567.114 205.871 563.425 205.193 559.031 206.827C528.605 218.142 500.235 236.677 478.554 260.906C478.54 260.931 478.526 260.957 478.512 260.982L469.767 262.804L469.938 262.276C470.97 259.138 475.441 249.728 474.443 247.591C472.542 246.835 472.919 247.12 470.663 247.932C465.028 249.961 453.296 256.867 448.207 258.026L447.652 257.745C446.559 253.341 450.096 252.279 447.269 250.212C439.091 249.946 429.371 261.406 417.833 262.941C414.554 254.36 416.182 255.246 415.907 246.042C408.363 243.39 390.972 264.379 384.483 267.504C382.873 265.233 384.651 265.516 382.654 263.101C379.927 262.807 364.191 275.685 361.134 278.14C359.645 279.342 358.183 280.577 356.75 281.844C351.975 281.321 354.908 271.981 351.259 270.694C346.235 272.699 337.207 282.75 332.998 286.756C331.436 288.244 325.991 296.222 324.57 296.212C323.013 294.743 323.404 294.626 321.713 294.437C317.932 296.356 304.652 317.645 302.365 322.683C300.449 326.905 297.752 334.603 295.81 339.273C288.294 336.491 281.771 335.743 273.845 334.716C243.092 330.721 209.647 331.76 180.632 343.561C171.903 347.111 174.393 352.082 176.018 360.038C184.133 399.768 200.788 444.043 233.516 469.902C238.908 474.163 246.563 476.851 252.07 480.945C251.772 489.473 250.319 494.412 245.625 501.584C243.518 504.803 237.305 510.397 238.392 514.341C242.119 516.275 250.846 509.144 255.455 507.898L258.734 506.996C256.8 515.419 253.686 542.113 261.676 547.197L262.866 547.265C264.427 545.352 264.59 540.676 266.535 536.989C269.558 531.257 271.896 529.815 275.804 525.23C278.869 536.014 285.835 561.912 295.415 567.993L296.393 568C297.56 566.779 297.71 565.388 297.639 563.752C297.081 550.834 294.165 553.97 300.734 542.553C301.843 545.659 304.292 552.132 305.934 554.745C309.075 559.746 325.323 579.796 331.396 578.216C332.976 575.836 331.071 571.473 331.899 567.427L332.471 567.373C335.43 572.827 333.853 581.079 333.893 587.251C333.996 602.946 332.968 642.329 341.312 654.812L341.149 655.754C341.045 656.376 340.94 656.985 340.812 657.603C339.565 663.601 353.144 698.206 356.299 706.04C335.628 712.828 318.169 722.084 302.142 736.81C299.68 739.071 288.467 756.124 287.455 756.046C265.366 754.355 250.42 757.945 229.593 765.179C225.629 763.987 219.325 761.735 215.352 761.716C207.092 761.678 198.554 765.347 190.41 766.132C179.141 767.135 168.069 766.767 156.823 766.39C154.493 766.312 146.078 768.516 143.496 768.944C136.257 770.145 102.616 773.277 97.679 777.678L97.5967 778.648C98.9939 779.703 100.606 779.288 102.41 778.965C113.848 776.915 125.384 776.303 136.801 774.089C139.082 773.646 143.653 774.908 146.185 774.394C149.589 773.917 154.953 771.711 158.228 771.568C167.062 771.18 174.522 774.629 183.733 773.771C188.893 773.29 195.611 773.953 200.815 773.117C204.986 772.409 210.082 769.882 214.228 769.692C220.926 769.384 228.597 772.582 235.321 771.847C250.51 770.188 264.538 766.362 280.042 769.298C282.206 769.708 281.648 767.801 283.238 768.626C283.356 776.562 282.817 784.164 289.046 790.255C296.489 797.533 306.631 796.187 316.028 796.71C334.883 797.76 353.702 796.45 372.564 797.943C372.593 804.21 371.781 813.588 376.643 817.883C387.558 827.525 407.91 829.479 421.994 828.712C424.876 828.555 436.215 828.161 437.99 827.892C452.354 825.712 482.433 822.11 495.009 816.511C506.169 832.285 505.84 827.294 522.474 830.88C544.357 834.54 600.971 832.659 615.028 813.028C624.242 809.229 638.148 813.142 647.845 813.543C658.201 813.97 669.649 811.183 679.928 810.802C691.098 810.389 702.593 813.421 713.827 811.523C728.617 809.392 744.46 808.277 750.835 792.491C765.659 795.459 764.163 786.005 764.031 774.595C770.534 779.155 772.401 779.467 778.61 773.625C778.602 767.901 776.295 756.91 778.065 753.485C780.448 751.946 782.035 753.095 784.367 754.333C788.294 753.126 792.086 751.628 795.997 750.552C798.92 749.749 805.36 752.245 807.794 751.837C817.555 750.203 825.777 746.487 835.997 748.229C842.17 749.281 847.87 752.872 854.161 752.969C862.771 752.732 871.194 749.085 879.669 747.757C883.677 747.129 891.212 748.602 894.968 748.445C899.249 748.267 920.813 748.887 923.041 746.835C923.603 744.92 923.627 745.836 923.037 743.987C920.82 742.044 918.011 742.485 915.251 742.464C907.213 742.415 898.366 741.844 890.415 740.686C877.586 738.817 867.109 743.703 854.128 742.822C843.782 742.12 834.731 740.188 824.647 738.437C821.058 737.814 814.148 741.042 810.351 741.187C804.153 740.721 797.808 740.426 791.544 740.074C784.833 739.697 776.682 744.605 772.977 741.286C771.229 739.721 768.458 736.459 766.261 734.601C770.546 736.08 774.921 736.751 779.226 735.007C782.736 733.585 780.355 727.472 779.649 724.97C776.998 715.572 772.374 702.204 765.83 694.893C765.086 694.068 764.314 693.268 763.518 692.493C784.837 696.786 767.161 675.347 762.444 669.393C757.944 663.714 753.122 659.666 748.466 654.557C749.834 653.931 752.227 653.004 752.612 651.567C755.468 640.886 736.003 625.566 729.549 620.127C733.145 619.386 734.662 618.292 737.83 616.677C750.664 610.138 756.711 597.663 766.02 587.284C775.06 577.204 786.786 569.786 799.382 564.848C801.707 563.911 805.703 562.467 807.072 560.348C804.769 553.561 777.098 567.67 772.401 570.64C757.086 580.322 746.418 601.889 731.8 611.278C720.603 597.445 702.636 587.801 688.441 577.895C681.213 572.851 665.188 559.784 658.626 553.463C663.569 546.973 670.919 542.868 675.698 536.086C688.385 518.083 686.942 495.141 695.925 475.461C697.467 472.082 699.491 468.847 700.758 465.435L700.528 464.34C694.221 460.345 681.517 492.701 680.268 497.579C677.063 510.104 675.999 524.578 666.912 534.76C663.358 538.527 658.162 542.12 653.601 546.991C646.264 540.33 642.491 534.603 636.037 527.642C617.782 507.953 603.3 495.93 578.501 485.842C579.581 483.247 581.776 477.195 583.356 475.283C588 474.289 594.009 486.315 598.508 481.874C603.594 476.855 597.895 459.755 599.15 456.379L600.02 456.301C602.939 458.838 608.559 464.997 611.617 465.195C615.216 463.356 614.443 458.334 614.868 454.73C616.469 441.137 608.981 430.08 605.292 417.918C610.327 418.543 615.697 418.395 620.531 419.543C625.687 420.767 630.542 425.345 635.909 424.911C637.306 423.48 636.777 424.317 637.295 422.165C635.376 414.155 620.935 397.561 614.427 391.619C612.368 389.739 611.283 389.348 608.8 388.207L608.907 387.695C615.895 385.758 636.195 386.123 640.576 383.161C642.116 375.636 614.205 365.669 608.501 362.918C613.265 361.426 617.53 360.233 620.825 356.208C622.917 353.652 627.423 350.541 626.419 347.044C622.829 344.642 620.432 347.236 616.989 347.503C607.982 348.202 600.215 344.115 593.681 338.473C608.021 302.128 603.081 260.957 589.063 225.29C586.854 219.669 578.838 203.162 571.166 204.734ZM808.09 395.054C792.517 398.996 782.766 410.218 773.721 423.25C772.733 424.673 772.188 426.042 772.035 427.755L772.473 428.698C774.086 429.134 774.292 429.09 775.41 427.662C781.095 420.134 796.566 404.208 805.765 400.651C808.928 399.428 812.373 398.979 812.336 396.532C811.053 394.971 810.032 394.846 808.09 395.054ZM836.868 401.172C834.55 401.535 831.981 402.032 829.704 402.53C824.411 403.688 803.644 411.969 804.663 418.773C806.568 420.137 807.607 418.934 809.196 417.723L810.947 416.397C819.013 411.402 828.746 406.633 838.239 405.349C840.526 405.039 844.333 405.096 845.353 403.289C843.202 400.321 840.078 400.671 836.868 401.172ZM773.417 401.985C764.219 404.508 741.591 432.65 749.247 436.274C754.814 428.506 757.641 419.866 765.02 413.011C766.61 411.534 774.525 404.933 774.976 403.981C774.599 402.323 775.032 403.014 773.417 401.985ZM870.231 411.671C864.055 412.575 846.704 414.644 845.693 422.116L846.46 423.062C848.336 423.118 847.848 423.025 849.752 421.921C857.684 417.977 864.008 417.094 872.591 415.667C873.881 415.452 873.887 415.095 874.364 414.139C873.764 412.381 874.243 413.126 872.815 411.858C871.631 411.692 871.394 411.559 870.231 411.671ZM740.958 425.79C732.093 431.485 727.568 440.192 723.29 449.552C721.083 454.378 715.496 468.027 717.762 472.96L719.563 474.507C722.007 471.667 724.163 462.106 725.995 457.761C728.296 452.308 730.432 447.245 733.149 441.898C735 438.255 742.14 430.235 742.283 427.022C741.581 426.03 741.954 426.273 740.958 425.79ZM885.598 432.677C881.234 433.3 874.097 434.179 869.859 435.678C853.122 441.594 834.378 453.231 822.894 466.76C822.071 467.729 821.667 468.538 821.321 469.675L821.706 470.459C823.418 470.502 840.253 462.445 844.609 461.076C849.623 459.214 854.303 457.428 859.473 455.973C861.61 455.372 869.043 453.979 870.232 452.938C870.457 450.651 870.749 451.595 869.796 449.895C865.551 447.795 861.508 451.158 859.177 449.473L859.121 448.625C864.403 446.046 878.349 442.794 884.366 441.428C888.322 440.53 893.716 440.467 897.674 438.93C899.744 438.126 901.243 439.068 903.588 437.929L903.993 437.026C901.993 432.475 899.679 434.175 895.868 433.005C892.561 431.99 888.962 432.372 885.598 432.677ZM712.35 453.706C707.149 461.505 694.353 494.249 701.367 501.128C702.608 501.458 702.231 501.439 703.497 501.429C705.528 484.054 707.021 471.876 715.134 455.71C714.479 454.316 713.991 454.115 712.35 453.706ZM850.604 465.784C836.402 468.397 823.007 472.626 811.214 481.262C807.456 484.014 801.083 487.935 801.933 493.339C804.075 494.546 812.007 489.511 814.351 488.259C828.451 481.047 841.161 473.696 857.009 470.386C859.899 469.783 865.455 469.941 867.853 468.669L868.126 467.379C865.631 464.001 854.664 465.41 850.604 465.784ZM840.841 490.72C821.507 493.265 805.076 500.73 790.224 513.099C784.978 517.469 773.017 526.012 772.225 533.267C773.609 536.636 778.99 533.552 780.967 532.317C798.181 518.615 814.797 506.177 835.983 499.39C839.942 498.122 849.976 496.146 851.242 493.233C849.737 490.337 843.798 490.367 840.841 490.72ZM824.764 522.058C801.759 527.8 784.046 533.739 768.409 552.761C764.631 557.356 756.379 565.164 756.244 571.254C757.015 572.788 756.438 572.321 757.894 572.859L759.795 572.439C765.653 568.004 770.433 562.214 775.514 557.032C785.824 546.517 797.643 539.191 810.511 532.349C814.506 530.224 826.785 527.271 828.626 524.203C828.119 522.521 828.581 523.239 826.992 522.12L824.764 522.058Z"/><path d="M478.512 260.982C478.526 260.957 478.54 260.931 478.554 260.906C500.235 236.677 528.605 218.142 559.031 206.827C563.425 205.193 567.114 205.871 571.166 204.734C578.838 203.162 586.854 219.669 589.063 225.29C603.081 260.957 608.021 302.128 593.681 338.473C600.215 344.115 607.982 348.202 616.989 347.503C620.432 347.236 622.829 344.642 626.419 347.044C627.423 350.541 622.917 353.652 620.825 356.208C617.53 360.233 613.265 361.426 608.501 362.918C614.205 365.669 642.116 375.636 640.576 383.161C636.195 386.123 615.895 385.758 608.907 387.695L608.8 388.207C611.283 389.348 612.368 389.739 614.427 391.619C620.935 397.561 635.376 414.155 637.295 422.165C636.777 424.317 637.306 423.48 635.909 424.911C630.542 425.345 625.687 420.767 620.531 419.543C615.697 418.395 610.327 418.543 605.292 417.918C608.981 430.08 616.469 441.137 614.868 454.73C614.443 458.334 615.216 463.356 611.617 465.195C608.559 464.997 602.939 458.838 600.02 456.301L599.15 456.379C597.895 459.755 603.594 476.855 598.508 481.874C594.009 486.315 588 474.289 583.356 475.283C581.776 477.195 579.581 483.247 578.501 485.842C603.3 495.93 617.782 507.953 636.037 527.642C642.491 534.603 646.264 540.33 653.601 546.991C658.162 542.12 663.358 538.527 666.912 534.76C675.999 524.578 677.063 510.104 680.268 497.579C681.517 492.701 694.221 460.345 700.528 464.34L700.758 465.435C699.491 468.847 697.467 472.082 695.925 475.461C686.942 495.141 688.385 518.083 675.698 536.086C670.919 542.868 663.569 546.973 658.626 553.463C665.188 559.784 681.213 572.851 688.441 577.895C702.636 587.801 720.603 597.445 731.8 611.278C746.418 601.889 757.086 580.322 772.401 570.64C777.098 567.67 804.769 553.561 807.072 560.348C805.703 562.467 801.707 563.911 799.382 564.848C786.786 569.786 775.06 577.204 766.02 587.284C756.711 597.663 750.664 610.138 737.83 616.677C734.662 618.292 733.145 619.386 729.549 620.127C736.003 625.566 755.468 640.886 752.612 651.567C752.227 653.004 749.834 653.931 748.466 654.557C753.122 659.666 757.944 663.714 762.444 669.393C767.161 675.347 784.837 696.786 763.518 692.493C764.314 693.268 765.086 694.068 765.83 694.893C772.374 702.204 776.998 715.572 779.649 724.97C780.355 727.472 782.736 733.585 779.226 735.007C774.921 736.751 770.546 736.08 766.261 734.601C768.458 736.459 771.229 739.721 772.977 741.286C776.682 744.605 784.833 739.697 791.544 740.074C797.808 740.426 804.153 740.721 810.351 741.187C814.148 741.042 821.058 737.814 824.647 738.437C834.731 740.188 843.782 742.12 854.128 742.822C867.109 743.703 877.586 738.817 890.415 740.686C898.366 741.844 907.213 742.415 915.251 742.464C918.011 742.485 920.82 742.044 923.037 743.987C923.627 745.836 923.603 744.92 923.041 746.835C920.813 748.887 899.249 748.267 894.968 748.445C891.212 748.602 883.677 747.129 879.669 747.757C871.194 749.085 862.771 752.732 854.161 752.969C847.87 752.872 842.17 749.281 835.997 748.229C825.777 746.487 817.555 750.203 807.794 751.837C805.36 752.245 798.92 749.749 795.997 750.552C792.086 751.628 788.294 753.126 784.367 754.333C782.035 753.095 780.448 751.946 778.065 753.485C776.295 756.91 778.602 767.901 778.61 773.625C772.401 779.467 770.534 779.155 764.031 774.595C764.163 786.005 765.659 795.459 750.835 792.491C744.46 808.277 728.617 809.392 713.827 811.523C702.593 813.421 691.098 810.389 679.928 810.802C669.649 811.183 658.201 813.97 647.845 813.543C638.148 813.142 624.242 809.229 615.028 813.028C600.971 832.659 544.357 834.54 522.474 830.88C505.84 827.294 506.169 832.285 495.009 816.511C482.433 822.11 452.354 825.712 437.99 827.892C436.215 828.161 424.876 828.555 421.994 828.712C407.91 829.479 387.558 827.525 376.643 817.883C371.781 813.588 372.593 804.21 372.564 797.943C353.702 796.45 334.883 797.76 316.028 796.71C306.631 796.187 296.489 797.533 289.046 790.255C282.817 784.164 283.356 776.562 283.238 768.626C281.648 767.801 282.206 769.708 280.042 769.298C264.538 766.362 250.51 770.188 235.321 771.847C228.597 772.582 220.926 769.384 214.228 769.692C210.082 769.882 204.986 772.409 200.815 773.117C195.611 773.953 188.893 773.29 183.733 773.771C174.522 774.629 167.062 771.18 158.228 771.568C154.953 771.711 149.589 773.917 146.185 774.394C143.653 774.908 139.082 773.646 136.801 774.089C125.384 776.303 113.848 776.915 102.41 778.965C100.606 779.288 98.9939 779.703 97.5967 778.648L97.679 777.678C102.616 773.277 136.257 770.145 143.496 768.944C146.078 768.516 154.493 766.312 156.823 766.39C168.069 766.767 179.141 767.135 190.41 766.132C198.554 765.347 207.092 761.678 215.352 761.716C219.325 761.735 225.629 763.987 229.593 765.179C250.42 757.945 265.366 754.355 287.455 756.046C288.467 756.124 299.68 739.071 302.142 736.81C318.169 722.084 335.628 712.828 356.299 706.04C353.144 698.206 339.565 663.601 340.812 657.603C340.94 656.985 341.045 656.376 341.149 655.754L341.312 654.812C332.968 642.329 333.996 602.946 333.893 587.251C333.853 581.079 335.43 572.827 332.471 567.373L331.899 567.427C331.071 571.473 332.976 575.836 331.396 578.216C325.323 579.796 309.075 559.746 305.934 554.745C304.292 552.132 301.843 545.659 300.734 542.553C294.165 553.97 297.081 550.834 297.639 563.752C297.71 565.388 297.56 566.779 296.393 568L295.415 567.993C285.835 561.912 278.869 536.014 275.804 525.23C271.896 529.815 269.558 531.257 266.535 536.989C264.59 540.676 264.427 545.352 262.866 547.265L261.676 547.197C253.686 542.113 256.8 515.419 258.734 506.996L255.455 507.898C250.846 509.144 242.119 516.275 238.392 514.341C237.305 510.397 243.518 504.803 245.625 501.584C250.319 494.412 251.772 489.473 252.07 480.945C246.563 476.851 238.908 474.163 233.516 469.902C200.788 444.043 184.133 399.768 176.018 360.038C174.393 352.082 171.903 347.111 180.632 343.561C209.647 331.76 243.092 330.721 273.845 334.716C281.771 335.743 288.294 336.491 295.81 339.273C297.752 334.603 300.449 326.905 302.365 322.683C304.652 317.645 317.932 296.356 321.713 294.437C323.404 294.626 323.013 294.743 324.57 296.212C325.991 296.222 331.436 288.244 332.998 286.756C337.207 282.75 346.235 272.699 351.259 270.694C354.908 271.981 351.975 281.321 356.75 281.844C358.183 280.577 359.645 279.342 361.134 278.14C364.191 275.685 379.927 262.807 382.654 263.101C384.651 265.516 382.873 265.233 384.483 267.504C390.972 264.379 408.363 243.39 415.907 246.042C416.182 255.246 414.554 254.36 417.833 262.941C429.371 261.406 439.091 249.946 447.269 250.212C450.096 252.279 446.559 253.341 447.652 257.745L448.207 258.026C453.296 256.867 465.028 249.961 470.663 247.932C472.919 247.12 472.542 246.835 474.443 247.591C475.441 249.728 470.97 259.138 469.938 262.276L469.767 262.804L478.512 260.982ZM568.631 212.56C538.255 220.729 511.322 238.914 489.189 261.168C486.337 264.036 477.274 275.106 473.494 274.551C472.057 272.599 472.481 270.794 472.718 268.312C469.358 267.827 465.643 272.804 462.448 268.024C461.442 266.52 462.169 263.45 462.052 261.465C457.882 257.421 447.889 267.564 443.251 266.074C440.062 263.277 443.042 258.632 439.118 257.952C431.254 260.847 416.724 281.479 410.219 260.689C409.721 259.061 409.249 257.424 408.804 255.781C398.55 260.708 385.573 280.118 375.419 273.694C366.566 278.62 361.099 284.498 353.785 291.245C352.855 292.103 352.051 292.027 350.988 291.983C347.121 289.444 348.696 282.876 346.34 280.849C340.329 285.028 339.814 286.611 335.314 291.64C331.648 295.737 324.979 310.251 322.169 311.244C320.536 310.683 320.396 310.377 319.457 308.5C319.174 307.92 318.899 307.336 318.633 306.747C317.153 307.682 308.786 322.34 307.554 324.913C305.25 329.722 302.985 336.289 300.57 341.357C303.109 342.867 307.775 344.662 306.165 348.012C304.349 349.215 299.559 348.307 297.356 347.85C265.945 341.312 231.995 338.668 200.348 344.81C196.606 345.537 182.126 348.125 182.86 351.877C183.549 355.394 187.071 370.287 188.143 373.991C195.266 398.433 204.669 422.922 220.462 443.176C227.867 452.672 235.241 460.028 244.793 467.368C249.595 471.057 260.503 474.79 259.428 481.222C257.991 489.819 256.521 495.564 251.863 502.907C254.779 501.476 258.889 499.29 261.4 497.281C264.106 495.117 263.168 490.969 267.521 490.171C273.014 492.404 258.327 525.163 263.884 527.798C267.379 525.308 273.879 511.202 279.415 515.523C282.004 523.605 285.867 541.35 291.296 548.019L292.197 548.126C290.755 543.317 300.331 532.667 304.452 532.948C306 535.377 306.13 540.885 307.183 543.313C310.388 550.703 318.665 562.743 325.471 566.766C325.462 563.587 325.905 552.162 327.938 550.159C331.875 550.826 339.496 558.729 346.187 558.097C347.248 556.024 347.41 553.936 348.939 552.953C352.719 553.136 357.674 556.369 361.333 557.009C381.233 560.488 401.536 560.566 421.457 557.304C422.662 557.107 424.119 557.5 425.282 557.988L425.793 558.611C424.48 562.607 417.437 562.556 414.244 563.42C401.999 566.735 391.493 566.488 378.949 566.978C376.193 572.8 374.987 577.791 372.67 583.536C377.093 581.119 390.182 573.299 394.886 574.947C395.884 577.508 393.2 578.797 391.28 579.926C389.302 590.5 391.503 597.843 397.537 606.664C398.05 607.41 398.581 608.145 399.129 608.866C399.876 604.318 403.388 585.245 410.365 586.934C415.014 590.826 419.443 605.876 423.827 611.875C428.424 618.163 432.084 621.567 438.235 626.351C438.364 621.391 437.695 607.907 444.52 608.194C454.575 625.792 457.065 626.261 472.534 639.996C470.35 629.909 470.629 617.134 478.409 609.339C490.814 614.092 497.437 623.066 504.435 634.085C505.503 625.179 510.479 598.406 515.669 592.26C521.182 589.46 526.407 596.615 529.265 600.545C529.27 603.814 529.562 604.725 530.347 607.788C533.231 600.149 533.943 596.247 534.512 588.297C534.975 581.832 530.353 573.267 532.552 569.758C537.96 567.473 542.072 574.532 546.424 577.412C546.043 570.468 545.641 566.838 543.984 560.103C542.714 554.938 538.942 552.145 540.43 548.244C544.81 544.846 556.413 550.454 560.636 553.031C558.634 547.347 558.888 547.362 555.633 542.537C551.982 537.125 544.98 535.659 543.855 531.078L544.301 530.246C555.16 528.639 569.934 555.313 566.282 559.924C563.656 560.587 560.403 558.317 558.186 556.938C553.102 553.775 550.222 552.144 544.15 551.283C549.264 559.932 551.648 578.965 550.418 588.819C549.372 590.11 550.017 589.609 548.295 590.196C546.369 589.666 540.529 579.005 537.86 575.663C541.317 590.73 539.763 603.8 531.748 617.423C530.849 618.952 529.564 620.885 528.11 621.842L527.168 621.879C523.534 618.495 526.868 607.762 524.184 604.09C522.619 601.951 520.587 597.971 518.052 597.257C511.967 601.702 510.866 632.517 511.429 640.433C511.699 644.215 512.911 651.001 507.939 651.52C502.898 649.083 498.514 624.782 481.065 614.89L480.756 615.504C476.438 624.273 477.836 635.45 480.686 644.522C482.05 648.865 484.944 648.916 483.29 652.908C476.994 655.151 455.133 632.169 449.817 627.364C448.401 626.085 444.859 620.344 443.662 618.436C443.261 627.733 445.81 629.651 445.874 635.851C441.072 639.445 419.35 617.197 416.482 611.514C413.104 604.817 411.6 601.834 409.203 594.635C406.908 600.704 406.618 602.008 406.523 608.507C406.433 614.646 413.508 625.399 410.786 629.198C405.601 629.713 396.237 617.989 393.111 614.344C385.548 605.524 383.357 596.011 383.532 584.607C381.027 586.126 379.955 586.852 377.636 588.634C374.271 591.22 370.815 596.594 366.861 597.334C360.279 594.999 370.029 571.84 371.627 566.668C365.424 566.182 359.724 565.179 353.753 563.5C351.308 565.644 350.081 566.274 346.819 566.144L346.306 566.133L343.571 567.728C341.331 581.893 344.864 602.155 345.405 616.66C345.586 621.488 348.005 625.763 346.284 630.927C346.046 631.692 349.307 638.026 349.334 639.278C349.77 641.292 346.957 640.76 348.89 642.592C351.957 645.499 351.142 648.886 352.4 652.696C355.094 660.854 357.36 669.192 360.004 677.381C363.024 686.765 366.293 696.067 369.807 705.278C377.676 725.519 389.517 750.489 387.605 772.761C385.958 791.944 364.394 812.766 396.548 820.007C396.05 815.541 394.082 801.205 400.273 800.276L401.361 800.717C401.458 802.626 401.039 801.295 400.812 802.668C397.325 823.796 409.828 823.391 424.54 821.628C424.357 815.412 423.327 803.714 430.109 800.458L430.866 800.906C431.65 804.462 429.954 808.242 429.542 811.775C429.316 813.711 429.487 816.411 429.677 818.352C446.83 824.762 478.437 809.837 494.897 804.693C496.091 793.751 499.486 779.016 503.271 768.618C505.277 764.27 504.832 761.879 506.609 758.591C476.937 744.564 451.65 728.309 433.236 700.453C431.008 697.083 429.698 694.01 427.743 690.812C427.603 693.541 427.848 700.549 426.569 702.103C420.349 703.192 412.42 681.267 409.295 676.541C408.878 675.91 407.889 671.148 407.661 670.035C406.495 672.737 404.542 679.863 402.768 680.789C398.043 678.211 389.109 632.68 391.569 626.834L392.451 626.267C395.494 627.67 395.846 635.47 396.68 638.766C398.723 646.84 399.793 657.742 403.355 665.224C404.901 662.695 405.984 659.993 408.73 659.283C409.125 659.509 409.519 659.735 409.914 659.962C413.662 668.324 416.641 679.875 422.122 687.182C422.998 684.623 425.185 675.736 428.626 676.986C429.905 679.441 429.769 681.339 430.909 683.252C440.598 699.469 452.793 714.654 467.512 726.575C471.877 730.111 478.522 734.36 483.351 737.323C489.885 741.332 501.115 748.289 508.475 750.221C510.107 739.942 511.875 729.976 512.249 719.528C512.444 714.08 510.286 696.124 514.805 692.559C522.257 692.586 521.69 705.44 521.767 710.506C522.027 727.558 520.038 745.312 514.947 761.716C513.225 767.113 511.303 772.444 509.186 777.698C504.791 788.348 499.574 796.972 500.86 808.897C502.24 821.694 509.963 823.308 520.981 824.936C520.285 818.888 518.833 802.36 522.4 797.342L523.516 796.933L524.454 797.465C525.479 806.38 524.158 815.951 528.327 823.644C537.16 826.258 546.471 826.838 555.56 825.341C553.708 818.737 548.49 804.749 553.812 798.705L554.747 798.589C558.872 802.762 552.444 812.923 561.831 822.456L562.353 822.977C613.388 823.96 610.823 789.48 618.8 751.175C619.201 749.249 621.046 747.117 619.876 744.958C619.717 744.672 619.143 741.951 619.183 741.685C620.152 735.146 619.375 715.118 620.647 710.306C621.923 710.452 621.515 710.37 622.711 710.874C622.402 709.912 620.478 705.744 620.543 705.423C622.507 695.676 621.555 685.408 621.089 675.504C620.976 673.103 619.737 667.53 620.597 665.615C623.575 663.037 625.607 665.688 626.745 664.126C624.589 655.311 616.969 649.062 618.03 643.178C620.648 640.008 622.859 642.112 625.472 643.691C620.804 628.438 612.934 615.844 607.932 600.812C607.544 599.647 607.98 598.312 608.467 597.253L609.525 596.483C616.796 597.673 635.181 640.501 634.462 649.702C634.362 650.981 632.994 652.029 632.107 652.716C631.65 657.522 639.291 671.887 635.79 677.322C634.859 677.506 633.925 677.675 632.989 677.831C632.131 681.116 632.799 690.455 632.489 694.471C630.226 723.84 630.909 753.322 629.314 782.732C629.14 785.931 625.547 796.851 625.94 798.864C629.598 800.109 636.768 800.374 640.719 800.6C639.467 791.275 640.199 784.713 645.995 776.695C646.769 775.625 647.814 774.495 649.069 774.05C649.861 774.67 650.092 774.563 650.024 775.533C649.191 787.464 643.545 787.938 646.607 801.467C653.067 801.116 658.855 802.299 665.418 801.706C669.387 801.347 673.088 801.445 677.144 800.886C677.525 798.967 676.409 796.768 676.18 794.675C675.559 788.983 679.145 776.361 684.667 773.916C686.122 774.237 685.574 773.857 686.402 775.037C683.636 782.482 679.997 790.171 683.467 798.13C704.73 802.662 721.606 796.52 739.733 785.371C742.45 783.7 745.753 780.451 748.269 780.208C752.537 781.828 753.409 785.557 756.96 784.663C759.74 781.291 751.267 761.452 757.656 760.732C759.12 761.485 767.203 767.251 769.974 768.908C771.83 766.028 767.177 754.198 766.066 750.952C763.891 744.597 753.222 731.508 754.546 725.263L755.351 724.471C761.047 724.602 765.442 728.758 774.041 729.303C770.862 720.057 767.046 709.378 761.449 701.371C757.455 695.658 747.048 690.736 746.666 684.568C749.035 679.751 759.51 685.653 762.728 684.546C755.498 670.066 738.344 659.708 727.4 648.311C725.701 646.541 727.356 643.656 729.06 643.53C733.58 643.196 741.444 646.5 745.496 648.373C738.073 638.355 731.015 631.328 721.029 623.896C717.331 621.143 708.229 616.479 708.002 612.004C710.754 608.783 719.298 612.36 723.093 613.549C713.377 604.3 704.44 598.823 693.618 591.14C673.308 576.723 652.79 560.674 636.606 541.675C625.494 528.629 614.753 515.512 600.7 505.495C590.002 497.62 585.287 496.191 574.514 490.692C564.817 501.84 557.566 510.705 546.331 520.921C553.085 521.485 558.534 520.744 565.169 520.679C566.256 520.668 567.197 523.281 566.981 524.667C565.081 526.9 559.107 527.927 556.177 528.249C551.295 528.786 545.279 527.219 540.409 526.566C536.1 525.988 529.982 531.326 525.546 527.246L525.302 526.239C526.326 524.746 531.889 521.297 533.669 520.074C550.965 508.19 565.029 491.329 577.389 474.544C578.753 472.693 580.091 470.663 581.701 468.955C583.725 469.752 591.082 473.12 592.49 473.141C597.328 467.944 587.827 446.563 589.615 442.854C594.794 441.704 604.037 452.57 608.31 455.154C612.66 451.473 603.708 427.316 600.946 422.343C599.844 420.358 597.986 415.829 599.587 413.952C608.509 411.323 617.806 412.581 626.322 415.846C618.833 401.387 614.875 397.447 600.954 389.384C599.523 388.555 599.245 386.8 599.379 385.212C602.294 381.056 623.14 379.205 627.735 380.182C628.753 373.591 596.918 367.47 594.065 362.916C595.026 357.487 611.356 359.037 614.021 354.224C613.014 352.321 584.826 346.348 587.902 336.505C599.371 299.812 593.719 260.25 577.811 225.762C575.802 221.406 573.238 217.231 571.201 212.883C569.922 212.395 570.006 212.438 568.631 212.56ZM333.461 559.744C332.5 562.056 331.493 563.497 332.366 565.718C333.372 563.568 334.646 562.004 333.461 559.744ZM358.233 715.033C354.163 715.693 350.079 718.174 346.27 719.862C330.49 726.857 312.372 738.506 302.051 752.545C296.905 759.544 291.377 771.342 292.972 780.349L293.102 781.044C299.749 789.941 303.294 786.385 312.734 788.809C311.132 782.458 310.258 781.216 311.17 774.457C312.245 766.482 323.944 749.4 333.047 751.31C333.66 752.039 333.8 751.855 333.684 752.651C332.992 757.418 319.941 763.05 319.331 778.875C319.456 785.981 320.016 784.378 323.514 789.548C328.727 789.369 342.61 789.9 346.657 789.395C346.335 787.975 346.214 787.77 345.551 786.459C341.477 778.403 348.274 768.815 352.188 762.002C353.832 759.139 355.773 755.433 359.414 755.75C362.737 758.246 359.323 762.7 357.63 765.422C352.767 773.238 351.43 778.982 352.648 787.967C358.538 788.233 369.64 789.828 374.486 789.046C384.025 766.656 379.893 764.038 371.757 741.377C370.35 737.459 362.013 717.267 360.146 715.595C359.666 715.438 358.68 715.066 358.233 715.033Z"/><path fill="#FEFEFE" d="M408.804 255.781C409.249 257.424 409.721 259.061 410.219 260.689C416.724 281.479 431.254 260.847 439.118 257.952C443.042 258.632 440.062 263.277 443.251 266.074C447.889 267.564 457.882 257.421 462.052 261.465C462.169 263.45 461.442 266.52 462.448 268.024C465.643 272.804 469.358 267.827 472.718 268.312C472.481 270.794 472.057 272.599 473.494 274.551C477.274 275.106 486.337 264.036 489.189 261.168C511.322 238.914 538.255 220.729 568.631 212.56C570.006 212.438 569.922 212.395 571.201 212.883C573.238 217.231 575.802 221.406 577.811 225.762C593.719 260.25 599.371 299.812 587.902 336.505C584.826 346.348 613.014 352.321 614.021 354.224C611.356 359.037 595.026 357.487 594.065 362.916C596.918 367.47 628.753 373.591 627.735 380.182C623.14 379.205 602.294 381.056 599.379 385.212C599.245 386.8 599.523 388.555 600.954 389.384C614.875 397.447 618.833 401.387 626.322 415.846C617.806 412.581 608.509 411.323 599.587 413.952C597.986 415.829 599.844 420.358 600.946 422.343C603.708 427.316 612.66 451.473 608.31 455.154C604.037 452.57 594.794 441.704 589.615 442.854C587.827 446.563 597.328 467.944 592.49 473.141C591.082 473.12 583.725 469.752 581.701 468.955C580.091 470.663 578.753 472.693 577.389 474.544C565.029 491.329 550.965 508.19 533.669 520.074C531.889 521.297 526.326 524.746 525.302 526.239L525.546 527.246C529.982 531.326 536.1 525.988 540.409 526.566C545.279 527.219 551.295 528.786 556.177 528.249C559.107 527.927 565.081 526.9 566.981 524.667C567.197 523.281 566.256 520.668 565.169 520.679C558.534 520.744 553.085 521.485 546.331 520.921C557.566 510.705 564.817 501.84 574.514 490.692C585.287 496.191 590.002 497.62 600.7 505.495C614.753 515.512 625.494 528.629 636.606 541.675C652.79 560.674 673.308 576.723 693.618 591.14C704.44 598.823 713.377 604.3 723.093 613.549C719.298 612.36 710.754 608.783 708.002 612.004C708.229 616.479 717.331 621.143 721.029 623.896C731.015 631.328 738.073 638.355 745.496 648.373C741.444 646.5 733.58 643.196 729.06 643.53C727.356 643.656 725.701 646.541 727.4 648.311C738.344 659.708 755.498 670.066 762.728 684.546C759.51 685.653 749.035 679.751 746.666 684.568C747.048 690.736 757.455 695.658 761.449 701.371C767.046 709.378 770.862 720.057 774.041 729.303C765.442 728.758 761.047 724.602 755.351 724.471L754.546 725.263C753.222 731.508 763.891 744.597 766.066 750.952C767.177 754.198 771.83 766.028 769.974 768.908C767.203 767.251 759.12 761.485 757.656 760.732C751.267 761.452 759.74 781.291 756.96 784.663C753.409 785.557 752.537 781.828 748.269 780.208C745.753 780.451 742.45 783.7 739.733 785.371C721.606 796.52 704.73 802.662 683.467 798.13C679.997 790.171 683.636 782.482 686.402 775.037C685.574 773.857 686.122 774.237 684.667 773.916C679.145 776.361 675.559 788.983 676.18 794.675C676.409 796.768 677.525 798.967 677.144 800.886C673.088 801.445 669.387 801.347 665.418 801.706C658.855 802.299 653.067 801.116 646.607 801.467C643.545 787.938 649.191 787.464 650.024 775.533C650.092 774.563 649.861 774.67 649.069 774.05C647.814 774.495 646.769 775.625 645.995 776.695C640.199 784.713 639.467 791.275 640.719 800.6C636.768 800.374 629.598 800.109 625.94 798.864C625.547 796.851 629.14 785.931 629.314 782.732C630.909 753.322 630.226 723.84 632.489 694.471C632.799 690.455 632.131 681.116 632.989 677.831C633.925 677.675 634.859 677.506 635.79 677.322C639.291 671.887 631.65 657.522 632.107 652.716C632.994 652.029 634.362 650.981 634.462 649.702C635.181 640.501 616.796 597.673 609.525 596.483L608.467 597.253C607.98 598.312 607.544 599.647 607.932 600.812C612.934 615.844 620.804 628.438 625.472 643.691C622.859 642.112 620.648 640.008 618.03 643.178C616.969 649.062 624.589 655.311 626.745 664.126C625.607 665.688 623.575 663.037 620.597 665.615C619.737 667.53 620.976 673.103 621.089 675.504C621.555 685.408 622.507 695.676 620.543 705.423C620.478 705.744 622.402 709.912 622.711 710.874C621.515 710.37 621.923 710.452 620.647 710.306C619.375 715.118 620.152 735.146 619.183 741.685C619.143 741.951 619.717 744.672 619.876 744.958C621.046 747.117 619.201 749.249 618.8 751.175C610.823 789.48 613.388 823.96 562.353 822.977L561.831 822.456C552.444 812.923 558.872 802.762 554.747 798.589L553.812 798.705C548.49 804.749 553.708 818.737 555.56 825.341C546.471 826.838 537.16 826.258 528.327 823.644C524.158 815.951 525.479 806.38 524.454 797.465L523.516 796.933L522.4 797.342C518.833 802.36 520.285 818.888 520.981 824.936C509.963 823.308 502.24 821.694 500.86 808.897C499.574 796.972 504.791 788.348 509.186 777.698C511.303 772.444 513.225 767.113 514.947 761.716C520.038 745.312 522.027 727.558 521.767 710.506C521.69 705.44 522.257 692.586 514.805 692.559C510.286 696.124 512.444 714.08 512.249 719.528C511.875 729.976 510.107 739.942 508.475 750.221C501.115 748.289 489.885 741.332 483.351 737.323C478.522 734.36 471.877 730.111 467.512 726.575C452.793 714.654 440.598 699.469 430.909 683.252C429.769 681.339 429.905 679.441 428.626 676.986C425.185 675.736 422.998 684.623 422.122 687.182C416.641 679.875 413.662 668.324 409.914 659.962C409.519 659.735 409.125 659.509 408.73 659.283C405.984 659.993 404.901 662.695 403.355 665.224C399.793 657.742 398.723 646.84 396.68 638.766C395.846 635.47 395.494 627.67 392.451 626.267L391.569 626.834C389.109 632.68 398.043 678.211 402.768 680.789C404.542 679.863 406.495 672.737 407.661 670.035C407.889 671.148 408.878 675.91 409.295 676.541C412.42 681.267 420.349 703.192 426.569 702.103C427.848 700.549 427.603 693.541 427.743 690.812C429.698 694.01 431.008 697.083 433.236 700.453C451.65 728.309 476.937 744.564 506.609 758.591C504.832 761.879 505.277 764.27 503.271 768.618C499.486 779.016 496.091 793.751 494.897 804.693C478.437 809.837 446.83 824.762 429.677 818.352C429.487 816.411 429.316 813.711 429.542 811.775C429.954 808.242 431.65 804.462 430.866 800.906L430.109 800.458C423.327 803.714 424.357 815.412 424.54 821.628C409.828 823.391 397.325 823.796 400.812 802.668C401.039 801.295 401.458 802.626 401.361 800.717L400.273 800.276C394.082 801.205 396.05 815.541 396.548 820.007C364.394 812.766 385.958 791.944 387.605 772.761C389.517 750.489 377.676 725.519 369.807 705.278C366.293 696.067 363.024 686.765 360.004 677.381C357.36 669.192 355.094 660.854 352.4 652.696C351.142 648.886 351.957 645.499 348.89 642.592C346.957 640.76 349.77 641.292 349.334 639.278C349.307 638.026 346.046 631.692 346.284 630.927C348.005 625.763 345.586 621.488 345.405 616.66C344.864 602.155 341.331 581.893 343.571 567.728L346.306 566.133L346.819 566.144C350.081 566.274 351.308 565.644 353.753 563.5C359.724 565.179 365.424 566.182 371.627 566.668C370.029 571.84 360.279 594.999 366.861 597.334C370.815 596.594 374.271 591.22 377.636 588.634C379.955 586.852 381.027 586.126 383.532 584.607C383.357 596.011 385.548 605.524 393.111 614.344C396.237 617.989 405.601 629.713 410.786 629.198C413.508 625.399 406.433 614.646 406.523 608.507C406.618 602.008 406.908 600.704 409.203 594.635C411.6 601.834 413.104 604.817 416.482 611.514C419.35 617.197 441.072 639.445 445.874 635.851C445.81 629.651 443.261 627.733 443.662 618.436C444.859 620.344 448.401 626.085 449.817 627.364C455.133 632.169 476.994 655.151 483.29 652.908C484.944 648.916 482.05 648.865 480.686 644.522C477.836 635.45 476.438 624.273 480.756 615.504L481.065 614.89C498.514 624.782 502.898 649.083 507.939 651.52C512.911 651.001 511.699 644.215 511.429 640.433C510.866 632.517 511.967 601.702 518.052 597.257C520.587 597.971 522.619 601.951 524.184 604.09C526.868 607.762 523.534 618.495 527.168 621.879L528.11 621.842C529.564 620.885 530.849 618.952 531.748 617.423C539.763 603.8 541.317 590.73 537.86 575.663C540.529 579.005 546.369 589.666 548.295 590.196C550.017 589.609 549.372 590.11 550.418 588.819C551.648 578.965 549.264 559.932 544.15 551.283C550.222 552.144 553.102 553.775 558.186 556.938C560.403 558.317 563.656 560.587 566.282 559.924C569.934 555.313 555.16 528.639 544.301 530.246L543.855 531.078C544.98 535.659 551.982 537.125 555.633 542.537C558.888 547.362 558.634 547.347 560.636 553.031C556.413 550.454 544.81 544.846 540.43 548.244C538.942 552.145 542.714 554.938 543.984 560.103C545.641 566.838 546.043 570.468 546.424 577.412C542.072 574.532 537.96 567.473 532.552 569.758C530.353 573.267 534.975 581.832 534.512 588.297C533.943 596.247 533.231 600.149 530.347 607.788C529.562 604.725 529.27 603.814 529.265 600.545C526.407 596.615 521.182 589.46 515.669 592.26C510.479 598.406 505.503 625.179 504.435 634.085C497.437 623.066 490.814 614.092 478.409 609.339C470.629 617.134 470.35 629.909 472.534 639.996C457.065 626.261 454.575 625.792 444.52 608.194C437.695 607.907 438.364 621.391 438.235 626.351C432.084 621.567 428.424 618.163 423.827 611.875C419.443 605.876 415.014 590.826 410.365 586.934C403.388 585.245 399.876 604.318 399.129 608.866C398.581 608.145 398.05 607.41 397.537 606.664C391.503 597.843 389.302 590.5 391.28 579.926C393.2 578.797 395.884 577.508 394.886 574.947C390.182 573.299 377.093 581.119 372.67 583.536C374.987 577.791 376.193 572.8 378.949 566.978C391.493 566.488 401.999 566.735 414.244 563.42C417.437 562.556 424.48 562.607 425.793 558.611L425.282 557.988C424.119 557.5 422.662 557.107 421.457 557.304C401.536 560.566 381.233 560.488 361.333 557.009C357.674 556.369 352.719 553.136 348.939 552.953C347.41 553.936 347.248 556.024 346.187 558.097C339.496 558.729 331.875 550.826 327.938 550.159C325.905 552.162 325.462 563.587 325.471 566.766C318.665 562.743 310.388 550.703 307.183 543.313C306.13 540.885 306 535.377 304.452 532.948C300.331 532.667 290.755 543.317 292.197 548.126L291.296 548.019C285.867 541.35 282.004 523.605 279.415 515.523C273.879 511.202 267.379 525.308 263.884 527.798C258.327 525.163 273.014 492.404 267.521 490.171C263.168 490.969 264.106 495.117 261.4 497.281C258.889 499.29 254.779 501.476 251.863 502.907C256.521 495.564 257.991 489.819 259.428 481.222C260.503 474.79 249.595 471.057 244.793 467.368C235.241 460.028 227.867 452.672 220.462 443.176C204.669 422.922 195.266 398.433 188.143 373.991C187.071 370.287 183.549 355.394 182.86 351.877C182.126 348.125 196.606 345.537 200.348 344.81C231.995 338.668 265.945 341.312 297.356 347.85C299.559 348.307 304.349 349.215 306.165 348.012C307.775 344.662 303.109 342.867 300.57 341.357C302.985 336.289 305.25 329.722 307.554 324.913C308.786 322.34 317.153 307.682 318.633 306.747C318.899 307.336 319.174 307.92 319.457 308.5C320.396 310.377 320.536 310.683 322.169 311.244C324.979 310.251 331.648 295.737 335.314 291.64C339.814 286.611 340.329 285.028 346.34 280.849C348.696 282.876 347.121 289.444 350.988 291.983C352.051 292.027 352.855 292.103 353.785 291.245C361.099 284.498 366.566 278.62 375.419 273.694C385.573 280.118 398.55 260.708 408.804 255.781ZM562.33 234.631C545.024 237.536 528.96 268.561 528.091 284.953C528.053 285.663 528.754 286.49 529.197 287.001C531.586 287.5 531.897 287.003 534.121 285.559C533.952 287.701 532.421 288.879 532.187 291.75C535.063 297.638 541.13 288.203 542.852 286.161C543.719 287.178 543.344 286.762 543.608 288.427L544.785 288.017L545.008 288.436C542.885 291.034 541.308 292.382 540.973 295.763C542.361 299.468 543.82 299.484 546.872 297.884C549.95 298.925 552.851 300.168 555.85 301.413C538.757 309.8 550.268 311.172 559.082 320.134C560.741 321.74 562.94 323.742 565.096 321.703C565 318.823 561.841 315.635 559.79 313.72C557.961 312.03 556.111 310.364 554.24 308.72C558.424 307.771 567.679 307.051 567.385 301.654C564.685 297.184 557.928 295.555 553.515 293.509C549.319 291.563 557.452 288.402 556.805 283.526C554.79 280.141 547.027 285.58 542.802 284.129C542.789 280.566 547.36 278.412 548.205 275.068C546.096 273.366 544.168 276.725 541.468 276.453C535.324 269.355 559.411 242.304 564.637 236.389C565.349 235.583 565.154 235.48 564.806 234.666C563.371 234.492 563.724 234.446 562.33 234.631ZM477.403 307.671C464.683 309.49 460.223 311.982 451.65 322.313C451.031 323.058 450.812 323.636 450.51 324.539L450.823 325.163C454.121 325.412 464.212 318.894 468.867 316.798C480.474 311.517 495.276 319.149 498.742 316.451C499.632 310.133 481.76 307.677 477.403 307.671ZM481.117 334.457C480.448 338.795 480.045 340.871 481.193 345.242C479.243 345.85 473.327 347.356 471.863 348.106C462.828 352.734 455.083 360.902 450.243 369.758C437.082 393.836 445.722 433.673 471.021 446.704C483.938 453.23 498.894 454.446 512.696 450.094C525.212 446.026 529.177 442.28 538.426 433.48C540.068 433.768 545.797 434.238 546.584 434.49C550.386 435.712 556.558 442.424 560.643 440.272C561.271 439.061 561.441 438.151 561.081 436.744C560.279 435.329 559.305 433.713 558.569 432.292C556.782 431.241 554.832 430.025 552.846 429.406C550.671 428.728 545.637 428.729 543.827 427.872C544.395 426.291 547.377 421.769 548.971 420.755C553.604 421.188 558.046 421.955 562.583 422.989C565.353 423.621 568.303 425.977 570.932 424.806C571.587 423.448 571.534 422.196 571.059 420.65C569.925 416.957 566.843 416.416 563.725 415.388C561.452 414.64 554.809 414.449 553.886 412.915L555.278 408.733L555.876 408.511C564.908 405.256 573.195 409.722 576.179 406.473C576.026 399.349 564.227 400.942 559.865 398.288C559.301 397.945 559.387 386.987 559.381 385.744C560.643 384.588 562.007 383.567 561.841 381.735C561.33 376.108 552.517 365.311 548.736 361.629C536.481 349.698 516.669 344.48 500.02 344.262C495.739 344.206 491.024 345.491 486.699 345.18C486.44 341.112 486.908 337.532 484.13 334.851C482.648 334.38 482.69 334.431 481.117 334.457ZM203.852 366.535C203.541 368.251 203.355 368.59 204.033 370.219C205.358 371.177 212.459 373.831 214.514 374.748C225.543 379.665 243.343 386.85 252.514 394.532C248.31 394.131 236.382 395.661 235.872 400.458C237.813 405.266 248.003 407.665 246.72 411.072C245.796 413.522 230.129 420.767 229.006 422.405C230.163 426.767 238.258 426.416 240.178 428.646C239.492 433.074 236.952 438.746 238.392 442.092C241.133 443.748 244.784 441.056 247.573 439.676L252.663 442.308C252.015 446.314 250.344 457.41 255.377 459.054C257.844 457.636 258.552 454.152 258.83 451.457C258.897 447.681 259.109 441.976 258.596 438.303L258.121 437.868C254.402 434.526 251.813 433.314 246.994 434.904L246.142 434.414L246.119 433.522C248.363 432.145 249.211 432.195 250.381 430.227C250.081 428.563 250.132 428.633 249.306 427.171C251.266 425.896 254.216 424.377 255.337 422.537C255.063 417.796 246.344 420.511 243.306 421.357C246.603 419.09 257.225 413.914 258.158 410.458C259.299 406.231 250.328 403.467 247.657 400.981C249.887 397.617 262.301 400.911 264.987 398.175C265.154 396.483 264.752 394.74 263.344 393.387C248.282 378.912 227.944 370.752 207.763 366.495C207.04 366.342 204.643 366.501 203.852 366.535ZM316.057 369.62C303.594 371.991 295.009 380.55 290.083 391.929C288.531 395.515 287.492 398.263 287.891 402.271L288.615 403.345C291.157 403.49 291.859 401.516 293.001 399.492C297.136 388.792 302.579 380.563 313.426 375.188C318.326 372.76 323.806 374.653 325.471 371.616C323.745 369.48 318.64 369.434 316.057 369.62ZM338.191 404.637C329.774 406.057 327.172 407.619 319.908 412.219C318.363 409.617 315.112 403.157 311.303 405.502C310.059 409.24 314.201 415.73 313.755 417.185C312.981 419.709 307.308 424.763 305.739 427.622C296.731 443.752 296.249 463.284 304.452 479.838C314.926 500.646 334.113 509.049 356.377 510.203C364.763 510.666 377.988 507.37 383.825 501.412C406.376 478.39 412.776 445.924 388.938 421.197C374.133 405.839 367.52 405.605 346.457 404.414C343.867 404.239 340.733 404.323 338.191 404.637ZM444.256 457.175C438.101 457.79 431.515 459.125 427.159 464.103C422.731 469.162 420.434 475.564 427.427 479.609C432.825 482.732 438.44 484.252 444.572 485.209C444.683 485.226 445.342 486.989 445.379 487.224C446.093 491.658 444.309 499.147 441.712 502.731C439.212 506.181 436.437 508.607 432.211 509.26C427.6 509.973 424.163 509.551 419.844 508.132C415.981 506.863 410.125 499.532 407.088 503.041C407.347 506.874 415.846 514.553 419.388 515.67C436.438 521.049 445.067 516.943 450.605 499.867C451.397 495.668 451.907 494.787 451.122 490.638C459.484 495.019 468.255 498.519 477.949 495.732C487.323 493.038 503.045 475.82 497.502 465.845L496.565 465.494C493.613 466.929 489.74 477.554 486.887 480.815C479.146 489.663 457.916 491.216 452.401 480.72C450.286 476.693 471.82 454.602 444.256 457.175Z"/><path d="M555.85 301.413C552.851 300.168 549.95 298.925 546.872 297.884C543.82 299.484 542.361 299.468 540.973 295.763C541.308 292.382 542.885 291.034 545.008 288.436L544.785 288.017L543.608 288.427C543.344 286.762 543.719 287.178 542.852 286.161C541.13 288.203 535.063 297.638 532.187 291.75C532.421 288.879 533.952 287.701 534.121 285.559C531.897 287.003 531.586 287.5 529.197 287.001C528.754 286.49 528.053 285.663 528.091 284.953C528.96 268.561 545.024 237.536 562.33 234.631C563.724 234.446 563.371 234.492 564.806 234.666C565.154 235.48 565.349 235.583 564.637 236.389C559.411 242.304 535.324 269.355 541.468 276.453C544.168 276.725 546.096 273.366 548.205 275.068C547.36 278.412 542.789 280.566 542.802 284.129C547.027 285.58 554.79 280.141 556.805 283.526C557.452 288.402 549.319 291.563 553.515 293.509C557.928 295.555 564.685 297.184 567.385 301.654C567.679 307.051 558.424 307.771 554.24 308.72C556.111 310.364 557.961 312.03 559.79 313.72C561.841 315.635 565 318.823 565.096 321.703C562.94 323.742 560.741 321.74 559.082 320.134C550.268 311.172 538.757 309.8 555.85 301.413Z"/><path d="M468.867 316.798C464.212 318.894 454.121 325.412 450.823 325.163L450.51 324.539C450.812 323.636 451.031 323.058 451.65 322.313C460.223 311.982 464.683 309.49 477.403 307.671C481.76 307.677 499.632 310.133 498.742 316.451C495.276 319.149 480.474 311.517 468.867 316.798Z"/><path d="M481.193 345.242C480.045 340.871 480.448 338.795 481.117 334.457C482.69 334.431 482.648 334.38 484.13 334.851C486.908 337.532 486.44 341.112 486.699 345.18C491.024 345.491 495.739 344.206 500.02 344.262C516.669 344.48 536.481 349.698 548.736 361.629C552.517 365.311 561.33 376.108 561.841 381.735C562.007 383.567 560.643 384.588 559.381 385.744C559.387 386.987 559.301 397.945 559.865 398.288C564.227 400.942 576.026 399.349 576.179 406.473C573.195 409.722 564.908 405.256 555.876 408.511L555.278 408.733L553.886 412.915C554.809 414.449 561.452 414.64 563.725 415.388C566.843 416.416 569.925 416.957 571.059 420.65C571.534 422.196 571.587 423.448 570.932 424.806C568.303 425.977 565.353 423.621 562.583 422.989C558.046 421.955 553.604 421.188 548.971 420.755C547.377 421.769 544.395 426.291 543.827 427.872C545.637 428.729 550.671 428.728 552.846 429.406C554.832 430.025 556.782 431.241 558.569 432.292C559.305 433.713 560.279 435.329 561.081 436.744C561.441 438.151 561.271 439.061 560.643 440.272C556.558 442.424 550.386 435.712 546.584 434.49C545.797 434.238 540.068 433.768 538.426 433.48C529.177 442.28 525.212 446.026 512.696 450.094C498.894 454.446 483.938 453.23 471.021 446.704C445.722 433.673 437.082 393.836 450.243 369.758C455.083 360.902 462.828 352.734 471.863 348.106C473.327 347.356 479.243 345.85 481.193 345.242ZM518.605 355.383C521.709 358.461 527.465 363.062 529.863 366.353C548.289 391.639 540.075 435.261 503.218 435.406C491.012 435.454 482.951 429.422 474.458 421.291C467.776 424.47 466.624 424.691 459.32 425.242C463.55 431.08 465.704 433.256 471.761 437.335C481.907 444.398 492.582 448.507 504.879 446.143C524.276 442.414 532.083 433.707 543.851 419.274C543.845 417.881 543.715 417.81 543.217 416.477C543.863 413.777 544.393 414.606 545.664 413.063C550.864 406.749 551.759 396.122 553.238 388.389C555.832 374.821 530.937 354.766 518.605 355.383ZM466.103 367.511C461.23 369.823 457.116 372.182 455.324 377.725C453.177 384.367 455.772 387.753 458.059 393.13C464.544 396.368 465.124 396.654 472.226 396.186C476.348 391.415 483.709 389.496 483.912 381.015C484.108 372.852 474.505 367.291 467.367 367.454C466.946 367.465 466.524 367.484 466.103 367.511ZM485.322 386.922C483.397 388.664 482.482 390.437 482.39 393.13C482.335 394.696 482.983 396.205 484.156 397.243C485.886 398.794 488.528 398.637 490.711 398.543C497.432 391.839 493.62 387.234 485.322 386.922Z"/><path fill="#FEFEFE" d="M474.458 421.291C482.951 429.422 491.012 435.454 503.218 435.406C540.075 435.261 548.289 391.639 529.863 366.353C527.465 363.062 521.709 358.461 518.605 355.383C530.937 354.766 555.832 374.821 553.238 388.389C551.759 396.122 550.864 406.749 545.664 413.063C544.393 414.606 543.863 413.777 543.217 416.477C543.715 417.81 543.845 417.881 543.851 419.274C532.083 433.707 524.276 442.414 504.879 446.143C492.582 448.507 481.907 444.398 471.761 437.335C465.704 433.256 463.55 431.08 459.32 425.242C466.624 424.691 467.776 424.47 474.458 421.291Z"/><path d="M252.514 394.532C243.343 386.85 225.543 379.665 214.514 374.748C212.459 373.831 205.358 371.177 204.033 370.219C203.355 368.59 203.541 368.251 203.852 366.535C204.643 366.501 207.04 366.342 207.763 366.495C227.944 370.752 248.282 378.912 263.344 393.387C264.752 394.74 265.154 396.483 264.987 398.175C262.301 400.911 249.887 397.617 247.657 400.981C250.328 403.467 259.299 406.231 258.158 410.458C257.225 413.914 246.603 419.09 243.306 421.357C246.344 420.511 255.063 417.796 255.337 422.537C254.216 424.377 251.266 425.896 249.306 427.171C250.132 428.633 250.081 428.563 250.381 430.227C249.211 432.195 248.363 432.145 246.119 433.522L246.142 434.414L246.994 434.904C251.813 433.314 254.402 434.526 258.121 437.868L258.596 438.303C259.109 441.976 258.897 447.681 258.83 451.457C258.552 454.152 257.844 457.636 255.377 459.054C250.344 457.41 252.015 446.314 252.663 442.308L247.573 439.676C244.784 441.056 241.133 443.748 238.392 442.092C236.952 438.746 239.492 433.074 240.178 428.646C238.258 426.416 230.163 426.767 229.006 422.405C230.129 420.767 245.796 413.522 246.72 411.072C248.003 407.665 237.813 405.266 235.872 400.458C236.382 395.661 248.31 394.131 252.514 394.532Z"/><path fill="#FEFEFE" d="M458.059 393.13C455.772 387.753 453.177 384.367 455.324 377.725C457.116 372.182 461.23 369.823 466.103 367.511C466.524 367.484 466.946 367.465 467.367 367.454C474.505 367.291 484.108 372.852 483.912 381.015C483.709 389.496 476.348 391.415 472.226 396.186C465.124 396.654 464.544 396.368 458.059 393.13Z"/><path d="M293.001 399.492C291.859 401.516 291.157 403.49 288.615 403.345L287.891 402.271C287.492 398.263 288.531 395.515 290.083 391.929C295.009 380.55 303.594 371.991 316.057 369.62C318.64 369.434 323.745 369.48 325.471 371.616C323.806 374.653 318.326 372.76 313.426 375.188C302.579 380.563 297.136 388.792 293.001 399.492Z"/><path fill="#FEFEFE" d="M490.711 398.543C488.528 398.637 485.886 398.794 484.156 397.243C482.983 396.205 482.335 394.696 482.39 393.13C482.482 390.437 483.397 388.664 485.322 386.922C493.62 387.234 497.432 391.839 490.711 398.543Z"/><path d="M775.41 427.662C774.292 429.09 774.086 429.134 772.473 428.698L772.035 427.755C772.188 426.042 772.733 424.673 773.721 423.25C782.766 410.218 792.517 398.996 808.09 395.054C810.032 394.846 811.053 394.971 812.336 396.532C812.373 398.979 808.928 399.428 805.765 400.651C796.566 404.208 781.095 420.134 775.41 427.662Z"/><path d="M810.947 416.397L809.196 417.723C807.607 418.934 806.568 420.137 804.663 418.773C803.644 411.969 824.411 403.688 829.704 402.53C831.981 402.032 834.55 401.535 836.868 401.172C840.078 400.671 843.202 400.321 845.353 403.289C844.333 405.096 840.526 405.039 838.239 405.349C828.746 406.633 819.013 411.402 810.947 416.397Z"/><path d="M749.247 436.274C741.591 432.65 764.219 404.508 773.417 401.985C775.032 403.014 774.599 402.323 774.976 403.981C774.525 404.933 766.61 411.534 765.02 413.011C757.641 419.866 754.814 428.506 749.247 436.274Z"/><path d="M319.908 412.219C327.172 407.619 329.774 406.057 338.191 404.637C340.733 404.323 343.867 404.239 346.457 404.414C367.52 405.605 374.133 405.839 388.938 421.197C412.776 445.924 406.376 478.39 383.825 501.412C377.988 507.37 364.763 510.666 356.377 510.203C334.113 509.049 314.926 500.646 304.452 479.838C296.249 463.284 296.731 443.752 305.739 427.622C307.308 424.763 312.981 419.709 313.755 417.185C314.201 415.73 310.059 409.24 311.303 405.502C315.112 403.157 318.363 409.617 319.908 412.219ZM328.112 426.086C310.914 431.682 314.376 454.808 333.44 451.317C341.168 450.025 344.97 442.067 344.232 434.74C341.801 431.454 340.005 429.316 336.767 426.692C333.871 426.364 331.006 425.908 328.112 426.086ZM308.848 441.91C304.839 450.944 306.294 464.213 309.652 473.245C313.954 484.815 323.747 493.283 334.885 498.068C350.83 504.919 364.857 504.612 380.791 498.172C388.778 494.944 392.463 486.914 395.951 479.491C396.883 477.508 397.798 474.755 398.516 472.677C399.323 469.615 400.34 466.161 400.798 463.079C398.881 461.893 396.438 460.476 394.661 459.166C392.843 469.459 389.695 481.763 380.446 487.174C358.616 499.946 330.288 486.913 318.089 466.663C313.616 459.238 311.449 454.837 310.054 446.292C309.895 445.425 309.399 442.5 308.848 441.91ZM347.71 447.466C346.101 448.168 344.995 449.684 344.818 451.431C344.64 453.178 345.418 454.885 346.853 455.897C348.288 456.909 350.157 457.069 351.743 456.316C354.142 455.176 355.182 452.323 354.081 449.907C352.98 447.49 350.144 446.404 347.71 447.466Z"/><path d="M849.752 421.921C847.848 423.025 848.336 423.118 846.46 423.062L845.693 422.116C846.704 414.644 864.055 412.575 870.231 411.671C871.394 411.559 871.631 411.692 872.815 411.858C874.243 413.126 873.764 412.381 874.364 414.139C873.887 415.095 873.881 415.452 872.591 415.667C864.008 417.094 857.684 417.977 849.752 421.921Z"/><path fill="#FEFEFE" d="M333.44 451.317C314.376 454.808 310.914 431.682 328.112 426.086C331.006 425.908 333.871 426.364 336.767 426.692C340.005 429.316 341.801 431.454 344.232 434.74C344.97 442.067 341.168 450.025 333.44 451.317Z"/><path d="M719.563 474.507L717.762 472.96C715.496 468.027 721.083 454.378 723.29 449.552C727.568 440.192 732.093 431.485 740.958 425.79C741.954 426.273 741.581 426.03 742.283 427.022C742.14 430.235 735 438.255 733.149 441.898C730.432 447.245 728.296 452.308 725.995 457.761C724.163 462.106 722.007 471.667 719.563 474.507Z"/><path d="M844.609 461.076C840.253 462.445 823.418 470.502 821.706 470.459L821.321 469.675C821.667 468.538 822.071 467.729 822.894 466.76C834.378 453.231 853.122 441.594 869.859 435.678C874.097 434.179 881.234 433.3 885.598 432.677C888.962 432.372 892.561 431.99 895.868 433.005C899.679 434.175 901.993 432.475 903.993 437.026L903.588 437.929C901.243 439.068 899.744 438.126 897.674 438.93C893.716 440.467 888.322 440.53 884.366 441.428C878.349 442.794 864.403 446.046 859.121 448.625L859.177 449.473C861.508 451.158 865.551 447.795 869.796 449.895C870.749 451.595 870.457 450.651 870.232 452.938C869.043 453.979 861.61 455.372 859.473 455.973C854.303 457.428 849.623 459.214 844.609 461.076Z"/><path fill="#FEFEFE" d="M398.516 472.677C397.798 474.755 396.883 477.508 395.951 479.491C392.463 486.914 388.778 494.944 380.791 498.172C364.857 504.612 350.83 504.919 334.885 498.068C323.747 493.283 313.954 484.815 309.652 473.245C306.294 464.213 304.839 450.944 308.848 441.91C309.399 442.5 309.895 445.425 310.054 446.292C311.449 454.837 313.616 459.238 318.089 466.663C330.288 486.913 358.616 499.946 380.446 487.174C389.695 481.763 392.843 469.459 394.661 459.166C396.438 460.476 398.881 461.893 400.798 463.079C400.34 466.161 399.323 469.615 398.516 472.677Z"/><path fill="#FEFEFE" d="M351.743 456.316C350.157 457.069 348.288 456.909 346.853 455.897C345.418 454.885 344.64 453.178 344.818 451.431C344.995 449.684 346.101 448.168 347.71 447.466C350.144 446.404 352.98 447.49 354.081 449.907C355.182 452.323 354.142 455.176 351.743 456.316Z"/><path d="M703.497 501.429C702.231 501.439 702.608 501.458 701.367 501.128C694.353 494.249 707.149 461.505 712.35 453.706C713.991 454.115 714.479 454.316 715.134 455.71C707.021 471.876 705.528 484.054 703.497 501.429Z"/><path d="M450.605 499.867C445.067 516.943 436.438 521.049 419.388 515.67C415.846 514.553 407.347 506.874 407.088 503.041C410.125 499.532 415.981 506.863 419.844 508.132C424.163 509.551 427.6 509.973 432.211 509.26C436.437 508.607 439.212 506.181 441.712 502.731C444.309 499.147 446.093 491.658 445.379 487.224C445.342 486.989 444.683 485.226 444.572 485.209C438.44 484.252 432.825 482.732 427.427 479.609C420.434 475.564 422.731 469.162 427.159 464.103C431.515 459.125 438.101 457.79 444.256 457.175C471.82 454.602 450.286 476.693 452.401 480.72C457.916 491.216 479.146 489.663 486.887 480.815C489.74 477.554 493.613 466.929 496.565 465.494L497.502 465.845C503.045 475.82 487.323 493.038 477.949 495.732C468.255 498.519 459.484 495.019 451.122 490.638C451.907 494.787 451.397 495.668 450.605 499.867ZM444.17 463.438C440.219 464.889 432.479 467.73 430.107 471.249C430.244 473.787 437.528 475.965 439.899 477.434C441.357 477.759 443.197 477.61 444.751 477.582C446.589 475.352 451.195 467.538 451.663 464.777C449.416 462.889 447.111 463.343 444.17 463.438Z"/><path fill="#FEFEFE" d="M439.899 477.434C437.528 475.965 430.244 473.787 430.107 471.249C432.479 467.73 440.219 464.889 444.17 463.438C447.111 463.343 449.416 462.889 451.663 464.777C451.195 467.538 446.589 475.352 444.751 477.582C443.197 477.61 441.357 477.759 439.899 477.434Z"/><path d="M814.351 488.259C812.007 489.511 804.075 494.546 801.933 493.339C801.083 487.935 807.456 484.014 811.214 481.262C823.007 472.626 836.402 468.397 850.604 465.784C854.664 465.41 865.631 464.001 868.126 467.379L867.853 468.669C865.455 469.941 859.899 469.783 857.009 470.386C841.161 473.696 828.451 481.047 814.351 488.259Z"/><path d="M780.967 532.317C778.99 533.552 773.609 536.636 772.225 533.267C773.017 526.012 784.978 517.469 790.224 513.099C805.076 500.73 821.507 493.265 840.841 490.72C843.798 490.367 849.737 490.337 851.242 493.233C849.976 496.146 839.942 498.122 835.983 499.39C814.797 506.177 798.181 518.615 780.967 532.317Z"/><path d="M759.795 572.439L757.894 572.859C756.438 572.321 757.015 572.788 756.244 571.254C756.379 565.164 764.631 557.356 768.409 552.761C784.046 533.739 801.759 527.8 824.764 522.058L826.992 522.12C828.581 523.239 828.119 522.521 828.626 524.203C826.785 527.271 814.506 530.224 810.511 532.349C797.643 539.191 785.824 546.517 775.514 557.032C770.433 562.214 765.653 568.004 759.795 572.439Z"/><path fill="#FEFEFE" d="M332.366 565.718C331.493 563.497 332.5 562.056 333.461 559.744C334.646 562.004 333.372 563.568 332.366 565.718Z"/><path fill="#FEFEFE" d="M293.102 781.044L292.972 780.349C291.377 771.342 296.905 759.544 302.051 752.545C312.372 738.506 330.49 726.857 346.27 719.862C350.079 718.174 354.163 715.693 358.233 715.033C358.68 715.066 359.666 715.438 360.146 715.595C362.013 717.267 370.35 737.459 371.757 741.377C379.893 764.038 384.025 766.656 374.486 789.046C369.64 789.828 358.538 788.233 352.648 787.967C351.43 778.982 352.767 773.238 357.63 765.422C359.323 762.7 362.737 758.246 359.414 755.75C355.773 755.433 353.832 759.139 352.188 762.002C348.274 768.815 341.477 778.403 345.551 786.459C346.214 787.77 346.335 787.975 346.657 789.395C342.61 789.9 328.727 789.369 323.514 789.548C320.016 784.378 319.456 785.981 319.331 778.875C319.941 763.05 332.992 757.418 333.684 752.651C333.8 751.855 333.66 752.039 333.047 751.31C323.944 749.4 312.245 766.482 311.17 774.457C310.258 781.216 311.132 782.458 312.734 788.809C303.294 786.385 299.749 789.941 293.102 781.044Z"/></svg>