<?xml version="1.0" standalone="no"?>
<!DOCTYPE svg PUBLIC "-//W3C//DTD SVG 20010904//EN"
 "http://www.w3.org/TR/2001/REC-SVG-20010904/DTD/svg10.dtd">
<svg version="1.0" xmlns="http://www.w3.org/2000/svg"
 width="1066.000000pt" height="1280.000000pt" viewBox="0 0 1066.000000 1280.000000"
 preserveAspectRatio="xMidYMid meet">
<g transform="translate(0.000000,1280.000000) scale(0.100000,-0.100000)"
fill="#000000" stroke="none">
<path d="M8139 12291 c-169 -72 -311 -203 -619 -571 -191 -229 -209 -247 -270
-278 -80 -41 -113 -39 -227 12 -45 20 -126 49 -180 63 -89 24 -116 26 -293 27
l-195 1 -165 -42 c-231 -59 -612 -135 -690 -136 -60 -2 -65 0 -68 21 -2 12 -6
22 -10 22 -4 0 -74 -34 -157 -75 -141 -70 -158 -82 -285 -196 -74 -66 -142
-125 -151 -130 -13 -6 -33 5 -85 45 -37 30 -101 73 -143 97 -42 23 -152 86
-246 140 -304 176 -421 219 -597 222 -95 2 -97 1 -128 -28 -56 -53 -128 -172
-154 -254 -14 -43 -32 -125 -40 -182 -8 -57 -25 -158 -37 -224 -32 -175 -32
-459 -1 -601 52 -238 150 -498 323 -854 l109 -225 -3 -265 c-2 -289 2 -328 64
-529 16 -52 29 -116 29 -146 0 -107 -67 -240 -183 -362 -39 -40 -68 -75 -66
-77 2 -2 24 -9 48 -17 25 -8 46 -19 48 -25 2 -6 -39 -47 -91 -90 -53 -44 -98
-89 -102 -100 -3 -12 2 -48 12 -79 l18 -57 -41 -37 c-52 -45 -61 -64 -90 -181
-34 -137 -73 -212 -224 -425 -171 -240 -228 -326 -265 -395 -18 -35 -83 -111
-179 -210 -150 -155 -244 -271 -347 -430 -470 -721 -642 -990 -733 -1148 -26
-46 -55 -86 -63 -90 -36 -13 -113 129 -141 262 -23 112 -50 134 -91 76 -27
-37 -49 -38 -82 -3 -33 36 -44 58 -68 135 -23 74 -54 128 -73 128 -8 0 -19
-18 -26 -41 -7 -22 -27 -57 -45 -77 -102 -115 -223 -372 -242 -512 -4 -32 -15
-59 -30 -75 -20 -21 -24 -37 -24 -85 0 -111 55 -309 127 -458 l37 -77 7 -235
c11 -405 40 -647 105 -872 102 -356 254 -641 466 -878 52 -58 140 -166 195
-241 55 -75 114 -145 129 -156 80 -56 361 -178 448 -194 72 -13 149 -5 230 22
126 43 534 52 636 14 36 -13 65 -15 150 -10 90 6 112 4 155 -13 28 -10 85 -22
128 -26 55 -4 129 -22 250 -62 l172 -57 145 6 c154 7 219 16 507 71 330 64
494 68 693 16 94 -24 127 -25 265 -1 105 19 111 21 143 57 62 72 64 125 12
314 -33 119 -18 125 24 10 88 -239 257 -547 417 -764 91 -122 233 -274 264
-282 13 -3 83 6 157 20 116 23 153 26 291 23 172 -4 174 -4 186 56 6 24 12 31
27 30 35 -5 102 28 134 63 58 66 62 89 64 321 1 200 0 213 -20 240 -19 26
-137 103 -159 103 -5 0 9 -19 32 -42 72 -75 104 -161 89 -242 -4 -20 -12 -36
-17 -36 -6 0 -42 29 -81 65 -67 61 -165 121 -188 113 -6 -2 17 -23 51 -48 153
-111 240 -286 198 -397 -12 -33 -57 -83 -75 -83 -7 0 -24 20 -38 44 -33 57
-166 191 -231 234 -57 37 -116 58 -141 48 -14 -5 -9 -11 24 -27 59 -30 162
-128 217 -208 52 -76 68 -141 43 -174 -17 -23 -75 -37 -158 -37 -92 0 -138 24
-197 102 -26 35 -80 97 -120 138 -59 62 -73 72 -79 57 -13 -35 27 -106 107
-191 43 -46 79 -89 79 -94 0 -19 -65 -30 -114 -21 -25 4 -63 17 -84 28 -50 25
-117 102 -133 149 -7 22 -41 68 -84 112 -114 119 -181 230 -252 415 -19 49
-45 109 -59 131 -27 49 -95 234 -114 314 -28 120 -71 195 -232 402 -118 153
-210 288 -205 302 2 6 23 16 47 23 85 25 110 74 86 175 -8 34 -18 72 -22 83
-16 42 27 -8 56 -65 33 -66 93 -140 140 -175 19 -14 77 -40 130 -57 87 -29
106 -32 230 -32 156 -1 187 9 218 72 46 91 82 290 82 451 1 163 12 236 65 407
48 154 67 191 161 306 38 46 45 62 40 83 -9 36 -48 49 -86 30 -37 -19 -75 -19
-136 1 -61 21 -77 33 -71 56 4 14 -20 35 -103 92 -59 41 -116 86 -126 99 -109
141 -283 346 -341 403 -102 100 -186 154 -348 225 -77 33 -180 80 -228 105
-49 24 -97 44 -107 44 -55 0 -64 25 -20 55 16 11 28 25 27 30 -2 6 -46 27 -97
48 -62 24 -107 50 -132 74 -41 40 -41 53 1 53 16 0 34 7 41 15 26 31 -28 114
-96 148 -30 14 -44 27 -44 41 -1 26 -38 74 -156 203 -101 111 -129 147 -120
162 10 16 61 -4 219 -84 81 -41 150 -75 152 -75 3 0 5 15 5 34 0 19 5 38 10
41 6 4 66 -27 133 -68 166 -102 246 -147 263 -147 8 0 14 10 14 25 0 14 3 25
6 25 3 0 47 -38 97 -85 50 -47 99 -85 108 -85 10 0 26 12 38 28 16 22 23 25
38 16 13 -8 23 -8 36 0 15 9 24 5 54 -28 32 -35 37 -37 48 -23 17 23 26 22 93
-12 66 -33 120 -46 141 -32 12 8 9 16 -17 46 -59 67 -44 72 94 34 160 -44 348
-158 463 -281 75 -80 111 -91 111 -35 0 18 -12 57 -26 86 -15 28 -24 55 -20
58 17 17 166 -45 261 -108 55 -37 132 -82 171 -102 83 -42 91 -40 125 38 18
43 22 47 29 30 5 -11 9 -30 9 -42 1 -33 24 -28 45 8 17 29 101 79 134 79 15 0
16 -22 0 -38 -41 -41 91 -17 209 38 95 44 226 132 331 221 60 51 75 59 87 49
17 -14 42 2 150 95 102 89 284 203 299 188 3 -4 6 -17 6 -30 0 -13 3 -23 8
-23 17 0 75 43 142 106 56 53 80 85 113 153 35 70 47 87 72 95 17 5 53 30 81
57 52 48 86 64 121 57 32 -6 22 -121 -21 -256 -39 -123 -45 -185 -20 -213 14
-16 8 -23 -84 -97 -135 -110 -204 -199 -127 -164 33 15 45 15 45 -1 0 -23 -90
-167 -171 -273 -43 -57 -79 -106 -79 -109 0 -3 7 -5 16 -5 27 0 12 -16 -76
-87 -86 -69 -134 -133 -124 -165 8 -26 -28 -98 -84 -172 -54 -70 -52 -63 -72
-256 -14 -142 -53 -225 -146 -307 -35 -31 -67 -67 -70 -80 -14 -52 57 -143
192 -246 28 -21 56 -48 63 -60 9 -13 16 -76 20 -183 5 -139 9 -165 25 -183 35
-38 101 -21 203 52 37 26 54 31 121 35 72 4 80 2 107 -20 24 -22 30 -35 36
-97 4 -39 12 -86 18 -104 5 -17 15 -84 20 -147 6 -63 24 -178 40 -255 17 -77
46 -214 65 -305 19 -91 40 -217 47 -280 10 -101 18 -133 69 -265 95 -244 114
-342 80 -420 -28 -65 -47 -85 -80 -85 -42 0 -65 33 -66 99 -2 77 -3 81 -13 81
-5 0 -11 -42 -13 -92 -5 -104 -25 -157 -77 -201 -81 -68 -179 -25 -222 96 -12
33 -11 47 4 105 31 117 58 151 142 177 l20 6 -20 16 c-26 19 -136 10 -180 -15
-46 -27 -73 -92 -86 -212 -11 -93 -16 -108 -40 -132 -15 -16 -38 -28 -51 -28
-72 0 -210 114 -224 184 -10 54 1 124 23 154 39 53 70 67 143 67 61 0 67 2 59
17 -15 28 -52 48 -89 48 -69 0 -136 -59 -202 -179 -15 -28 -22 -31 -62 -31
-57 0 -93 29 -106 85 -11 45 -8 87 22 289 11 77 18 156 15 175 -10 64 -115
553 -142 661 -14 58 -40 149 -56 203 -33 109 -45 182 -35 222 4 15 27 49 53
76 37 40 44 53 39 74 -4 14 -11 25 -16 25 -5 0 -33 -34 -62 -75 -76 -107 -110
-112 -124 -17 -8 53 -21 45 -53 -35 -13 -32 -30 -64 -37 -72 -11 -12 -15 -10
-24 13 -5 15 -10 45 -10 67 0 87 -58 24 -111 -121 -51 -141 -84 -183 -262
-329 -48 -40 -117 -108 -154 -152 -40 -48 -74 -79 -85 -79 -31 0 -60 80 -66
180 -5 96 7 206 44 390 29 142 49 417 32 437 -17 21 -25 15 -42 -28 -24 -59
-43 -199 -62 -459 -28 -378 -29 -546 -4 -680 11 -63 29 -182 40 -265 32 -256
59 -354 108 -398 15 -14 128 -56 150 -57 2 0 -22 30 -52 66 -31 36 -62 77 -70
92 -23 44 -45 172 -67 388 -24 233 -28 216 61 277 25 17 70 58 100 91 30 32
69 65 87 72 24 11 35 24 47 61 9 27 25 63 36 81 17 27 25 33 44 28 20 -5 25 0
35 34 16 53 62 97 139 131 35 16 77 43 93 60 26 28 33 31 62 23 36 -10 57 -47
127 -221 88 -222 138 -442 165 -731 19 -204 19 -280 0 -379 -8 -43 -15 -97
-15 -119 0 -38 5 -47 57 -94 31 -29 72 -59 91 -68 25 -13 43 -35 74 -94 44
-85 92 -132 148 -148 52 -15 124 -12 195 7 l64 17 46 -43 c63 -58 116 -81 190
-81 82 0 128 24 222 113 43 42 91 79 106 82 43 11 84 66 97 132 12 56 11 61
-40 233 -30 96 -77 250 -106 341 -64 203 -73 248 -125 654 -50 395 -58 570
-35 829 25 282 155 1225 181 1313 18 59 59 127 95 155 41 32 48 75 60 393 13
349 19 388 90 650 87 317 104 417 104 610 1 183 -13 260 -74 415 -48 122 -63
186 -95 397 -35 242 -77 423 -126 549 -84 219 -108 298 -118 394 -13 118 -33
187 -77 269 -30 55 -34 67 -25 95 5 17 24 128 41 246 39 273 64 408 101 540
37 131 29 182 -41 270 -15 19 -24 61 -40 185 -39 312 -76 434 -165 553 -30 40
-55 81 -55 91 0 10 9 44 21 77 32 92 69 270 76 364 7 110 -12 358 -42 536 -86
511 -264 870 -480 970 -65 31 -105 30 -186 -5z m210 -261 c39 -29 118 -126
146 -181 21 -40 82 -262 110 -398 55 -273 70 -550 40 -726 -16 -92 -73 -231
-99 -241 -27 -10 -54 15 -147 138 -90 119 -93 124 -91 172 1 28 13 74 27 104
14 30 24 56 22 58 -1 2 -29 -4 -61 -12 -32 -8 -62 -12 -67 -7 -5 5 17 50 47
101 31 52 54 95 52 97 -2 2 -27 -16 -57 -41 -69 -57 -85 -58 -77 -1 15 113 28
249 23 253 -3 3 -19 -38 -37 -91 -19 -57 -37 -94 -43 -92 -7 2 -16 31 -22 64
-5 34 -13 64 -16 68 -4 3 -21 -30 -39 -75 -18 -44 -37 -83 -42 -86 -14 -9 -26
13 -34 61 -11 71 -19 69 -50 -12 -29 -77 -30 -78 -74 -90 -106 -27 -273 -10
-321 33 -23 20 -35 165 -19 224 12 45 192 316 287 433 70 85 140 142 223 179
36 16 99 45 140 64 93 42 125 43 179 4z m-4399 -845 c210 -76 513 -266 733
-459 64 -57 72 -81 27 -91 -67 -15 -95 -101 -86 -262 4 -70 2 -113 -3 -113 -6
0 -22 16 -37 35 -29 38 -44 44 -44 18 0 -10 -5 -25 -10 -33 -9 -13 -11 -13
-20 0 -5 8 -14 39 -20 67 -6 29 -15 55 -19 58 -5 2 -18 -23 -30 -56 -13 -34
-27 -59 -34 -56 -7 2 -29 32 -49 67 -51 87 -58 92 -58 43 0 -49 -8 -73 -24
-73 -6 1 -51 36 -101 80 -49 43 -91 77 -93 75 -2 -2 13 -40 33 -86 44 -100 41
-113 -20 -107 -53 6 -57 -2 -15 -32 17 -12 30 -27 30 -35 0 -7 -13 -16 -30
-20 -36 -8 -37 -18 -9 -87 14 -35 25 -100 34 -193 11 -122 11 -146 -2 -185
-31 -91 -95 -190 -124 -190 -29 0 -134 154 -203 295 -81 167 -121 271 -151
399 -35 143 -44 262 -35 471 7 158 13 198 44 323 20 79 41 153 47 164 10 19
18 20 103 15 64 -3 113 -13 166 -32z m3365 -1155 c13 -26 21 -30 50 -28 19 1
37 -1 41 -5 4 -4 25 -48 46 -99 32 -77 38 -102 38 -164 0 -71 -2 -77 -84 -246
-63 -129 -96 -186 -133 -225 -81 -86 -170 -92 -250 -17 -21 20 -45 40 -55 45
-22 12 -55 103 -64 176 -12 115 44 311 131 451 38 61 44 67 72 65 26 -2 35 3
53 32 22 35 54 46 63 23 3 -10 11 -9 33 4 39 23 41 23 59 -12z m-1658 -285
c26 -10 47 -12 68 -6 63 17 220 -52 286 -127 64 -73 90 -208 69 -362 -21 -159
-66 -210 -187 -210 -81 0 -147 15 -258 57 -114 44 -176 90 -250 188 -57 74
-59 79 -57 131 3 68 29 193 44 211 6 7 18 12 27 11 10 -2 17 6 19 22 5 34 20
50 48 50 13 0 27 8 33 17 8 15 14 15 48 5 34 -11 39 -10 52 8 16 24 12 24 58
5z m3090 -127 c53 -59 142 -304 150 -413 4 -64 1 -81 -37 -185 -35 -96 -43
-133 -49 -225 -7 -88 -15 -126 -40 -188 -33 -83 -38 -136 -20 -196 9 -32 4
-63 -41 -246 -47 -191 -57 -221 -113 -325 -33 -63 -85 -155 -115 -205 -61
-100 -122 -222 -122 -243 0 -8 -33 -49 -73 -91 -41 -42 -84 -90 -96 -108 -19
-28 -133 -134 -495 -461 -89 -81 -161 -122 -253 -146 -146 -38 -419 -87 -538
-97 -151 -12 -594 -4 -670 13 -70 15 -164 65 -273 143 -77 55 -134 84 -315
160 -122 51 -240 96 -262 100 -33 6 -54 22 -120 90 -71 72 -86 83 -125 89 -58
9 -92 30 -237 147 -188 154 -238 216 -271 339 -11 41 -31 98 -43 125 l-23 50
-4 -32 c-2 -18 -7 -33 -11 -33 -10 0 -110 105 -139 147 -12 17 -22 39 -22 48
0 9 -33 49 -73 88 -88 86 -141 184 -157 291 -6 38 -9 71 -6 73 2 3 14 0 25 -7
21 -10 21 -9 21 72 0 46 4 88 8 94 19 29 56 36 150 30 113 -9 207 -36 283 -82
56 -34 136 -111 158 -153 27 -50 51 -243 51 -414 0 -167 0 -168 26 -194 25
-25 27 -25 122 -19 425 31 690 190 1025 614 153 195 174 219 182 210 4 -3 16
-57 27 -120 22 -126 20 -281 -6 -398 -16 -74 -13 -82 52 -178 55 -81 104 -82
235 -6 69 40 83 44 104 35 42 -19 64 -12 110 34 l44 45 81 0 c90 0 128 16 172
72 l24 31 32 -26 c26 -22 42 -27 86 -27 82 0 121 20 146 77 27 61 20 146 -21
263 -17 47 -31 98 -31 113 0 16 -16 65 -35 110 -39 90 -41 97 -22 97 19 0 130
-45 201 -82 33 -17 85 -39 115 -49 31 -11 72 -32 91 -48 19 -15 49 -35 66 -44
84 -44 209 -232 271 -412 33 -93 41 -216 19 -269 -20 -48 -20 -56 0 -56 40 0
53 109 33 270 -16 135 -56 205 -246 433 -46 54 -83 103 -83 108 0 21 30 18
120 -12 89 -29 106 -31 280 -35 129 -4 219 -11 297 -26 144 -27 150 -25 118
44 -30 64 -31 91 -5 115 19 18 19 19 -10 103 -36 105 -67 293 -76 468 -7 134
-1 157 26 107 7 -14 16 -25 20 -25 4 0 19 38 34 84 15 46 51 123 79 170 56 93
140 196 161 196 7 0 22 -10 33 -22z m-1066 -225 c9 -9 2 -13 -27 -18 -126 -21
-143 -27 -187 -65 -63 -56 -101 -144 -102 -236 0 -62 4 -76 27 -110 15 -21 25
-40 23 -42 -10 -11 -82 48 -100 81 -10 19 -29 40 -42 46 -13 6 -23 16 -23 23
0 12 26 60 95 173 40 67 113 138 155 152 43 15 165 12 181 -4z m248 -64 c55
-19 68 -20 103 -9 66 19 68 7 29 -167 -11 -51 -29 -109 -40 -130 -31 -62 -120
-139 -182 -158 -70 -21 -194 -31 -203 -17 -4 7 3 13 16 16 207 40 235 53 288
136 65 101 43 214 -56 297 -70 59 -58 67 45 32z m-263 -120 c58 -35 70 -86 33
-133 -17 -21 -29 -26 -65 -26 -95 0 -141 58 -104 130 11 21 25 40 32 43 29 12
73 6 104 -14z m-1896 -210 c47 -17 101 -34 120 -39 39 -10 100 -70 100 -98 0
-10 -13 -28 -29 -39 -23 -18 -32 -37 -49 -109 -22 -89 -62 -171 -88 -181 -24
-9 -25 0 -3 56 23 61 49 179 49 222 0 17 -6 42 -14 57 -18 35 -107 88 -202
122 -41 14 -71 29 -68 33 17 16 105 5 184 -24z m-435 -96 c-36 -82 -47 -132
-42 -188 12 -128 44 -180 141 -226 33 -16 93 -34 133 -41 40 -6 73 -15 73 -20
0 -4 -17 -12 -39 -18 -112 -30 -346 89 -381 195 -7 21 -24 41 -46 54 -19 11
-34 28 -34 37 0 23 173 224 193 224 5 0 6 -8 2 -17z m311 -97 c28 -28 34 -42
34 -76 0 -34 -6 -47 -31 -70 -16 -16 -39 -32 -50 -35 -56 -18 -119 91 -92 160
5 15 74 54 97 55 4 0 23 -15 42 -34z m2761 -2134 c38 -24 35 -92 -13 -266 -77
-277 -215 -549 -356 -703 -202 -220 -261 -273 -308 -273 -11 0 -38 -18 -60
-40 -22 -23 -49 -40 -61 -40 -33 0 -59 29 -59 65 0 87 157 446 233 532 33 37
95 73 126 73 25 0 67 49 144 168 35 53 82 118 104 144 23 26 47 64 53 85 19
57 99 215 123 241 21 22 52 28 74 14z m-3266 -240 c24 -15 56 -33 71 -39 37
-17 101 -76 144 -134 19 -27 49 -58 65 -70 l29 -21 11 31 c22 62 84 48 135
-29 26 -39 26 -39 56 -24 37 19 57 12 97 -32 l32 -35 31 22 c43 31 74 18 112
-47 l31 -51 70 -6 c42 -3 92 -15 126 -30 30 -14 86 -28 123 -32 79 -9 112 -32
171 -120 20 -30 40 -55 45 -55 13 0 129 -139 151 -182 32 -63 78 -198 72 -214
-7 -18 -55 -44 -82 -44 -12 0 -42 15 -68 34 -57 40 -116 61 -198 70 -136 15
-309 56 -355 85 -14 8 -53 37 -87 64 l-63 49 -26 -21 c-34 -27 -44 -26 -103 4
-195 98 -517 456 -677 751 -33 62 -36 74 -25 88 20 24 62 19 112 -12z m-843
-2451 c85 -43 412 -381 503 -521 28 -42 59 -106 71 -145 12 -40 42 -100 68
-140 50 -74 115 -216 146 -320 15 -47 19 -94 19 -215 0 -141 -2 -163 -28 -250
-34 -113 -75 -201 -117 -252 -36 -43 -145 -101 -227 -120 l-58 -13 90 -6 c231
-15 623 -141 819 -263 87 -54 178 -148 196 -200 14 -43 8 -102 -16 -150 -25
-49 -65 -97 -77 -93 -6 2 -12 24 -13 50 -2 27 -16 75 -35 113 -48 102 -159
205 -159 148 0 -9 24 -50 54 -92 87 -124 90 -134 71 -192 -20 -62 -63 -100
-111 -100 -49 0 -68 12 -99 67 -15 25 -64 84 -109 131 -124 130 -236 202 -312
202 -77 0 -44 -37 103 -116 147 -79 216 -132 243 -188 38 -79 41 -78 -213 -75
l-222 3 -180 -54 -180 -55 -130 1 c-96 1 -151 7 -210 22 -44 11 -136 26 -205
32 -209 19 -273 39 -352 109 -44 39 -49 41 -111 41 -40 0 -68 5 -75 13 -6 7
-7 33 -2 68 9 63 84 193 118 204 39 12 45 31 27 78 -19 51 -17 86 7 101 13 8
22 6 37 -8 21 -19 21 -19 21 11 0 17 -7 65 -16 108 -9 42 -13 87 -10 100 15
59 197 299 248 326 13 7 42 7 93 -2 74 -12 74 -12 107 16 31 26 37 27 103 22
38 -4 80 -9 92 -13 17 -5 22 -1 25 18 4 33 38 34 127 3 41 -14 83 -25 93 -25
21 0 20 -7 22 225 l1 170 35 5 c42 6 48 22 49 136 2 149 -57 311 -162 444 -51
64 -52 66 -58 152 -10 133 -56 230 -200 420 -33 42 -59 82 -59 89 0 19 109 5
158 -20z"/>
<path d="M5907 8080 c-35 -28 -116 -151 -143 -219 -49 -121 -70 -409 -37 -507
25 -75 102 -178 120 -161 3 4 -6 46 -21 95 -39 125 -59 269 -52 373 8 129 34
199 116 313 38 54 70 105 70 112 0 20 -23 17 -53 -6z"/>
<path d="M6967 7780 c-188 -34 -400 -140 -477 -238 -50 -62 -4 -183 121 -320
77 -85 87 -92 137 -103 46 -9 143 -8 222 3 24 3 25 1 28 -68 l3 -72 -40 -33
c-78 -67 -193 -128 -271 -145 -121 -26 -309 -4 -442 52 -61 25 -130 35 -137
19 -9 -20 100 -73 206 -99 135 -34 246 -42 353 -27 144 21 246 67 393 175 l27
20 118 -25 c164 -34 312 -32 437 5 130 39 172 62 246 136 102 102 131 159 57
111 -18 -11 -47 -28 -65 -36 -17 -8 -41 -28 -53 -45 -15 -21 -53 -46 -115 -75
-147 -70 -223 -80 -356 -46 -89 23 -230 80 -234 95 -28 115 -28 115 65 145 76
25 131 66 171 130 28 44 29 49 29 177 0 139 -7 174 -43 212 -43 46 -75 55
-207 58 -69 2 -147 -1 -173 -6z m298 -188 c5 -19 -7 -61 -59 -211 -30 -85 -41
-101 -67 -101 -63 0 -6 284 63 318 35 16 56 14 63 -6z m-564 -156 c55 -23 114
-71 140 -113 13 -21 36 -49 51 -61 35 -30 37 -62 4 -62 -23 0 -116 63 -116 80
0 5 -38 36 -85 70 -56 41 -85 68 -85 81 0 24 41 26 91 5z"/>
</g>
</svg>
